<svg width="1404" height="222" viewBox="0 0 1404 222" fill="none" xmlns="http://www.w3.org/2000/svg">
              <path d="M1337.03 220.864H880C868.95 220.864 860 212.031 860 201.126V20.5302C860 9.6254 868.95 0.792969 880 0.792969H1337.05C1344.57 0.792969 1351.46 4.95753 1354.87 11.5794L1401.39 101.749C1404.29 107.364 1404.29 114.016 1401.39 119.641L1354.86 210.067C1351.45 216.689 1344.56 220.864 1337.03 220.864Z" fill="#F2F2F2"/>
              <path d="M1079.61 108V91.44H1086.06C1087.05 91.44 1087.89 91.6432 1088.59 92.0495C1089.3 92.4558 1089.83 92.9925 1090.2 93.6595C1090.58 94.3188 1090.77 95.0318 1090.77 95.7985C1090.77 96.6955 1090.54 97.4813 1090.08 98.156C1089.62 98.8307 1088.99 99.2945 1088.21 99.5475L1088.19 98.984C1089.25 99.2677 1090.08 99.789 1090.67 100.548C1091.26 101.307 1091.56 102.212 1091.56 103.262C1091.56 104.228 1091.36 105.064 1090.96 105.769C1090.57 106.474 1090 107.022 1089.26 107.413C1088.52 107.804 1087.65 108 1086.64 108H1079.61ZM1081.68 106.045H1086.25C1086.86 106.045 1087.41 105.934 1087.89 105.711C1088.37 105.481 1088.75 105.159 1089.03 104.745C1089.31 104.331 1089.45 103.833 1089.45 103.25C1089.45 102.691 1089.33 102.189 1089.07 101.744C1088.83 101.299 1088.48 100.947 1088.03 100.686C1087.58 100.418 1087.07 100.283 1086.48 100.283H1081.68V106.045ZM1081.68 98.3515H1086.04C1086.53 98.3515 1086.97 98.248 1087.36 98.041C1087.76 97.8263 1088.07 97.5273 1088.3 97.144C1088.54 96.7607 1088.66 96.3122 1088.66 95.7985C1088.66 95.0855 1088.42 94.5028 1087.94 94.0505C1087.45 93.5982 1086.82 93.372 1086.04 93.372H1081.68V98.3515ZM1093.84 108V95.58H1095.89V100.812H1102.42V95.58H1104.46V108H1102.42V102.756H1095.89V108H1093.84ZM1113.07 108.345C1111.85 108.345 1110.78 108.077 1109.87 107.54C1108.97 106.996 1108.26 106.24 1107.76 105.274C1107.25 104.301 1107 103.166 1107 101.87C1107 100.513 1107.25 99.3405 1107.74 98.3515C1108.24 97.3548 1108.94 96.5882 1109.83 96.0515C1110.72 95.5072 1111.77 95.235 1112.98 95.235C1114.23 95.235 1115.29 95.5225 1116.16 96.0975C1117.04 96.6725 1117.7 97.4928 1118.14 98.5585C1118.58 99.6242 1118.78 100.893 1118.71 102.365H1116.64V101.629C1116.62 100.103 1116.31 98.9648 1115.71 98.2135C1115.12 97.4545 1114.23 97.075 1113.05 97.075C1111.78 97.075 1110.82 97.4813 1110.16 98.294C1109.5 99.1067 1109.17 100.272 1109.17 101.79C1109.17 103.254 1109.5 104.389 1110.16 105.194C1110.82 105.999 1111.76 106.401 1112.98 106.401C1113.8 106.401 1114.51 106.214 1115.12 105.838C1115.72 105.462 1116.2 104.922 1116.54 104.216L1118.51 104.895C1118.02 105.991 1117.3 106.842 1116.32 107.448C1115.36 108.046 1114.27 108.345 1113.07 108.345ZM1108.48 102.365V100.72H1117.66V102.365H1108.48ZM1120.36 110.76V106.31C1121.05 106.31 1121.55 106.083 1121.85 105.631C1122.15 105.171 1122.39 104.416 1122.57 103.365C1122.7 102.706 1122.8 102.001 1122.87 101.249C1122.95 100.498 1123.02 99.6625 1123.07 98.7425C1123.13 97.8148 1123.19 96.7607 1123.24 95.58H1131.8V106.31H1133.01V110.76H1131.05V108H1122.31V110.76H1120.36ZM1123.51 106.31H1129.75V97.2705H1125.09C1125.07 97.8148 1125.04 98.386 1125 98.984C1124.96 99.5743 1124.92 100.165 1124.86 100.755C1124.82 101.345 1124.76 101.905 1124.69 102.434C1124.63 102.955 1124.56 103.423 1124.47 103.837C1124.37 104.412 1124.26 104.899 1124.13 105.297C1124 105.696 1123.79 106.033 1123.51 106.31ZM1141.02 108.345C1139.85 108.345 1138.87 108.058 1138.07 107.482C1137.28 106.9 1136.67 106.114 1136.26 105.125C1135.85 104.128 1135.65 103.013 1135.65 101.778C1135.65 100.529 1135.85 99.4095 1136.26 98.4205C1136.67 97.4315 1137.28 96.6533 1138.07 96.086C1138.88 95.5187 1139.86 95.235 1141.03 95.235C1142.18 95.235 1143.17 95.5225 1144 96.0975C1144.83 96.6648 1145.47 97.443 1145.92 98.432C1146.36 99.421 1146.58 100.536 1146.58 101.778C1146.58 103.02 1146.36 104.136 1145.92 105.125C1145.47 106.114 1144.83 106.9 1144 107.482C1143.17 108.058 1142.17 108.345 1141.02 108.345ZM1135.3 113.52V95.58H1137.13V104.722H1137.36V113.52H1135.3ZM1140.76 106.47C1141.58 106.47 1142.26 106.263 1142.8 105.849C1143.34 105.435 1143.74 104.876 1144.01 104.17C1144.28 103.457 1144.41 102.66 1144.41 101.778C1144.41 100.904 1144.28 100.115 1144.01 99.4095C1143.75 98.7042 1143.34 98.1445 1142.79 97.7305C1142.24 97.3165 1141.55 97.1095 1140.71 97.1095C1139.9 97.1095 1139.23 97.3088 1138.71 97.7075C1138.18 98.0985 1137.78 98.6467 1137.52 99.352C1137.26 100.05 1137.13 100.858 1137.13 101.778C1137.13 102.683 1137.26 103.492 1137.51 104.205C1137.77 104.91 1138.17 105.466 1138.71 105.872C1139.24 106.271 1139.93 106.47 1140.76 106.47ZM1154.49 108.345C1153.27 108.345 1152.2 108.077 1151.29 107.54C1150.38 106.996 1149.68 106.24 1149.17 105.274C1148.67 104.301 1148.41 103.166 1148.41 101.87C1148.41 100.513 1148.66 99.3405 1149.16 98.3515C1149.66 97.3548 1150.35 96.5882 1151.24 96.0515C1152.14 95.5072 1153.19 95.235 1154.39 95.235C1155.64 95.235 1156.71 95.5225 1157.58 96.0975C1158.46 96.6725 1159.12 97.4928 1159.56 98.5585C1160 99.6242 1160.19 100.893 1160.13 102.365H1158.06V101.629C1158.04 100.103 1157.73 98.9648 1157.13 98.2135C1156.53 97.4545 1155.64 97.075 1154.46 97.075C1153.2 97.075 1152.24 97.4813 1151.58 98.294C1150.92 99.1067 1150.59 100.272 1150.59 101.79C1150.59 103.254 1150.92 104.389 1151.58 105.194C1152.24 105.999 1153.18 106.401 1154.39 106.401C1155.21 106.401 1155.93 106.214 1156.53 105.838C1157.14 105.462 1157.61 104.922 1157.96 104.216L1159.93 104.895C1159.44 105.991 1158.71 106.842 1157.74 107.448C1156.77 108.046 1155.69 108.345 1154.49 108.345ZM1149.9 102.365V100.72H1159.07V102.365H1149.9ZM1162.68 108V95.58H1164.73V100.812H1171.26V95.58H1173.31V108H1171.26V102.756H1164.73V108H1162.68ZM1186.69 95.58V108H1184.72V98.846L1178.21 108H1176.52V95.58H1178.5V104.607L1185.02 95.58H1186.69ZM1195.3 108.345C1194.08 108.345 1193.01 108.077 1192.1 107.54C1191.2 106.996 1190.49 106.24 1189.98 105.274C1189.48 104.301 1189.23 103.166 1189.23 101.87C1189.23 100.513 1189.47 99.3405 1189.97 98.3515C1190.47 97.3548 1191.17 96.5882 1192.05 96.0515C1192.95 95.5072 1194 95.235 1195.21 95.235C1196.46 95.235 1197.52 95.5225 1198.39 96.0975C1199.27 96.6725 1199.93 97.4928 1200.37 98.5585C1200.81 99.6242 1201.01 100.893 1200.94 102.365H1198.87V101.629C1198.85 100.103 1198.54 98.9648 1197.94 98.2135C1197.34 97.4545 1196.46 97.075 1195.27 97.075C1194.01 97.075 1193.05 97.4813 1192.39 98.294C1191.73 99.1067 1191.4 100.272 1191.4 101.79C1191.4 103.254 1191.73 104.389 1192.39 105.194C1193.05 105.999 1193.99 106.401 1195.21 106.401C1196.03 106.401 1196.74 106.214 1197.34 105.838C1197.95 105.462 1198.43 104.922 1198.77 104.216L1200.74 104.895C1200.25 105.991 1199.53 106.842 1198.55 107.448C1197.59 108.046 1196.5 108.345 1195.3 108.345ZM1190.71 102.365V100.72H1199.89V102.365H1190.71ZM1084.84 131.345C1083.59 131.345 1082.52 131.065 1081.63 130.505C1080.76 129.938 1080.09 129.16 1079.63 128.171C1079.17 127.182 1078.94 126.055 1078.92 124.79C1078.94 123.494 1079.18 122.356 1079.64 121.374C1080.12 120.385 1080.8 119.615 1081.68 119.063C1082.56 118.511 1083.62 118.235 1084.87 118.235C1086.18 118.235 1087.3 118.557 1088.25 119.201C1089.2 119.845 1089.83 120.727 1090.16 121.846L1088.13 122.455C1087.87 121.735 1087.45 121.175 1086.86 120.776C1086.27 120.378 1085.6 120.178 1084.84 120.178C1083.99 120.178 1083.29 120.378 1082.74 120.776C1082.19 121.167 1081.78 121.712 1081.51 122.409C1081.24 123.099 1081.1 123.893 1081.09 124.79C1081.11 126.17 1081.43 127.285 1082.05 128.136C1082.68 128.98 1083.61 129.401 1084.84 129.401C1085.66 129.401 1086.33 129.217 1086.87 128.849C1087.4 128.474 1087.81 127.933 1088.09 127.228L1090.16 127.768C1089.73 128.926 1089.06 129.812 1088.14 130.425C1087.23 131.038 1086.13 131.345 1084.84 131.345ZM1097.46 131.345C1096.22 131.345 1095.16 131.065 1094.26 130.505C1093.37 129.946 1092.68 129.171 1092.2 128.182C1091.72 127.193 1091.48 126.059 1091.48 124.778C1091.48 123.475 1091.72 122.333 1092.21 121.351C1092.7 120.37 1093.4 119.607 1094.29 119.063C1095.19 118.511 1096.24 118.235 1097.46 118.235C1098.7 118.235 1099.77 118.515 1100.66 119.074C1101.56 119.626 1102.25 120.397 1102.72 121.386C1103.21 122.367 1103.45 123.498 1103.45 124.778C1103.45 126.074 1103.21 127.216 1102.72 128.205C1102.24 129.187 1101.55 129.957 1100.65 130.517C1099.76 131.069 1098.69 131.345 1097.46 131.345ZM1097.46 129.401C1098.74 129.401 1099.7 128.972 1100.33 128.113C1100.96 127.255 1101.27 126.143 1101.27 124.778C1101.27 123.375 1100.96 122.26 1100.32 121.432C1099.68 120.596 1098.73 120.178 1097.46 120.178C1096.59 120.178 1095.88 120.374 1095.32 120.765C1094.76 121.156 1094.34 121.696 1094.06 122.386C1093.79 123.076 1093.65 123.874 1093.65 124.778C1093.65 126.174 1093.97 127.293 1094.62 128.136C1095.26 128.98 1096.21 129.401 1097.46 129.401ZM1110.14 131.345C1108.91 131.345 1107.83 131.081 1106.88 130.551C1105.94 130.015 1105.2 129.279 1104.65 128.343L1106.29 127.285C1106.74 127.968 1107.28 128.493 1107.91 128.861C1108.54 129.221 1109.25 129.401 1110.06 129.401C1110.9 129.401 1111.57 129.21 1112.07 128.826C1112.57 128.435 1112.82 127.91 1112.82 127.251C1112.82 126.76 1112.69 126.385 1112.45 126.124C1112.2 125.863 1111.85 125.683 1111.39 125.583C1110.93 125.484 1110.38 125.434 1109.75 125.434H1108.46V123.743H1109.74C1110.54 123.743 1111.2 123.613 1111.7 123.352C1112.21 123.092 1112.46 122.647 1112.46 122.018C1112.46 121.374 1112.22 120.907 1111.75 120.615C1111.28 120.316 1110.72 120.167 1110.07 120.167C1109.38 120.167 1108.72 120.313 1108.09 120.604C1107.46 120.888 1106.92 121.248 1106.47 121.685L1105.23 120.293C1105.87 119.634 1106.61 119.128 1107.45 118.775C1108.29 118.415 1109.21 118.235 1110.2 118.235C1110.99 118.235 1111.72 118.377 1112.38 118.66C1113.05 118.936 1113.58 119.347 1113.97 119.891C1114.37 120.428 1114.57 121.083 1114.57 121.857C1114.57 122.517 1114.41 123.103 1114.11 123.617C1113.8 124.131 1113.35 124.579 1112.75 124.962L1112.67 124.238C1113.17 124.361 1113.59 124.587 1113.92 124.916C1114.26 125.238 1114.51 125.622 1114.67 126.066C1114.83 126.511 1114.91 126.975 1114.91 127.458C1114.91 128.271 1114.7 128.968 1114.27 129.551C1113.84 130.126 1113.27 130.571 1112.55 130.885C1111.83 131.192 1111.03 131.345 1110.14 131.345ZM1116.51 133.76V129.31C1117.21 129.31 1117.71 129.083 1118.01 128.631C1118.31 128.171 1118.55 127.416 1118.73 126.365C1118.86 125.706 1118.96 125.001 1119.03 124.249C1119.11 123.498 1119.17 122.662 1119.23 121.742C1119.29 120.815 1119.35 119.761 1119.4 118.58H1127.96V129.31H1129.16V133.76H1127.21V131H1118.47V133.76H1116.51ZM1119.67 129.31H1125.91V120.27H1121.25C1121.23 120.815 1121.2 121.386 1121.16 121.984C1121.12 122.574 1121.08 123.165 1121.02 123.755C1120.98 124.345 1120.92 124.905 1120.85 125.434C1120.79 125.955 1120.72 126.423 1120.63 126.837C1120.53 127.412 1120.42 127.899 1120.29 128.297C1120.16 128.696 1119.95 129.033 1119.67 129.31ZM1135 131.345C1134.08 131.345 1133.3 131.176 1132.67 130.839C1132.05 130.494 1131.58 130.042 1131.25 129.482C1130.94 128.922 1130.78 128.309 1130.78 127.642C1130.78 126.99 1130.9 126.427 1131.15 125.951C1131.4 125.468 1131.76 125.07 1132.21 124.755C1132.66 124.433 1133.2 124.18 1133.83 123.996C1134.42 123.835 1135.08 123.697 1135.81 123.582C1136.54 123.46 1137.29 123.349 1138.04 123.249C1138.79 123.149 1139.49 123.053 1140.14 122.961L1139.41 123.387C1139.43 122.283 1139.21 121.466 1138.74 120.937C1138.28 120.408 1137.48 120.144 1136.35 120.144C1135.6 120.144 1134.94 120.316 1134.37 120.661C1133.81 120.999 1133.42 121.551 1133.19 122.317L1131.24 121.731C1131.54 120.642 1132.12 119.787 1132.98 119.166C1133.84 118.545 1134.97 118.235 1136.37 118.235C1137.5 118.235 1138.46 118.438 1139.27 118.844C1140.08 119.243 1140.66 119.849 1141.02 120.661C1141.19 121.045 1141.3 121.463 1141.35 121.915C1141.4 122.36 1141.42 122.827 1141.42 123.318V131H1139.6V128.021L1140.03 128.297C1139.56 129.302 1138.91 130.061 1138.06 130.574C1137.23 131.088 1136.21 131.345 1135 131.345ZM1135.31 129.631C1136.05 129.631 1136.69 129.501 1137.22 129.24C1137.77 128.972 1138.2 128.623 1138.53 128.194C1138.86 127.757 1139.08 127.282 1139.18 126.768C1139.29 126.385 1139.35 125.959 1139.36 125.491C1139.38 125.016 1139.38 124.652 1139.38 124.399L1140.1 124.709C1139.43 124.801 1138.77 124.89 1138.13 124.974C1137.49 125.058 1136.88 125.15 1136.3 125.25C1135.73 125.342 1135.21 125.453 1134.75 125.583C1134.41 125.691 1134.09 125.829 1133.8 125.997C1133.5 126.166 1133.27 126.385 1133.08 126.653C1132.91 126.914 1132.82 127.239 1132.82 127.63C1132.82 127.968 1132.9 128.29 1133.07 128.596C1133.25 128.903 1133.52 129.152 1133.88 129.344C1134.24 129.536 1134.72 129.631 1135.31 129.631ZM1144.4 131V118.58H1146.45V123.812H1152.98V118.58H1155.02V131H1152.98V125.756H1146.45V131H1144.4ZM1158.23 131V118.58H1160.28V123.812H1166.81V118.58H1168.86V131H1166.81V125.756H1160.28V131H1158.23ZM1177.37 131.345C1176.14 131.345 1175.07 131.065 1174.17 130.505C1173.29 129.946 1172.6 129.171 1172.12 128.182C1171.63 127.193 1171.39 126.059 1171.39 124.778C1171.39 123.475 1171.64 122.333 1172.13 121.351C1172.62 120.37 1173.31 119.607 1174.21 119.063C1175.11 118.511 1176.16 118.235 1177.37 118.235C1178.61 118.235 1179.68 118.515 1180.58 119.074C1181.48 119.626 1182.16 120.397 1182.64 121.386C1183.12 122.367 1183.36 123.498 1183.36 124.778C1183.36 126.074 1183.12 127.216 1182.64 128.205C1182.16 129.187 1181.47 129.957 1180.57 130.517C1179.67 131.069 1178.61 131.345 1177.37 131.345ZM1177.37 129.401C1178.66 129.401 1179.62 128.972 1180.25 128.113C1180.88 127.255 1181.19 126.143 1181.19 124.778C1181.19 123.375 1180.87 122.26 1180.24 121.432C1179.6 120.596 1178.64 120.178 1177.37 120.178C1176.51 120.178 1175.79 120.374 1175.23 120.765C1174.67 121.156 1174.26 121.696 1173.98 122.386C1173.7 123.076 1173.57 123.874 1173.57 124.778C1173.57 126.174 1173.89 127.293 1174.53 128.136C1175.18 128.98 1176.12 129.401 1177.37 129.401ZM1185.9 131V118.58H1194.52V120.523H1187.94V131H1185.9ZM1201.76 131.345C1200.53 131.345 1199.46 131.065 1198.57 130.505C1197.68 129.946 1196.99 129.171 1196.51 128.182C1196.03 127.193 1195.78 126.059 1195.78 124.778C1195.78 123.475 1196.03 122.333 1196.52 121.351C1197.01 120.37 1197.7 119.607 1198.6 119.063C1199.5 118.511 1200.55 118.235 1201.76 118.235C1203.01 118.235 1204.08 118.515 1204.97 119.074C1205.87 119.626 1206.56 120.397 1207.03 121.386C1207.51 122.367 1207.76 123.498 1207.76 124.778C1207.76 126.074 1207.51 127.216 1207.03 128.205C1206.55 129.187 1205.86 129.957 1204.96 130.517C1204.06 131.069 1203 131.345 1201.76 131.345ZM1201.76 129.401C1203.05 129.401 1204.01 128.972 1204.64 128.113C1205.27 127.255 1205.58 126.143 1205.58 124.778C1205.58 123.375 1205.26 122.26 1204.63 121.432C1203.99 120.596 1203.04 120.178 1201.76 120.178C1200.9 120.178 1200.18 120.374 1199.63 120.765C1199.07 121.156 1198.65 121.696 1198.37 122.386C1198.1 123.076 1197.96 123.874 1197.96 124.778C1197.96 126.174 1198.28 127.293 1198.92 128.136C1199.57 128.98 1200.51 129.401 1201.76 129.401ZM1214.89 131V114.44H1227.82V131H1225.77V116.383H1216.94V131H1214.89ZM1237.85 131.345C1236.2 131.345 1234.8 130.981 1233.65 130.252C1232.5 129.524 1231.62 128.512 1231.02 127.216C1230.42 125.921 1230.12 124.422 1230.12 122.72C1230.12 121.018 1230.42 119.519 1231.02 118.223C1231.62 116.928 1232.5 115.916 1233.65 115.187C1234.8 114.459 1236.2 114.095 1237.85 114.095C1239.51 114.095 1240.91 114.459 1242.06 115.187C1243.21 115.916 1244.08 116.928 1244.68 118.223C1245.28 119.519 1245.58 121.018 1245.58 122.72C1245.58 124.422 1245.28 125.921 1244.68 127.216C1244.08 128.512 1243.21 129.524 1242.06 130.252C1240.91 130.981 1239.51 131.345 1237.85 131.345ZM1237.85 129.39C1239.08 129.398 1240.11 129.122 1240.93 128.562C1241.76 127.995 1242.38 127.209 1242.78 126.204C1243.2 125.2 1243.4 124.039 1243.4 122.72C1243.4 121.394 1243.2 120.232 1242.78 119.235C1242.38 118.239 1241.76 117.461 1240.93 116.901C1240.11 116.341 1239.08 116.058 1237.85 116.05C1236.62 116.042 1235.59 116.318 1234.77 116.878C1233.95 117.438 1233.34 118.22 1232.93 119.224C1232.51 120.228 1232.3 121.394 1232.3 122.72C1232.29 124.039 1232.49 125.196 1232.9 126.193C1233.32 127.19 1233.94 127.972 1234.76 128.539C1235.58 129.099 1236.62 129.382 1237.85 129.39Z" fill="#000206"/>
              <path d="M406 1.29297H884.05C891.156 1.29297 897.682 5.10506 901.104 11.21L901.426 11.8086L947.945 101.979C950.683 107.279 950.769 113.527 948.202 118.896L947.945 119.412L901.415 209.839C898.092 216.292 891.375 220.363 884.03 220.363H406C395.22 220.363 386.5 211.748 386.5 201.126V20.5303C386.5 9.90778 395.22 1.29297 406 1.29297Z" fill="white" stroke="#254E6C"/>
              <path d="M620.735 120V103.44H627.279C627.44 103.44 627.631 103.448 627.854 103.463C628.076 103.471 628.291 103.494 628.498 103.532C629.395 103.67 630.146 103.977 630.752 104.452C631.365 104.927 631.825 105.529 632.132 106.257C632.438 106.978 632.592 107.779 632.592 108.661C632.592 109.535 632.434 110.336 632.12 111.064C631.813 111.785 631.353 112.387 630.74 112.87C630.134 113.345 629.387 113.652 628.498 113.79C628.291 113.821 628.076 113.844 627.854 113.859C627.631 113.874 627.44 113.882 627.279 113.882H622.782V120H620.735ZM622.782 111.938H627.21C627.355 111.938 627.52 111.931 627.704 111.915C627.896 111.9 628.076 111.873 628.245 111.835C628.774 111.712 629.203 111.49 629.533 111.168C629.87 110.838 630.115 110.455 630.269 110.018C630.422 109.573 630.499 109.121 630.499 108.661C630.499 108.201 630.422 107.752 630.269 107.315C630.115 106.871 629.87 106.484 629.533 106.154C629.203 105.824 628.774 105.602 628.245 105.487C628.076 105.441 627.896 105.414 627.704 105.406C627.52 105.391 627.355 105.383 627.21 105.383H622.782V111.938ZM638.416 120.345C637.488 120.345 636.71 120.176 636.081 119.839C635.46 119.494 634.989 119.042 634.667 118.482C634.353 117.922 634.195 117.309 634.195 116.642C634.195 115.99 634.318 115.427 634.563 114.951C634.816 114.468 635.169 114.07 635.621 113.755C636.074 113.433 636.614 113.18 637.243 112.996C637.833 112.835 638.493 112.697 639.221 112.582C639.957 112.46 640.701 112.349 641.452 112.249C642.203 112.149 642.905 112.053 643.556 111.961L642.82 112.387C642.843 111.283 642.621 110.466 642.153 109.937C641.693 109.408 640.896 109.144 639.761 109.144C639.01 109.144 638.351 109.316 637.783 109.661C637.224 109.999 636.829 110.551 636.599 111.317L634.655 110.731C634.954 109.642 635.533 108.787 636.392 108.166C637.251 107.545 638.381 107.235 639.784 107.235C640.911 107.235 641.877 107.438 642.682 107.844C643.495 108.243 644.078 108.849 644.43 109.661C644.607 110.045 644.718 110.463 644.764 110.915C644.81 111.36 644.833 111.827 644.833 112.318V120H643.016V117.021L643.441 117.297C642.974 118.302 642.318 119.061 641.475 119.574C640.639 120.088 639.62 120.345 638.416 120.345ZM638.726 118.631C639.462 118.631 640.099 118.501 640.635 118.24C641.18 117.972 641.617 117.623 641.946 117.194C642.276 116.757 642.491 116.282 642.59 115.768C642.705 115.385 642.767 114.959 642.774 114.491C642.79 114.016 642.797 113.652 642.797 113.399L643.51 113.709C642.843 113.801 642.188 113.89 641.544 113.974C640.9 114.058 640.29 114.15 639.715 114.25C639.14 114.342 638.623 114.453 638.163 114.583C637.826 114.691 637.507 114.829 637.208 114.997C636.917 115.166 636.679 115.385 636.495 115.653C636.319 115.914 636.231 116.239 636.231 116.63C636.231 116.968 636.315 117.29 636.484 117.596C636.66 117.903 636.929 118.152 637.289 118.344C637.657 118.536 638.136 118.631 638.726 118.631ZM652.273 120.345C651.047 120.345 649.962 120.081 649.019 119.551C648.076 119.015 647.332 118.279 646.788 117.343L648.421 116.285C648.873 116.968 649.414 117.493 650.042 117.861C650.671 118.221 651.388 118.401 652.193 118.401C653.036 118.401 653.707 118.21 654.205 117.826C654.704 117.435 654.953 116.91 654.953 116.251C654.953 115.76 654.83 115.385 654.585 115.124C654.34 114.863 653.987 114.683 653.527 114.583C653.067 114.484 652.519 114.434 651.882 114.434H650.594V112.743H651.871C652.676 112.743 653.331 112.613 653.837 112.352C654.343 112.092 654.596 111.647 654.596 111.018C654.596 110.374 654.359 109.907 653.883 109.615C653.416 109.316 652.856 109.167 652.204 109.167C651.514 109.167 650.855 109.313 650.226 109.604C649.598 109.888 649.057 110.248 648.605 110.685L647.363 109.293C648.007 108.634 648.747 108.128 649.582 107.775C650.426 107.415 651.342 107.235 652.331 107.235C653.128 107.235 653.857 107.377 654.516 107.66C655.183 107.936 655.712 108.347 656.103 108.891C656.502 109.428 656.701 110.083 656.701 110.857C656.701 111.517 656.548 112.103 656.241 112.617C655.934 113.131 655.482 113.579 654.884 113.962L654.803 113.238C655.309 113.361 655.727 113.587 656.057 113.916C656.394 114.238 656.643 114.622 656.804 115.066C656.965 115.511 657.046 115.975 657.046 116.458C657.046 117.271 656.831 117.968 656.402 118.551C655.98 119.126 655.409 119.571 654.688 119.885C653.968 120.192 653.163 120.345 652.273 120.345ZM665.274 120.345C664.109 120.345 663.127 120.058 662.33 119.482C661.533 118.9 660.927 118.114 660.513 117.125C660.107 116.128 659.903 115.013 659.903 113.778C659.903 112.529 660.107 111.409 660.513 110.42C660.927 109.431 661.533 108.653 662.33 108.086C663.135 107.519 664.12 107.235 665.285 107.235C666.435 107.235 667.424 107.522 668.252 108.097C669.088 108.665 669.728 109.443 670.173 110.432C670.618 111.421 670.84 112.536 670.84 113.778C670.84 115.02 670.618 116.136 670.173 117.125C669.728 118.114 669.088 118.9 668.252 119.482C667.424 120.058 666.432 120.345 665.274 120.345ZM659.558 125.52V107.58H661.387V116.722H661.617V125.52H659.558ZM665.021 118.47C665.841 118.47 666.52 118.263 667.056 117.849C667.593 117.435 667.996 116.876 668.264 116.17C668.532 115.457 668.666 114.66 668.666 113.778C668.666 112.904 668.532 112.115 668.264 111.409C668.003 110.704 667.597 110.144 667.045 109.73C666.501 109.316 665.807 109.109 664.963 109.109C664.158 109.109 663.491 109.309 662.962 109.707C662.433 110.098 662.039 110.647 661.778 111.352C661.517 112.05 661.387 112.858 661.387 113.778C661.387 114.683 661.513 115.492 661.766 116.205C662.027 116.91 662.426 117.466 662.962 117.872C663.499 118.271 664.185 118.47 665.021 118.47ZM676.891 120.345C675.964 120.345 675.186 120.176 674.557 119.839C673.936 119.494 673.464 119.042 673.142 118.482C672.828 117.922 672.671 117.309 672.671 116.642C672.671 115.99 672.794 115.427 673.039 114.951C673.292 114.468 673.645 114.07 674.097 113.755C674.549 113.433 675.09 113.18 675.718 112.996C676.309 112.835 676.968 112.697 677.696 112.582C678.432 112.46 679.176 112.349 679.927 112.249C680.679 112.149 681.38 112.053 682.032 111.961L681.296 112.387C681.319 111.283 681.097 110.466 680.629 109.937C680.169 109.408 679.372 109.144 678.237 109.144C677.486 109.144 676.826 109.316 676.259 109.661C675.699 109.999 675.304 110.551 675.074 111.317L673.131 110.731C673.43 109.642 674.009 108.787 674.867 108.166C675.726 107.545 676.857 107.235 678.26 107.235C679.387 107.235 680.353 107.438 681.158 107.844C681.971 108.243 682.553 108.849 682.906 109.661C683.082 110.045 683.193 110.463 683.239 110.915C683.285 111.36 683.308 111.827 683.308 112.318V120H681.491V117.021L681.917 117.297C681.449 118.302 680.794 119.061 679.95 119.574C679.115 120.088 678.095 120.345 676.891 120.345ZM677.202 118.631C677.938 118.631 678.574 118.501 679.111 118.24C679.655 117.972 680.092 117.623 680.422 117.194C680.752 116.757 680.966 116.282 681.066 115.768C681.181 115.385 681.242 114.959 681.25 114.491C681.265 114.016 681.273 113.652 681.273 113.399L681.986 113.709C681.319 113.801 680.663 113.89 680.019 113.974C679.375 114.058 678.766 114.15 678.191 114.25C677.616 114.342 677.098 114.453 676.638 114.583C676.301 114.691 675.983 114.829 675.684 114.997C675.393 115.166 675.155 115.385 674.971 115.653C674.795 115.914 674.706 116.239 674.706 116.63C674.706 116.968 674.791 117.29 674.959 117.596C675.136 117.903 675.404 118.152 675.764 118.344C676.132 118.536 676.612 118.631 677.202 118.631ZM691.347 120.357C690.174 120.349 689.173 120.096 688.345 119.597C687.517 119.091 686.873 118.352 686.413 117.378C685.953 116.404 685.697 115.212 685.643 113.801C685.612 113.15 685.62 112.433 685.666 111.651C685.72 110.869 685.804 110.118 685.919 109.397C686.042 108.676 686.195 108.082 686.379 107.614C686.586 107.055 686.877 106.537 687.253 106.062C687.636 105.579 688.066 105.18 688.541 104.866C689.024 104.536 689.564 104.279 690.162 104.095C690.76 103.911 691.385 103.77 692.037 103.67C692.696 103.563 693.356 103.471 694.015 103.394C694.674 103.31 695.303 103.21 695.901 103.095L696.108 104.935C695.686 105.027 695.188 105.107 694.613 105.176C694.038 105.238 693.44 105.311 692.819 105.395C692.206 105.479 691.615 105.598 691.048 105.751C690.488 105.897 690.005 106.1 689.599 106.361C689.001 106.721 688.541 107.262 688.219 107.982C687.905 108.695 687.713 109.497 687.644 110.386C688.119 109.65 688.736 109.109 689.495 108.764C690.254 108.419 691.063 108.247 691.922 108.247C693.034 108.247 693.992 108.508 694.797 109.029C695.602 109.543 696.219 110.252 696.648 111.156C697.085 112.061 697.304 113.092 697.304 114.25C697.304 115.477 697.059 116.55 696.568 117.47C696.077 118.39 695.383 119.103 694.486 119.609C693.597 120.115 692.551 120.364 691.347 120.357ZM691.473 118.413C692.677 118.413 693.589 118.041 694.21 117.297C694.831 116.546 695.142 115.549 695.142 114.307C695.142 113.035 694.82 112.034 694.176 111.306C693.532 110.57 692.627 110.202 691.462 110.202C690.281 110.202 689.377 110.57 688.748 111.306C688.127 112.034 687.816 113.035 687.816 114.307C687.816 115.588 688.131 116.592 688.759 117.32C689.388 118.049 690.293 118.413 691.473 118.413ZM705.132 120.345C703.898 120.345 702.832 120.065 701.935 119.505C701.046 118.946 700.36 118.171 699.877 117.182C699.394 116.193 699.152 115.059 699.152 113.778C699.152 112.475 699.398 111.333 699.888 110.351C700.379 109.37 701.073 108.607 701.97 108.063C702.867 107.511 703.921 107.235 705.132 107.235C706.374 107.235 707.444 107.515 708.341 108.074C709.238 108.626 709.924 109.397 710.399 110.386C710.882 111.367 711.124 112.498 711.124 113.778C711.124 115.074 710.882 116.216 710.399 117.205C709.916 118.187 709.226 118.957 708.329 119.517C707.432 120.069 706.367 120.345 705.132 120.345ZM705.132 118.401C706.42 118.401 707.379 117.972 708.007 117.113C708.636 116.255 708.95 115.143 708.95 113.778C708.95 112.375 708.632 111.26 707.996 110.432C707.36 109.596 706.405 109.178 705.132 109.178C704.266 109.178 703.553 109.374 702.993 109.765C702.434 110.156 702.016 110.696 701.74 111.386C701.464 112.076 701.326 112.874 701.326 113.778C701.326 115.174 701.648 116.293 702.292 117.136C702.936 117.98 703.883 118.401 705.132 118.401ZM716.675 120V109.443H712.351V107.58H723.046V109.443H718.722V120H716.675ZM725.212 120L725.223 107.58H727.293V113.56L732.503 107.58H735.159L729.674 113.79L735.803 120H732.94L727.293 114.02V120H725.212ZM740.478 120.345C739.551 120.345 738.773 120.176 738.144 119.839C737.523 119.494 737.051 119.042 736.729 118.482C736.415 117.922 736.258 117.309 736.258 116.642C736.258 115.99 736.381 115.427 736.626 114.951C736.879 114.468 737.232 114.07 737.684 113.755C738.136 113.433 738.677 113.18 739.305 112.996C739.896 112.835 740.555 112.697 741.283 112.582C742.019 112.46 742.763 112.349 743.514 112.249C744.266 112.149 744.967 112.053 745.619 111.961L744.883 112.387C744.906 111.283 744.684 110.466 744.216 109.937C743.756 109.408 742.959 109.144 741.824 109.144C741.073 109.144 740.413 109.316 739.846 109.661C739.286 109.999 738.891 110.551 738.661 111.317L736.718 110.731C737.017 109.642 737.596 108.787 738.454 108.166C739.313 107.545 740.444 107.235 741.847 107.235C742.974 107.235 743.94 107.438 744.745 107.844C745.558 108.243 746.14 108.849 746.493 109.661C746.669 110.045 746.78 110.463 746.826 110.915C746.872 111.36 746.895 111.827 746.895 112.318V120H745.078V117.021L745.504 117.297C745.036 118.302 744.381 119.061 743.537 119.574C742.702 120.088 741.682 120.345 740.478 120.345ZM740.789 118.631C741.525 118.631 742.161 118.501 742.698 118.24C743.242 117.972 743.679 117.623 744.009 117.194C744.339 116.757 744.553 116.282 744.653 115.768C744.768 115.385 744.829 114.959 744.837 114.491C744.852 114.016 744.86 113.652 744.86 113.399L745.573 113.709C744.906 113.801 744.25 113.89 743.606 113.974C742.962 114.058 742.353 114.15 741.778 114.25C741.203 114.342 740.685 114.453 740.225 114.583C739.888 114.691 739.57 114.829 739.271 114.997C738.98 115.166 738.742 115.385 738.558 115.653C738.382 115.914 738.293 116.239 738.293 116.63C738.293 116.968 738.378 117.29 738.546 117.596C738.723 117.903 738.991 118.152 739.351 118.344C739.719 118.536 740.199 118.631 740.789 118.631ZM754.49 120V103.44H767.416V120H765.369V105.383H756.537V120H754.49ZM777.447 120.345C775.799 120.345 774.4 119.981 773.25 119.252C772.1 118.524 771.222 117.512 770.616 116.216C770.018 114.921 769.719 113.422 769.719 111.72C769.719 110.018 770.018 108.519 770.616 107.223C771.222 105.928 772.1 104.916 773.25 104.187C774.4 103.459 775.799 103.095 777.447 103.095C779.103 103.095 780.506 103.459 781.656 104.187C782.806 104.916 783.68 105.928 784.278 107.223C784.876 108.519 785.175 110.018 785.175 111.72C785.175 113.422 784.876 114.921 784.278 116.216C783.68 117.512 782.806 118.524 781.656 119.252C780.506 119.981 779.103 120.345 777.447 120.345ZM777.447 118.39C778.682 118.398 779.709 118.122 780.529 117.562C781.357 116.995 781.974 116.209 782.381 115.204C782.795 114.2 783.002 113.039 783.002 111.72C783.002 110.394 782.795 109.232 782.381 108.235C781.974 107.239 781.357 106.461 780.529 105.901C779.709 105.341 778.682 105.058 777.447 105.05C776.213 105.042 775.186 105.318 774.365 105.878C773.553 106.438 772.939 107.22 772.525 108.224C772.111 109.228 771.9 110.394 771.893 111.72C771.885 113.039 772.088 114.196 772.502 115.193C772.916 116.19 773.533 116.972 774.354 117.539C775.182 118.099 776.213 118.382 777.447 118.39Z" fill="#000206"/>
              <path d="M409.03 221.071H20C8.95 221.071 0 212.238 0 201.333V20.7373C0 9.83243 8.95 1 20 1H409.05C416.57 1 423.46 5.16457 426.87 11.7864L473.39 101.956C476.29 107.571 476.29 114.223 473.39 119.848L426.86 210.274C423.45 216.896 416.56 221.071 409.03 221.071Z" fill="#254E6C"/>
              <path d="M138.61 97V80.44H145.154C145.315 80.44 145.506 80.4477 145.729 80.463C145.951 80.4707 146.166 80.4937 146.373 80.532C147.27 80.67 148.021 80.9767 148.627 81.452C149.24 81.9273 149.7 82.5292 150.007 83.2575C150.313 83.9782 150.467 84.7793 150.467 85.661C150.467 86.535 150.309 87.3362 149.995 88.0645C149.688 88.7852 149.228 89.387 148.615 89.87C148.009 90.3453 147.262 90.652 146.373 90.79C146.166 90.8207 145.951 90.8437 145.729 90.859C145.506 90.8743 145.315 90.882 145.154 90.882H140.657V97H138.61ZM140.657 88.9385H145.085C145.23 88.9385 145.395 88.9308 145.579 88.9155C145.771 88.9002 145.951 88.8733 146.12 88.835C146.649 88.7123 147.078 88.49 147.408 88.168C147.745 87.8383 147.99 87.455 148.144 87.018C148.297 86.5733 148.374 86.121 148.374 85.661C148.374 85.201 148.297 84.7525 148.144 84.3155C147.99 83.8708 147.745 83.4837 147.408 83.154C147.078 82.8243 146.649 82.602 146.12 82.487C145.951 82.441 145.771 82.4142 145.579 82.4065C145.395 82.3912 145.23 82.3835 145.085 82.3835H140.657V88.9385ZM156.291 97.345C155.363 97.345 154.585 97.1763 153.956 96.839C153.335 96.494 152.864 96.0417 152.542 95.482C152.228 94.9223 152.07 94.309 152.07 93.642C152.07 92.9903 152.193 92.4268 152.438 91.9515C152.691 91.4685 153.044 91.0698 153.496 90.7555C153.949 90.4335 154.489 90.1805 155.118 89.9965C155.708 89.8355 156.368 89.6975 157.096 89.5825C157.832 89.4598 158.576 89.3487 159.327 89.249C160.078 89.1493 160.78 89.0535 161.431 88.9615L160.695 89.387C160.718 88.283 160.496 87.4665 160.028 86.9375C159.568 86.4085 158.771 86.144 157.636 86.144C156.885 86.144 156.226 86.3165 155.658 86.6615C155.099 86.9988 154.704 87.5508 154.474 88.3175L152.53 87.731C152.829 86.6423 153.408 85.7875 154.267 85.1665C155.126 84.5455 156.256 84.235 157.659 84.235C158.786 84.235 159.752 84.4382 160.557 84.8445C161.37 85.2432 161.953 85.8488 162.305 86.6615C162.482 87.0448 162.593 87.4627 162.639 87.915C162.685 88.3597 162.708 88.8273 162.708 89.318V97H160.891V94.0215L161.316 94.2975C160.849 95.3018 160.193 96.0608 159.35 96.5745C158.514 97.0882 157.495 97.345 156.291 97.345ZM156.601 95.6315C157.337 95.6315 157.974 95.5012 158.51 95.2405C159.055 94.9722 159.492 94.6233 159.821 94.194C160.151 93.757 160.366 93.2817 160.465 92.768C160.58 92.3847 160.642 91.9592 160.649 91.4915C160.665 91.0162 160.672 90.652 160.672 90.399L161.385 90.7095C160.718 90.8015 160.063 90.8897 159.419 90.974C158.775 91.0583 158.165 91.1503 157.59 91.25C157.015 91.342 156.498 91.4532 156.038 91.5835C155.701 91.6908 155.382 91.8288 155.083 91.9975C154.792 92.1662 154.554 92.3847 154.37 92.653C154.194 92.9137 154.106 93.2395 154.106 93.6305C154.106 93.9678 154.19 94.2898 154.359 94.5965C154.535 94.9032 154.804 95.1523 155.164 95.344C155.532 95.5357 156.011 95.6315 156.601 95.6315ZM170.148 97.345C168.922 97.345 167.837 97.0805 166.894 96.5515C165.951 96.0148 165.207 95.2788 164.663 94.3435L166.296 93.2855C166.748 93.9678 167.289 94.493 167.917 94.861C168.546 95.2213 169.263 95.4015 170.068 95.4015C170.911 95.4015 171.582 95.2098 172.08 94.8265C172.579 94.4355 172.828 93.9103 172.828 93.251C172.828 92.7603 172.705 92.3847 172.46 92.124C172.215 91.8633 171.862 91.6832 171.402 91.5835C170.942 91.4838 170.394 91.434 169.757 91.434H168.469V89.7435H169.746C170.551 89.7435 171.206 89.6132 171.712 89.3525C172.218 89.0918 172.471 88.6472 172.471 88.0185C172.471 87.3745 172.234 86.9068 171.758 86.6155C171.291 86.3165 170.731 86.167 170.079 86.167C169.389 86.167 168.73 86.3127 168.101 86.604C167.473 86.8877 166.932 87.248 166.48 87.685L165.238 86.2935C165.882 85.6342 166.622 85.1282 167.457 84.7755C168.301 84.4152 169.217 84.235 170.206 84.235C171.003 84.235 171.732 84.3768 172.391 84.6605C173.058 84.9365 173.587 85.3467 173.978 85.891C174.377 86.4277 174.576 87.0832 174.576 87.8575C174.576 88.5168 174.423 89.1033 174.116 89.617C173.809 90.1307 173.357 90.5792 172.759 90.9625L172.678 90.238C173.184 90.3607 173.602 90.5868 173.932 90.9165C174.269 91.2385 174.518 91.6218 174.679 92.0665C174.84 92.5112 174.921 92.975 174.921 93.458C174.921 94.2707 174.706 94.9683 174.277 95.551C173.855 96.126 173.284 96.5707 172.563 96.885C171.843 97.1917 171.038 97.345 170.148 97.345ZM183.149 97.345C181.984 97.345 181.002 97.0575 180.205 96.4825C179.408 95.8998 178.802 95.114 178.388 94.125C177.982 93.1283 177.778 92.0128 177.778 90.7785C177.778 89.5288 177.982 88.4095 178.388 87.4205C178.802 86.4315 179.408 85.6533 180.205 85.086C181.01 84.5187 181.995 84.235 183.16 84.235C184.31 84.235 185.299 84.5225 186.127 85.0975C186.963 85.6648 187.603 86.443 188.048 87.432C188.493 88.421 188.715 89.5365 188.715 90.7785C188.715 92.0205 188.493 93.136 188.048 94.125C187.603 95.114 186.963 95.8998 186.127 96.4825C185.299 97.0575 184.307 97.345 183.149 97.345ZM177.433 102.52V84.58H179.262V93.7225H179.492V102.52H177.433ZM182.896 95.4705C183.716 95.4705 184.395 95.2635 184.931 94.8495C185.468 94.4355 185.871 93.8758 186.139 93.1705C186.407 92.4575 186.541 91.6602 186.541 90.7785C186.541 89.9045 186.407 89.1148 186.139 88.4095C185.878 87.7042 185.472 87.1445 184.92 86.7305C184.376 86.3165 183.682 86.1095 182.838 86.1095C182.033 86.1095 181.366 86.3088 180.837 86.7075C180.308 87.0985 179.914 87.6467 179.653 88.352C179.392 89.0497 179.262 89.8585 179.262 90.7785C179.262 91.6832 179.388 92.492 179.641 93.205C179.902 93.9103 180.301 94.4662 180.837 94.8725C181.374 95.2712 182.06 95.4705 182.896 95.4705ZM194.766 97.345C193.839 97.345 193.061 97.1763 192.432 96.839C191.811 96.494 191.339 96.0417 191.017 95.482C190.703 94.9223 190.546 94.309 190.546 93.642C190.546 92.9903 190.669 92.4268 190.914 91.9515C191.167 91.4685 191.52 91.0698 191.972 90.7555C192.424 90.4335 192.965 90.1805 193.593 89.9965C194.184 89.8355 194.843 89.6975 195.571 89.5825C196.307 89.4598 197.051 89.3487 197.802 89.249C198.554 89.1493 199.255 89.0535 199.907 88.9615L199.171 89.387C199.194 88.283 198.972 87.4665 198.504 86.9375C198.044 86.4085 197.247 86.144 196.112 86.144C195.361 86.144 194.701 86.3165 194.134 86.6615C193.574 86.9988 193.179 87.5508 192.949 88.3175L191.006 87.731C191.305 86.6423 191.884 85.7875 192.742 85.1665C193.601 84.5455 194.732 84.235 196.135 84.235C197.262 84.235 198.228 84.4382 199.033 84.8445C199.846 85.2432 200.428 85.8488 200.781 86.6615C200.957 87.0448 201.068 87.4627 201.114 87.915C201.16 88.3597 201.183 88.8273 201.183 89.318V97H199.366V94.0215L199.792 94.2975C199.324 95.3018 198.669 96.0608 197.825 96.5745C196.99 97.0882 195.97 97.345 194.766 97.345ZM195.077 95.6315C195.813 95.6315 196.449 95.5012 196.986 95.2405C197.53 94.9722 197.967 94.6233 198.297 94.194C198.627 93.757 198.841 93.2817 198.941 92.768C199.056 92.3847 199.117 91.9592 199.125 91.4915C199.14 91.0162 199.148 90.652 199.148 90.399L199.861 90.7095C199.194 90.8015 198.538 90.8897 197.894 90.974C197.25 91.0583 196.641 91.1503 196.066 91.25C195.491 91.342 194.973 91.4532 194.513 91.5835C194.176 91.6908 193.858 91.8288 193.559 91.9975C193.268 92.1662 193.03 92.3847 192.846 92.653C192.67 92.9137 192.581 93.2395 192.581 93.6305C192.581 93.9678 192.666 94.2898 192.834 94.5965C193.011 94.9032 193.279 95.1523 193.639 95.344C194.007 95.5357 194.487 95.6315 195.077 95.6315ZM209.222 97.3565C208.049 97.3488 207.048 97.0958 206.22 96.5975C205.392 96.0915 204.748 95.3517 204.288 94.378C203.828 93.4043 203.572 92.2122 203.518 90.8015C203.487 90.1498 203.495 89.433 203.541 88.651C203.595 87.869 203.679 87.1177 203.794 86.397C203.917 85.6763 204.07 85.0822 204.254 84.6145C204.461 84.0548 204.752 83.5373 205.128 83.062C205.511 82.579 205.941 82.1803 206.416 81.866C206.899 81.5363 207.439 81.2795 208.037 81.0955C208.635 80.9115 209.26 80.7697 209.912 80.67C210.571 80.5627 211.231 80.4707 211.89 80.394C212.549 80.3097 213.178 80.21 213.776 80.095L213.983 81.935C213.561 82.027 213.063 82.1075 212.488 82.1765C211.913 82.2378 211.315 82.3107 210.694 82.395C210.081 82.4793 209.49 82.5982 208.923 82.7515C208.363 82.8972 207.88 83.1003 207.474 83.361C206.876 83.7213 206.416 84.2618 206.094 84.9825C205.78 85.6955 205.588 86.4967 205.519 87.386C205.994 86.65 206.611 86.1095 207.37 85.7645C208.129 85.4195 208.938 85.247 209.797 85.247C210.909 85.247 211.867 85.5077 212.672 86.029C213.477 86.5427 214.094 87.2518 214.523 88.1565C214.96 89.0612 215.179 90.0923 215.179 91.25C215.179 92.4767 214.934 93.55 214.443 94.47C213.952 95.39 213.258 96.103 212.361 96.609C211.472 97.115 210.426 97.3642 209.222 97.3565ZM209.348 95.413C210.552 95.413 211.464 95.0412 212.085 94.2975C212.706 93.5462 213.017 92.5495 213.017 91.3075C213.017 90.0348 212.695 89.0343 212.051 88.306C211.407 87.57 210.502 87.202 209.337 87.202C208.156 87.202 207.252 87.57 206.623 88.306C206.002 89.0343 205.691 90.0348 205.691 91.3075C205.691 92.5878 206.006 93.5922 206.634 94.3205C207.263 95.0488 208.168 95.413 209.348 95.413ZM223.007 97.345C221.773 97.345 220.707 97.0652 219.81 96.5055C218.921 95.9458 218.235 95.1715 217.752 94.1825C217.269 93.1935 217.027 92.0588 217.027 90.7785C217.027 89.4752 217.273 88.3328 217.763 87.3515C218.254 86.3702 218.948 85.6073 219.845 85.063C220.742 84.511 221.796 84.235 223.007 84.235C224.249 84.235 225.319 84.5148 226.216 85.0745C227.113 85.6265 227.799 86.397 228.274 87.386C228.757 88.3673 228.999 89.4982 228.999 90.7785C228.999 92.0742 228.757 93.2165 228.274 94.2055C227.791 95.1868 227.101 95.9573 226.204 96.517C225.307 97.069 224.242 97.345 223.007 97.345ZM223.007 95.4015C224.295 95.4015 225.254 94.9722 225.882 94.1135C226.511 93.2548 226.825 92.1432 226.825 90.7785C226.825 89.3755 226.507 88.26 225.871 87.432C225.235 86.5963 224.28 86.1785 223.007 86.1785C222.141 86.1785 221.428 86.374 220.868 86.765C220.309 87.156 219.891 87.6965 219.615 88.3865C219.339 89.0765 219.201 89.8738 219.201 90.7785C219.201 92.1738 219.523 93.2932 220.167 94.1365C220.811 94.9798 221.758 95.4015 223.007 95.4015ZM234.55 97V86.443H230.226V84.58H240.921V86.443H236.597V97H234.55ZM243.087 97L243.098 84.58H245.168V90.56L250.378 84.58H253.034L247.549 90.79L253.678 97H250.815L245.168 91.02V97H243.087ZM258.353 97.345C257.426 97.345 256.648 97.1763 256.019 96.839C255.398 96.494 254.926 96.0417 254.604 95.482C254.29 94.9223 254.133 94.309 254.133 93.642C254.133 92.9903 254.256 92.4268 254.501 91.9515C254.754 91.4685 255.107 91.0698 255.559 90.7555C256.011 90.4335 256.552 90.1805 257.18 89.9965C257.771 89.8355 258.43 89.6975 259.158 89.5825C259.894 89.4598 260.638 89.3487 261.389 89.249C262.141 89.1493 262.842 89.0535 263.494 88.9615L262.758 89.387C262.781 88.283 262.559 87.4665 262.091 86.9375C261.631 86.4085 260.834 86.144 259.699 86.144C258.948 86.144 258.288 86.3165 257.721 86.6615C257.161 86.9988 256.766 87.5508 256.536 88.3175L254.593 87.731C254.892 86.6423 255.471 85.7875 256.329 85.1665C257.188 84.5455 258.319 84.235 259.722 84.235C260.849 84.235 261.815 84.4382 262.62 84.8445C263.433 85.2432 264.015 85.8488 264.368 86.6615C264.544 87.0448 264.655 87.4627 264.701 87.915C264.747 88.3597 264.77 88.8273 264.77 89.318V97H262.953V94.0215L263.379 94.2975C262.911 95.3018 262.256 96.0608 261.412 96.5745C260.577 97.0882 259.557 97.345 258.353 97.345ZM258.664 95.6315C259.4 95.6315 260.036 95.5012 260.573 95.2405C261.117 94.9722 261.554 94.6233 261.884 94.194C262.214 93.757 262.428 93.2817 262.528 92.768C262.643 92.3847 262.704 91.9592 262.712 91.4915C262.727 91.0162 262.735 90.652 262.735 90.399L263.448 90.7095C262.781 90.8015 262.125 90.8897 261.481 90.974C260.837 91.0583 260.228 91.1503 259.653 91.25C259.078 91.342 258.56 91.4532 258.1 91.5835C257.763 91.6908 257.445 91.8288 257.146 91.9975C256.855 92.1662 256.617 92.3847 256.433 92.653C256.257 92.9137 256.168 93.2395 256.168 93.6305C256.168 93.9678 256.253 94.2898 256.421 94.5965C256.598 94.9032 256.866 95.1523 257.226 95.344C257.594 95.5357 258.074 95.6315 258.664 95.6315ZM276.631 97V82.3835H270.985V80.44H284.325V82.3835H278.678V97H276.631ZM291.641 97.345C290.507 97.345 289.518 97.1802 288.674 96.8505C287.839 96.5132 287.145 96.0762 286.593 95.5395C286.049 94.9952 285.635 94.4125 285.351 93.7915L287.168 92.6645C287.352 93.1475 287.636 93.596 288.019 94.01C288.41 94.424 288.908 94.7575 289.514 95.0105C290.127 95.2635 290.863 95.39 291.722 95.39C292.596 95.39 293.328 95.2558 293.918 94.9875C294.509 94.7115 294.95 94.3397 295.241 93.872C295.54 93.3967 295.689 92.8523 295.689 92.239C295.689 91.5413 295.517 91.0047 295.172 90.629C294.827 90.2457 294.363 89.9773 293.78 89.824C293.205 89.663 292.569 89.571 291.871 89.548C291.327 89.525 290.936 89.5097 290.698 89.502C290.461 89.4943 290.3 89.4905 290.215 89.4905C290.139 89.4905 290.066 89.4905 289.997 89.4905V87.5355C290.066 87.5355 290.212 87.5355 290.434 87.5355C290.656 87.5355 290.89 87.5355 291.135 87.5355C291.381 87.5278 291.576 87.5202 291.722 87.5125C292.749 87.4588 293.566 87.1982 294.171 86.7305C294.777 86.2552 295.08 85.6035 295.08 84.7755C295.08 83.9168 294.769 83.246 294.148 82.763C293.535 82.28 292.734 82.0385 291.745 82.0385C290.81 82.0385 290.012 82.257 289.353 82.694C288.701 83.131 288.18 83.6945 287.789 84.3845L286.213 83.039C286.75 82.188 287.494 81.4865 288.444 80.9345C289.403 80.3748 290.522 80.095 291.802 80.095C292.508 80.095 293.186 80.1908 293.838 80.3825C294.497 80.5665 295.08 80.8502 295.586 81.2335C296.1 81.6092 296.506 82.0883 296.805 82.671C297.104 83.246 297.253 83.9283 297.253 84.718C297.253 85.569 297.073 86.3242 296.713 86.9835C296.353 87.6428 295.881 88.1527 295.298 88.513C296.103 88.7813 296.732 89.226 297.184 89.847C297.637 90.468 297.863 91.273 297.863 92.262C297.863 93.297 297.598 94.194 297.069 94.953C296.548 95.712 295.82 96.3023 294.884 96.724C293.949 97.138 292.868 97.345 291.641 97.345ZM299.358 99.576L299.484 98.6215C299.806 98.6445 300.048 98.5832 300.209 98.4375C300.37 98.2918 300.473 98.0925 300.519 97.8395C300.565 97.5865 300.573 97.3067 300.542 97H299.358V94.401H301.612V97.345C301.612 98.15 301.412 98.7557 301.014 99.162C300.623 99.5683 300.071 99.7063 299.358 99.576ZM138.599 120V107.58H148.776V120H146.729V109.523H140.646V120H138.599ZM157.287 120.345C156.052 120.345 154.987 120.065 154.09 119.505C153.2 118.946 152.514 118.171 152.031 117.182C151.548 116.193 151.307 115.059 151.307 113.778C151.307 112.475 151.552 111.333 152.043 110.351C152.533 109.37 153.227 108.607 154.124 108.063C155.021 107.511 156.075 107.235 157.287 107.235C158.529 107.235 159.598 107.515 160.495 108.074C161.392 108.626 162.078 109.397 162.554 110.386C163.037 111.367 163.278 112.498 163.278 113.778C163.278 115.074 163.037 116.216 162.554 117.205C162.071 118.187 161.381 118.957 160.484 119.517C159.587 120.069 158.521 120.345 157.287 120.345ZM157.287 118.401C158.575 118.401 159.533 117.972 160.162 117.113C160.79 116.255 161.105 115.143 161.105 113.778C161.105 112.375 160.787 111.26 160.15 110.432C159.514 109.596 158.559 109.178 157.287 109.178C156.42 109.178 155.707 109.374 155.148 109.765C154.588 110.156 154.17 110.696 153.894 111.386C153.618 112.076 153.48 112.874 153.48 113.778C153.48 115.174 153.802 116.293 154.446 117.136C155.09 117.98 156.037 118.401 157.287 118.401ZM164.89 122.76V118.31C165.588 118.31 166.086 118.083 166.385 117.631C166.684 117.171 166.926 116.416 167.11 115.365C167.232 114.706 167.332 114.001 167.409 113.249C167.485 112.498 167.551 111.662 167.604 110.742C167.666 109.815 167.723 108.761 167.777 107.58H176.333V118.31H177.54V122.76H175.585V120H166.845V122.76H164.89ZM168.041 118.31H174.286V109.27H169.628C169.605 109.815 169.575 110.386 169.536 110.984C169.498 111.574 169.452 112.165 169.398 112.755C169.352 113.345 169.295 113.905 169.226 114.434C169.164 114.955 169.092 115.423 169.007 115.837C168.908 116.412 168.793 116.899 168.662 117.297C168.532 117.696 168.325 118.033 168.041 118.31ZM179.848 120V107.58H188.473V109.523H181.895V120H179.848ZM195.717 120.345C194.483 120.345 193.417 120.065 192.52 119.505C191.631 118.946 190.945 118.171 190.462 117.182C189.979 116.193 189.737 115.059 189.737 113.778C189.737 112.475 189.983 111.333 190.473 110.351C190.964 109.37 191.658 108.607 192.555 108.063C193.452 107.511 194.506 107.235 195.717 107.235C196.959 107.235 198.029 107.515 198.926 108.074C199.823 108.626 200.509 109.397 200.984 110.386C201.467 111.367 201.709 112.498 201.709 113.778C201.709 115.074 201.467 116.216 200.984 117.205C200.501 118.187 199.811 118.957 198.914 119.517C198.017 120.069 196.952 120.345 195.717 120.345ZM195.717 118.401C197.005 118.401 197.964 117.972 198.592 117.113C199.221 116.255 199.535 115.143 199.535 113.778C199.535 112.375 199.217 111.26 198.581 110.432C197.945 109.596 196.99 109.178 195.717 109.178C194.851 109.178 194.138 109.374 193.578 109.765C193.019 110.156 192.601 110.696 192.325 111.386C192.049 112.076 191.911 112.874 191.911 113.778C191.911 115.174 192.233 116.293 192.877 117.136C193.521 117.98 194.468 118.401 195.717 118.401ZM207.26 120V109.443H202.936V107.58H213.631V109.443H209.307V120H207.26ZM220.874 120.345C219.639 120.345 218.574 120.065 217.677 119.505C216.787 118.946 216.101 118.171 215.618 117.182C215.135 116.193 214.894 115.059 214.894 113.778C214.894 112.475 215.139 111.333 215.63 110.351C216.12 109.37 216.814 108.607 217.711 108.063C218.608 107.511 219.662 107.235 220.874 107.235C222.116 107.235 223.185 107.515 224.082 108.074C224.979 108.626 225.665 109.397 226.141 110.386C226.624 111.367 226.865 112.498 226.865 113.778C226.865 115.074 226.624 116.216 226.141 117.205C225.658 118.187 224.968 118.957 224.071 119.517C223.174 120.069 222.108 120.345 220.874 120.345ZM220.874 118.401C222.162 118.401 223.12 117.972 223.749 117.113C224.377 116.255 224.692 115.143 224.692 113.778C224.692 112.375 224.373 111.26 223.737 110.432C223.101 109.596 222.146 109.178 220.874 109.178C220.007 109.178 219.294 109.374 218.735 109.765C218.175 110.156 217.757 110.696 217.481 111.386C217.205 112.076 217.067 112.874 217.067 113.778C217.067 115.174 217.389 116.293 218.033 117.136C218.677 117.98 219.624 118.401 220.874 118.401ZM229.386 120V107.58H234.676C234.99 107.58 235.327 107.599 235.688 107.637C236.056 107.668 236.389 107.726 236.688 107.81C237.355 107.986 237.903 108.35 238.333 108.902C238.77 109.447 238.988 110.137 238.988 110.972C238.988 111.44 238.915 111.846 238.77 112.191C238.632 112.536 238.432 112.835 238.172 113.088C238.057 113.203 237.93 113.307 237.792 113.399C237.654 113.491 237.516 113.564 237.378 113.617C237.646 113.663 237.919 113.767 238.195 113.928C238.632 114.166 238.973 114.499 239.218 114.928C239.471 115.358 239.598 115.906 239.598 116.573C239.598 117.416 239.394 118.114 238.988 118.666C238.582 119.21 238.022 119.586 237.309 119.793C237.01 119.877 236.68 119.935 236.32 119.965C235.96 119.988 235.611 120 235.274 120H229.386ZM231.456 118.332H235.159C235.32 118.332 235.511 118.317 235.734 118.286C235.964 118.256 236.167 118.217 236.343 118.171C236.742 118.056 237.029 117.842 237.206 117.527C237.39 117.213 237.482 116.872 237.482 116.504C237.482 116.013 237.344 115.615 237.068 115.308C236.799 115.001 236.443 114.81 235.998 114.733C235.837 114.687 235.661 114.66 235.469 114.652C235.285 114.645 235.12 114.641 234.975 114.641H231.456V118.332ZM231.456 112.95H234.538C234.752 112.95 234.978 112.939 235.216 112.916C235.454 112.885 235.661 112.835 235.837 112.766C236.19 112.636 236.447 112.421 236.608 112.122C236.776 111.816 236.861 111.482 236.861 111.122C236.861 110.723 236.769 110.374 236.585 110.075C236.408 109.769 236.136 109.558 235.768 109.443C235.523 109.351 235.247 109.301 234.94 109.293C234.641 109.278 234.449 109.27 234.365 109.27H231.456V112.95ZM241.896 120L241.908 107.58H243.978V113.56L249.187 107.58H251.844L246.358 113.79L252.488 120H249.624L243.978 114.02V120H241.896ZM257.163 120.345C256.235 120.345 255.457 120.176 254.828 119.839C254.207 119.494 253.736 119.042 253.414 118.482C253.1 117.922 252.942 117.309 252.942 116.642C252.942 115.99 253.065 115.427 253.31 114.951C253.563 114.468 253.916 114.07 254.368 113.755C254.821 113.433 255.361 113.18 255.99 112.996C256.58 112.835 257.24 112.697 257.968 112.582C258.704 112.46 259.448 112.349 260.199 112.249C260.95 112.149 261.652 112.053 262.303 111.961L261.567 112.387C261.59 111.283 261.368 110.466 260.9 109.937C260.44 109.408 259.643 109.144 258.508 109.144C257.757 109.144 257.098 109.316 256.53 109.661C255.971 109.999 255.576 110.551 255.346 111.317L253.402 110.731C253.701 109.642 254.28 108.787 255.139 108.166C255.998 107.545 257.128 107.235 258.531 107.235C259.658 107.235 260.624 107.438 261.429 107.844C262.242 108.243 262.825 108.849 263.177 109.661C263.354 110.045 263.465 110.463 263.511 110.915C263.557 111.36 263.58 111.827 263.58 112.318V120H261.763V117.021L262.188 117.297C261.721 118.302 261.065 119.061 260.222 119.574C259.386 120.088 258.367 120.345 257.163 120.345ZM257.473 118.631C258.209 118.631 258.846 118.501 259.382 118.24C259.927 117.972 260.364 117.623 260.693 117.194C261.023 116.757 261.238 116.282 261.337 115.768C261.452 115.385 261.514 114.959 261.521 114.491C261.537 114.016 261.544 113.652 261.544 113.399L262.257 113.709C261.59 113.801 260.935 113.89 260.291 113.974C259.647 114.058 259.037 114.15 258.462 114.25C257.887 114.342 257.37 114.453 256.91 114.583C256.573 114.691 256.254 114.829 255.955 114.997C255.664 115.166 255.426 115.385 255.242 115.653C255.066 115.914 254.978 116.239 254.978 116.63C254.978 116.968 255.062 117.29 255.231 117.596C255.407 117.903 255.676 118.152 256.036 118.344C256.404 118.536 256.883 118.631 257.473 118.631ZM137.69 145.76V141.31C138.388 141.31 138.886 141.083 139.185 140.631C139.484 140.171 139.726 139.416 139.91 138.365C140.032 137.706 140.132 137.001 140.209 136.249C140.285 135.498 140.35 134.662 140.404 133.742C140.465 132.815 140.523 131.761 140.577 130.58H149.133V141.31H150.34V145.76H148.385V143H139.645V145.76H137.69ZM140.841 141.31H147.086V132.27H142.428C142.405 132.815 142.374 133.386 142.336 133.984C142.298 134.574 142.252 135.165 142.198 135.755C142.152 136.345 142.095 136.905 142.026 137.434C141.964 137.955 141.891 138.423 141.807 138.837C141.707 139.412 141.592 139.899 141.462 140.297C141.332 140.696 141.125 141.033 140.841 141.31ZM157.938 143.345C156.704 143.345 155.638 143.065 154.741 142.505C153.852 141.946 153.166 141.171 152.683 140.182C152.2 139.193 151.958 138.059 151.958 136.778C151.958 135.475 152.203 134.333 152.694 133.351C153.185 132.37 153.879 131.607 154.776 131.063C155.673 130.511 156.727 130.235 157.938 130.235C159.18 130.235 160.25 130.515 161.147 131.074C162.044 131.626 162.73 132.397 163.205 133.386C163.688 134.367 163.93 135.498 163.93 136.778C163.93 138.074 163.688 139.216 163.205 140.205C162.722 141.187 162.032 141.957 161.135 142.517C160.238 143.069 159.172 143.345 157.938 143.345ZM157.938 141.401C159.226 141.401 160.184 140.972 160.813 140.113C161.442 139.255 161.756 138.143 161.756 136.778C161.756 135.375 161.438 134.26 160.802 133.432C160.165 132.596 159.211 132.178 157.938 132.178C157.072 132.178 156.359 132.374 155.799 132.765C155.239 133.156 154.822 133.696 154.546 134.386C154.27 135.076 154.132 135.874 154.132 136.778C154.132 138.174 154.454 139.293 155.098 140.136C155.742 140.98 156.688 141.401 157.938 141.401ZM166.45 143L166.462 130.58H168.532V136.56L173.741 130.58H176.398L170.912 136.79L177.042 143H174.178L168.532 137.02V143H166.45ZM179.911 148.52L182.315 141.988L182.349 143.92L176.921 130.58H179.072L183.327 141.31H182.591L186.581 130.58H188.663L181.901 148.52H179.911ZM190.551 143V130.58H192.31L197.025 140.217L201.74 130.58H203.5V143H201.522V134.846L197.566 143H196.485L192.529 134.846V143H190.551ZM212.094 143.345C210.875 143.345 209.809 143.077 208.897 142.54C207.992 141.996 207.287 141.24 206.781 140.274C206.275 139.301 206.022 138.166 206.022 136.87C206.022 135.513 206.271 134.34 206.769 133.351C207.267 132.355 207.961 131.588 208.851 131.051C209.748 130.507 210.798 130.235 212.002 130.235C213.251 130.235 214.313 130.522 215.187 131.097C216.069 131.672 216.728 132.493 217.165 133.558C217.61 134.624 217.801 135.893 217.74 137.365H215.67V136.629C215.647 135.103 215.337 133.965 214.739 133.213C214.141 132.454 213.251 132.075 212.071 132.075C210.806 132.075 209.843 132.481 209.184 133.294C208.525 134.107 208.195 135.272 208.195 136.79C208.195 138.254 208.525 139.389 209.184 140.194C209.843 140.999 210.783 141.401 212.002 141.401C212.822 141.401 213.535 141.214 214.141 140.838C214.746 140.462 215.222 139.922 215.567 139.216L217.533 139.895C217.05 140.991 216.322 141.842 215.348 142.448C214.382 143.046 213.297 143.345 212.094 143.345ZM207.505 137.365V135.72H216.682V137.365H207.505ZM220.289 143V130.58H222.336V135.812H228.868V130.58H230.915V143H228.868V137.756H222.336V143H220.289ZM237.425 143V132.443H233.101V130.58H243.796V132.443H239.472V143H237.425ZM249.099 143.345C248.172 143.345 247.394 143.176 246.765 142.839C246.144 142.494 245.672 142.042 245.35 141.482C245.036 140.922 244.879 140.309 244.879 139.642C244.879 138.99 245.002 138.427 245.247 137.951C245.5 137.468 245.853 137.07 246.305 136.755C246.757 136.433 247.298 136.18 247.926 135.996C248.517 135.835 249.176 135.697 249.904 135.582C250.64 135.46 251.384 135.349 252.135 135.249C252.887 135.149 253.588 135.053 254.24 134.961L253.504 135.387C253.527 134.283 253.305 133.466 252.837 132.937C252.377 132.408 251.58 132.144 250.445 132.144C249.694 132.144 249.034 132.316 248.467 132.661C247.907 132.999 247.512 133.551 247.282 134.317L245.339 133.731C245.638 132.642 246.217 131.787 247.075 131.166C247.934 130.545 249.065 130.235 250.468 130.235C251.595 130.235 252.561 130.438 253.366 130.844C254.179 131.243 254.761 131.849 255.114 132.661C255.29 133.045 255.401 133.463 255.447 133.915C255.493 134.36 255.516 134.827 255.516 135.318V143H253.699V140.021L254.125 140.297C253.657 141.302 253.002 142.061 252.158 142.574C251.323 143.088 250.303 143.345 249.099 143.345ZM249.41 141.631C250.146 141.631 250.782 141.501 251.319 141.24C251.863 140.972 252.3 140.623 252.63 140.194C252.96 139.757 253.174 139.282 253.274 138.768C253.389 138.385 253.45 137.959 253.458 137.491C253.473 137.016 253.481 136.652 253.481 136.399L254.194 136.709C253.527 136.801 252.871 136.89 252.227 136.974C251.583 137.058 250.974 137.15 250.399 137.25C249.824 137.342 249.306 137.453 248.846 137.583C248.509 137.691 248.191 137.829 247.892 137.997C247.601 138.166 247.363 138.385 247.179 138.653C247.003 138.914 246.914 139.239 246.914 139.63C246.914 139.968 246.999 140.29 247.167 140.596C247.344 140.903 247.612 141.152 247.972 141.344C248.34 141.536 248.82 141.631 249.41 141.631ZM269.086 145.3V143H258.495V130.58H260.542V141.056H266.625V130.58H268.672V141.137H271.133V145.3H269.086ZM283.137 130.58V143H281.159V133.846L274.65 143H272.96V130.58H274.938V139.607L281.458 130.58H283.137ZM296.524 130.58V143H294.546V133.846L288.037 143H286.347V130.58H288.325V139.607L294.845 130.58H296.524Z" fill="white"/>
              </svg>