<svg width="1165" height="222" viewBox="0 0 1165 222" fill="none" xmlns="http://www.w3.org/2000/svg">
              <path d="M1098.03 220.864H691C679.95 220.864 671 212.031 671 201.126V20.5302C671 9.6254 679.95 0.792969 691 0.792969H1098.05C1105.57 0.792969 1112.46 4.95753 1115.87 11.5794L1162.39 101.749C1165.29 107.364 1165.29 114.016 1162.39 119.641L1115.86 210.067C1112.45 216.689 1105.56 220.864 1098.03 220.864Z" fill="#F2F2F2"/>
              <path d="M862.61 108V91.44H869.062C870.051 91.44 870.894 91.6432 871.592 92.0495C872.297 92.4558 872.834 92.9925 873.202 93.6595C873.577 94.3188 873.765 95.0318 873.765 95.7985C873.765 96.6955 873.535 97.4813 873.075 98.156C872.615 98.8307 871.994 99.2945 871.212 99.5475L871.189 98.984C872.255 99.2677 873.083 99.789 873.673 100.548C874.263 101.307 874.559 102.212 874.559 103.262C874.559 104.228 874.359 105.064 873.961 105.769C873.57 106.474 873.002 107.022 872.259 107.413C871.523 107.804 870.649 108 869.637 108H862.61ZM864.68 106.045H869.246C869.859 106.045 870.407 105.934 870.89 105.711C871.373 105.481 871.753 105.159 872.029 104.745C872.312 104.331 872.454 103.833 872.454 103.25C872.454 102.691 872.328 102.189 872.075 101.744C871.829 101.299 871.48 100.947 871.028 100.686C870.583 100.418 870.066 100.283 869.476 100.283H864.68V106.045ZM864.68 98.3515H869.039C869.529 98.3515 869.97 98.248 870.361 98.041C870.76 97.8263 871.074 97.5273 871.304 97.144C871.542 96.7607 871.661 96.3122 871.661 95.7985C871.661 95.0855 871.419 94.5028 870.936 94.0505C870.453 93.5982 869.821 93.372 869.039 93.372H864.68V98.3515ZM876.839 108V95.58H878.886V100.812H885.418V95.58H887.465V108H885.418V102.756H878.886V108H876.839ZM896.068 108.345C894.849 108.345 893.784 108.077 892.871 107.54C891.967 106.996 891.261 106.24 890.755 105.274C890.249 104.301 889.996 103.166 889.996 101.87C889.996 100.513 890.245 99.3405 890.744 98.3515C891.242 97.3548 891.936 96.5882 892.825 96.0515C893.722 95.5072 894.773 95.235 895.976 95.235C897.226 95.235 898.288 95.5225 899.162 96.0975C900.043 96.6725 900.703 97.4928 901.14 98.5585C901.584 99.6242 901.776 100.893 901.715 102.365H899.645V101.629C899.622 100.103 899.311 98.9648 898.713 98.2135C898.115 97.4545 897.226 97.075 896.045 97.075C894.78 97.075 893.818 97.4813 893.159 98.294C892.499 99.1067 892.17 100.272 892.17 101.79C892.17 103.254 892.499 104.389 893.159 105.194C893.818 105.999 894.757 106.401 895.976 106.401C896.797 106.401 897.51 106.214 898.115 105.838C898.721 105.462 899.196 104.922 899.541 104.216L901.508 104.895C901.025 105.991 900.296 106.842 899.323 107.448C898.357 108.046 897.272 108.345 896.068 108.345ZM891.48 102.365V100.72H900.657V102.365H891.48ZM903.355 110.76V106.31C904.053 106.31 904.551 106.083 904.85 105.631C905.149 105.171 905.391 104.416 905.575 103.365C905.697 102.706 905.797 102.001 905.874 101.249C905.95 100.498 906.015 99.6625 906.069 98.7425C906.13 97.8148 906.188 96.7607 906.242 95.58H914.798V106.31H916.005V110.76H914.05V108H905.31V110.76H903.355ZM906.506 106.31H912.751V97.2705H908.093C908.07 97.8148 908.039 98.386 908.001 98.984C907.963 99.5743 907.917 100.165 907.863 100.755C907.817 101.345 907.76 101.905 907.691 102.434C907.629 102.955 907.556 103.423 907.472 103.837C907.372 104.412 907.257 104.899 907.127 105.297C906.997 105.696 906.79 106.033 906.506 106.31ZM924.017 108.345C922.852 108.345 921.87 108.058 921.073 107.482C920.276 106.9 919.67 106.114 919.256 105.125C918.85 104.128 918.647 103.013 918.647 101.778C918.647 100.529 918.85 99.4095 919.256 98.4205C919.67 97.4315 920.276 96.6533 921.073 96.086C921.878 95.5187 922.863 95.235 924.029 95.235C925.179 95.235 926.168 95.5225 926.996 96.0975C927.831 96.6648 928.471 97.443 928.916 98.432C929.361 99.421 929.583 100.536 929.583 101.778C929.583 103.02 929.361 104.136 928.916 105.125C928.471 106.114 927.831 106.9 926.996 107.482C926.168 108.058 925.175 108.345 924.017 108.345ZM918.302 113.52V95.58H920.13V104.722H920.36V113.52H918.302ZM923.764 106.47C924.584 106.47 925.263 106.263 925.8 105.849C926.336 105.435 926.739 104.876 927.007 104.17C927.275 103.457 927.41 102.66 927.41 101.778C927.41 100.904 927.275 100.115 927.007 99.4095C926.746 98.7042 926.34 98.1445 925.788 97.7305C925.244 97.3165 924.55 97.1095 923.707 97.1095C922.902 97.1095 922.235 97.3088 921.706 97.7075C921.177 98.0985 920.782 98.6467 920.521 99.352C920.26 100.05 920.13 100.858 920.13 101.778C920.13 102.683 920.257 103.492 920.51 104.205C920.77 104.91 921.169 105.466 921.706 105.872C922.242 106.271 922.928 106.47 923.764 106.47ZM937.486 108.345C936.267 108.345 935.201 108.077 934.289 107.54C933.384 106.996 932.679 106.24 932.173 105.274C931.667 104.301 931.414 103.166 931.414 101.87C931.414 100.513 931.663 99.3405 932.162 98.3515C932.66 97.3548 933.354 96.5882 934.243 96.0515C935.14 95.5072 936.19 95.235 937.394 95.235C938.644 95.235 939.706 95.5225 940.58 96.0975C941.461 96.6725 942.121 97.4928 942.558 98.5585C943.002 99.6242 943.194 100.893 943.133 102.365H941.063V101.629C941.04 100.103 940.729 98.9648 940.131 98.2135C939.533 97.4545 938.644 97.075 937.463 97.075C936.198 97.075 935.236 97.4813 934.577 98.294C933.917 99.1067 933.588 100.272 933.588 101.79C933.588 103.254 933.917 104.389 934.577 105.194C935.236 105.999 936.175 106.401 937.394 106.401C938.214 106.401 938.927 106.214 939.533 105.838C940.139 105.462 940.614 104.922 940.959 104.216L942.926 104.895C942.443 105.991 941.714 106.842 940.741 107.448C939.775 108.046 938.69 108.345 937.486 108.345ZM932.898 102.365V100.72H942.075V102.365H932.898ZM945.682 108V95.58H947.729V100.812H954.261V95.58H956.308V108H954.261V102.756H947.729V108H945.682ZM969.695 95.58V108H967.717V98.846L961.208 108H959.517V95.58H961.495V104.607L968.016 95.58H969.695ZM978.298 108.345C977.079 108.345 976.013 108.077 975.101 107.54C974.196 106.996 973.491 106.24 972.985 105.274C972.479 104.301 972.226 103.166 972.226 101.87C972.226 100.513 972.475 99.3405 972.973 98.3515C973.471 97.3548 974.165 96.5882 975.055 96.0515C975.952 95.5072 977.002 95.235 978.206 95.235C979.455 95.235 980.517 95.5225 981.391 96.0975C982.273 96.6725 982.932 97.4928 983.369 98.5585C983.814 99.6242 984.005 100.893 983.944 102.365H981.874V101.629C981.851 100.103 981.541 98.9648 980.943 98.2135C980.345 97.4545 979.455 97.075 978.275 97.075C977.01 97.075 976.047 97.4813 975.388 98.294C974.729 99.1067 974.399 100.272 974.399 101.79C974.399 103.254 974.729 104.389 975.388 105.194C976.047 105.999 976.987 106.401 978.206 106.401C979.026 106.401 979.739 106.214 980.345 105.838C980.95 105.462 981.426 104.922 981.771 104.216L983.737 104.895C983.254 105.991 982.526 106.842 981.552 107.448C980.586 108.046 979.501 108.345 978.298 108.345ZM973.709 102.365V100.72H982.886V102.365H973.709ZM867.843 131.345C866.585 131.345 865.516 131.065 864.634 130.505C863.76 129.938 863.093 129.16 862.633 128.171C862.173 127.182 861.935 126.055 861.92 124.79C861.935 123.494 862.177 122.356 862.645 121.374C863.12 120.385 863.798 119.615 864.68 119.063C865.562 118.511 866.624 118.235 867.866 118.235C869.177 118.235 870.304 118.557 871.247 119.201C872.197 119.845 872.834 120.727 873.156 121.846L871.132 122.455C870.871 121.735 870.445 121.175 869.855 120.776C869.272 120.378 868.602 120.178 867.843 120.178C866.992 120.178 866.29 120.378 865.738 120.776C865.186 121.167 864.776 121.712 864.508 122.409C864.239 123.099 864.101 123.893 864.094 124.79C864.109 126.17 864.427 127.285 865.048 128.136C865.677 128.98 866.608 129.401 867.843 129.401C868.655 129.401 869.33 129.217 869.867 128.849C870.403 128.474 870.81 127.933 871.086 127.228L873.156 127.768C872.726 128.926 872.055 129.812 871.143 130.425C870.231 131.038 869.131 131.345 867.843 131.345ZM880.456 131.345C879.221 131.345 878.156 131.065 877.259 130.505C876.369 129.946 875.683 129.171 875.2 128.182C874.717 127.193 874.476 126.059 874.476 124.778C874.476 123.475 874.721 122.333 875.212 121.351C875.702 120.37 876.396 119.607 877.293 119.063C878.19 118.511 879.244 118.235 880.456 118.235C881.698 118.235 882.767 118.515 883.664 119.074C884.561 119.626 885.247 120.397 885.723 121.386C886.206 122.367 886.447 123.498 886.447 124.778C886.447 126.074 886.206 127.216 885.723 128.205C885.24 129.187 884.55 129.957 883.653 130.517C882.756 131.069 881.69 131.345 880.456 131.345ZM880.456 129.401C881.744 129.401 882.702 128.972 883.331 128.113C883.959 127.255 884.274 126.143 884.274 124.778C884.274 123.375 883.955 122.26 883.319 121.432C882.683 120.596 881.728 120.178 880.456 120.178C879.589 120.178 878.876 120.374 878.317 120.765C877.757 121.156 877.339 121.696 877.063 122.386C876.787 123.076 876.649 123.874 876.649 124.778C876.649 126.174 876.971 127.293 877.615 128.136C878.259 128.98 879.206 129.401 880.456 129.401ZM893.138 131.345C891.911 131.345 890.826 131.081 889.883 130.551C888.94 130.015 888.196 129.279 887.652 128.343L889.285 127.285C889.737 127.968 890.278 128.493 890.907 128.861C891.535 129.221 892.252 129.401 893.057 129.401C893.9 129.401 894.571 129.21 895.07 128.826C895.568 128.435 895.817 127.91 895.817 127.251C895.817 126.76 895.694 126.385 895.449 126.124C895.204 125.863 894.851 125.683 894.391 125.583C893.931 125.484 893.383 125.434 892.747 125.434H891.459V123.743H892.735C893.54 123.743 894.196 123.613 894.702 123.352C895.208 123.092 895.461 122.647 895.461 122.018C895.461 121.374 895.223 120.907 894.748 120.615C894.28 120.316 893.72 120.167 893.069 120.167C892.379 120.167 891.719 120.313 891.091 120.604C890.462 120.888 889.921 121.248 889.469 121.685L888.227 120.293C888.871 119.634 889.611 119.128 890.447 118.775C891.29 118.415 892.206 118.235 893.195 118.235C893.992 118.235 894.721 118.377 895.38 118.66C896.047 118.936 896.576 119.347 896.967 119.891C897.366 120.428 897.565 121.083 897.565 121.857C897.565 122.517 897.412 123.103 897.105 123.617C896.798 124.131 896.346 124.579 895.748 124.962L895.668 124.238C896.174 124.361 896.591 124.587 896.921 124.916C897.258 125.238 897.508 125.622 897.669 126.066C897.83 126.511 897.91 126.975 897.91 127.458C897.91 128.271 897.695 128.968 897.266 129.551C896.844 130.126 896.273 130.571 895.553 130.885C894.832 131.192 894.027 131.345 893.138 131.345ZM899.514 133.76V129.31C900.212 129.31 900.71 129.083 901.009 128.631C901.308 128.171 901.55 127.416 901.734 126.365C901.856 125.706 901.956 125.001 902.033 124.249C902.109 123.498 902.175 122.662 902.228 121.742C902.29 120.815 902.347 119.761 902.401 118.58H910.957V129.31H912.164V133.76H910.209V131H901.469V133.76H899.514ZM902.665 129.31H908.91V120.27H904.252C904.229 120.815 904.199 121.386 904.16 121.984C904.122 122.574 904.076 123.165 904.022 123.755C903.976 124.345 903.919 124.905 903.85 125.434C903.788 125.955 903.716 126.423 903.631 126.837C903.532 127.412 903.417 127.899 903.286 128.297C903.156 128.696 902.949 129.033 902.665 129.31ZM918.003 131.345C917.075 131.345 916.297 131.176 915.668 130.839C915.047 130.494 914.576 130.042 914.254 129.482C913.939 128.922 913.782 128.309 913.782 127.642C913.782 126.99 913.905 126.427 914.15 125.951C914.403 125.468 914.756 125.07 915.208 124.755C915.661 124.433 916.201 124.18 916.83 123.996C917.42 123.835 918.079 123.697 918.808 123.582C919.544 123.46 920.287 123.349 921.039 123.249C921.79 123.149 922.492 123.053 923.143 122.961L922.407 123.387C922.43 122.283 922.208 121.466 921.74 120.937C921.28 120.408 920.483 120.144 919.348 120.144C918.597 120.144 917.938 120.316 917.37 120.661C916.811 120.999 916.416 121.551 916.186 122.317L914.242 121.731C914.541 120.642 915.12 119.787 915.979 119.166C916.837 118.545 917.968 118.235 919.371 118.235C920.498 118.235 921.464 118.438 922.269 118.844C923.082 119.243 923.665 119.849 924.017 120.661C924.194 121.045 924.305 121.463 924.351 121.915C924.397 122.36 924.42 122.827 924.42 123.318V131H922.603V128.021L923.028 128.297C922.561 129.302 921.905 130.061 921.062 130.574C920.226 131.088 919.206 131.345 918.003 131.345ZM918.313 129.631C919.049 129.631 919.686 129.501 920.222 129.24C920.767 128.972 921.204 128.623 921.533 128.194C921.863 127.757 922.078 127.282 922.177 126.768C922.292 126.385 922.354 125.959 922.361 125.491C922.377 125.016 922.384 124.652 922.384 124.399L923.097 124.709C922.43 124.801 921.775 124.89 921.131 124.974C920.487 125.058 919.877 125.15 919.302 125.25C918.727 125.342 918.21 125.453 917.75 125.583C917.412 125.691 917.094 125.829 916.795 125.997C916.504 126.166 916.266 126.385 916.082 126.653C915.906 126.914 915.818 127.239 915.818 127.63C915.818 127.968 915.902 128.29 916.071 128.596C916.247 128.903 916.515 129.152 916.876 129.344C917.244 129.536 917.723 129.631 918.313 129.631ZM927.398 131V118.58H929.445V123.812H935.977V118.58H938.024V131H935.977V125.756H929.445V131H927.398ZM941.234 131V118.58H943.281V123.812H949.813V118.58H951.86V131H949.813V125.756H943.281V131H941.234ZM960.372 131.345C959.137 131.345 958.072 131.065 957.175 130.505C956.285 129.946 955.599 129.171 955.116 128.182C954.633 127.193 954.392 126.059 954.392 124.778C954.392 123.475 954.637 122.333 955.128 121.351C955.618 120.37 956.312 119.607 957.209 119.063C958.106 118.511 959.16 118.235 960.372 118.235C961.614 118.235 962.683 118.515 963.58 119.074C964.477 119.626 965.163 120.397 965.639 121.386C966.122 122.367 966.363 123.498 966.363 124.778C966.363 126.074 966.122 127.216 965.639 128.205C965.156 129.187 964.466 129.957 963.569 130.517C962.672 131.069 961.606 131.345 960.372 131.345ZM960.372 129.401C961.66 129.401 962.618 128.972 963.247 128.113C963.875 127.255 964.19 126.143 964.19 124.778C964.19 123.375 963.872 122.26 963.235 121.432C962.599 120.596 961.644 120.178 960.372 120.178C959.505 120.178 958.792 120.374 958.233 120.765C957.673 121.156 957.255 121.696 956.979 122.386C956.703 123.076 956.565 123.874 956.565 124.778C956.565 126.174 956.887 127.293 957.531 128.136C958.175 128.98 959.122 129.401 960.372 129.401ZM968.895 131V118.58H977.52V120.523H970.942V131H968.895ZM984.764 131.345C983.53 131.345 982.464 131.065 981.567 130.505C980.678 129.946 979.992 129.171 979.509 128.182C979.026 127.193 978.784 126.059 978.784 124.778C978.784 123.475 979.03 122.333 979.52 121.351C980.011 120.37 980.705 119.607 981.602 119.063C982.499 118.511 983.553 118.235 984.764 118.235C986.006 118.235 987.076 118.515 987.973 119.074C988.87 119.626 989.556 120.397 990.031 121.386C990.514 122.367 990.756 123.498 990.756 124.778C990.756 126.074 990.514 127.216 990.031 128.205C989.548 129.187 988.858 129.957 987.961 130.517C987.064 131.069 985.999 131.345 984.764 131.345ZM984.764 129.401C986.052 129.401 987.011 128.972 987.639 128.113C988.268 127.255 988.582 126.143 988.582 124.778C988.582 123.375 988.264 122.26 987.628 121.432C986.991 120.596 986.037 120.178 984.764 120.178C983.898 120.178 983.185 120.374 982.625 120.765C982.066 121.156 981.648 121.696 981.372 122.386C981.096 123.076 980.958 123.874 980.958 124.778C980.958 126.174 981.28 127.293 981.924 128.136C982.568 128.98 983.515 129.401 984.764 129.401ZM997.892 131V114.44H1010.82V131H1008.77V116.383H999.939V131H997.892ZM1020.85 131.345C1019.2 131.345 1017.8 130.981 1016.65 130.252C1015.5 129.524 1014.62 128.512 1014.02 127.216C1013.42 125.921 1013.12 124.422 1013.12 122.72C1013.12 121.018 1013.42 119.519 1014.02 118.223C1014.62 116.928 1015.5 115.916 1016.65 115.187C1017.8 114.459 1019.2 114.095 1020.85 114.095C1022.51 114.095 1023.91 114.459 1025.06 115.187C1026.21 115.916 1027.08 116.928 1027.68 118.223C1028.28 119.519 1028.58 121.018 1028.58 122.72C1028.58 124.422 1028.28 125.921 1027.68 127.216C1027.08 128.512 1026.21 129.524 1025.06 130.252C1023.91 130.981 1022.51 131.345 1020.85 131.345ZM1020.85 129.39C1022.08 129.398 1023.11 129.122 1023.93 128.562C1024.76 127.995 1025.38 127.209 1025.78 126.204C1026.2 125.2 1026.4 124.039 1026.4 122.72C1026.4 121.394 1026.2 120.232 1025.78 119.235C1025.38 118.239 1024.76 117.461 1023.93 116.901C1023.11 116.341 1022.08 116.058 1020.85 116.05C1019.62 116.042 1018.59 116.318 1017.77 116.878C1016.95 117.438 1016.34 118.22 1015.93 119.224C1015.51 120.228 1015.3 121.394 1015.3 122.72C1015.29 124.039 1015.49 125.196 1015.9 126.193C1016.32 127.19 1016.94 127.972 1017.76 128.539C1018.58 129.099 1019.62 129.382 1020.85 129.39Z" fill="#000206"/>
              <path d="M326 1.29297H723.05C730.156 1.29297 736.682 5.10506 740.104 11.21L740.426 11.8086L786.945 101.979C789.683 107.279 789.769 113.527 787.202 118.896L786.945 119.412L740.415 209.839C737.092 216.292 730.375 220.363 723.03 220.363H326C315.22 220.363 306.5 211.748 306.5 201.126V20.5303C306.5 9.90778 315.22 1.29297 326 1.29297Z" fill="white" stroke="#254E6C"/>
              <path d="M500.735 120V103.44H507.279C507.44 103.44 507.631 103.448 507.854 103.463C508.076 103.471 508.291 103.494 508.498 103.532C509.395 103.67 510.146 103.977 510.752 104.452C511.365 104.927 511.825 105.529 512.132 106.257C512.438 106.978 512.592 107.779 512.592 108.661C512.592 109.535 512.434 110.336 512.12 111.064C511.813 111.785 511.353 112.387 510.74 112.87C510.134 113.345 509.387 113.652 508.498 113.79C508.291 113.821 508.076 113.844 507.854 113.859C507.631 113.874 507.44 113.882 507.279 113.882H502.782V120H500.735ZM502.782 111.938H507.21C507.355 111.938 507.52 111.931 507.704 111.915C507.896 111.9 508.076 111.873 508.245 111.835C508.774 111.712 509.203 111.49 509.533 111.168C509.87 110.838 510.115 110.455 510.269 110.018C510.422 109.573 510.499 109.121 510.499 108.661C510.499 108.201 510.422 107.752 510.269 107.315C510.115 106.871 509.87 106.484 509.533 106.154C509.203 105.824 508.774 105.602 508.245 105.487C508.076 105.441 507.896 105.414 507.704 105.406C507.52 105.391 507.355 105.383 507.21 105.383H502.782V111.938ZM518.416 120.345C517.488 120.345 516.71 120.176 516.081 119.839C515.46 119.494 514.989 119.042 514.667 118.482C514.353 117.922 514.195 117.309 514.195 116.642C514.195 115.99 514.318 115.427 514.563 114.951C514.816 114.468 515.169 114.07 515.621 113.755C516.074 113.433 516.614 113.18 517.243 112.996C517.833 112.835 518.493 112.697 519.221 112.582C519.957 112.46 520.701 112.349 521.452 112.249C522.203 112.149 522.905 112.053 523.556 111.961L522.82 112.387C522.843 111.283 522.621 110.466 522.153 109.937C521.693 109.408 520.896 109.144 519.761 109.144C519.01 109.144 518.351 109.316 517.783 109.661C517.224 109.999 516.829 110.551 516.599 111.317L514.655 110.731C514.954 109.642 515.533 108.787 516.392 108.166C517.251 107.545 518.381 107.235 519.784 107.235C520.911 107.235 521.877 107.438 522.682 107.844C523.495 108.243 524.078 108.849 524.43 109.661C524.607 110.045 524.718 110.463 524.764 110.915C524.81 111.36 524.833 111.827 524.833 112.318V120H523.016V117.021L523.441 117.297C522.974 118.302 522.318 119.061 521.475 119.574C520.639 120.088 519.62 120.345 518.416 120.345ZM518.726 118.631C519.462 118.631 520.099 118.501 520.635 118.24C521.18 117.972 521.617 117.623 521.946 117.194C522.276 116.757 522.491 116.282 522.59 115.768C522.705 115.385 522.767 114.959 522.774 114.491C522.79 114.016 522.797 113.652 522.797 113.399L523.51 113.709C522.843 113.801 522.188 113.89 521.544 113.974C520.9 114.058 520.29 114.15 519.715 114.25C519.14 114.342 518.623 114.453 518.163 114.583C517.826 114.691 517.507 114.829 517.208 114.997C516.917 115.166 516.679 115.385 516.495 115.653C516.319 115.914 516.231 116.239 516.231 116.63C516.231 116.968 516.315 117.29 516.484 117.596C516.66 117.903 516.929 118.152 517.289 118.344C517.657 118.536 518.136 118.631 518.726 118.631ZM532.273 120.345C531.047 120.345 529.962 120.081 529.019 119.551C528.076 119.015 527.332 118.279 526.788 117.343L528.421 116.285C528.873 116.968 529.414 117.493 530.042 117.861C530.671 118.221 531.388 118.401 532.193 118.401C533.036 118.401 533.707 118.21 534.205 117.826C534.704 117.435 534.953 116.91 534.953 116.251C534.953 115.76 534.83 115.385 534.585 115.124C534.34 114.863 533.987 114.683 533.527 114.583C533.067 114.484 532.519 114.434 531.882 114.434H530.594V112.743H531.871C532.676 112.743 533.331 112.613 533.837 112.352C534.343 112.092 534.596 111.647 534.596 111.018C534.596 110.374 534.359 109.907 533.883 109.615C533.416 109.316 532.856 109.167 532.204 109.167C531.514 109.167 530.855 109.313 530.226 109.604C529.598 109.888 529.057 110.248 528.605 110.685L527.363 109.293C528.007 108.634 528.747 108.128 529.582 107.775C530.426 107.415 531.342 107.235 532.331 107.235C533.128 107.235 533.857 107.377 534.516 107.66C535.183 107.936 535.712 108.347 536.103 108.891C536.502 109.428 536.701 110.083 536.701 110.857C536.701 111.517 536.548 112.103 536.241 112.617C535.934 113.131 535.482 113.579 534.884 113.962L534.803 113.238C535.309 113.361 535.727 113.587 536.057 113.916C536.394 114.238 536.643 114.622 536.804 115.066C536.965 115.511 537.046 115.975 537.046 116.458C537.046 117.271 536.831 117.968 536.402 118.551C535.98 119.126 535.409 119.571 534.688 119.885C533.968 120.192 533.163 120.345 532.273 120.345ZM545.274 120.345C544.109 120.345 543.127 120.058 542.33 119.482C541.533 118.9 540.927 118.114 540.513 117.125C540.107 116.128 539.903 115.013 539.903 113.778C539.903 112.529 540.107 111.409 540.513 110.42C540.927 109.431 541.533 108.653 542.33 108.086C543.135 107.519 544.12 107.235 545.285 107.235C546.435 107.235 547.424 107.522 548.252 108.097C549.088 108.665 549.728 109.443 550.173 110.432C550.618 111.421 550.84 112.536 550.84 113.778C550.84 115.02 550.618 116.136 550.173 117.125C549.728 118.114 549.088 118.9 548.252 119.482C547.424 120.058 546.432 120.345 545.274 120.345ZM539.558 125.52V107.58H541.387V116.722H541.617V125.52H539.558ZM545.021 118.47C545.841 118.47 546.52 118.263 547.056 117.849C547.593 117.435 547.996 116.876 548.264 116.17C548.532 115.457 548.666 114.66 548.666 113.778C548.666 112.904 548.532 112.115 548.264 111.409C548.003 110.704 547.597 110.144 547.045 109.73C546.501 109.316 545.807 109.109 544.963 109.109C544.158 109.109 543.491 109.309 542.962 109.707C542.433 110.098 542.039 110.647 541.778 111.352C541.517 112.05 541.387 112.858 541.387 113.778C541.387 114.683 541.513 115.492 541.766 116.205C542.027 116.91 542.426 117.466 542.962 117.872C543.499 118.271 544.185 118.47 545.021 118.47ZM556.891 120.345C555.964 120.345 555.186 120.176 554.557 119.839C553.936 119.494 553.464 119.042 553.142 118.482C552.828 117.922 552.671 117.309 552.671 116.642C552.671 115.99 552.794 115.427 553.039 114.951C553.292 114.468 553.645 114.07 554.097 113.755C554.549 113.433 555.09 113.18 555.718 112.996C556.309 112.835 556.968 112.697 557.696 112.582C558.432 112.46 559.176 112.349 559.927 112.249C560.679 112.149 561.38 112.053 562.032 111.961L561.296 112.387C561.319 111.283 561.097 110.466 560.629 109.937C560.169 109.408 559.372 109.144 558.237 109.144C557.486 109.144 556.826 109.316 556.259 109.661C555.699 109.999 555.304 110.551 555.074 111.317L553.131 110.731C553.43 109.642 554.009 108.787 554.867 108.166C555.726 107.545 556.857 107.235 558.26 107.235C559.387 107.235 560.353 107.438 561.158 107.844C561.971 108.243 562.553 108.849 562.906 109.661C563.082 110.045 563.193 110.463 563.239 110.915C563.285 111.36 563.308 111.827 563.308 112.318V120H561.491V117.021L561.917 117.297C561.449 118.302 560.794 119.061 559.95 119.574C559.115 120.088 558.095 120.345 556.891 120.345ZM557.202 118.631C557.938 118.631 558.574 118.501 559.111 118.24C559.655 117.972 560.092 117.623 560.422 117.194C560.752 116.757 560.966 116.282 561.066 115.768C561.181 115.385 561.242 114.959 561.25 114.491C561.265 114.016 561.273 113.652 561.273 113.399L561.986 113.709C561.319 113.801 560.663 113.89 560.019 113.974C559.375 114.058 558.766 114.15 558.191 114.25C557.616 114.342 557.098 114.453 556.638 114.583C556.301 114.691 555.983 114.829 555.684 114.997C555.393 115.166 555.155 115.385 554.971 115.653C554.795 115.914 554.706 116.239 554.706 116.63C554.706 116.968 554.791 117.29 554.959 117.596C555.136 117.903 555.404 118.152 555.764 118.344C556.132 118.536 556.612 118.631 557.202 118.631ZM571.347 120.357C570.174 120.349 569.173 120.096 568.345 119.597C567.517 119.091 566.873 118.352 566.413 117.378C565.953 116.404 565.697 115.212 565.643 113.801C565.612 113.15 565.62 112.433 565.666 111.651C565.72 110.869 565.804 110.118 565.919 109.397C566.042 108.676 566.195 108.082 566.379 107.614C566.586 107.055 566.877 106.537 567.253 106.062C567.636 105.579 568.066 105.18 568.541 104.866C569.024 104.536 569.564 104.279 570.162 104.095C570.76 103.911 571.385 103.77 572.037 103.67C572.696 103.563 573.356 103.471 574.015 103.394C574.674 103.31 575.303 103.21 575.901 103.095L576.108 104.935C575.686 105.027 575.188 105.107 574.613 105.176C574.038 105.238 573.44 105.311 572.819 105.395C572.206 105.479 571.615 105.598 571.048 105.751C570.488 105.897 570.005 106.1 569.599 106.361C569.001 106.721 568.541 107.262 568.219 107.982C567.905 108.695 567.713 109.497 567.644 110.386C568.119 109.65 568.736 109.109 569.495 108.764C570.254 108.419 571.063 108.247 571.922 108.247C573.034 108.247 573.992 108.508 574.797 109.029C575.602 109.543 576.219 110.252 576.648 111.156C577.085 112.061 577.304 113.092 577.304 114.25C577.304 115.477 577.059 116.55 576.568 117.47C576.077 118.39 575.383 119.103 574.486 119.609C573.597 120.115 572.551 120.364 571.347 120.357ZM571.473 118.413C572.677 118.413 573.589 118.041 574.21 117.297C574.831 116.546 575.142 115.549 575.142 114.307C575.142 113.035 574.82 112.034 574.176 111.306C573.532 110.57 572.627 110.202 571.462 110.202C570.281 110.202 569.377 110.57 568.748 111.306C568.127 112.034 567.816 113.035 567.816 114.307C567.816 115.588 568.131 116.592 568.759 117.32C569.388 118.049 570.293 118.413 571.473 118.413ZM585.132 120.345C583.898 120.345 582.832 120.065 581.935 119.505C581.046 118.946 580.36 118.171 579.877 117.182C579.394 116.193 579.152 115.059 579.152 113.778C579.152 112.475 579.398 111.333 579.888 110.351C580.379 109.37 581.073 108.607 581.97 108.063C582.867 107.511 583.921 107.235 585.132 107.235C586.374 107.235 587.444 107.515 588.341 108.074C589.238 108.626 589.924 109.397 590.399 110.386C590.882 111.367 591.124 112.498 591.124 113.778C591.124 115.074 590.882 116.216 590.399 117.205C589.916 118.187 589.226 118.957 588.329 119.517C587.432 120.069 586.367 120.345 585.132 120.345ZM585.132 118.401C586.42 118.401 587.379 117.972 588.007 117.113C588.636 116.255 588.95 115.143 588.95 113.778C588.95 112.375 588.632 111.26 587.996 110.432C587.36 109.596 586.405 109.178 585.132 109.178C584.266 109.178 583.553 109.374 582.993 109.765C582.434 110.156 582.016 110.696 581.74 111.386C581.464 112.076 581.326 112.874 581.326 113.778C581.326 115.174 581.648 116.293 582.292 117.136C582.936 117.98 583.883 118.401 585.132 118.401ZM596.675 120V109.443H592.351V107.58H603.046V109.443H598.722V120H596.675ZM605.212 120L605.223 107.58H607.293V113.56L612.503 107.58H615.159L609.674 113.79L615.803 120H612.94L607.293 114.02V120H605.212ZM620.478 120.345C619.551 120.345 618.773 120.176 618.144 119.839C617.523 119.494 617.051 119.042 616.729 118.482C616.415 117.922 616.258 117.309 616.258 116.642C616.258 115.99 616.381 115.427 616.626 114.951C616.879 114.468 617.232 114.07 617.684 113.755C618.136 113.433 618.677 113.18 619.305 112.996C619.896 112.835 620.555 112.697 621.283 112.582C622.019 112.46 622.763 112.349 623.514 112.249C624.266 112.149 624.967 112.053 625.619 111.961L624.883 112.387C624.906 111.283 624.684 110.466 624.216 109.937C623.756 109.408 622.959 109.144 621.824 109.144C621.073 109.144 620.413 109.316 619.846 109.661C619.286 109.999 618.891 110.551 618.661 111.317L616.718 110.731C617.017 109.642 617.596 108.787 618.454 108.166C619.313 107.545 620.444 107.235 621.847 107.235C622.974 107.235 623.94 107.438 624.745 107.844C625.558 108.243 626.14 108.849 626.493 109.661C626.669 110.045 626.78 110.463 626.826 110.915C626.872 111.36 626.895 111.827 626.895 112.318V120H625.078V117.021L625.504 117.297C625.036 118.302 624.381 119.061 623.537 119.574C622.702 120.088 621.682 120.345 620.478 120.345ZM620.789 118.631C621.525 118.631 622.161 118.501 622.698 118.24C623.242 117.972 623.679 117.623 624.009 117.194C624.339 116.757 624.553 116.282 624.653 115.768C624.768 115.385 624.829 114.959 624.837 114.491C624.852 114.016 624.86 113.652 624.86 113.399L625.573 113.709C624.906 113.801 624.25 113.89 623.606 113.974C622.962 114.058 622.353 114.15 621.778 114.25C621.203 114.342 620.685 114.453 620.225 114.583C619.888 114.691 619.57 114.829 619.271 114.997C618.98 115.166 618.742 115.385 618.558 115.653C618.382 115.914 618.293 116.239 618.293 116.63C618.293 116.968 618.378 117.29 618.546 117.596C618.723 117.903 618.991 118.152 619.351 118.344C619.719 118.536 620.199 118.631 620.789 118.631ZM634.49 120V103.44H647.416V120H645.369V105.383H636.537V120H634.49ZM657.447 120.345C655.799 120.345 654.4 119.981 653.25 119.252C652.1 118.524 651.222 117.512 650.616 116.216C650.018 114.921 649.719 113.422 649.719 111.72C649.719 110.018 650.018 108.519 650.616 107.223C651.222 105.928 652.1 104.916 653.25 104.187C654.4 103.459 655.799 103.095 657.447 103.095C659.103 103.095 660.506 103.459 661.656 104.187C662.806 104.916 663.68 105.928 664.278 107.223C664.876 108.519 665.175 110.018 665.175 111.72C665.175 113.422 664.876 114.921 664.278 116.216C663.68 117.512 662.806 118.524 661.656 119.252C660.506 119.981 659.103 120.345 657.447 120.345ZM657.447 118.39C658.682 118.398 659.709 118.122 660.529 117.562C661.357 116.995 661.974 116.209 662.381 115.204C662.795 114.2 663.002 113.039 663.002 111.72C663.002 110.394 662.795 109.232 662.381 108.235C661.974 107.239 661.357 106.461 660.529 105.901C659.709 105.341 658.682 105.058 657.447 105.05C656.213 105.042 655.186 105.318 654.365 105.878C653.553 106.438 652.939 107.22 652.525 108.224C652.111 109.228 651.9 110.394 651.893 111.72C651.885 113.039 652.088 114.196 652.502 115.193C652.916 116.19 653.533 116.972 654.354 117.539C655.182 118.099 656.213 118.382 657.447 118.39Z" fill="#000206"/>
              <path d="M329.03 221.071H20C8.95 221.071 0 212.238 0 201.333V20.7373C0 9.83243 8.95 1 20 1H329.05C336.57 1 343.46 5.16457 346.87 11.7864L393.39 101.956C396.29 107.571 396.29 114.223 393.39 119.848L346.86 210.274C343.45 216.896 336.56 221.071 329.03 221.071Z" fill="#254E6C"/>
              <path d="M41.61 108V91.44H48.1535C48.3145 91.44 48.5062 91.4477 48.7285 91.463C48.9508 91.4707 49.1655 91.4937 49.3725 91.532C50.2695 91.67 51.0208 91.9767 51.6265 92.452C52.2398 92.9273 52.6998 93.5292 53.0065 94.2575C53.3132 94.9782 53.4665 95.7793 53.4665 96.661C53.4665 97.535 53.3093 98.3362 52.995 99.0645C52.6883 99.7852 52.2283 100.387 51.615 100.87C51.0093 101.345 50.2618 101.652 49.3725 101.79C49.1655 101.821 48.9508 101.844 48.7285 101.859C48.5062 101.874 48.3145 101.882 48.1535 101.882H43.657V108H41.61ZM43.657 99.9385H48.0845C48.2302 99.9385 48.395 99.9308 48.579 99.9155C48.7707 99.9002 48.9508 99.8733 49.1195 99.835C49.6485 99.7123 50.0778 99.49 50.4075 99.168C50.7448 98.8383 50.9902 98.455 51.1435 98.018C51.2968 97.5733 51.3735 97.121 51.3735 96.661C51.3735 96.201 51.2968 95.7525 51.1435 95.3155C50.9902 94.8708 50.7448 94.4837 50.4075 94.154C50.0778 93.8243 49.6485 93.602 49.1195 93.487C48.9508 93.441 48.7707 93.4142 48.579 93.4065C48.395 93.3912 48.2302 93.3835 48.0845 93.3835H43.657V99.9385ZM59.2909 108.345C58.3632 108.345 57.5851 108.176 56.9564 107.839C56.3354 107.494 55.8639 107.042 55.5419 106.482C55.2276 105.922 55.0704 105.309 55.0704 104.642C55.0704 103.99 55.1931 103.427 55.4384 102.951C55.6914 102.468 56.0441 102.07 56.4964 101.755C56.9487 101.433 57.4892 101.18 58.1179 100.996C58.7082 100.835 59.3676 100.697 60.0959 100.582C60.8319 100.46 61.5756 100.349 62.3269 100.249C63.0782 100.149 63.7797 100.053 64.4314 99.9615L63.6954 100.387C63.7184 99.283 63.4961 98.4665 63.0284 97.9375C62.5684 97.4085 61.7711 97.144 60.6364 97.144C59.8851 97.144 59.2257 97.3165 58.6584 97.6615C58.0987 97.9988 57.7039 98.5508 57.4739 99.3175L55.5304 98.731C55.8294 97.6423 56.4082 96.7875 57.2669 96.1665C58.1256 95.5455 59.2564 95.235 60.6594 95.235C61.7864 95.235 62.7524 95.4382 63.5574 95.8445C64.3701 96.2432 64.9527 96.8488 65.3054 97.6615C65.4817 98.0448 65.5929 98.4627 65.6389 98.915C65.6849 99.3597 65.7079 99.8273 65.7079 100.318V108H63.8909V105.021L64.3164 105.297C63.8487 106.302 63.1932 107.061 62.3499 107.574C61.5142 108.088 60.4946 108.345 59.2909 108.345ZM59.6014 106.631C60.3374 106.631 60.9737 106.501 61.5104 106.24C62.0547 105.972 62.4917 105.623 62.8214 105.194C63.1511 104.757 63.3657 104.282 63.4654 103.768C63.5804 103.385 63.6417 102.959 63.6494 102.491C63.6647 102.016 63.6724 101.652 63.6724 101.399L64.3854 101.709C63.7184 101.801 63.0629 101.89 62.4189 101.974C61.7749 102.058 61.1654 102.15 60.5904 102.25C60.0154 102.342 59.4979 102.453 59.0379 102.583C58.7006 102.691 58.3824 102.829 58.0834 102.997C57.7921 103.166 57.5544 103.385 57.3704 103.653C57.1941 103.914 57.1059 104.239 57.1059 104.63C57.1059 104.968 57.1902 105.29 57.3589 105.596C57.5352 105.903 57.8036 106.152 58.1639 106.344C58.5319 106.536 59.0111 106.631 59.6014 106.631ZM73.1484 108.345C71.9217 108.345 70.8369 108.081 69.8939 107.551C68.9509 107.015 68.2072 106.279 67.6629 105.343L69.2959 104.285C69.7482 104.968 70.2887 105.493 70.9174 105.861C71.5461 106.221 72.2629 106.401 73.0679 106.401C73.9112 106.401 74.5821 106.21 75.0804 105.826C75.5787 105.435 75.8279 104.91 75.8279 104.251C75.8279 103.76 75.7052 103.385 75.4599 103.124C75.2146 102.863 74.8619 102.683 74.4019 102.583C73.9419 102.484 73.3937 102.434 72.7574 102.434H71.4694V100.743H72.7459C73.5509 100.743 74.2064 100.613 74.7124 100.352C75.2184 100.092 75.4714 99.6472 75.4714 99.0185C75.4714 98.3745 75.2337 97.9068 74.7584 97.6155C74.2907 97.3165 73.7311 97.167 73.0794 97.167C72.3894 97.167 71.7301 97.3127 71.1014 97.604C70.4727 97.8877 69.9322 98.248 69.4799 98.685L68.2379 97.2935C68.8819 96.6342 69.6217 96.1282 70.4574 95.7755C71.3007 95.4152 72.2169 95.235 73.2059 95.235C74.0032 95.235 74.7316 95.3768 75.3909 95.6605C76.0579 95.9365 76.5869 96.3467 76.9779 96.891C77.3766 97.4277 77.5759 98.0832 77.5759 98.8575C77.5759 99.5168 77.4226 100.103 77.1159 100.617C76.8092 101.131 76.3569 101.579 75.7589 101.962L75.6784 101.238C76.1844 101.361 76.6022 101.587 76.9319 101.916C77.2692 102.238 77.5184 102.622 77.6794 103.066C77.8404 103.511 77.9209 103.975 77.9209 104.458C77.9209 105.271 77.7062 105.968 77.2769 106.551C76.8552 107.126 76.2841 107.571 75.5634 107.885C74.8427 108.192 74.0377 108.345 73.1484 108.345ZM86.149 108.345C84.9836 108.345 84.0023 108.058 83.205 107.482C82.4076 106.9 81.802 106.114 81.388 105.125C80.9816 104.128 80.7785 103.013 80.7785 101.778C80.7785 100.529 80.9816 99.4095 81.388 98.4205C81.802 97.4315 82.4076 96.6533 83.205 96.086C84.01 95.5187 84.9951 95.235 86.1605 95.235C87.3105 95.235 88.2995 95.5225 89.1275 96.0975C89.9631 96.6648 90.6033 97.443 91.048 98.432C91.4926 99.421 91.715 100.536 91.715 101.778C91.715 103.02 91.4926 104.136 91.048 105.125C90.6033 106.114 89.9631 106.9 89.1275 107.482C88.2995 108.058 87.3066 108.345 86.149 108.345ZM80.4335 113.52V95.58H82.262V104.722H82.492V113.52H80.4335ZM85.896 106.47C86.7163 106.47 87.3948 106.263 87.9315 105.849C88.4681 105.435 88.8706 104.876 89.139 104.17C89.4073 103.457 89.5415 102.66 89.5415 101.778C89.5415 100.904 89.4073 100.115 89.139 99.4095C88.8783 98.7042 88.472 98.1445 87.92 97.7305C87.3756 97.3165 86.6818 97.1095 85.8385 97.1095C85.0335 97.1095 84.3665 97.3088 83.8375 97.7075C83.3085 98.0985 82.9136 98.6467 82.653 99.352C82.3923 100.05 82.262 100.858 82.262 101.778C82.262 102.683 82.3885 103.492 82.6415 104.205C82.9021 104.91 83.3008 105.466 83.8375 105.872C84.3741 106.271 85.0603 106.47 85.896 106.47ZM97.7665 108.345C96.8388 108.345 96.0606 108.176 95.432 107.839C94.811 107.494 94.3395 107.042 94.0175 106.482C93.7031 105.922 93.546 105.309 93.546 104.642C93.546 103.99 93.6686 103.427 93.914 102.951C94.167 102.468 94.5196 102.07 94.972 101.755C95.4243 101.433 95.9648 101.18 96.5935 100.996C97.1838 100.835 97.8431 100.697 98.5715 100.582C99.3075 100.46 100.051 100.349 100.802 100.249C101.554 100.149 102.255 100.053 102.907 99.9615L102.171 100.387C102.194 99.283 101.972 98.4665 101.504 97.9375C101.044 97.4085 100.247 97.144 99.112 97.144C98.3606 97.144 97.7013 97.3165 97.134 97.6615C96.5743 97.9988 96.1795 98.5508 95.9495 99.3175L94.006 98.731C94.305 97.6423 94.8838 96.7875 95.7425 96.1665C96.6011 95.5455 97.732 95.235 99.135 95.235C100.262 95.235 101.228 95.4382 102.033 95.8445C102.846 96.2432 103.428 96.8488 103.781 97.6615C103.957 98.0448 104.068 98.4627 104.114 98.915C104.16 99.3597 104.183 99.8273 104.183 100.318V108H102.366V105.021L102.792 105.297C102.324 106.302 101.669 107.061 100.825 107.574C99.9898 108.088 98.9701 108.345 97.7665 108.345ZM98.077 106.631C98.813 106.631 99.4493 106.501 99.986 106.24C100.53 105.972 100.967 105.623 101.297 105.194C101.627 104.757 101.841 104.282 101.941 103.768C102.056 103.385 102.117 102.959 102.125 102.491C102.14 102.016 102.148 101.652 102.148 101.399L102.861 101.709C102.194 101.801 101.538 101.89 100.894 101.974C100.25 102.058 99.641 102.15 99.066 102.25C98.491 102.342 97.9735 102.453 97.5135 102.583C97.1761 102.691 96.858 102.829 96.559 102.997C96.2676 103.166 96.03 103.385 95.846 103.653C95.6696 103.914 95.5815 104.239 95.5815 104.63C95.5815 104.968 95.6658 105.29 95.8345 105.596C96.0108 105.903 96.2791 106.152 96.6395 106.344C97.0075 106.536 97.4866 106.631 98.077 106.631ZM112.222 108.357C111.049 108.349 110.048 108.096 109.22 107.597C108.392 107.091 107.748 106.352 107.288 105.378C106.828 104.404 106.572 103.212 106.518 101.801C106.487 101.15 106.495 100.433 106.541 99.651C106.595 98.869 106.679 98.1177 106.794 97.397C106.917 96.6763 107.07 96.0822 107.254 95.6145C107.461 95.0548 107.752 94.5373 108.128 94.062C108.511 93.579 108.941 93.1803 109.416 92.866C109.899 92.5363 110.439 92.2795 111.037 92.0955C111.635 91.9115 112.26 91.7697 112.912 91.67C113.571 91.5627 114.231 91.4707 114.89 91.394C115.549 91.3097 116.178 91.21 116.776 91.095L116.983 92.935C116.561 93.027 116.063 93.1075 115.488 93.1765C114.913 93.2378 114.315 93.3107 113.694 93.395C113.081 93.4793 112.49 93.5982 111.923 93.7515C111.363 93.8972 110.88 94.1003 110.474 94.361C109.876 94.7213 109.416 95.2618 109.094 95.9825C108.78 96.6955 108.588 97.4967 108.519 98.386C108.994 97.65 109.611 97.1095 110.37 96.7645C111.129 96.4195 111.938 96.247 112.797 96.247C113.909 96.247 114.867 96.5077 115.672 97.029C116.477 97.5427 117.094 98.2518 117.523 99.1565C117.96 100.061 118.179 101.092 118.179 102.25C118.179 103.477 117.934 104.55 117.443 105.47C116.952 106.39 116.258 107.103 115.361 107.609C114.472 108.115 113.426 108.364 112.222 108.357ZM112.348 106.413C113.552 106.413 114.464 106.041 115.085 105.297C115.706 104.546 116.017 103.549 116.017 102.307C116.017 101.035 115.695 100.034 115.051 99.306C114.407 98.57 113.502 98.202 112.337 98.202C111.156 98.202 110.252 98.57 109.623 99.306C109.002 100.034 108.691 101.035 108.691 102.307C108.691 103.588 109.006 104.592 109.634 105.32C110.263 106.049 111.168 106.413 112.348 106.413ZM126.007 108.345C124.773 108.345 123.707 108.065 122.81 107.505C121.921 106.946 121.235 106.171 120.752 105.182C120.269 104.193 120.027 103.059 120.027 101.778C120.027 100.475 120.273 99.3328 120.763 98.3515C121.254 97.3702 121.948 96.6073 122.845 96.063C123.742 95.511 124.796 95.235 126.007 95.235C127.249 95.235 128.319 95.5148 129.216 96.0745C130.113 96.6265 130.799 97.397 131.274 98.386C131.757 99.3673 131.999 100.498 131.999 101.778C131.999 103.074 131.757 104.216 131.274 105.205C130.791 106.187 130.101 106.957 129.204 107.517C128.307 108.069 127.242 108.345 126.007 108.345ZM126.007 106.401C127.295 106.401 128.254 105.972 128.882 105.113C129.511 104.255 129.825 103.143 129.825 101.778C129.825 100.375 129.507 99.26 128.871 98.432C128.235 97.5963 127.28 97.1785 126.007 97.1785C125.141 97.1785 124.428 97.374 123.868 97.765C123.309 98.156 122.891 98.6965 122.615 99.3865C122.339 100.076 122.201 100.874 122.201 101.778C122.201 103.174 122.523 104.293 123.167 105.136C123.811 105.98 124.758 106.401 126.007 106.401ZM137.55 108V97.443H133.226V95.58H143.921V97.443H139.597V108H137.55ZM146.087 108L146.098 95.58H148.168V101.56L153.378 95.58H156.034L150.549 101.79L156.678 108H153.815L148.168 102.02V108H146.087ZM161.353 108.345C160.426 108.345 159.648 108.176 159.019 107.839C158.398 107.494 157.926 107.042 157.604 106.482C157.29 105.922 157.133 105.309 157.133 104.642C157.133 103.99 157.256 103.427 157.501 102.951C157.754 102.468 158.107 102.07 158.559 101.755C159.011 101.433 159.552 101.18 160.18 100.996C160.771 100.835 161.43 100.697 162.158 100.582C162.894 100.46 163.638 100.349 164.389 100.249C165.141 100.149 165.842 100.053 166.494 99.9615L165.758 100.387C165.781 99.283 165.559 98.4665 165.091 97.9375C164.631 97.4085 163.834 97.144 162.699 97.144C161.948 97.144 161.288 97.3165 160.721 97.6615C160.161 97.9988 159.766 98.5508 159.536 99.3175L157.593 98.731C157.892 97.6423 158.471 96.7875 159.329 96.1665C160.188 95.5455 161.319 95.235 162.722 95.235C163.849 95.235 164.815 95.4382 165.62 95.8445C166.433 96.2432 167.015 96.8488 167.368 97.6615C167.544 98.0448 167.655 98.4627 167.701 98.915C167.747 99.3597 167.77 99.8273 167.77 100.318V108H165.953V105.021L166.379 105.297C165.911 106.302 165.256 107.061 164.412 107.574C163.577 108.088 162.557 108.345 161.353 108.345ZM161.664 106.631C162.4 106.631 163.036 106.501 163.573 106.24C164.117 105.972 164.554 105.623 164.884 105.194C165.214 104.757 165.428 104.282 165.528 103.768C165.643 103.385 165.704 102.959 165.712 102.491C165.727 102.016 165.735 101.652 165.735 101.399L166.448 101.709C165.781 101.801 165.125 101.89 164.481 101.974C163.837 102.058 163.228 102.15 162.653 102.25C162.078 102.342 161.56 102.453 161.1 102.583C160.763 102.691 160.445 102.829 160.146 102.997C159.855 103.166 159.617 103.385 159.433 103.653C159.257 103.914 159.168 104.239 159.168 104.63C159.168 104.968 159.253 105.29 159.421 105.596C159.598 105.903 159.866 106.152 160.226 106.344C160.594 106.536 161.074 106.631 161.664 106.631ZM179.631 108V93.3835H173.985V91.44H187.325V93.3835H181.678V108H179.631ZM194.641 108.345C193.507 108.345 192.518 108.18 191.674 107.85C190.839 107.513 190.145 107.076 189.593 106.539C189.049 105.995 188.635 105.412 188.351 104.791L190.168 103.664C190.352 104.147 190.636 104.596 191.019 105.01C191.41 105.424 191.908 105.757 192.514 106.01C193.127 106.263 193.863 106.39 194.722 106.39C195.596 106.39 196.328 106.256 196.918 105.987C197.509 105.711 197.95 105.34 198.241 104.872C198.54 104.397 198.689 103.852 198.689 103.239C198.689 102.541 198.517 102.005 198.172 101.629C197.827 101.246 197.363 100.977 196.78 100.824C196.205 100.663 195.569 100.571 194.871 100.548C194.327 100.525 193.936 100.51 193.698 100.502C193.461 100.494 193.3 100.49 193.215 100.49C193.139 100.49 193.066 100.49 192.997 100.49V98.5355C193.066 98.5355 193.212 98.5355 193.434 98.5355C193.656 98.5355 193.89 98.5355 194.135 98.5355C194.381 98.5278 194.576 98.5202 194.722 98.5125C195.749 98.4588 196.566 98.1982 197.171 97.7305C197.777 97.2552 198.08 96.6035 198.08 95.7755C198.08 94.9168 197.769 94.246 197.148 93.763C196.535 93.28 195.734 93.0385 194.745 93.0385C193.81 93.0385 193.012 93.257 192.353 93.694C191.701 94.131 191.18 94.6945 190.789 95.3845L189.213 94.039C189.75 93.188 190.494 92.4865 191.444 91.9345C192.403 91.3748 193.522 91.095 194.802 91.095C195.508 91.095 196.186 91.1908 196.838 91.3825C197.497 91.5665 198.08 91.8502 198.586 92.2335C199.1 92.6092 199.506 93.0883 199.805 93.671C200.104 94.246 200.253 94.9283 200.253 95.718C200.253 96.569 200.073 97.3242 199.713 97.9835C199.353 98.6428 198.881 99.1527 198.298 99.513C199.103 99.7813 199.732 100.226 200.184 100.847C200.637 101.468 200.863 102.273 200.863 103.262C200.863 104.297 200.598 105.194 200.069 105.953C199.548 106.712 198.82 107.302 197.884 107.724C196.949 108.138 195.868 108.345 194.641 108.345ZM202.358 110.576L202.484 109.622C202.806 109.645 203.048 109.583 203.209 109.438C203.37 109.292 203.473 109.093 203.519 108.84C203.565 108.587 203.573 108.307 203.542 108H202.358V105.401H204.612V108.345C204.612 109.15 204.412 109.756 204.014 110.162C203.623 110.568 203.071 110.706 202.358 110.576ZM213.582 108V95.58H223.759V108H221.712V97.5235H215.629V108H213.582ZM232.27 108.345C231.036 108.345 229.97 108.065 229.073 107.505C228.184 106.946 227.498 106.171 227.015 105.182C226.532 104.193 226.29 103.059 226.29 101.778C226.29 100.475 226.535 99.3328 227.026 98.3515C227.517 97.3702 228.211 96.6073 229.108 96.063C230.005 95.511 231.059 95.235 232.27 95.235C233.512 95.235 234.582 95.5148 235.479 96.0745C236.376 96.6265 237.062 97.397 237.537 98.386C238.02 99.3673 238.262 100.498 238.262 101.778C238.262 103.074 238.02 104.216 237.537 105.205C237.054 106.187 236.364 106.957 235.467 107.517C234.57 108.069 233.504 108.345 232.27 108.345ZM232.27 106.401C233.558 106.401 234.516 105.972 235.145 105.113C235.774 104.255 236.088 103.143 236.088 101.778C236.088 100.375 235.77 99.26 235.134 98.432C234.497 97.5963 233.543 97.1785 232.27 97.1785C231.404 97.1785 230.691 97.374 230.131 97.765C229.571 98.156 229.154 98.6965 228.878 99.3865C228.602 100.076 228.464 100.874 228.464 101.778C228.464 103.174 228.786 104.293 229.43 105.136C230.074 105.98 231.02 106.401 232.27 106.401ZM239.874 110.76V106.31C240.571 106.31 241.07 106.083 241.369 105.631C241.668 105.171 241.909 104.416 242.093 103.365C242.216 102.706 242.315 102.001 242.392 101.249C242.469 100.498 242.534 99.6625 242.588 98.7425C242.649 97.8148 242.706 96.7607 242.76 95.58H251.316V106.31H252.524V110.76H250.569V108H241.829V110.76H239.874ZM243.025 106.31H249.269V97.2705H244.612C244.589 97.8148 244.558 98.386 244.52 98.984C244.481 99.5743 244.435 100.165 244.382 100.755C244.336 101.345 244.278 101.905 244.209 102.434C244.148 102.955 244.075 103.423 243.991 103.837C243.891 104.412 243.776 104.899 243.646 105.297C243.515 105.696 243.308 106.033 243.025 106.31ZM254.832 108V95.58H263.457V97.5235H256.879V108H254.832ZM270.701 108.345C269.466 108.345 268.401 108.065 267.504 107.505C266.614 106.946 265.928 106.171 265.445 105.182C264.962 104.193 264.721 103.059 264.721 101.778C264.721 100.475 264.966 99.3328 265.457 98.3515C265.947 97.3702 266.641 96.6073 267.538 96.063C268.435 95.511 269.489 95.235 270.701 95.235C271.943 95.235 273.012 95.5148 273.909 96.0745C274.806 96.6265 275.492 97.397 275.968 98.386C276.451 99.3673 276.692 100.498 276.692 101.778C276.692 103.074 276.451 104.216 275.968 105.205C275.485 106.187 274.795 106.957 273.898 107.517C273.001 108.069 271.935 108.345 270.701 108.345ZM270.701 106.401C271.989 106.401 272.947 105.972 273.576 105.113C274.204 104.255 274.519 103.143 274.519 101.778C274.519 100.375 274.201 99.26 273.564 98.432C272.928 97.5963 271.973 97.1785 270.701 97.1785C269.834 97.1785 269.121 97.374 268.562 97.765C268.002 98.156 267.584 98.6965 267.308 99.3865C267.032 100.076 266.894 100.874 266.894 101.778C266.894 103.174 267.216 104.293 267.86 105.136C268.504 105.98 269.451 106.401 270.701 106.401ZM282.244 108V97.443H277.92V95.58H288.615V97.443H284.291V108H282.244ZM295.857 108.345C294.623 108.345 293.557 108.065 292.66 107.505C291.771 106.946 291.085 106.171 290.602 105.182C290.119 104.193 289.877 103.059 289.877 101.778C289.877 100.475 290.122 99.3328 290.613 98.3515C291.104 97.3702 291.798 96.6073 292.695 96.063C293.592 95.511 294.646 95.235 295.857 95.235C297.099 95.235 298.169 95.5148 299.066 96.0745C299.963 96.6265 300.649 97.397 301.124 98.386C301.607 99.3673 301.849 100.498 301.849 101.778C301.849 103.074 301.607 104.216 301.124 105.205C300.641 106.187 299.951 106.957 299.054 107.517C298.157 108.069 297.091 108.345 295.857 108.345ZM295.857 106.401C297.145 106.401 298.103 105.972 298.732 105.113C299.361 104.255 299.675 103.143 299.675 101.778C299.675 100.375 299.357 99.26 298.721 98.432C298.084 97.5963 297.13 97.1785 295.857 97.1785C294.991 97.1785 294.278 97.374 293.718 97.765C293.158 98.156 292.741 98.6965 292.465 99.3865C292.189 100.076 292.051 100.874 292.051 101.778C292.051 103.174 292.373 104.293 293.017 105.136C293.661 105.98 294.607 106.401 295.857 106.401ZM304.369 108V95.58H309.659C309.973 95.58 310.311 95.5992 310.671 95.6375C311.039 95.6682 311.373 95.7257 311.672 95.81C312.339 95.9863 312.887 96.3505 313.316 96.9025C313.753 97.4468 313.972 98.1368 313.972 98.9725C313.972 99.4402 313.899 99.8465 313.753 100.191C313.615 100.536 313.416 100.835 313.155 101.088C313.04 101.203 312.914 101.307 312.776 101.399C312.638 101.491 312.5 101.564 312.362 101.617C312.63 101.663 312.902 101.767 313.178 101.928C313.615 102.166 313.956 102.499 314.202 102.928C314.455 103.358 314.581 103.906 314.581 104.573C314.581 105.416 314.378 106.114 313.972 106.666C313.565 107.21 313.006 107.586 312.293 107.793C311.994 107.877 311.664 107.935 311.304 107.965C310.943 107.988 310.594 108 310.257 108H304.369ZM306.439 106.332H310.142C310.303 106.332 310.495 106.317 310.717 106.286C310.947 106.256 311.15 106.217 311.327 106.171C311.725 106.056 312.013 105.842 312.189 105.527C312.373 105.213 312.465 104.872 312.465 104.504C312.465 104.013 312.327 103.615 312.051 103.308C311.783 103.001 311.426 102.81 310.982 102.733C310.821 102.687 310.644 102.66 310.453 102.652C310.269 102.645 310.104 102.641 309.958 102.641H306.439V106.332ZM306.439 100.95H309.521C309.736 100.95 309.962 100.939 310.2 100.916C310.437 100.885 310.644 100.835 310.821 100.766C311.173 100.636 311.43 100.421 311.591 100.122C311.76 99.8158 311.844 99.4823 311.844 99.122C311.844 98.7233 311.752 98.3745 311.568 98.0755C311.392 97.7688 311.12 97.558 310.752 97.443C310.506 97.351 310.23 97.3012 309.924 97.2935C309.625 97.2782 309.433 97.2705 309.349 97.2705H306.439V100.95ZM316.88 108L316.891 95.58H318.961V101.56L324.171 95.58H326.827L321.342 101.79L327.471 108H324.608L318.961 102.02V108H316.88ZM332.146 108.345C331.219 108.345 330.441 108.176 329.812 107.839C329.191 107.494 328.719 107.042 328.397 106.482C328.083 105.922 327.926 105.309 327.926 104.642C327.926 103.99 328.049 103.427 328.294 102.951C328.547 102.468 328.9 102.07 329.352 101.755C329.804 101.433 330.345 101.18 330.973 100.996C331.564 100.835 332.223 100.697 332.951 100.582C333.687 100.46 334.431 100.349 335.182 100.249C335.934 100.149 336.635 100.053 337.287 99.9615L336.551 100.387C336.574 99.283 336.352 98.4665 335.884 97.9375C335.424 97.4085 334.627 97.144 333.492 97.144C332.741 97.144 332.081 97.3165 331.514 97.6615C330.954 97.9988 330.559 98.5508 330.329 99.3175L328.386 98.731C328.685 97.6423 329.264 96.7875 330.122 96.1665C330.981 95.5455 332.112 95.235 333.515 95.235C334.642 95.235 335.608 95.4382 336.413 95.8445C337.226 96.2432 337.808 96.8488 338.161 97.6615C338.337 98.0448 338.448 98.4627 338.494 98.915C338.54 99.3597 338.563 99.8273 338.563 100.318V108H336.746V105.021L337.172 105.297C336.704 106.302 336.049 107.061 335.205 107.574C334.37 108.088 333.35 108.345 332.146 108.345ZM332.457 106.631C333.193 106.631 333.829 106.501 334.366 106.24C334.91 105.972 335.347 105.623 335.677 105.194C336.007 104.757 336.221 104.282 336.321 103.768C336.436 103.385 336.497 102.959 336.505 102.491C336.52 102.016 336.528 101.652 336.528 101.399L337.241 101.709C336.574 101.801 335.918 101.89 335.274 101.974C334.63 102.058 334.021 102.15 333.446 102.25C332.871 102.342 332.353 102.453 331.893 102.583C331.556 102.691 331.238 102.829 330.939 102.997C330.648 103.166 330.41 103.385 330.226 103.653C330.05 103.914 329.961 104.239 329.961 104.63C329.961 104.968 330.046 105.29 330.214 105.596C330.391 105.903 330.659 106.152 331.019 106.344C331.387 106.536 331.867 106.631 332.457 106.631ZM40.69 133.76V129.31C41.3877 129.31 41.886 129.083 42.185 128.631C42.484 128.171 42.7255 127.416 42.9095 126.365C43.0322 125.706 43.1318 125.001 43.2085 124.249C43.2852 123.498 43.3503 122.662 43.404 121.742C43.4653 120.815 43.5228 119.761 43.5765 118.58H52.1325V129.31H53.34V133.76H51.385V131H42.645V133.76H40.69ZM43.841 129.31H50.0855V120.27H45.428C45.405 120.815 45.3743 121.386 45.336 121.984C45.2977 122.574 45.2517 123.165 45.198 123.755C45.152 124.345 45.0945 124.905 45.0255 125.434C44.9642 125.955 44.8913 126.423 44.807 126.837C44.7073 127.412 44.5923 127.899 44.462 128.297C44.3317 128.696 44.1247 129.033 43.841 129.31ZM60.9381 131.345C59.7038 131.345 58.6381 131.065 57.7411 130.505C56.8518 129.946 56.1656 129.171 55.6826 128.182C55.1996 127.193 54.9581 126.059 54.9581 124.778C54.9581 123.475 55.2034 122.333 55.6941 121.351C56.1848 120.37 56.8786 119.607 57.7756 119.063C58.6726 118.511 59.7268 118.235 60.9381 118.235C62.1801 118.235 63.2496 118.515 64.1466 119.074C65.0436 119.626 65.7298 120.397 66.2051 121.386C66.6881 122.367 66.9296 123.498 66.9296 124.778C66.9296 126.074 66.6881 127.216 66.2051 128.205C65.7221 129.187 65.0321 129.957 64.1351 130.517C63.2381 131.069 62.1724 131.345 60.9381 131.345ZM60.9381 129.401C62.2261 129.401 63.1844 128.972 63.8131 128.113C64.4418 127.255 64.7561 126.143 64.7561 124.778C64.7561 123.375 64.4379 122.26 63.8016 121.432C63.1653 120.596 62.2108 120.178 60.9381 120.178C60.0718 120.178 59.3588 120.374 58.7991 120.765C58.2394 121.156 57.8216 121.696 57.5456 122.386C57.2696 123.076 57.1316 123.874 57.1316 124.778C57.1316 126.174 57.4536 127.293 58.0976 128.136C58.7416 128.98 59.6884 129.401 60.9381 129.401ZM69.4501 131L69.4616 118.58H71.5316V124.56L76.7411 118.58H79.3976L73.9121 124.79L80.0416 131H77.1781L71.5316 125.02V131H69.4501ZM82.9112 136.52L85.3147 129.988L85.3492 131.92L79.9212 118.58H82.0717L86.3267 129.31H85.5907L89.5812 118.58H91.6627L84.9007 136.52H82.9112ZM93.5506 131V118.58H95.3101L100.025 128.217L104.74 118.58H106.5V131H104.522V122.846L100.566 131H99.4846L95.5286 122.846V131H93.5506ZM115.094 131.345C113.875 131.345 112.809 131.077 111.897 130.54C110.992 129.996 110.287 129.24 109.781 128.274C109.275 127.301 109.022 126.166 109.022 124.87C109.022 123.513 109.271 122.34 109.769 121.351C110.267 120.355 110.961 119.588 111.851 119.051C112.748 118.507 113.798 118.235 115.002 118.235C116.251 118.235 117.313 118.522 118.187 119.097C119.069 119.672 119.728 120.493 120.165 121.558C120.61 122.624 120.801 123.893 120.74 125.365H118.67V124.629C118.647 123.103 118.337 121.965 117.739 121.213C117.141 120.454 116.251 120.075 115.071 120.075C113.806 120.075 112.843 120.481 112.184 121.294C111.525 122.107 111.195 123.272 111.195 124.79C111.195 126.254 111.525 127.389 112.184 128.194C112.843 128.999 113.783 129.401 115.002 129.401C115.822 129.401 116.535 129.214 117.141 128.838C117.746 128.462 118.222 127.922 118.567 127.216L120.533 127.895C120.05 128.991 119.322 129.842 118.348 130.448C117.382 131.046 116.297 131.345 115.094 131.345ZM110.505 125.365V123.72H119.682V125.365H110.505ZM123.289 131V118.58H125.336V123.812H131.868V118.58H133.915V131H131.868V125.756H125.336V131H123.289ZM140.425 131V120.443H136.101V118.58H146.796V120.443H142.472V131H140.425ZM152.099 131.345C151.172 131.345 150.394 131.176 149.765 130.839C149.144 130.494 148.672 130.042 148.35 129.482C148.036 128.922 147.879 128.309 147.879 127.642C147.879 126.99 148.002 126.427 148.247 125.951C148.5 125.468 148.853 125.07 149.305 124.755C149.757 124.433 150.298 124.18 150.926 123.996C151.517 123.835 152.176 123.697 152.904 123.582C153.64 123.46 154.384 123.349 155.135 123.249C155.887 123.149 156.588 123.053 157.24 122.961L156.504 123.387C156.527 122.283 156.305 121.466 155.837 120.937C155.377 120.408 154.58 120.144 153.445 120.144C152.694 120.144 152.034 120.316 151.467 120.661C150.907 120.999 150.512 121.551 150.282 122.317L148.339 121.731C148.638 120.642 149.217 119.787 150.075 119.166C150.934 118.545 152.065 118.235 153.468 118.235C154.595 118.235 155.561 118.438 156.366 118.844C157.179 119.243 157.761 119.849 158.114 120.661C158.29 121.045 158.401 121.463 158.447 121.915C158.493 122.36 158.516 122.827 158.516 123.318V131H156.699V128.021L157.125 128.297C156.657 129.302 156.002 130.061 155.158 130.574C154.323 131.088 153.303 131.345 152.099 131.345ZM152.41 129.631C153.146 129.631 153.782 129.501 154.319 129.24C154.863 128.972 155.3 128.623 155.63 128.194C155.96 127.757 156.174 127.282 156.274 126.768C156.389 126.385 156.45 125.959 156.458 125.491C156.473 125.016 156.481 124.652 156.481 124.399L157.194 124.709C156.527 124.801 155.871 124.89 155.227 124.974C154.583 125.058 153.974 125.15 153.399 125.25C152.824 125.342 152.306 125.453 151.846 125.583C151.509 125.691 151.191 125.829 150.892 125.997C150.601 126.166 150.363 126.385 150.179 126.653C150.003 126.914 149.914 127.239 149.914 127.63C149.914 127.968 149.999 128.29 150.167 128.596C150.344 128.903 150.612 129.152 150.972 129.344C151.34 129.536 151.82 129.631 152.41 129.631ZM172.086 133.3V131H161.495V118.58H163.542V129.056H169.625V118.58H171.672V129.137H174.133V133.3H172.086ZM186.137 118.58V131H184.159V121.846L177.65 131H175.96V118.58H177.938V127.607L184.458 118.58H186.137ZM199.524 118.58V131H197.546V121.846L191.037 131H189.347V118.58H191.325V127.607L197.845 118.58H199.524Z" fill="white"/>
              </svg>