<svg width="100%" height="108" viewBox="0 0 320 108" fill="none" xmlns="http://www.w3.org/2000/svg">
              <path d="M132.86 0.5H287.206C290.62 0.50013 293.752 2.32298 295.394 5.2373L295.548 5.52344L318.483 49.7744C319.838 52.3856 319.839 55.4783 318.483 58.0947V58.0957L295.543 102.472C293.949 105.552 290.725 107.5 287.196 107.5H132.86C127.68 107.5 123.5 103.38 123.5 98.3135V9.68652L123.512 9.21387C123.762 4.36571 127.842 0.500191 132.86 0.5Z" fill="white" stroke="#254E6C"/>
              <path d="M132.186 108H9.86355C4.41394 108 0 103.665 0 98.3139V9.6861C0 4.33453 4.41394 0 9.86355 0H132.196C135.905 0 139.303 2.04377 140.985 5.29345L163.927 49.5444C165.358 52.3001 165.358 55.5643 163.927 58.3248L140.98 102.702C139.298 105.951 135.9 108 132.186 108Z" fill="#254E6C"/>
              <path d="M191.23 59V48.92H195.213C195.311 48.92 195.428 48.9247 195.563 48.934C195.698 48.9387 195.829 48.9527 195.955 48.976C196.501 49.06 196.958 49.2467 197.327 49.536C197.7 49.8253 197.98 50.1917 198.167 50.635C198.354 51.0737 198.447 51.5613 198.447 52.098C198.447 52.63 198.351 53.1177 198.16 53.561C197.973 53.9997 197.693 54.366 197.32 54.66C196.951 54.9493 196.496 55.136 195.955 55.22C195.829 55.2387 195.698 55.2527 195.563 55.262C195.428 55.2713 195.311 55.276 195.213 55.276H192.476V59H191.23ZM192.476 54.093H195.171C195.26 54.093 195.36 54.0883 195.472 54.079C195.589 54.0697 195.698 54.0533 195.801 54.03C196.123 53.9553 196.384 53.82 196.585 53.624C196.79 53.4233 196.94 53.19 197.033 52.924C197.126 52.6533 197.173 52.378 197.173 52.098C197.173 51.818 197.126 51.545 197.033 51.279C196.94 51.0083 196.79 50.7727 196.585 50.572C196.384 50.3713 196.123 50.236 195.801 50.166C195.698 50.138 195.589 50.1217 195.472 50.117C195.36 50.1077 195.26 50.103 195.171 50.103H192.476V54.093ZM201.992 59.21C201.428 59.21 200.954 59.1073 200.571 58.902C200.193 58.692 199.906 58.4167 199.71 58.076C199.519 57.7353 199.423 57.362 199.423 56.956C199.423 56.5593 199.498 56.2163 199.647 55.927C199.801 55.633 200.016 55.3903 200.291 55.199C200.567 55.003 200.896 54.849 201.278 54.737C201.638 54.639 202.039 54.555 202.482 54.485C202.93 54.4103 203.383 54.3427 203.84 54.282C204.298 54.2213 204.725 54.163 205.121 54.107L204.673 54.366C204.687 53.694 204.552 53.197 204.267 52.875C203.987 52.553 203.502 52.392 202.811 52.392C202.354 52.392 201.953 52.497 201.607 52.707C201.267 52.9123 201.026 53.2483 200.886 53.715L199.703 53.358C199.885 52.6953 200.238 52.175 200.76 51.797C201.283 51.419 201.971 51.23 202.825 51.23C203.511 51.23 204.099 51.3537 204.589 51.601C205.084 51.8437 205.439 52.2123 205.653 52.707C205.761 52.9403 205.828 53.1947 205.856 53.47C205.884 53.7407 205.898 54.0253 205.898 54.324V59H204.792V57.187L205.051 57.355C204.767 57.9663 204.368 58.4283 203.854 58.741C203.346 59.0537 202.725 59.21 201.992 59.21ZM202.181 58.167C202.629 58.167 203.017 58.0877 203.343 57.929C203.675 57.7657 203.941 57.5533 204.141 57.292C204.342 57.026 204.473 56.7367 204.533 56.424C204.603 56.1907 204.641 55.9317 204.645 55.647C204.655 55.3577 204.659 55.136 204.659 54.982L205.093 55.171C204.687 55.227 204.288 55.2807 203.896 55.332C203.504 55.3833 203.133 55.4393 202.783 55.5C202.433 55.556 202.118 55.6237 201.838 55.703C201.633 55.7683 201.439 55.8523 201.257 55.955C201.08 56.0577 200.935 56.1907 200.823 56.354C200.716 56.5127 200.662 56.711 200.662 56.949C200.662 57.1543 200.714 57.3503 200.816 57.537C200.924 57.7237 201.087 57.8753 201.306 57.992C201.53 58.1087 201.822 58.167 202.181 58.167ZM210.427 59.21C209.681 59.21 209.02 59.049 208.446 58.727C207.872 58.4003 207.42 57.9523 207.088 57.383L208.082 56.739C208.358 57.1543 208.687 57.474 209.069 57.698C209.452 57.9173 209.888 58.027 210.378 58.027C210.892 58.027 211.3 57.9103 211.603 57.677C211.907 57.439 212.058 57.1193 212.058 56.718C212.058 56.4193 211.984 56.1907 211.834 56.032C211.685 55.8733 211.47 55.7637 211.19 55.703C210.91 55.6423 210.577 55.612 210.189 55.612H209.405V54.583H210.182C210.672 54.583 211.071 54.5037 211.379 54.345C211.687 54.1863 211.841 53.9157 211.841 53.533C211.841 53.141 211.697 52.8563 211.407 52.679C211.123 52.497 210.782 52.406 210.385 52.406C209.965 52.406 209.564 52.4947 209.181 52.672C208.799 52.8447 208.47 53.064 208.194 53.33L207.438 52.483C207.83 52.0817 208.281 51.7737 208.789 51.559C209.303 51.3397 209.86 51.23 210.462 51.23C210.948 51.23 211.391 51.3163 211.792 51.489C212.198 51.657 212.52 51.9067 212.758 52.238C213.001 52.5647 213.122 52.9637 213.122 53.435C213.122 53.8363 213.029 54.1933 212.842 54.506C212.656 54.8187 212.38 55.0917 212.016 55.325L211.967 54.884C212.275 54.9587 212.53 55.0963 212.73 55.297C212.936 55.493 213.087 55.7263 213.185 55.997C213.283 56.2677 213.332 56.55 213.332 56.844C213.332 57.3387 213.202 57.7633 212.94 58.118C212.684 58.468 212.336 58.7387 211.897 58.93C211.459 59.1167 210.969 59.21 210.427 59.21ZM218.341 59.21C217.631 59.21 217.034 59.035 216.549 58.685C216.063 58.3303 215.695 57.852 215.443 57.25C215.195 56.6433 215.072 55.9643 215.072 55.213C215.072 54.4523 215.195 53.771 215.443 53.169C215.695 52.567 216.063 52.0933 216.549 51.748C217.039 51.4027 217.638 51.23 218.348 51.23C219.048 51.23 219.65 51.405 220.154 51.755C220.662 52.1003 221.052 52.574 221.323 53.176C221.593 53.778 221.729 54.457 221.729 55.213C221.729 55.969 221.593 56.648 221.323 57.25C221.052 57.852 220.662 58.3303 220.154 58.685C219.65 59.035 219.045 59.21 218.341 59.21ZM214.862 62.36V51.44H215.975V57.005H216.115V62.36H214.862ZM218.187 58.069C218.686 58.069 219.099 57.943 219.426 57.691C219.752 57.439 219.997 57.0983 220.161 56.669C220.324 56.235 220.406 55.7497 220.406 55.213C220.406 54.681 220.324 54.2003 220.161 53.771C220.002 53.3417 219.755 53.001 219.419 52.749C219.087 52.497 218.665 52.371 218.152 52.371C217.662 52.371 217.256 52.4923 216.934 52.735C216.612 52.973 216.371 53.3067 216.213 53.736C216.054 54.1607 215.975 54.653 215.975 55.213C215.975 55.7637 216.052 56.256 216.206 56.69C216.364 57.1193 216.607 57.4577 216.934 57.705C217.26 57.9477 217.678 58.069 218.187 58.069ZM225.412 59.21C224.848 59.21 224.374 59.1073 223.991 58.902C223.613 58.692 223.326 58.4167 223.13 58.076C222.939 57.7353 222.843 57.362 222.843 56.956C222.843 56.5593 222.918 56.2163 223.067 55.927C223.221 55.633 223.436 55.3903 223.711 55.199C223.987 55.003 224.316 54.849 224.698 54.737C225.058 54.639 225.459 54.555 225.902 54.485C226.35 54.4103 226.803 54.3427 227.26 54.282C227.718 54.2213 228.145 54.163 228.541 54.107L228.093 54.366C228.107 53.694 227.972 53.197 227.687 52.875C227.407 52.553 226.922 52.392 226.231 52.392C225.774 52.392 225.373 52.497 225.027 52.707C224.687 52.9123 224.446 53.2483 224.306 53.715L223.123 53.358C223.305 52.6953 223.658 52.175 224.18 51.797C224.703 51.419 225.391 51.23 226.245 51.23C226.931 51.23 227.519 51.3537 228.009 51.601C228.504 51.8437 228.859 52.2123 229.073 52.707C229.181 52.9403 229.248 53.1947 229.276 53.47C229.304 53.7407 229.318 54.0253 229.318 54.324V59H228.212V57.187L228.471 57.355C228.187 57.9663 227.788 58.4283 227.274 58.741C226.766 59.0537 226.145 59.21 225.412 59.21ZM225.601 58.167C226.049 58.167 226.437 58.0877 226.763 57.929C227.095 57.7657 227.361 57.5533 227.561 57.292C227.762 57.026 227.893 56.7367 227.953 56.424C228.023 56.1907 228.061 55.9317 228.065 55.647C228.075 55.3577 228.079 55.136 228.079 54.982L228.513 55.171C228.107 55.227 227.708 55.2807 227.316 55.332C226.924 55.3833 226.553 55.4393 226.203 55.5C225.853 55.556 225.538 55.6237 225.258 55.703C225.053 55.7683 224.859 55.8523 224.677 55.955C224.5 56.0577 224.355 56.1907 224.243 56.354C224.136 56.5127 224.082 56.711 224.082 56.949C224.082 57.1543 224.134 57.3503 224.236 57.537C224.344 57.7237 224.507 57.8753 224.726 57.992C224.95 58.1087 225.242 58.167 225.601 58.167ZM234.211 59.217C233.497 59.2123 232.888 59.0583 232.384 58.755C231.88 58.447 231.488 57.9967 231.208 57.404C230.928 56.8113 230.772 56.0857 230.739 55.227C230.721 54.8303 230.725 54.394 230.753 53.918C230.786 53.442 230.837 52.9847 230.907 52.546C230.982 52.1073 231.075 51.7457 231.187 51.461C231.313 51.1203 231.491 50.8053 231.719 50.516C231.953 50.222 232.214 49.9793 232.503 49.788C232.797 49.5873 233.126 49.431 233.49 49.319C233.854 49.207 234.235 49.1207 234.631 49.06C235.033 48.9947 235.434 48.9387 235.835 48.892C236.237 48.8407 236.619 48.78 236.983 48.71L237.109 49.83C236.853 49.886 236.549 49.935 236.199 49.977C235.849 50.0143 235.485 50.0587 235.107 50.11C234.734 50.1613 234.375 50.2337 234.029 50.327C233.689 50.4157 233.395 50.5393 233.147 50.698C232.783 50.9173 232.503 51.2463 232.307 51.685C232.116 52.119 231.999 52.6067 231.957 53.148C232.247 52.7 232.622 52.371 233.084 52.161C233.546 51.951 234.039 51.846 234.561 51.846C235.238 51.846 235.821 52.0047 236.311 52.322C236.801 52.6347 237.177 53.0663 237.438 53.617C237.704 54.1677 237.837 54.7953 237.837 55.5C237.837 56.2467 237.688 56.9 237.389 57.46C237.091 58.02 236.668 58.454 236.122 58.762C235.581 59.07 234.944 59.2217 234.211 59.217ZM234.288 58.034C235.021 58.034 235.576 57.8077 235.954 57.355C236.332 56.8977 236.521 56.291 236.521 55.535C236.521 54.7603 236.325 54.1513 235.933 53.708C235.541 53.26 234.991 53.036 234.281 53.036C233.563 53.036 233.012 53.26 232.629 53.708C232.251 54.1513 232.062 54.7603 232.062 55.535C232.062 56.3143 232.254 56.9257 232.636 57.369C233.019 57.8123 233.57 58.034 234.288 58.034ZM242.602 59.21C241.851 59.21 241.202 59.0397 240.656 58.699C240.115 58.3583 239.697 57.887 239.403 57.285C239.109 56.683 238.962 55.9923 238.962 55.213C238.962 54.4197 239.112 53.7243 239.41 53.127C239.709 52.5297 240.131 52.0653 240.677 51.734C241.223 51.398 241.865 51.23 242.602 51.23C243.358 51.23 244.009 51.4003 244.555 51.741C245.101 52.077 245.519 52.546 245.808 53.148C246.102 53.7453 246.249 54.4337 246.249 55.213C246.249 56.0017 246.102 56.697 245.808 57.299C245.514 57.8963 245.094 58.3653 244.548 58.706C244.002 59.042 243.354 59.21 242.602 59.21ZM242.602 58.027C243.386 58.027 243.97 57.7657 244.352 57.243C244.735 56.7203 244.926 56.0437 244.926 55.213C244.926 54.359 244.733 53.68 244.345 53.176C243.958 52.6673 243.377 52.413 242.602 52.413C242.075 52.413 241.641 52.532 241.3 52.77C240.96 53.008 240.705 53.337 240.537 53.757C240.369 54.177 240.285 54.6623 240.285 55.213C240.285 56.0623 240.481 56.7437 240.873 57.257C241.265 57.7703 241.842 58.027 242.602 58.027ZM249.628 59V52.574H246.996V51.44H253.506V52.574H250.874V59H249.628ZM254.825 59L254.832 51.44H256.092V55.08L259.263 51.44H260.88L257.541 55.22L261.272 59H259.529L256.092 55.36V59H254.825ZM264.117 59.21C263.553 59.21 263.079 59.1073 262.696 58.902C262.318 58.692 262.031 58.4167 261.835 58.076C261.644 57.7353 261.548 57.362 261.548 56.956C261.548 56.5593 261.623 56.2163 261.772 55.927C261.926 55.633 262.141 55.3903 262.416 55.199C262.692 55.003 263.021 54.849 263.403 54.737C263.763 54.639 264.164 54.555 264.607 54.485C265.055 54.4103 265.508 54.3427 265.965 54.282C266.423 54.2213 266.85 54.163 267.246 54.107L266.798 54.366C266.812 53.694 266.677 53.197 266.392 52.875C266.112 52.553 265.627 52.392 264.936 52.392C264.479 52.392 264.078 52.497 263.732 52.707C263.392 52.9123 263.151 53.2483 263.011 53.715L261.828 53.358C262.01 52.6953 262.363 52.175 262.885 51.797C263.408 51.419 264.096 51.23 264.95 51.23C265.636 51.23 266.224 51.3537 266.714 51.601C267.209 51.8437 267.564 52.2123 267.778 52.707C267.886 52.9403 267.953 53.1947 267.981 53.47C268.009 53.7407 268.023 54.0253 268.023 54.324V59H266.917V57.187L267.176 57.355C266.892 57.9663 266.493 58.4283 265.979 58.741C265.471 59.0537 264.85 59.21 264.117 59.21ZM264.306 58.167C264.754 58.167 265.142 58.0877 265.468 57.929C265.8 57.7657 266.066 57.5533 266.266 57.292C266.467 57.026 266.598 56.7367 266.658 56.424C266.728 56.1907 266.766 55.9317 266.77 55.647C266.78 55.3577 266.784 55.136 266.784 54.982L267.218 55.171C266.812 55.227 266.413 55.2807 266.021 55.332C265.629 55.3833 265.258 55.4393 264.908 55.5C264.558 55.556 264.243 55.6237 263.963 55.703C263.758 55.7683 263.564 55.8523 263.382 55.955C263.205 56.0577 263.06 56.1907 262.948 56.354C262.841 56.5127 262.787 56.711 262.787 56.949C262.787 57.1543 262.839 57.3503 262.941 57.537C263.049 57.7237 263.212 57.8753 263.431 57.992C263.655 58.1087 263.947 58.167 264.306 58.167ZM272.646 59V48.92H280.514V59H279.268V50.103H273.892V59H272.646ZM286.62 59.21C285.617 59.21 284.765 58.9883 284.065 58.545C283.365 58.1017 282.831 57.4857 282.462 56.697C282.098 55.9083 281.916 54.996 281.916 53.96C281.916 52.924 282.098 52.0117 282.462 51.223C282.831 50.4343 283.365 49.8183 284.065 49.375C284.765 48.9317 285.617 48.71 286.62 48.71C287.628 48.71 288.482 48.9317 289.182 49.375C289.882 49.8183 290.414 50.4343 290.778 51.223C291.142 52.0117 291.324 52.924 291.324 53.96C291.324 54.996 291.142 55.9083 290.778 56.697C290.414 57.4857 289.882 58.1017 289.182 58.545C288.482 58.9883 287.628 59.21 286.62 59.21ZM286.62 58.02C287.371 58.0247 287.997 57.8567 288.496 57.516C289 57.1707 289.376 56.6923 289.623 56.081C289.875 55.4697 290.001 54.7627 290.001 53.96C290.001 53.1527 289.875 52.4457 289.623 51.839C289.376 51.2323 289 50.7587 288.496 50.418C287.997 50.0773 287.371 49.9047 286.62 49.9C285.869 49.8953 285.243 50.0633 284.744 50.404C284.249 50.7447 283.876 51.2207 283.624 51.832C283.372 52.4433 283.244 53.1527 283.239 53.96C283.234 54.7627 283.358 55.4673 283.61 56.074C283.862 56.6807 284.238 57.1567 284.737 57.502C285.241 57.8427 285.869 58.0153 286.62 58.02Z" fill="#000206"/>
              <path d="M20.98 45V34.92H24.963C25.061 34.92 25.1777 34.9247 25.313 34.934C25.4483 34.9387 25.579 34.9527 25.705 34.976C26.251 35.06 26.7083 35.2467 27.077 35.536C27.4503 35.8253 27.7303 36.1917 27.917 36.635C28.1037 37.0737 28.197 37.5613 28.197 38.098C28.197 38.63 28.1013 39.1177 27.91 39.561C27.7233 39.9997 27.4433 40.366 27.07 40.66C26.7013 40.9493 26.2463 41.136 25.705 41.22C25.579 41.2387 25.4483 41.2527 25.313 41.262C25.1777 41.2713 25.061 41.276 24.963 41.276H22.226V45H20.98ZM22.226 40.093H24.921C25.0097 40.093 25.11 40.0883 25.222 40.079C25.3387 40.0697 25.4483 40.0533 25.551 40.03C25.873 39.9553 26.1343 39.82 26.335 39.624C26.5403 39.4233 26.6897 39.19 26.783 38.924C26.8763 38.6533 26.923 38.378 26.923 38.098C26.923 37.818 26.8763 37.545 26.783 37.279C26.6897 37.0083 26.5403 36.7727 26.335 36.572C26.1343 36.3713 25.873 36.236 25.551 36.166C25.4483 36.138 25.3387 36.1217 25.222 36.117C25.11 36.1077 25.0097 36.103 24.921 36.103H22.226V40.093ZM31.7423 45.21C31.1776 45.21 30.7039 45.1073 30.3213 44.902C29.9433 44.692 29.6563 44.4167 29.4603 44.076C29.2689 43.7353 29.1733 43.362 29.1733 42.956C29.1733 42.5593 29.2479 42.2163 29.3973 41.927C29.5513 41.633 29.7659 41.3903 30.0413 41.199C30.3166 41.003 30.6456 40.849 31.0283 40.737C31.3876 40.639 31.7889 40.555 32.2323 40.485C32.6803 40.4103 33.1329 40.3427 33.5903 40.282C34.0476 40.2213 34.4746 40.163 34.8713 40.107L34.4233 40.366C34.4373 39.694 34.3019 39.197 34.0173 38.875C33.7373 38.553 33.2519 38.392 32.5613 38.392C32.1039 38.392 31.7026 38.497 31.3573 38.707C31.0166 38.9123 30.7763 39.2483 30.6363 39.715L29.4533 39.358C29.6353 38.6953 29.9876 38.175 30.5103 37.797C31.0329 37.419 31.7213 37.23 32.5753 37.23C33.2613 37.23 33.8493 37.3537 34.3393 37.601C34.8339 37.8437 35.1886 38.2123 35.4033 38.707C35.5106 38.9403 35.5783 39.1947 35.6063 39.47C35.6343 39.7407 35.6483 40.0253 35.6483 40.324V45H34.5423V43.187L34.8013 43.355C34.5166 43.9663 34.1176 44.4283 33.6043 44.741C33.0956 45.0537 32.4749 45.21 31.7423 45.21ZM31.9313 44.167C32.3793 44.167 32.7666 44.0877 33.0933 43.929C33.4246 43.7657 33.6906 43.5533 33.8913 43.292C34.0919 43.026 34.2226 42.7367 34.2833 42.424C34.3533 42.1907 34.3906 41.9317 34.3953 41.647C34.4046 41.3577 34.4093 41.136 34.4093 40.982L34.8433 41.171C34.4373 41.227 34.0383 41.2807 33.6463 41.332C33.2543 41.3833 32.8833 41.4393 32.5333 41.5C32.1833 41.556 31.8683 41.6237 31.5883 41.703C31.3829 41.7683 31.1893 41.8523 31.0073 41.955C30.8299 42.0577 30.6853 42.1907 30.5733 42.354C30.4659 42.5127 30.4123 42.711 30.4123 42.949C30.4123 43.1543 30.4636 43.3503 30.5663 43.537C30.6736 43.7237 30.8369 43.8753 31.0563 43.992C31.2803 44.1087 31.5719 44.167 31.9313 44.167ZM40.1773 45.21C39.4306 45.21 38.7703 45.049 38.1963 44.727C37.6223 44.4003 37.1696 43.9523 36.8383 43.383L37.8323 42.739C38.1076 43.1543 38.4366 43.474 38.8193 43.698C39.2019 43.9173 39.6383 44.027 40.1283 44.027C40.6416 44.027 41.0499 43.9103 41.3533 43.677C41.6566 43.439 41.8083 43.1193 41.8083 42.718C41.8083 42.4193 41.7336 42.1907 41.5843 42.032C41.4349 41.8733 41.2203 41.7637 40.9403 41.703C40.6603 41.6423 40.3266 41.612 39.9393 41.612H39.1553V40.583H39.9323C40.4223 40.583 40.8213 40.5037 41.1293 40.345C41.4373 40.1863 41.5913 39.9157 41.5913 39.533C41.5913 39.141 41.4466 38.8563 41.1573 38.679C40.8726 38.497 40.5319 38.406 40.1353 38.406C39.7153 38.406 39.3139 38.4947 38.9313 38.672C38.5486 38.8447 38.2196 39.064 37.9443 39.33L37.1883 38.483C37.5803 38.0817 38.0306 37.7737 38.5393 37.559C39.0526 37.3397 39.6103 37.23 40.2123 37.23C40.6976 37.23 41.1409 37.3163 41.5423 37.489C41.9483 37.657 42.2703 37.9067 42.5083 38.238C42.7509 38.5647 42.8723 38.9637 42.8723 39.435C42.8723 39.8363 42.7789 40.1933 42.5923 40.506C42.4056 40.8187 42.1303 41.0917 41.7663 41.325L41.7173 40.884C42.0253 40.9587 42.2796 41.0963 42.4803 41.297C42.6856 41.493 42.8373 41.7263 42.9353 41.997C43.0333 42.2677 43.0823 42.55 43.0823 42.844C43.0823 43.3387 42.9516 43.7633 42.6903 44.118C42.4336 44.468 42.0859 44.7387 41.6473 44.93C41.2086 45.1167 40.7186 45.21 40.1773 45.21ZM48.0907 45.21C47.3813 45.21 46.784 45.035 46.2987 44.685C45.8133 44.3303 45.4447 43.852 45.1927 43.25C44.9453 42.6433 44.8217 41.9643 44.8217 41.213C44.8217 40.4523 44.9453 39.771 45.1927 39.169C45.4447 38.567 45.8133 38.0933 46.2987 37.748C46.7887 37.4027 47.3883 37.23 48.0977 37.23C48.7977 37.23 49.3997 37.405 49.9037 37.755C50.4123 38.1003 50.802 38.574 51.0727 39.176C51.3433 39.778 51.4787 40.457 51.4787 41.213C51.4787 41.969 51.3433 42.648 51.0727 43.25C50.802 43.852 50.4123 44.3303 49.9037 44.685C49.3997 45.035 48.7953 45.21 48.0907 45.21ZM44.6117 48.36V37.44H45.7247V43.005H45.8647V48.36H44.6117ZM47.9367 44.069C48.436 44.069 48.849 43.943 49.1757 43.691C49.5023 43.439 49.7473 43.0983 49.9107 42.669C50.074 42.235 50.1557 41.7497 50.1557 41.213C50.1557 40.681 50.074 40.2003 49.9107 39.771C49.752 39.3417 49.5047 39.001 49.1687 38.749C48.8373 38.497 48.415 38.371 47.9017 38.371C47.4117 38.371 47.0057 38.4923 46.6837 38.735C46.3617 38.973 46.1213 39.3067 45.9627 39.736C45.804 40.1607 45.7247 40.653 45.7247 41.213C45.7247 41.7637 45.8017 42.256 45.9557 42.69C46.1143 43.1193 46.357 43.4577 46.6837 43.705C47.0103 43.9477 47.428 44.069 47.9367 44.069ZM55.1622 45.21C54.5975 45.21 54.1239 45.1073 53.7412 44.902C53.3632 44.692 53.0762 44.4167 52.8802 44.076C52.6889 43.7353 52.5932 43.362 52.5932 42.956C52.5932 42.5593 52.6679 42.2163 52.8172 41.927C52.9712 41.633 53.1859 41.3903 53.4612 41.199C53.7365 41.003 54.0655 40.849 54.4482 40.737C54.8075 40.639 55.2089 40.555 55.6522 40.485C56.1002 40.4103 56.5529 40.3427 57.0102 40.282C57.4675 40.2213 57.8945 40.163 58.2912 40.107L57.8432 40.366C57.8572 39.694 57.7219 39.197 57.4372 38.875C57.1572 38.553 56.6719 38.392 55.9812 38.392C55.5239 38.392 55.1225 38.497 54.7772 38.707C54.4365 38.9123 54.1962 39.2483 54.0562 39.715L52.8732 39.358C53.0552 38.6953 53.4075 38.175 53.9302 37.797C54.4529 37.419 55.1412 37.23 55.9952 37.23C56.6812 37.23 57.2692 37.3537 57.7592 37.601C58.2539 37.8437 58.6085 38.2123 58.8232 38.707C58.9305 38.9403 58.9982 39.1947 59.0262 39.47C59.0542 39.7407 59.0682 40.0253 59.0682 40.324V45H57.9622V43.187L58.2212 43.355C57.9365 43.9663 57.5375 44.4283 57.0242 44.741C56.5155 45.0537 55.8949 45.21 55.1622 45.21ZM55.3512 44.167C55.7992 44.167 56.1865 44.0877 56.5132 43.929C56.8445 43.7657 57.1105 43.5533 57.3112 43.292C57.5119 43.026 57.6425 42.7367 57.7032 42.424C57.7732 42.1907 57.8105 41.9317 57.8152 41.647C57.8245 41.3577 57.8292 41.136 57.8292 40.982L58.2632 41.171C57.8572 41.227 57.4582 41.2807 57.0662 41.332C56.6742 41.3833 56.3032 41.4393 55.9532 41.5C55.6032 41.556 55.2882 41.6237 55.0082 41.703C54.8029 41.7683 54.6092 41.8523 54.4272 41.955C54.2499 42.0577 54.1052 42.1907 53.9932 42.354C53.8859 42.5127 53.8322 42.711 53.8322 42.949C53.8322 43.1543 53.8835 43.3503 53.9862 43.537C54.0935 43.7237 54.2569 43.8753 54.4762 43.992C54.7002 44.1087 54.9919 44.167 55.3512 44.167ZM63.9612 45.217C63.2472 45.2123 62.6382 45.0583 62.1342 44.755C61.6302 44.447 61.2382 43.9967 60.9582 43.404C60.6782 42.8113 60.5219 42.0857 60.4892 41.227C60.4705 40.8303 60.4752 40.394 60.5032 39.918C60.5359 39.442 60.5872 38.9847 60.6572 38.546C60.7319 38.1073 60.8252 37.7457 60.9372 37.461C61.0632 37.1203 61.2405 36.8053 61.4692 36.516C61.7025 36.222 61.9639 35.9793 62.2532 35.788C62.5472 35.5873 62.8762 35.431 63.2402 35.319C63.6042 35.207 63.9845 35.1207 64.3812 35.06C64.7825 34.9947 65.1839 34.9387 65.5852 34.892C65.9865 34.8407 66.3692 34.78 66.7332 34.71L66.8592 35.83C66.6025 35.886 66.2992 35.935 65.9492 35.977C65.5992 36.0143 65.2352 36.0587 64.8572 36.11C64.4839 36.1613 64.1245 36.2337 63.7792 36.327C63.4385 36.4157 63.1445 36.5393 62.8972 36.698C62.5332 36.9173 62.2532 37.2463 62.0572 37.685C61.8659 38.119 61.7492 38.6067 61.7072 39.148C61.9965 38.7 62.3722 38.371 62.8342 38.161C63.2962 37.951 63.7885 37.846 64.3112 37.846C64.9879 37.846 65.5712 38.0047 66.0612 38.322C66.5512 38.6347 66.9269 39.0663 67.1882 39.617C67.4542 40.1677 67.5872 40.7953 67.5872 41.5C67.5872 42.2467 67.4379 42.9 67.1392 43.46C66.8405 44.02 66.4182 44.454 65.8722 44.762C65.3309 45.07 64.6939 45.2217 63.9612 45.217ZM64.0382 44.034C64.7709 44.034 65.3262 43.8077 65.7042 43.355C66.0822 42.8977 66.2712 42.291 66.2712 41.535C66.2712 40.7603 66.0752 40.1513 65.6832 39.708C65.2912 39.26 64.7405 39.036 64.0312 39.036C63.3125 39.036 62.7619 39.26 62.3792 39.708C62.0012 40.1513 61.8122 40.7603 61.8122 41.535C61.8122 42.3143 62.0035 42.9257 62.3862 43.369C62.7689 43.8123 63.3195 44.034 64.0382 44.034ZM72.3523 45.21C71.601 45.21 70.9523 45.0397 70.4063 44.699C69.865 44.3583 69.4473 43.887 69.1533 43.285C68.8593 42.683 68.7123 41.9923 68.7123 41.213C68.7123 40.4197 68.8617 39.7243 69.1603 39.127C69.459 38.5297 69.8813 38.0653 70.4273 37.734C70.9733 37.398 71.615 37.23 72.3523 37.23C73.1083 37.23 73.7593 37.4003 74.3053 37.741C74.8513 38.077 75.269 38.546 75.5583 39.148C75.8523 39.7453 75.9993 40.4337 75.9993 41.213C75.9993 42.0017 75.8523 42.697 75.5583 43.299C75.2643 43.8963 74.8443 44.3653 74.2983 44.706C73.7523 45.042 73.1037 45.21 72.3523 45.21ZM72.3523 44.027C73.1363 44.027 73.7197 43.7657 74.1023 43.243C74.485 42.7203 74.6763 42.0437 74.6763 41.213C74.6763 40.359 74.4827 39.68 74.0953 39.176C73.708 38.6673 73.127 38.413 72.3523 38.413C71.825 38.413 71.391 38.532 71.0503 38.77C70.7097 39.008 70.4553 39.337 70.2873 39.757C70.1193 40.177 70.0353 40.6623 70.0353 41.213C70.0353 42.0623 70.2313 42.7437 70.6233 43.257C71.0153 43.7703 71.5917 44.027 72.3523 44.027ZM79.3785 45V38.574H76.7465V37.44H83.2565V38.574H80.6245V45H79.3785ZM84.5746 45L84.5816 37.44H85.8416V41.08L89.0126 37.44H90.6296L87.2906 41.22L91.0216 45H89.2786L85.8416 41.36V45H84.5746ZM93.8673 45.21C93.3026 45.21 92.8289 45.1073 92.4463 44.902C92.0683 44.692 91.7813 44.4167 91.5853 44.076C91.3939 43.7353 91.2983 43.362 91.2983 42.956C91.2983 42.5593 91.3729 42.2163 91.5223 41.927C91.6763 41.633 91.8909 41.3903 92.1663 41.199C92.4416 41.003 92.7706 40.849 93.1533 40.737C93.5126 40.639 93.9139 40.555 94.3573 40.485C94.8053 40.4103 95.2579 40.3427 95.7153 40.282C96.1726 40.2213 96.5996 40.163 96.9963 40.107L96.5483 40.366C96.5623 39.694 96.4269 39.197 96.1423 38.875C95.8623 38.553 95.3769 38.392 94.6863 38.392C94.2289 38.392 93.8276 38.497 93.4823 38.707C93.1416 38.9123 92.9013 39.2483 92.7613 39.715L91.5783 39.358C91.7603 38.6953 92.1126 38.175 92.6353 37.797C93.1579 37.419 93.8463 37.23 94.7003 37.23C95.3863 37.23 95.9743 37.3537 96.4643 37.601C96.9589 37.8437 97.3136 38.2123 97.5283 38.707C97.6356 38.9403 97.7033 39.1947 97.7313 39.47C97.7593 39.7407 97.7733 40.0253 97.7733 40.324V45H96.6673V43.187L96.9263 43.355C96.6416 43.9663 96.2426 44.4283 95.7293 44.741C95.2206 45.0537 94.5999 45.21 93.8673 45.21ZM94.0563 44.167C94.5043 44.167 94.8916 44.0877 95.2183 43.929C95.5496 43.7657 95.8156 43.5533 96.0163 43.292C96.2169 43.026 96.3476 42.7367 96.4083 42.424C96.4783 42.1907 96.5156 41.9317 96.5203 41.647C96.5296 41.3577 96.5343 41.136 96.5343 40.982L96.9683 41.171C96.5623 41.227 96.1633 41.2807 95.7713 41.332C95.3793 41.3833 95.0083 41.4393 94.6583 41.5C94.3083 41.556 93.9933 41.6237 93.7133 41.703C93.5079 41.7683 93.3143 41.8523 93.1323 41.955C92.9549 42.0577 92.8103 42.1907 92.6983 42.354C92.5909 42.5127 92.5373 42.711 92.5373 42.949C92.5373 43.1543 92.5886 43.3503 92.6913 43.537C92.7986 43.7237 92.9619 43.8753 93.1813 43.992C93.4053 44.1087 93.6969 44.167 94.0563 44.167ZM104.993 45V36.103H101.556V34.92H109.676V36.103H106.239V45H104.993ZM114.13 45.21C113.439 45.21 112.837 45.1097 112.324 44.909C111.815 44.7037 111.393 44.4377 111.057 44.111C110.725 43.7797 110.473 43.425 110.301 43.047L111.407 42.361C111.519 42.655 111.691 42.928 111.925 43.18C112.163 43.432 112.466 43.635 112.835 43.789C113.208 43.943 113.656 44.02 114.179 44.02C114.711 44.02 115.156 43.9383 115.516 43.775C115.875 43.607 116.143 43.3807 116.321 43.096C116.503 42.8067 116.594 42.4753 116.594 42.102C116.594 41.6773 116.489 41.3507 116.279 41.122C116.069 40.8887 115.786 40.7253 115.432 40.632C115.082 40.534 114.694 40.478 114.27 40.464C113.938 40.45 113.7 40.4407 113.556 40.436C113.411 40.4313 113.313 40.429 113.262 40.429C113.215 40.429 113.171 40.429 113.129 40.429V39.239C113.171 39.239 113.259 39.239 113.395 39.239C113.53 39.239 113.672 39.239 113.822 39.239C113.971 39.2343 114.09 39.2297 114.179 39.225C114.804 39.1923 115.301 39.0337 115.67 38.749C116.038 38.4597 116.223 38.063 116.223 37.559C116.223 37.0363 116.034 36.628 115.656 36.334C115.282 36.04 114.795 35.893 114.193 35.893C113.623 35.893 113.138 36.026 112.737 36.292C112.34 36.558 112.023 36.901 111.785 37.321L110.826 36.502C111.152 35.984 111.605 35.557 112.184 35.221C112.767 34.8803 113.448 34.71 114.228 34.71C114.657 34.71 115.07 34.7683 115.467 34.885C115.868 34.997 116.223 35.1697 116.531 35.403C116.843 35.6317 117.091 35.9233 117.273 36.278C117.455 36.628 117.546 37.0433 117.546 37.524C117.546 38.042 117.436 38.5017 117.217 38.903C116.997 39.3043 116.71 39.6147 116.356 39.834C116.846 39.9973 117.228 40.268 117.504 40.646C117.779 41.024 117.917 41.514 117.917 42.116C117.917 42.746 117.756 43.292 117.434 43.754C117.116 44.216 116.673 44.5753 116.104 44.832C115.534 45.084 114.876 45.21 114.13 45.21ZM118.826 46.568L118.903 45.987C119.099 46.001 119.246 45.9637 119.344 45.875C119.442 45.7863 119.505 45.665 119.533 45.511C119.561 45.357 119.566 45.1867 119.547 45H118.826V43.418H120.198V45.21C120.198 45.7 120.077 46.0687 119.834 46.316C119.596 46.5633 119.26 46.6473 118.826 46.568ZM20.973 59V51.44H27.168V59H25.922V52.623H22.219V59H20.973ZM32.3484 59.21C31.5971 59.21 30.9484 59.0397 30.4024 58.699C29.8611 58.3583 29.4434 57.887 29.1494 57.285C28.8554 56.683 28.7084 55.9923 28.7084 55.213C28.7084 54.4197 28.8578 53.7243 29.1564 53.127C29.4551 52.5297 29.8774 52.0653 30.4234 51.734C30.9694 51.398 31.6111 51.23 32.3484 51.23C33.1044 51.23 33.7554 51.4003 34.3014 51.741C34.8474 52.077 35.2651 52.546 35.5544 53.148C35.8484 53.7453 35.9954 54.4337 35.9954 55.213C35.9954 56.0017 35.8484 56.697 35.5544 57.299C35.2604 57.8963 34.8404 58.3653 34.2944 58.706C33.7484 59.042 33.0998 59.21 32.3484 59.21ZM32.3484 58.027C33.1324 58.027 33.7158 57.7657 34.0984 57.243C34.4811 56.7203 34.6724 56.0437 34.6724 55.213C34.6724 54.359 34.4788 53.68 34.0914 53.176C33.7041 52.6673 33.1231 52.413 32.3484 52.413C31.8211 52.413 31.3871 52.532 31.0464 52.77C30.7058 53.008 30.4514 53.337 30.2834 53.757C30.1154 54.177 30.0314 54.6623 30.0314 55.213C30.0314 56.0623 30.2274 56.7437 30.6194 57.257C31.0114 57.7703 31.5878 58.027 32.3484 58.027ZM36.9766 60.68V57.971C37.4013 57.971 37.7046 57.8333 37.8866 57.558C38.0686 57.278 38.2156 56.8183 38.3276 56.179C38.4023 55.7777 38.463 55.3483 38.5096 54.891C38.5563 54.4337 38.596 53.925 38.6286 53.365C38.666 52.8003 38.701 52.1587 38.7336 51.44H43.9416V57.971H44.6766V60.68H43.4866V59H38.1666V60.68H36.9766ZM38.8946 57.971H42.6956V52.469H39.8606C39.8466 52.8003 39.828 53.148 39.8046 53.512C39.7813 53.8713 39.7533 54.2307 39.7206 54.59C39.6926 54.9493 39.6576 55.29 39.6156 55.612C39.5783 55.9293 39.534 56.214 39.4826 56.466C39.422 56.816 39.352 57.1123 39.2726 57.355C39.1933 57.5977 39.0673 57.803 38.8946 57.971ZM46.0816 59V51.44H51.3316V52.623H47.3276V59H46.0816ZM55.741 59.21C54.9897 59.21 54.341 59.0397 53.795 58.699C53.2537 58.3583 52.836 57.887 52.542 57.285C52.248 56.683 52.101 55.9923 52.101 55.213C52.101 54.4197 52.2503 53.7243 52.549 53.127C52.8477 52.5297 53.27 52.0653 53.816 51.734C54.362 51.398 55.0037 51.23 55.741 51.23C56.497 51.23 57.148 51.4003 57.694 51.741C58.24 52.077 58.6577 52.546 58.947 53.148C59.241 53.7453 59.388 54.4337 59.388 55.213C59.388 56.0017 59.241 56.697 58.947 57.299C58.653 57.8963 58.233 58.3653 57.687 58.706C57.141 59.042 56.4923 59.21 55.741 59.21ZM55.741 58.027C56.525 58.027 57.1083 57.7657 57.491 57.243C57.8737 56.7203 58.065 56.0437 58.065 55.213C58.065 54.359 57.8713 53.68 57.484 53.176C57.0967 52.6673 56.5157 52.413 55.741 52.413C55.2137 52.413 54.7797 52.532 54.439 52.77C54.0983 53.008 53.844 53.337 53.676 53.757C53.508 54.177 53.424 54.6623 53.424 55.213C53.424 56.0623 53.62 56.7437 54.012 57.257C54.404 57.7703 54.9803 58.027 55.741 58.027ZM62.7672 59V52.574H60.1352V51.44H66.6452V52.574H64.0132V59H62.7672ZM71.0535 59.21C70.3022 59.21 69.6535 59.0397 69.1075 58.699C68.5662 58.3583 68.1485 57.887 67.8545 57.285C67.5605 56.683 67.4135 55.9923 67.4135 55.213C67.4135 54.4197 67.5628 53.7243 67.8615 53.127C68.1602 52.5297 68.5825 52.0653 69.1285 51.734C69.6745 51.398 70.3162 51.23 71.0535 51.23C71.8095 51.23 72.4605 51.4003 73.0065 51.741C73.5525 52.077 73.9702 52.546 74.2595 53.148C74.5535 53.7453 74.7005 54.4337 74.7005 55.213C74.7005 56.0017 74.5535 56.697 74.2595 57.299C73.9655 57.8963 73.5455 58.3653 72.9995 58.706C72.4535 59.042 71.8048 59.21 71.0535 59.21ZM71.0535 58.027C71.8375 58.027 72.4208 57.7657 72.8035 57.243C73.1862 56.7203 73.3775 56.0437 73.3775 55.213C73.3775 54.359 73.1838 53.68 72.7965 53.176C72.4092 52.6673 71.8282 52.413 71.0535 52.413C70.5262 52.413 70.0922 52.532 69.7515 52.77C69.4108 53.008 69.1565 53.337 68.9885 53.757C68.8205 54.177 68.7365 54.6623 68.7365 55.213C68.7365 56.0623 68.9325 56.7437 69.3245 57.257C69.7165 57.7703 70.2928 58.027 71.0535 58.027ZM76.2347 59V51.44H79.4547C79.6461 51.44 79.8514 51.4517 80.0707 51.475C80.2947 51.4937 80.4977 51.5287 80.6797 51.58C81.0857 51.6873 81.4194 51.909 81.6807 52.245C81.9467 52.5763 82.0797 52.9963 82.0797 53.505C82.0797 53.7897 82.0354 54.037 81.9467 54.247C81.8627 54.457 81.7414 54.639 81.5827 54.793C81.5127 54.863 81.4357 54.926 81.3517 54.982C81.2677 55.038 81.1837 55.0823 81.0997 55.115C81.2631 55.143 81.4287 55.206 81.5967 55.304C81.8627 55.4487 82.0704 55.6517 82.2197 55.913C82.3737 56.1743 82.4507 56.508 82.4507 56.914C82.4507 57.4273 82.3271 57.852 82.0797 58.188C81.8324 58.5193 81.4917 58.748 81.0577 58.874C80.8757 58.9253 80.6751 58.9603 80.4557 58.979C80.2364 58.993 80.0241 59 79.8187 59H76.2347ZM77.4947 57.985H79.7487C79.8467 57.985 79.9634 57.9757 80.0987 57.957C80.2387 57.9383 80.3624 57.915 80.4697 57.887C80.7124 57.817 80.8874 57.6863 80.9947 57.495C81.1067 57.3037 81.1627 57.096 81.1627 56.872C81.1627 56.5733 81.0787 56.3307 80.9107 56.144C80.7474 55.9573 80.5304 55.8407 80.2597 55.794C80.1617 55.766 80.0544 55.7497 79.9377 55.745C79.8257 55.7403 79.7254 55.738 79.6367 55.738H77.4947V57.985ZM77.4947 54.709H79.3707C79.5014 54.709 79.6391 54.702 79.7837 54.688C79.9284 54.6693 80.0544 54.639 80.1617 54.597C80.3764 54.5177 80.5327 54.387 80.6307 54.205C80.7334 54.0183 80.7847 53.8153 80.7847 53.596C80.7847 53.3533 80.7287 53.141 80.6167 52.959C80.5094 52.7723 80.3437 52.644 80.1197 52.574C79.9704 52.518 79.8024 52.4877 79.6157 52.483C79.4337 52.4737 79.3171 52.469 79.2657 52.469H77.4947V54.709ZM83.85 59L83.857 51.44H85.117V55.08L88.288 51.44H89.905L86.566 55.22L90.297 59H88.554L85.117 55.36V59H83.85ZM93.1427 59.21C92.578 59.21 92.1043 59.1073 91.7217 58.902C91.3437 58.692 91.0567 58.4167 90.8607 58.076C90.6693 57.7353 90.5737 57.362 90.5737 56.956C90.5737 56.5593 90.6483 56.2163 90.7977 55.927C90.9517 55.633 91.1663 55.3903 91.4417 55.199C91.717 55.003 92.046 54.849 92.4287 54.737C92.788 54.639 93.1893 54.555 93.6327 54.485C94.0807 54.4103 94.5333 54.3427 94.9907 54.282C95.448 54.2213 95.875 54.163 96.2717 54.107L95.8237 54.366C95.8377 53.694 95.7023 53.197 95.4177 52.875C95.1377 52.553 94.6523 52.392 93.9617 52.392C93.5043 52.392 93.103 52.497 92.7577 52.707C92.417 52.9123 92.1767 53.2483 92.0367 53.715L90.8537 53.358C91.0357 52.6953 91.388 52.175 91.9107 51.797C92.4333 51.419 93.1217 51.23 93.9757 51.23C94.6617 51.23 95.2497 51.3537 95.7397 51.601C96.2343 51.8437 96.589 52.2123 96.8037 52.707C96.911 52.9403 96.9787 53.1947 97.0067 53.47C97.0347 53.7407 97.0487 54.0253 97.0487 54.324V59H95.9427V57.187L96.2017 57.355C95.917 57.9663 95.518 58.4283 95.0047 58.741C94.496 59.0537 93.8753 59.21 93.1427 59.21ZM93.3317 58.167C93.7797 58.167 94.167 58.0877 94.4937 57.929C94.825 57.7657 95.091 57.5533 95.2917 57.292C95.4923 57.026 95.623 56.7367 95.6837 56.424C95.7537 56.1907 95.791 55.9317 95.7957 55.647C95.805 55.3577 95.8097 55.136 95.8097 54.982L96.2437 55.171C95.8377 55.227 95.4387 55.2807 95.0467 55.332C94.6547 55.3833 94.2837 55.4393 93.9337 55.5C93.5837 55.556 93.2687 55.6237 92.9887 55.703C92.7833 55.7683 92.5897 55.8523 92.4077 55.955C92.2303 56.0577 92.0857 56.1907 91.9737 56.354C91.8663 56.5127 91.8127 56.711 91.8127 56.949C91.8127 57.1543 91.864 57.3503 91.9667 57.537C92.074 57.7237 92.2373 57.8753 92.4567 57.992C92.6807 58.1087 92.9723 58.167 93.3317 58.167ZM20.42 74.68V71.971C20.8447 71.971 21.148 71.8333 21.33 71.558C21.512 71.278 21.659 70.8183 21.771 70.179C21.8457 69.7777 21.9063 69.3483 21.953 68.891C21.9997 68.4337 22.0393 67.925 22.072 67.365C22.1093 66.8003 22.1443 66.1587 22.177 65.44H27.385V71.971H28.12V74.68H26.93V73H21.61V74.68H20.42ZM22.338 71.971H26.139V66.469H23.304C23.29 66.8003 23.2713 67.148 23.248 67.512C23.2247 67.8713 23.1967 68.2307 23.164 68.59C23.136 68.9493 23.101 69.29 23.059 69.612C23.0217 69.9293 22.9773 70.214 22.926 70.466C22.8653 70.816 22.7953 71.1123 22.716 71.355C22.6367 71.5977 22.5107 71.803 22.338 71.971ZM32.7449 73.21C31.9936 73.21 31.3449 73.0397 30.7989 72.699C30.2576 72.3583 29.8399 71.887 29.5459 71.285C29.2519 70.683 29.1049 69.9923 29.1049 69.213C29.1049 68.4197 29.2543 67.7243 29.5529 67.127C29.8516 66.5297 30.2739 66.0653 30.8199 65.734C31.3659 65.398 32.0076 65.23 32.7449 65.23C33.5009 65.23 34.1519 65.4003 34.6979 65.741C35.2439 66.077 35.6616 66.546 35.9509 67.148C36.2449 67.7453 36.3919 68.4337 36.3919 69.213C36.3919 70.0017 36.2449 70.697 35.9509 71.299C35.6569 71.8963 35.2369 72.3653 34.6909 72.706C34.1449 73.042 33.4963 73.21 32.7449 73.21ZM32.7449 72.027C33.5289 72.027 34.1123 71.7657 34.4949 71.243C34.8776 70.7203 35.0689 70.0437 35.0689 69.213C35.0689 68.359 34.8753 67.68 34.4879 67.176C34.1006 66.6673 33.5196 66.413 32.7449 66.413C32.2176 66.413 31.7836 66.532 31.4429 66.77C31.1023 67.008 30.8479 67.337 30.6799 67.757C30.5119 68.177 30.4279 68.6623 30.4279 69.213C30.4279 70.0623 30.6239 70.7437 31.0159 71.257C31.4079 71.7703 31.9843 72.027 32.7449 72.027ZM37.9261 73L37.9331 65.44H39.1931V69.08L42.3641 65.44H43.9811L40.6421 69.22L44.3731 73H42.6301L39.1931 69.36V73H37.9261ZM46.1198 76.36L47.5828 72.384L47.6038 73.56L44.2998 65.44H45.6088L48.1988 71.971H47.7508L50.1798 65.44H51.4468L47.3308 76.36H46.1198ZM52.596 73V65.44H53.667L56.537 71.306L59.407 65.44H60.478V73H59.274V68.037L56.866 73H56.208L53.8 68.037V73H52.596ZM65.7091 73.21C64.9671 73.21 64.3185 73.0467 63.7631 72.72C63.2125 72.3887 62.7831 71.929 62.4751 71.341C62.1671 70.7483 62.0131 70.0577 62.0131 69.269C62.0131 68.443 62.1648 67.729 62.4681 67.127C62.7715 66.5203 63.1938 66.0537 63.7351 65.727C64.2811 65.3957 64.9205 65.23 65.6531 65.23C66.4138 65.23 67.0601 65.405 67.5921 65.755C68.1288 66.105 68.5301 66.6043 68.7961 67.253C69.0668 67.9017 69.1835 68.674 69.1461 69.57H67.8861V69.122C67.8721 68.1933 67.6831 67.5003 67.3191 67.043C66.9551 66.581 66.4138 66.35 65.6951 66.35C64.9251 66.35 64.3395 66.5973 63.9381 67.092C63.5368 67.5867 63.3361 68.296 63.3361 69.22C63.3361 70.1113 63.5368 70.802 63.9381 71.292C64.3395 71.782 64.9111 72.027 65.6531 72.027C66.1525 72.027 66.5865 71.9127 66.9551 71.684C67.3238 71.4553 67.6131 71.1263 67.8231 70.697L69.0201 71.11C68.7261 71.7773 68.2828 72.2953 67.6901 72.664C67.1021 73.028 66.4418 73.21 65.7091 73.21ZM62.9161 69.57V68.569H68.5021V69.57H62.9161ZM70.6976 73V65.44H71.9436V68.625H75.9196V65.44H77.1656V73H75.9196V69.808H71.9436V73H70.6976ZM81.1285 73V66.574H78.4965V65.44H85.0065V66.574H82.3745V73H81.1285ZM88.2345 73.21C87.6698 73.21 87.1961 73.1073 86.8135 72.902C86.4355 72.692 86.1485 72.4167 85.9525 72.076C85.7611 71.7353 85.6655 71.362 85.6655 70.956C85.6655 70.5593 85.7401 70.2163 85.8895 69.927C86.0435 69.633 86.2581 69.3903 86.5335 69.199C86.8088 69.003 87.1378 68.849 87.5205 68.737C87.8798 68.639 88.2811 68.555 88.7245 68.485C89.1725 68.4103 89.6251 68.3427 90.0825 68.282C90.5398 68.2213 90.9668 68.163 91.3635 68.107L90.9155 68.366C90.9295 67.694 90.7941 67.197 90.5095 66.875C90.2295 66.553 89.7441 66.392 89.0535 66.392C88.5961 66.392 88.1948 66.497 87.8495 66.707C87.5088 66.9123 87.2685 67.2483 87.1285 67.715L85.9455 67.358C86.1275 66.6953 86.4798 66.175 87.0025 65.797C87.5251 65.419 88.2135 65.23 89.0675 65.23C89.7535 65.23 90.3415 65.3537 90.8315 65.601C91.3261 65.8437 91.6808 66.2123 91.8955 66.707C92.0028 66.9403 92.0705 67.1947 92.0985 67.47C92.1265 67.7407 92.1405 68.0253 92.1405 68.324V73H91.0345V71.187L91.2935 71.355C91.0088 71.9663 90.6098 72.4283 90.0965 72.741C89.5878 73.0537 88.9671 73.21 88.2345 73.21ZM88.4235 72.167C88.8715 72.167 89.2588 72.0877 89.5855 71.929C89.9168 71.7657 90.1828 71.5533 90.3835 71.292C90.5841 71.026 90.7148 70.7367 90.7755 70.424C90.8455 70.1907 90.8828 69.9317 90.8875 69.647C90.8968 69.3577 90.9015 69.136 90.9015 68.982L91.3355 69.171C90.9295 69.227 90.5305 69.2807 90.1385 69.332C89.7465 69.3833 89.3755 69.4393 89.0255 69.5C88.6755 69.556 88.3605 69.6237 88.0805 69.703C87.8751 69.7683 87.6815 69.8523 87.4995 69.955C87.3221 70.0577 87.1775 70.1907 87.0655 70.354C86.9581 70.5127 86.9045 70.711 86.9045 70.949C86.9045 71.1543 86.9558 71.3503 87.0585 71.537C87.1658 71.7237 87.3291 71.8753 87.5485 71.992C87.7725 72.1087 88.0641 72.167 88.4235 72.167ZM100.4 74.4V73H93.9535V65.44H95.1995V71.817H98.9025V65.44H100.148V71.866H101.646V74.4H100.4ZM108.953 65.44V73H107.749V67.428L103.787 73H102.758V65.44H103.962V70.935L107.931 65.44H108.953ZM117.102 65.44V73H115.898V67.428L111.936 73H110.907V65.44H112.111V70.935L116.08 65.44H117.102Z" fill="white"/>
              </svg>