<svg width="904" height="221" viewBox="0 0 904 221" fill="none" xmlns="http://www.w3.org/2000/svg">
              <path d="M837.03 220.071H430C418.95 220.071 410 211.238 410 200.333V19.7373C410 8.83243 418.95 0 430 0H837.05C844.57 0 851.46 4.16457 854.87 10.7864L901.39 100.956C904.29 106.571 904.29 113.223 901.39 118.848L854.86 209.274C851.45 215.896 844.56 220.071 837.03 220.071Z" fill="#F2F2F2"/>
              <path d="M230 0.5H543.05C550.156 0.5 556.682 4.31209 560.104 10.417L560.426 11.0156L606.945 101.186C609.683 106.486 609.769 112.734 607.202 118.103L606.945 118.619L560.415 209.046C557.092 215.499 550.375 219.57 543.03 219.57H230C219.22 219.57 210.5 210.955 210.5 200.333V19.7373C210.5 9.11481 219.22 0.5 230 0.5Z" fill="white" stroke="#254E6C"/>
              <path d="M271.03 220.071H20C8.95 220.071 0 211.238 0 200.333V19.7373C0 8.83243 8.95 0 20 0H271.05C278.57 0 285.46 4.16457 288.87 10.7864L335.39 100.956C338.29 106.571 338.29 113.223 335.39 118.848L288.86 209.274C285.45 215.896 278.56 220.071 271.03 220.071Z" fill="#254E6C"/>
              <path d="M663.4 108V93.6H669.01C669.87 93.6 670.603 93.7767 671.21 94.13C671.823 94.4833 672.29 94.95 672.61 95.53C672.937 96.1033 673.1 96.7233 673.1 97.39C673.1 98.17 672.9 98.8533 672.5 99.44C672.1 100.027 671.56 100.43 670.88 100.65L670.86 100.16C671.787 100.407 672.507 100.86 673.02 101.52C673.533 102.18 673.79 102.967 673.79 103.88C673.79 104.72 673.617 105.447 673.27 106.06C672.93 106.673 672.437 107.15 671.79 107.49C671.15 107.83 670.39 108 669.51 108H663.4ZM665.2 106.3H669.17C669.703 106.3 670.18 106.203 670.6 106.01C671.02 105.81 671.35 105.53 671.59 105.17C671.837 104.81 671.96 104.377 671.96 103.87C671.96 103.383 671.85 102.947 671.63 102.56C671.417 102.173 671.113 101.867 670.72 101.64C670.333 101.407 669.883 101.29 669.37 101.29H665.2V106.3ZM665.2 99.61H668.99C669.417 99.61 669.8 99.52 670.14 99.34C670.487 99.1533 670.76 98.8933 670.96 98.56C671.167 98.2267 671.27 97.8367 671.27 97.39C671.27 96.77 671.06 96.2633 670.64 95.87C670.22 95.4767 669.67 95.28 668.99 95.28H665.2V99.61ZM675.773 108V97.2H677.553V101.75H683.233V97.2H685.013V108H683.233V103.44H677.553V108H675.773ZM692.494 108.3C691.434 108.3 690.507 108.067 689.714 107.6C688.927 107.127 688.314 106.47 687.874 105.63C687.434 104.783 687.214 103.797 687.214 102.67C687.214 101.49 687.431 100.47 687.864 99.61C688.297 98.7433 688.901 98.0767 689.674 97.61C690.454 97.1367 691.367 96.9 692.414 96.9C693.501 96.9 694.424 97.15 695.184 97.65C695.951 98.15 696.524 98.8633 696.904 99.79C697.291 100.717 697.457 101.82 697.404 103.1H695.604V102.46C695.584 101.133 695.314 100.143 694.794 99.49C694.274 98.83 693.501 98.5 692.474 98.5C691.374 98.5 690.537 98.8533 689.964 99.56C689.391 100.267 689.104 101.28 689.104 102.6C689.104 103.873 689.391 104.86 689.964 105.56C690.537 106.26 691.354 106.61 692.414 106.61C693.127 106.61 693.747 106.447 694.274 106.12C694.801 105.793 695.214 105.323 695.514 104.71L697.224 105.3C696.804 106.253 696.171 106.993 695.324 107.52C694.484 108.04 693.541 108.3 692.494 108.3ZM688.504 103.1V101.67H696.484V103.1H688.504ZM698.83 110.4V106.53C699.437 106.53 699.87 106.333 700.13 105.94C700.39 105.54 700.6 104.883 700.76 103.97C700.867 103.397 700.954 102.783 701.02 102.13C701.087 101.477 701.144 100.75 701.19 99.95C701.244 99.1433 701.294 98.2267 701.34 97.2H708.78V106.53H709.83V110.4H708.13V108H700.53V110.4H698.83ZM701.57 106.53H707V98.67H702.95C702.93 99.1433 702.904 99.64 702.87 100.16C702.837 100.673 702.797 101.187 702.75 101.7C702.71 102.213 702.66 102.7 702.6 103.16C702.547 103.613 702.484 104.02 702.41 104.38C702.324 104.88 702.224 105.303 702.11 105.65C701.997 105.997 701.817 106.29 701.57 106.53ZM716.798 108.3C715.784 108.3 714.931 108.05 714.238 107.55C713.544 107.043 713.018 106.36 712.658 105.5C712.304 104.633 712.128 103.663 712.128 102.59C712.128 101.503 712.304 100.53 712.658 99.67C713.018 98.81 713.544 98.1333 714.238 97.64C714.938 97.1467 715.794 96.9 716.808 96.9C717.808 96.9 718.668 97.15 719.388 97.65C720.114 98.1433 720.671 98.82 721.058 99.68C721.444 100.54 721.638 101.51 721.638 102.59C721.638 103.67 721.444 104.64 721.058 105.5C720.671 106.36 720.114 107.043 719.388 107.55C718.668 108.05 717.804 108.3 716.798 108.3ZM711.828 112.8V97.2H713.418V105.15H713.618V112.8H711.828ZM716.578 106.67C717.291 106.67 717.881 106.49 718.348 106.13C718.814 105.77 719.164 105.283 719.398 104.67C719.631 104.05 719.748 103.357 719.748 102.59C719.748 101.83 719.631 101.143 719.398 100.53C719.171 99.9167 718.818 99.43 718.338 99.07C717.864 98.71 717.261 98.53 716.528 98.53C715.828 98.53 715.248 98.7033 714.788 99.05C714.328 99.39 713.984 99.8667 713.758 100.48C713.531 101.087 713.418 101.79 713.418 102.59C713.418 103.377 713.528 104.08 713.748 104.7C713.974 105.313 714.321 105.797 714.788 106.15C715.254 106.497 715.851 106.67 716.578 106.67ZM728.51 108.3C727.45 108.3 726.523 108.067 725.73 107.6C724.943 107.127 724.33 106.47 723.89 105.63C723.45 104.783 723.23 103.797 723.23 102.67C723.23 101.49 723.446 100.47 723.88 99.61C724.313 98.7433 724.916 98.0767 725.69 97.61C726.47 97.1367 727.383 96.9 728.43 96.9C729.516 96.9 730.44 97.15 731.2 97.65C731.966 98.15 732.54 98.8633 732.92 99.79C733.306 100.717 733.473 101.82 733.42 103.1H731.62V102.46C731.6 101.133 731.33 100.143 730.81 99.49C730.29 98.83 729.516 98.5 728.49 98.5C727.39 98.5 726.553 98.8533 725.98 99.56C725.406 100.267 725.12 101.28 725.12 102.6C725.12 103.873 725.406 104.86 725.98 105.56C726.553 106.26 727.37 106.61 728.43 106.61C729.143 106.61 729.763 106.447 730.29 106.12C730.816 105.793 731.23 105.323 731.53 104.71L733.24 105.3C732.82 106.253 732.186 106.993 731.34 107.52C730.5 108.04 729.556 108.3 728.51 108.3ZM724.52 103.1V101.67H732.5V103.1H724.52ZM735.636 108V97.2H737.416V101.75H743.096V97.2H744.876V108H743.096V103.44H737.416V108H735.636ZM756.517 97.2V108H754.797V100.04L749.137 108H747.667V97.2H749.387V105.05L755.057 97.2H756.517ZM763.998 108.3C762.938 108.3 762.011 108.067 761.218 107.6C760.431 107.127 759.818 106.47 759.378 105.63C758.938 104.783 758.718 103.797 758.718 102.67C758.718 101.49 758.935 100.47 759.368 99.61C759.801 98.7433 760.405 98.0767 761.178 97.61C761.958 97.1367 762.871 96.9 763.918 96.9C765.005 96.9 765.928 97.15 766.688 97.65C767.455 98.15 768.028 98.8633 768.408 99.79C768.795 100.717 768.961 101.82 768.908 103.1H767.108V102.46C767.088 101.133 766.818 100.143 766.298 99.49C765.778 98.83 765.005 98.5 763.978 98.5C762.878 98.5 762.041 98.8533 761.468 99.56C760.895 100.267 760.608 101.28 760.608 102.6C760.608 103.873 760.895 104.86 761.468 105.56C762.041 106.26 762.858 106.61 763.918 106.61C764.631 106.61 765.251 106.447 765.778 106.12C766.305 105.793 766.718 105.323 767.018 104.71L768.728 105.3C768.308 106.253 767.675 106.993 766.828 107.52C765.988 108.04 765.045 108.3 763.998 108.3ZM760.008 103.1V101.67H767.988V103.1H760.008ZM667.95 128.3C666.857 128.3 665.927 128.057 665.16 127.57C664.4 127.077 663.82 126.4 663.42 125.54C663.02 124.68 662.813 123.7 662.8 122.6C662.813 121.473 663.023 120.483 663.43 119.63C663.843 118.77 664.433 118.1 665.2 117.62C665.967 117.14 666.89 116.9 667.97 116.9C669.11 116.9 670.09 117.18 670.91 117.74C671.737 118.3 672.29 119.067 672.57 120.04L670.81 120.57C670.583 119.943 670.213 119.457 669.7 119.11C669.193 118.763 668.61 118.59 667.95 118.59C667.21 118.59 666.6 118.763 666.12 119.11C665.64 119.45 665.283 119.923 665.05 120.53C664.817 121.13 664.697 121.82 664.69 122.6C664.703 123.8 664.98 124.77 665.52 125.51C666.067 126.243 666.877 126.61 667.95 126.61C668.657 126.61 669.243 126.45 669.71 126.13C670.177 125.803 670.53 125.333 670.77 124.72L672.57 125.19C672.197 126.197 671.613 126.967 670.82 127.5C670.027 128.033 669.07 128.3 667.95 128.3ZM678.918 128.3C677.845 128.3 676.918 128.057 676.138 127.57C675.365 127.083 674.768 126.41 674.348 125.55C673.928 124.69 673.718 123.703 673.718 122.59C673.718 121.457 673.931 120.463 674.358 119.61C674.785 118.757 675.388 118.093 676.168 117.62C676.948 117.14 677.865 116.9 678.918 116.9C679.998 116.9 680.928 117.143 681.708 117.63C682.488 118.11 683.085 118.78 683.498 119.64C683.918 120.493 684.128 121.477 684.128 122.59C684.128 123.717 683.918 124.71 683.498 125.57C683.078 126.423 682.478 127.093 681.698 127.58C680.918 128.06 679.991 128.3 678.918 128.3ZM678.918 126.61C680.038 126.61 680.871 126.237 681.418 125.49C681.965 124.743 682.238 123.777 682.238 122.59C682.238 121.37 681.961 120.4 681.408 119.68C680.855 118.953 680.025 118.59 678.918 118.59C678.165 118.59 677.545 118.76 677.058 119.1C676.571 119.44 676.208 119.91 675.968 120.51C675.728 121.11 675.608 121.803 675.608 122.59C675.608 123.803 675.888 124.777 676.448 125.51C677.008 126.243 677.831 126.61 678.918 126.61ZM689.946 128.3C688.879 128.3 687.936 128.07 687.116 127.61C686.296 127.143 685.649 126.503 685.176 125.69L686.596 124.77C686.989 125.363 687.459 125.82 688.006 126.14C688.552 126.453 689.176 126.61 689.876 126.61C690.609 126.61 691.192 126.443 691.626 126.11C692.059 125.77 692.276 125.313 692.276 124.74C692.276 124.313 692.169 123.987 691.956 123.76C691.742 123.533 691.436 123.377 691.036 123.29C690.636 123.203 690.159 123.16 689.606 123.16H688.486V121.69H689.596C690.296 121.69 690.866 121.577 691.306 121.35C691.746 121.123 691.966 120.737 691.966 120.19C691.966 119.63 691.759 119.223 691.346 118.97C690.939 118.71 690.452 118.58 689.886 118.58C689.286 118.58 688.712 118.707 688.166 118.96C687.619 119.207 687.149 119.52 686.756 119.9L685.676 118.69C686.236 118.117 686.879 117.677 687.606 117.37C688.339 117.057 689.136 116.9 689.996 116.9C690.689 116.9 691.322 117.023 691.896 117.27C692.476 117.51 692.936 117.867 693.276 118.34C693.622 118.807 693.796 119.377 693.796 120.05C693.796 120.623 693.662 121.133 693.396 121.58C693.129 122.027 692.736 122.417 692.216 122.75L692.146 122.12C692.586 122.227 692.949 122.423 693.236 122.71C693.529 122.99 693.746 123.323 693.886 123.71C694.026 124.097 694.096 124.5 694.096 124.92C694.096 125.627 693.909 126.233 693.536 126.74C693.169 127.24 692.672 127.627 692.046 127.9C691.419 128.167 690.719 128.3 689.946 128.3ZM695.491 130.4V126.53C696.097 126.53 696.531 126.333 696.791 125.94C697.051 125.54 697.261 124.883 697.421 123.97C697.527 123.397 697.614 122.783 697.681 122.13C697.747 121.477 697.804 120.75 697.851 119.95C697.904 119.143 697.954 118.227 698.001 117.2H705.441V126.53H706.491V130.4H704.791V128H697.191V130.4H695.491ZM698.231 126.53H703.661V118.67H699.611C699.591 119.143 699.564 119.64 699.531 120.16C699.497 120.673 699.457 121.187 699.411 121.7C699.371 122.213 699.321 122.7 699.261 123.16C699.207 123.613 699.144 124.02 699.071 124.38C698.984 124.88 698.884 125.303 698.771 125.65C698.657 125.997 698.477 126.29 698.231 126.53ZM711.568 128.3C710.761 128.3 710.084 128.153 709.538 127.86C708.998 127.56 708.588 127.167 708.308 126.68C708.034 126.193 707.898 125.66 707.898 125.08C707.898 124.513 708.004 124.023 708.218 123.61C708.438 123.19 708.744 122.843 709.138 122.57C709.531 122.29 710.001 122.07 710.548 121.91C711.061 121.77 711.634 121.65 712.268 121.55C712.908 121.443 713.554 121.347 714.208 121.26C714.861 121.173 715.471 121.09 716.038 121.01L715.398 121.38C715.418 120.42 715.224 119.71 714.818 119.25C714.418 118.79 713.724 118.56 712.738 118.56C712.084 118.56 711.511 118.71 711.018 119.01C710.531 119.303 710.188 119.783 709.988 120.45L708.298 119.94C708.558 118.993 709.061 118.25 709.808 117.71C710.554 117.17 711.538 116.9 712.758 116.9C713.738 116.9 714.578 117.077 715.278 117.43C715.984 117.777 716.491 118.303 716.798 119.01C716.951 119.343 717.048 119.707 717.088 120.1C717.128 120.487 717.148 120.893 717.148 121.32V128H715.568V125.41L715.938 125.65C715.531 126.523 714.961 127.183 714.228 127.63C713.501 128.077 712.614 128.3 711.568 128.3ZM711.838 126.81C712.478 126.81 713.031 126.697 713.498 126.47C713.971 126.237 714.351 125.933 714.638 125.56C714.924 125.18 715.111 124.767 715.198 124.32C715.298 123.987 715.351 123.617 715.358 123.21C715.371 122.797 715.378 122.48 715.378 122.26L715.998 122.53C715.418 122.61 714.848 122.687 714.288 122.76C713.728 122.833 713.198 122.913 712.698 123C712.198 123.08 711.748 123.177 711.348 123.29C711.054 123.383 710.778 123.503 710.518 123.65C710.264 123.797 710.058 123.987 709.898 124.22C709.744 124.447 709.668 124.73 709.668 125.07C709.668 125.363 709.741 125.643 709.888 125.91C710.041 126.177 710.274 126.393 710.588 126.56C710.908 126.727 711.324 126.81 711.838 126.81ZM719.738 128V117.2H721.518V121.75H727.198V117.2H728.978V128H727.198V123.44H721.518V128H719.738ZM731.769 128V117.2H733.549V121.75H739.229V117.2H741.009V128H739.229V123.44H733.549V128H731.769ZM748.41 128.3C747.337 128.3 746.41 128.057 745.63 127.57C744.857 127.083 744.26 126.41 743.84 125.55C743.42 124.69 743.21 123.703 743.21 122.59C743.21 121.457 743.423 120.463 743.85 119.61C744.277 118.757 744.88 118.093 745.66 117.62C746.44 117.14 747.357 116.9 748.41 116.9C749.49 116.9 750.42 117.143 751.2 117.63C751.98 118.11 752.577 118.78 752.99 119.64C753.41 120.493 753.62 121.477 753.62 122.59C753.62 123.717 753.41 124.71 752.99 125.57C752.57 126.423 751.97 127.093 751.19 127.58C750.41 128.06 749.483 128.3 748.41 128.3ZM748.41 126.61C749.53 126.61 750.363 126.237 750.91 125.49C751.457 124.743 751.73 123.777 751.73 122.59C751.73 121.37 751.453 120.4 750.9 119.68C750.347 118.953 749.517 118.59 748.41 118.59C747.657 118.59 747.037 118.76 746.55 119.1C746.063 119.44 745.7 119.91 745.46 120.51C745.22 121.11 745.1 121.803 745.1 122.59C745.1 123.803 745.38 124.777 745.94 125.51C746.5 126.243 747.323 126.61 748.41 126.61ZM755.822 128V117.2H763.322V118.89H757.602V128H755.822ZM769.621 128.3C768.548 128.3 767.621 128.057 766.841 127.57C766.068 127.083 765.471 126.41 765.051 125.55C764.631 124.69 764.421 123.703 764.421 122.59C764.421 121.457 764.634 120.463 765.061 119.61C765.488 118.757 766.091 118.093 766.871 117.62C767.651 117.14 768.568 116.9 769.621 116.9C770.701 116.9 771.631 117.143 772.411 117.63C773.191 118.11 773.788 118.78 774.201 119.64C774.621 120.493 774.831 121.477 774.831 122.59C774.831 123.717 774.621 124.71 774.201 125.57C773.781 126.423 773.181 127.093 772.401 127.58C771.621 128.06 770.694 128.3 769.621 128.3ZM769.621 126.61C770.741 126.61 771.574 126.237 772.121 125.49C772.668 124.743 772.941 123.777 772.941 122.59C772.941 121.37 772.664 120.4 772.111 119.68C771.558 118.953 770.728 118.59 769.621 118.59C768.868 118.59 768.248 118.76 767.761 119.1C767.274 119.44 766.911 119.91 766.671 120.51C766.431 121.11 766.311 121.803 766.311 122.59C766.311 123.803 766.591 124.777 767.151 125.51C767.711 126.243 768.534 126.61 769.621 126.61ZM781.037 128V113.6H792.277V128H790.497V115.29H782.817V128H781.037ZM801 128.3C799.566 128.3 798.35 127.983 797.35 127.35C796.35 126.717 795.586 125.837 795.06 124.71C794.54 123.583 794.28 122.28 794.28 120.8C794.28 119.32 794.54 118.017 795.06 116.89C795.586 115.763 796.35 114.883 797.35 114.25C798.35 113.617 799.566 113.3 801 113.3C802.44 113.3 803.66 113.617 804.66 114.25C805.66 114.883 806.42 115.763 806.94 116.89C807.46 118.017 807.72 119.32 807.72 120.8C807.72 122.28 807.46 123.583 806.94 124.71C806.42 125.837 805.66 126.717 804.66 127.35C803.66 127.983 802.44 128.3 801 128.3ZM801 126.6C802.073 126.607 802.966 126.367 803.68 125.88C804.4 125.387 804.936 124.703 805.29 123.83C805.65 122.957 805.83 121.947 805.83 120.8C805.83 119.647 805.65 118.637 805.29 117.77C804.936 116.903 804.4 116.227 803.68 115.74C802.966 115.253 802.073 115.007 801 115C799.926 114.993 799.033 115.233 798.32 115.72C797.613 116.207 797.08 116.887 796.72 117.76C796.36 118.633 796.176 119.647 796.17 120.8C796.163 121.947 796.34 122.953 796.7 123.82C797.06 124.687 797.596 125.367 798.31 125.86C799.03 126.347 799.926 126.593 801 126.6Z" fill="#000206"/>
              <path d="M396.4 118V103.6H402.09C402.23 103.6 402.397 103.607 402.59 103.62C402.783 103.627 402.97 103.647 403.15 103.68C403.93 103.8 404.583 104.067 405.11 104.48C405.643 104.893 406.043 105.417 406.31 106.05C406.577 106.677 406.71 107.373 406.71 108.14C406.71 108.9 406.573 109.597 406.3 110.23C406.033 110.857 405.633 111.38 405.1 111.8C404.573 112.213 403.923 112.48 403.15 112.6C402.97 112.627 402.783 112.647 402.59 112.66C402.397 112.673 402.23 112.68 402.09 112.68H398.18V118H396.4ZM398.18 110.99H402.03C402.157 110.99 402.3 110.983 402.46 110.97C402.627 110.957 402.783 110.933 402.93 110.9C403.39 110.793 403.763 110.6 404.05 110.32C404.343 110.033 404.557 109.7 404.69 109.32C404.823 108.933 404.89 108.54 404.89 108.14C404.89 107.74 404.823 107.35 404.69 106.97C404.557 106.583 404.343 106.247 404.05 105.96C403.763 105.673 403.39 105.48 402.93 105.38C402.783 105.34 402.627 105.317 402.46 105.31C402.3 105.297 402.157 105.29 402.03 105.29H398.18V110.99ZM411.775 118.3C410.968 118.3 410.291 118.153 409.745 117.86C409.205 117.56 408.795 117.167 408.515 116.68C408.241 116.193 408.105 115.66 408.105 115.08C408.105 114.513 408.211 114.023 408.425 113.61C408.645 113.19 408.951 112.843 409.345 112.57C409.738 112.29 410.208 112.07 410.755 111.91C411.268 111.77 411.841 111.65 412.475 111.55C413.115 111.443 413.761 111.347 414.415 111.26C415.068 111.173 415.678 111.09 416.245 111.01L415.605 111.38C415.625 110.42 415.431 109.71 415.025 109.25C414.625 108.79 413.931 108.56 412.945 108.56C412.291 108.56 411.718 108.71 411.225 109.01C410.738 109.303 410.395 109.783 410.195 110.45L408.505 109.94C408.765 108.993 409.268 108.25 410.015 107.71C410.761 107.17 411.745 106.9 412.965 106.9C413.945 106.9 414.785 107.077 415.485 107.43C416.191 107.777 416.698 108.303 417.005 109.01C417.158 109.343 417.255 109.707 417.295 110.1C417.335 110.487 417.355 110.893 417.355 111.32V118H415.775V115.41L416.145 115.65C415.738 116.523 415.168 117.183 414.435 117.63C413.708 118.077 412.821 118.3 411.775 118.3ZM412.045 116.81C412.685 116.81 413.238 116.697 413.705 116.47C414.178 116.237 414.558 115.933 414.845 115.56C415.131 115.18 415.318 114.767 415.405 114.32C415.505 113.987 415.558 113.617 415.565 113.21C415.578 112.797 415.585 112.48 415.585 112.26L416.205 112.53C415.625 112.61 415.055 112.687 414.495 112.76C413.935 112.833 413.405 112.913 412.905 113C412.405 113.08 411.955 113.177 411.555 113.29C411.261 113.383 410.985 113.503 410.725 113.65C410.471 113.797 410.265 113.987 410.105 114.22C409.951 114.447 409.875 114.73 409.875 115.07C409.875 115.363 409.948 115.643 410.095 115.91C410.248 116.177 410.481 116.393 410.795 116.56C411.115 116.727 411.531 116.81 412.045 116.81ZM423.825 118.3C422.758 118.3 421.815 118.07 420.995 117.61C420.175 117.143 419.528 116.503 419.055 115.69L420.475 114.77C420.868 115.363 421.338 115.82 421.885 116.14C422.431 116.453 423.055 116.61 423.755 116.61C424.488 116.61 425.071 116.443 425.505 116.11C425.938 115.77 426.155 115.313 426.155 114.74C426.155 114.313 426.048 113.987 425.835 113.76C425.621 113.533 425.315 113.377 424.915 113.29C424.515 113.203 424.038 113.16 423.485 113.16H422.365V111.69H423.475C424.175 111.69 424.745 111.577 425.185 111.35C425.625 111.123 425.845 110.737 425.845 110.19C425.845 109.63 425.638 109.223 425.225 108.97C424.818 108.71 424.331 108.58 423.765 108.58C423.165 108.58 422.591 108.707 422.045 108.96C421.498 109.207 421.028 109.52 420.635 109.9L419.555 108.69C420.115 108.117 420.758 107.677 421.485 107.37C422.218 107.057 423.015 106.9 423.875 106.9C424.568 106.9 425.201 107.023 425.775 107.27C426.355 107.51 426.815 107.867 427.155 108.34C427.501 108.807 427.675 109.377 427.675 110.05C427.675 110.623 427.541 111.133 427.275 111.58C427.008 112.027 426.615 112.417 426.095 112.75L426.025 112.12C426.465 112.227 426.828 112.423 427.115 112.71C427.408 112.99 427.625 113.323 427.765 113.71C427.905 114.097 427.975 114.5 427.975 114.92C427.975 115.627 427.788 116.233 427.415 116.74C427.048 117.24 426.551 117.627 425.925 117.9C425.298 118.167 424.598 118.3 423.825 118.3ZM435.13 118.3C434.116 118.3 433.263 118.05 432.57 117.55C431.876 117.043 431.35 116.36 430.99 115.5C430.636 114.633 430.46 113.663 430.46 112.59C430.46 111.503 430.636 110.53 430.99 109.67C431.35 108.81 431.876 108.133 432.57 107.64C433.27 107.147 434.126 106.9 435.14 106.9C436.14 106.9 437 107.15 437.72 107.65C438.446 108.143 439.003 108.82 439.39 109.68C439.776 110.54 439.97 111.51 439.97 112.59C439.97 113.67 439.776 114.64 439.39 115.5C439.003 116.36 438.446 117.043 437.72 117.55C437 118.05 436.136 118.3 435.13 118.3ZM430.16 122.8V107.2H431.75V115.15H431.95V122.8H430.16ZM434.91 116.67C435.623 116.67 436.213 116.49 436.68 116.13C437.146 115.77 437.496 115.283 437.73 114.67C437.963 114.05 438.08 113.357 438.08 112.59C438.08 111.83 437.963 111.143 437.73 110.53C437.503 109.917 437.15 109.43 436.67 109.07C436.196 108.71 435.593 108.53 434.86 108.53C434.16 108.53 433.58 108.703 433.12 109.05C432.66 109.39 432.316 109.867 432.09 110.48C431.863 111.087 431.75 111.79 431.75 112.59C431.75 113.377 431.86 114.08 432.08 114.7C432.306 115.313 432.653 115.797 433.12 116.15C433.586 116.497 434.183 116.67 434.91 116.67ZM445.232 118.3C444.425 118.3 443.748 118.153 443.202 117.86C442.662 117.56 442.252 117.167 441.972 116.68C441.698 116.193 441.562 115.66 441.562 115.08C441.562 114.513 441.668 114.023 441.882 113.61C442.102 113.19 442.408 112.843 442.802 112.57C443.195 112.29 443.665 112.07 444.212 111.91C444.725 111.77 445.298 111.65 445.932 111.55C446.572 111.443 447.218 111.347 447.872 111.26C448.525 111.173 449.135 111.09 449.702 111.01L449.062 111.38C449.082 110.42 448.888 109.71 448.482 109.25C448.082 108.79 447.388 108.56 446.402 108.56C445.748 108.56 445.175 108.71 444.682 109.01C444.195 109.303 443.852 109.783 443.652 110.45L441.962 109.94C442.222 108.993 442.725 108.25 443.472 107.71C444.218 107.17 445.202 106.9 446.422 106.9C447.402 106.9 448.242 107.077 448.942 107.43C449.648 107.777 450.155 108.303 450.462 109.01C450.615 109.343 450.712 109.707 450.752 110.1C450.792 110.487 450.812 110.893 450.812 111.32V118H449.232V115.41L449.602 115.65C449.195 116.523 448.625 117.183 447.892 117.63C447.165 118.077 446.278 118.3 445.232 118.3ZM445.502 116.81C446.142 116.81 446.695 116.697 447.162 116.47C447.635 116.237 448.015 115.933 448.302 115.56C448.588 115.18 448.775 114.767 448.862 114.32C448.962 113.987 449.015 113.617 449.022 113.21C449.035 112.797 449.042 112.48 449.042 112.26L449.662 112.53C449.082 112.61 448.512 112.687 447.952 112.76C447.392 112.833 446.862 112.913 446.362 113C445.862 113.08 445.412 113.177 445.012 113.29C444.718 113.383 444.442 113.503 444.182 113.65C443.928 113.797 443.722 113.987 443.562 114.22C443.408 114.447 443.332 114.73 443.332 115.07C443.332 115.363 443.405 115.643 443.552 115.91C443.705 116.177 443.938 116.393 444.252 116.56C444.572 116.727 444.988 116.81 445.502 116.81ZM457.802 118.31C456.782 118.303 455.912 118.083 455.192 117.65C454.472 117.21 453.912 116.567 453.512 115.72C453.112 114.873 452.888 113.837 452.842 112.61C452.815 112.043 452.822 111.42 452.862 110.74C452.908 110.06 452.982 109.407 453.082 108.78C453.188 108.153 453.322 107.637 453.482 107.23C453.662 106.743 453.915 106.293 454.242 105.88C454.575 105.46 454.948 105.113 455.362 104.84C455.782 104.553 456.252 104.33 456.772 104.17C457.292 104.01 457.835 103.887 458.402 103.8C458.975 103.707 459.548 103.627 460.122 103.56C460.695 103.487 461.242 103.4 461.762 103.3L461.942 104.9C461.575 104.98 461.142 105.05 460.642 105.11C460.142 105.163 459.622 105.227 459.082 105.3C458.548 105.373 458.035 105.477 457.542 105.61C457.055 105.737 456.635 105.913 456.282 106.14C455.762 106.453 455.362 106.923 455.082 107.55C454.808 108.17 454.642 108.867 454.582 109.64C454.995 109 455.532 108.53 456.192 108.23C456.852 107.93 457.555 107.78 458.302 107.78C459.268 107.78 460.102 108.007 460.802 108.46C461.502 108.907 462.038 109.523 462.412 110.31C462.792 111.097 462.982 111.993 462.982 113C462.982 114.067 462.768 115 462.342 115.8C461.915 116.6 461.312 117.22 460.532 117.66C459.758 118.1 458.848 118.317 457.802 118.31ZM457.912 116.62C458.958 116.62 459.752 116.297 460.292 115.65C460.832 114.997 461.102 114.13 461.102 113.05C461.102 111.943 460.822 111.073 460.262 110.44C459.702 109.8 458.915 109.48 457.902 109.48C456.875 109.48 456.088 109.8 455.542 110.44C455.002 111.073 454.732 111.943 454.732 113.05C454.732 114.163 455.005 115.037 455.552 115.67C456.098 116.303 456.885 116.62 457.912 116.62ZM469.789 118.3C468.716 118.3 467.789 118.057 467.009 117.57C466.236 117.083 465.639 116.41 465.219 115.55C464.799 114.69 464.589 113.703 464.589 112.59C464.589 111.457 464.802 110.463 465.229 109.61C465.656 108.757 466.259 108.093 467.039 107.62C467.819 107.14 468.736 106.9 469.789 106.9C470.869 106.9 471.799 107.143 472.579 107.63C473.359 108.11 473.956 108.78 474.369 109.64C474.789 110.493 474.999 111.477 474.999 112.59C474.999 113.717 474.789 114.71 474.369 115.57C473.949 116.423 473.349 117.093 472.569 117.58C471.789 118.06 470.862 118.3 469.789 118.3ZM469.789 116.61C470.909 116.61 471.742 116.237 472.289 115.49C472.836 114.743 473.109 113.777 473.109 112.59C473.109 111.37 472.832 110.4 472.279 109.68C471.726 108.953 470.896 108.59 469.789 108.59C469.036 108.59 468.416 108.76 467.929 109.1C467.442 109.44 467.079 109.91 466.839 110.51C466.599 111.11 466.479 111.803 466.479 112.59C466.479 113.803 466.759 114.777 467.319 115.51C467.879 116.243 468.702 116.61 469.789 116.61ZM479.826 118V108.82H476.066V107.2H485.366V108.82H481.606V118H479.826ZM487.249 118L487.259 107.2H489.059V112.4L493.589 107.2H495.899L491.129 112.6L496.459 118H493.969L489.059 112.8V118H487.249ZM500.525 118.3C499.718 118.3 499.041 118.153 498.495 117.86C497.955 117.56 497.545 117.167 497.265 116.68C496.991 116.193 496.855 115.66 496.855 115.08C496.855 114.513 496.961 114.023 497.175 113.61C497.395 113.19 497.701 112.843 498.095 112.57C498.488 112.29 498.958 112.07 499.505 111.91C500.018 111.77 500.591 111.65 501.225 111.55C501.865 111.443 502.511 111.347 503.165 111.26C503.818 111.173 504.428 111.09 504.995 111.01L504.355 111.38C504.375 110.42 504.181 109.71 503.775 109.25C503.375 108.79 502.681 108.56 501.695 108.56C501.041 108.56 500.468 108.71 499.975 109.01C499.488 109.303 499.145 109.783 498.945 110.45L497.255 109.94C497.515 108.993 498.018 108.25 498.765 107.71C499.511 107.17 500.495 106.9 501.715 106.9C502.695 106.9 503.535 107.077 504.235 107.43C504.941 107.777 505.448 108.303 505.755 109.01C505.908 109.343 506.005 109.707 506.045 110.1C506.085 110.487 506.105 110.893 506.105 111.32V118H504.525V115.41L504.895 115.65C504.488 116.523 503.918 117.183 503.185 117.63C502.458 118.077 501.571 118.3 500.525 118.3ZM500.795 116.81C501.435 116.81 501.988 116.697 502.455 116.47C502.928 116.237 503.308 115.933 503.595 115.56C503.881 115.18 504.068 114.767 504.155 114.32C504.255 113.987 504.308 113.617 504.315 113.21C504.328 112.797 504.335 112.48 504.335 112.26L504.955 112.53C504.375 112.61 503.805 112.687 503.245 112.76C502.685 112.833 502.155 112.913 501.655 113C501.155 113.08 500.705 113.177 500.305 113.29C500.011 113.383 499.735 113.503 499.475 113.65C499.221 113.797 499.015 113.987 498.855 114.22C498.701 114.447 498.625 114.73 498.625 115.07C498.625 115.363 498.698 115.643 498.845 115.91C498.998 116.177 499.231 116.393 499.545 116.56C499.865 116.727 500.281 116.81 500.795 116.81ZM512.709 118V103.6H523.949V118H522.169V105.29H514.489V118H512.709ZM532.672 118.3C531.238 118.3 530.022 117.983 529.022 117.35C528.022 116.717 527.258 115.837 526.732 114.71C526.212 113.583 525.952 112.28 525.952 110.8C525.952 109.32 526.212 108.017 526.732 106.89C527.258 105.763 528.022 104.883 529.022 104.25C530.022 103.617 531.238 103.3 532.672 103.3C534.112 103.3 535.332 103.617 536.332 104.25C537.332 104.883 538.092 105.763 538.612 106.89C539.132 108.017 539.392 109.32 539.392 110.8C539.392 112.28 539.132 113.583 538.612 114.71C538.092 115.837 537.332 116.717 536.332 117.35C535.332 117.983 534.112 118.3 532.672 118.3ZM532.672 116.6C533.745 116.607 534.638 116.367 535.352 115.88C536.072 115.387 536.608 114.703 536.962 113.83C537.322 112.957 537.502 111.947 537.502 110.8C537.502 109.647 537.322 108.637 536.962 107.77C536.608 106.903 536.072 106.227 535.352 105.74C534.638 105.253 533.745 105.007 532.672 105C531.598 104.993 530.705 105.233 529.992 105.72C529.285 106.207 528.752 106.887 528.392 107.76C528.032 108.633 527.848 109.647 527.842 110.8C527.835 111.947 528.012 112.953 528.372 113.82C528.732 114.687 529.268 115.367 529.982 115.86C530.702 116.347 531.598 116.593 532.672 116.6Z" fill="#000206"/>
              <path d="M81.4 98V83.6H87.09C87.23 83.6 87.3967 83.6067 87.59 83.62C87.7833 83.6267 87.97 83.6467 88.15 83.68C88.93 83.8 89.5833 84.0667 90.11 84.48C90.6433 84.8933 91.0433 85.4167 91.31 86.05C91.5767 86.6767 91.71 87.3733 91.71 88.14C91.71 88.9 91.5733 89.5967 91.3 90.23C91.0333 90.8567 90.6333 91.38 90.1 91.8C89.5733 92.2133 88.9233 92.48 88.15 92.6C87.97 92.6267 87.7833 92.6467 87.59 92.66C87.3967 92.6733 87.23 92.68 87.09 92.68H83.18V98H81.4ZM83.18 90.99H87.03C87.1567 90.99 87.3 90.9833 87.46 90.97C87.6267 90.9567 87.7833 90.9333 87.93 90.9C88.39 90.7933 88.7633 90.6 89.05 90.32C89.3433 90.0333 89.5567 89.7 89.69 89.32C89.8233 88.9333 89.89 88.54 89.89 88.14C89.89 87.74 89.8233 87.35 89.69 86.97C89.5567 86.5833 89.3433 86.2467 89.05 85.96C88.7633 85.6733 88.39 85.48 87.93 85.38C87.7833 85.34 87.6267 85.3167 87.46 85.31C87.3 85.2967 87.1567 85.29 87.03 85.29H83.18V90.99ZM96.7747 98.3C95.968 98.3 95.2914 98.1533 94.7447 97.86C94.2047 97.56 93.7947 97.1667 93.5147 96.68C93.2414 96.1933 93.1047 95.66 93.1047 95.08C93.1047 94.5133 93.2114 94.0233 93.4247 93.61C93.6447 93.19 93.9514 92.8433 94.3447 92.57C94.738 92.29 95.208 92.07 95.7547 91.91C96.268 91.77 96.8414 91.65 97.4747 91.55C98.1147 91.4433 98.7614 91.3467 99.4147 91.26C100.068 91.1733 100.678 91.09 101.245 91.01L100.605 91.38C100.625 90.42 100.431 89.71 100.025 89.25C99.6247 88.79 98.9314 88.56 97.9447 88.56C97.2914 88.56 96.718 88.71 96.2247 89.01C95.738 89.3033 95.3947 89.7833 95.1947 90.45L93.5047 89.94C93.7647 88.9933 94.268 88.25 95.0147 87.71C95.7614 87.17 96.7447 86.9 97.9647 86.9C98.9447 86.9 99.7847 87.0767 100.485 87.43C101.191 87.7767 101.698 88.3033 102.005 89.01C102.158 89.3433 102.255 89.7067 102.295 90.1C102.335 90.4867 102.355 90.8933 102.355 91.32V98H100.775V95.41L101.145 95.65C100.738 96.5233 100.168 97.1833 99.4347 97.63C98.708 98.0767 97.8214 98.3 96.7747 98.3ZM97.0447 96.81C97.6847 96.81 98.238 96.6967 98.7047 96.47C99.178 96.2367 99.558 95.9333 99.8447 95.56C100.131 95.18 100.318 94.7667 100.405 94.32C100.505 93.9867 100.558 93.6167 100.565 93.21C100.578 92.7967 100.585 92.48 100.585 92.26L101.205 92.53C100.625 92.61 100.055 92.6867 99.4947 92.76C98.9347 92.8333 98.4047 92.9133 97.9047 93C97.4047 93.08 96.9547 93.1767 96.5547 93.29C96.2614 93.3833 95.9847 93.5033 95.7247 93.65C95.4714 93.7967 95.2647 93.9867 95.1047 94.22C94.9514 94.4467 94.8747 94.73 94.8747 95.07C94.8747 95.3633 94.948 95.6433 95.0947 95.91C95.248 96.1767 95.4814 96.3933 95.7947 96.56C96.1147 96.7267 96.5314 96.81 97.0447 96.81ZM108.825 98.3C107.758 98.3 106.815 98.07 105.995 97.61C105.175 97.1433 104.528 96.5033 104.055 95.69L105.475 94.77C105.868 95.3633 106.338 95.82 106.885 96.14C107.431 96.4533 108.055 96.61 108.755 96.61C109.488 96.61 110.071 96.4433 110.505 96.11C110.938 95.77 111.155 95.3133 111.155 94.74C111.155 94.3133 111.048 93.9867 110.835 93.76C110.621 93.5333 110.315 93.3767 109.915 93.29C109.515 93.2033 109.038 93.16 108.485 93.16H107.365V91.69H108.475C109.175 91.69 109.745 91.5767 110.185 91.35C110.625 91.1233 110.845 90.7367 110.845 90.19C110.845 89.63 110.638 89.2233 110.225 88.97C109.818 88.71 109.331 88.58 108.765 88.58C108.165 88.58 107.591 88.7067 107.045 88.96C106.498 89.2067 106.028 89.52 105.635 89.9L104.555 88.69C105.115 88.1167 105.758 87.6767 106.485 87.37C107.218 87.0567 108.015 86.9 108.875 86.9C109.568 86.9 110.201 87.0233 110.775 87.27C111.355 87.51 111.815 87.8667 112.155 88.34C112.501 88.8067 112.675 89.3767 112.675 90.05C112.675 90.6233 112.541 91.1333 112.275 91.58C112.008 92.0267 111.615 92.4167 111.095 92.75L111.025 92.12C111.465 92.2267 111.828 92.4233 112.115 92.71C112.408 92.99 112.625 93.3233 112.765 93.71C112.905 94.0967 112.975 94.5 112.975 94.92C112.975 95.6267 112.788 96.2333 112.415 96.74C112.048 97.24 111.551 97.6267 110.925 97.9C110.298 98.1667 109.598 98.3 108.825 98.3ZM120.13 98.3C119.116 98.3 118.263 98.05 117.57 97.55C116.876 97.0433 116.35 96.36 115.99 95.5C115.636 94.6333 115.46 93.6633 115.46 92.59C115.46 91.5033 115.636 90.53 115.99 89.67C116.35 88.81 116.876 88.1333 117.57 87.64C118.27 87.1467 119.126 86.9 120.14 86.9C121.14 86.9 122 87.15 122.72 87.65C123.446 88.1433 124.003 88.82 124.39 89.68C124.776 90.54 124.97 91.51 124.97 92.59C124.97 93.67 124.776 94.64 124.39 95.5C124.003 96.36 123.446 97.0433 122.72 97.55C122 98.05 121.136 98.3 120.13 98.3ZM115.16 102.8V87.2H116.75V95.15H116.95V102.8H115.16ZM119.91 96.67C120.623 96.67 121.213 96.49 121.68 96.13C122.146 95.77 122.496 95.2833 122.73 94.67C122.963 94.05 123.08 93.3567 123.08 92.59C123.08 91.83 122.963 91.1433 122.73 90.53C122.503 89.9167 122.15 89.43 121.67 89.07C121.196 88.71 120.593 88.53 119.86 88.53C119.16 88.53 118.58 88.7033 118.12 89.05C117.66 89.39 117.316 89.8667 117.09 90.48C116.863 91.0867 116.75 91.79 116.75 92.59C116.75 93.3767 116.86 94.08 117.08 94.7C117.306 95.3133 117.653 95.7967 118.12 96.15C118.586 96.4967 119.183 96.67 119.91 96.67ZM130.232 98.3C129.425 98.3 128.748 98.1533 128.202 97.86C127.662 97.56 127.252 97.1667 126.972 96.68C126.698 96.1933 126.562 95.66 126.562 95.08C126.562 94.5133 126.668 94.0233 126.882 93.61C127.102 93.19 127.408 92.8433 127.802 92.57C128.195 92.29 128.665 92.07 129.212 91.91C129.725 91.77 130.298 91.65 130.932 91.55C131.572 91.4433 132.218 91.3467 132.872 91.26C133.525 91.1733 134.135 91.09 134.702 91.01L134.062 91.38C134.082 90.42 133.888 89.71 133.482 89.25C133.082 88.79 132.388 88.56 131.402 88.56C130.748 88.56 130.175 88.71 129.682 89.01C129.195 89.3033 128.852 89.7833 128.652 90.45L126.962 89.94C127.222 88.9933 127.725 88.25 128.472 87.71C129.218 87.17 130.202 86.9 131.422 86.9C132.402 86.9 133.242 87.0767 133.942 87.43C134.648 87.7767 135.155 88.3033 135.462 89.01C135.615 89.3433 135.712 89.7067 135.752 90.1C135.792 90.4867 135.812 90.8933 135.812 91.32V98H134.232V95.41L134.602 95.65C134.195 96.5233 133.625 97.1833 132.892 97.63C132.165 98.0767 131.278 98.3 130.232 98.3ZM130.502 96.81C131.142 96.81 131.695 96.6967 132.162 96.47C132.635 96.2367 133.015 95.9333 133.302 95.56C133.588 95.18 133.775 94.7667 133.862 94.32C133.962 93.9867 134.015 93.6167 134.022 93.21C134.035 92.7967 134.042 92.48 134.042 92.26L134.662 92.53C134.082 92.61 133.512 92.6867 132.952 92.76C132.392 92.8333 131.862 92.9133 131.362 93C130.862 93.08 130.412 93.1767 130.012 93.29C129.718 93.3833 129.442 93.5033 129.182 93.65C128.928 93.7967 128.722 93.9867 128.562 94.22C128.408 94.4467 128.332 94.73 128.332 95.07C128.332 95.3633 128.405 95.6433 128.552 95.91C128.705 96.1767 128.938 96.3933 129.252 96.56C129.572 96.7267 129.988 96.81 130.502 96.81ZM142.802 98.31C141.782 98.3033 140.912 98.0833 140.192 97.65C139.472 97.21 138.912 96.5667 138.512 95.72C138.112 94.8733 137.888 93.8367 137.842 92.61C137.815 92.0433 137.822 91.42 137.862 90.74C137.908 90.06 137.982 89.4067 138.082 88.78C138.188 88.1533 138.322 87.6367 138.482 87.23C138.662 86.7433 138.915 86.2933 139.242 85.88C139.575 85.46 139.948 85.1133 140.362 84.84C140.782 84.5533 141.252 84.33 141.772 84.17C142.292 84.01 142.835 83.8867 143.402 83.8C143.975 83.7067 144.548 83.6267 145.122 83.56C145.695 83.4867 146.242 83.4 146.762 83.3L146.942 84.9C146.575 84.98 146.142 85.05 145.642 85.11C145.142 85.1633 144.622 85.2267 144.082 85.3C143.548 85.3733 143.035 85.4767 142.542 85.61C142.055 85.7367 141.635 85.9133 141.282 86.14C140.762 86.4533 140.362 86.9233 140.082 87.55C139.808 88.17 139.642 88.8667 139.582 89.64C139.995 89 140.532 88.53 141.192 88.23C141.852 87.93 142.555 87.78 143.302 87.78C144.268 87.78 145.102 88.0067 145.802 88.46C146.502 88.9067 147.038 89.5233 147.412 90.31C147.792 91.0967 147.982 91.9933 147.982 93C147.982 94.0667 147.768 95 147.342 95.8C146.915 96.6 146.312 97.22 145.532 97.66C144.758 98.1 143.848 98.3167 142.802 98.31ZM142.912 96.62C143.958 96.62 144.752 96.2967 145.292 95.65C145.832 94.9967 146.102 94.13 146.102 93.05C146.102 91.9433 145.822 91.0733 145.262 90.44C144.702 89.8 143.915 89.48 142.902 89.48C141.875 89.48 141.088 89.8 140.542 90.44C140.002 91.0733 139.732 91.9433 139.732 93.05C139.732 94.1633 140.005 95.0367 140.552 95.67C141.098 96.3033 141.885 96.62 142.912 96.62ZM154.789 98.3C153.716 98.3 152.789 98.0567 152.009 97.57C151.236 97.0833 150.639 96.41 150.219 95.55C149.799 94.69 149.589 93.7033 149.589 92.59C149.589 91.4567 149.802 90.4633 150.229 89.61C150.656 88.7567 151.259 88.0933 152.039 87.62C152.819 87.14 153.736 86.9 154.789 86.9C155.869 86.9 156.799 87.1433 157.579 87.63C158.359 88.11 158.956 88.78 159.369 89.64C159.789 90.4933 159.999 91.4767 159.999 92.59C159.999 93.7167 159.789 94.71 159.369 95.57C158.949 96.4233 158.349 97.0933 157.569 97.58C156.789 98.06 155.862 98.3 154.789 98.3ZM154.789 96.61C155.909 96.61 156.742 96.2367 157.289 95.49C157.836 94.7433 158.109 93.7767 158.109 92.59C158.109 91.37 157.832 90.4 157.279 89.68C156.726 88.9533 155.896 88.59 154.789 88.59C154.036 88.59 153.416 88.76 152.929 89.1C152.442 89.44 152.079 89.91 151.839 90.51C151.599 91.11 151.479 91.8033 151.479 92.59C151.479 93.8033 151.759 94.7767 152.319 95.51C152.879 96.2433 153.702 96.61 154.789 96.61ZM164.826 98V88.82H161.066V87.2H170.366V88.82H166.606V98H164.826ZM172.249 98L172.259 87.2H174.059V92.4L178.589 87.2H180.899L176.129 92.6L181.459 98H178.969L174.059 92.8V98H172.249ZM185.525 98.3C184.718 98.3 184.041 98.1533 183.495 97.86C182.955 97.56 182.545 97.1667 182.265 96.68C181.991 96.1933 181.855 95.66 181.855 95.08C181.855 94.5133 181.961 94.0233 182.175 93.61C182.395 93.19 182.701 92.8433 183.095 92.57C183.488 92.29 183.958 92.07 184.505 91.91C185.018 91.77 185.591 91.65 186.225 91.55C186.865 91.4433 187.511 91.3467 188.165 91.26C188.818 91.1733 189.428 91.09 189.995 91.01L189.355 91.38C189.375 90.42 189.181 89.71 188.775 89.25C188.375 88.79 187.681 88.56 186.695 88.56C186.041 88.56 185.468 88.71 184.975 89.01C184.488 89.3033 184.145 89.7833 183.945 90.45L182.255 89.94C182.515 88.9933 183.018 88.25 183.765 87.71C184.511 87.17 185.495 86.9 186.715 86.9C187.695 86.9 188.535 87.0767 189.235 87.43C189.941 87.7767 190.448 88.3033 190.755 89.01C190.908 89.3433 191.005 89.7067 191.045 90.1C191.085 90.4867 191.105 90.8933 191.105 91.32V98H189.525V95.41L189.895 95.65C189.488 96.5233 188.918 97.1833 188.185 97.63C187.458 98.0767 186.571 98.3 185.525 98.3ZM185.795 96.81C186.435 96.81 186.988 96.6967 187.455 96.47C187.928 96.2367 188.308 95.9333 188.595 95.56C188.881 95.18 189.068 94.7667 189.155 94.32C189.255 93.9867 189.308 93.6167 189.315 93.21C189.328 92.7967 189.335 92.48 189.335 92.26L189.955 92.53C189.375 92.61 188.805 92.6867 188.245 92.76C187.685 92.8333 187.155 92.9133 186.655 93C186.155 93.08 185.705 93.1767 185.305 93.29C185.011 93.3833 184.735 93.5033 184.475 93.65C184.221 93.7967 184.015 93.9867 183.855 94.22C183.701 94.4467 183.625 94.73 183.625 95.07C183.625 95.3633 183.698 95.6433 183.845 95.91C183.998 96.1767 184.231 96.3933 184.545 96.56C184.865 96.7267 185.281 96.81 185.795 96.81ZM201.419 98V85.29H196.509V83.6H208.109V85.29H203.199V98H201.419ZM214.471 98.3C213.484 98.3 212.624 98.1567 211.891 97.87C211.164 97.5767 210.561 97.1967 210.081 96.73C209.607 96.2567 209.247 95.75 209.001 95.21L210.581 94.23C210.741 94.65 210.987 95.04 211.321 95.4C211.661 95.76 212.094 96.05 212.621 96.27C213.154 96.49 213.794 96.6 214.541 96.6C215.301 96.6 215.937 96.4833 216.451 96.25C216.964 96.01 217.347 95.6867 217.601 95.28C217.861 94.8667 217.991 94.3933 217.991 93.86C217.991 93.2533 217.841 92.7867 217.541 92.46C217.241 92.1267 216.837 91.8933 216.331 91.76C215.831 91.62 215.277 91.54 214.671 91.52C214.197 91.5 213.857 91.4867 213.651 91.48C213.444 91.4733 213.304 91.47 213.231 91.47C213.164 91.47 213.101 91.47 213.041 91.47V89.77C213.101 89.77 213.227 89.77 213.421 89.77C213.614 89.77 213.817 89.77 214.031 89.77C214.244 89.7633 214.414 89.7567 214.541 89.75C215.434 89.7033 216.144 89.4767 216.671 89.07C217.197 88.6567 217.461 88.09 217.461 87.37C217.461 86.6233 217.191 86.04 216.651 85.62C216.117 85.2 215.421 84.99 214.561 84.99C213.747 84.99 213.054 85.18 212.481 85.56C211.914 85.94 211.461 86.43 211.121 87.03L209.751 85.86C210.217 85.12 210.864 84.51 211.691 84.03C212.524 83.5433 213.497 83.3 214.611 83.3C215.224 83.3 215.814 83.3833 216.381 83.55C216.954 83.71 217.461 83.9567 217.901 84.29C218.347 84.6167 218.701 85.0333 218.961 85.54C219.221 86.04 219.351 86.6333 219.351 87.32C219.351 88.06 219.194 88.7167 218.881 89.29C218.567 89.8633 218.157 90.3067 217.651 90.62C218.351 90.8533 218.897 91.24 219.291 91.78C219.684 92.32 219.881 93.02 219.881 93.88C219.881 94.78 219.651 95.56 219.191 96.22C218.737 96.88 218.104 97.3933 217.291 97.76C216.477 98.12 215.537 98.3 214.471 98.3ZM221.18 100.24L221.29 99.41C221.57 99.43 221.78 99.3767 221.92 99.25C222.06 99.1233 222.15 98.95 222.19 98.73C222.23 98.51 222.237 98.2667 222.21 98H221.18V95.74H223.14V98.3C223.14 99 222.967 99.5267 222.62 99.88C222.28 100.233 221.8 100.353 221.18 100.24ZM81.39 118V107.2H90.24V118H88.46V108.89H83.17V118H81.39ZM97.6406 118.3C96.5673 118.3 95.6406 118.057 94.8606 117.57C94.0873 117.083 93.4906 116.41 93.0706 115.55C92.6506 114.69 92.4406 113.703 92.4406 112.59C92.4406 111.457 92.654 110.463 93.0806 109.61C93.5073 108.757 94.1106 108.093 94.8906 107.62C95.6706 107.14 96.5873 106.9 97.6406 106.9C98.7206 106.9 99.6506 107.143 100.431 107.63C101.211 108.11 101.807 108.78 102.221 109.64C102.641 110.493 102.851 111.477 102.851 112.59C102.851 113.717 102.641 114.71 102.221 115.57C101.801 116.423 101.201 117.093 100.421 117.58C99.6406 118.06 98.714 118.3 97.6406 118.3ZM97.6406 116.61C98.7606 116.61 99.594 116.237 100.141 115.49C100.687 114.743 100.961 113.777 100.961 112.59C100.961 111.37 100.684 110.4 100.131 109.68C99.5773 108.953 98.7473 108.59 97.6406 108.59C96.8873 108.59 96.2673 108.76 95.7806 109.1C95.294 109.44 94.9306 109.91 94.6906 110.51C94.4506 111.11 94.3306 111.803 94.3306 112.59C94.3306 113.803 94.6106 114.777 95.1706 115.51C95.7306 116.243 96.554 116.61 97.6406 116.61ZM104.252 120.4V116.53C104.859 116.53 105.292 116.333 105.552 115.94C105.812 115.54 106.022 114.883 106.182 113.97C106.289 113.397 106.376 112.783 106.442 112.13C106.509 111.477 106.566 110.75 106.612 109.95C106.666 109.143 106.716 108.227 106.762 107.2H114.202V116.53H115.252V120.4H113.552V118H105.952V120.4H104.252ZM106.992 116.53H112.422V108.67H108.372C108.352 109.143 108.326 109.64 108.292 110.16C108.259 110.673 108.219 111.187 108.172 111.7C108.132 112.213 108.082 112.7 108.022 113.16C107.969 113.613 107.906 114.02 107.832 114.38C107.746 114.88 107.646 115.303 107.532 115.65C107.419 115.997 107.239 116.29 106.992 116.53ZM117.259 118V107.2H124.759V108.89H119.039V118H117.259ZM131.059 118.3C129.985 118.3 129.059 118.057 128.279 117.57C127.505 117.083 126.909 116.41 126.489 115.55C126.069 114.69 125.859 113.703 125.859 112.59C125.859 111.457 126.072 110.463 126.499 109.61C126.925 108.757 127.529 108.093 128.309 107.62C129.089 107.14 130.005 106.9 131.059 106.9C132.139 106.9 133.069 107.143 133.849 107.63C134.629 108.11 135.225 108.78 135.639 109.64C136.059 110.493 136.269 111.477 136.269 112.59C136.269 113.717 136.059 114.71 135.639 115.57C135.219 116.423 134.619 117.093 133.839 117.58C133.059 118.06 132.132 118.3 131.059 118.3ZM131.059 116.61C132.179 116.61 133.012 116.237 133.559 115.49C134.105 114.743 134.379 113.777 134.379 112.59C134.379 111.37 134.102 110.4 133.549 109.68C132.995 108.953 132.165 108.59 131.059 108.59C130.305 108.59 129.685 108.76 129.199 109.1C128.712 109.44 128.349 109.91 128.109 110.51C127.869 111.11 127.749 111.803 127.749 112.59C127.749 113.803 128.029 114.777 128.589 115.51C129.149 116.243 129.972 116.61 131.059 116.61ZM141.096 118V108.82H137.336V107.2H146.636V108.82H142.876V118H141.096ZM152.934 118.3C151.86 118.3 150.934 118.057 150.154 117.57C149.38 117.083 148.784 116.41 148.364 115.55C147.944 114.69 147.734 113.703 147.734 112.59C147.734 111.457 147.947 110.463 148.374 109.61C148.8 108.757 149.404 108.093 150.184 107.62C150.964 107.14 151.88 106.9 152.934 106.9C154.014 106.9 154.944 107.143 155.724 107.63C156.504 108.11 157.1 108.78 157.514 109.64C157.934 110.493 158.144 111.477 158.144 112.59C158.144 113.717 157.934 114.71 157.514 115.57C157.094 116.423 156.494 117.093 155.714 117.58C154.934 118.06 154.007 118.3 152.934 118.3ZM152.934 116.61C154.054 116.61 154.887 116.237 155.434 115.49C155.98 114.743 156.254 113.777 156.254 112.59C156.254 111.37 155.977 110.4 155.424 109.68C154.87 108.953 154.04 108.59 152.934 108.59C152.18 108.59 151.56 108.76 151.074 109.1C150.587 109.44 150.224 109.91 149.984 110.51C149.744 111.11 149.624 111.803 149.624 112.59C149.624 113.803 149.904 114.777 150.464 115.51C151.024 116.243 151.847 116.61 152.934 116.61ZM160.335 118V107.2H164.935C165.209 107.2 165.502 107.217 165.815 107.25C166.135 107.277 166.425 107.327 166.685 107.4C167.265 107.553 167.742 107.87 168.115 108.35C168.495 108.823 168.685 109.423 168.685 110.15C168.685 110.557 168.622 110.91 168.495 111.21C168.375 111.51 168.202 111.77 167.975 111.99C167.875 112.09 167.765 112.18 167.645 112.26C167.525 112.34 167.405 112.403 167.285 112.45C167.519 112.49 167.755 112.58 167.995 112.72C168.375 112.927 168.672 113.217 168.885 113.59C169.105 113.963 169.215 114.44 169.215 115.02C169.215 115.753 169.039 116.36 168.685 116.84C168.332 117.313 167.845 117.64 167.225 117.82C166.965 117.893 166.679 117.943 166.365 117.97C166.052 117.99 165.749 118 165.455 118H160.335ZM162.135 116.55H165.355C165.495 116.55 165.662 116.537 165.855 116.51C166.055 116.483 166.232 116.45 166.385 116.41C166.732 116.31 166.982 116.123 167.135 115.85C167.295 115.577 167.375 115.28 167.375 114.96C167.375 114.533 167.255 114.187 167.015 113.92C166.782 113.653 166.472 113.487 166.085 113.42C165.945 113.38 165.792 113.357 165.625 113.35C165.465 113.343 165.322 113.34 165.195 113.34H162.135V116.55ZM162.135 111.87H164.815C165.002 111.87 165.199 111.86 165.405 111.84C165.612 111.813 165.792 111.77 165.945 111.71C166.252 111.597 166.475 111.41 166.615 111.15C166.762 110.883 166.835 110.593 166.835 110.28C166.835 109.933 166.755 109.63 166.595 109.37C166.442 109.103 166.205 108.92 165.885 108.82C165.672 108.74 165.432 108.697 165.165 108.69C164.905 108.677 164.739 108.67 164.665 108.67H162.135V111.87ZM171.214 118L171.224 107.2H173.024V112.4L177.554 107.2H179.864L175.094 112.6L180.424 118H177.934L173.024 112.8V118H171.214ZM184.49 118.3C183.683 118.3 183.006 118.153 182.46 117.86C181.92 117.56 181.51 117.167 181.23 116.68C180.956 116.193 180.82 115.66 180.82 115.08C180.82 114.513 180.926 114.023 181.14 113.61C181.36 113.19 181.666 112.843 182.06 112.57C182.453 112.29 182.923 112.07 183.47 111.91C183.983 111.77 184.556 111.65 185.19 111.55C185.83 111.443 186.476 111.347 187.13 111.26C187.783 111.173 188.393 111.09 188.96 111.01L188.32 111.38C188.34 110.42 188.146 109.71 187.74 109.25C187.34 108.79 186.646 108.56 185.66 108.56C185.006 108.56 184.433 108.71 183.94 109.01C183.453 109.303 183.11 109.783 182.91 110.45L181.22 109.94C181.48 108.993 181.983 108.25 182.73 107.71C183.476 107.17 184.46 106.9 185.68 106.9C186.66 106.9 187.5 107.077 188.2 107.43C188.906 107.777 189.413 108.303 189.72 109.01C189.873 109.343 189.97 109.707 190.01 110.1C190.05 110.487 190.07 110.893 190.07 111.32V118H188.49V115.41L188.86 115.65C188.453 116.523 187.883 117.183 187.15 117.63C186.423 118.077 185.536 118.3 184.49 118.3ZM184.76 116.81C185.4 116.81 185.953 116.697 186.42 116.47C186.893 116.237 187.273 115.933 187.56 115.56C187.846 115.18 188.033 114.767 188.12 114.32C188.22 113.987 188.273 113.617 188.28 113.21C188.293 112.797 188.3 112.48 188.3 112.26L188.92 112.53C188.34 112.61 187.77 112.687 187.21 112.76C186.65 112.833 186.12 112.913 185.62 113C185.12 113.08 184.67 113.177 184.27 113.29C183.976 113.383 183.7 113.503 183.44 113.65C183.186 113.797 182.98 113.987 182.82 114.22C182.666 114.447 182.59 114.73 182.59 115.07C182.59 115.363 182.663 115.643 182.81 115.91C182.963 116.177 183.196 116.393 183.51 116.56C183.83 116.727 184.246 116.81 184.76 116.81ZM80.6 140.4V136.53C81.2067 136.53 81.64 136.333 81.9 135.94C82.16 135.54 82.37 134.883 82.53 133.97C82.6367 133.397 82.7233 132.783 82.79 132.13C82.8567 131.477 82.9133 130.75 82.96 129.95C83.0133 129.143 83.0633 128.227 83.11 127.2H90.55V136.53H91.6V140.4H89.9V138H82.3V140.4H80.6ZM83.34 136.53H88.77V128.67H84.72C84.7 129.143 84.6733 129.64 84.64 130.16C84.6067 130.673 84.5667 131.187 84.52 131.7C84.48 132.213 84.43 132.7 84.37 133.16C84.3167 133.613 84.2533 134.02 84.18 134.38C84.0933 134.88 83.9933 135.303 83.88 135.65C83.7667 135.997 83.5867 136.29 83.34 136.53ZM98.207 138.3C97.1337 138.3 96.207 138.057 95.427 137.57C94.6537 137.083 94.057 136.41 93.637 135.55C93.217 134.69 93.007 133.703 93.007 132.59C93.007 131.457 93.2204 130.463 93.647 129.61C94.0737 128.757 94.677 128.093 95.457 127.62C96.237 127.14 97.1537 126.9 98.207 126.9C99.287 126.9 100.217 127.143 100.997 127.63C101.777 128.11 102.374 128.78 102.787 129.64C103.207 130.493 103.417 131.477 103.417 132.59C103.417 133.717 103.207 134.71 102.787 135.57C102.367 136.423 101.767 137.093 100.987 137.58C100.207 138.06 99.2804 138.3 98.207 138.3ZM98.207 136.61C99.327 136.61 100.16 136.237 100.707 135.49C101.254 134.743 101.527 133.777 101.527 132.59C101.527 131.37 101.25 130.4 100.697 129.68C100.144 128.953 99.3137 128.59 98.207 128.59C97.4537 128.59 96.8337 128.76 96.347 129.1C95.8604 129.44 95.497 129.91 95.257 130.51C95.017 131.11 94.897 131.803 94.897 132.59C94.897 133.803 95.177 134.777 95.737 135.51C96.297 136.243 97.1204 136.61 98.207 136.61ZM105.609 138L105.619 127.2H107.419V132.4L111.949 127.2H114.259L109.489 132.6L114.819 138H112.329L107.419 132.8V138H105.609ZM117.314 142.8L119.404 137.12L119.434 138.8L114.714 127.2H116.584L120.284 136.53H119.644L123.114 127.2H124.924L119.044 142.8H117.314ZM126.566 138V127.2H128.096L132.196 135.58L136.296 127.2H137.826V138H136.106V130.91L132.666 138H131.726L128.286 130.91V138H126.566ZM145.299 138.3C144.239 138.3 143.312 138.067 142.519 137.6C141.732 137.127 141.119 136.47 140.679 135.63C140.239 134.783 140.019 133.797 140.019 132.67C140.019 131.49 140.235 130.47 140.669 129.61C141.102 128.743 141.705 128.077 142.479 127.61C143.259 127.137 144.172 126.9 145.219 126.9C146.305 126.9 147.229 127.15 147.989 127.65C148.755 128.15 149.329 128.863 149.709 129.79C150.095 130.717 150.262 131.82 150.209 133.1H148.409V132.46C148.389 131.133 148.119 130.143 147.599 129.49C147.079 128.83 146.305 128.5 145.279 128.5C144.179 128.5 143.342 128.853 142.769 129.56C142.195 130.267 141.909 131.28 141.909 132.6C141.909 133.873 142.195 134.86 142.769 135.56C143.342 136.26 144.159 136.61 145.219 136.61C145.932 136.61 146.552 136.447 147.079 136.12C147.605 135.793 148.019 135.323 148.319 134.71L150.029 135.3C149.609 136.253 148.975 136.993 148.129 137.52C147.289 138.04 146.345 138.3 145.299 138.3ZM141.309 133.1V131.67H149.289V133.1H141.309ZM152.425 138V127.2H154.205V131.75H159.885V127.2H161.665V138H159.885V133.44H154.205V138H152.425ZM167.326 138V128.82H163.566V127.2H172.866V128.82H169.106V138H167.326ZM177.478 138.3C176.671 138.3 175.994 138.153 175.448 137.86C174.908 137.56 174.498 137.167 174.218 136.68C173.944 136.193 173.808 135.66 173.808 135.08C173.808 134.513 173.914 134.023 174.128 133.61C174.348 133.19 174.654 132.843 175.048 132.57C175.441 132.29 175.911 132.07 176.458 131.91C176.971 131.77 177.544 131.65 178.178 131.55C178.818 131.443 179.464 131.347 180.118 131.26C180.771 131.173 181.381 131.09 181.948 131.01L181.308 131.38C181.328 130.42 181.134 129.71 180.728 129.25C180.328 128.79 179.634 128.56 178.648 128.56C177.994 128.56 177.421 128.71 176.928 129.01C176.441 129.303 176.098 129.783 175.898 130.45L174.208 129.94C174.468 128.993 174.971 128.25 175.718 127.71C176.464 127.17 177.448 126.9 178.668 126.9C179.648 126.9 180.488 127.077 181.188 127.43C181.894 127.777 182.401 128.303 182.708 129.01C182.861 129.343 182.958 129.707 182.998 130.1C183.038 130.487 183.058 130.893 183.058 131.32V138H181.478V135.41L181.848 135.65C181.441 136.523 180.871 137.183 180.138 137.63C179.411 138.077 178.524 138.3 177.478 138.3ZM177.748 136.81C178.388 136.81 178.941 136.697 179.408 136.47C179.881 136.237 180.261 135.933 180.548 135.56C180.834 135.18 181.021 134.767 181.108 134.32C181.208 133.987 181.261 133.617 181.268 133.21C181.281 132.797 181.288 132.48 181.288 132.26L181.908 132.53C181.328 132.61 180.758 132.687 180.198 132.76C179.638 132.833 179.108 132.913 178.608 133C178.108 133.08 177.658 133.177 177.258 133.29C176.964 133.383 176.688 133.503 176.428 133.65C176.174 133.797 175.968 133.987 175.808 134.22C175.654 134.447 175.578 134.73 175.578 135.07C175.578 135.363 175.651 135.643 175.798 135.91C175.951 136.177 176.184 136.393 176.498 136.56C176.818 136.727 177.234 136.81 177.748 136.81ZM194.858 140V138H185.648V127.2H187.428V136.31H192.718V127.2H194.498V136.38H196.638V140H194.858ZM207.076 127.2V138H205.356V130.04L199.696 138H198.226V127.2H199.946V135.05L205.616 127.2H207.076ZM218.717 127.2V138H216.997V130.04L211.337 138H209.867V127.2H211.587V135.05L217.257 127.2H218.717Z" fill="white"/>
              </svg>