<svg width="1404" height="221" viewBox="0 0 1404 221" fill="none" xmlns="http://www.w3.org/2000/svg">
              <path d="M66.97 0.929325L524 0.929365C535.05 0.929366 544 9.7618 544 20.6666L544 201.263C544 212.168 535.05 221 524 221L66.95 221C59.43 221 52.54 216.835 49.13 210.214L2.60999 120.044C-0.29003 114.429 -0.290029 107.777 2.61 102.152L49.14 11.7256C52.55 5.10375 59.44 0.929325 66.97 0.929325Z" fill="#F2F2F2"/>
              <path d="M998 220.5L519.95 220.5C512.844 220.5 506.318 216.688 502.896 210.583L502.574 209.984L456.055 119.814C453.317 114.514 453.231 108.266 455.798 102.897L456.055 102.381L502.585 11.9541C505.908 5.5012 512.625 1.42974 519.97 1.42964L998 1.42969C1008.78 1.42969 1017.5 10.0445 1017.5 20.667L1017.5 201.263C1017.5 211.885 1008.78 220.5 998 220.5Z" fill="white" stroke="#254E6C"/>
              <path d="M994.97 0.929331L1384 0.929365C1395.05 0.929366 1404 9.7618 1404 20.6666L1404 201.263C1404 212.168 1395.05 221 1384 221L994.95 221C987.43 221 980.54 216.835 977.13 210.214L930.61 120.044C927.71 114.429 927.71 107.777 930.61 102.152L977.14 11.7256C980.55 5.10375 987.44 0.929331 994.97 0.929331Z" fill="#254E6C"/>
              <path d="M104.61 97V80.44H106.657V88.214L113.902 80.44H116.478L108.957 88.4785L117.065 97H114.42L106.657 88.904V97H104.61ZM123.04 97.345C121.805 97.345 120.74 97.0652 119.843 96.5055C118.953 95.9458 118.267 95.1715 117.784 94.1825C117.301 93.1935 117.06 92.0588 117.06 90.7785C117.06 89.4752 117.305 88.3328 117.796 87.3515C118.286 86.3702 118.98 85.6073 119.877 85.063C120.774 84.511 121.828 84.235 123.04 84.235C124.282 84.235 125.351 84.5148 126.248 85.0745C127.145 85.6265 127.831 86.397 128.307 87.386C128.79 88.3673 129.031 89.4982 129.031 90.7785C129.031 92.0742 128.79 93.2165 128.307 94.2055C127.824 95.1868 127.134 95.9573 126.237 96.517C125.34 97.069 124.274 97.345 123.04 97.345ZM123.04 95.4015C124.328 95.4015 125.286 94.9722 125.915 94.1135C126.543 93.2548 126.858 92.1432 126.858 90.7785C126.858 89.3755 126.539 88.26 125.903 87.432C125.267 86.5963 124.312 86.1785 123.04 86.1785C122.173 86.1785 121.46 86.374 120.901 86.765C120.341 87.156 119.923 87.6965 119.647 88.3865C119.371 89.0765 119.233 89.8738 119.233 90.7785C119.233 92.1738 119.555 93.2932 120.199 94.1365C120.843 94.9798 121.79 95.4015 123.04 95.4015ZM131.552 97V84.58H133.311L138.026 94.217L142.741 84.58H144.501V97H142.523V88.8465L138.567 97H137.486L133.53 88.8465V97H131.552ZM147.701 97V84.58H157.879V97H155.832V86.5235H149.748V97H147.701ZM159.949 97V95.2405C160.409 95.3248 160.758 95.3095 160.996 95.1945C161.241 95.0718 161.421 94.861 161.536 94.562C161.659 94.2553 161.759 93.872 161.835 93.412C161.966 92.6837 162.077 91.871 162.169 90.974C162.268 90.077 162.357 89.0957 162.433 88.03C162.518 86.9567 162.594 85.8067 162.663 84.58H171.346V97H169.299V86.5235H164.526C164.48 87.2288 164.423 87.9533 164.354 88.697C164.292 89.4407 164.227 90.1652 164.158 90.8705C164.089 91.5682 164.013 92.2198 163.928 92.8255C163.852 93.4235 163.767 93.941 163.675 94.378C163.53 95.1293 163.326 95.7312 163.066 96.1835C162.805 96.6282 162.429 96.9157 161.939 97.046C161.448 97.184 160.785 97.1687 159.949 97ZM179.958 97.345C178.739 97.345 177.673 97.0767 176.761 96.54C175.856 95.9957 175.151 95.2405 174.645 94.2745C174.139 93.3008 173.886 92.1662 173.886 90.8705C173.886 89.5135 174.135 88.3405 174.633 87.3515C175.132 86.3548 175.825 85.5882 176.715 85.0515C177.612 84.5072 178.662 84.235 179.866 84.235C181.115 84.235 182.177 84.5225 183.051 85.0975C183.933 85.6725 184.592 86.4928 185.029 87.5585C185.474 88.6242 185.666 89.893 185.604 91.365H183.534V90.629C183.511 89.1033 183.201 87.9648 182.603 87.2135C182.005 86.4545 181.115 86.075 179.935 86.075C178.67 86.075 177.708 86.4813 177.048 87.294C176.389 88.1067 176.059 89.272 176.059 90.79C176.059 92.2543 176.389 93.389 177.048 94.194C177.708 94.999 178.647 95.4015 179.866 95.4015C180.686 95.4015 181.399 95.2137 182.005 94.838C182.61 94.4623 183.086 93.9218 183.431 93.2165L185.397 93.895C184.914 94.9913 184.186 95.8423 183.212 96.448C182.246 97.046 181.161 97.345 179.958 97.345ZM175.369 91.365V89.7205H184.546V91.365H175.369ZM188.153 97L188.165 84.58H190.235V90.56L195.444 84.58H198.101L192.615 90.79L198.745 97H195.881L190.235 91.02V97H188.153ZM204.897 97.345C203.64 97.345 202.57 97.0652 201.689 96.5055C200.815 95.9382 200.148 95.16 199.688 94.171C199.228 93.182 198.99 92.055 198.975 90.79C198.99 89.4943 199.232 88.3558 199.699 87.3745C200.175 86.3855 200.853 85.615 201.735 85.063C202.616 84.511 203.678 84.235 204.92 84.235C206.231 84.235 207.358 84.557 208.301 85.201C209.252 85.845 209.888 86.7267 210.21 87.846L208.186 88.4555C207.926 87.7348 207.5 87.1752 206.91 86.7765C206.327 86.3778 205.656 86.1785 204.897 86.1785C204.046 86.1785 203.345 86.3778 202.793 86.7765C202.241 87.1675 201.831 87.7118 201.562 88.4095C201.294 89.0995 201.156 89.893 201.148 90.79C201.164 92.17 201.482 93.2855 202.103 94.1365C202.731 94.9798 203.663 95.4015 204.897 95.4015C205.71 95.4015 206.385 95.2175 206.921 94.8495C207.458 94.4738 207.864 93.9333 208.14 93.228L210.21 93.7685C209.781 94.9262 209.11 95.8117 208.198 96.425C207.285 97.0383 206.185 97.345 204.897 97.345ZM212.546 97V84.58H214.593V89.8125H221.125V84.58H223.172V97H221.125V91.756H214.593V97H212.546ZM231.683 97.345C230.449 97.345 229.383 97.0652 228.486 96.5055C227.597 95.9458 226.911 95.1715 226.428 94.1825C225.945 93.1935 225.703 92.0588 225.703 90.7785C225.703 89.4752 225.949 88.3328 226.439 87.3515C226.93 86.3702 227.624 85.6073 228.521 85.063C229.418 84.511 230.472 84.235 231.683 84.235C232.925 84.235 233.995 84.5148 234.892 85.0745C235.789 85.6265 236.475 86.397 236.95 87.386C237.433 88.3673 237.675 89.4982 237.675 90.7785C237.675 92.0742 237.433 93.2165 236.95 94.2055C236.467 95.1868 235.777 95.9573 234.88 96.517C233.983 97.069 232.918 97.345 231.683 97.345ZM231.683 95.4015C232.971 95.4015 233.93 94.9722 234.558 94.1135C235.187 93.2548 235.501 92.1432 235.501 90.7785C235.501 89.3755 235.183 88.26 234.547 87.432C233.91 86.5963 232.956 86.1785 231.683 86.1785C230.817 86.1785 230.104 86.374 229.544 86.765C228.985 87.156 228.567 87.6965 228.291 88.3865C228.015 89.0765 227.877 89.8738 227.877 90.7785C227.877 92.1738 228.199 93.2932 228.843 94.1365C229.487 94.9798 230.434 95.4015 231.683 95.4015ZM245.589 97.345C244.37 97.345 243.304 97.0767 242.392 96.54C241.487 95.9957 240.782 95.2405 240.276 94.2745C239.77 93.3008 239.517 92.1662 239.517 90.8705C239.517 89.5135 239.766 88.3405 240.264 87.3515C240.763 86.3548 241.456 85.5882 242.346 85.0515C243.243 84.5072 244.293 84.235 245.497 84.235C246.746 84.235 247.808 84.5225 248.682 85.0975C249.564 85.6725 250.223 86.4928 250.66 87.5585C251.105 88.6242 251.297 89.893 251.235 91.365H249.165V90.629C249.142 89.1033 248.832 87.9648 248.234 87.2135C247.636 86.4545 246.746 86.075 245.566 86.075C244.301 86.075 243.339 86.4813 242.679 87.294C242.02 88.1067 241.69 89.272 241.69 90.79C241.69 92.2543 242.02 93.389 242.679 94.194C243.339 94.999 244.278 95.4015 245.497 95.4015C246.317 95.4015 247.03 95.2137 247.636 94.838C248.241 94.4623 248.717 93.9218 249.062 93.2165L251.028 93.895C250.545 94.9913 249.817 95.8423 248.843 96.448C247.877 97.046 246.792 97.345 245.589 97.345ZM241 91.365V89.7205H250.177V91.365H241ZM107.899 120V109.443H103.575V107.58H114.27V109.443H109.946V120H107.899ZM121.829 120.345C120.61 120.345 119.544 120.077 118.632 119.54C117.727 118.996 117.022 118.24 116.516 117.274C116.01 116.301 115.757 115.166 115.757 113.87C115.757 112.513 116.006 111.34 116.504 110.351C117.003 109.355 117.697 108.588 118.586 108.051C119.483 107.507 120.533 107.235 121.737 107.235C122.987 107.235 124.048 107.522 124.922 108.097C125.804 108.672 126.463 109.493 126.9 110.558C127.345 111.624 127.537 112.893 127.475 114.365H125.405V113.629C125.382 112.103 125.072 110.965 124.474 110.213C123.876 109.454 122.987 109.075 121.806 109.075C120.541 109.075 119.579 109.481 118.919 110.294C118.26 111.107 117.93 112.272 117.93 113.79C117.93 115.254 118.26 116.389 118.919 117.194C119.579 117.999 120.518 118.401 121.737 118.401C122.557 118.401 123.27 118.214 123.876 117.838C124.482 117.462 124.957 116.922 125.302 116.216L127.268 116.895C126.785 117.991 126.057 118.842 125.083 119.448C124.117 120.046 123.033 120.345 121.829 120.345ZM117.24 114.365V112.72H126.417V114.365H117.24ZM135.268 120.345C134.011 120.345 132.941 120.065 132.06 119.505C131.186 118.938 130.519 118.16 130.059 117.171C129.599 116.182 129.361 115.055 129.346 113.79C129.361 112.494 129.603 111.356 130.07 110.374C130.546 109.385 131.224 108.615 132.106 108.063C132.987 107.511 134.049 107.235 135.291 107.235C136.602 107.235 137.729 107.557 138.672 108.201C139.623 108.845 140.259 109.727 140.581 110.846L138.557 111.455C138.297 110.735 137.871 110.175 137.281 109.776C136.698 109.378 136.027 109.178 135.268 109.178C134.417 109.178 133.716 109.378 133.164 109.776C132.612 110.167 132.202 110.712 131.933 111.409C131.665 112.099 131.527 112.893 131.519 113.79C131.535 115.17 131.853 116.285 132.474 117.136C133.102 117.98 134.034 118.401 135.268 118.401C136.081 118.401 136.756 118.217 137.292 117.849C137.829 117.474 138.235 116.933 138.511 116.228L140.581 116.768C140.152 117.926 139.481 118.812 138.569 119.425C137.656 120.038 136.556 120.345 135.268 120.345ZM145.993 120V109.443H141.669V107.58H152.364V109.443H148.04V120H145.993ZM164.707 107.58V120H162.729V110.846L156.22 120H154.529V107.58H156.507V116.607L163.028 107.58H164.707ZM173.631 120.345C172.466 120.345 171.485 120.058 170.687 119.482C169.89 118.9 169.284 118.114 168.87 117.125C168.464 116.128 168.261 115.013 168.261 113.778C168.261 112.529 168.464 111.409 168.87 110.42C169.284 109.431 169.89 108.653 170.687 108.086C171.492 107.519 172.478 107.235 173.643 107.235C174.793 107.235 175.782 107.522 176.61 108.097C177.446 108.665 178.086 109.443 178.53 110.432C178.975 111.421 179.197 112.536 179.197 113.778C179.197 115.02 178.975 116.136 178.53 117.125C178.086 118.114 177.446 118.9 176.61 119.482C175.782 120.058 174.789 120.345 173.631 120.345ZM167.916 125.52V107.58H169.744V116.722H169.974V125.52H167.916ZM173.378 118.47C174.199 118.47 174.877 118.263 175.414 117.849C175.951 117.435 176.353 116.876 176.621 116.17C176.89 115.457 177.024 114.66 177.024 113.778C177.024 112.904 176.89 112.115 176.621 111.409C176.361 110.704 175.954 110.144 175.402 109.73C174.858 109.316 174.164 109.109 173.321 109.109C172.516 109.109 171.849 109.309 171.32 109.707C170.791 110.098 170.396 110.647 170.135 111.352C169.875 112.05 169.744 112.858 169.744 113.778C169.744 114.683 169.871 115.492 170.124 116.205C170.385 116.91 170.783 117.466 171.32 117.872C171.857 118.271 172.543 118.47 173.378 118.47ZM187.008 120.345C185.774 120.345 184.708 120.065 183.811 119.505C182.922 118.946 182.236 118.171 181.753 117.182C181.27 116.193 181.028 115.059 181.028 113.778C181.028 112.475 181.274 111.333 181.764 110.351C182.255 109.37 182.949 108.607 183.846 108.063C184.743 107.511 185.797 107.235 187.008 107.235C188.25 107.235 189.32 107.515 190.217 108.074C191.114 108.626 191.8 109.397 192.275 110.386C192.758 111.367 193 112.498 193 113.778C193 115.074 192.758 116.216 192.275 117.205C191.792 118.187 191.102 118.957 190.205 119.517C189.308 120.069 188.243 120.345 187.008 120.345ZM187.008 118.401C188.296 118.401 189.255 117.972 189.883 117.113C190.512 116.255 190.826 115.143 190.826 113.778C190.826 112.375 190.508 111.26 189.872 110.432C189.236 109.596 188.281 109.178 187.008 109.178C186.142 109.178 185.429 109.374 184.869 109.765C184.31 110.156 183.892 110.696 183.616 111.386C183.34 112.076 183.202 112.874 183.202 113.778C183.202 115.174 183.524 116.293 184.168 117.136C184.812 117.98 185.759 118.401 187.008 118.401ZM195.52 120V107.58H200.81C201.125 107.58 201.462 107.599 201.822 107.637C202.19 107.668 202.524 107.726 202.823 107.81C203.49 107.986 204.038 108.35 204.467 108.902C204.904 109.447 205.123 110.137 205.123 110.972C205.123 111.44 205.05 111.846 204.904 112.191C204.766 112.536 204.567 112.835 204.306 113.088C204.191 113.203 204.065 113.307 203.927 113.399C203.789 113.491 203.651 113.564 203.513 113.617C203.781 113.663 204.053 113.767 204.329 113.928C204.766 114.166 205.108 114.499 205.353 114.928C205.606 115.358 205.732 115.906 205.732 116.573C205.732 117.416 205.529 118.114 205.123 118.666C204.717 119.21 204.157 119.586 203.444 119.793C203.145 119.877 202.815 119.935 202.455 119.965C202.095 119.988 201.746 120 201.408 120H195.52ZM197.59 118.332H201.293C201.454 118.332 201.646 118.317 201.868 118.286C202.098 118.256 202.302 118.217 202.478 118.171C202.877 118.056 203.164 117.842 203.34 117.527C203.524 117.213 203.616 116.872 203.616 116.504C203.616 116.013 203.478 115.615 203.202 115.308C202.934 115.001 202.578 114.81 202.133 114.733C201.972 114.687 201.796 114.66 201.604 114.652C201.42 114.645 201.255 114.641 201.109 114.641H197.59V118.332ZM197.59 112.95H200.672C200.887 112.95 201.113 112.939 201.351 112.916C201.589 112.885 201.796 112.835 201.972 112.766C202.325 112.636 202.581 112.421 202.742 112.122C202.911 111.816 202.995 111.482 202.995 111.122C202.995 110.723 202.903 110.374 202.719 110.075C202.543 109.769 202.271 109.558 201.903 109.443C201.658 109.351 201.382 109.301 201.075 109.293C200.776 109.278 200.584 109.27 200.5 109.27H197.59V112.95ZM211.573 120.345C210.645 120.345 209.867 120.176 209.239 119.839C208.618 119.494 208.146 119.042 207.824 118.482C207.51 117.922 207.353 117.309 207.353 116.642C207.353 115.99 207.475 115.427 207.721 114.951C207.974 114.468 208.326 114.07 208.779 113.755C209.231 113.433 209.771 113.18 210.4 112.996C210.99 112.835 211.65 112.697 212.378 112.582C213.114 112.46 213.858 112.349 214.609 112.249C215.36 112.149 216.062 112.053 216.714 111.961L215.978 112.387C216.001 111.283 215.778 110.466 215.311 109.937C214.851 109.408 214.053 109.144 212.919 109.144C212.167 109.144 211.508 109.316 210.941 109.661C210.381 109.999 209.986 110.551 209.756 111.317L207.813 110.731C208.112 109.642 208.69 108.787 209.549 108.166C210.408 107.545 211.539 107.235 212.942 107.235C214.069 107.235 215.035 107.438 215.84 107.844C216.652 108.243 217.235 108.849 217.588 109.661C217.764 110.045 217.875 110.463 217.921 110.915C217.967 111.36 217.99 111.827 217.99 112.318V120H216.173V117.021L216.599 117.297C216.131 118.302 215.475 119.061 214.632 119.574C213.796 120.088 212.777 120.345 211.573 120.345ZM211.884 118.631C212.62 118.631 213.256 118.501 213.793 118.24C214.337 117.972 214.774 117.623 215.104 117.194C215.433 116.757 215.648 116.282 215.748 115.768C215.863 115.385 215.924 114.959 215.932 114.491C215.947 114.016 215.955 113.652 215.955 113.399L216.668 113.709C216.001 113.801 215.345 113.89 214.701 113.974C214.057 114.058 213.448 114.15 212.873 114.25C212.298 114.342 211.78 114.453 211.32 114.583C210.983 114.691 210.665 114.829 210.366 114.997C210.074 115.166 209.837 115.385 209.653 115.653C209.476 115.914 209.388 116.239 209.388 116.63C209.388 116.968 209.472 117.29 209.641 117.596C209.817 117.903 210.086 118.152 210.446 118.344C210.814 118.536 211.293 118.631 211.884 118.631ZM220.969 120V107.58H223.016V112.812H229.548V107.58H231.595V120H229.548V114.756H223.016V120H220.969ZM244.982 107.58V120H243.004V110.846L236.495 120H234.805V107.58H236.783V116.607L243.303 107.58H244.982ZM253.585 120.345C252.366 120.345 251.3 120.077 250.388 119.54C249.483 118.996 248.778 118.24 248.272 117.274C247.766 116.301 247.513 115.166 247.513 113.87C247.513 112.513 247.762 111.34 248.26 110.351C248.759 109.355 249.452 108.588 250.342 108.051C251.239 107.507 252.289 107.235 253.493 107.235C254.742 107.235 255.804 107.522 256.678 108.097C257.56 108.672 258.219 109.493 258.656 110.558C259.101 111.624 259.293 112.893 259.231 114.365H257.161V113.629C257.138 112.103 256.828 110.965 256.23 110.213C255.632 109.454 254.742 109.075 253.562 109.075C252.297 109.075 251.335 109.481 250.675 110.294C250.016 111.107 249.686 112.272 249.686 113.79C249.686 115.254 250.016 116.389 250.675 117.194C251.335 117.999 252.274 118.401 253.493 118.401C254.313 118.401 255.026 118.214 255.632 117.838C256.237 117.462 256.713 116.922 257.058 116.216L259.024 116.895C258.541 117.991 257.813 118.842 256.839 119.448C255.873 120.046 254.788 120.345 253.585 120.345ZM248.996 114.365V112.72H258.173V114.365H248.996ZM266.385 120V107.58H268.432V112.812H274.964V107.58H277.011V120H274.964V114.756H268.432V120H266.385ZM283.763 120.345C282.835 120.345 282.057 120.176 281.428 119.839C280.807 119.494 280.336 119.042 280.014 118.482C279.699 117.922 279.542 117.309 279.542 116.642C279.542 115.99 279.665 115.427 279.91 114.951C280.163 114.468 280.516 114.07 280.968 113.755C281.42 113.433 281.961 113.18 282.59 112.996C283.18 112.835 283.839 112.697 284.568 112.582C285.304 112.46 286.047 112.349 286.799 112.249C287.55 112.149 288.251 112.053 288.903 111.961L288.167 112.387C288.19 111.283 287.968 110.466 287.5 109.937C287.04 109.408 286.243 109.144 285.108 109.144C284.357 109.144 283.697 109.316 283.13 109.661C282.57 109.999 282.176 110.551 281.946 111.317L280.002 110.731C280.301 109.642 280.88 108.787 281.739 108.166C282.597 107.545 283.728 107.235 285.131 107.235C286.258 107.235 287.224 107.438 288.029 107.844C288.842 108.243 289.424 108.849 289.777 109.661C289.953 110.045 290.065 110.463 290.111 110.915C290.157 111.36 290.18 111.827 290.18 112.318V120H288.363V117.021L288.788 117.297C288.32 118.302 287.665 119.061 286.822 119.574C285.986 120.088 284.966 120.345 283.763 120.345ZM284.073 118.631C284.809 118.631 285.445 118.501 285.982 118.24C286.526 117.972 286.963 117.623 287.293 117.194C287.623 116.757 287.837 116.282 287.937 115.768C288.052 115.385 288.113 114.959 288.121 114.491C288.136 114.016 288.144 113.652 288.144 113.399L288.857 113.709C288.19 113.801 287.535 113.89 286.891 113.974C286.247 114.058 285.637 114.15 285.062 114.25C284.487 114.342 283.97 114.453 283.51 114.583C283.172 114.691 282.854 114.829 282.555 114.997C282.264 115.166 282.026 115.385 281.842 115.653C281.666 115.914 281.578 116.239 281.578 116.63C281.578 116.968 281.662 117.29 281.831 117.596C282.007 117.903 282.275 118.152 282.636 118.344C283.004 118.536 283.483 118.631 284.073 118.631ZM297.763 120V107.58H303.053C303.367 107.58 303.704 107.599 304.065 107.637C304.433 107.668 304.766 107.726 305.065 107.81C305.732 107.986 306.28 108.35 306.71 108.902C307.147 109.447 307.365 110.137 307.365 110.972C307.365 111.44 307.292 111.846 307.147 112.191C307.009 112.536 306.809 112.835 306.549 113.088C306.434 113.203 306.307 113.307 306.169 113.399C306.031 113.491 305.893 113.564 305.755 113.617C306.023 113.663 306.296 113.767 306.572 113.928C307.009 114.166 307.35 114.499 307.595 114.928C307.848 115.358 307.975 115.906 307.975 116.573C307.975 117.416 307.771 118.114 307.365 118.666C306.959 119.21 306.399 119.586 305.686 119.793C305.387 119.877 305.057 119.935 304.697 119.965C304.337 119.988 303.988 120 303.651 120H297.763ZM299.833 118.332H303.536C303.697 118.332 303.888 118.317 304.111 118.286C304.341 118.256 304.544 118.217 304.72 118.171C305.119 118.056 305.406 117.842 305.583 117.527C305.767 117.213 305.859 116.872 305.859 116.504C305.859 116.013 305.721 115.615 305.445 115.308C305.176 115.001 304.82 114.81 304.375 114.733C304.214 114.687 304.038 114.66 303.846 114.652C303.662 114.645 303.497 114.641 303.352 114.641H299.833V118.332ZM299.833 112.95H302.915C303.129 112.95 303.355 112.939 303.593 112.916C303.831 112.885 304.038 112.835 304.214 112.766C304.567 112.636 304.824 112.421 304.985 112.122C305.153 111.816 305.238 111.482 305.238 111.122C305.238 110.723 305.146 110.374 304.962 110.075C304.785 109.769 304.513 109.558 304.145 109.443C303.9 109.351 303.624 109.301 303.317 109.293C303.018 109.278 302.826 109.27 302.742 109.27H299.833V112.95ZM315.517 120.345C314.26 120.345 313.19 120.065 312.309 119.505C311.435 118.938 310.768 118.16 310.308 117.171C309.848 116.182 309.61 115.055 309.595 113.79C309.61 112.494 309.852 111.356 310.319 110.374C310.795 109.385 311.473 108.615 312.355 108.063C313.236 107.511 314.298 107.235 315.54 107.235C316.851 107.235 317.978 107.557 318.921 108.201C319.872 108.845 320.508 109.727 320.83 110.846L318.806 111.455C318.546 110.735 318.12 110.175 317.53 109.776C316.947 109.378 316.276 109.178 315.517 109.178C314.666 109.178 313.965 109.378 313.413 109.776C312.861 110.167 312.451 110.712 312.182 111.409C311.914 112.099 311.776 112.893 311.768 113.79C311.784 115.17 312.102 116.285 312.723 117.136C313.351 117.98 314.283 118.401 315.517 118.401C316.33 118.401 317.005 118.217 317.541 117.849C318.078 117.474 318.484 116.933 318.76 116.228L320.83 116.768C320.401 117.926 319.73 118.812 318.818 119.425C317.905 120.038 316.805 120.345 315.517 120.345ZM328.559 120.345C327.34 120.345 326.275 120.077 325.362 119.54C324.458 118.996 323.752 118.24 323.246 117.274C322.74 116.301 322.487 115.166 322.487 113.87C322.487 112.513 322.737 111.34 323.235 110.351C323.733 109.355 324.427 108.588 325.316 108.051C326.213 107.507 327.264 107.235 328.467 107.235C329.717 107.235 330.779 107.522 331.653 108.097C332.535 108.672 333.194 109.493 333.631 110.558C334.076 111.624 334.267 112.893 334.206 114.365H332.136V113.629C332.113 112.103 331.802 110.965 331.204 110.213C330.606 109.454 329.717 109.075 328.536 109.075C327.271 109.075 326.309 109.481 325.65 110.294C324.991 111.107 324.661 112.272 324.661 113.79C324.661 115.254 324.991 116.389 325.65 117.194C326.309 117.999 327.248 118.401 328.467 118.401C329.288 118.401 330.001 118.214 330.606 117.838C331.212 117.462 331.687 116.922 332.032 116.216L333.999 116.895C333.516 117.991 332.788 118.842 331.814 119.448C330.848 120.046 329.763 120.345 328.559 120.345ZM323.971 114.365V112.72H333.148V114.365H323.971ZM334.937 120L339.687 113.721L335.041 107.58H337.479L340.883 112.134L344.252 107.58H346.69L342.044 113.721L346.805 120H344.356L340.883 115.308L337.387 120H334.937ZM109.084 143.345C107.803 143.345 106.707 143.038 105.795 142.425C104.882 141.812 104.204 140.926 103.759 139.768L105.829 139.228C106.113 139.933 106.523 140.474 107.06 140.849C107.604 141.217 108.275 141.401 109.072 141.401C110.184 141.401 111.046 141.06 111.66 140.378C112.273 139.688 112.637 138.772 112.752 137.629H107.669V135.939H112.752C112.645 134.827 112.292 133.923 111.694 133.225C111.096 132.527 110.237 132.178 109.118 132.178C108.344 132.178 107.661 132.374 107.071 132.765C106.488 133.156 106.059 133.719 105.783 134.455L103.759 133.846C104.089 132.727 104.729 131.845 105.68 131.201C106.63 130.557 107.769 130.235 109.095 130.235C110.322 130.235 111.376 130.511 112.258 131.063C113.139 131.615 113.814 132.385 114.282 133.374C114.757 134.363 114.995 135.506 114.995 136.801C114.995 138.089 114.761 139.224 114.293 140.205C113.825 141.187 113.151 141.957 112.269 142.517C111.387 143.069 110.326 143.345 109.084 143.345ZM120.545 143V132.443H116.221V130.58H126.916V132.443H122.592V143H120.545ZM132.219 143.345C131.291 143.345 130.513 143.176 129.884 142.839C129.263 142.494 128.792 142.042 128.47 141.482C128.155 140.922 127.998 140.309 127.998 139.642C127.998 138.99 128.121 138.427 128.366 137.951C128.619 137.468 128.972 137.07 129.424 136.755C129.876 136.433 130.417 136.18 131.046 135.996C131.636 135.835 132.295 135.697 133.024 135.582C133.76 135.46 134.503 135.349 135.255 135.249C136.006 135.149 136.707 135.053 137.359 134.961L136.623 135.387C136.646 134.283 136.424 133.466 135.956 132.937C135.496 132.408 134.699 132.144 133.564 132.144C132.813 132.144 132.153 132.316 131.586 132.661C131.026 132.999 130.632 133.551 130.402 134.317L128.458 133.731C128.757 132.642 129.336 131.787 130.195 131.166C131.053 130.545 132.184 130.235 133.587 130.235C134.714 130.235 135.68 130.438 136.485 130.844C137.298 131.243 137.88 131.849 138.233 132.661C138.409 133.045 138.521 133.463 138.567 133.915C138.613 134.36 138.636 134.827 138.636 135.318V143H136.819V140.021L137.244 140.297C136.776 141.302 136.121 142.061 135.278 142.574C134.442 143.088 133.422 143.345 132.219 143.345ZM132.529 141.631C133.265 141.631 133.901 141.501 134.438 141.24C134.982 140.972 135.419 140.623 135.749 140.194C136.079 139.757 136.293 139.282 136.393 138.768C136.508 138.385 136.569 137.959 136.577 137.491C136.592 137.016 136.6 136.652 136.6 136.399L137.313 136.709C136.646 136.801 135.991 136.89 135.347 136.974C134.703 137.058 134.093 137.15 133.518 137.25C132.943 137.342 132.426 137.453 131.966 137.583C131.628 137.691 131.31 137.829 131.011 137.997C130.72 138.166 130.482 138.385 130.298 138.653C130.122 138.914 130.034 139.239 130.034 139.63C130.034 139.968 130.118 140.29 130.287 140.596C130.463 140.903 130.731 141.152 131.092 141.344C131.46 141.536 131.939 141.631 132.529 141.631ZM141.614 143V130.58H151.792V143H149.745V132.523H143.661V143H141.614ZM158.543 143.345C157.615 143.345 156.837 143.176 156.208 142.839C155.587 142.494 155.116 142.042 154.794 141.482C154.48 140.922 154.322 140.309 154.322 139.642C154.322 138.99 154.445 138.427 154.69 137.951C154.943 137.468 155.296 137.07 155.748 136.755C156.201 136.433 156.741 136.18 157.37 135.996C157.96 135.835 158.62 135.697 159.348 135.582C160.084 135.46 160.828 135.349 161.579 135.249C162.33 135.149 163.032 135.053 163.683 134.961L162.947 135.387C162.97 134.283 162.748 133.466 162.28 132.937C161.82 132.408 161.023 132.144 159.888 132.144C159.137 132.144 158.478 132.316 157.91 132.661C157.351 132.999 156.956 133.551 156.726 134.317L154.782 133.731C155.081 132.642 155.66 131.787 156.519 131.166C157.378 130.545 158.508 130.235 159.911 130.235C161.038 130.235 162.004 130.438 162.809 130.844C163.622 131.243 164.205 131.849 164.557 132.661C164.734 133.045 164.845 133.463 164.891 133.915C164.937 134.36 164.96 134.827 164.96 135.318V143H163.143V140.021L163.568 140.297C163.101 141.302 162.445 142.061 161.602 142.574C160.766 143.088 159.747 143.345 158.543 143.345ZM158.853 141.631C159.589 141.631 160.226 141.501 160.762 141.24C161.307 140.972 161.744 140.623 162.073 140.194C162.403 139.757 162.618 139.282 162.717 138.768C162.832 138.385 162.894 137.959 162.901 137.491C162.917 137.016 162.924 136.652 162.924 136.399L163.637 136.709C162.97 136.801 162.315 136.89 161.671 136.974C161.027 137.058 160.417 137.15 159.842 137.25C159.267 137.342 158.75 137.453 158.29 137.583C157.953 137.691 157.634 137.829 157.335 137.997C157.044 138.166 156.806 138.385 156.622 138.653C156.446 138.914 156.358 139.239 156.358 139.63C156.358 139.968 156.442 140.29 156.611 140.596C156.787 140.903 157.056 141.152 157.416 141.344C157.784 141.536 158.263 141.631 158.853 141.631ZM166.57 143L171.319 136.721L166.673 130.58H169.111L172.515 135.134L175.885 130.58H178.323L173.677 136.721L178.438 143H175.988L172.515 138.308L169.019 143H166.57ZM190.589 143.345C189.424 143.345 188.443 143.058 187.645 142.482C186.848 141.9 186.242 141.114 185.828 140.125C185.422 139.128 185.219 138.013 185.219 136.778C185.219 135.529 185.422 134.409 185.828 133.42C186.242 132.431 186.848 131.653 187.645 131.086C188.45 130.519 189.436 130.235 190.601 130.235C191.751 130.235 192.74 130.522 193.568 131.097C194.404 131.665 195.044 132.443 195.488 133.432C195.933 134.421 196.155 135.536 196.155 136.778C196.155 138.02 195.933 139.136 195.488 140.125C195.044 141.114 194.404 141.9 193.568 142.482C192.74 143.058 191.747 143.345 190.589 143.345ZM184.874 148.52V130.58H186.702V139.722H186.932V148.52H184.874ZM190.336 141.47C191.157 141.47 191.835 141.263 192.372 140.849C192.909 140.435 193.311 139.876 193.579 139.17C193.848 138.457 193.982 137.66 193.982 136.778C193.982 135.904 193.848 135.115 193.579 134.409C193.319 133.704 192.912 133.144 192.36 132.73C191.816 132.316 191.122 132.109 190.279 132.109C189.474 132.109 188.807 132.309 188.278 132.707C187.749 133.098 187.354 133.647 187.093 134.352C186.833 135.05 186.702 135.858 186.702 136.778C186.702 137.683 186.829 138.492 187.082 139.205C187.343 139.91 187.741 140.466 188.278 140.872C188.815 141.271 189.501 141.47 190.336 141.47ZM202.207 143.345C201.279 143.345 200.501 143.176 199.872 142.839C199.251 142.494 198.78 142.042 198.458 141.482C198.144 140.922 197.986 140.309 197.986 139.642C197.986 138.99 198.109 138.427 198.354 137.951C198.607 137.468 198.96 137.07 199.412 136.755C199.865 136.433 200.405 136.18 201.034 135.996C201.624 135.835 202.284 135.697 203.012 135.582C203.748 135.46 204.492 135.349 205.243 135.249C205.994 135.149 206.696 135.053 207.347 134.961L206.611 135.387C206.634 134.283 206.412 133.466 205.944 132.937C205.484 132.408 204.687 132.144 203.552 132.144C202.801 132.144 202.142 132.316 201.574 132.661C201.015 132.999 200.62 133.551 200.39 134.317L198.446 133.731C198.745 132.642 199.324 131.787 200.183 131.166C201.042 130.545 202.172 130.235 203.575 130.235C204.702 130.235 205.668 130.438 206.473 130.844C207.286 131.243 207.869 131.849 208.221 132.661C208.398 133.045 208.509 133.463 208.555 133.915C208.601 134.36 208.624 134.827 208.624 135.318V143H206.807V140.021L207.232 140.297C206.765 141.302 206.109 142.061 205.266 142.574C204.43 143.088 203.411 143.345 202.207 143.345ZM202.517 141.631C203.253 141.631 203.89 141.501 204.426 141.24C204.971 140.972 205.408 140.623 205.737 140.194C206.067 139.757 206.282 139.282 206.381 138.768C206.496 138.385 206.558 137.959 206.565 137.491C206.581 137.016 206.588 136.652 206.588 136.399L207.301 136.709C206.634 136.801 205.979 136.89 205.335 136.974C204.691 137.058 204.081 137.15 203.506 137.25C202.931 137.342 202.414 137.453 201.954 137.583C201.617 137.691 201.298 137.829 200.999 137.997C200.708 138.166 200.47 138.385 200.286 138.653C200.11 138.914 200.022 139.239 200.022 139.63C200.022 139.968 200.106 140.29 200.275 140.596C200.451 140.903 200.72 141.152 201.08 141.344C201.448 141.536 201.927 141.631 202.517 141.631ZM216.064 143.345C214.838 143.345 213.753 143.081 212.81 142.551C211.867 142.015 211.123 141.279 210.579 140.343L212.212 139.285C212.664 139.968 213.205 140.493 213.833 140.861C214.462 141.221 215.179 141.401 215.984 141.401C216.827 141.401 217.498 141.21 217.996 140.826C218.495 140.435 218.744 139.91 218.744 139.251C218.744 138.76 218.621 138.385 218.376 138.124C218.131 137.863 217.778 137.683 217.318 137.583C216.858 137.484 216.31 137.434 215.673 137.434H214.385V135.743H215.662C216.467 135.743 217.122 135.613 217.628 135.352C218.134 135.092 218.387 134.647 218.387 134.018C218.387 133.374 218.15 132.907 217.674 132.615C217.207 132.316 216.647 132.167 215.995 132.167C215.305 132.167 214.646 132.313 214.017 132.604C213.389 132.888 212.848 133.248 212.396 133.685L211.154 132.293C211.798 131.634 212.538 131.128 213.373 130.775C214.217 130.415 215.133 130.235 216.122 130.235C216.919 130.235 217.648 130.377 218.307 130.66C218.974 130.936 219.503 131.347 219.894 131.891C220.293 132.428 220.492 133.083 220.492 133.857C220.492 134.517 220.339 135.103 220.032 135.617C219.725 136.131 219.273 136.579 218.675 136.962L218.594 136.238C219.1 136.361 219.518 136.587 219.848 136.916C220.185 137.238 220.434 137.622 220.595 138.066C220.756 138.511 220.837 138.975 220.837 139.458C220.837 140.271 220.622 140.968 220.193 141.551C219.771 142.126 219.2 142.571 218.479 142.885C217.759 143.192 216.954 143.345 216.064 143.345ZM229.065 143.345C227.9 143.345 226.918 143.058 226.121 142.482C225.324 141.9 224.718 141.114 224.304 140.125C223.898 139.128 223.694 138.013 223.694 136.778C223.694 135.529 223.898 134.409 224.304 133.42C224.718 132.431 225.324 131.653 226.121 131.086C226.926 130.519 227.911 130.235 229.076 130.235C230.226 130.235 231.215 130.522 232.043 131.097C232.879 131.665 233.519 132.443 233.964 133.432C234.409 134.421 234.631 135.536 234.631 136.778C234.631 138.02 234.409 139.136 233.964 140.125C233.519 141.114 232.879 141.9 232.043 142.482C231.215 143.058 230.223 143.345 229.065 143.345ZM223.349 148.52V130.58H225.178V139.722H225.408V148.52H223.349ZM228.812 141.47C229.632 141.47 230.311 141.263 230.847 140.849C231.384 140.435 231.787 139.876 232.055 139.17C232.323 138.457 232.457 137.66 232.457 136.778C232.457 135.904 232.323 135.115 232.055 134.409C231.794 133.704 231.388 133.144 230.836 132.73C230.292 132.316 229.598 132.109 228.754 132.109C227.949 132.109 227.282 132.309 226.753 132.707C226.224 133.098 225.83 133.647 225.569 134.352C225.308 135.05 225.178 135.858 225.178 136.778C225.178 137.683 225.304 138.492 225.557 139.205C225.818 139.91 226.217 140.466 226.753 140.872C227.29 141.271 227.976 141.47 228.812 141.47ZM240.682 143.345C239.755 143.345 238.977 143.176 238.348 142.839C237.727 142.494 237.255 142.042 236.933 141.482C236.619 140.922 236.462 140.309 236.462 139.642C236.462 138.99 236.585 138.427 236.83 137.951C237.083 137.468 237.436 137.07 237.888 136.755C238.34 136.433 238.881 136.18 239.509 135.996C240.1 135.835 240.759 135.697 241.487 135.582C242.223 135.46 242.967 135.349 243.718 135.249C244.47 135.149 245.171 135.053 245.823 134.961L245.087 135.387C245.11 134.283 244.888 133.466 244.42 132.937C243.96 132.408 243.163 132.144 242.028 132.144C241.277 132.144 240.617 132.316 240.05 132.661C239.49 132.999 239.095 133.551 238.865 134.317L236.922 133.731C237.221 132.642 237.8 131.787 238.658 131.166C239.517 130.545 240.648 130.235 242.051 130.235C243.178 130.235 244.144 130.438 244.949 130.844C245.762 131.243 246.344 131.849 246.697 132.661C246.873 133.045 246.984 133.463 247.03 133.915C247.076 134.36 247.099 134.827 247.099 135.318V143H245.282V140.021L245.708 140.297C245.24 141.302 244.585 142.061 243.741 142.574C242.906 143.088 241.886 143.345 240.682 143.345ZM240.993 141.631C241.729 141.631 242.365 141.501 242.902 141.24C243.446 140.972 243.883 140.623 244.213 140.194C244.543 139.757 244.757 139.282 244.857 138.768C244.972 138.385 245.033 137.959 245.041 137.491C245.056 137.016 245.064 136.652 245.064 136.399L245.777 136.709C245.11 136.801 244.454 136.89 243.81 136.974C243.166 137.058 242.557 137.15 241.982 137.25C241.407 137.342 240.889 137.453 240.429 137.583C240.092 137.691 239.774 137.829 239.475 137.997C239.184 138.166 238.946 138.385 238.762 138.653C238.586 138.914 238.497 139.239 238.497 139.63C238.497 139.968 238.582 140.29 238.75 140.596C238.927 140.903 239.195 141.152 239.555 141.344C239.923 141.536 240.403 141.631 240.993 141.631ZM255.138 143.357C253.965 143.349 252.964 143.096 252.136 142.597C251.308 142.091 250.664 141.352 250.204 140.378C249.744 139.404 249.488 138.212 249.434 136.801C249.403 136.15 249.411 135.433 249.457 134.651C249.511 133.869 249.595 133.118 249.71 132.397C249.833 131.676 249.986 131.082 250.17 130.614C250.377 130.055 250.668 129.537 251.044 129.062C251.427 128.579 251.857 128.18 252.332 127.866C252.815 127.536 253.355 127.279 253.953 127.095C254.551 126.911 255.176 126.77 255.828 126.67C256.487 126.563 257.147 126.471 257.806 126.394C258.465 126.31 259.094 126.21 259.692 126.095L259.899 127.935C259.477 128.027 258.979 128.107 258.404 128.176C257.829 128.238 257.231 128.311 256.61 128.395C255.997 128.479 255.406 128.598 254.839 128.751C254.279 128.897 253.796 129.1 253.39 129.361C252.792 129.721 252.332 130.262 252.01 130.982C251.696 131.695 251.504 132.497 251.435 133.386C251.91 132.65 252.527 132.109 253.286 131.764C254.045 131.419 254.854 131.247 255.713 131.247C256.825 131.247 257.783 131.508 258.588 132.029C259.393 132.543 260.01 133.252 260.439 134.156C260.876 135.061 261.095 136.092 261.095 137.25C261.095 138.477 260.85 139.55 260.359 140.47C259.868 141.39 259.174 142.103 258.277 142.609C257.388 143.115 256.342 143.364 255.138 143.357ZM255.264 141.413C256.468 141.413 257.38 141.041 258.001 140.297C258.622 139.546 258.933 138.549 258.933 137.307C258.933 136.035 258.611 135.034 257.967 134.306C257.323 133.57 256.418 133.202 255.253 133.202C254.072 133.202 253.168 133.57 252.539 134.306C251.918 135.034 251.607 136.035 251.607 137.307C251.607 138.588 251.922 139.592 252.55 140.32C253.179 141.049 254.084 141.413 255.264 141.413ZM268.923 143.345C267.689 143.345 266.623 143.065 265.726 142.505C264.837 141.946 264.151 141.171 263.668 140.182C263.185 139.193 262.943 138.059 262.943 136.778C262.943 135.475 263.189 134.333 263.679 133.351C264.17 132.37 264.864 131.607 265.761 131.063C266.658 130.511 267.712 130.235 268.923 130.235C270.165 130.235 271.235 130.515 272.132 131.074C273.029 131.626 273.715 132.397 274.19 133.386C274.673 134.367 274.915 135.498 274.915 136.778C274.915 138.074 274.673 139.216 274.19 140.205C273.707 141.187 273.017 141.957 272.12 142.517C271.223 143.069 270.158 143.345 268.923 143.345ZM268.923 141.401C270.211 141.401 271.17 140.972 271.798 140.113C272.427 139.255 272.741 138.143 272.741 136.778C272.741 135.375 272.423 134.26 271.787 133.432C271.151 132.596 270.196 132.178 268.923 132.178C268.057 132.178 267.344 132.374 266.784 132.765C266.225 133.156 265.807 133.696 265.531 134.386C265.255 135.076 265.117 135.874 265.117 136.778C265.117 138.174 265.439 139.293 266.083 140.136C266.727 140.98 267.674 141.401 268.923 141.401ZM280.466 143V132.443H276.142V130.58H286.837V132.443H282.513V143H280.466ZM289.003 143L289.014 130.58H291.084V136.56L296.294 130.58H298.95L293.465 136.79L299.594 143H296.731L291.084 137.02V143H289.003ZM310.905 130.58V143H308.927V133.846L302.418 143H300.727V130.58H302.705V139.607L309.226 130.58H310.905ZM318.73 143V126.44H331.656V143H329.609V128.383H320.777V143H318.73ZM341.688 143.345C340.039 143.345 338.64 142.981 337.49 142.252C336.34 141.524 335.462 140.512 334.857 139.216C334.259 137.921 333.96 136.422 333.96 134.72C333.96 133.018 334.259 131.519 334.857 130.223C335.462 128.928 336.34 127.916 337.49 127.187C338.64 126.459 340.039 126.095 341.688 126.095C343.344 126.095 344.747 126.459 345.897 127.187C347.047 127.916 347.921 128.928 348.519 130.223C349.117 131.519 349.416 133.018 349.416 134.72C349.416 136.422 349.117 137.921 348.519 139.216C347.921 140.512 347.047 141.524 345.897 142.252C344.747 142.981 343.344 143.345 341.688 143.345ZM341.688 141.39C342.922 141.398 343.949 141.122 344.77 140.562C345.598 139.995 346.215 139.209 346.621 138.204C347.035 137.2 347.242 136.039 347.242 134.72C347.242 133.394 347.035 132.232 346.621 131.235C346.215 130.239 345.598 129.461 344.77 128.901C343.949 128.341 342.922 128.058 341.688 128.05C340.453 128.042 339.426 128.318 338.606 128.878C337.793 129.438 337.18 130.22 336.766 131.224C336.352 132.228 336.141 133.394 336.133 134.72C336.125 136.039 336.329 137.196 336.743 138.193C337.157 139.19 337.774 139.972 338.594 140.539C339.422 141.099 340.453 141.382 341.688 141.39Z" fill="#000206"/>
              <path d="M556.418 108.345C554.77 108.345 553.371 107.981 552.221 107.252C551.071 106.524 550.193 105.512 549.587 104.216C548.989 102.921 548.69 101.422 548.69 99.72C548.69 98.018 548.989 96.5192 549.587 95.2235C550.193 93.9278 551.071 92.9158 552.221 92.1875C553.371 91.4592 554.77 91.095 556.418 91.095C558.074 91.095 559.477 91.4592 560.627 92.1875C561.777 92.9158 562.651 93.9278 563.249 95.2235C563.847 96.5192 564.146 98.018 564.146 99.72C564.146 101.422 563.847 102.921 563.249 104.216C562.651 105.512 561.777 106.524 560.627 107.252C559.477 107.981 558.074 108.345 556.418 108.345ZM556.418 106.39C557.652 106.398 558.68 106.122 559.5 105.562C560.328 104.995 560.945 104.209 561.352 103.204C561.766 102.2 561.973 101.039 561.973 99.72C561.973 98.3937 561.766 97.2322 561.352 96.2355C560.945 95.2388 560.328 94.4607 559.5 93.901C558.68 93.3413 557.652 93.0577 556.418 93.05C555.184 93.0423 554.156 93.3183 553.336 93.878C552.523 94.4377 551.91 95.2197 551.496 96.224C551.082 97.2283 550.871 98.3937 550.864 99.72C550.856 101.039 551.059 102.196 551.473 103.193C551.887 104.19 552.504 104.972 553.325 105.539C554.153 106.099 555.184 106.382 556.418 106.39ZM571.504 108.357C570.331 108.349 569.331 108.096 568.503 107.597C567.675 107.091 567.031 106.352 566.571 105.378C566.111 104.404 565.854 103.212 565.8 101.801C565.77 101.15 565.777 100.433 565.823 99.651C565.877 98.869 565.961 98.1177 566.076 97.397C566.199 96.6763 566.352 96.0822 566.536 95.6145C566.743 95.0548 567.035 94.5373 567.41 94.062C567.794 93.579 568.223 93.1803 568.698 92.866C569.181 92.5363 569.722 92.2795 570.32 92.0955C570.918 91.9115 571.543 91.7697 572.194 91.67C572.854 91.5627 573.513 91.4707 574.172 91.394C574.832 91.3097 575.46 91.21 576.058 91.095L576.265 92.935C575.844 93.027 575.345 93.1075 574.77 93.1765C574.195 93.2378 573.597 93.3107 572.976 93.395C572.363 93.4793 571.773 93.5982 571.205 93.7515C570.646 93.8972 570.163 94.1003 569.756 94.361C569.158 94.7213 568.698 95.2618 568.376 95.9825C568.062 96.6955 567.87 97.4967 567.801 98.386C568.277 97.65 568.894 97.1095 569.653 96.7645C570.412 96.4195 571.221 96.247 572.079 96.247C573.191 96.247 574.149 96.5077 574.954 97.029C575.759 97.5427 576.376 98.2518 576.806 99.1565C577.243 100.061 577.461 101.092 577.461 102.25C577.461 103.477 577.216 104.55 576.725 105.47C576.235 106.39 575.541 107.103 574.644 107.609C573.754 108.115 572.708 108.364 571.504 108.357ZM571.631 106.413C572.834 106.413 573.747 106.041 574.368 105.297C574.989 104.546 575.299 103.549 575.299 102.307C575.299 101.035 574.977 100.034 574.333 99.306C573.689 98.57 572.785 98.202 571.619 98.202C570.439 98.202 569.534 98.57 568.905 99.306C568.284 100.034 567.974 101.035 567.974 102.307C567.974 103.588 568.288 104.592 568.917 105.32C569.545 106.049 570.45 106.413 571.631 106.413ZM581.275 113.52L583.679 106.988L583.713 108.92L578.285 95.58H580.436L584.691 106.31H583.955L587.945 95.58H590.027L583.265 113.52H581.275ZM599.401 108V103.526C598.987 103.733 598.485 103.91 597.895 104.055C597.312 104.201 596.687 104.274 596.02 104.274C594.755 104.274 593.736 103.99 592.961 103.423C592.187 102.856 591.681 102.039 591.443 100.973C591.374 100.651 591.325 100.318 591.294 99.973C591.271 99.628 591.256 99.3137 591.248 99.03C591.24 98.7463 591.236 98.5393 591.236 98.409V95.58H593.306V98.409C593.306 98.6313 593.314 98.9073 593.329 99.237C593.345 99.559 593.383 99.8733 593.444 100.18C593.598 100.939 593.916 101.51 594.399 101.893C594.89 102.277 595.58 102.468 596.469 102.468C597.067 102.468 597.619 102.392 598.125 102.238C598.631 102.085 599.056 101.882 599.401 101.629V95.58H601.46V108H599.401ZM610.066 108.345C608.847 108.345 607.782 108.077 606.869 107.54C605.965 106.996 605.259 106.24 604.753 105.274C604.247 104.301 603.994 103.166 603.994 101.87C603.994 100.513 604.243 99.3405 604.742 98.3515C605.24 97.3548 605.934 96.5882 606.823 96.0515C607.72 95.5072 608.771 95.235 609.974 95.235C611.224 95.235 612.286 95.5225 613.16 96.0975C614.041 96.6725 614.701 97.4928 615.138 98.5585C615.582 99.6242 615.774 100.893 615.713 102.365H613.643V101.629C613.62 100.103 613.309 98.9648 612.711 98.2135C612.113 97.4545 611.224 97.075 610.043 97.075C608.778 97.075 607.816 97.4813 607.157 98.294C606.497 99.1067 606.168 100.272 606.168 101.79C606.168 103.254 606.497 104.389 607.157 105.194C607.816 105.999 608.755 106.401 609.974 106.401C610.795 106.401 611.508 106.214 612.113 105.838C612.719 105.462 613.194 104.922 613.539 104.216L615.506 104.895C615.023 105.991 614.294 106.842 613.321 107.448C612.355 108.046 611.27 108.345 610.066 108.345ZM605.478 102.365V100.72H614.655V102.365H605.478ZM618.262 108V95.58H620.309V100.812H626.841V95.58H628.888V108H626.841V102.756H620.309V108H618.262ZM642.275 95.58V108H640.297V98.846L633.788 108H632.098V95.58H634.076V104.607L640.596 95.58H642.275ZM650.878 108.345C649.659 108.345 648.593 108.077 647.681 107.54C646.776 106.996 646.071 106.24 645.565 105.274C645.059 104.301 644.806 103.166 644.806 101.87C644.806 100.513 645.055 99.3405 645.553 98.3515C646.052 97.3548 646.745 96.5882 647.635 96.0515C648.532 95.5072 649.582 95.235 650.786 95.235C652.035 95.235 653.097 95.5225 653.971 96.0975C654.853 96.6725 655.512 97.4928 655.949 98.5585C656.394 99.6242 656.586 100.893 656.524 102.365H654.454V101.629C654.431 100.103 654.121 98.9648 653.523 98.2135C652.925 97.4545 652.035 97.075 650.855 97.075C649.59 97.075 648.628 97.4813 647.968 98.294C647.309 99.1067 646.979 100.272 646.979 101.79C646.979 103.254 647.309 104.389 647.968 105.194C648.628 105.999 649.567 106.401 650.786 106.401C651.606 106.401 652.319 106.214 652.925 105.838C653.53 105.462 654.006 104.922 654.351 104.216L656.317 104.895C655.834 105.991 655.106 106.842 654.132 107.448C653.166 108.046 652.081 108.345 650.878 108.345ZM646.289 102.365V100.72H655.466V102.365H646.289ZM663.678 108V95.58H673.855V108H671.808V97.5235H665.725V108H663.678ZM682.366 108.345C681.131 108.345 680.066 108.065 679.169 107.505C678.279 106.946 677.593 106.171 677.11 105.182C676.627 104.193 676.386 103.059 676.386 101.778C676.386 100.475 676.631 99.3328 677.122 98.3515C677.612 97.3702 678.306 96.6073 679.203 96.063C680.1 95.511 681.154 95.235 682.366 95.235C683.608 95.235 684.677 95.5148 685.574 96.0745C686.471 96.6265 687.157 97.397 687.633 98.386C688.116 99.3673 688.357 100.498 688.357 101.778C688.357 103.074 688.116 104.216 687.633 105.205C687.15 106.187 686.46 106.957 685.563 107.517C684.666 108.069 683.6 108.345 682.366 108.345ZM682.366 106.401C683.654 106.401 684.612 105.972 685.241 105.113C685.869 104.255 686.184 103.143 686.184 101.778C686.184 100.375 685.866 99.26 685.229 98.432C684.593 97.5963 683.638 97.1785 682.366 97.1785C681.499 97.1785 680.786 97.374 680.227 97.765C679.667 98.156 679.249 98.6965 678.973 99.3865C678.697 100.076 678.559 100.874 678.559 101.778C678.559 103.174 678.881 104.293 679.525 105.136C680.169 105.98 681.116 106.401 682.366 106.401ZM689.739 108V106.24C690.199 106.325 690.548 106.309 690.786 106.194C691.031 106.072 691.211 105.861 691.326 105.562C691.449 105.255 691.549 104.872 691.625 104.412C691.756 103.684 691.867 102.871 691.959 101.974C692.058 101.077 692.147 100.096 692.223 99.03C692.308 97.9567 692.384 96.8067 692.453 95.58H701.136V108H699.089V97.5235H694.316C694.27 98.2288 694.213 98.9533 694.144 99.697C694.082 100.441 694.017 101.165 693.948 101.87C693.879 102.568 693.803 103.22 693.718 103.825C693.642 104.423 693.557 104.941 693.465 105.378C693.32 106.129 693.116 106.731 692.856 107.183C692.595 107.628 692.219 107.916 691.729 108.046C691.238 108.184 690.575 108.169 689.739 108ZM704.366 108L704.354 95.58H706.413V100.076H709.092C709.453 100.076 709.821 100.084 710.196 100.099C710.572 100.115 710.898 100.149 711.174 100.203C711.818 100.326 712.381 100.54 712.864 100.847C713.347 101.154 713.723 101.571 713.991 102.1C714.26 102.622 714.394 103.27 714.394 104.044C714.394 105.117 714.114 105.968 713.554 106.597C713.002 107.218 712.278 107.632 711.381 107.839C711.074 107.908 710.722 107.954 710.323 107.977C709.932 107.992 709.56 108 709.207 108H704.366ZM706.413 106.31H709.242C709.472 106.31 709.729 106.302 710.012 106.286C710.296 106.271 710.549 106.233 710.771 106.171C711.162 106.056 711.511 105.83 711.818 105.493C712.132 105.156 712.289 104.673 712.289 104.044C712.289 103.408 712.136 102.917 711.829 102.572C711.53 102.227 711.136 102.001 710.645 101.893C710.423 101.84 710.189 101.805 709.943 101.79C709.698 101.775 709.464 101.767 709.242 101.767H706.413V106.31ZM721.372 108.345C720.145 108.345 719.061 108.081 718.118 107.551C717.175 107.015 716.431 106.279 715.887 105.343L717.52 104.285C717.972 104.968 718.512 105.493 719.141 105.861C719.77 106.221 720.487 106.401 721.292 106.401C722.135 106.401 722.806 106.21 723.304 105.826C723.802 105.435 724.052 104.91 724.052 104.251C724.052 103.76 723.929 103.385 723.684 103.124C723.438 102.863 723.086 102.683 722.626 102.583C722.166 102.484 721.617 102.434 720.981 102.434H719.693V100.743H720.97C721.775 100.743 722.43 100.613 722.936 100.352C723.442 100.092 723.695 99.6472 723.695 99.0185C723.695 98.3745 723.457 97.9068 722.982 97.6155C722.514 97.3165 721.955 97.167 721.303 97.167C720.613 97.167 719.954 97.3127 719.325 97.604C718.696 97.8877 718.156 98.248 717.704 98.685L716.462 97.2935C717.106 96.6342 717.845 96.1282 718.681 95.7755C719.524 95.4152 720.441 95.235 721.43 95.235C722.227 95.235 722.955 95.3768 723.615 95.6605C724.282 95.9365 724.811 96.3467 725.202 96.891C725.6 97.4277 725.8 98.0832 725.8 98.8575C725.8 99.5168 725.646 100.103 725.34 100.617C725.033 101.131 724.581 101.579 723.983 101.962L723.902 101.238C724.408 101.361 724.826 101.587 725.156 101.916C725.493 102.238 725.742 102.622 725.903 103.066C726.064 103.511 726.145 103.975 726.145 104.458C726.145 105.271 725.93 105.968 725.501 106.551C725.079 107.126 724.508 107.571 723.787 107.885C723.066 108.192 722.261 108.345 721.372 108.345ZM733.959 108.345C732.724 108.345 731.659 108.065 730.762 107.505C729.872 106.946 729.186 106.171 728.703 105.182C728.22 104.193 727.979 103.059 727.979 101.778C727.979 100.475 728.224 99.3328 728.715 98.3515C729.205 97.3702 729.899 96.6073 730.796 96.063C731.693 95.511 732.747 95.235 733.959 95.235C735.201 95.235 736.27 95.5148 737.167 96.0745C738.064 96.6265 738.75 97.397 739.226 98.386C739.709 99.3673 739.95 100.498 739.95 101.778C739.95 103.074 739.709 104.216 739.226 105.205C738.743 106.187 738.053 106.957 737.156 107.517C736.259 108.069 735.193 108.345 733.959 108.345ZM733.959 106.401C735.247 106.401 736.205 105.972 736.834 105.113C737.462 104.255 737.777 103.143 737.777 101.778C737.777 100.375 737.458 99.26 736.822 98.432C736.186 97.5963 735.231 97.1785 733.959 97.1785C733.092 97.1785 732.379 97.374 731.82 97.765C731.26 98.156 730.842 98.6965 730.566 99.3865C730.29 100.076 730.152 100.874 730.152 101.778C730.152 103.174 730.474 104.293 731.118 105.136C731.762 105.98 732.709 106.401 733.959 106.401ZM742.471 108V95.58H747.761C748.075 95.58 748.412 95.5992 748.773 95.6375C749.141 95.6682 749.474 95.7257 749.773 95.81C750.44 95.9863 750.988 96.3505 751.418 96.9025C751.855 97.4468 752.073 98.1368 752.073 98.9725C752.073 99.4402 752 99.8465 751.855 100.191C751.717 100.536 751.517 100.835 751.257 101.088C751.142 101.203 751.015 101.307 750.877 101.399C750.739 101.491 750.601 101.564 750.463 101.617C750.731 101.663 751.004 101.767 751.28 101.928C751.717 102.166 752.058 102.499 752.303 102.928C752.556 103.358 752.683 103.906 752.683 104.573C752.683 105.416 752.479 106.114 752.073 106.666C751.667 107.21 751.107 107.586 750.394 107.793C750.095 107.877 749.765 107.935 749.405 107.965C749.045 107.988 748.696 108 748.359 108H742.471ZM744.541 106.332H748.244C748.405 106.332 748.596 106.317 748.819 106.286C749.049 106.256 749.252 106.217 749.428 106.171C749.827 106.056 750.114 105.842 750.291 105.527C750.475 105.213 750.567 104.872 750.567 104.504C750.567 104.013 750.429 103.615 750.153 103.308C749.884 103.001 749.528 102.81 749.083 102.733C748.922 102.687 748.746 102.66 748.554 102.652C748.37 102.645 748.205 102.641 748.06 102.641H744.541V106.332ZM744.541 100.95H747.623C747.837 100.95 748.063 100.939 748.301 100.916C748.539 100.885 748.746 100.835 748.922 100.766C749.275 100.636 749.532 100.421 749.693 100.122C749.861 99.8158 749.946 99.4823 749.946 99.122C749.946 98.7233 749.854 98.3745 749.67 98.0755C749.493 97.7688 749.221 97.558 748.853 97.443C748.608 97.351 748.332 97.3012 748.025 97.2935C747.726 97.2782 747.534 97.2705 747.45 97.2705H744.541V100.95ZM758.523 108.345C757.596 108.345 756.817 108.176 756.189 107.839C755.568 107.494 755.096 107.042 754.774 106.482C754.46 105.922 754.303 105.309 754.303 104.642C754.303 103.99 754.425 103.427 754.671 102.951C754.924 102.468 755.276 102.07 755.729 101.755C756.181 101.433 756.722 101.18 757.35 100.996C757.941 100.835 758.6 100.697 759.328 100.582C760.064 100.46 760.808 100.349 761.559 100.249C762.311 100.149 763.012 100.053 763.664 99.9615L762.928 100.387C762.951 99.283 762.728 98.4665 762.261 97.9375C761.801 97.4085 761.003 97.144 759.869 97.144C759.117 97.144 758.458 97.3165 757.891 97.6615C757.331 97.9988 756.936 98.5508 756.706 99.3175L754.763 98.731C755.062 97.6423 755.641 96.7875 756.499 96.1665C757.358 95.5455 758.489 95.235 759.892 95.235C761.019 95.235 761.985 95.4382 762.79 95.8445C763.602 96.2432 764.185 96.8488 764.538 97.6615C764.714 98.0448 764.825 98.4627 764.871 98.915C764.917 99.3597 764.94 99.8273 764.94 100.318V108H763.123V105.021L763.549 105.297C763.081 106.302 762.426 107.061 761.582 107.574C760.747 108.088 759.727 108.345 758.523 108.345ZM758.834 106.631C759.57 106.631 760.206 106.501 760.743 106.24C761.287 105.972 761.724 105.623 762.054 105.194C762.383 104.757 762.598 104.282 762.698 103.768C762.813 103.385 762.874 102.959 762.882 102.491C762.897 102.016 762.905 101.652 762.905 101.399L763.618 101.709C762.951 101.801 762.295 101.89 761.651 101.974C761.007 102.058 760.398 102.15 759.823 102.25C759.248 102.342 758.73 102.453 758.27 102.583C757.933 102.691 757.615 102.829 757.316 102.997C757.024 103.166 756.787 103.385 756.603 103.653C756.426 103.914 756.338 104.239 756.338 104.63C756.338 104.968 756.423 105.29 756.591 105.596C756.768 105.903 757.036 106.152 757.396 106.344C757.764 106.536 758.243 106.631 758.834 106.631ZM771.219 108V97.443H766.895V95.58H777.59V97.443H773.266V108H771.219ZM785.149 108.345C783.93 108.345 782.865 108.077 781.952 107.54C781.048 106.996 780.342 106.24 779.836 105.274C779.33 104.301 779.077 103.166 779.077 101.87C779.077 100.513 779.326 99.3405 779.825 98.3515C780.323 97.3548 781.017 96.5882 781.906 96.0515C782.803 95.5072 783.854 95.235 785.057 95.235C786.307 95.235 787.369 95.5225 788.243 96.0975C789.124 96.6725 789.784 97.4928 790.221 98.5585C790.665 99.6242 790.857 100.893 790.796 102.365H788.726V101.629C788.703 100.103 788.392 98.9648 787.794 98.2135C787.196 97.4545 786.307 97.075 785.126 97.075C783.861 97.075 782.899 97.4813 782.24 98.294C781.58 99.1067 781.251 100.272 781.251 101.79C781.251 103.254 781.58 104.389 782.24 105.194C782.899 105.999 783.838 106.401 785.057 106.401C785.878 106.401 786.591 106.214 787.196 105.838C787.802 105.462 788.277 104.922 788.622 104.216L790.589 104.895C790.106 105.991 789.377 106.842 788.404 107.448C787.438 108.046 786.353 108.345 785.149 108.345ZM780.561 102.365V100.72H789.738V102.365H780.561ZM792.206 108V106.24C792.666 106.325 793.015 106.309 793.253 106.194C793.498 106.072 793.678 105.861 793.793 105.562C793.916 105.255 794.015 104.872 794.092 104.412C794.222 103.684 794.334 102.871 794.426 101.974C794.525 101.077 794.613 100.096 794.69 99.03C794.774 97.9567 794.851 96.8067 794.92 95.58H803.603V108H801.556V97.5235H796.783C796.737 98.2288 796.68 98.9533 796.611 99.697C796.549 100.441 796.484 101.165 796.415 101.87C796.346 102.568 796.269 103.22 796.185 103.825C796.108 104.423 796.024 104.941 795.932 105.378C795.786 106.129 795.583 106.731 795.323 107.183C795.062 107.628 794.686 107.916 794.196 108.046C793.705 108.184 793.042 108.169 792.206 108ZM812.215 108.345C810.996 108.345 809.93 108.077 809.018 107.54C808.113 106.996 807.408 106.24 806.902 105.274C806.396 104.301 806.143 103.166 806.143 101.87C806.143 100.513 806.392 99.3405 806.89 98.3515C807.388 97.3548 808.082 96.5882 808.972 96.0515C809.869 95.5072 810.919 95.235 812.123 95.235C813.372 95.235 814.434 95.5225 815.308 96.0975C816.19 96.6725 816.849 97.4928 817.286 98.5585C817.731 99.6242 817.922 100.893 817.861 102.365H815.791V101.629C815.768 100.103 815.458 98.9648 814.86 98.2135C814.262 97.4545 813.372 97.075 812.192 97.075C810.927 97.075 809.964 97.4813 809.305 98.294C808.646 99.1067 808.316 100.272 808.316 101.79C808.316 103.254 808.646 104.389 809.305 105.194C809.964 105.999 810.904 106.401 812.123 106.401C812.943 106.401 813.656 106.214 814.262 105.838C814.867 105.462 815.343 104.922 815.688 104.216L817.654 104.895C817.171 105.991 816.443 106.842 815.469 107.448C814.503 108.046 813.418 108.345 812.215 108.345ZM807.626 102.365V100.72H816.803V102.365H807.626ZM825.769 94.131C825.194 94.131 824.669 93.9892 824.194 93.7055C823.718 93.4218 823.339 93.0462 823.055 92.5785C822.771 92.1032 822.63 91.5742 822.63 90.9915H824.286C824.286 91.3978 824.431 91.7467 824.723 92.038C825.014 92.3293 825.363 92.475 825.769 92.475C826.183 92.475 826.532 92.3293 826.816 92.038C827.107 91.7467 827.253 91.3978 827.253 90.9915H828.909C828.909 91.5742 828.767 92.1032 828.483 92.5785C828.207 93.0462 827.828 93.4218 827.345 93.7055C826.869 93.9892 826.344 94.131 825.769 94.131ZM830.588 95.58V108H828.61V98.846L822.101 108H820.41V95.58H822.388V104.607L828.909 95.58H830.588ZM549.61 131V114.44H562.536V131H560.489V116.383H551.657V131H549.61ZM572.567 131.345C570.919 131.345 569.52 130.981 568.37 130.252C567.22 129.524 566.342 128.512 565.736 127.216C565.138 125.921 564.839 124.422 564.839 122.72C564.839 121.018 565.138 119.519 565.736 118.223C566.342 116.928 567.22 115.916 568.37 115.187C569.52 114.459 570.919 114.095 572.567 114.095C574.223 114.095 575.626 114.459 576.776 115.187C577.926 115.916 578.8 116.928 579.398 118.223C579.996 119.519 580.295 121.018 580.295 122.72C580.295 124.422 579.996 125.921 579.398 127.216C578.8 128.512 577.926 129.524 576.776 130.252C575.626 130.981 574.223 131.345 572.567 131.345ZM572.567 129.39C573.802 129.398 574.829 129.122 575.649 128.562C576.477 127.995 577.095 127.209 577.501 126.204C577.915 125.2 578.122 124.039 578.122 122.72C578.122 121.394 577.915 120.232 577.501 119.235C577.095 118.239 576.477 117.461 575.649 116.901C574.829 116.341 573.802 116.058 572.567 116.05C571.333 116.042 570.306 116.318 569.485 116.878C568.673 117.438 568.059 118.22 567.645 119.224C567.231 120.228 567.021 121.394 567.013 122.72C567.005 124.039 567.208 125.196 567.622 126.193C568.036 127.19 568.654 127.972 569.474 128.539C570.302 129.099 571.333 129.382 572.567 129.39ZM587.198 131V118.58H592.488C592.802 118.58 593.14 118.599 593.5 118.637C593.868 118.668 594.202 118.726 594.501 118.81C595.168 118.986 595.716 119.35 596.145 119.902C596.582 120.447 596.801 121.137 596.801 121.972C596.801 122.44 596.728 122.846 596.582 123.191C596.444 123.536 596.245 123.835 595.984 124.088C595.869 124.203 595.743 124.307 595.605 124.399C595.467 124.491 595.329 124.564 595.191 124.617C595.459 124.663 595.731 124.767 596.007 124.928C596.444 125.166 596.785 125.499 597.031 125.928C597.284 126.358 597.41 126.906 597.41 127.573C597.41 128.416 597.207 129.114 596.801 129.666C596.394 130.21 595.835 130.586 595.122 130.793C594.823 130.877 594.493 130.935 594.133 130.965C593.772 130.988 593.423 131 593.086 131H587.198ZM589.268 129.332H592.971C593.132 129.332 593.324 129.317 593.546 129.286C593.776 129.256 593.979 129.217 594.156 129.171C594.554 129.056 594.842 128.842 595.018 128.527C595.202 128.213 595.294 127.872 595.294 127.504C595.294 127.013 595.156 126.615 594.88 126.308C594.612 126.001 594.255 125.81 593.811 125.733C593.65 125.687 593.473 125.66 593.282 125.652C593.098 125.645 592.933 125.641 592.787 125.641H589.268V129.332ZM589.268 123.95H592.35C592.565 123.95 592.791 123.939 593.029 123.916C593.266 123.885 593.473 123.835 593.65 123.766C594.002 123.636 594.259 123.421 594.42 123.122C594.589 122.816 594.673 122.482 594.673 122.122C594.673 121.723 594.581 121.374 594.397 121.075C594.221 120.769 593.949 120.558 593.581 120.443C593.335 120.351 593.059 120.301 592.753 120.293C592.454 120.278 592.262 120.27 592.178 120.27H589.268V123.95ZM604.313 131L604.325 118.58H606.395V124.56L611.604 118.58H614.261L608.775 124.79L614.905 131H612.041L606.395 125.02V131H604.313ZM621.115 131.345C619.881 131.345 618.815 131.065 617.918 130.505C617.029 129.946 616.342 129.171 615.859 128.182C615.376 127.193 615.135 126.059 615.135 124.778C615.135 123.475 615.38 122.333 615.871 121.351C616.362 120.37 617.055 119.607 617.952 119.063C618.849 118.511 619.904 118.235 621.115 118.235C622.357 118.235 623.426 118.515 624.323 119.074C625.22 119.626 625.907 120.397 626.382 121.386C626.865 122.367 627.106 123.498 627.106 124.778C627.106 126.074 626.865 127.216 626.382 128.205C625.899 129.187 625.209 129.957 624.312 130.517C623.415 131.069 622.349 131.345 621.115 131.345ZM621.115 129.401C622.403 129.401 623.361 128.972 623.99 128.113C624.619 127.255 624.933 126.143 624.933 124.778C624.933 123.375 624.615 122.26 623.978 121.432C623.342 120.596 622.388 120.178 621.115 120.178C620.249 120.178 619.536 120.374 618.976 120.765C618.416 121.156 617.998 121.696 617.722 122.386C617.446 123.076 617.308 123.874 617.308 124.778C617.308 126.174 617.63 127.293 618.274 128.136C618.918 128.98 619.865 129.401 621.115 129.401ZM629.627 131V118.58H631.386L636.101 128.217L640.816 118.58H642.576V131H640.598V122.846L636.642 131H635.561L631.605 122.846V131H629.627ZM645.776 131V118.58H655.954V131H653.907V120.523H647.823V131H645.776ZM662.705 131.345C661.777 131.345 660.999 131.176 660.37 130.839C659.749 130.494 659.278 130.042 658.956 129.482C658.642 128.922 658.484 128.309 658.484 127.642C658.484 126.99 658.607 126.427 658.852 125.951C659.105 125.468 659.458 125.07 659.91 124.755C660.363 124.433 660.903 124.18 661.532 123.996C662.122 123.835 662.782 123.697 663.51 123.582C664.246 123.46 664.99 123.349 665.741 123.249C666.492 123.149 667.194 123.053 667.845 122.961L667.109 123.387C667.132 122.283 666.91 121.466 666.442 120.937C665.982 120.408 665.185 120.144 664.05 120.144C663.299 120.144 662.64 120.316 662.072 120.661C661.513 120.999 661.118 121.551 660.888 122.317L658.944 121.731C659.243 120.642 659.822 119.787 660.681 119.166C661.54 118.545 662.67 118.235 664.073 118.235C665.2 118.235 666.166 118.438 666.971 118.844C667.784 119.243 668.367 119.849 668.719 120.661C668.896 121.045 669.007 121.463 669.053 121.915C669.099 122.36 669.122 122.827 669.122 123.318V131H667.305V128.021L667.73 128.297C667.263 129.302 666.607 130.061 665.764 130.574C664.928 131.088 663.909 131.345 662.705 131.345ZM663.015 129.631C663.751 129.631 664.388 129.501 664.924 129.24C665.469 128.972 665.906 128.623 666.235 128.194C666.565 127.757 666.78 127.282 666.879 126.768C666.994 126.385 667.056 125.959 667.063 125.491C667.079 125.016 667.086 124.652 667.086 124.399L667.799 124.709C667.132 124.801 666.477 124.89 665.833 124.974C665.189 125.058 664.579 125.15 664.004 125.25C663.429 125.342 662.912 125.453 662.452 125.583C662.115 125.691 661.796 125.829 661.497 125.997C661.206 126.166 660.968 126.385 660.784 126.653C660.608 126.914 660.52 127.239 660.52 127.63C660.52 127.968 660.604 128.29 660.773 128.596C660.949 128.903 661.218 129.152 661.578 129.344C661.946 129.536 662.425 129.631 663.015 129.631ZM672.1 131V118.58H674.147V123.812H680.679V118.58H682.726V131H680.679V125.756H674.147V131H672.1ZM696.114 118.58V131H694.136V121.846L687.627 131H685.936V118.58H687.914V127.607L694.435 118.58H696.114ZM709.501 118.58V131H707.523V121.846L701.014 131H699.323V118.58H701.301V127.607L707.822 118.58H709.501ZM721.776 131.345C720.55 131.345 719.465 131.081 718.522 130.551C717.579 130.015 716.835 129.279 716.291 128.343L717.924 127.285C718.376 127.968 718.917 128.493 719.545 128.861C720.174 129.221 720.891 129.401 721.696 129.401C722.539 129.401 723.21 129.21 723.708 128.826C724.207 128.435 724.456 127.91 724.456 127.251C724.456 126.76 724.333 126.385 724.088 126.124C723.842 125.863 723.49 125.683 723.03 125.583C722.57 125.484 722.022 125.434 721.385 125.434H720.097V123.743H721.374C722.179 123.743 722.834 123.613 723.34 123.352C723.846 123.092 724.099 122.647 724.099 122.018C724.099 121.374 723.862 120.907 723.386 120.615C722.919 120.316 722.359 120.167 721.707 120.167C721.017 120.167 720.358 120.313 719.729 120.604C719.101 120.888 718.56 121.248 718.108 121.685L716.866 120.293C717.51 119.634 718.25 119.128 719.085 118.775C719.929 118.415 720.845 118.235 721.834 118.235C722.631 118.235 723.359 118.377 724.019 118.66C724.686 118.936 725.215 119.347 725.606 119.891C726.004 120.428 726.204 121.083 726.204 121.857C726.204 122.517 726.05 123.103 725.744 123.617C725.437 124.131 724.985 124.579 724.387 124.962L724.306 124.238C724.812 124.361 725.23 124.587 725.56 124.916C725.897 125.238 726.146 125.622 726.307 126.066C726.468 126.511 726.549 126.975 726.549 127.458C726.549 128.271 726.334 128.968 725.905 129.551C725.483 130.126 724.912 130.571 724.191 130.885C723.471 131.192 722.666 131.345 721.776 131.345ZM732.603 131.345C731.676 131.345 730.898 131.176 730.269 130.839C729.648 130.494 729.176 130.042 728.854 129.482C728.54 128.922 728.383 128.309 728.383 127.642C728.383 126.99 728.506 126.427 728.751 125.951C729.004 125.468 729.357 125.07 729.809 124.755C730.261 124.433 730.802 124.18 731.43 123.996C732.021 123.835 732.68 123.697 733.408 123.582C734.144 123.46 734.888 123.349 735.639 123.249C736.391 123.149 737.092 123.053 737.744 122.961L737.008 123.387C737.031 122.283 736.809 121.466 736.341 120.937C735.881 120.408 735.084 120.144 733.949 120.144C733.198 120.144 732.538 120.316 731.971 120.661C731.411 120.999 731.016 121.551 730.786 122.317L728.843 121.731C729.142 120.642 729.721 119.787 730.579 119.166C731.438 118.545 732.569 118.235 733.972 118.235C735.099 118.235 736.065 118.438 736.87 118.844C737.683 119.243 738.265 119.849 738.618 120.661C738.794 121.045 738.905 121.463 738.951 121.915C738.997 122.36 739.02 122.827 739.02 123.318V131H737.203V128.021L737.629 128.297C737.161 129.302 736.506 130.061 735.662 130.574C734.827 131.088 733.807 131.345 732.603 131.345ZM732.914 129.631C733.65 129.631 734.286 129.501 734.823 129.24C735.367 128.972 735.804 128.623 736.134 128.194C736.464 127.757 736.678 127.282 736.778 126.768C736.893 126.385 736.954 125.959 736.962 125.491C736.977 125.016 736.985 124.652 736.985 124.399L737.698 124.709C737.031 124.801 736.375 124.89 735.731 124.974C735.087 125.058 734.478 125.15 733.903 125.25C733.328 125.342 732.81 125.453 732.35 125.583C732.013 125.691 731.695 125.829 731.396 125.997C731.105 126.166 730.867 126.385 730.683 126.653C730.507 126.914 730.418 127.239 730.418 127.63C730.418 127.968 730.503 128.29 730.671 128.596C730.848 128.903 731.116 129.152 731.476 129.344C731.844 129.536 732.324 129.631 732.914 129.631ZM741.999 131L742.01 118.58H744.08V124.56L749.29 118.58H751.946L746.461 124.79L752.59 131H749.727L744.08 125.02V131H741.999ZM757.266 131.345C756.338 131.345 755.56 131.176 754.931 130.839C754.31 130.494 753.839 130.042 753.517 129.482C753.202 128.922 753.045 128.309 753.045 127.642C753.045 126.99 753.168 126.427 753.413 125.951C753.666 125.468 754.019 125.07 754.471 124.755C754.923 124.433 755.464 124.18 756.093 123.996C756.683 123.835 757.342 123.697 758.071 123.582C758.807 123.46 759.55 123.349 760.302 123.249C761.053 123.149 761.754 123.053 762.406 122.961L761.67 123.387C761.693 122.283 761.471 121.466 761.003 120.937C760.543 120.408 759.746 120.144 758.611 120.144C757.86 120.144 757.2 120.316 756.633 120.661C756.073 120.999 755.679 121.551 755.449 122.317L753.505 121.731C753.804 120.642 754.383 119.787 755.242 119.166C756.1 118.545 757.231 118.235 758.634 118.235C759.761 118.235 760.727 118.438 761.532 118.844C762.345 119.243 762.927 119.849 763.28 120.661C763.456 121.045 763.568 121.463 763.614 121.915C763.66 122.36 763.682 122.827 763.682 123.318V131H761.866V128.021L762.291 128.297C761.823 129.302 761.168 130.061 760.325 130.574C759.489 131.088 758.469 131.345 757.266 131.345ZM757.576 129.631C758.312 129.631 758.948 129.501 759.485 129.24C760.029 128.972 760.466 128.623 760.796 128.194C761.126 127.757 761.34 127.282 761.44 126.768C761.555 126.385 761.616 125.959 761.624 125.491C761.639 125.016 761.647 124.652 761.647 124.399L762.36 124.709C761.693 124.801 761.038 124.89 760.394 124.974C759.75 125.058 759.14 125.15 758.565 125.25C757.99 125.342 757.473 125.453 757.013 125.583C756.675 125.691 756.357 125.829 756.058 125.997C755.767 126.166 755.529 126.385 755.345 126.653C755.169 126.914 755.08 127.239 755.08 127.63C755.08 127.968 755.165 128.29 755.334 128.596C755.51 128.903 755.778 129.152 756.139 129.344C756.507 129.536 756.986 129.631 757.576 129.631ZM771.123 131.345C769.896 131.345 768.812 131.081 767.869 130.551C766.926 130.015 766.182 129.279 765.638 128.343L767.271 127.285C767.723 127.968 768.263 128.493 768.892 128.861C769.521 129.221 770.238 129.401 771.043 129.401C771.886 129.401 772.557 129.21 773.055 128.826C773.553 128.435 773.803 127.91 773.803 127.251C773.803 126.76 773.68 126.385 773.435 126.124C773.189 125.863 772.837 125.683 772.377 125.583C771.917 125.484 771.368 125.434 770.732 125.434H769.444V123.743H770.721C771.526 123.743 772.181 123.613 772.687 123.352C773.193 123.092 773.446 122.647 773.446 122.018C773.446 121.374 773.208 120.907 772.733 120.615C772.265 120.316 771.706 120.167 771.054 120.167C770.364 120.167 769.705 120.313 769.076 120.604C768.447 120.888 767.907 121.248 767.455 121.685L766.213 120.293C766.857 119.634 767.596 119.128 768.432 118.775C769.275 118.415 770.192 118.235 771.181 118.235C771.978 118.235 772.706 118.377 773.366 118.66C774.033 118.936 774.562 119.347 774.953 119.891C775.351 120.428 775.551 121.083 775.551 121.857C775.551 122.517 775.397 123.103 775.091 123.617C774.784 124.131 774.332 124.579 773.734 124.962L773.653 124.238C774.159 124.361 774.577 124.587 774.907 124.916C775.244 125.238 775.493 125.622 775.654 126.066C775.815 126.511 775.896 126.975 775.896 127.458C775.896 128.271 775.681 128.968 775.252 129.551C774.83 130.126 774.259 130.571 773.538 130.885C772.817 131.192 772.012 131.345 771.123 131.345ZM785.895 131V126.526C785.481 126.733 784.978 126.91 784.388 127.055C783.805 127.201 783.181 127.274 782.514 127.274C781.249 127.274 780.229 126.99 779.455 126.423C778.68 125.856 778.174 125.039 777.937 123.973C777.868 123.651 777.818 123.318 777.787 122.973C777.764 122.628 777.749 122.314 777.741 122.03C777.733 121.746 777.73 121.539 777.73 121.409V118.58H779.8V121.409C779.8 121.631 779.807 121.907 779.823 122.237C779.838 122.559 779.876 122.873 779.938 123.18C780.091 123.939 780.409 124.51 780.892 124.893C781.383 125.277 782.073 125.468 782.962 125.468C783.56 125.468 784.112 125.392 784.618 125.238C785.124 125.085 785.55 124.882 785.895 124.629V118.58H787.953V131H785.895ZM801.343 118.58V131H799.365V121.846L792.856 131H791.166V118.58H793.144V127.607L799.664 118.58H801.343ZM804.553 131L804.564 118.58H806.634V124.56L811.844 118.58H814.5L809.015 124.79L815.144 131H812.281L806.634 125.02V131H804.553ZM819.819 131.345C818.892 131.345 818.113 131.176 817.485 130.839C816.864 130.494 816.392 130.042 816.07 129.482C815.756 128.922 815.599 128.309 815.599 127.642C815.599 126.99 815.721 126.427 815.967 125.951C816.22 125.468 816.572 125.07 817.025 124.755C817.477 124.433 818.018 124.18 818.646 123.996C819.237 123.835 819.896 123.697 820.624 123.582C821.36 123.46 822.104 123.349 822.855 123.249C823.607 123.149 824.308 123.053 824.96 122.961L824.224 123.387C824.247 122.283 824.024 121.466 823.557 120.937C823.097 120.408 822.299 120.144 821.165 120.144C820.413 120.144 819.754 120.316 819.187 120.661C818.627 120.999 818.232 121.551 818.002 122.317L816.059 121.731C816.358 120.642 816.937 119.787 817.795 119.166C818.654 118.545 819.785 118.235 821.188 118.235C822.315 118.235 823.281 118.438 824.086 118.844C824.898 119.243 825.481 119.849 825.834 120.661C826.01 121.045 826.121 121.463 826.167 121.915C826.213 122.36 826.236 122.827 826.236 123.318V131H824.419V128.021L824.845 128.297C824.377 129.302 823.722 130.061 822.878 130.574C822.043 131.088 821.023 131.345 819.819 131.345ZM820.13 129.631C820.866 129.631 821.502 129.501 822.039 129.24C822.583 128.972 823.02 128.623 823.35 128.194C823.679 127.757 823.894 127.282 823.994 126.768C824.109 126.385 824.17 125.959 824.178 125.491C824.193 125.016 824.201 124.652 824.201 124.399L824.914 124.709C824.247 124.801 823.591 124.89 822.947 124.974C822.303 125.058 821.694 125.15 821.119 125.25C820.544 125.342 820.026 125.453 819.566 125.583C819.229 125.691 818.911 125.829 818.612 125.997C818.32 126.166 818.083 126.385 817.899 126.653C817.722 126.914 817.634 127.239 817.634 127.63C817.634 127.968 817.719 128.29 817.887 128.596C818.064 128.903 818.332 129.152 818.692 129.344C819.06 129.536 819.539 129.631 820.13 129.631Z" fill="#000206"/>
              <path d="M1035.61 108V91.44H1048.54V108H1046.49V93.3835H1037.66V108H1035.61ZM1057.05 108.345C1055.82 108.345 1054.75 108.065 1053.85 107.505C1052.96 106.946 1052.28 106.171 1051.79 105.182C1051.31 104.193 1051.07 103.059 1051.07 101.778C1051.07 100.475 1051.31 99.3328 1051.81 98.3515C1052.3 97.3702 1052.99 96.6073 1053.89 96.063C1054.78 95.511 1055.84 95.235 1057.05 95.235C1058.29 95.235 1059.36 95.5148 1060.26 96.0745C1061.15 96.6265 1061.84 97.397 1062.32 98.386C1062.8 99.3673 1063.04 100.498 1063.04 101.778C1063.04 103.074 1062.8 104.216 1062.32 105.205C1061.83 106.187 1061.14 106.957 1060.25 107.517C1059.35 108.069 1058.28 108.345 1057.05 108.345ZM1057.05 106.401C1058.34 106.401 1059.3 105.972 1059.92 105.113C1060.55 104.255 1060.87 103.143 1060.87 101.778C1060.87 100.375 1060.55 99.26 1059.91 98.432C1059.28 97.5963 1058.32 97.1785 1057.05 97.1785C1056.18 97.1785 1055.47 97.374 1054.91 97.765C1054.35 98.156 1053.93 98.6965 1053.66 99.3865C1053.38 100.076 1053.24 100.874 1053.24 101.778C1053.24 103.174 1053.56 104.293 1054.21 105.136C1054.85 105.98 1055.8 106.401 1057.05 106.401ZM1064.65 110.76V106.31C1065.35 106.31 1065.85 106.083 1066.15 105.631C1066.45 105.171 1066.69 104.416 1066.87 103.365C1067 102.706 1067.09 102.001 1067.17 101.249C1067.25 100.498 1067.31 99.6625 1067.37 98.7425C1067.43 97.8148 1067.49 96.7607 1067.54 95.58H1076.1V106.31H1077.3V110.76H1075.35V108H1066.61V110.76H1064.65ZM1067.8 106.31H1074.05V97.2705H1069.39C1069.37 97.8148 1069.34 98.386 1069.3 98.984C1069.26 99.5743 1069.21 100.165 1069.16 100.755C1069.11 101.345 1069.06 101.905 1068.99 102.434C1068.93 102.955 1068.85 103.423 1068.77 103.837C1068.67 104.412 1068.56 104.899 1068.42 105.297C1068.29 105.696 1068.09 106.033 1067.8 106.31ZM1078.69 110.76V106.31C1079.39 106.31 1079.89 106.083 1080.19 105.631C1080.48 105.171 1080.73 104.416 1080.91 103.365C1081.03 102.706 1081.13 102.001 1081.21 101.249C1081.29 100.498 1081.35 99.6625 1081.4 98.7425C1081.47 97.8148 1081.52 96.7607 1081.58 95.58H1090.13V106.31H1091.34V110.76H1089.39V108H1080.65V110.76H1078.69ZM1081.84 106.31H1088.09V97.2705H1083.43C1083.41 97.8148 1083.38 98.386 1083.34 98.984C1083.3 99.5743 1083.25 100.165 1083.2 100.755C1083.15 101.345 1083.1 101.905 1083.03 102.434C1082.97 102.955 1082.89 103.423 1082.81 103.837C1082.71 104.412 1082.59 104.899 1082.46 105.297C1082.33 105.696 1082.13 106.033 1081.84 106.31ZM1099.03 108.345C1097.81 108.345 1096.75 108.077 1095.83 107.54C1094.93 106.996 1094.22 106.24 1093.72 105.274C1093.21 104.301 1092.96 103.166 1092.96 101.87C1092.96 100.513 1093.21 99.3405 1093.71 98.3515C1094.2 97.3548 1094.9 96.5882 1095.79 96.0515C1096.69 95.5072 1097.74 95.235 1098.94 95.235C1100.19 95.235 1101.25 95.5225 1102.12 96.0975C1103.01 96.6725 1103.67 97.4928 1104.1 98.5585C1104.55 99.6242 1104.74 100.893 1104.68 102.365H1102.61V101.629C1102.58 100.103 1102.27 98.9648 1101.68 98.2135C1101.08 97.4545 1100.19 97.075 1099.01 97.075C1097.74 97.075 1096.78 97.4813 1096.12 98.294C1095.46 99.1067 1095.13 100.272 1095.13 101.79C1095.13 103.254 1095.46 104.389 1096.12 105.194C1096.78 105.999 1097.72 106.401 1098.94 106.401C1099.76 106.401 1100.47 106.214 1101.08 105.838C1101.68 105.462 1102.16 104.922 1102.5 104.216L1104.47 104.895C1103.99 105.991 1103.26 106.842 1102.29 107.448C1101.32 108.046 1100.23 108.345 1099.03 108.345ZM1094.44 102.365V100.72H1103.62V102.365H1094.44ZM1112.94 108.345C1111.78 108.345 1110.8 108.058 1110 107.482C1109.2 106.9 1108.59 106.114 1108.18 105.125C1107.77 104.128 1107.57 103.013 1107.57 101.778C1107.57 100.529 1107.77 99.4095 1108.18 98.4205C1108.59 97.4315 1109.2 96.6533 1110 96.086C1110.8 95.5187 1111.79 95.235 1112.95 95.235C1114.1 95.235 1115.09 95.5225 1115.92 96.0975C1116.76 96.6648 1117.4 97.443 1117.84 98.432C1118.29 99.421 1118.51 100.536 1118.51 101.778C1118.51 103.02 1118.29 104.136 1117.84 105.125C1117.4 106.114 1116.76 106.9 1115.92 107.482C1115.09 108.058 1114.1 108.345 1112.94 108.345ZM1107.23 113.52V95.58H1109.05V104.722H1109.28V113.52H1107.23ZM1112.69 106.47C1113.51 106.47 1114.19 106.263 1114.72 105.849C1115.26 105.435 1115.66 104.876 1115.93 104.17C1116.2 103.457 1116.33 102.66 1116.33 101.778C1116.33 100.904 1116.2 100.115 1115.93 99.4095C1115.67 98.7042 1115.26 98.1445 1114.71 97.7305C1114.17 97.3165 1113.47 97.1095 1112.63 97.1095C1111.83 97.1095 1111.16 97.3088 1110.63 97.7075C1110.1 98.0985 1109.71 98.6467 1109.45 99.352C1109.19 100.05 1109.05 100.858 1109.05 101.778C1109.05 102.683 1109.18 103.492 1109.43 104.205C1109.7 104.91 1110.09 105.466 1110.63 105.872C1111.17 106.271 1111.85 106.47 1112.69 106.47ZM1119.2 108L1124.21 101.79L1119.44 95.58H1121.72L1126.33 101.675V95.58H1128.19V101.675L1132.8 95.58H1135.08L1130.31 101.79L1135.32 108H1132.94L1128.19 101.905V108H1126.33V101.905L1121.58 108H1119.2ZM1137.14 108L1137.16 95.58H1139.23V101.56L1144.44 95.58H1147.09L1141.61 101.79L1147.74 108H1144.87L1139.23 102.02V108H1137.14ZM1152.41 108.345C1151.48 108.345 1150.71 108.176 1150.08 107.839C1149.46 107.494 1148.98 107.042 1148.66 106.482C1148.35 105.922 1148.19 105.309 1148.19 104.642C1148.19 103.99 1148.31 103.427 1148.56 102.951C1148.81 102.468 1149.16 102.07 1149.62 101.755C1150.07 101.433 1150.61 101.18 1151.24 100.996C1151.83 100.835 1152.49 100.697 1153.22 100.582C1153.95 100.46 1154.7 100.349 1155.45 100.249C1156.2 100.149 1156.9 100.053 1157.55 99.9615L1156.82 100.387C1156.84 99.283 1156.62 98.4665 1156.15 97.9375C1155.69 97.4085 1154.89 97.144 1153.76 97.144C1153.01 97.144 1152.35 97.3165 1151.78 97.6615C1151.22 97.9988 1150.82 98.5508 1150.59 99.3175L1148.65 98.731C1148.95 97.6423 1149.53 96.7875 1150.39 96.1665C1151.25 95.5455 1152.38 95.235 1153.78 95.235C1154.91 95.235 1155.87 95.4382 1156.68 95.8445C1157.49 96.2432 1158.07 96.8488 1158.43 97.6615C1158.6 98.0448 1158.71 98.4627 1158.76 98.915C1158.81 99.3597 1158.83 99.8273 1158.83 100.318V108H1157.01V105.021L1157.44 105.297C1156.97 106.302 1156.31 107.061 1155.47 107.574C1154.63 108.088 1153.61 108.345 1152.41 108.345ZM1152.72 106.631C1153.46 106.631 1154.09 106.501 1154.63 106.24C1155.17 105.972 1155.61 105.623 1155.94 105.194C1156.27 104.757 1156.49 104.282 1156.59 103.768C1156.7 103.385 1156.76 102.959 1156.77 102.491C1156.78 102.016 1156.79 101.652 1156.79 101.399L1157.51 101.709C1156.84 101.801 1156.18 101.89 1155.54 101.974C1154.9 102.058 1154.29 102.15 1153.71 102.25C1153.14 102.342 1152.62 102.453 1152.16 102.583C1151.82 102.691 1151.5 102.829 1151.2 102.997C1150.91 103.166 1150.67 103.385 1150.49 103.653C1150.31 103.914 1150.23 104.239 1150.23 104.63C1150.23 104.968 1150.31 105.29 1150.48 105.596C1150.66 105.903 1150.92 106.152 1151.28 106.344C1151.65 106.536 1152.13 106.631 1152.72 106.631ZM1176.59 95.58V108H1174.61V98.846L1168.1 108H1166.41V95.58H1168.39V104.607L1174.91 95.58H1176.59ZM1190.12 108.345C1188.95 108.345 1187.97 108.058 1187.17 107.482C1186.38 106.9 1185.77 106.114 1185.36 105.125C1184.95 104.128 1184.75 103.013 1184.75 101.778C1184.75 100.529 1184.95 99.4095 1185.36 98.4205C1185.77 97.4315 1186.38 96.6533 1187.17 96.086C1187.98 95.5187 1188.96 95.235 1190.13 95.235C1191.28 95.235 1192.27 95.5225 1193.1 96.0975C1193.93 96.6648 1194.57 97.443 1195.02 98.432C1195.46 99.421 1195.68 100.536 1195.68 101.778C1195.68 103.02 1195.46 104.136 1195.02 105.125C1194.57 106.114 1193.93 106.9 1193.1 107.482C1192.27 108.058 1191.28 108.345 1190.12 108.345ZM1184.4 113.52V95.58H1186.23V104.722H1186.46V113.52H1184.4ZM1189.86 106.47C1190.69 106.47 1191.36 106.263 1191.9 105.849C1192.44 105.435 1192.84 104.876 1193.11 104.17C1193.38 103.457 1193.51 102.66 1193.51 101.778C1193.51 100.904 1193.38 100.115 1193.11 99.4095C1192.85 98.7042 1192.44 98.1445 1191.89 97.7305C1191.34 97.3165 1190.65 97.1095 1189.81 97.1095C1189 97.1095 1188.34 97.3088 1187.81 97.7075C1187.28 98.0985 1186.88 98.6467 1186.62 99.352C1186.36 100.05 1186.23 100.858 1186.23 101.778C1186.23 102.683 1186.36 103.492 1186.61 104.205C1186.87 104.91 1187.27 105.466 1187.81 105.872C1188.34 106.271 1189.03 106.47 1189.86 106.47ZM1201.74 108.345C1200.81 108.345 1200.03 108.176 1199.4 107.839C1198.78 107.494 1198.31 107.042 1197.99 106.482C1197.67 105.922 1197.51 105.309 1197.51 104.642C1197.51 103.99 1197.64 103.427 1197.88 102.951C1198.14 102.468 1198.49 102.07 1198.94 101.755C1199.39 101.433 1199.93 101.18 1200.56 100.996C1201.15 100.835 1201.81 100.697 1202.54 100.582C1203.28 100.46 1204.02 100.349 1204.77 100.249C1205.52 100.149 1206.22 100.053 1206.88 99.9615L1206.14 100.387C1206.16 99.283 1205.94 98.4665 1205.47 97.9375C1205.01 97.4085 1204.22 97.144 1203.08 97.144C1202.33 97.144 1201.67 97.3165 1201.1 97.6615C1200.54 97.9988 1200.15 98.5508 1199.92 99.3175L1197.97 98.731C1198.27 97.6423 1198.85 96.7875 1199.71 96.1665C1200.57 95.5455 1201.7 95.235 1203.1 95.235C1204.23 95.235 1205.2 95.4382 1206 95.8445C1206.81 96.2432 1207.4 96.8488 1207.75 97.6615C1207.93 98.0448 1208.04 98.4627 1208.08 98.915C1208.13 99.3597 1208.15 99.8273 1208.15 100.318V108H1206.34V105.021L1206.76 105.297C1206.29 106.302 1205.64 107.061 1204.79 107.574C1203.96 108.088 1202.94 108.345 1201.74 108.345ZM1202.05 106.631C1202.78 106.631 1203.42 106.501 1203.95 106.24C1204.5 105.972 1204.94 105.623 1205.27 105.194C1205.6 104.757 1205.81 104.282 1205.91 103.768C1206.02 103.385 1206.09 102.959 1206.09 102.491C1206.11 102.016 1206.12 101.652 1206.12 101.399L1206.83 101.709C1206.16 101.801 1205.51 101.89 1204.86 101.974C1204.22 102.058 1203.61 102.15 1203.03 102.25C1202.46 102.342 1201.94 102.453 1201.48 102.583C1201.14 102.691 1200.83 102.829 1200.53 102.997C1200.24 103.166 1200 103.385 1199.81 103.653C1199.64 103.914 1199.55 104.239 1199.55 104.63C1199.55 104.968 1199.63 105.29 1199.8 105.596C1199.98 105.903 1200.25 106.152 1200.61 106.344C1200.98 106.536 1201.46 106.631 1202.05 106.631ZM1215.59 108.345C1214.37 108.345 1213.28 108.081 1212.34 107.551C1211.4 107.015 1210.65 106.279 1210.11 105.343L1211.74 104.285C1212.19 104.968 1212.73 105.493 1213.36 105.861C1213.99 106.221 1214.71 106.401 1215.51 106.401C1216.36 106.401 1217.03 106.21 1217.52 105.826C1218.02 105.435 1218.27 104.91 1218.27 104.251C1218.27 103.76 1218.15 103.385 1217.9 103.124C1217.66 102.863 1217.31 102.683 1216.85 102.583C1216.39 102.484 1215.84 102.434 1215.2 102.434H1213.91V100.743H1215.19C1216 100.743 1216.65 100.613 1217.16 100.352C1217.66 100.092 1217.92 99.6472 1217.92 99.0185C1217.92 98.3745 1217.68 97.9068 1217.2 97.6155C1216.74 97.3165 1216.18 97.167 1215.52 97.167C1214.83 97.167 1214.17 97.3127 1213.55 97.604C1212.92 97.8877 1212.38 98.248 1211.92 98.685L1210.68 97.2935C1211.33 96.6342 1212.07 96.1282 1212.9 95.7755C1213.75 95.4152 1214.66 95.235 1215.65 95.235C1216.45 95.235 1217.18 95.3768 1217.84 95.6605C1218.5 95.9365 1219.03 96.3467 1219.42 96.891C1219.82 97.4277 1220.02 98.0832 1220.02 98.8575C1220.02 99.5168 1219.87 100.103 1219.56 100.617C1219.25 101.131 1218.8 101.579 1218.2 101.962L1218.12 101.238C1218.63 101.361 1219.05 101.587 1219.38 101.916C1219.71 102.238 1219.96 102.622 1220.12 103.066C1220.28 103.511 1220.37 103.975 1220.37 104.458C1220.37 105.271 1220.15 105.968 1219.72 106.551C1219.3 107.126 1218.73 107.571 1218.01 107.885C1217.29 108.192 1216.48 108.345 1215.59 108.345ZM1222.88 108V95.58H1228.17C1228.48 95.58 1228.82 95.5992 1229.18 95.6375C1229.55 95.6682 1229.88 95.7257 1230.18 95.81C1230.85 95.9863 1231.4 96.3505 1231.82 96.9025C1232.26 97.4468 1232.48 98.1368 1232.48 98.9725C1232.48 99.4402 1232.41 99.8465 1232.26 100.191C1232.12 100.536 1231.92 100.835 1231.66 101.088C1231.55 101.203 1231.42 101.307 1231.28 101.399C1231.15 101.491 1231.01 101.564 1230.87 101.617C1231.14 101.663 1231.41 101.767 1231.69 101.928C1232.12 102.166 1232.46 102.499 1232.71 102.928C1232.96 103.358 1233.09 103.906 1233.09 104.573C1233.09 105.416 1232.89 106.114 1232.48 106.666C1232.07 107.21 1231.51 107.586 1230.8 107.793C1230.5 107.877 1230.17 107.935 1229.81 107.965C1229.45 107.988 1229.1 108 1228.77 108H1222.88ZM1224.95 106.332H1228.65C1228.81 106.332 1229 106.317 1229.23 106.286C1229.46 106.256 1229.66 106.217 1229.84 106.171C1230.23 106.056 1230.52 105.842 1230.7 105.527C1230.88 105.213 1230.97 104.872 1230.97 104.504C1230.97 104.013 1230.84 103.615 1230.56 103.308C1230.29 103.001 1229.93 102.81 1229.49 102.733C1229.33 102.687 1229.15 102.66 1228.96 102.652C1228.78 102.645 1228.61 102.641 1228.47 102.641H1224.95V106.332ZM1224.95 100.95H1228.03C1228.24 100.95 1228.47 100.939 1228.71 100.916C1228.95 100.885 1229.15 100.835 1229.33 100.766C1229.68 100.636 1229.94 100.421 1230.1 100.122C1230.27 99.8158 1230.35 99.4823 1230.35 99.122C1230.35 98.7233 1230.26 98.3745 1230.08 98.0755C1229.9 97.7688 1229.63 97.558 1229.26 97.443C1229.01 97.351 1228.74 97.3012 1228.43 97.2935C1228.13 97.2782 1227.94 97.2705 1227.86 97.2705H1224.95V100.95ZM1245.57 95.58V108H1243.59V98.846L1237.08 108H1235.39V95.58H1237.37V104.607L1243.89 95.58H1245.57ZM1252.08 108V97.443H1247.75V95.58H1258.45V97.443H1254.12V108H1252.08ZM1270.79 95.58V108H1268.81V98.846L1262.3 108H1260.61V95.58H1262.59V104.607L1269.11 95.58H1270.79ZM1279.39 108.345C1278.17 108.345 1277.11 108.077 1276.2 107.54C1275.29 106.996 1274.59 106.24 1274.08 105.274C1273.57 104.301 1273.32 103.166 1273.32 101.87C1273.32 100.513 1273.57 99.3405 1274.07 98.3515C1274.57 97.3548 1275.26 96.5882 1276.15 96.0515C1277.05 95.5072 1278.1 95.235 1279.3 95.235C1280.55 95.235 1281.61 95.5225 1282.49 96.0975C1283.37 96.6725 1284.03 97.4928 1284.46 98.5585C1284.91 99.6242 1285.1 100.893 1285.04 102.365H1282.97V101.629C1282.95 100.103 1282.64 98.9648 1282.04 98.2135C1281.44 97.4545 1280.55 97.075 1279.37 97.075C1278.1 97.075 1277.14 97.4813 1276.48 98.294C1275.82 99.1067 1275.49 100.272 1275.49 101.79C1275.49 103.254 1275.82 104.389 1276.48 105.194C1277.14 105.999 1278.08 106.401 1279.3 106.401C1280.12 106.401 1280.83 106.214 1281.44 105.838C1282.05 105.462 1282.52 104.922 1282.87 104.216L1284.83 104.895C1284.35 105.991 1283.62 106.842 1282.65 107.448C1281.68 108.046 1280.6 108.345 1279.39 108.345ZM1274.8 102.365V100.72H1283.98V102.365H1274.8ZM1035.61 131V118.58H1044.24V120.523H1037.66V131H1035.61ZM1051.48 131.345C1050.24 131.345 1049.18 131.065 1048.28 130.505C1047.39 129.946 1046.71 129.171 1046.22 128.182C1045.74 127.193 1045.5 126.059 1045.5 124.778C1045.5 123.475 1045.74 122.333 1046.24 121.351C1046.73 120.37 1047.42 119.607 1048.32 119.063C1049.21 118.511 1050.27 118.235 1051.48 118.235C1052.72 118.235 1053.79 118.515 1054.69 119.074C1055.58 119.626 1056.27 120.397 1056.75 121.386C1057.23 122.367 1057.47 123.498 1057.47 124.778C1057.47 126.074 1057.23 127.216 1056.75 128.205C1056.26 129.187 1055.57 129.957 1054.68 130.517C1053.78 131.069 1052.71 131.345 1051.48 131.345ZM1051.48 129.401C1052.77 129.401 1053.73 128.972 1054.35 128.113C1054.98 127.255 1055.3 126.143 1055.3 124.778C1055.3 123.375 1054.98 122.26 1054.34 121.432C1053.71 120.596 1052.75 120.178 1051.48 120.178C1050.61 120.178 1049.9 120.374 1049.34 120.765C1048.78 121.156 1048.36 121.696 1048.09 122.386C1047.81 123.076 1047.67 123.874 1047.67 124.778C1047.67 126.174 1047.99 127.293 1048.64 128.136C1049.28 128.98 1050.23 129.401 1051.48 129.401ZM1063.02 131V120.443H1058.7V118.58H1069.39V120.443H1065.07V131H1063.02ZM1076.64 131.345C1075.4 131.345 1074.34 131.065 1073.44 130.505C1072.55 129.946 1071.86 129.171 1071.38 128.182C1070.9 127.193 1070.66 126.059 1070.66 124.778C1070.66 123.475 1070.9 122.333 1071.39 121.351C1071.88 120.37 1072.58 119.607 1073.47 119.063C1074.37 118.511 1075.42 118.235 1076.64 118.235C1077.88 118.235 1078.95 118.515 1079.84 119.074C1080.74 119.626 1081.43 120.397 1081.9 121.386C1082.39 122.367 1082.63 123.498 1082.63 124.778C1082.63 126.074 1082.39 127.216 1081.9 128.205C1081.42 129.187 1080.73 129.957 1079.83 130.517C1078.94 131.069 1077.87 131.345 1076.64 131.345ZM1076.64 129.401C1077.92 129.401 1078.88 128.972 1079.51 128.113C1080.14 127.255 1080.45 126.143 1080.45 124.778C1080.45 123.375 1080.14 122.26 1079.5 121.432C1078.86 120.596 1077.91 120.178 1076.64 120.178C1075.77 120.178 1075.06 120.374 1074.5 120.765C1073.94 121.156 1073.52 121.696 1073.24 122.386C1072.97 123.076 1072.83 123.874 1072.83 124.778C1072.83 126.174 1073.15 127.293 1073.79 128.136C1074.44 128.98 1075.39 129.401 1076.64 129.401ZM1085.15 131V118.58H1090.44C1090.75 118.58 1091.09 118.599 1091.45 118.637C1091.82 118.668 1092.15 118.726 1092.45 118.81C1093.12 118.986 1093.66 119.35 1094.09 119.902C1094.53 120.447 1094.75 121.137 1094.75 121.972C1094.75 122.44 1094.68 122.846 1094.53 123.191C1094.39 123.536 1094.19 123.835 1093.93 124.088C1093.82 124.203 1093.69 124.307 1093.55 124.399C1093.42 124.491 1093.28 124.564 1093.14 124.617C1093.41 124.663 1093.68 124.767 1093.96 124.928C1094.39 125.166 1094.73 125.499 1094.98 125.928C1095.23 126.358 1095.36 126.906 1095.36 127.573C1095.36 128.416 1095.16 129.114 1094.75 129.666C1094.34 130.21 1093.78 130.586 1093.07 130.793C1092.77 130.877 1092.44 130.935 1092.08 130.965C1091.72 130.988 1091.37 131 1091.04 131H1085.15ZM1087.22 129.332H1090.92C1091.08 129.332 1091.27 129.317 1091.5 129.286C1091.73 129.256 1091.93 129.217 1092.1 129.171C1092.5 129.056 1092.79 128.842 1092.97 128.527C1093.15 128.213 1093.24 127.872 1093.24 127.504C1093.24 127.013 1093.11 126.615 1092.83 126.308C1092.56 126.001 1092.2 125.81 1091.76 125.733C1091.6 125.687 1091.42 125.66 1091.23 125.652C1091.05 125.645 1090.88 125.641 1090.74 125.641H1087.22V129.332ZM1087.22 123.95H1090.3C1090.51 123.95 1090.74 123.939 1090.98 123.916C1091.22 123.885 1091.42 123.835 1091.6 123.766C1091.95 123.636 1092.21 123.421 1092.37 123.122C1092.54 122.816 1092.62 122.482 1092.62 122.122C1092.62 121.723 1092.53 121.374 1092.35 121.075C1092.17 120.769 1091.9 120.558 1091.53 120.443C1091.28 120.351 1091.01 120.301 1090.7 120.293C1090.4 120.278 1090.21 120.27 1090.13 120.27H1087.22V123.95ZM1102.96 131.345C1101.73 131.345 1100.66 131.065 1099.76 130.505C1098.87 129.946 1098.19 129.171 1097.7 128.182C1097.22 127.193 1096.98 126.059 1096.98 124.778C1096.98 123.475 1097.22 122.333 1097.72 121.351C1098.21 120.37 1098.9 119.607 1099.8 119.063C1100.69 118.511 1101.75 118.235 1102.96 118.235C1104.2 118.235 1105.27 118.515 1106.17 119.074C1107.07 119.626 1107.75 120.397 1108.23 121.386C1108.71 122.367 1108.95 123.498 1108.95 124.778C1108.95 126.074 1108.71 127.216 1108.23 128.205C1107.74 129.187 1107.05 129.957 1106.16 130.517C1105.26 131.069 1104.19 131.345 1102.96 131.345ZM1102.96 129.401C1104.25 129.401 1105.21 128.972 1105.83 128.113C1106.46 127.255 1106.78 126.143 1106.78 124.778C1106.78 123.375 1106.46 122.26 1105.82 121.432C1105.19 120.596 1104.23 120.178 1102.96 120.178C1102.09 120.178 1101.38 120.374 1100.82 120.765C1100.26 121.156 1099.84 121.696 1099.57 122.386C1099.29 123.076 1099.15 123.874 1099.15 124.778C1099.15 126.174 1099.48 127.293 1100.12 128.136C1100.76 128.98 1101.71 129.401 1102.96 129.401ZM1111.48 131V118.58H1120.11V120.523H1113.53V131H1111.48ZM1127.35 131.345C1126.12 131.345 1125.05 131.065 1124.16 130.505C1123.27 129.946 1122.58 129.171 1122.1 128.182C1121.61 127.193 1121.37 126.059 1121.37 124.778C1121.37 123.475 1121.62 122.333 1122.11 121.351C1122.6 120.37 1123.29 119.607 1124.19 119.063C1125.09 118.511 1126.14 118.235 1127.35 118.235C1128.59 118.235 1129.66 118.515 1130.56 119.074C1131.46 119.626 1132.14 120.397 1132.62 121.386C1133.1 122.367 1133.34 123.498 1133.34 124.778C1133.34 126.074 1133.1 127.216 1132.62 128.205C1132.14 129.187 1131.45 129.957 1130.55 130.517C1129.65 131.069 1128.59 131.345 1127.35 131.345ZM1127.35 129.401C1128.64 129.401 1129.6 128.972 1130.23 128.113C1130.86 127.255 1131.17 126.143 1131.17 124.778C1131.17 123.375 1130.85 122.26 1130.22 121.432C1129.58 120.596 1128.62 120.178 1127.35 120.178C1126.49 120.178 1125.77 120.374 1125.21 120.765C1124.65 121.156 1124.24 121.696 1123.96 122.386C1123.68 123.076 1123.55 123.874 1123.55 124.778C1123.55 126.174 1123.87 127.293 1124.51 128.136C1125.16 128.98 1126.1 129.401 1127.35 129.401ZM1146.18 131.345C1145.02 131.345 1144.04 131.058 1143.24 130.482C1142.44 129.9 1141.84 129.114 1141.42 128.125C1141.02 127.128 1140.81 126.013 1140.81 124.778C1140.81 123.529 1141.02 122.409 1141.42 121.42C1141.84 120.431 1142.44 119.653 1143.24 119.086C1144.05 118.519 1145.03 118.235 1146.2 118.235C1147.35 118.235 1148.33 118.522 1149.16 119.097C1150 119.665 1150.64 120.443 1151.08 121.432C1151.53 122.421 1151.75 123.536 1151.75 124.778C1151.75 126.02 1151.53 127.136 1151.08 128.125C1150.64 129.114 1150 129.9 1149.16 130.482C1148.33 131.058 1147.34 131.345 1146.18 131.345ZM1140.47 136.52V118.58H1142.3V127.722H1142.53V136.52H1140.47ZM1145.93 129.47C1146.75 129.47 1147.43 129.263 1147.97 128.849C1148.5 128.435 1148.91 127.876 1149.17 127.17C1149.44 126.457 1149.58 125.66 1149.58 124.778C1149.58 123.904 1149.44 123.115 1149.17 122.409C1148.91 121.704 1148.51 121.144 1147.96 120.73C1147.41 120.316 1146.72 120.109 1145.87 120.109C1145.07 120.109 1144.4 120.309 1143.87 120.707C1143.34 121.098 1142.95 121.647 1142.69 122.352C1142.43 123.05 1142.3 123.858 1142.3 124.778C1142.3 125.683 1142.42 126.492 1142.68 127.205C1142.94 127.91 1143.34 128.466 1143.87 128.872C1144.41 129.271 1145.1 129.47 1145.93 129.47ZM1159.65 131.345C1158.43 131.345 1157.37 131.077 1156.46 130.54C1155.55 129.996 1154.85 129.24 1154.34 128.274C1153.83 127.301 1153.58 126.166 1153.58 124.87C1153.58 123.513 1153.83 122.34 1154.33 121.351C1154.83 120.355 1155.52 119.588 1156.41 119.051C1157.31 118.507 1158.36 118.235 1159.56 118.235C1160.81 118.235 1161.87 118.522 1162.75 119.097C1163.63 119.672 1164.29 120.493 1164.72 121.558C1165.17 122.624 1165.36 123.893 1165.3 125.365H1163.23V124.629C1163.21 123.103 1162.9 121.965 1162.3 121.213C1161.7 120.454 1160.81 120.075 1159.63 120.075C1158.37 120.075 1157.4 120.481 1156.74 121.294C1156.08 122.107 1155.75 123.272 1155.75 124.79C1155.75 126.254 1156.08 127.389 1156.74 128.194C1157.4 128.999 1158.34 129.401 1159.56 129.401C1160.38 129.401 1161.09 129.214 1161.7 128.838C1162.31 128.462 1162.78 127.922 1163.13 127.216L1165.09 127.895C1164.61 128.991 1163.88 129.842 1162.91 130.448C1161.94 131.046 1160.86 131.345 1159.65 131.345ZM1155.06 125.365V123.72H1164.24V125.365H1155.06ZM1167.85 131V118.58H1169.83V129.137H1174.1V118.58H1176.08V129.137H1180.35V118.58H1182.33V131H1167.85ZM1190.92 131.345C1189.7 131.345 1188.63 131.077 1187.72 130.54C1186.82 129.996 1186.11 129.24 1185.61 128.274C1185.1 127.301 1184.85 126.166 1184.85 124.87C1184.85 123.513 1185.1 122.34 1185.59 121.351C1186.09 120.355 1186.79 119.588 1187.68 119.051C1188.57 118.507 1189.62 118.235 1190.83 118.235C1192.08 118.235 1193.14 118.522 1194.01 119.097C1194.89 119.672 1195.55 120.493 1195.99 121.558C1196.43 122.624 1196.63 123.893 1196.57 125.365H1194.5V124.629C1194.47 123.103 1194.16 121.965 1193.56 121.213C1192.97 120.454 1192.08 120.075 1190.9 120.075C1189.63 120.075 1188.67 120.481 1188.01 121.294C1187.35 122.107 1187.02 123.272 1187.02 124.79C1187.02 126.254 1187.35 127.389 1188.01 128.194C1188.67 128.999 1189.61 129.401 1190.83 129.401C1191.65 129.401 1192.36 129.214 1192.97 128.838C1193.57 128.462 1194.05 127.922 1194.39 127.216L1196.36 127.895C1195.88 128.991 1195.15 129.842 1194.17 130.448C1193.21 131.046 1192.12 131.345 1190.92 131.345ZM1186.33 125.365V123.72H1195.51V125.365H1186.33ZM1199.11 131V118.58H1201.16V123.812H1207.69V118.58H1209.74V131H1207.69V125.756H1201.16V131H1199.11ZM1223.13 118.58V131H1221.15V121.846L1214.64 131H1212.95V118.58H1214.93V127.607L1221.45 118.58H1223.13ZM1234.02 131V126.503H1231.34C1231.02 126.503 1230.68 126.492 1230.29 126.469C1229.92 126.438 1229.56 126.396 1229.23 126.342C1228.34 126.174 1227.58 125.779 1226.96 125.158C1226.34 124.537 1226.04 123.678 1226.04 122.582C1226.04 121.516 1226.33 120.661 1226.9 120.017C1227.48 119.366 1228.2 118.944 1229.05 118.752C1229.43 118.66 1229.82 118.611 1230.21 118.603C1230.61 118.588 1230.95 118.58 1231.22 118.58H1236.07L1236.08 131H1234.02ZM1225.66 131L1228.96 125.94H1231.17L1227.87 131H1225.66ZM1231.19 124.813H1234.02V120.27H1231.19C1231.01 120.27 1230.78 120.278 1230.49 120.293C1230.2 120.309 1229.93 120.355 1229.67 120.431C1229.43 120.5 1229.18 120.627 1228.95 120.811C1228.72 120.995 1228.53 121.233 1228.37 121.524C1228.22 121.815 1228.14 122.16 1228.14 122.559C1228.14 123.134 1228.3 123.602 1228.63 123.962C1228.95 124.315 1229.34 124.552 1229.8 124.675C1230.05 124.736 1230.3 124.775 1230.55 124.79C1230.8 124.805 1231.01 124.813 1231.19 124.813Z" fill="white"/>
              </svg>