<svg width="1165" height="221" viewBox="0 0 1165 221" fill="none" xmlns="http://www.w3.org/2000/svg">
              <path d="M66.5344 0.929404L473.564 0.929369C484.614 0.929368 493.564 9.7618 493.564 20.6666L493.564 201.263C493.564 212.168 484.614 221 473.564 221L66.5145 221C58.9945 221 52.1045 216.835 48.6945 210.214L2.17443 120.044C-0.725565 114.429 -0.725565 107.777 2.17443 102.152L48.7044 11.7257C52.1145 5.10383 59.0044 0.929405 66.5344 0.929404Z" fill="#F2F2F2"/>
              <path d="M838.564 220.172L441.515 220.172C434.408 220.172 427.882 216.36 424.46 210.255L424.139 209.656L377.619 119.486C374.882 114.186 374.796 107.938 377.362 102.569L377.619 102.053L424.149 11.626C427.473 5.17316 434.189 1.1017 441.534 1.1016L838.564 1.10156C849.345 1.10156 858.064 9.71638 858.064 20.3389L858.064 200.935C858.064 211.557 849.345 220.172 838.564 220.172Z" fill="white" stroke="#254E6C"/>
              <path d="M835.534 0.60127L1144.56 0.601244C1155.61 0.601243 1164.56 9.43367 1164.56 20.3385L1164.56 200.935C1164.56 211.839 1155.61 220.672 1144.56 220.672L835.514 220.672C827.994 220.672 821.104 216.507 817.694 209.885L771.174 119.716C768.274 114.1 768.274 107.449 771.174 101.824L817.704 11.3976C821.114 4.77569 828.004 0.601271 835.534 0.60127Z" fill="#254E6C"/>
              <path d="M78.61 97V80.44H80.657V88.214L87.902 80.44H90.478L82.957 88.4785L91.0645 97H88.4195L80.657 88.904V97H78.61ZM97.0396 97.345C95.8053 97.345 94.7396 97.0652 93.8426 96.5055C92.9533 95.9458 92.2671 95.1715 91.7841 94.1825C91.3011 93.1935 91.0596 92.0588 91.0596 90.7785C91.0596 89.4752 91.305 88.3328 91.7956 87.3515C92.2863 86.3702 92.9801 85.6073 93.8771 85.063C94.7741 84.511 95.8283 84.235 97.0396 84.235C98.2816 84.235 99.3511 84.5148 100.248 85.0745C101.145 85.6265 101.831 86.397 102.307 87.386C102.79 88.3673 103.031 89.4982 103.031 90.7785C103.031 92.0742 102.79 93.2165 102.307 94.2055C101.824 95.1868 101.134 95.9573 100.237 96.517C99.3396 97.069 98.274 97.345 97.0396 97.345ZM97.0396 95.4015C98.3276 95.4015 99.286 94.9722 99.9146 94.1135C100.543 93.2548 100.858 92.1432 100.858 90.7785C100.858 89.3755 100.539 88.26 99.9031 87.432C99.2668 86.5963 98.3123 86.1785 97.0396 86.1785C96.1733 86.1785 95.4603 86.374 94.9006 86.765C94.341 87.156 93.9231 87.6965 93.6471 88.3865C93.3711 89.0765 93.2331 89.8738 93.2331 90.7785C93.2331 92.1738 93.5551 93.2932 94.1991 94.1365C94.8431 94.9798 95.79 95.4015 97.0396 95.4015ZM105.552 97V84.58H107.311L112.026 94.217L116.741 84.58H118.501V97H116.523V88.8465L112.567 97H111.486L107.53 88.8465V97H105.552ZM121.701 97V84.58H131.879V97H129.832V86.5235H123.748V97H121.701ZM133.949 97V95.2405C134.409 95.3248 134.758 95.3095 134.996 95.1945C135.241 95.0718 135.421 94.861 135.536 94.562C135.659 94.2553 135.759 93.872 135.835 93.412C135.966 92.6837 136.077 91.871 136.169 90.974C136.268 90.077 136.357 89.0957 136.433 88.03C136.518 86.9567 136.594 85.8067 136.663 84.58H145.346V97H143.299V86.5235H138.526C138.48 87.2288 138.423 87.9533 138.354 88.697C138.292 89.4407 138.227 90.1652 138.158 90.8705C138.089 91.5682 138.013 92.2198 137.928 92.8255C137.852 93.4235 137.767 93.941 137.675 94.378C137.53 95.1293 137.326 95.7312 137.066 96.1835C136.805 96.6282 136.429 96.9157 135.939 97.046C135.448 97.184 134.785 97.1687 133.949 97ZM153.958 97.345C152.739 97.345 151.673 97.0767 150.761 96.54C149.856 95.9957 149.151 95.2405 148.645 94.2745C148.139 93.3008 147.886 92.1662 147.886 90.8705C147.886 89.5135 148.135 88.3405 148.633 87.3515C149.132 86.3548 149.825 85.5882 150.715 85.0515C151.612 84.5072 152.662 84.235 153.866 84.235C155.115 84.235 156.177 84.5225 157.051 85.0975C157.933 85.6725 158.592 86.4928 159.029 87.5585C159.474 88.6242 159.666 89.893 159.604 91.365H157.534V90.629C157.511 89.1033 157.201 87.9648 156.603 87.2135C156.005 86.4545 155.115 86.075 153.935 86.075C152.67 86.075 151.708 86.4813 151.048 87.294C150.389 88.1067 150.059 89.272 150.059 90.79C150.059 92.2543 150.389 93.389 151.048 94.194C151.708 94.999 152.647 95.4015 153.866 95.4015C154.686 95.4015 155.399 95.2137 156.005 94.838C156.61 94.4623 157.086 93.9218 157.431 93.2165L159.397 93.895C158.914 94.9913 158.186 95.8423 157.212 96.448C156.246 97.046 155.161 97.345 153.958 97.345ZM149.369 91.365V89.7205H158.546V91.365H149.369ZM162.153 97L162.165 84.58H164.235V90.56L169.444 84.58H172.101L166.615 90.79L172.745 97H169.881L164.235 91.02V97H162.153ZM178.897 97.345C177.64 97.345 176.57 97.0652 175.689 96.5055C174.815 95.9382 174.148 95.16 173.688 94.171C173.228 93.182 172.99 92.055 172.975 90.79C172.99 89.4943 173.232 88.3558 173.699 87.3745C174.175 86.3855 174.853 85.615 175.735 85.063C176.616 84.511 177.678 84.235 178.92 84.235C180.231 84.235 181.358 84.557 182.301 85.201C183.252 85.845 183.888 86.7267 184.21 87.846L182.186 88.4555C181.926 87.7348 181.5 87.1752 180.91 86.7765C180.327 86.3778 179.656 86.1785 178.897 86.1785C178.046 86.1785 177.345 86.3778 176.793 86.7765C176.241 87.1675 175.831 87.7118 175.562 88.4095C175.294 89.0995 175.156 89.893 175.148 90.79C175.164 92.17 175.482 93.2855 176.103 94.1365C176.731 94.9798 177.663 95.4015 178.897 95.4015C179.71 95.4015 180.385 95.2175 180.921 94.8495C181.458 94.4738 181.864 93.9333 182.14 93.228L184.21 93.7685C183.781 94.9262 183.11 95.8117 182.198 96.425C181.285 97.0383 180.185 97.345 178.897 97.345ZM186.546 97V84.58H188.593V89.8125H195.125V84.58H197.172V97H195.125V91.756H188.593V97H186.546ZM205.683 97.345C204.449 97.345 203.383 97.0652 202.486 96.5055C201.597 95.9458 200.911 95.1715 200.428 94.1825C199.945 93.1935 199.703 92.0588 199.703 90.7785C199.703 89.4752 199.949 88.3328 200.439 87.3515C200.93 86.3702 201.624 85.6073 202.521 85.063C203.418 84.511 204.472 84.235 205.683 84.235C206.925 84.235 207.995 84.5148 208.892 85.0745C209.789 85.6265 210.475 86.397 210.95 87.386C211.433 88.3673 211.675 89.4982 211.675 90.7785C211.675 92.0742 211.433 93.2165 210.95 94.2055C210.467 95.1868 209.777 95.9573 208.88 96.517C207.983 97.069 206.918 97.345 205.683 97.345ZM205.683 95.4015C206.971 95.4015 207.93 94.9722 208.558 94.1135C209.187 93.2548 209.501 92.1432 209.501 90.7785C209.501 89.3755 209.183 88.26 208.547 87.432C207.91 86.5963 206.956 86.1785 205.683 86.1785C204.817 86.1785 204.104 86.374 203.544 86.765C202.985 87.156 202.567 87.6965 202.291 88.3865C202.015 89.0765 201.877 89.8738 201.877 90.7785C201.877 92.1738 202.199 93.2932 202.843 94.1365C203.487 94.9798 204.434 95.4015 205.683 95.4015ZM219.589 97.345C218.37 97.345 217.304 97.0767 216.392 96.54C215.487 95.9957 214.782 95.2405 214.276 94.2745C213.77 93.3008 213.517 92.1662 213.517 90.8705C213.517 89.5135 213.766 88.3405 214.264 87.3515C214.763 86.3548 215.456 85.5882 216.346 85.0515C217.243 84.5072 218.293 84.235 219.497 84.235C220.746 84.235 221.808 84.5225 222.682 85.0975C223.564 85.6725 224.223 86.4928 224.66 87.5585C225.105 88.6242 225.297 89.893 225.235 91.365H223.165V90.629C223.142 89.1033 222.832 87.9648 222.234 87.2135C221.636 86.4545 220.746 86.075 219.566 86.075C218.301 86.075 217.339 86.4813 216.679 87.294C216.02 88.1067 215.69 89.272 215.69 90.79C215.69 92.2543 216.02 93.389 216.679 94.194C217.339 94.999 218.278 95.4015 219.497 95.4015C220.317 95.4015 221.03 95.2137 221.636 94.838C222.241 94.4623 222.717 93.9218 223.062 93.2165L225.028 93.895C224.545 94.9913 223.817 95.8423 222.843 96.448C221.877 97.046 220.792 97.345 219.589 97.345ZM215 91.365V89.7205H224.177V91.365H215ZM81.899 120V109.443H77.575V107.58H88.27V109.443H83.946V120H81.899ZM95.8289 120.345C94.6099 120.345 93.5442 120.077 92.6319 119.54C91.7272 118.996 91.0219 118.24 90.5159 117.274C90.0099 116.301 89.7569 115.166 89.7569 113.87C89.7569 112.513 90.0061 111.34 90.5044 110.351C91.0027 109.355 91.6966 108.588 92.5859 108.051C93.4829 107.507 94.5332 107.235 95.7369 107.235C96.9866 107.235 98.0484 107.522 98.9224 108.097C99.8041 108.672 100.463 109.493 100.9 110.558C101.345 111.624 101.537 112.893 101.475 114.365H99.4054V113.629C99.3824 112.103 99.0719 110.965 98.4739 110.213C97.8759 109.454 96.9866 109.075 95.8059 109.075C94.5409 109.075 93.5787 109.481 92.9194 110.294C92.2601 111.107 91.9304 112.272 91.9304 113.79C91.9304 115.254 92.2601 116.389 92.9194 117.194C93.5787 117.999 94.5179 118.401 95.7369 118.401C96.5572 118.401 97.2702 118.214 97.8759 117.838C98.4816 117.462 98.9569 116.922 99.3019 116.216L101.268 116.895C100.785 117.991 100.057 118.842 99.0834 119.448C98.1174 120.046 97.0326 120.345 95.8289 120.345ZM91.2404 114.365V112.72H100.417V114.365H91.2404ZM109.268 120.345C108.011 120.345 106.941 120.065 106.06 119.505C105.186 118.938 104.519 118.16 104.059 117.171C103.599 116.182 103.361 115.055 103.346 113.79C103.361 112.494 103.603 111.356 104.07 110.374C104.546 109.385 105.224 108.615 106.106 108.063C106.987 107.511 108.049 107.235 109.291 107.235C110.602 107.235 111.729 107.557 112.672 108.201C113.623 108.845 114.259 109.727 114.581 110.846L112.557 111.455C112.297 110.735 111.871 110.175 111.281 109.776C110.698 109.378 110.027 109.178 109.268 109.178C108.417 109.178 107.716 109.378 107.164 109.776C106.612 110.167 106.202 110.712 105.933 111.409C105.665 112.099 105.527 112.893 105.519 113.79C105.535 115.17 105.853 116.285 106.474 117.136C107.102 117.98 108.034 118.401 109.268 118.401C110.081 118.401 110.756 118.217 111.292 117.849C111.829 117.474 112.235 116.933 112.511 116.228L114.581 116.768C114.152 117.926 113.481 118.812 112.569 119.425C111.656 120.038 110.556 120.345 109.268 120.345ZM119.993 120V109.443H115.669V107.58H126.364V109.443H122.04V120H119.993ZM138.707 107.58V120H136.729V110.846L130.22 120H128.529V107.58H130.507V116.607L137.028 107.58H138.707ZM147.631 120.345C146.466 120.345 145.485 120.058 144.687 119.482C143.89 118.9 143.284 118.114 142.87 117.125C142.464 116.128 142.261 115.013 142.261 113.778C142.261 112.529 142.464 111.409 142.87 110.42C143.284 109.431 143.89 108.653 144.687 108.086C145.492 107.519 146.478 107.235 147.643 107.235C148.793 107.235 149.782 107.522 150.61 108.097C151.446 108.665 152.086 109.443 152.53 110.432C152.975 111.421 153.197 112.536 153.197 113.778C153.197 115.02 152.975 116.136 152.53 117.125C152.086 118.114 151.446 118.9 150.61 119.482C149.782 120.058 148.789 120.345 147.631 120.345ZM141.916 125.52V107.58H143.744V116.722H143.974V125.52H141.916ZM147.378 118.47C148.199 118.47 148.877 118.263 149.414 117.849C149.951 117.435 150.353 116.876 150.621 116.17C150.89 115.457 151.024 114.66 151.024 113.778C151.024 112.904 150.89 112.115 150.621 111.409C150.361 110.704 149.954 110.144 149.402 109.73C148.858 109.316 148.164 109.109 147.321 109.109C146.516 109.109 145.849 109.309 145.32 109.707C144.791 110.098 144.396 110.647 144.135 111.352C143.875 112.05 143.744 112.858 143.744 113.778C143.744 114.683 143.871 115.492 144.124 116.205C144.385 116.91 144.783 117.466 145.32 117.872C145.857 118.271 146.543 118.47 147.378 118.47ZM161.008 120.345C159.774 120.345 158.708 120.065 157.811 119.505C156.922 118.946 156.236 118.171 155.753 117.182C155.27 116.193 155.028 115.059 155.028 113.778C155.028 112.475 155.274 111.333 155.764 110.351C156.255 109.37 156.949 108.607 157.846 108.063C158.743 107.511 159.797 107.235 161.008 107.235C162.25 107.235 163.32 107.515 164.217 108.074C165.114 108.626 165.8 109.397 166.275 110.386C166.758 111.367 167 112.498 167 113.778C167 115.074 166.758 116.216 166.275 117.205C165.792 118.187 165.102 118.957 164.205 119.517C163.308 120.069 162.243 120.345 161.008 120.345ZM161.008 118.401C162.296 118.401 163.255 117.972 163.883 117.113C164.512 116.255 164.826 115.143 164.826 113.778C164.826 112.375 164.508 111.26 163.872 110.432C163.236 109.596 162.281 109.178 161.008 109.178C160.142 109.178 159.429 109.374 158.869 109.765C158.31 110.156 157.892 110.696 157.616 111.386C157.34 112.076 157.202 112.874 157.202 113.778C157.202 115.174 157.524 116.293 158.168 117.136C158.812 117.98 159.759 118.401 161.008 118.401ZM169.52 120V107.58H174.81C175.125 107.58 175.462 107.599 175.822 107.637C176.19 107.668 176.524 107.726 176.823 107.81C177.49 107.986 178.038 108.35 178.467 108.902C178.904 109.447 179.123 110.137 179.123 110.972C179.123 111.44 179.05 111.846 178.904 112.191C178.766 112.536 178.567 112.835 178.306 113.088C178.191 113.203 178.065 113.307 177.927 113.399C177.789 113.491 177.651 113.564 177.513 113.617C177.781 113.663 178.053 113.767 178.329 113.928C178.766 114.166 179.108 114.499 179.353 114.928C179.606 115.358 179.732 115.906 179.732 116.573C179.732 117.416 179.529 118.114 179.123 118.666C178.717 119.21 178.157 119.586 177.444 119.793C177.145 119.877 176.815 119.935 176.455 119.965C176.095 119.988 175.746 120 175.408 120H169.52ZM171.59 118.332H175.293C175.454 118.332 175.646 118.317 175.868 118.286C176.098 118.256 176.302 118.217 176.478 118.171C176.877 118.056 177.164 117.842 177.34 117.527C177.524 117.213 177.616 116.872 177.616 116.504C177.616 116.013 177.478 115.615 177.202 115.308C176.934 115.001 176.578 114.81 176.133 114.733C175.972 114.687 175.796 114.66 175.604 114.652C175.42 114.645 175.255 114.641 175.109 114.641H171.59V118.332ZM171.59 112.95H174.672C174.887 112.95 175.113 112.939 175.351 112.916C175.589 112.885 175.796 112.835 175.972 112.766C176.325 112.636 176.581 112.421 176.742 112.122C176.911 111.816 176.995 111.482 176.995 111.122C176.995 110.723 176.903 110.374 176.719 110.075C176.543 109.769 176.271 109.558 175.903 109.443C175.658 109.351 175.382 109.301 175.075 109.293C174.776 109.278 174.584 109.27 174.5 109.27H171.59V112.95ZM185.573 120.345C184.645 120.345 183.867 120.176 183.239 119.839C182.618 119.494 182.146 119.042 181.824 118.482C181.51 117.922 181.353 117.309 181.353 116.642C181.353 115.99 181.475 115.427 181.721 114.951C181.974 114.468 182.326 114.07 182.779 113.755C183.231 113.433 183.771 113.18 184.4 112.996C184.99 112.835 185.65 112.697 186.378 112.582C187.114 112.46 187.858 112.349 188.609 112.249C189.36 112.149 190.062 112.053 190.714 111.961L189.978 112.387C190.001 111.283 189.778 110.466 189.311 109.937C188.851 109.408 188.053 109.144 186.919 109.144C186.167 109.144 185.508 109.316 184.941 109.661C184.381 109.999 183.986 110.551 183.756 111.317L181.813 110.731C182.112 109.642 182.69 108.787 183.549 108.166C184.408 107.545 185.539 107.235 186.942 107.235C188.069 107.235 189.035 107.438 189.84 107.844C190.652 108.243 191.235 108.849 191.588 109.661C191.764 110.045 191.875 110.463 191.921 110.915C191.967 111.36 191.99 111.827 191.99 112.318V120H190.173V117.021L190.599 117.297C190.131 118.302 189.475 119.061 188.632 119.574C187.796 120.088 186.777 120.345 185.573 120.345ZM185.884 118.631C186.62 118.631 187.256 118.501 187.793 118.24C188.337 117.972 188.774 117.623 189.104 117.194C189.433 116.757 189.648 116.282 189.748 115.768C189.863 115.385 189.924 114.959 189.932 114.491C189.947 114.016 189.955 113.652 189.955 113.399L190.668 113.709C190.001 113.801 189.345 113.89 188.701 113.974C188.057 114.058 187.448 114.15 186.873 114.25C186.298 114.342 185.78 114.453 185.32 114.583C184.983 114.691 184.665 114.829 184.366 114.997C184.074 115.166 183.837 115.385 183.653 115.653C183.476 115.914 183.388 116.239 183.388 116.63C183.388 116.968 183.472 117.29 183.641 117.596C183.817 117.903 184.086 118.152 184.446 118.344C184.814 118.536 185.293 118.631 185.884 118.631ZM194.969 120V107.58H197.016V112.812H203.548V107.58H205.595V120H203.548V114.756H197.016V120H194.969ZM218.982 107.58V120H217.004V110.846L210.495 120H208.805V107.58H210.783V116.607L217.303 107.58H218.982ZM227.585 120.345C226.366 120.345 225.3 120.077 224.388 119.54C223.483 118.996 222.778 118.24 222.272 117.274C221.766 116.301 221.513 115.166 221.513 113.87C221.513 112.513 221.762 111.34 222.26 110.351C222.759 109.355 223.452 108.588 224.342 108.051C225.239 107.507 226.289 107.235 227.493 107.235C228.742 107.235 229.804 107.522 230.678 108.097C231.56 108.672 232.219 109.493 232.656 110.558C233.101 111.624 233.293 112.893 233.231 114.365H231.161V113.629C231.138 112.103 230.828 110.965 230.23 110.213C229.632 109.454 228.742 109.075 227.562 109.075C226.297 109.075 225.335 109.481 224.675 110.294C224.016 111.107 223.686 112.272 223.686 113.79C223.686 115.254 224.016 116.389 224.675 117.194C225.335 117.999 226.274 118.401 227.493 118.401C228.313 118.401 229.026 118.214 229.632 117.838C230.237 117.462 230.713 116.922 231.058 116.216L233.024 116.895C232.541 117.991 231.813 118.842 230.839 119.448C229.873 120.046 228.788 120.345 227.585 120.345ZM222.996 114.365V112.72H232.173V114.365H222.996ZM240.385 120V107.58H242.432V112.812H248.964V107.58H251.011V120H248.964V114.756H242.432V120H240.385ZM257.763 120.345C256.835 120.345 256.057 120.176 255.428 119.839C254.807 119.494 254.336 119.042 254.014 118.482C253.699 117.922 253.542 117.309 253.542 116.642C253.542 115.99 253.665 115.427 253.91 114.951C254.163 114.468 254.516 114.07 254.968 113.755C255.42 113.433 255.961 113.18 256.59 112.996C257.18 112.835 257.839 112.697 258.568 112.582C259.304 112.46 260.047 112.349 260.799 112.249C261.55 112.149 262.251 112.053 262.903 111.961L262.167 112.387C262.19 111.283 261.968 110.466 261.5 109.937C261.04 109.408 260.243 109.144 259.108 109.144C258.357 109.144 257.697 109.316 257.13 109.661C256.57 109.999 256.176 110.551 255.946 111.317L254.002 110.731C254.301 109.642 254.88 108.787 255.739 108.166C256.597 107.545 257.728 107.235 259.131 107.235C260.258 107.235 261.224 107.438 262.029 107.844C262.842 108.243 263.424 108.849 263.777 109.661C263.953 110.045 264.065 110.463 264.111 110.915C264.157 111.36 264.18 111.827 264.18 112.318V120H262.363V117.021L262.788 117.297C262.32 118.302 261.665 119.061 260.822 119.574C259.986 120.088 258.966 120.345 257.763 120.345ZM258.073 118.631C258.809 118.631 259.445 118.501 259.982 118.24C260.526 117.972 260.963 117.623 261.293 117.194C261.623 116.757 261.837 116.282 261.937 115.768C262.052 115.385 262.113 114.959 262.121 114.491C262.136 114.016 262.144 113.652 262.144 113.399L262.857 113.709C262.19 113.801 261.535 113.89 260.891 113.974C260.247 114.058 259.637 114.15 259.062 114.25C258.487 114.342 257.97 114.453 257.51 114.583C257.172 114.691 256.854 114.829 256.555 114.997C256.264 115.166 256.026 115.385 255.842 115.653C255.666 115.914 255.578 116.239 255.578 116.63C255.578 116.968 255.662 117.29 255.831 117.596C256.007 117.903 256.275 118.152 256.636 118.344C257.004 118.536 257.483 118.631 258.073 118.631ZM271.763 120V107.58H277.053C277.367 107.58 277.704 107.599 278.065 107.637C278.433 107.668 278.766 107.726 279.065 107.81C279.732 107.986 280.28 108.35 280.71 108.902C281.147 109.447 281.365 110.137 281.365 110.972C281.365 111.44 281.292 111.846 281.147 112.191C281.009 112.536 280.809 112.835 280.549 113.088C280.434 113.203 280.307 113.307 280.169 113.399C280.031 113.491 279.893 113.564 279.755 113.617C280.023 113.663 280.296 113.767 280.572 113.928C281.009 114.166 281.35 114.499 281.595 114.928C281.848 115.358 281.975 115.906 281.975 116.573C281.975 117.416 281.771 118.114 281.365 118.666C280.959 119.21 280.399 119.586 279.686 119.793C279.387 119.877 279.057 119.935 278.697 119.965C278.337 119.988 277.988 120 277.651 120H271.763ZM273.833 118.332H277.536C277.697 118.332 277.888 118.317 278.111 118.286C278.341 118.256 278.544 118.217 278.72 118.171C279.119 118.056 279.406 117.842 279.583 117.527C279.767 117.213 279.859 116.872 279.859 116.504C279.859 116.013 279.721 115.615 279.445 115.308C279.176 115.001 278.82 114.81 278.375 114.733C278.214 114.687 278.038 114.66 277.846 114.652C277.662 114.645 277.497 114.641 277.352 114.641H273.833V118.332ZM273.833 112.95H276.915C277.129 112.95 277.355 112.939 277.593 112.916C277.831 112.885 278.038 112.835 278.214 112.766C278.567 112.636 278.824 112.421 278.985 112.122C279.153 111.816 279.238 111.482 279.238 111.122C279.238 110.723 279.146 110.374 278.962 110.075C278.785 109.769 278.513 109.558 278.145 109.443C277.9 109.351 277.624 109.301 277.317 109.293C277.018 109.278 276.826 109.27 276.742 109.27H273.833V112.95ZM289.517 120.345C288.26 120.345 287.19 120.065 286.309 119.505C285.435 118.938 284.768 118.16 284.308 117.171C283.848 116.182 283.61 115.055 283.595 113.79C283.61 112.494 283.852 111.356 284.319 110.374C284.795 109.385 285.473 108.615 286.355 108.063C287.236 107.511 288.298 107.235 289.54 107.235C290.851 107.235 291.978 107.557 292.921 108.201C293.872 108.845 294.508 109.727 294.83 110.846L292.806 111.455C292.546 110.735 292.12 110.175 291.53 109.776C290.947 109.378 290.276 109.178 289.517 109.178C288.666 109.178 287.965 109.378 287.413 109.776C286.861 110.167 286.451 110.712 286.182 111.409C285.914 112.099 285.776 112.893 285.768 113.79C285.784 115.17 286.102 116.285 286.723 117.136C287.351 117.98 288.283 118.401 289.517 118.401C290.33 118.401 291.005 118.217 291.541 117.849C292.078 117.474 292.484 116.933 292.76 116.228L294.83 116.768C294.401 117.926 293.73 118.812 292.818 119.425C291.905 120.038 290.805 120.345 289.517 120.345ZM302.559 120.345C301.34 120.345 300.275 120.077 299.362 119.54C298.458 118.996 297.752 118.24 297.246 117.274C296.74 116.301 296.487 115.166 296.487 113.87C296.487 112.513 296.737 111.34 297.235 110.351C297.733 109.355 298.427 108.588 299.316 108.051C300.213 107.507 301.264 107.235 302.467 107.235C303.717 107.235 304.779 107.522 305.653 108.097C306.535 108.672 307.194 109.493 307.631 110.558C308.076 111.624 308.267 112.893 308.206 114.365H306.136V113.629C306.113 112.103 305.802 110.965 305.204 110.213C304.606 109.454 303.717 109.075 302.536 109.075C301.271 109.075 300.309 109.481 299.65 110.294C298.991 111.107 298.661 112.272 298.661 113.79C298.661 115.254 298.991 116.389 299.65 117.194C300.309 117.999 301.248 118.401 302.467 118.401C303.288 118.401 304.001 118.214 304.606 117.838C305.212 117.462 305.687 116.922 306.032 116.216L307.999 116.895C307.516 117.991 306.788 118.842 305.814 119.448C304.848 120.046 303.763 120.345 302.559 120.345ZM297.971 114.365V112.72H307.148V114.365H297.971ZM308.937 120L313.687 113.721L309.041 107.58H311.479L314.883 112.134L318.252 107.58H320.69L316.044 113.721L320.805 120H318.356L314.883 115.308L311.387 120H308.937ZM83.0835 143.345C81.8032 143.345 80.7068 143.038 79.7945 142.425C78.8822 141.812 78.2037 140.926 77.759 139.768L79.829 139.228C80.1127 139.933 80.5228 140.474 81.0595 140.849C81.6038 141.217 82.2747 141.401 83.072 141.401C84.1837 141.401 85.0462 141.06 85.6595 140.378C86.2728 139.688 86.637 138.772 86.752 137.629H81.669V135.939H86.752C86.6447 134.827 86.292 133.923 85.694 133.225C85.096 132.527 84.2373 132.178 83.118 132.178C82.3437 132.178 81.6613 132.374 81.071 132.765C80.4883 133.156 80.059 133.719 79.783 134.455L77.759 133.846C78.0887 132.727 78.7288 131.845 79.6795 131.201C80.6302 130.557 81.7687 130.235 83.095 130.235C84.3217 130.235 85.3758 130.511 86.2575 131.063C87.1392 131.615 87.8138 132.385 88.2815 133.374C88.7568 134.363 88.9945 135.506 88.9945 136.801C88.9945 138.089 88.7607 139.224 88.293 140.205C87.8253 141.187 87.1507 141.957 86.269 142.517C85.3873 143.069 84.3255 143.345 83.0835 143.345ZM94.5445 143V132.443H90.2205V130.58H100.916V132.443H96.5915V143H94.5445ZM106.219 143.345C105.291 143.345 104.513 143.176 103.884 142.839C103.263 142.494 102.792 142.042 102.47 141.482C102.155 140.922 101.998 140.309 101.998 139.642C101.998 138.99 102.121 138.427 102.366 137.951C102.619 137.468 102.972 137.07 103.424 136.755C103.876 136.433 104.417 136.18 105.046 135.996C105.636 135.835 106.295 135.697 107.024 135.582C107.76 135.46 108.503 135.349 109.255 135.249C110.006 135.149 110.707 135.053 111.359 134.961L110.623 135.387C110.646 134.283 110.424 133.466 109.956 132.937C109.496 132.408 108.699 132.144 107.564 132.144C106.813 132.144 106.153 132.316 105.586 132.661C105.026 132.999 104.632 133.551 104.402 134.317L102.458 133.731C102.757 132.642 103.336 131.787 104.195 131.166C105.053 130.545 106.184 130.235 107.587 130.235C108.714 130.235 109.68 130.438 110.485 130.844C111.298 131.243 111.88 131.849 112.233 132.661C112.409 133.045 112.521 133.463 112.567 133.915C112.613 134.36 112.636 134.827 112.636 135.318V143H110.819V140.021L111.244 140.297C110.776 141.302 110.121 142.061 109.278 142.574C108.442 143.088 107.422 143.345 106.219 143.345ZM106.529 141.631C107.265 141.631 107.901 141.501 108.438 141.24C108.982 140.972 109.419 140.623 109.749 140.194C110.079 139.757 110.293 139.282 110.393 138.768C110.508 138.385 110.569 137.959 110.577 137.491C110.592 137.016 110.6 136.652 110.6 136.399L111.313 136.709C110.646 136.801 109.991 136.89 109.347 136.974C108.703 137.058 108.093 137.15 107.518 137.25C106.943 137.342 106.426 137.453 105.966 137.583C105.628 137.691 105.31 137.829 105.011 137.997C104.72 138.166 104.482 138.385 104.298 138.653C104.122 138.914 104.034 139.239 104.034 139.63C104.034 139.968 104.118 140.29 104.287 140.596C104.463 140.903 104.731 141.152 105.092 141.344C105.46 141.536 105.939 141.631 106.529 141.631ZM115.614 143V130.58H125.792V143H123.745V132.523H117.661V143H115.614ZM132.543 143.345C131.615 143.345 130.837 143.176 130.208 142.839C129.587 142.494 129.116 142.042 128.794 141.482C128.48 140.922 128.322 140.309 128.322 139.642C128.322 138.99 128.445 138.427 128.69 137.951C128.943 137.468 129.296 137.07 129.748 136.755C130.201 136.433 130.741 136.18 131.37 135.996C131.96 135.835 132.62 135.697 133.348 135.582C134.084 135.46 134.828 135.349 135.579 135.249C136.33 135.149 137.032 135.053 137.683 134.961L136.947 135.387C136.97 134.283 136.748 133.466 136.28 132.937C135.82 132.408 135.023 132.144 133.888 132.144C133.137 132.144 132.478 132.316 131.91 132.661C131.351 132.999 130.956 133.551 130.726 134.317L128.782 133.731C129.081 132.642 129.66 131.787 130.519 131.166C131.378 130.545 132.508 130.235 133.911 130.235C135.038 130.235 136.004 130.438 136.809 130.844C137.622 131.243 138.205 131.849 138.557 132.661C138.734 133.045 138.845 133.463 138.891 133.915C138.937 134.36 138.96 134.827 138.96 135.318V143H137.143V140.021L137.568 140.297C137.101 141.302 136.445 142.061 135.602 142.574C134.766 143.088 133.747 143.345 132.543 143.345ZM132.853 141.631C133.589 141.631 134.226 141.501 134.762 141.24C135.307 140.972 135.744 140.623 136.073 140.194C136.403 139.757 136.618 139.282 136.717 138.768C136.832 138.385 136.894 137.959 136.901 137.491C136.917 137.016 136.924 136.652 136.924 136.399L137.637 136.709C136.97 136.801 136.315 136.89 135.671 136.974C135.027 137.058 134.417 137.15 133.842 137.25C133.267 137.342 132.75 137.453 132.29 137.583C131.953 137.691 131.634 137.829 131.335 137.997C131.044 138.166 130.806 138.385 130.622 138.653C130.446 138.914 130.358 139.239 130.358 139.63C130.358 139.968 130.442 140.29 130.611 140.596C130.787 140.903 131.056 141.152 131.416 141.344C131.784 141.536 132.263 141.631 132.853 141.631ZM140.57 143L145.319 136.721L140.673 130.58H143.111L146.515 135.134L149.885 130.58H152.323L147.677 136.721L152.438 143H149.988L146.515 138.308L143.019 143H140.57ZM164.589 143.345C163.424 143.345 162.443 143.058 161.645 142.482C160.848 141.9 160.242 141.114 159.828 140.125C159.422 139.128 159.219 138.013 159.219 136.778C159.219 135.529 159.422 134.409 159.828 133.42C160.242 132.431 160.848 131.653 161.645 131.086C162.45 130.519 163.436 130.235 164.601 130.235C165.751 130.235 166.74 130.522 167.568 131.097C168.404 131.665 169.044 132.443 169.488 133.432C169.933 134.421 170.155 135.536 170.155 136.778C170.155 138.02 169.933 139.136 169.488 140.125C169.044 141.114 168.404 141.9 167.568 142.482C166.74 143.058 165.747 143.345 164.589 143.345ZM158.874 148.52V130.58H160.702V139.722H160.932V148.52H158.874ZM164.336 141.47C165.157 141.47 165.835 141.263 166.372 140.849C166.909 140.435 167.311 139.876 167.579 139.17C167.848 138.457 167.982 137.66 167.982 136.778C167.982 135.904 167.848 135.115 167.579 134.409C167.319 133.704 166.912 133.144 166.36 132.73C165.816 132.316 165.122 132.109 164.279 132.109C163.474 132.109 162.807 132.309 162.278 132.707C161.749 133.098 161.354 133.647 161.093 134.352C160.833 135.05 160.702 135.858 160.702 136.778C160.702 137.683 160.829 138.492 161.082 139.205C161.343 139.91 161.741 140.466 162.278 140.872C162.815 141.271 163.501 141.47 164.336 141.47ZM176.207 143.345C175.279 143.345 174.501 143.176 173.872 142.839C173.251 142.494 172.78 142.042 172.458 141.482C172.144 140.922 171.986 140.309 171.986 139.642C171.986 138.99 172.109 138.427 172.354 137.951C172.607 137.468 172.96 137.07 173.412 136.755C173.865 136.433 174.405 136.18 175.034 135.996C175.624 135.835 176.284 135.697 177.012 135.582C177.748 135.46 178.492 135.349 179.243 135.249C179.994 135.149 180.696 135.053 181.347 134.961L180.611 135.387C180.634 134.283 180.412 133.466 179.944 132.937C179.484 132.408 178.687 132.144 177.552 132.144C176.801 132.144 176.142 132.316 175.574 132.661C175.015 132.999 174.62 133.551 174.39 134.317L172.446 133.731C172.745 132.642 173.324 131.787 174.183 131.166C175.042 130.545 176.172 130.235 177.575 130.235C178.702 130.235 179.668 130.438 180.473 130.844C181.286 131.243 181.869 131.849 182.221 132.661C182.398 133.045 182.509 133.463 182.555 133.915C182.601 134.36 182.624 134.827 182.624 135.318V143H180.807V140.021L181.232 140.297C180.765 141.302 180.109 142.061 179.266 142.574C178.43 143.088 177.411 143.345 176.207 143.345ZM176.517 141.631C177.253 141.631 177.89 141.501 178.426 141.24C178.971 140.972 179.408 140.623 179.737 140.194C180.067 139.757 180.282 139.282 180.381 138.768C180.496 138.385 180.558 137.959 180.565 137.491C180.581 137.016 180.588 136.652 180.588 136.399L181.301 136.709C180.634 136.801 179.979 136.89 179.335 136.974C178.691 137.058 178.081 137.15 177.506 137.25C176.931 137.342 176.414 137.453 175.954 137.583C175.617 137.691 175.298 137.829 174.999 137.997C174.708 138.166 174.47 138.385 174.286 138.653C174.11 138.914 174.022 139.239 174.022 139.63C174.022 139.968 174.106 140.29 174.275 140.596C174.451 140.903 174.72 141.152 175.08 141.344C175.448 141.536 175.927 141.631 176.517 141.631ZM190.064 143.345C188.838 143.345 187.753 143.081 186.81 142.551C185.867 142.015 185.123 141.279 184.579 140.343L186.212 139.285C186.664 139.968 187.205 140.493 187.833 140.861C188.462 141.221 189.179 141.401 189.984 141.401C190.827 141.401 191.498 141.21 191.996 140.826C192.495 140.435 192.744 139.91 192.744 139.251C192.744 138.76 192.621 138.385 192.376 138.124C192.131 137.863 191.778 137.683 191.318 137.583C190.858 137.484 190.31 137.434 189.673 137.434H188.385V135.743H189.662C190.467 135.743 191.122 135.613 191.628 135.352C192.134 135.092 192.387 134.647 192.387 134.018C192.387 133.374 192.15 132.907 191.674 132.615C191.207 132.316 190.647 132.167 189.995 132.167C189.305 132.167 188.646 132.313 188.017 132.604C187.389 132.888 186.848 133.248 186.396 133.685L185.154 132.293C185.798 131.634 186.538 131.128 187.373 130.775C188.217 130.415 189.133 130.235 190.122 130.235C190.919 130.235 191.648 130.377 192.307 130.66C192.974 130.936 193.503 131.347 193.894 131.891C194.293 132.428 194.492 133.083 194.492 133.857C194.492 134.517 194.339 135.103 194.032 135.617C193.725 136.131 193.273 136.579 192.675 136.962L192.594 136.238C193.1 136.361 193.518 136.587 193.848 136.916C194.185 137.238 194.434 137.622 194.595 138.066C194.756 138.511 194.837 138.975 194.837 139.458C194.837 140.271 194.622 140.968 194.193 141.551C193.771 142.126 193.2 142.571 192.479 142.885C191.759 143.192 190.954 143.345 190.064 143.345ZM203.065 143.345C201.9 143.345 200.918 143.058 200.121 142.482C199.324 141.9 198.718 141.114 198.304 140.125C197.898 139.128 197.694 138.013 197.694 136.778C197.694 135.529 197.898 134.409 198.304 133.42C198.718 132.431 199.324 131.653 200.121 131.086C200.926 130.519 201.911 130.235 203.076 130.235C204.226 130.235 205.215 130.522 206.043 131.097C206.879 131.665 207.519 132.443 207.964 133.432C208.409 134.421 208.631 135.536 208.631 136.778C208.631 138.02 208.409 139.136 207.964 140.125C207.519 141.114 206.879 141.9 206.043 142.482C205.215 143.058 204.223 143.345 203.065 143.345ZM197.349 148.52V130.58H199.178V139.722H199.408V148.52H197.349ZM202.812 141.47C203.632 141.47 204.311 141.263 204.847 140.849C205.384 140.435 205.787 139.876 206.055 139.17C206.323 138.457 206.457 137.66 206.457 136.778C206.457 135.904 206.323 135.115 206.055 134.409C205.794 133.704 205.388 133.144 204.836 132.73C204.292 132.316 203.598 132.109 202.754 132.109C201.949 132.109 201.282 132.309 200.753 132.707C200.224 133.098 199.83 133.647 199.569 134.352C199.308 135.05 199.178 135.858 199.178 136.778C199.178 137.683 199.304 138.492 199.557 139.205C199.818 139.91 200.217 140.466 200.753 140.872C201.29 141.271 201.976 141.47 202.812 141.47ZM214.682 143.345C213.755 143.345 212.977 143.176 212.348 142.839C211.727 142.494 211.255 142.042 210.933 141.482C210.619 140.922 210.462 140.309 210.462 139.642C210.462 138.99 210.585 138.427 210.83 137.951C211.083 137.468 211.436 137.07 211.888 136.755C212.34 136.433 212.881 136.18 213.509 135.996C214.1 135.835 214.759 135.697 215.487 135.582C216.223 135.46 216.967 135.349 217.718 135.249C218.47 135.149 219.171 135.053 219.823 134.961L219.087 135.387C219.11 134.283 218.888 133.466 218.42 132.937C217.96 132.408 217.163 132.144 216.028 132.144C215.277 132.144 214.617 132.316 214.05 132.661C213.49 132.999 213.095 133.551 212.865 134.317L210.922 133.731C211.221 132.642 211.8 131.787 212.658 131.166C213.517 130.545 214.648 130.235 216.051 130.235C217.178 130.235 218.144 130.438 218.949 130.844C219.762 131.243 220.344 131.849 220.697 132.661C220.873 133.045 220.984 133.463 221.03 133.915C221.076 134.36 221.099 134.827 221.099 135.318V143H219.282V140.021L219.708 140.297C219.24 141.302 218.585 142.061 217.741 142.574C216.906 143.088 215.886 143.345 214.682 143.345ZM214.993 141.631C215.729 141.631 216.365 141.501 216.902 141.24C217.446 140.972 217.883 140.623 218.213 140.194C218.543 139.757 218.757 139.282 218.857 138.768C218.972 138.385 219.033 137.959 219.041 137.491C219.056 137.016 219.064 136.652 219.064 136.399L219.777 136.709C219.11 136.801 218.454 136.89 217.81 136.974C217.166 137.058 216.557 137.15 215.982 137.25C215.407 137.342 214.889 137.453 214.429 137.583C214.092 137.691 213.774 137.829 213.475 137.997C213.184 138.166 212.946 138.385 212.762 138.653C212.586 138.914 212.497 139.239 212.497 139.63C212.497 139.968 212.582 140.29 212.75 140.596C212.927 140.903 213.195 141.152 213.555 141.344C213.923 141.536 214.403 141.631 214.993 141.631ZM229.138 143.357C227.965 143.349 226.964 143.096 226.136 142.597C225.308 142.091 224.664 141.352 224.204 140.378C223.744 139.404 223.488 138.212 223.434 136.801C223.403 136.15 223.411 135.433 223.457 134.651C223.511 133.869 223.595 133.118 223.71 132.397C223.833 131.676 223.986 131.082 224.17 130.614C224.377 130.055 224.668 129.537 225.044 129.062C225.427 128.579 225.857 128.18 226.332 127.866C226.815 127.536 227.355 127.279 227.953 127.095C228.551 126.911 229.176 126.77 229.828 126.67C230.487 126.563 231.147 126.471 231.806 126.394C232.465 126.31 233.094 126.21 233.692 126.095L233.899 127.935C233.477 128.027 232.979 128.107 232.404 128.176C231.829 128.238 231.231 128.311 230.61 128.395C229.997 128.479 229.406 128.598 228.839 128.751C228.279 128.897 227.796 129.1 227.39 129.361C226.792 129.721 226.332 130.262 226.01 130.982C225.696 131.695 225.504 132.497 225.435 133.386C225.91 132.65 226.527 132.109 227.286 131.764C228.045 131.419 228.854 131.247 229.713 131.247C230.825 131.247 231.783 131.508 232.588 132.029C233.393 132.543 234.01 133.252 234.439 134.156C234.876 135.061 235.095 136.092 235.095 137.25C235.095 138.477 234.85 139.55 234.359 140.47C233.868 141.39 233.174 142.103 232.277 142.609C231.388 143.115 230.342 143.364 229.138 143.357ZM229.264 141.413C230.468 141.413 231.38 141.041 232.001 140.297C232.622 139.546 232.933 138.549 232.933 137.307C232.933 136.035 232.611 135.034 231.967 134.306C231.323 133.57 230.418 133.202 229.253 133.202C228.072 133.202 227.168 133.57 226.539 134.306C225.918 135.034 225.607 136.035 225.607 137.307C225.607 138.588 225.922 139.592 226.55 140.32C227.179 141.049 228.084 141.413 229.264 141.413ZM242.923 143.345C241.689 143.345 240.623 143.065 239.726 142.505C238.837 141.946 238.151 141.171 237.668 140.182C237.185 139.193 236.943 138.059 236.943 136.778C236.943 135.475 237.189 134.333 237.679 133.351C238.17 132.37 238.864 131.607 239.761 131.063C240.658 130.511 241.712 130.235 242.923 130.235C244.165 130.235 245.235 130.515 246.132 131.074C247.029 131.626 247.715 132.397 248.19 133.386C248.673 134.367 248.915 135.498 248.915 136.778C248.915 138.074 248.673 139.216 248.19 140.205C247.707 141.187 247.017 141.957 246.12 142.517C245.223 143.069 244.158 143.345 242.923 143.345ZM242.923 141.401C244.211 141.401 245.17 140.972 245.798 140.113C246.427 139.255 246.741 138.143 246.741 136.778C246.741 135.375 246.423 134.26 245.787 133.432C245.151 132.596 244.196 132.178 242.923 132.178C242.057 132.178 241.344 132.374 240.784 132.765C240.225 133.156 239.807 133.696 239.531 134.386C239.255 135.076 239.117 135.874 239.117 136.778C239.117 138.174 239.439 139.293 240.083 140.136C240.727 140.98 241.674 141.401 242.923 141.401ZM254.466 143V132.443H250.142V130.58H260.837V132.443H256.513V143H254.466ZM263.003 143L263.014 130.58H265.084V136.56L270.294 130.58H272.95L267.465 136.79L273.594 143H270.731L265.084 137.02V143H263.003ZM284.905 130.58V143H282.927V133.846L276.418 143H274.727V130.58H276.705V139.607L283.226 130.58H284.905ZM292.73 143V126.44H305.656V143H303.609V128.383H294.777V143H292.73ZM315.688 143.345C314.039 143.345 312.64 142.981 311.49 142.252C310.34 141.524 309.462 140.512 308.857 139.216C308.259 137.921 307.96 136.422 307.96 134.72C307.96 133.018 308.259 131.519 308.857 130.223C309.462 128.928 310.34 127.916 311.49 127.187C312.64 126.459 314.039 126.095 315.688 126.095C317.344 126.095 318.747 126.459 319.897 127.187C321.047 127.916 321.921 128.928 322.519 130.223C323.117 131.519 323.416 133.018 323.416 134.72C323.416 136.422 323.117 137.921 322.519 139.216C321.921 140.512 321.047 141.524 319.897 142.252C318.747 142.981 317.344 143.345 315.688 143.345ZM315.688 141.39C316.922 141.398 317.949 141.122 318.77 140.562C319.598 139.995 320.215 139.209 320.621 138.204C321.035 137.2 321.242 136.039 321.242 134.72C321.242 133.394 321.035 132.232 320.621 131.235C320.215 130.239 319.598 129.461 318.77 128.901C317.949 128.341 316.922 128.058 315.688 128.05C314.453 128.042 313.426 128.318 312.606 128.878C311.793 129.438 311.18 130.22 310.766 131.224C310.352 132.228 310.141 133.394 310.133 134.72C310.125 136.039 310.329 137.196 310.743 138.193C311.157 139.19 311.774 139.972 312.594 140.539C313.422 141.099 314.453 141.382 315.688 141.39Z" fill="#000206"/>
              <path d="M451.418 108.345C449.77 108.345 448.371 107.981 447.221 107.252C446.071 106.524 445.193 105.512 444.587 104.216C443.989 102.921 443.69 101.422 443.69 99.72C443.69 98.018 443.989 96.5192 444.587 95.2235C445.193 93.9278 446.071 92.9158 447.221 92.1875C448.371 91.4592 449.77 91.095 451.418 91.095C453.074 91.095 454.477 91.4592 455.627 92.1875C456.777 92.9158 457.651 93.9278 458.249 95.2235C458.847 96.5192 459.146 98.018 459.146 99.72C459.146 101.422 458.847 102.921 458.249 104.216C457.651 105.512 456.777 106.524 455.627 107.252C454.477 107.981 453.074 108.345 451.418 108.345ZM451.418 106.39C452.652 106.398 453.68 106.122 454.5 105.562C455.328 104.995 455.945 104.209 456.352 103.204C456.766 102.2 456.973 101.039 456.973 99.72C456.973 98.3937 456.766 97.2322 456.352 96.2355C455.945 95.2388 455.328 94.4607 454.5 93.901C453.68 93.3413 452.652 93.0577 451.418 93.05C450.184 93.0423 449.156 93.3183 448.336 93.878C447.523 94.4377 446.91 95.2197 446.496 96.224C446.082 97.2283 445.871 98.3937 445.864 99.72C445.856 101.039 446.059 102.196 446.473 103.193C446.887 104.19 447.504 104.972 448.325 105.539C449.153 106.099 450.184 106.382 451.418 106.39ZM466.504 108.357C465.331 108.349 464.331 108.096 463.503 107.597C462.675 107.091 462.031 106.352 461.571 105.378C461.111 104.404 460.854 103.212 460.8 101.801C460.77 101.15 460.777 100.433 460.823 99.651C460.877 98.869 460.961 98.1177 461.076 97.397C461.199 96.6763 461.352 96.0822 461.536 95.6145C461.743 95.0548 462.035 94.5373 462.41 94.062C462.794 93.579 463.223 93.1803 463.698 92.866C464.181 92.5363 464.722 92.2795 465.32 92.0955C465.918 91.9115 466.543 91.7697 467.194 91.67C467.854 91.5627 468.513 91.4707 469.172 91.394C469.832 91.3097 470.46 91.21 471.058 91.095L471.265 92.935C470.844 93.027 470.345 93.1075 469.77 93.1765C469.195 93.2378 468.597 93.3107 467.976 93.395C467.363 93.4793 466.773 93.5982 466.205 93.7515C465.646 93.8972 465.163 94.1003 464.756 94.361C464.158 94.7213 463.698 95.2618 463.376 95.9825C463.062 96.6955 462.87 97.4967 462.801 98.386C463.277 97.65 463.894 97.1095 464.653 96.7645C465.412 96.4195 466.221 96.247 467.079 96.247C468.191 96.247 469.149 96.5077 469.954 97.029C470.759 97.5427 471.376 98.2518 471.806 99.1565C472.243 100.061 472.461 101.092 472.461 102.25C472.461 103.477 472.216 104.55 471.725 105.47C471.235 106.39 470.541 107.103 469.644 107.609C468.754 108.115 467.708 108.364 466.504 108.357ZM466.631 106.413C467.834 106.413 468.747 106.041 469.368 105.297C469.989 104.546 470.299 103.549 470.299 102.307C470.299 101.035 469.977 100.034 469.333 99.306C468.689 98.57 467.785 98.202 466.619 98.202C465.439 98.202 464.534 98.57 463.905 99.306C463.284 100.034 462.974 101.035 462.974 102.307C462.974 103.588 463.288 104.592 463.917 105.32C464.545 106.049 465.45 106.413 466.631 106.413ZM476.275 113.52L478.679 106.988L478.713 108.92L473.285 95.58H475.436L479.691 106.31H478.955L482.945 95.58H485.027L478.265 113.52H476.275ZM494.401 108V103.526C493.987 103.733 493.485 103.91 492.895 104.055C492.312 104.201 491.687 104.274 491.02 104.274C489.755 104.274 488.736 103.99 487.961 103.423C487.187 102.856 486.681 102.039 486.443 100.973C486.374 100.651 486.325 100.318 486.294 99.973C486.271 99.628 486.256 99.3137 486.248 99.03C486.24 98.7463 486.236 98.5393 486.236 98.409V95.58H488.306V98.409C488.306 98.6313 488.314 98.9073 488.329 99.237C488.345 99.559 488.383 99.8733 488.444 100.18C488.598 100.939 488.916 101.51 489.399 101.893C489.89 102.277 490.58 102.468 491.469 102.468C492.067 102.468 492.619 102.392 493.125 102.238C493.631 102.085 494.056 101.882 494.401 101.629V95.58H496.46V108H494.401ZM505.066 108.345C503.847 108.345 502.782 108.077 501.869 107.54C500.965 106.996 500.259 106.24 499.753 105.274C499.247 104.301 498.994 103.166 498.994 101.87C498.994 100.513 499.243 99.3405 499.742 98.3515C500.24 97.3548 500.934 96.5882 501.823 96.0515C502.72 95.5072 503.771 95.235 504.974 95.235C506.224 95.235 507.286 95.5225 508.16 96.0975C509.041 96.6725 509.701 97.4928 510.138 98.5585C510.582 99.6242 510.774 100.893 510.713 102.365H508.643V101.629C508.62 100.103 508.309 98.9648 507.711 98.2135C507.113 97.4545 506.224 97.075 505.043 97.075C503.778 97.075 502.816 97.4813 502.157 98.294C501.497 99.1067 501.168 100.272 501.168 101.79C501.168 103.254 501.497 104.389 502.157 105.194C502.816 105.999 503.755 106.401 504.974 106.401C505.795 106.401 506.508 106.214 507.113 105.838C507.719 105.462 508.194 104.922 508.539 104.216L510.506 104.895C510.023 105.991 509.294 106.842 508.321 107.448C507.355 108.046 506.27 108.345 505.066 108.345ZM500.478 102.365V100.72H509.655V102.365H500.478ZM513.262 108V95.58H515.309V100.812H521.841V95.58H523.888V108H521.841V102.756H515.309V108H513.262ZM537.275 95.58V108H535.297V98.846L528.788 108H527.098V95.58H529.076V104.607L535.596 95.58H537.275ZM545.878 108.345C544.659 108.345 543.593 108.077 542.681 107.54C541.776 106.996 541.071 106.24 540.565 105.274C540.059 104.301 539.806 103.166 539.806 101.87C539.806 100.513 540.055 99.3405 540.553 98.3515C541.052 97.3548 541.745 96.5882 542.635 96.0515C543.532 95.5072 544.582 95.235 545.786 95.235C547.035 95.235 548.097 95.5225 548.971 96.0975C549.853 96.6725 550.512 97.4928 550.949 98.5585C551.394 99.6242 551.586 100.893 551.524 102.365H549.454V101.629C549.431 100.103 549.121 98.9648 548.523 98.2135C547.925 97.4545 547.035 97.075 545.855 97.075C544.59 97.075 543.628 97.4813 542.968 98.294C542.309 99.1067 541.979 100.272 541.979 101.79C541.979 103.254 542.309 104.389 542.968 105.194C543.628 105.999 544.567 106.401 545.786 106.401C546.606 106.401 547.319 106.214 547.925 105.838C548.53 105.462 549.006 104.922 549.351 104.216L551.317 104.895C550.834 105.991 550.106 106.842 549.132 107.448C548.166 108.046 547.081 108.345 545.878 108.345ZM541.289 102.365V100.72H550.466V102.365H541.289ZM558.678 108V95.58H568.855V108H566.808V97.5235H560.725V108H558.678ZM577.366 108.345C576.131 108.345 575.066 108.065 574.169 107.505C573.279 106.946 572.593 106.171 572.11 105.182C571.627 104.193 571.386 103.059 571.386 101.778C571.386 100.475 571.631 99.3328 572.122 98.3515C572.612 97.3702 573.306 96.6073 574.203 96.063C575.1 95.511 576.154 95.235 577.366 95.235C578.608 95.235 579.677 95.5148 580.574 96.0745C581.471 96.6265 582.157 97.397 582.633 98.386C583.116 99.3673 583.357 100.498 583.357 101.778C583.357 103.074 583.116 104.216 582.633 105.205C582.15 106.187 581.46 106.957 580.563 107.517C579.666 108.069 578.6 108.345 577.366 108.345ZM577.366 106.401C578.654 106.401 579.612 105.972 580.241 105.113C580.869 104.255 581.184 103.143 581.184 101.778C581.184 100.375 580.866 99.26 580.229 98.432C579.593 97.5963 578.638 97.1785 577.366 97.1785C576.499 97.1785 575.786 97.374 575.227 97.765C574.667 98.156 574.249 98.6965 573.973 99.3865C573.697 100.076 573.559 100.874 573.559 101.778C573.559 103.174 573.881 104.293 574.525 105.136C575.169 105.98 576.116 106.401 577.366 106.401ZM584.739 108V106.24C585.199 106.325 585.548 106.309 585.786 106.194C586.031 106.072 586.211 105.861 586.326 105.562C586.449 105.255 586.549 104.872 586.625 104.412C586.756 103.684 586.867 102.871 586.959 101.974C587.058 101.077 587.147 100.096 587.223 99.03C587.308 97.9567 587.384 96.8067 587.453 95.58H596.136V108H594.089V97.5235H589.316C589.27 98.2288 589.213 98.9533 589.144 99.697C589.082 100.441 589.017 101.165 588.948 101.87C588.879 102.568 588.803 103.22 588.718 103.825C588.642 104.423 588.557 104.941 588.465 105.378C588.32 106.129 588.116 106.731 587.856 107.183C587.595 107.628 587.219 107.916 586.729 108.046C586.238 108.184 585.575 108.169 584.739 108ZM599.366 108L599.354 95.58H601.413V100.076H604.092C604.453 100.076 604.821 100.084 605.196 100.099C605.572 100.115 605.898 100.149 606.174 100.203C606.818 100.326 607.381 100.54 607.864 100.847C608.347 101.154 608.723 101.571 608.991 102.1C609.26 102.622 609.394 103.27 609.394 104.044C609.394 105.117 609.114 105.968 608.554 106.597C608.002 107.218 607.278 107.632 606.381 107.839C606.074 107.908 605.722 107.954 605.323 107.977C604.932 107.992 604.56 108 604.207 108H599.366ZM601.413 106.31H604.242C604.472 106.31 604.729 106.302 605.012 106.286C605.296 106.271 605.549 106.233 605.771 106.171C606.162 106.056 606.511 105.83 606.818 105.493C607.132 105.156 607.289 104.673 607.289 104.044C607.289 103.408 607.136 102.917 606.829 102.572C606.53 102.227 606.136 102.001 605.645 101.893C605.423 101.84 605.189 101.805 604.943 101.79C604.698 101.775 604.464 101.767 604.242 101.767H601.413V106.31ZM616.372 108.345C615.145 108.345 614.061 108.081 613.118 107.551C612.175 107.015 611.431 106.279 610.887 105.343L612.52 104.285C612.972 104.968 613.512 105.493 614.141 105.861C614.77 106.221 615.487 106.401 616.292 106.401C617.135 106.401 617.806 106.21 618.304 105.826C618.802 105.435 619.052 104.91 619.052 104.251C619.052 103.76 618.929 103.385 618.684 103.124C618.438 102.863 618.086 102.683 617.626 102.583C617.166 102.484 616.617 102.434 615.981 102.434H614.693V100.743H615.97C616.775 100.743 617.43 100.613 617.936 100.352C618.442 100.092 618.695 99.6472 618.695 99.0185C618.695 98.3745 618.457 97.9068 617.982 97.6155C617.514 97.3165 616.955 97.167 616.303 97.167C615.613 97.167 614.954 97.3127 614.325 97.604C613.696 97.8877 613.156 98.248 612.704 98.685L611.462 97.2935C612.106 96.6342 612.845 96.1282 613.681 95.7755C614.524 95.4152 615.441 95.235 616.43 95.235C617.227 95.235 617.955 95.3768 618.615 95.6605C619.282 95.9365 619.811 96.3467 620.202 96.891C620.6 97.4277 620.8 98.0832 620.8 98.8575C620.8 99.5168 620.646 100.103 620.34 100.617C620.033 101.131 619.581 101.579 618.983 101.962L618.902 101.238C619.408 101.361 619.826 101.587 620.156 101.916C620.493 102.238 620.742 102.622 620.903 103.066C621.064 103.511 621.145 103.975 621.145 104.458C621.145 105.271 620.93 105.968 620.501 106.551C620.079 107.126 619.508 107.571 618.787 107.885C618.066 108.192 617.261 108.345 616.372 108.345ZM628.959 108.345C627.724 108.345 626.659 108.065 625.762 107.505C624.872 106.946 624.186 106.171 623.703 105.182C623.22 104.193 622.979 103.059 622.979 101.778C622.979 100.475 623.224 99.3328 623.715 98.3515C624.205 97.3702 624.899 96.6073 625.796 96.063C626.693 95.511 627.747 95.235 628.959 95.235C630.201 95.235 631.27 95.5148 632.167 96.0745C633.064 96.6265 633.75 97.397 634.226 98.386C634.709 99.3673 634.95 100.498 634.95 101.778C634.95 103.074 634.709 104.216 634.226 105.205C633.743 106.187 633.053 106.957 632.156 107.517C631.259 108.069 630.193 108.345 628.959 108.345ZM628.959 106.401C630.247 106.401 631.205 105.972 631.834 105.113C632.462 104.255 632.777 103.143 632.777 101.778C632.777 100.375 632.458 99.26 631.822 98.432C631.186 97.5963 630.231 97.1785 628.959 97.1785C628.092 97.1785 627.379 97.374 626.82 97.765C626.26 98.156 625.842 98.6965 625.566 99.3865C625.29 100.076 625.152 100.874 625.152 101.778C625.152 103.174 625.474 104.293 626.118 105.136C626.762 105.98 627.709 106.401 628.959 106.401ZM637.471 108V95.58H642.761C643.075 95.58 643.412 95.5992 643.773 95.6375C644.141 95.6682 644.474 95.7257 644.773 95.81C645.44 95.9863 645.988 96.3505 646.418 96.9025C646.855 97.4468 647.073 98.1368 647.073 98.9725C647.073 99.4402 647 99.8465 646.855 100.191C646.717 100.536 646.517 100.835 646.257 101.088C646.142 101.203 646.015 101.307 645.877 101.399C645.739 101.491 645.601 101.564 645.463 101.617C645.731 101.663 646.004 101.767 646.28 101.928C646.717 102.166 647.058 102.499 647.303 102.928C647.556 103.358 647.683 103.906 647.683 104.573C647.683 105.416 647.479 106.114 647.073 106.666C646.667 107.21 646.107 107.586 645.394 107.793C645.095 107.877 644.765 107.935 644.405 107.965C644.045 107.988 643.696 108 643.359 108H637.471ZM639.541 106.332H643.244C643.405 106.332 643.596 106.317 643.819 106.286C644.049 106.256 644.252 106.217 644.428 106.171C644.827 106.056 645.114 105.842 645.291 105.527C645.475 105.213 645.567 104.872 645.567 104.504C645.567 104.013 645.429 103.615 645.153 103.308C644.884 103.001 644.528 102.81 644.083 102.733C643.922 102.687 643.746 102.66 643.554 102.652C643.37 102.645 643.205 102.641 643.06 102.641H639.541V106.332ZM639.541 100.95H642.623C642.837 100.95 643.063 100.939 643.301 100.916C643.539 100.885 643.746 100.835 643.922 100.766C644.275 100.636 644.532 100.421 644.693 100.122C644.861 99.8158 644.946 99.4823 644.946 99.122C644.946 98.7233 644.854 98.3745 644.67 98.0755C644.493 97.7688 644.221 97.558 643.853 97.443C643.608 97.351 643.332 97.3012 643.025 97.2935C642.726 97.2782 642.534 97.2705 642.45 97.2705H639.541V100.95ZM653.523 108.345C652.596 108.345 651.817 108.176 651.189 107.839C650.568 107.494 650.096 107.042 649.774 106.482C649.46 105.922 649.303 105.309 649.303 104.642C649.303 103.99 649.425 103.427 649.671 102.951C649.924 102.468 650.276 102.07 650.729 101.755C651.181 101.433 651.722 101.18 652.35 100.996C652.941 100.835 653.6 100.697 654.328 100.582C655.064 100.46 655.808 100.349 656.559 100.249C657.311 100.149 658.012 100.053 658.664 99.9615L657.928 100.387C657.951 99.283 657.728 98.4665 657.261 97.9375C656.801 97.4085 656.003 97.144 654.869 97.144C654.117 97.144 653.458 97.3165 652.891 97.6615C652.331 97.9988 651.936 98.5508 651.706 99.3175L649.763 98.731C650.062 97.6423 650.641 96.7875 651.499 96.1665C652.358 95.5455 653.489 95.235 654.892 95.235C656.019 95.235 656.985 95.4382 657.79 95.8445C658.602 96.2432 659.185 96.8488 659.538 97.6615C659.714 98.0448 659.825 98.4627 659.871 98.915C659.917 99.3597 659.94 99.8273 659.94 100.318V108H658.123V105.021L658.549 105.297C658.081 106.302 657.426 107.061 656.582 107.574C655.747 108.088 654.727 108.345 653.523 108.345ZM653.834 106.631C654.57 106.631 655.206 106.501 655.743 106.24C656.287 105.972 656.724 105.623 657.054 105.194C657.383 104.757 657.598 104.282 657.698 103.768C657.813 103.385 657.874 102.959 657.882 102.491C657.897 102.016 657.905 101.652 657.905 101.399L658.618 101.709C657.951 101.801 657.295 101.89 656.651 101.974C656.007 102.058 655.398 102.15 654.823 102.25C654.248 102.342 653.73 102.453 653.27 102.583C652.933 102.691 652.615 102.829 652.316 102.997C652.024 103.166 651.787 103.385 651.603 103.653C651.426 103.914 651.338 104.239 651.338 104.63C651.338 104.968 651.423 105.29 651.591 105.596C651.768 105.903 652.036 106.152 652.396 106.344C652.764 106.536 653.243 106.631 653.834 106.631ZM666.219 108V97.443H661.895V95.58H672.59V97.443H668.266V108H666.219ZM680.149 108.345C678.93 108.345 677.865 108.077 676.952 107.54C676.048 106.996 675.342 106.24 674.836 105.274C674.33 104.301 674.077 103.166 674.077 101.87C674.077 100.513 674.326 99.3405 674.825 98.3515C675.323 97.3548 676.017 96.5882 676.906 96.0515C677.803 95.5072 678.854 95.235 680.057 95.235C681.307 95.235 682.369 95.5225 683.243 96.0975C684.124 96.6725 684.784 97.4928 685.221 98.5585C685.665 99.6242 685.857 100.893 685.796 102.365H683.726V101.629C683.703 100.103 683.392 98.9648 682.794 98.2135C682.196 97.4545 681.307 97.075 680.126 97.075C678.861 97.075 677.899 97.4813 677.24 98.294C676.58 99.1067 676.251 100.272 676.251 101.79C676.251 103.254 676.58 104.389 677.24 105.194C677.899 105.999 678.838 106.401 680.057 106.401C680.878 106.401 681.591 106.214 682.196 105.838C682.802 105.462 683.277 104.922 683.622 104.216L685.589 104.895C685.106 105.991 684.377 106.842 683.404 107.448C682.438 108.046 681.353 108.345 680.149 108.345ZM675.561 102.365V100.72H684.738V102.365H675.561ZM687.206 108V106.24C687.666 106.325 688.015 106.309 688.253 106.194C688.498 106.072 688.678 105.861 688.793 105.562C688.916 105.255 689.015 104.872 689.092 104.412C689.222 103.684 689.334 102.871 689.426 101.974C689.525 101.077 689.613 100.096 689.69 99.03C689.774 97.9567 689.851 96.8067 689.92 95.58H698.603V108H696.556V97.5235H691.783C691.737 98.2288 691.68 98.9533 691.611 99.697C691.549 100.441 691.484 101.165 691.415 101.87C691.346 102.568 691.269 103.22 691.185 103.825C691.108 104.423 691.024 104.941 690.932 105.378C690.786 106.129 690.583 106.731 690.323 107.183C690.062 107.628 689.686 107.916 689.196 108.046C688.705 108.184 688.042 108.169 687.206 108ZM707.215 108.345C705.996 108.345 704.93 108.077 704.018 107.54C703.113 106.996 702.408 106.24 701.902 105.274C701.396 104.301 701.143 103.166 701.143 101.87C701.143 100.513 701.392 99.3405 701.89 98.3515C702.388 97.3548 703.082 96.5882 703.972 96.0515C704.869 95.5072 705.919 95.235 707.123 95.235C708.372 95.235 709.434 95.5225 710.308 96.0975C711.19 96.6725 711.849 97.4928 712.286 98.5585C712.731 99.6242 712.922 100.893 712.861 102.365H710.791V101.629C710.768 100.103 710.458 98.9648 709.86 98.2135C709.262 97.4545 708.372 97.075 707.192 97.075C705.927 97.075 704.964 97.4813 704.305 98.294C703.646 99.1067 703.316 100.272 703.316 101.79C703.316 103.254 703.646 104.389 704.305 105.194C704.964 105.999 705.904 106.401 707.123 106.401C707.943 106.401 708.656 106.214 709.262 105.838C709.867 105.462 710.343 104.922 710.688 104.216L712.654 104.895C712.171 105.991 711.443 106.842 710.469 107.448C709.503 108.046 708.418 108.345 707.215 108.345ZM702.626 102.365V100.72H711.803V102.365H702.626ZM720.769 94.131C720.194 94.131 719.669 93.9892 719.194 93.7055C718.718 93.4218 718.339 93.0462 718.055 92.5785C717.771 92.1032 717.63 91.5742 717.63 90.9915H719.286C719.286 91.3978 719.431 91.7467 719.723 92.038C720.014 92.3293 720.363 92.475 720.769 92.475C721.183 92.475 721.532 92.3293 721.816 92.038C722.107 91.7467 722.253 91.3978 722.253 90.9915H723.909C723.909 91.5742 723.767 92.1032 723.483 92.5785C723.207 93.0462 722.828 93.4218 722.345 93.7055C721.869 93.9892 721.344 94.131 720.769 94.131ZM725.588 95.58V108H723.61V98.846L717.101 108H715.41V95.58H717.388V104.607L723.909 95.58H725.588ZM444.61 131V114.44H457.536V131H455.489V116.383H446.657V131H444.61ZM467.567 131.345C465.919 131.345 464.52 130.981 463.37 130.252C462.22 129.524 461.342 128.512 460.736 127.216C460.138 125.921 459.839 124.422 459.839 122.72C459.839 121.018 460.138 119.519 460.736 118.223C461.342 116.928 462.22 115.916 463.37 115.187C464.52 114.459 465.919 114.095 467.567 114.095C469.223 114.095 470.626 114.459 471.776 115.187C472.926 115.916 473.8 116.928 474.398 118.223C474.996 119.519 475.295 121.018 475.295 122.72C475.295 124.422 474.996 125.921 474.398 127.216C473.8 128.512 472.926 129.524 471.776 130.252C470.626 130.981 469.223 131.345 467.567 131.345ZM467.567 129.39C468.802 129.398 469.829 129.122 470.649 128.562C471.477 127.995 472.095 127.209 472.501 126.204C472.915 125.2 473.122 124.039 473.122 122.72C473.122 121.394 472.915 120.232 472.501 119.235C472.095 118.239 471.477 117.461 470.649 116.901C469.829 116.341 468.802 116.058 467.567 116.05C466.333 116.042 465.306 116.318 464.485 116.878C463.673 117.438 463.059 118.22 462.645 119.224C462.231 120.228 462.021 121.394 462.013 122.72C462.005 124.039 462.208 125.196 462.622 126.193C463.036 127.19 463.654 127.972 464.474 128.539C465.302 129.099 466.333 129.382 467.567 129.39ZM482.198 131V118.58H487.488C487.802 118.58 488.14 118.599 488.5 118.637C488.868 118.668 489.202 118.726 489.501 118.81C490.168 118.986 490.716 119.35 491.145 119.902C491.582 120.447 491.801 121.137 491.801 121.972C491.801 122.44 491.728 122.846 491.582 123.191C491.444 123.536 491.245 123.835 490.984 124.088C490.869 124.203 490.743 124.307 490.605 124.399C490.467 124.491 490.329 124.564 490.191 124.617C490.459 124.663 490.731 124.767 491.007 124.928C491.444 125.166 491.785 125.499 492.031 125.928C492.284 126.358 492.41 126.906 492.41 127.573C492.41 128.416 492.207 129.114 491.801 129.666C491.394 130.21 490.835 130.586 490.122 130.793C489.823 130.877 489.493 130.935 489.133 130.965C488.772 130.988 488.423 131 488.086 131H482.198ZM484.268 129.332H487.971C488.132 129.332 488.324 129.317 488.546 129.286C488.776 129.256 488.979 129.217 489.156 129.171C489.554 129.056 489.842 128.842 490.018 128.527C490.202 128.213 490.294 127.872 490.294 127.504C490.294 127.013 490.156 126.615 489.88 126.308C489.612 126.001 489.255 125.81 488.811 125.733C488.65 125.687 488.473 125.66 488.282 125.652C488.098 125.645 487.933 125.641 487.787 125.641H484.268V129.332ZM484.268 123.95H487.35C487.565 123.95 487.791 123.939 488.029 123.916C488.266 123.885 488.473 123.835 488.65 123.766C489.002 123.636 489.259 123.421 489.42 123.122C489.589 122.816 489.673 122.482 489.673 122.122C489.673 121.723 489.581 121.374 489.397 121.075C489.221 120.769 488.949 120.558 488.581 120.443C488.335 120.351 488.059 120.301 487.753 120.293C487.454 120.278 487.262 120.27 487.178 120.27H484.268V123.95ZM499.313 131L499.325 118.58H501.395V124.56L506.604 118.58H509.261L503.775 124.79L509.905 131H507.041L501.395 125.02V131H499.313ZM516.115 131.345C514.881 131.345 513.815 131.065 512.918 130.505C512.029 129.946 511.342 129.171 510.859 128.182C510.376 127.193 510.135 126.059 510.135 124.778C510.135 123.475 510.38 122.333 510.871 121.351C511.362 120.37 512.055 119.607 512.952 119.063C513.849 118.511 514.904 118.235 516.115 118.235C517.357 118.235 518.426 118.515 519.323 119.074C520.22 119.626 520.907 120.397 521.382 121.386C521.865 122.367 522.106 123.498 522.106 124.778C522.106 126.074 521.865 127.216 521.382 128.205C520.899 129.187 520.209 129.957 519.312 130.517C518.415 131.069 517.349 131.345 516.115 131.345ZM516.115 129.401C517.403 129.401 518.361 128.972 518.99 128.113C519.619 127.255 519.933 126.143 519.933 124.778C519.933 123.375 519.615 122.26 518.978 121.432C518.342 120.596 517.388 120.178 516.115 120.178C515.249 120.178 514.536 120.374 513.976 120.765C513.416 121.156 512.998 121.696 512.722 122.386C512.446 123.076 512.308 123.874 512.308 124.778C512.308 126.174 512.63 127.293 513.274 128.136C513.918 128.98 514.865 129.401 516.115 129.401ZM524.627 131V118.58H526.386L531.101 128.217L535.816 118.58H537.576V131H535.598V122.846L531.642 131H530.561L526.605 122.846V131H524.627ZM540.776 131V118.58H550.954V131H548.907V120.523H542.823V131H540.776ZM557.705 131.345C556.777 131.345 555.999 131.176 555.37 130.839C554.749 130.494 554.278 130.042 553.956 129.482C553.642 128.922 553.484 128.309 553.484 127.642C553.484 126.99 553.607 126.427 553.852 125.951C554.105 125.468 554.458 125.07 554.91 124.755C555.363 124.433 555.903 124.18 556.532 123.996C557.122 123.835 557.782 123.697 558.51 123.582C559.246 123.46 559.99 123.349 560.741 123.249C561.492 123.149 562.194 123.053 562.845 122.961L562.109 123.387C562.132 122.283 561.91 121.466 561.442 120.937C560.982 120.408 560.185 120.144 559.05 120.144C558.299 120.144 557.64 120.316 557.072 120.661C556.513 120.999 556.118 121.551 555.888 122.317L553.944 121.731C554.243 120.642 554.822 119.787 555.681 119.166C556.54 118.545 557.67 118.235 559.073 118.235C560.2 118.235 561.166 118.438 561.971 118.844C562.784 119.243 563.367 119.849 563.719 120.661C563.896 121.045 564.007 121.463 564.053 121.915C564.099 122.36 564.122 122.827 564.122 123.318V131H562.305V128.021L562.73 128.297C562.263 129.302 561.607 130.061 560.764 130.574C559.928 131.088 558.909 131.345 557.705 131.345ZM558.015 129.631C558.751 129.631 559.388 129.501 559.924 129.24C560.469 128.972 560.906 128.623 561.235 128.194C561.565 127.757 561.78 127.282 561.879 126.768C561.994 126.385 562.056 125.959 562.063 125.491C562.079 125.016 562.086 124.652 562.086 124.399L562.799 124.709C562.132 124.801 561.477 124.89 560.833 124.974C560.189 125.058 559.579 125.15 559.004 125.25C558.429 125.342 557.912 125.453 557.452 125.583C557.115 125.691 556.796 125.829 556.497 125.997C556.206 126.166 555.968 126.385 555.784 126.653C555.608 126.914 555.52 127.239 555.52 127.63C555.52 127.968 555.604 128.29 555.773 128.596C555.949 128.903 556.218 129.152 556.578 129.344C556.946 129.536 557.425 129.631 558.015 129.631ZM567.1 131V118.58H569.147V123.812H575.679V118.58H577.726V131H575.679V125.756H569.147V131H567.1ZM591.114 118.58V131H589.136V121.846L582.627 131H580.936V118.58H582.914V127.607L589.435 118.58H591.114ZM604.501 118.58V131H602.523V121.846L596.014 131H594.323V118.58H596.301V127.607L602.822 118.58H604.501ZM616.776 131.345C615.55 131.345 614.465 131.081 613.522 130.551C612.579 130.015 611.835 129.279 611.291 128.343L612.924 127.285C613.376 127.968 613.917 128.493 614.545 128.861C615.174 129.221 615.891 129.401 616.696 129.401C617.539 129.401 618.21 129.21 618.708 128.826C619.207 128.435 619.456 127.91 619.456 127.251C619.456 126.76 619.333 126.385 619.088 126.124C618.842 125.863 618.49 125.683 618.03 125.583C617.57 125.484 617.022 125.434 616.385 125.434H615.097V123.743H616.374C617.179 123.743 617.834 123.613 618.34 123.352C618.846 123.092 619.099 122.647 619.099 122.018C619.099 121.374 618.862 120.907 618.386 120.615C617.919 120.316 617.359 120.167 616.707 120.167C616.017 120.167 615.358 120.313 614.729 120.604C614.101 120.888 613.56 121.248 613.108 121.685L611.866 120.293C612.51 119.634 613.25 119.128 614.085 118.775C614.929 118.415 615.845 118.235 616.834 118.235C617.631 118.235 618.359 118.377 619.019 118.66C619.686 118.936 620.215 119.347 620.606 119.891C621.004 120.428 621.204 121.083 621.204 121.857C621.204 122.517 621.05 123.103 620.744 123.617C620.437 124.131 619.985 124.579 619.387 124.962L619.306 124.238C619.812 124.361 620.23 124.587 620.56 124.916C620.897 125.238 621.146 125.622 621.307 126.066C621.468 126.511 621.549 126.975 621.549 127.458C621.549 128.271 621.334 128.968 620.905 129.551C620.483 130.126 619.912 130.571 619.191 130.885C618.471 131.192 617.666 131.345 616.776 131.345ZM627.603 131.345C626.676 131.345 625.898 131.176 625.269 130.839C624.648 130.494 624.176 130.042 623.854 129.482C623.54 128.922 623.383 128.309 623.383 127.642C623.383 126.99 623.506 126.427 623.751 125.951C624.004 125.468 624.357 125.07 624.809 124.755C625.261 124.433 625.802 124.18 626.43 123.996C627.021 123.835 627.68 123.697 628.408 123.582C629.144 123.46 629.888 123.349 630.639 123.249C631.391 123.149 632.092 123.053 632.744 122.961L632.008 123.387C632.031 122.283 631.809 121.466 631.341 120.937C630.881 120.408 630.084 120.144 628.949 120.144C628.198 120.144 627.538 120.316 626.971 120.661C626.411 120.999 626.016 121.551 625.786 122.317L623.843 121.731C624.142 120.642 624.721 119.787 625.579 119.166C626.438 118.545 627.569 118.235 628.972 118.235C630.099 118.235 631.065 118.438 631.87 118.844C632.683 119.243 633.265 119.849 633.618 120.661C633.794 121.045 633.905 121.463 633.951 121.915C633.997 122.36 634.02 122.827 634.02 123.318V131H632.203V128.021L632.629 128.297C632.161 129.302 631.506 130.061 630.662 130.574C629.827 131.088 628.807 131.345 627.603 131.345ZM627.914 129.631C628.65 129.631 629.286 129.501 629.823 129.24C630.367 128.972 630.804 128.623 631.134 128.194C631.464 127.757 631.678 127.282 631.778 126.768C631.893 126.385 631.954 125.959 631.962 125.491C631.977 125.016 631.985 124.652 631.985 124.399L632.698 124.709C632.031 124.801 631.375 124.89 630.731 124.974C630.087 125.058 629.478 125.15 628.903 125.25C628.328 125.342 627.81 125.453 627.35 125.583C627.013 125.691 626.695 125.829 626.396 125.997C626.105 126.166 625.867 126.385 625.683 126.653C625.507 126.914 625.418 127.239 625.418 127.63C625.418 127.968 625.503 128.29 625.671 128.596C625.848 128.903 626.116 129.152 626.476 129.344C626.844 129.536 627.324 129.631 627.914 129.631ZM636.999 131L637.01 118.58H639.08V124.56L644.29 118.58H646.946L641.461 124.79L647.59 131H644.727L639.08 125.02V131H636.999ZM652.266 131.345C651.338 131.345 650.56 131.176 649.931 130.839C649.31 130.494 648.839 130.042 648.517 129.482C648.202 128.922 648.045 128.309 648.045 127.642C648.045 126.99 648.168 126.427 648.413 125.951C648.666 125.468 649.019 125.07 649.471 124.755C649.923 124.433 650.464 124.18 651.093 123.996C651.683 123.835 652.342 123.697 653.071 123.582C653.807 123.46 654.55 123.349 655.302 123.249C656.053 123.149 656.754 123.053 657.406 122.961L656.67 123.387C656.693 122.283 656.471 121.466 656.003 120.937C655.543 120.408 654.746 120.144 653.611 120.144C652.86 120.144 652.2 120.316 651.633 120.661C651.073 120.999 650.679 121.551 650.449 122.317L648.505 121.731C648.804 120.642 649.383 119.787 650.242 119.166C651.1 118.545 652.231 118.235 653.634 118.235C654.761 118.235 655.727 118.438 656.532 118.844C657.345 119.243 657.927 119.849 658.28 120.661C658.456 121.045 658.568 121.463 658.614 121.915C658.66 122.36 658.682 122.827 658.682 123.318V131H656.866V128.021L657.291 128.297C656.823 129.302 656.168 130.061 655.325 130.574C654.489 131.088 653.469 131.345 652.266 131.345ZM652.576 129.631C653.312 129.631 653.948 129.501 654.485 129.24C655.029 128.972 655.466 128.623 655.796 128.194C656.126 127.757 656.34 127.282 656.44 126.768C656.555 126.385 656.616 125.959 656.624 125.491C656.639 125.016 656.647 124.652 656.647 124.399L657.36 124.709C656.693 124.801 656.038 124.89 655.394 124.974C654.75 125.058 654.14 125.15 653.565 125.25C652.99 125.342 652.473 125.453 652.013 125.583C651.675 125.691 651.357 125.829 651.058 125.997C650.767 126.166 650.529 126.385 650.345 126.653C650.169 126.914 650.08 127.239 650.08 127.63C650.08 127.968 650.165 128.29 650.334 128.596C650.51 128.903 650.778 129.152 651.139 129.344C651.507 129.536 651.986 129.631 652.576 129.631ZM666.123 131.345C664.896 131.345 663.812 131.081 662.869 130.551C661.926 130.015 661.182 129.279 660.638 128.343L662.271 127.285C662.723 127.968 663.263 128.493 663.892 128.861C664.521 129.221 665.238 129.401 666.043 129.401C666.886 129.401 667.557 129.21 668.055 128.826C668.553 128.435 668.803 127.91 668.803 127.251C668.803 126.76 668.68 126.385 668.435 126.124C668.189 125.863 667.837 125.683 667.377 125.583C666.917 125.484 666.368 125.434 665.732 125.434H664.444V123.743H665.721C666.526 123.743 667.181 123.613 667.687 123.352C668.193 123.092 668.446 122.647 668.446 122.018C668.446 121.374 668.208 120.907 667.733 120.615C667.265 120.316 666.706 120.167 666.054 120.167C665.364 120.167 664.705 120.313 664.076 120.604C663.447 120.888 662.907 121.248 662.455 121.685L661.213 120.293C661.857 119.634 662.596 119.128 663.432 118.775C664.275 118.415 665.192 118.235 666.181 118.235C666.978 118.235 667.706 118.377 668.366 118.66C669.033 118.936 669.562 119.347 669.953 119.891C670.351 120.428 670.551 121.083 670.551 121.857C670.551 122.517 670.397 123.103 670.091 123.617C669.784 124.131 669.332 124.579 668.734 124.962L668.653 124.238C669.159 124.361 669.577 124.587 669.907 124.916C670.244 125.238 670.493 125.622 670.654 126.066C670.815 126.511 670.896 126.975 670.896 127.458C670.896 128.271 670.681 128.968 670.252 129.551C669.83 130.126 669.259 130.571 668.538 130.885C667.817 131.192 667.012 131.345 666.123 131.345ZM680.895 131V126.526C680.481 126.733 679.978 126.91 679.388 127.055C678.805 127.201 678.181 127.274 677.514 127.274C676.249 127.274 675.229 126.99 674.455 126.423C673.68 125.856 673.174 125.039 672.937 123.973C672.868 123.651 672.818 123.318 672.787 122.973C672.764 122.628 672.749 122.314 672.741 122.03C672.733 121.746 672.73 121.539 672.73 121.409V118.58H674.8V121.409C674.8 121.631 674.807 121.907 674.823 122.237C674.838 122.559 674.876 122.873 674.938 123.18C675.091 123.939 675.409 124.51 675.892 124.893C676.383 125.277 677.073 125.468 677.962 125.468C678.56 125.468 679.112 125.392 679.618 125.238C680.124 125.085 680.55 124.882 680.895 124.629V118.58H682.953V131H680.895ZM696.343 118.58V131H694.365V121.846L687.856 131H686.166V118.58H688.144V127.607L694.664 118.58H696.343ZM699.553 131L699.564 118.58H701.634V124.56L706.844 118.58H709.5L704.015 124.79L710.144 131H707.281L701.634 125.02V131H699.553ZM714.819 131.345C713.892 131.345 713.113 131.176 712.485 130.839C711.864 130.494 711.392 130.042 711.07 129.482C710.756 128.922 710.599 128.309 710.599 127.642C710.599 126.99 710.721 126.427 710.967 125.951C711.22 125.468 711.572 125.07 712.025 124.755C712.477 124.433 713.018 124.18 713.646 123.996C714.237 123.835 714.896 123.697 715.624 123.582C716.36 123.46 717.104 123.349 717.855 123.249C718.607 123.149 719.308 123.053 719.96 122.961L719.224 123.387C719.247 122.283 719.024 121.466 718.557 120.937C718.097 120.408 717.299 120.144 716.165 120.144C715.413 120.144 714.754 120.316 714.187 120.661C713.627 120.999 713.232 121.551 713.002 122.317L711.059 121.731C711.358 120.642 711.937 119.787 712.795 119.166C713.654 118.545 714.785 118.235 716.188 118.235C717.315 118.235 718.281 118.438 719.086 118.844C719.898 119.243 720.481 119.849 720.834 120.661C721.01 121.045 721.121 121.463 721.167 121.915C721.213 122.36 721.236 122.827 721.236 123.318V131H719.419V128.021L719.845 128.297C719.377 129.302 718.722 130.061 717.878 130.574C717.043 131.088 716.023 131.345 714.819 131.345ZM715.13 129.631C715.866 129.631 716.502 129.501 717.039 129.24C717.583 128.972 718.02 128.623 718.35 128.194C718.679 127.757 718.894 127.282 718.994 126.768C719.109 126.385 719.17 125.959 719.178 125.491C719.193 125.016 719.201 124.652 719.201 124.399L719.914 124.709C719.247 124.801 718.591 124.89 717.947 124.974C717.303 125.058 716.694 125.15 716.119 125.25C715.544 125.342 715.026 125.453 714.566 125.583C714.229 125.691 713.911 125.829 713.612 125.997C713.32 126.166 713.083 126.385 712.899 126.653C712.722 126.914 712.634 127.239 712.634 127.63C712.634 127.968 712.719 128.29 712.887 128.596C713.064 128.903 713.332 129.152 713.692 129.344C714.06 129.536 714.539 129.631 715.13 129.631Z" fill="#000206"/>
              <path d="M861.61 108V91.44H874.536V108H872.489V93.3835H863.657V108H861.61ZM883.049 108.345C881.815 108.345 880.749 108.065 879.852 107.505C878.963 106.946 878.277 106.171 877.794 105.182C877.311 104.193 877.069 103.059 877.069 101.778C877.069 100.475 877.315 99.3328 877.805 98.3515C878.296 97.3702 878.99 96.6073 879.887 96.063C880.784 95.511 881.838 95.235 883.049 95.235C884.291 95.235 885.361 95.5148 886.258 96.0745C887.155 96.6265 887.841 97.397 888.316 98.386C888.799 99.3673 889.041 100.498 889.041 101.778C889.041 103.074 888.799 104.216 888.316 105.205C887.833 106.187 887.143 106.957 886.246 107.517C885.349 108.069 884.284 108.345 883.049 108.345ZM883.049 106.401C884.337 106.401 885.296 105.972 885.924 105.113C886.553 104.255 886.867 103.143 886.867 101.778C886.867 100.375 886.549 99.26 885.913 98.432C885.277 97.5963 884.322 97.1785 883.049 97.1785C882.183 97.1785 881.47 97.374 880.91 97.765C880.351 98.156 879.933 98.6965 879.657 99.3865C879.381 100.076 879.243 100.874 879.243 101.778C879.243 103.174 879.565 104.293 880.209 105.136C880.853 105.98 881.8 106.401 883.049 106.401ZM890.653 110.76V106.31C891.351 106.31 891.849 106.083 892.148 105.631C892.447 105.171 892.688 104.416 892.872 103.365C892.995 102.706 893.095 102.001 893.171 101.249C893.248 100.498 893.313 99.6625 893.367 98.7425C893.428 97.8148 893.486 96.7607 893.539 95.58H902.095V106.31H903.303V110.76H901.348V108H892.608V110.76H890.653ZM893.804 106.31H900.048V97.2705H895.391C895.368 97.8148 895.337 98.386 895.299 98.984C895.261 99.5743 895.215 100.165 895.161 100.755C895.115 101.345 895.057 101.905 894.988 102.434C894.927 102.955 894.854 103.423 894.77 103.837C894.67 104.412 894.555 104.899 894.425 105.297C894.295 105.696 894.088 106.033 893.804 106.31ZM904.691 110.76V106.31C905.389 106.31 905.887 106.083 906.186 105.631C906.485 105.171 906.726 104.416 906.91 103.365C907.033 102.706 907.133 102.001 907.209 101.249C907.286 100.498 907.351 99.6625 907.405 98.7425C907.466 97.8148 907.524 96.7607 907.577 95.58H916.133V106.31H917.341V110.76H915.386V108H906.646V110.76H904.691ZM907.842 106.31H914.086V97.2705H909.429C909.406 97.8148 909.375 98.386 909.337 98.984C909.299 99.5743 909.253 100.165 909.199 100.755C909.153 101.345 909.095 101.905 909.026 102.434C908.965 102.955 908.892 103.423 908.808 103.837C908.708 104.412 908.593 104.899 908.463 105.297C908.333 105.696 908.126 106.033 907.842 106.31ZM925.031 108.345C923.812 108.345 922.746 108.077 921.834 107.54C920.929 106.996 920.224 106.24 919.718 105.274C919.212 104.301 918.959 103.166 918.959 101.87C918.959 100.513 919.208 99.3405 919.707 98.3515C920.205 97.3548 920.899 96.5882 921.788 96.0515C922.685 95.5072 923.735 95.235 924.939 95.235C926.189 95.235 927.251 95.5225 928.125 96.0975C929.006 96.6725 929.666 97.4928 930.103 98.5585C930.547 99.6242 930.739 100.893 930.678 102.365H928.608V101.629C928.585 100.103 928.274 98.9648 927.676 98.2135C927.078 97.4545 926.189 97.075 925.008 97.075C923.743 97.075 922.781 97.4813 922.122 98.294C921.462 99.1067 921.133 100.272 921.133 101.79C921.133 103.254 921.462 104.389 922.122 105.194C922.781 105.999 923.72 106.401 924.939 106.401C925.759 106.401 926.472 106.214 927.078 105.838C927.684 105.462 928.159 104.922 928.504 104.216L930.471 104.895C929.988 105.991 929.259 106.842 928.286 107.448C927.32 108.046 926.235 108.345 925.031 108.345ZM920.443 102.365V100.72H929.62V102.365H920.443ZM938.942 108.345C937.777 108.345 936.795 108.058 935.998 107.482C935.201 106.9 934.595 106.114 934.181 105.125C933.775 104.128 933.571 103.013 933.571 101.778C933.571 100.529 933.775 99.4095 934.181 98.4205C934.595 97.4315 935.201 96.6533 935.998 96.086C936.803 95.5187 937.788 95.235 938.953 95.235C940.103 95.235 941.092 95.5225 941.92 96.0975C942.756 96.6648 943.396 97.443 943.841 98.432C944.286 99.421 944.508 100.536 944.508 101.778C944.508 103.02 944.286 104.136 943.841 105.125C943.396 106.114 942.756 106.9 941.92 107.482C941.092 108.058 940.1 108.345 938.942 108.345ZM933.226 113.52V95.58H935.055V104.722H935.285V113.52H933.226ZM938.689 106.47C939.509 106.47 940.188 106.263 940.724 105.849C941.261 105.435 941.664 104.876 941.932 104.17C942.2 103.457 942.334 102.66 942.334 101.778C942.334 100.904 942.2 100.115 941.932 99.4095C941.671 98.7042 941.265 98.1445 940.713 97.7305C940.169 97.3165 939.475 97.1095 938.631 97.1095C937.826 97.1095 937.159 97.3088 936.63 97.7075C936.101 98.0985 935.707 98.6467 935.446 99.352C935.185 100.05 935.055 100.858 935.055 101.778C935.055 102.683 935.181 103.492 935.434 104.205C935.695 104.91 936.094 105.466 936.63 105.872C937.167 106.271 937.853 106.47 938.689 106.47ZM945.2 108L950.214 101.79L945.441 95.58H947.718L952.33 101.675V95.58H954.193V101.675L958.804 95.58H961.081L956.309 101.79L961.323 108H958.942L954.193 101.905V108H952.33V101.905L947.58 108H945.2ZM963.144 108L963.156 95.58H965.226V101.56L970.435 95.58H973.092L967.606 101.79L973.736 108H970.872L965.226 102.02V108H963.144ZM978.411 108.345C977.483 108.345 976.705 108.176 976.077 107.839C975.456 107.494 974.984 107.042 974.662 106.482C974.348 105.922 974.191 105.309 974.191 104.642C974.191 103.99 974.313 103.427 974.559 102.951C974.812 102.468 975.164 102.07 975.617 101.755C976.069 101.433 976.609 101.18 977.238 100.996C977.828 100.835 978.488 100.697 979.216 100.582C979.952 100.46 980.696 100.349 981.447 100.249C982.198 100.149 982.9 100.053 983.552 99.9615L982.816 100.387C982.839 99.283 982.616 98.4665 982.149 97.9375C981.689 97.4085 980.891 97.144 979.757 97.144C979.005 97.144 978.346 97.3165 977.779 97.6615C977.219 97.9988 976.824 98.5508 976.594 99.3175L974.651 98.731C974.95 97.6423 975.528 96.7875 976.387 96.1665C977.246 95.5455 978.377 95.235 979.78 95.235C980.907 95.235 981.873 95.4382 982.678 95.8445C983.49 96.2432 984.073 96.8488 984.426 97.6615C984.602 98.0448 984.713 98.4627 984.759 98.915C984.805 99.3597 984.828 99.8273 984.828 100.318V108H983.011V105.021L983.437 105.297C982.969 106.302 982.313 107.061 981.47 107.574C980.634 108.088 979.615 108.345 978.411 108.345ZM978.722 106.631C979.458 106.631 980.094 106.501 980.631 106.24C981.175 105.972 981.612 105.623 981.942 105.194C982.271 104.757 982.486 104.282 982.586 103.768C982.701 103.385 982.762 102.959 982.77 102.491C982.785 102.016 982.793 101.652 982.793 101.399L983.506 101.709C982.839 101.801 982.183 101.89 981.539 101.974C980.895 102.058 980.286 102.15 979.711 102.25C979.136 102.342 978.618 102.453 978.158 102.583C977.821 102.691 977.503 102.829 977.204 102.997C976.912 103.166 976.675 103.385 976.491 103.653C976.314 103.914 976.226 104.239 976.226 104.63C976.226 104.968 976.31 105.29 976.479 105.596C976.655 105.903 976.924 106.152 977.284 106.344C977.652 106.536 978.131 106.631 978.722 106.631ZM1002.59 95.58V108H1000.61V98.846L994.102 108H992.411V95.58H994.389V104.607L1000.91 95.58H1002.59ZM1016.12 108.345C1014.95 108.345 1013.97 108.058 1013.17 107.482C1012.38 106.9 1011.77 106.114 1011.36 105.125C1010.95 104.128 1010.75 103.013 1010.75 101.778C1010.75 100.529 1010.95 99.4095 1011.36 98.4205C1011.77 97.4315 1012.38 96.6533 1013.17 96.086C1013.98 95.5187 1014.96 95.235 1016.13 95.235C1017.28 95.235 1018.27 95.5225 1019.1 96.0975C1019.93 96.6648 1020.57 97.443 1021.02 98.432C1021.46 99.421 1021.68 100.536 1021.68 101.778C1021.68 103.02 1021.46 104.136 1021.02 105.125C1020.57 106.114 1019.93 106.9 1019.1 107.482C1018.27 108.058 1017.28 108.345 1016.12 108.345ZM1010.4 113.52V95.58H1012.23V104.722H1012.46V113.52H1010.4ZM1015.86 106.47C1016.69 106.47 1017.36 106.263 1017.9 105.849C1018.44 105.435 1018.84 104.876 1019.11 104.17C1019.38 103.457 1019.51 102.66 1019.51 101.778C1019.51 100.904 1019.38 100.115 1019.11 99.4095C1018.85 98.7042 1018.44 98.1445 1017.89 97.7305C1017.34 97.3165 1016.65 97.1095 1015.81 97.1095C1015 97.1095 1014.34 97.3088 1013.81 97.7075C1013.28 98.0985 1012.88 98.6467 1012.62 99.352C1012.36 100.05 1012.23 100.858 1012.23 101.778C1012.23 102.683 1012.36 103.492 1012.61 104.205C1012.87 104.91 1013.27 105.466 1013.81 105.872C1014.34 106.271 1015.03 106.47 1015.86 106.47ZM1027.74 108.345C1026.81 108.345 1026.03 108.176 1025.4 107.839C1024.78 107.494 1024.31 107.042 1023.99 106.482C1023.67 105.922 1023.51 105.309 1023.51 104.642C1023.51 103.99 1023.64 103.427 1023.88 102.951C1024.14 102.468 1024.49 102.07 1024.94 101.755C1025.39 101.433 1025.93 101.18 1026.56 100.996C1027.15 100.835 1027.81 100.697 1028.54 100.582C1029.28 100.46 1030.02 100.349 1030.77 100.249C1031.52 100.149 1032.22 100.053 1032.88 99.9615L1032.14 100.387C1032.16 99.283 1031.94 98.4665 1031.47 97.9375C1031.01 97.4085 1030.22 97.144 1029.08 97.144C1028.33 97.144 1027.67 97.3165 1027.1 97.6615C1026.54 97.9988 1026.15 98.5508 1025.92 99.3175L1023.97 98.731C1024.27 97.6423 1024.85 96.7875 1025.71 96.1665C1026.57 95.5455 1027.7 95.235 1029.1 95.235C1030.23 95.235 1031.2 95.4382 1032 95.8445C1032.81 96.2432 1033.4 96.8488 1033.75 97.6615C1033.93 98.0448 1034.04 98.4627 1034.08 98.915C1034.13 99.3597 1034.15 99.8273 1034.15 100.318V108H1032.34V105.021L1032.76 105.297C1032.29 106.302 1031.64 107.061 1030.79 107.574C1029.96 108.088 1028.94 108.345 1027.74 108.345ZM1028.05 106.631C1028.78 106.631 1029.42 106.501 1029.95 106.24C1030.5 105.972 1030.94 105.623 1031.27 105.194C1031.6 104.757 1031.81 104.282 1031.91 103.768C1032.02 103.385 1032.09 102.959 1032.09 102.491C1032.11 102.016 1032.12 101.652 1032.12 101.399L1032.83 101.709C1032.16 101.801 1031.51 101.89 1030.86 101.974C1030.22 102.058 1029.61 102.15 1029.03 102.25C1028.46 102.342 1027.94 102.453 1027.48 102.583C1027.14 102.691 1026.83 102.829 1026.53 102.997C1026.24 103.166 1026 103.385 1025.81 103.653C1025.64 103.914 1025.55 104.239 1025.55 104.63C1025.55 104.968 1025.63 105.29 1025.8 105.596C1025.98 105.903 1026.25 106.152 1026.61 106.344C1026.98 106.536 1027.46 106.631 1028.05 106.631ZM1041.59 108.345C1040.37 108.345 1039.28 108.081 1038.34 107.551C1037.4 107.015 1036.65 106.279 1036.11 105.343L1037.74 104.285C1038.19 104.968 1038.73 105.493 1039.36 105.861C1039.99 106.221 1040.71 106.401 1041.51 106.401C1042.36 106.401 1043.03 106.21 1043.52 105.826C1044.02 105.435 1044.27 104.91 1044.27 104.251C1044.27 103.76 1044.15 103.385 1043.9 103.124C1043.66 102.863 1043.31 102.683 1042.85 102.583C1042.39 102.484 1041.84 102.434 1041.2 102.434H1039.91V100.743H1041.19C1042 100.743 1042.65 100.613 1043.16 100.352C1043.66 100.092 1043.92 99.6472 1043.92 99.0185C1043.92 98.3745 1043.68 97.9068 1043.2 97.6155C1042.74 97.3165 1042.18 97.167 1041.52 97.167C1040.83 97.167 1040.17 97.3127 1039.55 97.604C1038.92 97.8877 1038.38 98.248 1037.92 98.685L1036.68 97.2935C1037.33 96.6342 1038.07 96.1282 1038.9 95.7755C1039.75 95.4152 1040.66 95.235 1041.65 95.235C1042.45 95.235 1043.18 95.3768 1043.84 95.6605C1044.5 95.9365 1045.03 96.3467 1045.42 96.891C1045.82 97.4277 1046.02 98.0832 1046.02 98.8575C1046.02 99.5168 1045.87 100.103 1045.56 100.617C1045.25 101.131 1044.8 101.579 1044.2 101.962L1044.12 101.238C1044.63 101.361 1045.05 101.587 1045.38 101.916C1045.71 102.238 1045.96 102.622 1046.12 103.066C1046.28 103.511 1046.37 103.975 1046.37 104.458C1046.37 105.271 1046.15 105.968 1045.72 106.551C1045.3 107.126 1044.73 107.571 1044.01 107.885C1043.29 108.192 1042.48 108.345 1041.59 108.345ZM1048.88 108V95.58H1054.17C1054.48 95.58 1054.82 95.5992 1055.18 95.6375C1055.55 95.6682 1055.88 95.7257 1056.18 95.81C1056.85 95.9863 1057.4 96.3505 1057.82 96.9025C1058.26 97.4468 1058.48 98.1368 1058.48 98.9725C1058.48 99.4402 1058.41 99.8465 1058.26 100.191C1058.12 100.536 1057.92 100.835 1057.66 101.088C1057.55 101.203 1057.42 101.307 1057.28 101.399C1057.15 101.491 1057.01 101.564 1056.87 101.617C1057.14 101.663 1057.41 101.767 1057.69 101.928C1058.12 102.166 1058.46 102.499 1058.71 102.928C1058.96 103.358 1059.09 103.906 1059.09 104.573C1059.09 105.416 1058.89 106.114 1058.48 106.666C1058.07 107.21 1057.51 107.586 1056.8 107.793C1056.5 107.877 1056.17 107.935 1055.81 107.965C1055.45 107.988 1055.1 108 1054.77 108H1048.88ZM1050.95 106.332H1054.65C1054.81 106.332 1055 106.317 1055.23 106.286C1055.46 106.256 1055.66 106.217 1055.84 106.171C1056.23 106.056 1056.52 105.842 1056.7 105.527C1056.88 105.213 1056.97 104.872 1056.97 104.504C1056.97 104.013 1056.84 103.615 1056.56 103.308C1056.29 103.001 1055.93 102.81 1055.49 102.733C1055.33 102.687 1055.15 102.66 1054.96 102.652C1054.78 102.645 1054.61 102.641 1054.47 102.641H1050.95V106.332ZM1050.95 100.95H1054.03C1054.24 100.95 1054.47 100.939 1054.71 100.916C1054.95 100.885 1055.15 100.835 1055.33 100.766C1055.68 100.636 1055.94 100.421 1056.1 100.122C1056.27 99.8158 1056.35 99.4823 1056.35 99.122C1056.35 98.7233 1056.26 98.3745 1056.08 98.0755C1055.9 97.7688 1055.63 97.558 1055.26 97.443C1055.01 97.351 1054.74 97.3012 1054.43 97.2935C1054.13 97.2782 1053.94 97.2705 1053.86 97.2705H1050.95V100.95ZM1071.57 95.58V108H1069.59V98.846L1063.08 108H1061.39V95.58H1063.37V104.607L1069.89 95.58H1071.57ZM1078.08 108V97.443H1073.75V95.58H1084.45V97.443H1080.12V108H1078.08ZM1096.79 95.58V108H1094.81V98.846L1088.3 108H1086.61V95.58H1088.59V104.607L1095.11 95.58H1096.79ZM1105.39 108.345C1104.17 108.345 1103.11 108.077 1102.2 107.54C1101.29 106.996 1100.59 106.24 1100.08 105.274C1099.57 104.301 1099.32 103.166 1099.32 101.87C1099.32 100.513 1099.57 99.3405 1100.07 98.3515C1100.57 97.3548 1101.26 96.5882 1102.15 96.0515C1103.05 95.5072 1104.1 95.235 1105.3 95.235C1106.55 95.235 1107.61 95.5225 1108.49 96.0975C1109.37 96.6725 1110.03 97.4928 1110.46 98.5585C1110.91 99.6242 1111.1 100.893 1111.04 102.365H1108.97V101.629C1108.95 100.103 1108.64 98.9648 1108.04 98.2135C1107.44 97.4545 1106.55 97.075 1105.37 97.075C1104.1 97.075 1103.14 97.4813 1102.48 98.294C1101.82 99.1067 1101.49 100.272 1101.49 101.79C1101.49 103.254 1101.82 104.389 1102.48 105.194C1103.14 105.999 1104.08 106.401 1105.3 106.401C1106.12 106.401 1106.83 106.214 1107.44 105.838C1108.05 105.462 1108.52 104.922 1108.87 104.216L1110.83 104.895C1110.35 105.991 1109.62 106.842 1108.65 107.448C1107.68 108.046 1106.6 108.345 1105.39 108.345ZM1100.8 102.365V100.72H1109.98V102.365H1100.8ZM861.61 131V118.58H870.235V120.523H863.657V131H861.61ZM877.479 131.345C876.245 131.345 875.179 131.065 874.282 130.505C873.393 129.946 872.707 129.171 872.224 128.182C871.741 127.193 871.499 126.059 871.499 124.778C871.499 123.475 871.744 122.333 872.235 121.351C872.726 120.37 873.42 119.607 874.317 119.063C875.214 118.511 876.268 118.235 877.479 118.235C878.721 118.235 879.791 118.515 880.688 119.074C881.585 119.626 882.271 120.397 882.746 121.386C883.229 122.367 883.471 123.498 883.471 124.778C883.471 126.074 883.229 127.216 882.746 128.205C882.263 129.187 881.573 129.957 880.676 130.517C879.779 131.069 878.713 131.345 877.479 131.345ZM877.479 129.401C878.767 129.401 879.725 128.972 880.354 128.113C880.983 127.255 881.297 126.143 881.297 124.778C881.297 123.375 880.979 122.26 880.343 121.432C879.706 120.596 878.752 120.178 877.479 120.178C876.613 120.178 875.9 120.374 875.34 120.765C874.78 121.156 874.363 121.696 874.087 122.386C873.811 123.076 873.673 123.874 873.673 124.778C873.673 126.174 873.995 127.293 874.639 128.136C875.283 128.98 876.229 129.401 877.479 129.401ZM889.022 131V120.443H884.698V118.58H895.393V120.443H891.069V131H889.022ZM902.635 131.345C901.401 131.345 900.335 131.065 899.438 130.505C898.549 129.946 897.863 129.171 897.38 128.182C896.897 127.193 896.655 126.059 896.655 124.778C896.655 123.475 896.901 122.333 897.391 121.351C897.882 120.37 898.576 119.607 899.473 119.063C900.37 118.511 901.424 118.235 902.635 118.235C903.877 118.235 904.947 118.515 905.844 119.074C906.741 119.626 907.427 120.397 907.902 121.386C908.385 122.367 908.627 123.498 908.627 124.778C908.627 126.074 908.385 127.216 907.902 128.205C907.419 129.187 906.729 129.957 905.832 130.517C904.935 131.069 903.87 131.345 902.635 131.345ZM902.635 129.401C903.923 129.401 904.882 128.972 905.51 128.113C906.139 127.255 906.453 126.143 906.453 124.778C906.453 123.375 906.135 122.26 905.499 121.432C904.863 120.596 903.908 120.178 902.635 120.178C901.769 120.178 901.056 120.374 900.496 120.765C899.937 121.156 899.519 121.696 899.243 122.386C898.967 123.076 898.829 123.874 898.829 124.778C898.829 126.174 899.151 127.293 899.795 128.136C900.439 128.98 901.386 129.401 902.635 129.401ZM911.147 131V118.58H916.437C916.752 118.58 917.089 118.599 917.449 118.637C917.817 118.668 918.151 118.726 918.45 118.81C919.117 118.986 919.665 119.35 920.094 119.902C920.531 120.447 920.75 121.137 920.75 121.972C920.75 122.44 920.677 122.846 920.531 123.191C920.393 123.536 920.194 123.835 919.933 124.088C919.818 124.203 919.692 124.307 919.554 124.399C919.416 124.491 919.278 124.564 919.14 124.617C919.408 124.663 919.68 124.767 919.956 124.928C920.393 125.166 920.734 125.499 920.98 125.928C921.233 126.358 921.359 126.906 921.359 127.573C921.359 128.416 921.156 129.114 920.75 129.666C920.343 130.21 919.784 130.586 919.071 130.793C918.772 130.877 918.442 130.935 918.082 130.965C917.721 130.988 917.373 131 917.035 131H911.147ZM913.217 129.332H916.92C917.081 129.332 917.273 129.317 917.495 129.286C917.725 129.256 917.928 129.217 918.105 129.171C918.503 129.056 918.791 128.842 918.967 128.527C919.151 128.213 919.243 127.872 919.243 127.504C919.243 127.013 919.105 126.615 918.829 126.308C918.561 126.001 918.204 125.81 917.76 125.733C917.599 125.687 917.422 125.66 917.231 125.652C917.047 125.645 916.882 125.641 916.736 125.641H913.217V129.332ZM913.217 123.95H916.299C916.514 123.95 916.74 123.939 916.978 123.916C917.215 123.885 917.422 123.835 917.599 123.766C917.951 123.636 918.208 123.421 918.369 123.122C918.538 122.816 918.622 122.482 918.622 122.122C918.622 121.723 918.53 121.374 918.346 121.075C918.17 120.769 917.898 120.558 917.53 120.443C917.284 120.351 917.008 120.301 916.702 120.293C916.403 120.278 916.211 120.27 916.127 120.27H913.217V123.95ZM928.96 131.345C927.725 131.345 926.66 131.065 925.763 130.505C924.873 129.946 924.187 129.171 923.704 128.182C923.221 127.193 922.98 126.059 922.98 124.778C922.98 123.475 923.225 122.333 923.716 121.351C924.206 120.37 924.9 119.607 925.797 119.063C926.694 118.511 927.748 118.235 928.96 118.235C930.202 118.235 931.271 118.515 932.168 119.074C933.065 119.626 933.751 120.397 934.227 121.386C934.71 122.367 934.951 123.498 934.951 124.778C934.951 126.074 934.71 127.216 934.227 128.205C933.744 129.187 933.054 129.957 932.157 130.517C931.26 131.069 930.194 131.345 928.96 131.345ZM928.96 129.401C930.248 129.401 931.206 128.972 931.835 128.113C932.463 127.255 932.778 126.143 932.778 124.778C932.778 123.375 932.459 122.26 931.823 121.432C931.187 120.596 930.232 120.178 928.96 120.178C928.093 120.178 927.38 120.374 926.821 120.765C926.261 121.156 925.843 121.696 925.567 122.386C925.291 123.076 925.153 123.874 925.153 124.778C925.153 126.174 925.475 127.293 926.119 128.136C926.763 128.98 927.71 129.401 928.96 129.401ZM937.483 131V118.58H946.108V120.523H939.53V131H937.483ZM953.352 131.345C952.118 131.345 951.052 131.065 950.155 130.505C949.266 129.946 948.58 129.171 948.097 128.182C947.614 127.193 947.372 126.059 947.372 124.778C947.372 123.475 947.617 122.333 948.108 121.351C948.599 120.37 949.293 119.607 950.19 119.063C951.087 118.511 952.141 118.235 953.352 118.235C954.594 118.235 955.664 118.515 956.561 119.074C957.458 119.626 958.144 120.397 958.619 121.386C959.102 122.367 959.344 123.498 959.344 124.778C959.344 126.074 959.102 127.216 958.619 128.205C958.136 129.187 957.446 129.957 956.549 130.517C955.652 131.069 954.586 131.345 953.352 131.345ZM953.352 129.401C954.64 129.401 955.598 128.972 956.227 128.113C956.856 127.255 957.17 126.143 957.17 124.778C957.17 123.375 956.852 122.26 956.216 121.432C955.579 120.596 954.625 120.178 953.352 120.178C952.486 120.178 951.773 120.374 951.213 120.765C950.653 121.156 950.236 121.696 949.96 122.386C949.684 123.076 949.546 123.874 949.546 124.778C949.546 126.174 949.868 127.293 950.512 128.136C951.156 128.98 952.102 129.401 953.352 129.401ZM972.184 131.345C971.019 131.345 970.037 131.058 969.24 130.482C968.443 129.9 967.837 129.114 967.423 128.125C967.017 127.128 966.814 126.013 966.814 124.778C966.814 123.529 967.017 122.409 967.423 121.42C967.837 120.431 968.443 119.653 969.24 119.086C970.045 118.519 971.03 118.235 972.196 118.235C973.346 118.235 974.335 118.522 975.163 119.097C975.998 119.665 976.638 120.443 977.083 121.432C977.528 122.421 977.75 123.536 977.75 124.778C977.75 126.02 977.528 127.136 977.083 128.125C976.638 129.114 975.998 129.9 975.163 130.482C974.335 131.058 973.342 131.345 972.184 131.345ZM966.469 136.52V118.58H968.297V127.722H968.527V136.52H966.469ZM971.931 129.47C972.751 129.47 973.43 129.263 973.967 128.849C974.503 128.435 974.906 127.876 975.174 127.17C975.442 126.457 975.577 125.66 975.577 124.778C975.577 123.904 975.442 123.115 975.174 122.409C974.913 121.704 974.507 121.144 973.955 120.73C973.411 120.316 972.717 120.109 971.874 120.109C971.069 120.109 970.402 120.309 969.873 120.707C969.344 121.098 968.949 121.647 968.688 122.352C968.427 123.05 968.297 123.858 968.297 124.778C968.297 125.683 968.424 126.492 968.677 127.205C968.937 127.91 969.336 128.466 969.873 128.872C970.409 129.271 971.095 129.47 971.931 129.47ZM985.653 131.345C984.434 131.345 983.368 131.077 982.456 130.54C981.551 129.996 980.846 129.24 980.34 128.274C979.834 127.301 979.581 126.166 979.581 124.87C979.581 123.513 979.83 122.34 980.329 121.351C980.827 120.355 981.521 119.588 982.41 119.051C983.307 118.507 984.357 118.235 985.561 118.235C986.811 118.235 987.873 118.522 988.747 119.097C989.628 119.672 990.288 120.493 990.725 121.558C991.169 122.624 991.361 123.893 991.3 125.365H989.23V124.629C989.207 123.103 988.896 121.965 988.298 121.213C987.7 120.454 986.811 120.075 985.63 120.075C984.365 120.075 983.403 120.481 982.744 121.294C982.084 122.107 981.755 123.272 981.755 124.79C981.755 126.254 982.084 127.389 982.744 128.194C983.403 128.999 984.342 129.401 985.561 129.401C986.381 129.401 987.094 129.214 987.7 128.838C988.306 128.462 988.781 127.922 989.126 127.216L991.093 127.895C990.61 128.991 989.881 129.842 988.908 130.448C987.942 131.046 986.857 131.345 985.653 131.345ZM981.065 125.365V123.72H990.242V125.365H981.065ZM993.849 131V118.58H995.827V129.137H1000.1V118.58H1002.08V129.137H1006.35V118.58H1008.33V131H993.849ZM1016.92 131.345C1015.7 131.345 1014.63 131.077 1013.72 130.54C1012.82 129.996 1012.11 129.24 1011.61 128.274C1011.1 127.301 1010.85 126.166 1010.85 124.87C1010.85 123.513 1011.1 122.34 1011.59 121.351C1012.09 120.355 1012.79 119.588 1013.68 119.051C1014.57 118.507 1015.62 118.235 1016.83 118.235C1018.08 118.235 1019.14 118.522 1020.01 119.097C1020.89 119.672 1021.55 120.493 1021.99 121.558C1022.43 122.624 1022.63 123.893 1022.57 125.365H1020.5V124.629C1020.47 123.103 1020.16 121.965 1019.56 121.213C1018.97 120.454 1018.08 120.075 1016.9 120.075C1015.63 120.075 1014.67 120.481 1014.01 121.294C1013.35 122.107 1013.02 123.272 1013.02 124.79C1013.02 126.254 1013.35 127.389 1014.01 128.194C1014.67 128.999 1015.61 129.401 1016.83 129.401C1017.65 129.401 1018.36 129.214 1018.97 128.838C1019.57 128.462 1020.05 127.922 1020.39 127.216L1022.36 127.895C1021.88 128.991 1021.15 129.842 1020.17 130.448C1019.21 131.046 1018.12 131.345 1016.92 131.345ZM1012.33 125.365V123.72H1021.51V125.365H1012.33ZM1025.11 131V118.58H1027.16V123.812H1033.69V118.58H1035.74V131H1033.69V125.756H1027.16V131H1025.11ZM1049.13 118.58V131H1047.15V121.846L1040.64 131H1038.95V118.58H1040.93V127.607L1047.45 118.58H1049.13ZM1060.02 131V126.503H1057.34C1057.02 126.503 1056.68 126.492 1056.29 126.469C1055.92 126.438 1055.56 126.396 1055.23 126.342C1054.34 126.174 1053.58 125.779 1052.96 125.158C1052.34 124.537 1052.04 123.678 1052.04 122.582C1052.04 121.516 1052.33 120.661 1052.9 120.017C1053.48 119.366 1054.2 118.944 1055.05 118.752C1055.43 118.66 1055.82 118.611 1056.21 118.603C1056.61 118.588 1056.95 118.58 1057.22 118.58H1062.07L1062.08 131H1060.02ZM1051.66 131L1054.96 125.94H1057.17L1053.87 131H1051.66ZM1057.19 124.813H1060.02V120.27H1057.19C1057.01 120.27 1056.78 120.278 1056.49 120.293C1056.2 120.309 1055.93 120.355 1055.67 120.431C1055.43 120.5 1055.18 120.627 1054.95 120.811C1054.72 120.995 1054.53 121.233 1054.37 121.524C1054.22 121.815 1054.14 122.16 1054.14 122.559C1054.14 123.134 1054.3 123.602 1054.63 123.962C1054.95 124.315 1055.34 124.552 1055.8 124.675C1056.05 124.736 1056.3 124.775 1056.55 124.79C1056.8 124.805 1057.01 124.813 1057.19 124.813Z" fill="white"/>
              </svg>