<svg width="320" height="110" viewBox="0 0 320 110" fill="none" xmlns="http://www.w3.org/2000/svg">
              <path d="M234.112 109.5L32.8828 109.5C29.3527 109.5 26.1187 107.523 24.5186 104.382L24.5186 104.381L1.52051 59.3105C0.159971 56.6468 0.159629 53.4913 1.52051 50.8222L24.5234 5.62303C26.1238 2.48117 29.3578 0.499981 32.8926 0.499982L234.112 0.499999C239.3 0.5 243.5 4.69186 243.5 9.86523L243.5 100.135C243.5 105.308 239.3 109.5 234.112 109.5Z" fill="white" stroke="#254E6C"/>
              <path d="M187.912 3.71128e-06L310.107 1.43939e-05C315.573 1.48718e-05 320 4.41481 320 9.86549L320 100.135C320 105.585 315.573 110 310.107 110L187.902 110C184.182 110 180.774 107.918 179.087 104.609L156.076 59.5381C154.641 56.7314 154.641 53.4067 156.076 50.5951L179.092 5.39641C180.779 2.08654 184.187 3.38566e-06 187.912 3.71128e-06Z" fill="#F2F2F2"/>
              <path d="M35.98 53V42.92H39.907C40.509 42.92 41.0223 43.0437 41.447 43.291C41.8763 43.5383 42.203 43.865 42.427 44.271C42.6557 44.6723 42.77 45.1063 42.77 45.573C42.77 46.119 42.63 46.5973 42.35 47.008C42.07 47.4187 41.692 47.701 41.216 47.855L41.202 47.512C41.8507 47.6847 42.3547 48.002 42.714 48.464C43.0733 48.926 43.253 49.4767 43.253 50.116C43.253 50.704 43.1317 51.2127 42.889 51.642C42.651 52.0713 42.3057 52.405 41.853 52.643C41.405 52.881 40.873 53 40.257 53H35.98ZM37.24 51.81H40.019C40.3923 51.81 40.726 51.7423 41.02 51.607C41.314 51.467 41.545 51.271 41.713 51.019C41.8857 50.767 41.972 50.4637 41.972 50.109C41.972 49.7683 41.895 49.4627 41.741 49.192C41.5917 48.9213 41.3793 48.7067 41.104 48.548C40.8333 48.3847 40.5183 48.303 40.159 48.303H37.24V51.81ZM37.24 47.127H39.893C40.1917 47.127 40.46 47.064 40.698 46.938C40.9407 46.8073 41.132 46.6253 41.272 46.392C41.4167 46.1587 41.489 45.8857 41.489 45.573C41.489 45.139 41.342 44.7843 41.048 44.509C40.754 44.2337 40.369 44.096 39.893 44.096H37.24V47.127ZM44.641 53V45.44H45.887V48.625H49.863V45.44H51.109V53H49.863V49.808H45.887V53H44.641ZM56.3458 53.21C55.6038 53.21 54.9552 53.0467 54.3998 52.72C53.8492 52.3887 53.4198 51.929 53.1118 51.341C52.8038 50.7483 52.6498 50.0577 52.6498 49.269C52.6498 48.443 52.8015 47.729 53.1048 47.127C53.4082 46.5203 53.8305 46.0537 54.3718 45.727C54.9178 45.3957 55.5572 45.23 56.2898 45.23C57.0505 45.23 57.6968 45.405 58.2288 45.755C58.7655 46.105 59.1668 46.6043 59.4328 47.253C59.7035 47.9017 59.8202 48.674 59.7828 49.57H58.5228V49.122C58.5088 48.1933 58.3198 47.5003 57.9558 47.043C57.5918 46.581 57.0505 46.35 56.3318 46.35C55.5618 46.35 54.9762 46.5973 54.5748 47.092C54.1735 47.5867 53.9728 48.296 53.9728 49.22C53.9728 50.1113 54.1735 50.802 54.5748 51.292C54.9762 51.782 55.5478 52.027 56.2898 52.027C56.7892 52.027 57.2232 51.9127 57.5918 51.684C57.9605 51.4553 58.2498 51.1263 58.4598 50.697L59.6568 51.11C59.3628 51.7773 58.9195 52.2953 58.3268 52.664C57.7388 53.028 57.0785 53.21 56.3458 53.21ZM53.5528 49.57V48.569H59.1388V49.57H53.5528ZM60.7813 54.68V51.971C61.206 51.971 61.5093 51.8333 61.6913 51.558C61.8733 51.278 62.0203 50.8183 62.1323 50.179C62.207 49.7777 62.2677 49.3483 62.3143 48.891C62.361 48.4337 62.4007 47.925 62.4333 47.365C62.4707 46.8003 62.5057 46.1587 62.5383 45.44H67.7463V51.971H68.4813V54.68H67.2913V53H61.9713V54.68H60.7813ZM62.6993 51.971H66.5003V46.469H63.6653C63.6513 46.8003 63.6327 47.148 63.6093 47.512C63.586 47.8713 63.558 48.2307 63.5253 48.59C63.4973 48.9493 63.4623 49.29 63.4203 49.612C63.383 49.9293 63.3387 50.214 63.2873 50.466C63.2267 50.816 63.1567 51.1123 63.0773 51.355C62.998 51.5977 62.872 51.803 62.6993 51.971ZM73.3583 53.21C72.6489 53.21 72.0516 53.035 71.5663 52.685C71.0809 52.3303 70.7123 51.852 70.4603 51.25C70.2129 50.6433 70.0893 49.9643 70.0893 49.213C70.0893 48.4523 70.2129 47.771 70.4603 47.169C70.7123 46.567 71.0809 46.0933 71.5663 45.748C72.0563 45.4027 72.6559 45.23 73.3653 45.23C74.0653 45.23 74.6673 45.405 75.1713 45.755C75.6799 46.1003 76.0696 46.574 76.3403 47.176C76.6109 47.778 76.7463 48.457 76.7463 49.213C76.7463 49.969 76.6109 50.648 76.3403 51.25C76.0696 51.852 75.6799 52.3303 75.1713 52.685C74.6673 53.035 74.0629 53.21 73.3583 53.21ZM69.8793 56.36V45.44H70.9923V51.005H71.1323V56.36H69.8793ZM73.2043 52.069C73.7036 52.069 74.1166 51.943 74.4433 51.691C74.7699 51.439 75.0149 51.0983 75.1783 50.669C75.3416 50.235 75.4233 49.7497 75.4233 49.213C75.4233 48.681 75.3416 48.2003 75.1783 47.771C75.0196 47.3417 74.7723 47.001 74.4363 46.749C74.1049 46.497 73.6826 46.371 73.1693 46.371C72.6793 46.371 72.2733 46.4923 71.9513 46.735C71.6293 46.973 71.3889 47.3067 71.2303 47.736C71.0716 48.1607 70.9923 48.653 70.9923 49.213C70.9923 49.7637 71.0693 50.256 71.2233 50.69C71.3819 51.1193 71.6246 51.4577 71.9513 51.705C72.2779 51.9477 72.6956 52.069 73.2043 52.069ZM81.5568 53.21C80.8148 53.21 80.1661 53.0467 79.6108 52.72C79.0601 52.3887 78.6308 51.929 78.3228 51.341C78.0148 50.7483 77.8608 50.0577 77.8608 49.269C77.8608 48.443 78.0124 47.729 78.3158 47.127C78.6191 46.5203 79.0414 46.0537 79.5828 45.727C80.1288 45.3957 80.7681 45.23 81.5008 45.23C82.2614 45.23 82.9078 45.405 83.4398 45.755C83.9764 46.105 84.3778 46.6043 84.6438 47.253C84.9144 47.9017 85.0311 48.674 84.9938 49.57H83.7338V49.122C83.7198 48.1933 83.5308 47.5003 83.1668 47.043C82.8028 46.581 82.2614 46.35 81.5428 46.35C80.7728 46.35 80.1871 46.5973 79.7858 47.092C79.3844 47.5867 79.1838 48.296 79.1838 49.22C79.1838 50.1113 79.3844 50.802 79.7858 51.292C80.1871 51.782 80.7588 52.027 81.5008 52.027C82.0001 52.027 82.4341 51.9127 82.8028 51.684C83.1714 51.4553 83.4608 51.1263 83.6708 50.697L84.8678 51.11C84.5738 51.7773 84.1304 52.2953 83.5378 52.664C82.9498 53.028 82.2894 53.21 81.5568 53.21ZM78.7638 49.57V48.569H84.3498V49.57H78.7638ZM86.5453 53V45.44H87.7913V48.625H91.7673V45.44H93.0133V53H91.7673V49.808H87.7913V53H86.5453ZM101.162 45.44V53H99.9581V47.428L95.9961 53H94.9671V45.44H96.1711V50.935L100.14 45.44H101.162ZM106.399 53.21C105.657 53.21 105.008 53.0467 104.453 52.72C103.902 52.3887 103.473 51.929 103.165 51.341C102.857 50.7483 102.703 50.0577 102.703 49.269C102.703 48.443 102.854 47.729 103.158 47.127C103.461 46.5203 103.883 46.0537 104.425 45.727C104.971 45.3957 105.61 45.23 106.343 45.23C107.103 45.23 107.75 45.405 108.282 45.755C108.818 46.105 109.22 46.6043 109.486 47.253C109.756 47.9017 109.873 48.674 109.836 49.57H108.576V49.122C108.562 48.1933 108.373 47.5003 108.009 47.043C107.645 46.581 107.103 46.35 106.385 46.35C105.615 46.35 105.029 46.5973 104.628 47.092C104.226 47.5867 104.026 48.296 104.026 49.22C104.026 50.1113 104.226 50.802 104.628 51.292C105.029 51.782 105.601 52.027 106.343 52.027C106.842 52.027 107.276 51.9127 107.645 51.684C108.013 51.4553 108.303 51.1263 108.513 50.697L109.71 51.11C109.416 51.7773 108.972 52.2953 108.38 52.664C107.792 53.028 107.131 53.21 106.399 53.21ZM103.606 49.57V48.569H109.192V49.57H103.606ZM39.165 67.21C38.3997 67.21 37.7487 67.0397 37.212 66.699C36.68 66.3537 36.274 65.88 35.994 65.278C35.714 64.676 35.5693 63.99 35.56 63.22C35.5693 62.4313 35.7163 61.7383 36.001 61.141C36.2903 60.539 36.7033 60.07 37.24 59.734C37.7767 59.398 38.423 59.23 39.179 59.23C39.977 59.23 40.663 59.426 41.237 59.818C41.8157 60.21 42.203 60.7467 42.399 61.428L41.167 61.799C41.0083 61.3603 40.7493 61.0197 40.39 60.777C40.0353 60.5343 39.627 60.413 39.165 60.413C38.647 60.413 38.22 60.5343 37.884 60.777C37.548 61.015 37.2983 61.3463 37.135 61.771C36.9717 62.191 36.8877 62.674 36.883 63.22C36.8923 64.06 37.086 64.739 37.464 65.257C37.8467 65.7703 38.4137 66.027 39.165 66.027C39.6597 66.027 40.0703 65.915 40.397 65.691C40.7237 65.4623 40.971 65.1333 41.139 64.704L42.399 65.033C42.1377 65.7377 41.7293 66.2767 41.174 66.65C40.6187 67.0233 39.949 67.21 39.165 67.21ZM46.8426 67.21C46.0912 67.21 45.4426 67.0397 44.8966 66.699C44.3552 66.3583 43.9376 65.887 43.6436 65.285C43.3496 64.683 43.2026 63.9923 43.2026 63.213C43.2026 62.4197 43.3519 61.7243 43.6506 61.127C43.9492 60.5297 44.3716 60.0653 44.9176 59.734C45.4636 59.398 46.1052 59.23 46.8426 59.23C47.5986 59.23 48.2496 59.4003 48.7956 59.741C49.3416 60.077 49.7592 60.546 50.0486 61.148C50.3426 61.7453 50.4896 62.4337 50.4896 63.213C50.4896 64.0017 50.3426 64.697 50.0486 65.299C49.7546 65.8963 49.3346 66.3653 48.7886 66.706C48.2426 67.042 47.5939 67.21 46.8426 67.21ZM46.8426 66.027C47.6266 66.027 48.2099 65.7657 48.5926 65.243C48.9752 64.7203 49.1666 64.0437 49.1666 63.213C49.1666 62.359 48.9729 61.68 48.5856 61.176C48.1982 60.6673 47.6172 60.413 46.8426 60.413C46.3152 60.413 45.8812 60.532 45.5406 60.77C45.1999 61.008 44.9456 61.337 44.7776 61.757C44.6096 62.177 44.5256 62.6623 44.5256 63.213C44.5256 64.0623 44.7216 64.7437 45.1136 65.257C45.5056 65.7703 46.0819 66.027 46.8426 66.027ZM54.562 67.21C53.8154 67.21 53.155 67.049 52.581 66.727C52.007 66.4003 51.5544 65.9523 51.223 65.383L52.217 64.739C52.4924 65.1543 52.8214 65.474 53.204 65.698C53.5867 65.9173 54.023 66.027 54.513 66.027C55.0264 66.027 55.4347 65.9103 55.738 65.677C56.0414 65.439 56.193 65.1193 56.193 64.718C56.193 64.4193 56.1184 64.1907 55.969 64.032C55.8197 63.8733 55.605 63.7637 55.325 63.703C55.045 63.6423 54.7114 63.612 54.324 63.612H53.54V62.583H54.317C54.807 62.583 55.206 62.5037 55.514 62.345C55.822 62.1863 55.976 61.9157 55.976 61.533C55.976 61.141 55.8314 60.8563 55.542 60.679C55.2574 60.497 54.9167 60.406 54.52 60.406C54.1 60.406 53.6987 60.4947 53.316 60.672C52.9334 60.8447 52.6044 61.064 52.329 61.33L51.573 60.483C51.965 60.0817 52.4154 59.7737 52.924 59.559C53.4374 59.3397 53.995 59.23 54.597 59.23C55.0824 59.23 55.5257 59.3163 55.927 59.489C56.333 59.657 56.655 59.9067 56.893 60.238C57.1357 60.5647 57.257 60.9637 57.257 61.435C57.257 61.8363 57.1637 62.1933 56.977 62.506C56.7904 62.8187 56.515 63.0917 56.151 63.325L56.102 62.884C56.41 62.9587 56.6644 63.0963 56.865 63.297C57.0704 63.493 57.222 63.7263 57.32 63.997C57.418 64.2677 57.467 64.55 57.467 64.844C57.467 65.3387 57.3364 65.7633 57.075 66.118C56.8184 66.468 56.4707 66.7387 56.032 66.93C55.5934 67.1167 55.1034 67.21 54.562 67.21ZM58.4434 68.68V65.971C58.8681 65.971 59.1714 65.8333 59.3534 65.558C59.5354 65.278 59.6824 64.8183 59.7944 64.179C59.8691 63.7777 59.9298 63.3483 59.9764 62.891C60.0231 62.4337 60.0628 61.925 60.0954 61.365C60.1328 60.8003 60.1678 60.1587 60.2004 59.44H65.4084V65.971H66.1434V68.68H64.9534V67H59.6334V68.68H58.4434ZM60.3614 65.971H64.1624V60.469H61.3274C61.3134 60.8003 61.2948 61.148 61.2714 61.512C61.2481 61.8713 61.2201 62.2307 61.1874 62.59C61.1594 62.9493 61.1244 63.29 61.0824 63.612C61.0451 63.9293 61.0008 64.214 60.9494 64.466C60.8888 64.816 60.8188 65.1123 60.7394 65.355C60.6601 65.5977 60.5341 65.803 60.3614 65.971ZM69.6974 67.21C69.1327 67.21 68.659 67.1073 68.2764 66.902C67.8984 66.692 67.6114 66.4167 67.4154 66.076C67.224 65.7353 67.1284 65.362 67.1284 64.956C67.1284 64.5593 67.203 64.2163 67.3524 63.927C67.5064 63.633 67.721 63.3903 67.9964 63.199C68.2717 63.003 68.6007 62.849 68.9834 62.737C69.3427 62.639 69.744 62.555 70.1874 62.485C70.6354 62.4103 71.088 62.3427 71.5454 62.282C72.0027 62.2213 72.4297 62.163 72.8264 62.107L72.3784 62.366C72.3924 61.694 72.257 61.197 71.9724 60.875C71.6924 60.553 71.207 60.392 70.5164 60.392C70.059 60.392 69.6577 60.497 69.3124 60.707C68.9717 60.9123 68.7314 61.2483 68.5914 61.715L67.4084 61.358C67.5904 60.6953 67.9427 60.175 68.4654 59.797C68.988 59.419 69.6764 59.23 70.5304 59.23C71.2164 59.23 71.8044 59.3537 72.2944 59.601C72.789 59.8437 73.1437 60.2123 73.3584 60.707C73.4657 60.9403 73.5334 61.1947 73.5614 61.47C73.5894 61.7407 73.6034 62.0253 73.6034 62.324V67H72.4974V65.187L72.7564 65.355C72.4717 65.9663 72.0727 66.4283 71.5594 66.741C71.0507 67.0537 70.43 67.21 69.6974 67.21ZM69.8864 66.167C70.3344 66.167 70.7217 66.0877 71.0484 65.929C71.3797 65.7657 71.6457 65.5533 71.8464 65.292C72.047 65.026 72.1777 64.7367 72.2384 64.424C72.3084 64.1907 72.3457 63.9317 72.3504 63.647C72.3597 63.3577 72.3644 63.136 72.3644 62.982L72.7984 63.171C72.3924 63.227 71.9934 63.2807 71.6014 63.332C71.2094 63.3833 70.8384 63.4393 70.4884 63.5C70.1384 63.556 69.8234 63.6237 69.5434 63.703C69.338 63.7683 69.1444 63.8523 68.9624 63.955C68.785 64.0577 68.6404 64.1907 68.5284 64.354C68.421 64.5127 68.3674 64.711 68.3674 64.949C68.3674 65.1543 68.4187 65.3503 68.5214 65.537C68.6287 65.7237 68.792 65.8753 69.0114 65.992C69.2354 66.1087 69.527 66.167 69.8864 66.167ZM75.4164 67V59.44H76.6624V62.625H80.6384V59.44H81.8844V67H80.6384V63.808H76.6624V67H75.4164ZM83.8382 67V59.44H85.0842V62.625H89.0602V59.44H90.3062V67H89.0602V63.808H85.0842V67H83.8382ZM95.4871 67.21C94.7358 67.21 94.0871 67.0397 93.5411 66.699C92.9998 66.3583 92.5821 65.887 92.2881 65.285C91.9941 64.683 91.8471 63.9923 91.8471 63.213C91.8471 62.4197 91.9964 61.7243 92.2951 61.127C92.5938 60.5297 93.0161 60.0653 93.5621 59.734C94.1081 59.398 94.7498 59.23 95.4871 59.23C96.2431 59.23 96.8941 59.4003 97.4401 59.741C97.9861 60.077 98.4038 60.546 98.6931 61.148C98.9871 61.7453 99.1341 62.4337 99.1341 63.213C99.1341 64.0017 98.9871 64.697 98.6931 65.299C98.3991 65.8963 97.9791 66.3653 97.4331 66.706C96.8871 67.042 96.2384 67.21 95.4871 67.21ZM95.4871 66.027C96.2711 66.027 96.8544 65.7657 97.2371 65.243C97.6198 64.7203 97.8111 64.0437 97.8111 63.213C97.8111 62.359 97.6174 61.68 97.2301 61.176C96.8428 60.6673 96.2618 60.413 95.4871 60.413C94.9598 60.413 94.5258 60.532 94.1851 60.77C93.8444 61.008 93.5901 61.337 93.4221 61.757C93.2541 62.177 93.1701 62.6623 93.1701 63.213C93.1701 64.0623 93.3661 64.7437 93.7581 65.257C94.1501 65.7703 94.7264 66.027 95.4871 66.027ZM100.675 67V59.44H105.925V60.623H101.921V67H100.675ZM110.335 67.21C109.583 67.21 108.935 67.0397 108.389 66.699C107.847 66.3583 107.43 65.887 107.136 65.285C106.842 64.683 106.695 63.9923 106.695 63.213C106.695 62.4197 106.844 61.7243 107.143 61.127C107.441 60.5297 107.864 60.0653 108.41 59.734C108.956 59.398 109.597 59.23 110.335 59.23C111.091 59.23 111.742 59.4003 112.288 59.741C112.834 60.077 113.251 60.546 113.541 61.148C113.835 61.7453 113.982 62.4337 113.982 63.213C113.982 64.0017 113.835 64.697 113.541 65.299C113.247 65.8963 112.827 66.3653 112.281 66.706C111.735 67.042 111.086 67.21 110.335 67.21ZM110.335 66.027C111.119 66.027 111.702 65.7657 112.085 65.243C112.467 64.7203 112.659 64.0437 112.659 63.213C112.659 62.359 112.465 61.68 112.078 61.176C111.69 60.6673 111.109 60.413 110.335 60.413C109.807 60.413 109.373 60.532 109.033 60.77C108.692 61.008 108.438 61.337 108.27 61.757C108.102 62.177 108.018 62.6623 108.018 63.213C108.018 64.0623 108.214 64.7437 108.606 65.257C108.998 65.7703 109.574 66.027 110.335 66.027ZM118.326 67V56.92H126.194V67H124.948V58.103H119.572V67H118.326ZM132.3 67.21C131.296 67.21 130.445 66.9883 129.745 66.545C129.045 66.1017 128.51 65.4857 128.142 64.697C127.778 63.9083 127.596 62.996 127.596 61.96C127.596 60.924 127.778 60.0117 128.142 59.223C128.51 58.4343 129.045 57.8183 129.745 57.375C130.445 56.9317 131.296 56.71 132.3 56.71C133.308 56.71 134.162 56.9317 134.862 57.375C135.562 57.8183 136.094 58.4343 136.458 59.223C136.822 60.0117 137.004 60.924 137.004 61.96C137.004 62.996 136.822 63.9083 136.458 64.697C136.094 65.4857 135.562 66.1017 134.862 66.545C134.162 66.9883 133.308 67.21 132.3 67.21ZM132.3 66.02C133.051 66.0247 133.676 65.8567 134.176 65.516C134.68 65.1707 135.055 64.6923 135.303 64.081C135.555 63.4697 135.681 62.7627 135.681 61.96C135.681 61.1527 135.555 60.4457 135.303 59.839C135.055 59.2323 134.68 58.7587 134.176 58.418C133.676 58.0773 133.051 57.9047 132.3 57.9C131.548 57.8953 130.923 58.0633 130.424 58.404C129.929 58.7447 129.556 59.2207 129.304 59.832C129.052 60.4433 128.923 61.1527 128.919 61.96C128.914 62.7627 129.038 63.4673 129.29 64.074C129.542 64.6807 129.917 65.1567 130.417 65.502C130.921 65.8427 131.548 66.0153 132.3 66.02Z" fill="#000206"/>
              <path d="M192.98 39V28.92H194.226V33.652L198.636 28.92H200.204L195.626 33.813L200.561 39H198.951L194.226 34.072V39H192.98ZM204.198 39.21C203.447 39.21 202.798 39.0397 202.252 38.699C201.711 38.3583 201.293 37.887 200.999 37.285C200.705 36.683 200.558 35.9923 200.558 35.213C200.558 34.4197 200.707 33.7243 201.006 33.127C201.305 32.5297 201.727 32.0653 202.273 31.734C202.819 31.398 203.461 31.23 204.198 31.23C204.954 31.23 205.605 31.4003 206.151 31.741C206.697 32.077 207.115 32.546 207.404 33.148C207.698 33.7453 207.845 34.4337 207.845 35.213C207.845 36.0017 207.698 36.697 207.404 37.299C207.11 37.8963 206.69 38.3653 206.144 38.706C205.598 39.042 204.949 39.21 204.198 39.21ZM204.198 38.027C204.982 38.027 205.565 37.7657 205.948 37.243C206.331 36.7203 206.522 36.0437 206.522 35.213C206.522 34.359 206.328 33.68 205.941 33.176C205.554 32.6673 204.973 32.413 204.198 32.413C203.671 32.413 203.237 32.532 202.896 32.77C202.555 33.008 202.301 33.337 202.133 33.757C201.965 34.177 201.881 34.6623 201.881 35.213C201.881 36.0623 202.077 36.7437 202.469 37.257C202.861 37.7703 203.437 38.027 204.198 38.027ZM209.379 39V31.44H210.45L213.32 37.306L216.19 31.44H217.261V39H216.057V34.037L213.649 39H212.991L210.583 34.037V39H209.379ZM219.209 39V31.44H225.404V39H224.158V32.623H220.455V39H219.209ZM226.665 39V37.929C226.945 37.9803 227.157 37.971 227.302 37.901C227.451 37.8263 227.561 37.698 227.631 37.516C227.705 37.3293 227.766 37.096 227.813 36.816C227.892 36.3727 227.96 35.878 228.016 35.332C228.076 34.786 228.13 34.1887 228.177 33.54C228.228 32.8867 228.275 32.1867 228.317 31.44H233.602V39H232.356V32.623H229.451C229.423 33.0523 229.388 33.4933 229.346 33.946C229.308 34.3987 229.269 34.8397 229.227 35.269C229.185 35.6937 229.138 36.0903 229.087 36.459C229.04 36.823 228.989 37.138 228.933 37.404C228.844 37.8613 228.72 38.2277 228.562 38.503C228.403 38.7737 228.174 38.9487 227.876 39.028C227.577 39.112 227.173 39.1027 226.665 39ZM238.844 39.21C238.102 39.21 237.453 39.0467 236.898 38.72C236.347 38.3887 235.918 37.929 235.61 37.341C235.302 36.7483 235.148 36.0577 235.148 35.269C235.148 34.443 235.3 33.729 235.603 33.127C235.906 32.5203 236.329 32.0537 236.87 31.727C237.416 31.3957 238.055 31.23 238.788 31.23C239.549 31.23 240.195 31.405 240.727 31.755C241.264 32.105 241.665 32.6043 241.931 33.253C242.202 33.9017 242.318 34.674 242.281 35.57H241.021V35.122C241.007 34.1933 240.818 33.5003 240.454 33.043C240.09 32.581 239.549 32.35 238.83 32.35C238.06 32.35 237.474 32.5973 237.073 33.092C236.672 33.5867 236.471 34.296 236.471 35.22C236.471 36.1113 236.672 36.802 237.073 37.292C237.474 37.782 238.046 38.027 238.788 38.027C239.287 38.027 239.721 37.9127 240.09 37.684C240.459 37.4553 240.748 37.1263 240.958 36.697L242.155 37.11C241.861 37.7773 241.418 38.2953 240.825 38.664C240.237 39.028 239.577 39.21 238.844 39.21ZM236.051 35.57V34.569H241.637V35.57H236.051ZM243.832 39L243.839 31.44H245.099V35.08L248.27 31.44H249.887L246.548 35.22L250.279 39H248.536L245.099 35.36V39H243.832ZM254.024 39.21C253.259 39.21 252.608 39.0397 252.071 38.699C251.539 38.3537 251.133 37.88 250.853 37.278C250.573 36.676 250.429 35.99 250.419 35.22C250.429 34.4313 250.576 33.7383 250.86 33.141C251.15 32.539 251.563 32.07 252.099 31.734C252.636 31.398 253.282 31.23 254.038 31.23C254.836 31.23 255.522 31.426 256.096 31.818C256.675 32.21 257.062 32.7467 257.258 33.428L256.026 33.799C255.868 33.3603 255.609 33.0197 255.249 32.777C254.895 32.5343 254.486 32.413 254.024 32.413C253.506 32.413 253.079 32.5343 252.743 32.777C252.407 33.015 252.158 33.3463 251.994 33.771C251.831 34.191 251.747 34.674 251.742 35.22C251.752 36.06 251.945 36.739 252.323 37.257C252.706 37.7703 253.273 38.027 254.024 38.027C254.519 38.027 254.93 37.915 255.256 37.691C255.583 37.4623 255.83 37.1333 255.998 36.704L257.258 37.033C256.997 37.7377 256.589 38.2767 256.033 38.65C255.478 39.0233 254.808 39.21 254.024 39.21ZM258.68 39V31.44H259.926V34.625H263.902V31.44H265.148V39H263.902V35.808H259.926V39H258.68ZM270.329 39.21C269.578 39.21 268.929 39.0397 268.383 38.699C267.842 38.3583 267.424 37.887 267.13 37.285C266.836 36.683 266.689 35.9923 266.689 35.213C266.689 34.4197 266.838 33.7243 267.137 33.127C267.436 32.5297 267.858 32.0653 268.404 31.734C268.95 31.398 269.592 31.23 270.329 31.23C271.085 31.23 271.736 31.4003 272.282 31.741C272.828 32.077 273.246 32.546 273.535 33.148C273.829 33.7453 273.976 34.4337 273.976 35.213C273.976 36.0017 273.829 36.697 273.535 37.299C273.241 37.8963 272.821 38.3653 272.275 38.706C271.729 39.042 271.08 39.21 270.329 39.21ZM270.329 38.027C271.113 38.027 271.696 37.7657 272.079 37.243C272.462 36.7203 272.653 36.0437 272.653 35.213C272.653 34.359 272.459 33.68 272.072 33.176C271.685 32.6673 271.104 32.413 270.329 32.413C269.802 32.413 269.368 32.532 269.027 32.77C268.686 33.008 268.432 33.337 268.264 33.757C268.096 34.177 268.012 34.6623 268.012 35.213C268.012 36.0623 268.208 36.7437 268.6 37.257C268.992 37.7703 269.568 38.027 270.329 38.027ZM278.793 39.21C278.051 39.21 277.402 39.0467 276.847 38.72C276.296 38.3887 275.867 37.929 275.559 37.341C275.251 36.7483 275.097 36.0577 275.097 35.269C275.097 34.443 275.249 33.729 275.552 33.127C275.855 32.5203 276.278 32.0537 276.819 31.727C277.365 31.3957 278.004 31.23 278.737 31.23C279.498 31.23 280.144 31.405 280.676 31.755C281.213 32.105 281.614 32.6043 281.88 33.253C282.151 33.9017 282.267 34.674 282.23 35.57H280.97V35.122C280.956 34.1933 280.767 33.5003 280.403 33.043C280.039 32.581 279.498 32.35 278.779 32.35C278.009 32.35 277.423 32.5973 277.022 33.092C276.621 33.5867 276.42 34.296 276.42 35.22C276.42 36.1113 276.621 36.802 277.022 37.292C277.423 37.782 277.995 38.027 278.737 38.027C279.236 38.027 279.67 37.9127 280.039 37.684C280.408 37.4553 280.697 37.1263 280.907 36.697L282.104 37.11C281.81 37.7773 281.367 38.2953 280.774 38.664C280.186 39.028 279.526 39.21 278.793 39.21ZM276 35.57V34.569H281.586V35.57H276ZM194.982 53V46.574H192.35V45.44H198.86V46.574H196.228V53H194.982ZM203.461 53.21C202.719 53.21 202.07 53.0467 201.515 52.72C200.964 52.3887 200.535 51.929 200.227 51.341C199.919 50.7483 199.765 50.0577 199.765 49.269C199.765 48.443 199.917 47.729 200.22 47.127C200.523 46.5203 200.946 46.0537 201.487 45.727C202.033 45.3957 202.672 45.23 203.405 45.23C204.166 45.23 204.812 45.405 205.344 45.755C205.881 46.105 206.282 46.6043 206.548 47.253C206.819 47.9017 206.935 48.674 206.898 49.57H205.638V49.122C205.624 48.1933 205.435 47.5003 205.071 47.043C204.707 46.581 204.166 46.35 203.447 46.35C202.677 46.35 202.091 46.5973 201.69 47.092C201.289 47.5867 201.088 48.296 201.088 49.22C201.088 50.1113 201.289 50.802 201.69 51.292C202.091 51.782 202.663 52.027 203.405 52.027C203.904 52.027 204.338 51.9127 204.707 51.684C205.076 51.4553 205.365 51.1263 205.575 50.697L206.772 51.11C206.478 51.7773 206.035 52.2953 205.442 52.664C204.854 53.028 204.194 53.21 203.461 53.21ZM200.668 49.57V48.569H206.254V49.57H200.668ZM211.642 53.21C210.876 53.21 210.225 53.0397 209.689 52.699C209.157 52.3537 208.751 51.88 208.471 51.278C208.191 50.676 208.046 49.99 208.037 49.22C208.046 48.4313 208.193 47.7383 208.478 47.141C208.767 46.539 209.18 46.07 209.717 45.734C210.253 45.398 210.9 45.23 211.656 45.23C212.454 45.23 213.14 45.426 213.714 45.818C214.292 46.21 214.68 46.7467 214.876 47.428L213.644 47.799C213.485 47.3603 213.226 47.0197 212.867 46.777C212.512 46.5343 212.104 46.413 211.642 46.413C211.124 46.413 210.697 46.5343 210.361 46.777C210.025 47.015 209.775 47.3463 209.612 47.771C209.448 48.191 209.364 48.674 209.36 49.22C209.369 50.06 209.563 50.739 209.941 51.257C210.323 51.7703 210.89 52.027 211.642 52.027C212.136 52.027 212.547 51.915 212.874 51.691C213.2 51.4623 213.448 51.1333 213.616 50.704L214.876 51.033C214.614 51.7377 214.206 52.2767 213.651 52.65C213.095 53.0233 212.426 53.21 211.642 53.21ZM218.17 53V46.574H215.538V45.44H222.048V46.574H219.416V53H218.17ZM229.561 45.44V53H228.357V47.428L224.395 53H223.366V45.44H224.57V50.935L228.539 45.44H229.561ZM234.993 53.21C234.284 53.21 233.686 53.035 233.201 52.685C232.716 52.3303 232.347 51.852 232.095 51.25C231.848 50.6433 231.724 49.9643 231.724 49.213C231.724 48.4523 231.848 47.771 232.095 47.169C232.347 46.567 232.716 46.0933 233.201 45.748C233.691 45.4027 234.291 45.23 235 45.23C235.7 45.23 236.302 45.405 236.806 45.755C237.315 46.1003 237.704 46.574 237.975 47.176C238.246 47.778 238.381 48.457 238.381 49.213C238.381 49.969 238.246 50.648 237.975 51.25C237.704 51.852 237.315 52.3303 236.806 52.685C236.302 53.035 235.698 53.21 234.993 53.21ZM231.514 56.36V45.44H232.627V51.005H232.767V56.36H231.514ZM234.839 52.069C235.338 52.069 235.751 51.943 236.078 51.691C236.405 51.439 236.65 51.0983 236.813 50.669C236.976 50.235 237.058 49.7497 237.058 49.213C237.058 48.681 236.976 48.2003 236.813 47.771C236.654 47.3417 236.407 47.001 236.071 46.749C235.74 46.497 235.317 46.371 234.804 46.371C234.314 46.371 233.908 46.4923 233.586 46.735C233.264 46.973 233.024 47.3067 232.865 47.736C232.706 48.1607 232.627 48.653 232.627 49.213C232.627 49.7637 232.704 50.256 232.858 50.69C233.017 51.1193 233.259 51.4577 233.586 51.705C233.913 51.9477 234.33 52.069 234.839 52.069ZM243.136 53.21C242.384 53.21 241.736 53.0397 241.19 52.699C240.648 52.3583 240.231 51.887 239.937 51.285C239.643 50.683 239.496 49.9923 239.496 49.213C239.496 48.4197 239.645 47.7243 239.944 47.127C240.242 46.5297 240.665 46.0653 241.211 45.734C241.757 45.398 242.398 45.23 243.136 45.23C243.892 45.23 244.543 45.4003 245.089 45.741C245.635 46.077 246.052 46.546 246.342 47.148C246.636 47.7453 246.783 48.4337 246.783 49.213C246.783 50.0017 246.636 50.697 246.342 51.299C246.048 51.8963 245.628 52.3653 245.082 52.706C244.536 53.042 243.887 53.21 243.136 53.21ZM243.136 52.027C243.92 52.027 244.503 51.7657 244.886 51.243C245.268 50.7203 245.46 50.0437 245.46 49.213C245.46 48.359 245.266 47.68 244.879 47.176C244.491 46.6673 243.91 46.413 243.136 46.413C242.608 46.413 242.174 46.532 241.834 46.77C241.493 47.008 241.239 47.337 241.071 47.757C240.903 48.177 240.819 48.6623 240.819 49.213C240.819 50.0623 241.015 50.7437 241.407 51.257C241.799 51.7703 242.375 52.027 243.136 52.027ZM248.317 53V45.44H251.537C251.728 45.44 251.933 45.4517 252.153 45.475C252.377 45.4937 252.58 45.5287 252.762 45.58C253.168 45.6873 253.501 45.909 253.763 46.245C254.029 46.5763 254.162 46.9963 254.162 47.505C254.162 47.7897 254.117 48.037 254.029 48.247C253.945 48.457 253.823 48.639 253.665 48.793C253.595 48.863 253.518 48.926 253.434 48.982C253.35 49.038 253.266 49.0823 253.182 49.115C253.345 49.143 253.511 49.206 253.679 49.304C253.945 49.4487 254.152 49.6517 254.302 49.913C254.456 50.1743 254.533 50.508 254.533 50.914C254.533 51.4273 254.409 51.852 254.162 52.188C253.914 52.5193 253.574 52.748 253.14 52.874C252.958 52.9253 252.757 52.9603 252.538 52.979C252.318 52.993 252.106 53 251.901 53H248.317ZM249.577 51.985H251.831C251.929 51.985 252.045 51.9757 252.181 51.957C252.321 51.9383 252.444 51.915 252.552 51.887C252.794 51.817 252.969 51.6863 253.077 51.495C253.189 51.3037 253.245 51.096 253.245 50.872C253.245 50.5733 253.161 50.3307 252.993 50.144C252.829 49.9573 252.612 49.8407 252.342 49.794C252.244 49.766 252.136 49.7497 252.02 49.745C251.908 49.7403 251.807 49.738 251.719 49.738H249.577V51.985ZM249.577 48.709H251.453C251.583 48.709 251.721 48.702 251.866 48.688C252.01 48.6693 252.136 48.639 252.244 48.597C252.458 48.5177 252.615 48.387 252.713 48.205C252.815 48.0183 252.867 47.8153 252.867 47.596C252.867 47.3533 252.811 47.141 252.699 46.959C252.591 46.7723 252.426 46.644 252.202 46.574C252.052 46.518 251.884 46.4877 251.698 46.483C251.516 46.4737 251.399 46.469 251.348 46.469H249.577V48.709ZM258.088 53.21C257.523 53.21 257.05 53.1073 256.667 52.902C256.289 52.692 256.002 52.4167 255.806 52.076C255.615 51.7353 255.519 51.362 255.519 50.956C255.519 50.5593 255.594 50.2163 255.743 49.927C255.897 49.633 256.112 49.3903 256.387 49.199C256.662 49.003 256.991 48.849 257.374 48.737C257.733 48.639 258.135 48.555 258.578 48.485C259.026 48.4103 259.479 48.3427 259.936 48.282C260.393 48.2213 260.82 48.163 261.217 48.107L260.769 48.366C260.783 47.694 260.648 47.197 260.363 46.875C260.083 46.553 259.598 46.392 258.907 46.392C258.45 46.392 258.048 46.497 257.703 46.707C257.362 46.9123 257.122 47.2483 256.982 47.715L255.799 47.358C255.981 46.6953 256.333 46.175 256.856 45.797C257.379 45.419 258.067 45.23 258.921 45.23C259.607 45.23 260.195 45.3537 260.685 45.601C261.18 45.8437 261.534 46.2123 261.749 46.707C261.856 46.9403 261.924 47.1947 261.952 47.47C261.98 47.7407 261.994 48.0253 261.994 48.324V53H260.888V51.187L261.147 51.355C260.862 51.9663 260.463 52.4283 259.95 52.741C259.441 53.0537 258.821 53.21 258.088 53.21ZM258.277 52.167C258.725 52.167 259.112 52.0877 259.439 51.929C259.77 51.7657 260.036 51.5533 260.237 51.292C260.438 51.026 260.568 50.7367 260.629 50.424C260.699 50.1907 260.736 49.9317 260.741 49.647C260.75 49.3577 260.755 49.136 260.755 48.982L261.189 49.171C260.783 49.227 260.384 49.2807 259.992 49.332C259.6 49.3833 259.229 49.4393 258.879 49.5C258.529 49.556 258.214 49.6237 257.934 49.703C257.729 49.7683 257.535 49.8523 257.353 49.955C257.176 50.0577 257.031 50.1907 256.919 50.354C256.812 50.5127 256.758 50.711 256.758 50.949C256.758 51.1543 256.809 51.3503 256.912 51.537C257.019 51.7237 257.183 51.8753 257.402 51.992C257.626 52.1087 257.918 52.167 258.277 52.167ZM263.807 53V45.44H265.053V48.625H269.029V45.44H270.275V53H269.029V49.808H265.053V53H263.807ZM278.424 45.44V53H277.22V47.428L273.258 53H272.229V45.44H273.433V50.935L277.402 45.44H278.424ZM283.66 53.21C282.918 53.21 282.27 53.0467 281.714 52.72C281.164 52.3887 280.734 51.929 280.426 51.341C280.118 50.7483 279.964 50.0577 279.964 49.269C279.964 48.443 280.116 47.729 280.419 47.127C280.723 46.5203 281.145 46.0537 281.686 45.727C282.232 45.3957 282.872 45.23 283.604 45.23C284.365 45.23 285.011 45.405 285.543 45.755C286.08 46.105 286.481 46.6043 286.747 47.253C287.018 47.9017 287.135 48.674 287.097 49.57H285.837V49.122C285.823 48.1933 285.634 47.5003 285.27 47.043C284.906 46.581 284.365 46.35 283.646 46.35C282.876 46.35 282.291 46.5973 281.889 47.092C281.488 47.5867 281.287 48.296 281.287 49.22C281.287 50.1113 281.488 50.802 281.889 51.292C282.291 51.782 282.862 52.027 283.604 52.027C284.104 52.027 284.538 51.9127 284.906 51.684C285.275 51.4553 285.564 51.1263 285.774 50.697L286.971 51.11C286.677 51.7773 286.234 52.2953 285.641 52.664C285.053 53.028 284.393 53.21 283.66 53.21ZM280.867 49.57V48.569H286.453V49.57H280.867ZM192.973 67V59.44H194.219V62.625H198.195V59.44H199.441V67H198.195V63.808H194.219V67H192.973ZM203.551 67.21C202.986 67.21 202.513 67.1073 202.13 66.902C201.752 66.692 201.465 66.4167 201.269 66.076C201.078 65.7353 200.982 65.362 200.982 64.956C200.982 64.5593 201.057 64.2163 201.206 63.927C201.36 63.633 201.575 63.3903 201.85 63.199C202.125 63.003 202.454 62.849 202.837 62.737C203.196 62.639 203.598 62.555 204.041 62.485C204.489 62.4103 204.942 62.3427 205.399 62.282C205.856 62.2213 206.283 62.163 206.68 62.107L206.232 62.366C206.246 61.694 206.111 61.197 205.826 60.875C205.546 60.553 205.061 60.392 204.37 60.392C203.913 60.392 203.511 60.497 203.166 60.707C202.825 60.9123 202.585 61.2483 202.445 61.715L201.262 61.358C201.444 60.6953 201.796 60.175 202.319 59.797C202.842 59.419 203.53 59.23 204.384 59.23C205.07 59.23 205.658 59.3537 206.148 59.601C206.643 59.8437 206.997 60.2123 207.212 60.707C207.319 60.9403 207.387 61.1947 207.415 61.47C207.443 61.7407 207.457 62.0253 207.457 62.324V67H206.351V65.187L206.61 65.355C206.325 65.9663 205.926 66.4283 205.413 66.741C204.904 67.0537 204.284 67.21 203.551 67.21ZM203.74 66.167C204.188 66.167 204.575 66.0877 204.902 65.929C205.233 65.7657 205.499 65.5533 205.7 65.292C205.901 65.026 206.031 64.7367 206.092 64.424C206.162 64.1907 206.199 63.9317 206.204 63.647C206.213 63.3577 206.218 63.136 206.218 62.982L206.652 63.171C206.246 63.227 205.847 63.2807 205.455 63.332C205.063 63.3833 204.692 63.4393 204.342 63.5C203.992 63.556 203.677 63.6237 203.397 63.703C203.192 63.7683 202.998 63.8523 202.816 63.955C202.639 64.0577 202.494 64.1907 202.382 64.354C202.275 64.5127 202.221 64.711 202.221 64.949C202.221 65.1543 202.272 65.3503 202.375 65.537C202.482 65.7237 202.646 65.8753 202.865 65.992C203.089 66.1087 203.381 66.167 203.74 66.167ZM212.073 67V59.44H215.293C215.484 59.44 215.689 59.4517 215.909 59.475C216.133 59.4937 216.336 59.5287 216.518 59.58C216.924 59.6873 217.257 59.909 217.519 60.245C217.785 60.5763 217.918 60.9963 217.918 61.505C217.918 61.7897 217.873 62.037 217.785 62.247C217.701 62.457 217.579 62.639 217.421 62.793C217.351 62.863 217.274 62.926 217.19 62.982C217.106 63.038 217.022 63.0823 216.938 63.115C217.101 63.143 217.267 63.206 217.435 63.304C217.701 63.4487 217.908 63.6517 218.058 63.913C218.212 64.1743 218.289 64.508 218.289 64.914C218.289 65.4273 218.165 65.852 217.918 66.188C217.67 66.5193 217.33 66.748 216.896 66.874C216.714 66.9253 216.513 66.9603 216.294 66.979C216.074 66.993 215.862 67 215.657 67H212.073ZM213.333 65.985H215.587C215.685 65.985 215.801 65.9757 215.937 65.957C216.077 65.9383 216.2 65.915 216.308 65.887C216.55 65.817 216.725 65.6863 216.833 65.495C216.945 65.3037 217.001 65.096 217.001 64.872C217.001 64.5733 216.917 64.3307 216.749 64.144C216.585 63.9573 216.368 63.8407 216.098 63.794C216 63.766 215.892 63.7497 215.776 63.745C215.664 63.7403 215.563 63.738 215.475 63.738H213.333V65.985ZM213.333 62.709H215.209C215.339 62.709 215.477 62.702 215.622 62.688C215.766 62.6693 215.892 62.639 216 62.597C216.214 62.5177 216.371 62.387 216.469 62.205C216.571 62.0183 216.623 61.8153 216.623 61.596C216.623 61.3533 216.567 61.141 216.455 60.959C216.347 60.7723 216.182 60.644 215.958 60.574C215.808 60.518 215.64 60.4877 215.454 60.483C215.272 60.4737 215.155 60.469 215.104 60.469H213.333V62.709ZM222.88 67.21C222.115 67.21 221.464 67.0397 220.927 66.699C220.395 66.3537 219.989 65.88 219.709 65.278C219.429 64.676 219.284 63.99 219.275 63.22C219.284 62.4313 219.431 61.7383 219.716 61.141C220.005 60.539 220.418 60.07 220.955 59.734C221.492 59.398 222.138 59.23 222.894 59.23C223.692 59.23 224.378 59.426 224.952 59.818C225.531 60.21 225.918 60.7467 226.114 61.428L224.882 61.799C224.723 61.3603 224.464 61.0197 224.105 60.777C223.75 60.5343 223.342 60.413 222.88 60.413C222.362 60.413 221.935 60.5343 221.599 60.777C221.263 61.015 221.013 61.3463 220.85 61.771C220.687 62.191 220.603 62.674 220.598 63.22C220.607 64.06 220.801 64.739 221.179 65.257C221.562 65.7703 222.129 66.027 222.88 66.027C223.375 66.027 223.785 65.915 224.112 65.691C224.439 65.4623 224.686 65.1333 224.854 64.704L226.114 65.033C225.853 65.7377 225.444 66.2767 224.889 66.65C224.334 67.0233 223.664 67.21 222.88 67.21ZM230.819 67.21C230.077 67.21 229.428 67.0467 228.873 66.72C228.322 66.3887 227.893 65.929 227.585 65.341C227.277 64.7483 227.123 64.0577 227.123 63.269C227.123 62.443 227.274 61.729 227.578 61.127C227.881 60.5203 228.303 60.0537 228.845 59.727C229.391 59.3957 230.03 59.23 230.763 59.23C231.523 59.23 232.17 59.405 232.702 59.755C233.238 60.105 233.64 60.6043 233.906 61.253C234.176 61.9017 234.293 62.674 234.256 63.57H232.996V63.122C232.982 62.1933 232.793 61.5003 232.429 61.043C232.065 60.581 231.523 60.35 230.805 60.35C230.035 60.35 229.449 60.5973 229.048 61.092C228.646 61.5867 228.446 62.296 228.446 63.22C228.446 64.1113 228.646 64.802 229.048 65.292C229.449 65.782 230.021 66.027 230.763 66.027C231.262 66.027 231.696 65.9127 232.065 65.684C232.433 65.4553 232.723 65.1263 232.933 64.697L234.13 65.11C233.836 65.7773 233.392 66.2953 232.8 66.664C232.212 67.028 231.551 67.21 230.819 67.21ZM228.026 63.57V62.569H233.612V63.57H228.026ZM234.701 67L237.592 63.178L234.764 59.44H236.248L238.32 62.212L240.371 59.44H241.855L239.027 63.178L241.925 67H240.434L238.32 64.144L236.192 67H234.701ZM248.572 67.21C247.793 67.21 247.125 67.0233 246.57 66.65C246.015 66.2767 245.602 65.7377 245.331 65.033L246.591 64.704C246.764 65.1333 247.013 65.4623 247.34 65.691C247.671 65.915 248.08 66.027 248.565 66.027C249.242 66.027 249.767 65.8193 250.14 65.404C250.513 64.984 250.735 64.4263 250.805 63.731H247.711V62.702H250.805C250.74 62.0253 250.525 61.4747 250.161 61.05C249.797 60.6253 249.274 60.413 248.593 60.413C248.122 60.413 247.706 60.532 247.347 60.77C246.992 61.008 246.731 61.351 246.563 61.799L245.331 61.428C245.532 60.7467 245.921 60.21 246.5 59.818C247.079 59.426 247.772 59.23 248.579 59.23C249.326 59.23 249.967 59.398 250.504 59.734C251.041 60.07 251.451 60.539 251.736 61.141C252.025 61.743 252.17 62.4383 252.17 63.227C252.17 64.011 252.028 64.7017 251.743 65.299C251.458 65.8963 251.048 66.3653 250.511 66.706C249.974 67.042 249.328 67.21 248.572 67.21ZM255.548 67V60.574H252.916V59.44H259.426V60.574H256.794V67H255.548ZM262.654 67.21C262.09 67.21 261.616 67.1073 261.233 66.902C260.855 66.692 260.568 66.4167 260.372 66.076C260.181 65.7353 260.085 65.362 260.085 64.956C260.085 64.5593 260.16 64.2163 260.309 63.927C260.463 63.633 260.678 63.3903 260.953 63.199C261.229 63.003 261.558 62.849 261.94 62.737C262.3 62.639 262.701 62.555 263.144 62.485C263.592 62.4103 264.045 62.3427 264.502 62.282C264.96 62.2213 265.387 62.163 265.783 62.107L265.335 62.366C265.349 61.694 265.214 61.197 264.929 60.875C264.649 60.553 264.164 60.392 263.473 60.392C263.016 60.392 262.615 60.497 262.269 60.707C261.929 60.9123 261.688 61.2483 261.548 61.715L260.365 61.358C260.547 60.6953 260.9 60.175 261.422 59.797C261.945 59.419 262.633 59.23 263.487 59.23C264.173 59.23 264.761 59.3537 265.251 59.601C265.746 59.8437 266.101 60.2123 266.315 60.707C266.423 60.9403 266.49 61.1947 266.518 61.47C266.546 61.7407 266.56 62.0253 266.56 62.324V67H265.454V65.187L265.713 65.355C265.429 65.9663 265.03 66.4283 264.516 66.741C264.008 67.0537 263.387 67.21 262.654 67.21ZM262.843 66.167C263.291 66.167 263.679 66.0877 264.005 65.929C264.337 65.7657 264.603 65.5533 264.803 65.292C265.004 65.026 265.135 64.7367 265.195 64.424C265.265 64.1907 265.303 63.9317 265.307 63.647C265.317 63.3577 265.321 63.136 265.321 62.982L265.755 63.171C265.349 63.227 264.95 63.2807 264.558 63.332C264.166 63.3833 263.795 63.4393 263.445 63.5C263.095 63.556 262.78 63.6237 262.5 63.703C262.295 63.7683 262.101 63.8523 261.919 63.955C261.742 64.0577 261.597 64.1907 261.485 64.354C261.378 64.5127 261.324 64.711 261.324 64.949C261.324 65.1543 261.376 65.3503 261.478 65.537C261.586 65.7237 261.749 65.8753 261.968 65.992C262.192 66.1087 262.484 66.167 262.843 66.167ZM268.373 67V59.44H274.568V67H273.322V60.623H269.619V67H268.373ZM278.678 67.21C278.113 67.21 277.639 67.1073 277.257 66.902C276.879 66.692 276.592 66.4167 276.396 66.076C276.204 65.7353 276.109 65.362 276.109 64.956C276.109 64.5593 276.183 64.2163 276.333 63.927C276.487 63.633 276.701 63.3903 276.977 63.199C277.252 63.003 277.581 62.849 277.964 62.737C278.323 62.639 278.724 62.555 279.168 62.485C279.616 62.4103 280.068 62.3427 280.526 62.282C280.983 62.2213 281.41 62.163 281.807 62.107L281.359 62.366C281.373 61.694 281.237 61.197 280.953 60.875C280.673 60.553 280.187 60.392 279.497 60.392C279.039 60.392 278.638 60.497 278.293 60.707C277.952 60.9123 277.712 61.2483 277.572 61.715L276.389 61.358C276.571 60.6953 276.923 60.175 277.446 59.797C277.968 59.419 278.657 59.23 279.511 59.23C280.197 59.23 280.785 59.3537 281.275 59.601C281.769 59.8437 282.124 60.2123 282.339 60.707C282.446 60.9403 282.514 61.1947 282.542 61.47C282.57 61.7407 282.584 62.0253 282.584 62.324V67H281.478V65.187L281.737 65.355C281.452 65.9663 281.053 66.4283 280.54 66.741C280.031 67.0537 279.41 67.21 278.678 67.21ZM278.867 66.167C279.315 66.167 279.702 66.0877 280.029 65.929C280.36 65.7657 280.626 65.5533 280.827 65.292C281.027 65.026 281.158 64.7367 281.219 64.424C281.289 64.1907 281.326 63.9317 281.331 63.647C281.34 63.3577 281.345 63.136 281.345 62.982L281.779 63.171C281.373 63.227 280.974 63.2807 280.582 63.332C280.19 63.3833 279.819 63.4393 279.469 63.5C279.119 63.556 278.804 63.6237 278.524 63.703C278.318 63.7683 278.125 63.8523 277.943 63.955C277.765 64.0577 277.621 64.1907 277.509 64.354C277.401 64.5127 277.348 64.711 277.348 64.949C277.348 65.1543 277.399 65.3503 277.502 65.537C277.609 65.7237 277.772 65.8753 277.992 65.992C278.216 66.1087 278.507 66.167 278.867 66.167ZM283.564 67L286.455 63.178L283.627 59.44H285.111L287.183 62.212L289.234 59.44H290.718L287.89 63.178L290.788 67H289.297L287.183 64.144L285.055 67H283.564ZM196.452 81.21C195.743 81.21 195.145 81.035 194.66 80.685C194.175 80.3303 193.806 79.852 193.554 79.25C193.307 78.6433 193.183 77.9643 193.183 77.213C193.183 76.4523 193.307 75.771 193.554 75.169C193.806 74.567 194.175 74.0933 194.66 73.748C195.15 73.4027 195.75 73.23 196.459 73.23C197.159 73.23 197.761 73.405 198.265 73.755C198.774 74.1003 199.163 74.574 199.434 75.176C199.705 75.778 199.84 76.457 199.84 77.213C199.84 77.969 199.705 78.648 199.434 79.25C199.163 79.852 198.774 80.3303 198.265 80.685C197.761 81.035 197.157 81.21 196.452 81.21ZM192.973 84.36V73.44H194.086V79.005H194.226V84.36H192.973ZM196.298 80.069C196.797 80.069 197.21 79.943 197.537 79.691C197.864 79.439 198.109 79.0983 198.272 78.669C198.435 78.235 198.517 77.7497 198.517 77.213C198.517 76.681 198.435 76.2003 198.272 75.771C198.113 75.3417 197.866 75.001 197.53 74.749C197.199 74.497 196.776 74.371 196.263 74.371C195.773 74.371 195.367 74.4923 195.045 74.735C194.723 74.973 194.483 75.3067 194.324 75.736C194.165 76.1607 194.086 76.653 194.086 77.213C194.086 77.7637 194.163 78.256 194.317 78.69C194.476 79.1193 194.718 79.4577 195.045 79.705C195.372 79.9477 195.789 80.069 196.298 80.069ZM203.524 81.21C202.959 81.21 202.485 81.1073 202.103 80.902C201.725 80.692 201.438 80.4167 201.242 80.076C201.05 79.7353 200.955 79.362 200.955 78.956C200.955 78.5593 201.029 78.2163 201.179 77.927C201.333 77.633 201.547 77.3903 201.823 77.199C202.098 77.003 202.427 76.849 202.81 76.737C203.169 76.639 203.57 76.555 204.014 76.485C204.462 76.4103 204.914 76.3427 205.372 76.282C205.829 76.2213 206.256 76.163 206.653 76.107L206.205 76.366C206.219 75.694 206.083 75.197 205.799 74.875C205.519 74.553 205.033 74.392 204.343 74.392C203.885 74.392 203.484 74.497 203.139 74.707C202.798 74.9123 202.558 75.2483 202.418 75.715L201.235 75.358C201.417 74.6953 201.769 74.175 202.292 73.797C202.814 73.419 203.503 73.23 204.357 73.23C205.043 73.23 205.631 73.3537 206.121 73.601C206.615 73.8437 206.97 74.2123 207.185 74.707C207.292 74.9403 207.36 75.1947 207.388 75.47C207.416 75.7407 207.43 76.0253 207.43 76.324V81H206.324V79.187L206.583 79.355C206.298 79.9663 205.899 80.4283 205.386 80.741C204.877 81.0537 204.256 81.21 203.524 81.21ZM203.713 80.167C204.161 80.167 204.548 80.0877 204.875 79.929C205.206 79.7657 205.472 79.5533 205.673 79.292C205.873 79.026 206.004 78.7367 206.065 78.424C206.135 78.1907 206.172 77.9317 206.177 77.647C206.186 77.3577 206.191 77.136 206.191 76.982L206.625 77.171C206.219 77.227 205.82 77.2807 205.428 77.332C205.036 77.3833 204.665 77.4393 204.315 77.5C203.965 77.556 203.65 77.6237 203.37 77.703C203.164 77.7683 202.971 77.8523 202.789 77.955C202.611 78.0577 202.467 78.1907 202.355 78.354C202.247 78.5127 202.194 78.711 202.194 78.949C202.194 79.1543 202.245 79.3503 202.348 79.537C202.455 79.7237 202.618 79.8753 202.838 79.992C203.062 80.1087 203.353 80.167 203.713 80.167ZM211.959 81.21C211.212 81.21 210.552 81.049 209.978 80.727C209.404 80.4003 208.951 79.9523 208.62 79.383L209.614 78.739C209.889 79.1543 210.218 79.474 210.601 79.698C210.983 79.9173 211.42 80.027 211.91 80.027C212.423 80.027 212.831 79.9103 213.135 79.677C213.438 79.439 213.59 79.1193 213.59 78.718C213.59 78.4193 213.515 78.1907 213.366 78.032C213.216 77.8733 213.002 77.7637 212.722 77.703C212.442 77.6423 212.108 77.612 211.721 77.612H210.937V76.583H211.714C212.204 76.583 212.603 76.5037 212.911 76.345C213.219 76.1863 213.373 75.9157 213.373 75.533C213.373 75.141 213.228 74.8563 212.939 74.679C212.654 74.497 212.313 74.406 211.917 74.406C211.497 74.406 211.095 74.4947 210.713 74.672C210.33 74.8447 210.001 75.064 209.726 75.33L208.97 74.483C209.362 74.0817 209.812 73.7737 210.321 73.559C210.834 73.3397 211.392 73.23 211.994 73.23C212.479 73.23 212.922 73.3163 213.324 73.489C213.73 73.657 214.052 73.9067 214.29 74.238C214.532 74.5647 214.654 74.9637 214.654 75.435C214.654 75.8363 214.56 76.1933 214.374 76.506C214.187 76.8187 213.912 77.0917 213.548 77.325L213.499 76.884C213.807 76.9587 214.061 77.0963 214.262 77.297C214.467 77.493 214.619 77.7263 214.717 77.997C214.815 78.2677 214.864 78.55 214.864 78.844C214.864 79.3387 214.733 79.7633 214.472 80.118C214.215 80.468 213.867 80.7387 213.429 80.93C212.99 81.1167 212.5 81.21 211.959 81.21ZM219.872 81.21C219.163 81.21 218.565 81.035 218.08 80.685C217.595 80.3303 217.226 79.852 216.974 79.25C216.727 78.6433 216.603 77.9643 216.603 77.213C216.603 76.4523 216.727 75.771 216.974 75.169C217.226 74.567 217.595 74.0933 218.08 73.748C218.57 73.4027 219.17 73.23 219.879 73.23C220.579 73.23 221.181 73.405 221.685 73.755C222.194 74.1003 222.583 74.574 222.854 75.176C223.125 75.778 223.26 76.457 223.26 77.213C223.26 77.969 223.125 78.648 222.854 79.25C222.583 79.852 222.194 80.3303 221.685 80.685C221.181 81.035 220.577 81.21 219.872 81.21ZM216.393 84.36V73.44H217.506V79.005H217.646V84.36H216.393ZM219.718 80.069C220.217 80.069 220.63 79.943 220.957 79.691C221.284 79.439 221.529 79.0983 221.692 78.669C221.855 78.235 221.937 77.7497 221.937 77.213C221.937 76.681 221.855 76.2003 221.692 75.771C221.533 75.3417 221.286 75.001 220.95 74.749C220.619 74.497 220.196 74.371 219.683 74.371C219.193 74.371 218.787 74.4923 218.465 74.735C218.143 74.973 217.903 75.3067 217.744 75.736C217.585 76.1607 217.506 76.653 217.506 77.213C217.506 77.7637 217.583 78.256 217.737 78.69C217.896 79.1193 218.138 79.4577 218.465 79.705C218.792 79.9477 219.209 80.069 219.718 80.069ZM226.943 81.21C226.379 81.21 225.905 81.1073 225.522 80.902C225.144 80.692 224.857 80.4167 224.661 80.076C224.47 79.7353 224.374 79.362 224.374 78.956C224.374 78.5593 224.449 78.2163 224.598 77.927C224.752 77.633 224.967 77.3903 225.242 77.199C225.518 77.003 225.847 76.849 226.229 76.737C226.589 76.639 226.99 76.555 227.433 76.485C227.881 76.4103 228.334 76.3427 228.791 76.282C229.249 76.2213 229.676 76.163 230.072 76.107L229.624 76.366C229.638 75.694 229.503 75.197 229.218 74.875C228.938 74.553 228.453 74.392 227.762 74.392C227.305 74.392 226.904 74.497 226.558 74.707C226.218 74.9123 225.977 75.2483 225.837 75.715L224.654 75.358C224.836 74.6953 225.189 74.175 225.711 73.797C226.234 73.419 226.922 73.23 227.776 73.23C228.462 73.23 229.05 73.3537 229.54 73.601C230.035 73.8437 230.39 74.2123 230.604 74.707C230.712 74.9403 230.779 75.1947 230.807 75.47C230.835 75.7407 230.849 76.0253 230.849 76.324V81H229.743V79.187L230.002 79.355C229.718 79.9663 229.319 80.4283 228.805 80.741C228.297 81.0537 227.676 81.21 226.943 81.21ZM227.132 80.167C227.58 80.167 227.968 80.0877 228.294 79.929C228.626 79.7657 228.892 79.5533 229.092 79.292C229.293 79.026 229.424 78.7367 229.484 78.424C229.554 78.1907 229.592 77.9317 229.596 77.647C229.606 77.3577 229.61 77.136 229.61 76.982L230.044 77.171C229.638 77.227 229.239 77.2807 228.847 77.332C228.455 77.3833 228.084 77.4393 227.734 77.5C227.384 77.556 227.069 77.6237 226.789 77.703C226.584 77.7683 226.39 77.8523 226.208 77.955C226.031 78.0577 225.886 78.1907 225.774 78.354C225.667 78.5127 225.613 78.711 225.613 78.949C225.613 79.1543 225.665 79.3503 225.767 79.537C225.875 79.7237 226.038 79.8753 226.257 79.992C226.481 80.1087 226.773 80.167 227.132 80.167ZM235.742 81.217C235.028 81.2123 234.419 81.0583 233.915 80.755C233.411 80.447 233.019 79.9967 232.739 79.404C232.459 78.8113 232.303 78.0857 232.27 77.227C232.252 76.8303 232.256 76.394 232.284 75.918C232.317 75.442 232.368 74.9847 232.438 74.546C232.513 74.1073 232.606 73.7457 232.718 73.461C232.844 73.1203 233.022 72.8053 233.25 72.516C233.484 72.222 233.745 71.9793 234.034 71.788C234.328 71.5873 234.657 71.431 235.021 71.319C235.385 71.207 235.766 71.1207 236.162 71.06C236.564 70.9947 236.965 70.9387 237.366 70.892C237.768 70.8407 238.15 70.78 238.514 70.71L238.64 71.83C238.384 71.886 238.08 71.935 237.73 71.977C237.38 72.0143 237.016 72.0587 236.638 72.11C236.265 72.1613 235.906 72.2337 235.56 72.327C235.22 72.4157 234.926 72.5393 234.678 72.698C234.314 72.9173 234.034 73.2463 233.838 73.685C233.647 74.119 233.53 74.6067 233.488 75.148C233.778 74.7 234.153 74.371 234.615 74.161C235.077 73.951 235.57 73.846 236.092 73.846C236.769 73.846 237.352 74.0047 237.842 74.322C238.332 74.6347 238.708 75.0663 238.969 75.617C239.235 76.1677 239.368 76.7953 239.368 77.5C239.368 78.2467 239.219 78.9 238.92 79.46C238.622 80.02 238.199 80.454 237.653 80.762C237.112 81.07 236.475 81.2217 235.742 81.217ZM235.819 80.034C236.552 80.034 237.107 79.8077 237.485 79.355C237.863 78.8977 238.052 78.291 238.052 77.535C238.052 76.7603 237.856 76.1513 237.464 75.708C237.072 75.26 236.522 75.036 235.812 75.036C235.094 75.036 234.543 75.26 234.16 75.708C233.782 76.1513 233.593 76.7603 233.593 77.535C233.593 78.3143 233.785 78.9257 234.167 79.369C234.55 79.8123 235.101 80.034 235.819 80.034ZM244.134 81.21C243.382 81.21 242.734 81.0397 242.188 80.699C241.646 80.3583 241.229 79.887 240.935 79.285C240.641 78.683 240.494 77.9923 240.494 77.213C240.494 76.4197 240.643 75.7243 240.942 75.127C241.24 74.5297 241.663 74.0653 242.209 73.734C242.755 73.398 243.396 73.23 244.134 73.23C244.89 73.23 245.541 73.4003 246.087 73.741C246.633 74.077 247.05 74.546 247.34 75.148C247.634 75.7453 247.781 76.4337 247.781 77.213C247.781 78.0017 247.634 78.697 247.34 79.299C247.046 79.8963 246.626 80.3653 246.08 80.706C245.534 81.042 244.885 81.21 244.134 81.21ZM244.134 80.027C244.918 80.027 245.501 79.7657 245.884 79.243C246.266 78.7203 246.458 78.0437 246.458 77.213C246.458 76.359 246.264 75.68 245.877 75.176C245.489 74.6673 244.908 74.413 244.134 74.413C243.606 74.413 243.172 74.532 242.832 74.77C242.491 75.008 242.237 75.337 242.069 75.757C241.901 76.177 241.817 76.6623 241.817 77.213C241.817 78.0623 242.013 78.7437 242.405 79.257C242.797 79.7703 243.373 80.027 244.134 80.027ZM251.16 81V74.574H248.528V73.44H255.038V74.574H252.406V81H251.16ZM256.356 81L256.363 73.44H257.623V77.08L260.794 73.44H262.411L259.072 77.22L262.803 81H261.06L257.623 77.36V81H256.356ZM269.688 73.44V81H268.484V75.428L264.522 81H263.493V73.44H264.697V78.935L268.666 73.44H269.688ZM274.451 81V70.92H282.319V81H281.073V72.103H275.697V81H274.451ZM288.425 81.21C287.421 81.21 286.57 80.9883 285.87 80.545C285.17 80.1017 284.635 79.4857 284.267 78.697C283.903 77.9083 283.721 76.996 283.721 75.96C283.721 74.924 283.903 74.0117 284.267 73.223C284.635 72.4343 285.17 71.8183 285.87 71.375C286.57 70.9317 287.421 70.71 288.425 70.71C289.433 70.71 290.287 70.9317 290.987 71.375C291.687 71.8183 292.219 72.4343 292.583 73.223C292.947 74.0117 293.129 74.924 293.129 75.96C293.129 76.996 292.947 77.9083 292.583 78.697C292.219 79.4857 291.687 80.1017 290.987 80.545C290.287 80.9883 289.433 81.21 288.425 81.21ZM288.425 80.02C289.176 80.0247 289.801 79.8567 290.301 79.516C290.805 79.1707 291.18 78.6923 291.428 78.081C291.68 77.4697 291.806 76.7627 291.806 75.96C291.806 75.1527 291.68 74.4457 291.428 73.839C291.18 73.2323 290.805 72.7587 290.301 72.418C289.801 72.0773 289.176 71.9047 288.425 71.9C287.673 71.8953 287.048 72.0633 286.549 72.404C286.054 72.7447 285.681 73.2207 285.429 73.832C285.177 74.4433 285.048 75.1527 285.044 75.96C285.039 76.7627 285.163 77.4673 285.415 78.074C285.667 78.6807 286.042 79.1567 286.542 79.502C287.046 79.8427 287.673 80.0153 288.425 80.02Z" fill="#000206"/>
              </svg>