<svg width="648" height="221" viewBox="0 0 648 221" fill="none" xmlns="http://www.w3.org/2000/svg">
              <path d="M474 220.5L66.9502 220.5C59.844 220.5 53.3176 216.688 49.8955 210.583L49.5742 209.984L3.0547 119.814C0.317337 114.514 0.231161 108.266 2.79786 102.897L3.0547 102.381L49.585 11.9541C52.9082 5.5012 59.6249 1.42975 66.9697 1.42965L474 1.42969C484.78 1.42969 493.5 10.0445 493.5 20.667L493.5 201.263C493.5 211.885 484.78 220.5 474 220.5Z" fill="white" stroke="#254E6C"/>
              <path d="M380.535 0.929344L627.565 0.929365C638.615 0.929366 647.565 9.7618 647.565 20.6666L647.565 201.263C647.565 212.168 638.615 221 627.565 221L380.515 221C372.995 221 366.105 216.835 362.695 210.214L316.175 120.044C313.275 114.429 313.275 107.777 316.175 102.152L362.705 11.7256C366.115 5.10377 373.005 0.929343 380.535 0.929344Z" fill="#F2F2F2"/>
              <path d="M109.4 109V94.6H115.01C115.87 94.6 116.603 94.7767 117.21 95.13C117.823 95.4833 118.29 95.95 118.61 96.53C118.937 97.1033 119.1 97.7233 119.1 98.39C119.1 99.17 118.9 99.8533 118.5 100.44C118.1 101.027 117.56 101.43 116.88 101.65L116.86 101.16C117.787 101.407 118.507 101.86 119.02 102.52C119.533 103.18 119.79 103.967 119.79 104.88C119.79 105.72 119.617 106.447 119.27 107.06C118.93 107.673 118.437 108.15 117.79 108.49C117.15 108.83 116.39 109 115.51 109H109.4ZM111.2 107.3H115.17C115.703 107.3 116.18 107.203 116.6 107.01C117.02 106.81 117.35 106.53 117.59 106.17C117.837 105.81 117.96 105.377 117.96 104.87C117.96 104.383 117.85 103.947 117.63 103.56C117.417 103.173 117.113 102.867 116.72 102.64C116.333 102.407 115.883 102.29 115.37 102.29H111.2V107.3ZM111.2 100.61H114.99C115.417 100.61 115.8 100.52 116.14 100.34C116.487 100.153 116.76 99.8933 116.96 99.56C117.167 99.2267 117.27 98.8367 117.27 98.39C117.27 97.77 117.06 97.2633 116.64 96.87C116.22 96.4767 115.67 96.28 114.99 96.28H111.2V100.61ZM121.773 109V98.2H123.553V102.75H129.233V98.2H131.013V109H129.233V104.44H123.553V109H121.773ZM138.494 109.3C137.434 109.3 136.507 109.067 135.714 108.6C134.927 108.127 134.314 107.47 133.874 106.63C133.434 105.783 133.214 104.797 133.214 103.67C133.214 102.49 133.431 101.47 133.864 100.61C134.297 99.7433 134.901 99.0767 135.674 98.61C136.454 98.1367 137.367 97.9 138.414 97.9C139.501 97.9 140.424 98.15 141.184 98.65C141.951 99.15 142.524 99.8633 142.904 100.79C143.291 101.717 143.457 102.82 143.404 104.1H141.604V103.46C141.584 102.133 141.314 101.143 140.794 100.49C140.274 99.83 139.501 99.5 138.474 99.5C137.374 99.5 136.537 99.8533 135.964 100.56C135.391 101.267 135.104 102.28 135.104 103.6C135.104 104.873 135.391 105.86 135.964 106.56C136.537 107.26 137.354 107.61 138.414 107.61C139.127 107.61 139.747 107.447 140.274 107.12C140.801 106.793 141.214 106.323 141.514 105.71L143.224 106.3C142.804 107.253 142.171 107.993 141.324 108.52C140.484 109.04 139.541 109.3 138.494 109.3ZM134.504 104.1V102.67H142.484V104.1H134.504ZM144.83 111.4V107.53C145.437 107.53 145.87 107.333 146.13 106.94C146.39 106.54 146.6 105.883 146.76 104.97C146.867 104.397 146.954 103.783 147.02 103.13C147.087 102.477 147.144 101.75 147.19 100.95C147.244 100.143 147.294 99.2267 147.34 98.2H154.78V107.53H155.83V111.4H154.13V109H146.53V111.4H144.83ZM147.57 107.53H153V99.67H148.95C148.93 100.143 148.904 100.64 148.87 101.16C148.837 101.673 148.797 102.187 148.75 102.7C148.71 103.213 148.66 103.7 148.6 104.16C148.547 104.613 148.484 105.02 148.41 105.38C148.324 105.88 148.224 106.303 148.11 106.65C147.997 106.997 147.817 107.29 147.57 107.53ZM162.798 109.3C161.784 109.3 160.931 109.05 160.238 108.55C159.544 108.043 159.018 107.36 158.658 106.5C158.304 105.633 158.128 104.663 158.128 103.59C158.128 102.503 158.304 101.53 158.658 100.67C159.018 99.81 159.544 99.1333 160.238 98.64C160.938 98.1467 161.794 97.9 162.808 97.9C163.808 97.9 164.668 98.15 165.388 98.65C166.114 99.1433 166.671 99.82 167.058 100.68C167.444 101.54 167.638 102.51 167.638 103.59C167.638 104.67 167.444 105.64 167.058 106.5C166.671 107.36 166.114 108.043 165.388 108.55C164.668 109.05 163.804 109.3 162.798 109.3ZM157.828 113.8V98.2H159.418V106.15H159.618V113.8H157.828ZM162.578 107.67C163.291 107.67 163.881 107.49 164.348 107.13C164.814 106.77 165.164 106.283 165.398 105.67C165.631 105.05 165.748 104.357 165.748 103.59C165.748 102.83 165.631 102.143 165.398 101.53C165.171 100.917 164.818 100.43 164.338 100.07C163.864 99.71 163.261 99.53 162.528 99.53C161.828 99.53 161.248 99.7033 160.788 100.05C160.328 100.39 159.984 100.867 159.758 101.48C159.531 102.087 159.418 102.79 159.418 103.59C159.418 104.377 159.528 105.08 159.748 105.7C159.974 106.313 160.321 106.797 160.788 107.15C161.254 107.497 161.851 107.67 162.578 107.67ZM174.51 109.3C173.45 109.3 172.523 109.067 171.73 108.6C170.943 108.127 170.33 107.47 169.89 106.63C169.45 105.783 169.23 104.797 169.23 103.67C169.23 102.49 169.446 101.47 169.88 100.61C170.313 99.7433 170.916 99.0767 171.69 98.61C172.47 98.1367 173.383 97.9 174.43 97.9C175.516 97.9 176.44 98.15 177.2 98.65C177.966 99.15 178.54 99.8633 178.92 100.79C179.306 101.717 179.473 102.82 179.42 104.1H177.62V103.46C177.6 102.133 177.33 101.143 176.81 100.49C176.29 99.83 175.516 99.5 174.49 99.5C173.39 99.5 172.553 99.8533 171.98 100.56C171.406 101.267 171.12 102.28 171.12 103.6C171.12 104.873 171.406 105.86 171.98 106.56C172.553 107.26 173.37 107.61 174.43 107.61C175.143 107.61 175.763 107.447 176.29 107.12C176.816 106.793 177.23 106.323 177.53 105.71L179.24 106.3C178.82 107.253 178.186 107.993 177.34 108.52C176.5 109.04 175.556 109.3 174.51 109.3ZM170.52 104.1V102.67H178.5V104.1H170.52ZM181.636 109V98.2H183.416V102.75H189.096V98.2H190.876V109H189.096V104.44H183.416V109H181.636ZM202.517 98.2V109H200.797V101.04L195.137 109H193.667V98.2H195.387V106.05L201.057 98.2H202.517ZM209.998 109.3C208.938 109.3 208.011 109.067 207.218 108.6C206.431 108.127 205.818 107.47 205.378 106.63C204.938 105.783 204.718 104.797 204.718 103.67C204.718 102.49 204.935 101.47 205.368 100.61C205.801 99.7433 206.405 99.0767 207.178 98.61C207.958 98.1367 208.871 97.9 209.918 97.9C211.005 97.9 211.928 98.15 212.688 98.65C213.455 99.15 214.028 99.8633 214.408 100.79C214.795 101.717 214.961 102.82 214.908 104.1H213.108V103.46C213.088 102.133 212.818 101.143 212.298 100.49C211.778 99.83 211.005 99.5 209.978 99.5C208.878 99.5 208.041 99.8533 207.468 100.56C206.895 101.267 206.608 102.28 206.608 103.6C206.608 104.873 206.895 105.86 207.468 106.56C208.041 107.26 208.858 107.61 209.918 107.61C210.631 107.61 211.251 107.447 211.778 107.12C212.305 106.793 212.718 106.323 213.018 105.71L214.728 106.3C214.308 107.253 213.675 107.993 212.828 108.52C211.988 109.04 211.045 109.3 209.998 109.3ZM206.008 104.1V102.67H213.988V104.1H206.008ZM113.95 129.3C112.857 129.3 111.927 129.057 111.16 128.57C110.4 128.077 109.82 127.4 109.42 126.54C109.02 125.68 108.813 124.7 108.8 123.6C108.813 122.473 109.023 121.483 109.43 120.63C109.843 119.77 110.433 119.1 111.2 118.62C111.967 118.14 112.89 117.9 113.97 117.9C115.11 117.9 116.09 118.18 116.91 118.74C117.737 119.3 118.29 120.067 118.57 121.04L116.81 121.57C116.583 120.943 116.213 120.457 115.7 120.11C115.193 119.763 114.61 119.59 113.95 119.59C113.21 119.59 112.6 119.763 112.12 120.11C111.64 120.45 111.283 120.923 111.05 121.53C110.817 122.13 110.697 122.82 110.69 123.6C110.703 124.8 110.98 125.77 111.52 126.51C112.067 127.243 112.877 127.61 113.95 127.61C114.657 127.61 115.243 127.45 115.71 127.13C116.177 126.803 116.53 126.333 116.77 125.72L118.57 126.19C118.197 127.197 117.613 127.967 116.82 128.5C116.027 129.033 115.07 129.3 113.95 129.3ZM124.918 129.3C123.845 129.3 122.918 129.057 122.138 128.57C121.365 128.083 120.768 127.41 120.348 126.55C119.928 125.69 119.718 124.703 119.718 123.59C119.718 122.457 119.931 121.463 120.358 120.61C120.785 119.757 121.388 119.093 122.168 118.62C122.948 118.14 123.865 117.9 124.918 117.9C125.998 117.9 126.928 118.143 127.708 118.63C128.488 119.11 129.085 119.78 129.498 120.64C129.918 121.493 130.128 122.477 130.128 123.59C130.128 124.717 129.918 125.71 129.498 126.57C129.078 127.423 128.478 128.093 127.698 128.58C126.918 129.06 125.991 129.3 124.918 129.3ZM124.918 127.61C126.038 127.61 126.871 127.237 127.418 126.49C127.965 125.743 128.238 124.777 128.238 123.59C128.238 122.37 127.961 121.4 127.408 120.68C126.855 119.953 126.025 119.59 124.918 119.59C124.165 119.59 123.545 119.76 123.058 120.1C122.571 120.44 122.208 120.91 121.968 121.51C121.728 122.11 121.608 122.803 121.608 123.59C121.608 124.803 121.888 125.777 122.448 126.51C123.008 127.243 123.831 127.61 124.918 127.61ZM135.946 129.3C134.879 129.3 133.936 129.07 133.116 128.61C132.296 128.143 131.649 127.503 131.176 126.69L132.596 125.77C132.989 126.363 133.459 126.82 134.006 127.14C134.552 127.453 135.176 127.61 135.876 127.61C136.609 127.61 137.192 127.443 137.626 127.11C138.059 126.77 138.276 126.313 138.276 125.74C138.276 125.313 138.169 124.987 137.956 124.76C137.742 124.533 137.436 124.377 137.036 124.29C136.636 124.203 136.159 124.16 135.606 124.16H134.486V122.69H135.596C136.296 122.69 136.866 122.577 137.306 122.35C137.746 122.123 137.966 121.737 137.966 121.19C137.966 120.63 137.759 120.223 137.346 119.97C136.939 119.71 136.452 119.58 135.886 119.58C135.286 119.58 134.712 119.707 134.166 119.96C133.619 120.207 133.149 120.52 132.756 120.9L131.676 119.69C132.236 119.117 132.879 118.677 133.606 118.37C134.339 118.057 135.136 117.9 135.996 117.9C136.689 117.9 137.322 118.023 137.896 118.27C138.476 118.51 138.936 118.867 139.276 119.34C139.622 119.807 139.796 120.377 139.796 121.05C139.796 121.623 139.662 122.133 139.396 122.58C139.129 123.027 138.736 123.417 138.216 123.75L138.146 123.12C138.586 123.227 138.949 123.423 139.236 123.71C139.529 123.99 139.746 124.323 139.886 124.71C140.026 125.097 140.096 125.5 140.096 125.92C140.096 126.627 139.909 127.233 139.536 127.74C139.169 128.24 138.672 128.627 138.046 128.9C137.419 129.167 136.719 129.3 135.946 129.3ZM141.491 131.4V127.53C142.097 127.53 142.531 127.333 142.791 126.94C143.051 126.54 143.261 125.883 143.421 124.97C143.527 124.397 143.614 123.783 143.681 123.13C143.747 122.477 143.804 121.75 143.851 120.95C143.904 120.143 143.954 119.227 144.001 118.2H151.441V127.53H152.491V131.4H150.791V129H143.191V131.4H141.491ZM144.231 127.53H149.661V119.67H145.611C145.591 120.143 145.564 120.64 145.531 121.16C145.497 121.673 145.457 122.187 145.411 122.7C145.371 123.213 145.321 123.7 145.261 124.16C145.207 124.613 145.144 125.02 145.071 125.38C144.984 125.88 144.884 126.303 144.771 126.65C144.657 126.997 144.477 127.29 144.231 127.53ZM157.568 129.3C156.761 129.3 156.084 129.153 155.538 128.86C154.998 128.56 154.588 128.167 154.308 127.68C154.034 127.193 153.898 126.66 153.898 126.08C153.898 125.513 154.004 125.023 154.218 124.61C154.438 124.19 154.744 123.843 155.138 123.57C155.531 123.29 156.001 123.07 156.548 122.91C157.061 122.77 157.634 122.65 158.268 122.55C158.908 122.443 159.554 122.347 160.208 122.26C160.861 122.173 161.471 122.09 162.038 122.01L161.398 122.38C161.418 121.42 161.224 120.71 160.818 120.25C160.418 119.79 159.724 119.56 158.738 119.56C158.084 119.56 157.511 119.71 157.018 120.01C156.531 120.303 156.188 120.783 155.988 121.45L154.298 120.94C154.558 119.993 155.061 119.25 155.808 118.71C156.554 118.17 157.538 117.9 158.758 117.9C159.738 117.9 160.578 118.077 161.278 118.43C161.984 118.777 162.491 119.303 162.798 120.01C162.951 120.343 163.048 120.707 163.088 121.1C163.128 121.487 163.148 121.893 163.148 122.32V129H161.568V126.41L161.938 126.65C161.531 127.523 160.961 128.183 160.228 128.63C159.501 129.077 158.614 129.3 157.568 129.3ZM157.838 127.81C158.478 127.81 159.031 127.697 159.498 127.47C159.971 127.237 160.351 126.933 160.638 126.56C160.924 126.18 161.111 125.767 161.198 125.32C161.298 124.987 161.351 124.617 161.358 124.21C161.371 123.797 161.378 123.48 161.378 123.26L161.998 123.53C161.418 123.61 160.848 123.687 160.288 123.76C159.728 123.833 159.198 123.913 158.698 124C158.198 124.08 157.748 124.177 157.348 124.29C157.054 124.383 156.778 124.503 156.518 124.65C156.264 124.797 156.058 124.987 155.898 125.22C155.744 125.447 155.668 125.73 155.668 126.07C155.668 126.363 155.741 126.643 155.888 126.91C156.041 127.177 156.274 127.393 156.588 127.56C156.908 127.727 157.324 127.81 157.838 127.81ZM165.738 129V118.2H167.518V122.75H173.198V118.2H174.978V129H173.198V124.44H167.518V129H165.738ZM177.769 129V118.2H179.549V122.75H185.229V118.2H187.009V129H185.229V124.44H179.549V129H177.769ZM194.41 129.3C193.337 129.3 192.41 129.057 191.63 128.57C190.857 128.083 190.26 127.41 189.84 126.55C189.42 125.69 189.21 124.703 189.21 123.59C189.21 122.457 189.423 121.463 189.85 120.61C190.277 119.757 190.88 119.093 191.66 118.62C192.44 118.14 193.357 117.9 194.41 117.9C195.49 117.9 196.42 118.143 197.2 118.63C197.98 119.11 198.577 119.78 198.99 120.64C199.41 121.493 199.62 122.477 199.62 123.59C199.62 124.717 199.41 125.71 198.99 126.57C198.57 127.423 197.97 128.093 197.19 128.58C196.41 129.06 195.483 129.3 194.41 129.3ZM194.41 127.61C195.53 127.61 196.363 127.237 196.91 126.49C197.457 125.743 197.73 124.777 197.73 123.59C197.73 122.37 197.453 121.4 196.9 120.68C196.347 119.953 195.517 119.59 194.41 119.59C193.657 119.59 193.037 119.76 192.55 120.1C192.063 120.44 191.7 120.91 191.46 121.51C191.22 122.11 191.1 122.803 191.1 123.59C191.1 124.803 191.38 125.777 191.94 126.51C192.5 127.243 193.323 127.61 194.41 127.61ZM201.822 129V118.2H209.322V119.89H203.602V129H201.822ZM215.621 129.3C214.548 129.3 213.621 129.057 212.841 128.57C212.068 128.083 211.471 127.41 211.051 126.55C210.631 125.69 210.421 124.703 210.421 123.59C210.421 122.457 210.634 121.463 211.061 120.61C211.488 119.757 212.091 119.093 212.871 118.62C213.651 118.14 214.568 117.9 215.621 117.9C216.701 117.9 217.631 118.143 218.411 118.63C219.191 119.11 219.788 119.78 220.201 120.64C220.621 121.493 220.831 122.477 220.831 123.59C220.831 124.717 220.621 125.71 220.201 126.57C219.781 127.423 219.181 128.093 218.401 128.58C217.621 129.06 216.694 129.3 215.621 129.3ZM215.621 127.61C216.741 127.61 217.574 127.237 218.121 126.49C218.668 125.743 218.941 124.777 218.941 123.59C218.941 122.37 218.664 121.4 218.111 120.68C217.558 119.953 216.728 119.59 215.621 119.59C214.868 119.59 214.248 119.76 213.761 120.1C213.274 120.44 212.911 120.91 212.671 121.51C212.431 122.11 212.311 122.803 212.311 123.59C212.311 124.803 212.591 125.777 213.151 126.51C213.711 127.243 214.534 127.61 215.621 127.61ZM227.037 129V114.6H238.277V129H236.497V116.29H228.817V129H227.037ZM247 129.3C245.566 129.3 244.35 128.983 243.35 128.35C242.35 127.717 241.586 126.837 241.06 125.71C240.54 124.583 240.28 123.28 240.28 121.8C240.28 120.32 240.54 119.017 241.06 117.89C241.586 116.763 242.35 115.883 243.35 115.25C244.35 114.617 245.566 114.3 247 114.3C248.44 114.3 249.66 114.617 250.66 115.25C251.66 115.883 252.42 116.763 252.94 117.89C253.46 119.017 253.72 120.32 253.72 121.8C253.72 123.28 253.46 124.583 252.94 125.71C252.42 126.837 251.66 127.717 250.66 128.35C249.66 128.983 248.44 129.3 247 129.3ZM247 127.6C248.073 127.607 248.966 127.367 249.68 126.88C250.4 126.387 250.936 125.703 251.29 124.83C251.65 123.957 251.83 122.947 251.83 121.8C251.83 120.647 251.65 119.637 251.29 118.77C250.936 117.903 250.4 117.227 249.68 116.74C248.966 116.253 248.073 116.007 247 116C245.926 115.993 245.033 116.233 244.32 116.72C243.613 117.207 243.08 117.887 242.72 118.76C242.36 119.633 242.176 120.647 242.17 121.8C242.163 122.947 242.34 123.953 242.7 124.82C243.06 125.687 243.596 126.367 244.31 126.86C245.03 127.347 245.926 127.593 247 127.6Z" fill="#000206"/>
              <path d="M418.4 89V74.6H420.18V81.36L426.48 74.6H428.72L422.18 81.59L429.23 89H426.93L420.18 81.96V89H418.4ZM434.426 89.3C433.352 89.3 432.426 89.0567 431.646 88.57C430.872 88.0833 430.276 87.41 429.856 86.55C429.436 85.69 429.226 84.7033 429.226 83.59C429.226 82.4567 429.439 81.4633 429.866 80.61C430.292 79.7567 430.896 79.0933 431.676 78.62C432.456 78.14 433.372 77.9 434.426 77.9C435.506 77.9 436.436 78.1433 437.216 78.63C437.996 79.11 438.592 79.78 439.006 80.64C439.426 81.4933 439.636 82.4767 439.636 83.59C439.636 84.7167 439.426 85.71 439.006 86.57C438.586 87.4233 437.986 88.0933 437.206 88.58C436.426 89.06 435.499 89.3 434.426 89.3ZM434.426 87.61C435.546 87.61 436.379 87.2367 436.926 86.49C437.472 85.7433 437.746 84.7767 437.746 83.59C437.746 82.37 437.469 81.4 436.916 80.68C436.362 79.9533 435.532 79.59 434.426 79.59C433.672 79.59 433.052 79.76 432.566 80.1C432.079 80.44 431.716 80.91 431.476 81.51C431.236 82.11 431.116 82.8033 431.116 83.59C431.116 84.8033 431.396 85.7767 431.956 86.51C432.516 87.2433 433.339 87.61 434.426 87.61ZM441.828 89V78.2H443.358L447.458 86.58L451.558 78.2H453.088V89H451.368V81.91L447.928 89H446.988L443.548 81.91V89H441.828ZM455.87 89V78.2H464.72V89H462.94V79.89H457.65V89H455.87ZM466.521 89V87.47C466.921 87.5433 467.224 87.53 467.431 87.43C467.644 87.3233 467.801 87.14 467.901 86.88C468.008 86.6133 468.094 86.28 468.161 85.88C468.274 85.2467 468.371 84.54 468.451 83.76C468.538 82.98 468.614 82.1267 468.681 81.2C468.754 80.2667 468.821 79.2667 468.881 78.2H476.431V89H474.651V79.89H470.501C470.461 80.5033 470.411 81.1333 470.351 81.78C470.298 82.4267 470.241 83.0567 470.181 83.67C470.121 84.2767 470.054 84.8433 469.981 85.37C469.914 85.89 469.841 86.34 469.761 86.72C469.634 87.3733 469.458 87.8967 469.231 88.29C469.004 88.6767 468.678 88.9267 468.251 89.04C467.824 89.16 467.248 89.1467 466.521 89ZM483.92 89.3C482.86 89.3 481.933 89.0667 481.14 88.6C480.353 88.1267 479.74 87.47 479.3 86.63C478.86 85.7833 478.64 84.7967 478.64 83.67C478.64 82.49 478.857 81.47 479.29 80.61C479.723 79.7433 480.327 79.0767 481.1 78.61C481.88 78.1367 482.793 77.9 483.84 77.9C484.927 77.9 485.85 78.15 486.61 78.65C487.377 79.15 487.95 79.8633 488.33 80.79C488.717 81.7167 488.883 82.82 488.83 84.1H487.03V83.46C487.01 82.1333 486.74 81.1433 486.22 80.49C485.7 79.83 484.927 79.5 483.9 79.5C482.8 79.5 481.963 79.8533 481.39 80.56C480.817 81.2667 480.53 82.28 480.53 83.6C480.53 84.8733 480.817 85.86 481.39 86.56C481.963 87.26 482.78 87.61 483.84 87.61C484.553 87.61 485.173 87.4467 485.7 87.12C486.227 86.7933 486.64 86.3233 486.94 85.71L488.65 86.3C488.23 87.2533 487.597 87.9933 486.75 88.52C485.91 89.04 484.967 89.3 483.92 89.3ZM479.93 84.1V82.67H487.91V84.1H479.93ZM491.046 89L491.056 78.2H492.856V83.4L497.386 78.2H499.696L494.926 83.6L500.256 89H497.766L492.856 83.8V89H491.046ZM505.606 89.3C504.513 89.3 503.583 89.0567 502.816 88.57C502.056 88.0767 501.476 87.4 501.076 86.54C500.676 85.68 500.47 84.7 500.456 83.6C500.47 82.4733 500.68 81.4833 501.086 80.63C501.5 79.77 502.09 79.1 502.856 78.62C503.623 78.14 504.546 77.9 505.626 77.9C506.766 77.9 507.746 78.18 508.566 78.74C509.393 79.3 509.946 80.0667 510.226 81.04L508.466 81.57C508.24 80.9433 507.87 80.4567 507.356 80.11C506.85 79.7633 506.266 79.59 505.606 79.59C504.866 79.59 504.256 79.7633 503.776 80.11C503.296 80.45 502.94 80.9233 502.706 81.53C502.473 82.13 502.353 82.82 502.346 83.6C502.36 84.8 502.636 85.77 503.176 86.51C503.723 87.2433 504.533 87.61 505.606 87.61C506.313 87.61 506.9 87.45 507.366 87.13C507.833 86.8033 508.186 86.3333 508.426 85.72L510.226 86.19C509.853 87.1967 509.27 87.9667 508.476 88.5C507.683 89.0333 506.726 89.3 505.606 89.3ZM512.257 89V78.2H514.037V82.75H519.717V78.2H521.497V89H519.717V84.44H514.037V89H512.257ZM528.898 89.3C527.825 89.3 526.898 89.0567 526.118 88.57C525.345 88.0833 524.748 87.41 524.328 86.55C523.908 85.69 523.698 84.7033 523.698 83.59C523.698 82.4567 523.912 81.4633 524.338 80.61C524.765 79.7567 525.368 79.0933 526.148 78.62C526.928 78.14 527.845 77.9 528.898 77.9C529.978 77.9 530.908 78.1433 531.688 78.63C532.468 79.11 533.065 79.78 533.478 80.64C533.898 81.4933 534.108 82.4767 534.108 83.59C534.108 84.7167 533.898 85.71 533.478 86.57C533.058 87.4233 532.458 88.0933 531.678 88.58C530.898 89.06 529.972 89.3 528.898 89.3ZM528.898 87.61C530.018 87.61 530.852 87.2367 531.398 86.49C531.945 85.7433 532.218 84.7767 532.218 83.59C532.218 82.37 531.942 81.4 531.388 80.68C530.835 79.9533 530.005 79.59 528.898 79.59C528.145 79.59 527.525 79.76 527.038 80.1C526.552 80.44 526.188 80.91 525.948 81.51C525.708 82.11 525.588 82.8033 525.588 83.59C525.588 84.8033 525.868 85.7767 526.428 86.51C526.988 87.2433 527.812 87.61 528.898 87.61ZM540.99 89.3C539.93 89.3 539.003 89.0667 538.21 88.6C537.423 88.1267 536.81 87.47 536.37 86.63C535.93 85.7833 535.71 84.7967 535.71 83.67C535.71 82.49 535.927 81.47 536.36 80.61C536.793 79.7433 537.397 79.0767 538.17 78.61C538.95 78.1367 539.863 77.9 540.91 77.9C541.997 77.9 542.92 78.15 543.68 78.65C544.447 79.15 545.02 79.8633 545.4 80.79C545.787 81.7167 545.953 82.82 545.9 84.1H544.1V83.46C544.08 82.1333 543.81 81.1433 543.29 80.49C542.77 79.83 541.997 79.5 540.97 79.5C539.87 79.5 539.033 79.8533 538.46 80.56C537.887 81.2667 537.6 82.28 537.6 83.6C537.6 84.8733 537.887 85.86 538.46 86.56C539.033 87.26 539.85 87.61 540.91 87.61C541.623 87.61 542.243 87.4467 542.77 87.12C543.297 86.7933 543.71 86.3233 544.01 85.71L545.72 86.3C545.3 87.2533 544.667 87.9933 543.82 88.52C542.98 89.04 542.037 89.3 540.99 89.3ZM537 84.1V82.67H544.98V84.1H537ZM421.26 109V99.82H417.5V98.2H426.8V99.82H423.04V109H421.26ZM433.373 109.3C432.313 109.3 431.386 109.067 430.593 108.6C429.806 108.127 429.193 107.47 428.753 106.63C428.313 105.783 428.093 104.797 428.093 103.67C428.093 102.49 428.31 101.47 428.743 100.61C429.176 99.7433 429.78 99.0767 430.553 98.61C431.333 98.1367 432.246 97.9 433.293 97.9C434.38 97.9 435.303 98.15 436.063 98.65C436.83 99.15 437.403 99.8633 437.783 100.79C438.17 101.717 438.336 102.82 438.283 104.1H436.483V103.46C436.463 102.133 436.193 101.143 435.673 100.49C435.153 99.83 434.38 99.5 433.353 99.5C432.253 99.5 431.416 99.8533 430.843 100.56C430.27 101.267 429.983 102.28 429.983 103.6C429.983 104.873 430.27 105.86 430.843 106.56C431.416 107.26 432.233 107.61 433.293 107.61C434.006 107.61 434.626 107.447 435.153 107.12C435.68 106.793 436.093 106.323 436.393 105.71L438.103 106.3C437.683 107.253 437.05 107.993 436.203 108.52C435.363 109.04 434.42 109.3 433.373 109.3ZM429.383 104.1V102.67H437.363V104.1H429.383ZM445.059 109.3C443.966 109.3 443.036 109.057 442.269 108.57C441.509 108.077 440.929 107.4 440.529 106.54C440.129 105.68 439.923 104.7 439.909 103.6C439.923 102.473 440.133 101.483 440.539 100.63C440.953 99.77 441.543 99.1 442.309 98.62C443.076 98.14 443.999 97.9 445.079 97.9C446.219 97.9 447.199 98.18 448.019 98.74C448.846 99.3 449.399 100.067 449.679 101.04L447.919 101.57C447.693 100.943 447.323 100.457 446.809 100.11C446.303 99.7633 445.719 99.59 445.059 99.59C444.319 99.59 443.709 99.7633 443.229 100.11C442.749 100.45 442.393 100.923 442.159 101.53C441.926 102.13 441.806 102.82 441.799 103.6C441.813 104.8 442.089 105.77 442.629 106.51C443.176 107.243 443.986 107.61 445.059 107.61C445.766 107.61 446.353 107.45 446.819 107.13C447.286 106.803 447.639 106.333 447.879 105.72L449.679 106.19C449.306 107.197 448.723 107.967 447.929 108.5C447.136 109.033 446.179 109.3 445.059 109.3ZM454.385 109V99.82H450.625V98.2H459.925V99.82H456.165V109H454.385ZM470.658 98.2V109H468.938V101.04L463.278 109H461.808V98.2H463.528V106.05L469.198 98.2H470.658ZM478.419 109.3C477.405 109.3 476.552 109.05 475.859 108.55C475.165 108.043 474.639 107.36 474.279 106.5C473.925 105.633 473.749 104.663 473.749 103.59C473.749 102.503 473.925 101.53 474.279 100.67C474.639 99.81 475.165 99.1333 475.859 98.64C476.559 98.1467 477.415 97.9 478.429 97.9C479.429 97.9 480.289 98.15 481.009 98.65C481.735 99.1433 482.292 99.82 482.679 100.68C483.065 101.54 483.259 102.51 483.259 103.59C483.259 104.67 483.065 105.64 482.679 106.5C482.292 107.36 481.735 108.043 481.009 108.55C480.289 109.05 479.425 109.3 478.419 109.3ZM473.449 113.8V98.2H475.039V106.15H475.239V113.8H473.449ZM478.199 107.67C478.912 107.67 479.502 107.49 479.969 107.13C480.435 106.77 480.785 106.283 481.019 105.67C481.252 105.05 481.369 104.357 481.369 103.59C481.369 102.83 481.252 102.143 481.019 101.53C480.792 100.917 480.439 100.43 479.959 100.07C479.485 99.71 478.882 99.53 478.149 99.53C477.449 99.53 476.869 99.7033 476.409 100.05C475.949 100.39 475.605 100.867 475.379 101.48C475.152 102.087 475.039 102.79 475.039 103.59C475.039 104.377 475.149 105.08 475.369 105.7C475.595 106.313 475.942 106.797 476.409 107.15C476.875 107.497 477.472 107.67 478.199 107.67ZM490.051 109.3C488.977 109.3 488.051 109.057 487.271 108.57C486.497 108.083 485.901 107.41 485.481 106.55C485.061 105.69 484.851 104.703 484.851 103.59C484.851 102.457 485.064 101.463 485.491 100.61C485.917 99.7567 486.521 99.0933 487.301 98.62C488.081 98.14 488.997 97.9 490.051 97.9C491.131 97.9 492.061 98.1433 492.841 98.63C493.621 99.11 494.217 99.78 494.631 100.64C495.051 101.493 495.261 102.477 495.261 103.59C495.261 104.717 495.051 105.71 494.631 106.57C494.211 107.423 493.611 108.093 492.831 108.58C492.051 109.06 491.124 109.3 490.051 109.3ZM490.051 107.61C491.171 107.61 492.004 107.237 492.551 106.49C493.097 105.743 493.371 104.777 493.371 103.59C493.371 102.37 493.094 101.4 492.541 100.68C491.987 99.9533 491.157 99.59 490.051 99.59C489.297 99.59 488.677 99.76 488.191 100.1C487.704 100.44 487.341 100.91 487.101 101.51C486.861 102.11 486.741 102.803 486.741 103.59C486.741 104.803 487.021 105.777 487.581 106.51C488.141 107.243 488.964 107.61 490.051 107.61ZM497.453 109V98.2H502.053C502.326 98.2 502.619 98.2167 502.933 98.25C503.253 98.2767 503.543 98.3267 503.803 98.4C504.383 98.5533 504.859 98.87 505.233 99.35C505.613 99.8233 505.803 100.423 505.803 101.15C505.803 101.557 505.739 101.91 505.613 102.21C505.493 102.51 505.319 102.77 505.093 102.99C504.993 103.09 504.883 103.18 504.763 103.26C504.643 103.34 504.523 103.403 504.403 103.45C504.636 103.49 504.873 103.58 505.113 103.72C505.493 103.927 505.789 104.217 506.003 104.59C506.223 104.963 506.333 105.44 506.333 106.02C506.333 106.753 506.156 107.36 505.803 107.84C505.449 108.313 504.963 108.64 504.343 108.82C504.083 108.893 503.796 108.943 503.483 108.97C503.169 108.99 502.866 109 502.573 109H497.453ZM499.253 107.55H502.473C502.613 107.55 502.779 107.537 502.973 107.51C503.173 107.483 503.349 107.45 503.503 107.41C503.849 107.31 504.099 107.123 504.253 106.85C504.413 106.577 504.493 106.28 504.493 105.96C504.493 105.533 504.373 105.187 504.133 104.92C503.899 104.653 503.589 104.487 503.203 104.42C503.063 104.38 502.909 104.357 502.743 104.35C502.583 104.343 502.439 104.34 502.312 104.34H499.253V107.55ZM499.253 102.87H501.933C502.119 102.87 502.316 102.86 502.523 102.84C502.729 102.813 502.909 102.77 503.063 102.71C503.369 102.597 503.593 102.41 503.733 102.15C503.879 101.883 503.953 101.593 503.953 101.28C503.953 100.933 503.873 100.63 503.713 100.37C503.559 100.103 503.323 99.92 503.003 99.82C502.789 99.74 502.549 99.6967 502.283 99.69C502.023 99.6767 501.856 99.67 501.783 99.67H499.253V102.87ZM511.411 109.3C510.605 109.3 509.928 109.153 509.381 108.86C508.841 108.56 508.431 108.167 508.151 107.68C507.878 107.193 507.741 106.66 507.741 106.08C507.741 105.513 507.848 105.023 508.061 104.61C508.281 104.19 508.588 103.843 508.981 103.57C509.375 103.29 509.845 103.07 510.391 102.91C510.905 102.77 511.478 102.65 512.111 102.55C512.751 102.443 513.398 102.347 514.051 102.26C514.705 102.173 515.315 102.09 515.881 102.01L515.241 102.38C515.261 101.42 515.068 100.71 514.661 100.25C514.261 99.79 513.568 99.56 512.581 99.56C511.928 99.56 511.355 99.71 510.861 100.01C510.375 100.303 510.031 100.783 509.831 101.45L508.141 100.94C508.401 99.9933 508.905 99.25 509.651 98.71C510.398 98.17 511.381 97.9 512.601 97.9C513.581 97.9 514.421 98.0767 515.121 98.43C515.828 98.7767 516.335 99.3033 516.641 100.01C516.795 100.343 516.891 100.707 516.931 101.1C516.971 101.487 516.991 101.893 516.991 102.32V109H515.411V106.41L515.781 106.65C515.375 107.523 514.805 108.183 514.071 108.63C513.345 109.077 512.458 109.3 511.411 109.3ZM511.681 107.81C512.321 107.81 512.875 107.697 513.341 107.47C513.815 107.237 514.195 106.933 514.481 106.56C514.768 106.18 514.955 105.767 515.041 105.32C515.141 104.987 515.195 104.617 515.201 104.21C515.215 103.797 515.221 103.48 515.221 103.26L515.841 103.53C515.261 103.61 514.691 103.687 514.131 103.76C513.571 103.833 513.041 103.913 512.541 104C512.041 104.08 511.591 104.177 511.191 104.29C510.898 104.383 510.621 104.503 510.361 104.65C510.108 104.797 509.901 104.987 509.741 105.22C509.588 105.447 509.511 105.73 509.511 106.07C509.511 106.363 509.585 106.643 509.731 106.91C509.885 107.177 510.118 107.393 510.431 107.56C510.751 107.727 511.168 107.81 511.681 107.81ZM519.581 109V98.2H521.361V102.75H527.041V98.2H528.821V109H527.041V104.44H521.361V109H519.581ZM540.463 98.2V109H538.743V101.04L533.083 109H531.613V98.2H533.333V106.05L539.003 98.2H540.463ZM547.943 109.3C546.883 109.3 545.957 109.067 545.163 108.6C544.377 108.127 543.763 107.47 543.323 106.63C542.883 105.783 542.663 104.797 542.663 103.67C542.663 102.49 542.88 101.47 543.313 100.61C543.747 99.7433 544.35 99.0767 545.123 98.61C545.903 98.1367 546.817 97.9 547.863 97.9C548.95 97.9 549.873 98.15 550.633 98.65C551.4 99.15 551.973 99.8633 552.353 100.79C552.74 101.717 552.907 102.82 552.853 104.1H551.053V103.46C551.033 102.133 550.763 101.143 550.243 100.49C549.723 99.83 548.95 99.5 547.923 99.5C546.823 99.5 545.987 99.8533 545.413 100.56C544.84 101.267 544.553 102.28 544.553 103.6C544.553 104.873 544.84 105.86 545.413 106.56C545.987 107.26 546.803 107.61 547.863 107.61C548.577 107.61 549.197 107.447 549.723 107.12C550.25 106.793 550.663 106.323 550.963 105.71L552.673 106.3C552.253 107.253 551.62 107.993 550.773 108.52C549.933 109.04 548.99 109.3 547.943 109.3ZM543.953 104.1V102.67H551.933V104.1H543.953ZM418.39 129V118.2H420.17V122.75H425.85V118.2H427.63V129H425.85V124.44H420.17V129H418.39ZM433.501 129.3C432.695 129.3 432.018 129.153 431.471 128.86C430.931 128.56 430.521 128.167 430.241 127.68C429.968 127.193 429.831 126.66 429.831 126.08C429.831 125.513 429.938 125.023 430.151 124.61C430.371 124.19 430.678 123.843 431.071 123.57C431.465 123.29 431.935 123.07 432.481 122.91C432.995 122.77 433.568 122.65 434.201 122.55C434.841 122.443 435.488 122.347 436.141 122.26C436.795 122.173 437.405 122.09 437.971 122.01L437.331 122.38C437.351 121.42 437.158 120.71 436.751 120.25C436.351 119.79 435.658 119.56 434.671 119.56C434.018 119.56 433.445 119.71 432.951 120.01C432.465 120.303 432.121 120.783 431.921 121.45L430.231 120.94C430.491 119.993 430.995 119.25 431.741 118.71C432.488 118.17 433.471 117.9 434.691 117.9C435.671 117.9 436.511 118.077 437.211 118.43C437.918 118.777 438.425 119.303 438.731 120.01C438.885 120.343 438.981 120.707 439.021 121.1C439.061 121.487 439.081 121.893 439.081 122.32V129H437.501V126.41L437.871 126.65C437.465 127.523 436.895 128.183 436.161 128.63C435.435 129.077 434.548 129.3 433.501 129.3ZM433.771 127.81C434.411 127.81 434.965 127.697 435.431 127.47C435.905 127.237 436.285 126.933 436.571 126.56C436.858 126.18 437.045 125.767 437.131 125.32C437.231 124.987 437.285 124.617 437.291 124.21C437.305 123.797 437.311 123.48 437.311 123.26L437.931 123.53C437.351 123.61 436.781 123.687 436.221 123.76C435.661 123.833 435.131 123.913 434.631 124C434.131 124.08 433.681 124.177 433.281 124.29C432.988 124.383 432.711 124.503 432.451 124.65C432.198 124.797 431.991 124.987 431.831 125.22C431.678 125.447 431.601 125.73 431.601 126.07C431.601 126.363 431.675 126.643 431.821 126.91C431.975 127.177 432.208 127.393 432.521 127.56C432.841 127.727 433.258 127.81 433.771 127.81ZM445.675 129V118.2H450.275C450.548 118.2 450.842 118.217 451.155 118.25C451.475 118.277 451.765 118.327 452.025 118.4C452.605 118.553 453.082 118.87 453.455 119.35C453.835 119.823 454.025 120.423 454.025 121.15C454.025 121.557 453.962 121.91 453.835 122.21C453.715 122.51 453.542 122.77 453.315 122.99C453.215 123.09 453.105 123.18 452.985 123.26C452.865 123.34 452.745 123.403 452.625 123.45C452.858 123.49 453.095 123.58 453.335 123.72C453.715 123.927 454.012 124.217 454.225 124.59C454.445 124.963 454.555 125.44 454.555 126.02C454.555 126.753 454.378 127.36 454.025 127.84C453.672 128.313 453.185 128.64 452.565 128.82C452.305 128.893 452.018 128.943 451.705 128.97C451.392 128.99 451.088 129 450.795 129H445.675ZM447.475 127.55H450.695C450.835 127.55 451.002 127.537 451.195 127.51C451.395 127.483 451.572 127.45 451.725 127.41C452.072 127.31 452.322 127.123 452.475 126.85C452.635 126.577 452.715 126.28 452.715 125.96C452.715 125.533 452.595 125.187 452.355 124.92C452.122 124.653 451.812 124.487 451.425 124.42C451.285 124.38 451.132 124.357 450.965 124.35C450.805 124.343 450.662 124.34 450.535 124.34H447.475V127.55ZM447.475 122.87H450.155C450.342 122.87 450.538 122.86 450.745 122.84C450.952 122.813 451.132 122.77 451.285 122.71C451.592 122.597 451.815 122.41 451.955 122.15C452.102 121.883 452.175 121.593 452.175 121.28C452.175 120.933 452.095 120.63 451.935 120.37C451.782 120.103 451.545 119.92 451.225 119.82C451.012 119.74 450.772 119.697 450.505 119.69C450.245 119.677 450.078 119.67 450.005 119.67H447.475V122.87ZM461.114 129.3C460.021 129.3 459.091 129.057 458.324 128.57C457.564 128.077 456.984 127.4 456.584 126.54C456.184 125.68 455.977 124.7 455.964 123.6C455.977 122.473 456.187 121.483 456.594 120.63C457.007 119.77 457.597 119.1 458.364 118.62C459.131 118.14 460.054 117.9 461.134 117.9C462.274 117.9 463.254 118.18 464.074 118.74C464.901 119.3 465.454 120.067 465.734 121.04L463.974 121.57C463.747 120.943 463.377 120.457 462.864 120.11C462.357 119.763 461.774 119.59 461.114 119.59C460.374 119.59 459.764 119.763 459.284 120.11C458.804 120.45 458.447 120.923 458.214 121.53C457.981 122.13 457.861 122.82 457.854 123.6C457.867 124.8 458.144 125.77 458.684 126.51C459.231 127.243 460.041 127.61 461.114 127.61C461.821 127.61 462.407 127.45 462.874 127.13C463.341 126.803 463.694 126.333 463.934 125.72L465.734 126.19C465.361 127.197 464.777 127.967 463.984 128.5C463.191 129.033 462.234 129.3 461.114 129.3ZM472.455 129.3C471.395 129.3 470.468 129.067 469.675 128.6C468.888 128.127 468.275 127.47 467.835 126.63C467.395 125.783 467.175 124.797 467.175 123.67C467.175 122.49 467.392 121.47 467.825 120.61C468.258 119.743 468.862 119.077 469.635 118.61C470.415 118.137 471.328 117.9 472.375 117.9C473.462 117.9 474.385 118.15 475.145 118.65C475.912 119.15 476.485 119.863 476.865 120.79C477.252 121.717 477.418 122.82 477.365 124.1H475.565V123.46C475.545 122.133 475.275 121.143 474.755 120.49C474.235 119.83 473.462 119.5 472.435 119.5C471.335 119.5 470.498 119.853 469.925 120.56C469.352 121.267 469.065 122.28 469.065 123.6C469.065 124.873 469.352 125.86 469.925 126.56C470.498 127.26 471.315 127.61 472.375 127.61C473.088 127.61 473.708 127.447 474.235 127.12C474.762 126.793 475.175 126.323 475.475 125.71L477.185 126.3C476.765 127.253 476.132 127.993 475.285 128.52C474.445 129.04 473.502 129.3 472.455 129.3ZM468.465 124.1V122.67H476.445V124.1H468.465ZM478.001 129L482.131 123.54L478.091 118.2H480.211L483.171 122.16L486.101 118.2H488.221L484.181 123.54L488.321 129H486.191L483.171 124.92L480.131 129H478.001ZM497.817 129.3C496.704 129.3 495.751 129.033 494.957 128.5C494.164 127.967 493.574 127.197 493.187 126.19L494.987 125.72C495.234 126.333 495.591 126.803 496.057 127.13C496.531 127.45 497.114 127.61 497.807 127.61C498.774 127.61 499.524 127.313 500.057 126.72C500.591 126.12 500.907 125.323 501.007 124.33H496.587V122.86H501.007C500.914 121.893 500.607 121.107 500.087 120.5C499.567 119.893 498.821 119.59 497.847 119.59C497.174 119.59 496.581 119.76 496.067 120.1C495.561 120.44 495.187 120.93 494.947 121.57L493.187 121.04C493.474 120.067 494.031 119.3 494.857 118.74C495.684 118.18 496.674 117.9 497.827 117.9C498.894 117.9 499.811 118.14 500.577 118.62C501.344 119.1 501.931 119.77 502.337 120.63C502.751 121.49 502.957 122.483 502.957 123.61C502.957 124.73 502.754 125.717 502.347 126.57C501.941 127.423 501.354 128.093 500.587 128.58C499.821 129.06 498.897 129.3 497.817 129.3ZM507.783 129V119.82H504.023V118.2H513.323V119.82H509.563V129H507.783ZM517.935 129.3C517.128 129.3 516.452 129.153 515.905 128.86C515.365 128.56 514.955 128.167 514.675 127.68C514.402 127.193 514.265 126.66 514.265 126.08C514.265 125.513 514.372 125.023 514.585 124.61C514.805 124.19 515.112 123.843 515.505 123.57C515.898 123.29 516.368 123.07 516.915 122.91C517.428 122.77 518.002 122.65 518.635 122.55C519.275 122.443 519.922 122.347 520.575 122.26C521.228 122.173 521.838 122.09 522.405 122.01L521.765 122.38C521.785 121.42 521.592 120.71 521.185 120.25C520.785 119.79 520.092 119.56 519.105 119.56C518.452 119.56 517.878 119.71 517.385 120.01C516.898 120.303 516.555 120.783 516.355 121.45L514.665 120.94C514.925 119.993 515.428 119.25 516.175 118.71C516.922 118.17 517.905 117.9 519.125 117.9C520.105 117.9 520.945 118.077 521.645 118.43C522.352 118.777 522.858 119.303 523.165 120.01C523.318 120.343 523.415 120.707 523.455 121.1C523.495 121.487 523.515 121.893 523.515 122.32V129H521.935V126.41L522.305 126.65C521.898 127.523 521.328 128.183 520.595 128.63C519.868 129.077 518.982 129.3 517.935 129.3ZM518.205 127.81C518.845 127.81 519.398 127.697 519.865 127.47C520.338 127.237 520.718 126.933 521.005 126.56C521.292 126.18 521.478 125.767 521.565 125.32C521.665 124.987 521.718 124.617 521.725 124.21C521.738 123.797 521.745 123.48 521.745 123.26L522.365 123.53C521.785 123.61 521.215 123.687 520.655 123.76C520.095 123.833 519.565 123.913 519.065 124C518.565 124.08 518.115 124.177 517.715 124.29C517.422 124.383 517.145 124.503 516.885 124.65C516.632 124.797 516.425 124.987 516.265 125.22C516.112 125.447 516.035 125.73 516.035 126.07C516.035 126.363 516.108 126.643 516.255 126.91C516.408 127.177 516.642 127.393 516.955 127.56C517.275 127.727 517.692 127.81 518.205 127.81ZM526.105 129V118.2H534.955V129H533.175V119.89H527.885V129H526.105ZM540.825 129.3C540.019 129.3 539.342 129.153 538.795 128.86C538.255 128.56 537.845 128.167 537.565 127.68C537.292 127.193 537.155 126.66 537.155 126.08C537.155 125.513 537.262 125.023 537.475 124.61C537.695 124.19 538.002 123.843 538.395 123.57C538.789 123.29 539.259 123.07 539.805 122.91C540.319 122.77 540.892 122.65 541.525 122.55C542.165 122.443 542.812 122.347 543.465 122.26C544.119 122.173 544.729 122.09 545.295 122.01L544.655 122.38C544.675 121.42 544.482 120.71 544.075 120.25C543.675 119.79 542.982 119.56 541.995 119.56C541.342 119.56 540.769 119.71 540.275 120.01C539.789 120.303 539.445 120.783 539.245 121.45L537.555 120.94C537.815 119.993 538.319 119.25 539.065 118.71C539.812 118.17 540.795 117.9 542.015 117.9C542.995 117.9 543.835 118.077 544.535 118.43C545.242 118.777 545.749 119.303 546.055 120.01C546.209 120.343 546.305 120.707 546.345 121.1C546.385 121.487 546.405 121.893 546.405 122.32V129H544.825V126.41L545.195 126.65C544.789 127.523 544.219 128.183 543.485 128.63C542.759 129.077 541.872 129.3 540.825 129.3ZM541.095 127.81C541.735 127.81 542.289 127.697 542.755 127.47C543.229 127.237 543.609 126.933 543.895 126.56C544.182 126.18 544.369 125.767 544.455 125.32C544.555 124.987 544.609 124.617 544.615 124.21C544.629 123.797 544.635 123.48 544.635 123.26L545.255 123.53C544.675 123.61 544.105 123.687 543.545 123.76C542.985 123.833 542.455 123.913 541.955 124C541.455 124.08 541.005 124.177 540.605 124.29C540.312 124.383 540.035 124.503 539.775 124.65C539.522 124.797 539.315 124.987 539.155 125.22C539.002 125.447 538.925 125.73 538.925 126.07C538.925 126.363 538.999 126.643 539.145 126.91C539.299 127.177 539.532 127.393 539.845 127.56C540.165 127.727 540.582 127.81 541.095 127.81ZM547.805 129L551.935 123.54L547.895 118.2H550.015L552.975 122.16L555.905 118.2H558.025L553.985 123.54L558.125 129H555.995L552.975 124.92L549.935 129H547.805ZM423.36 149.3C422.347 149.3 421.493 149.05 420.8 148.55C420.107 148.043 419.58 147.36 419.22 146.5C418.867 145.633 418.69 144.663 418.69 143.59C418.69 142.503 418.867 141.53 419.22 140.67C419.58 139.81 420.107 139.133 420.8 138.64C421.5 138.147 422.357 137.9 423.37 137.9C424.37 137.9 425.23 138.15 425.95 138.65C426.677 139.143 427.233 139.82 427.62 140.68C428.007 141.54 428.2 142.51 428.2 143.59C428.2 144.67 428.007 145.64 427.62 146.5C427.233 147.36 426.677 148.043 425.95 148.55C425.23 149.05 424.367 149.3 423.36 149.3ZM418.39 153.8V138.2H419.98V146.15H420.18V153.8H418.39ZM423.14 147.67C423.853 147.67 424.443 147.49 424.91 147.13C425.377 146.77 425.727 146.283 425.96 145.67C426.193 145.05 426.31 144.357 426.31 143.59C426.31 142.83 426.193 142.143 425.96 141.53C425.733 140.917 425.38 140.43 424.9 140.07C424.427 139.71 423.823 139.53 423.09 139.53C422.39 139.53 421.81 139.703 421.35 140.05C420.89 140.39 420.547 140.867 420.32 141.48C420.093 142.087 419.98 142.79 419.98 143.59C419.98 144.377 420.09 145.08 420.31 145.7C420.537 146.313 420.883 146.797 421.35 147.15C421.817 147.497 422.413 147.67 423.14 147.67ZM433.462 149.3C432.656 149.3 431.979 149.153 431.432 148.86C430.892 148.56 430.482 148.167 430.202 147.68C429.929 147.193 429.792 146.66 429.792 146.08C429.792 145.513 429.899 145.023 430.112 144.61C430.332 144.19 430.639 143.843 431.032 143.57C431.426 143.29 431.896 143.07 432.442 142.91C432.956 142.77 433.529 142.65 434.162 142.55C434.802 142.443 435.449 142.347 436.102 142.26C436.756 142.173 437.366 142.09 437.932 142.01L437.292 142.38C437.312 141.42 437.119 140.71 436.712 140.25C436.312 139.79 435.619 139.56 434.632 139.56C433.979 139.56 433.406 139.71 432.912 140.01C432.426 140.303 432.082 140.783 431.882 141.45L430.192 140.94C430.452 139.993 430.956 139.25 431.702 138.71C432.449 138.17 433.432 137.9 434.652 137.9C435.632 137.9 436.472 138.077 437.172 138.43C437.879 138.777 438.386 139.303 438.692 140.01C438.846 140.343 438.942 140.707 438.982 141.1C439.022 141.487 439.042 141.893 439.042 142.32V149H437.462V146.41L437.832 146.65C437.426 147.523 436.856 148.183 436.122 148.63C435.396 149.077 434.509 149.3 433.462 149.3ZM433.732 147.81C434.372 147.81 434.926 147.697 435.392 147.47C435.866 147.237 436.246 146.933 436.532 146.56C436.819 146.18 437.006 145.767 437.092 145.32C437.192 144.987 437.246 144.617 437.252 144.21C437.266 143.797 437.272 143.48 437.272 143.26L437.892 143.53C437.312 143.61 436.742 143.687 436.182 143.76C435.622 143.833 435.092 143.913 434.592 144C434.092 144.08 433.642 144.177 433.242 144.29C432.949 144.383 432.672 144.503 432.412 144.65C432.159 144.797 431.952 144.987 431.792 145.22C431.639 145.447 431.562 145.73 431.562 146.07C431.562 146.363 431.636 146.643 431.782 146.91C431.936 147.177 432.169 147.393 432.482 147.56C432.802 147.727 433.219 147.81 433.732 147.81ZM445.512 149.3C444.446 149.3 443.502 149.07 442.682 148.61C441.862 148.143 441.216 147.503 440.742 146.69L442.162 145.77C442.556 146.363 443.026 146.82 443.572 147.14C444.119 147.453 444.742 147.61 445.442 147.61C446.176 147.61 446.759 147.443 447.192 147.11C447.626 146.77 447.842 146.313 447.842 145.74C447.842 145.313 447.736 144.987 447.522 144.76C447.309 144.533 447.002 144.377 446.602 144.29C446.202 144.203 445.726 144.16 445.172 144.16H444.052V142.69H445.162C445.862 142.69 446.432 142.577 446.872 142.35C447.312 142.123 447.532 141.737 447.532 141.19C447.532 140.63 447.326 140.223 446.912 139.97C446.506 139.71 446.019 139.58 445.452 139.58C444.852 139.58 444.279 139.707 443.732 139.96C443.186 140.207 442.716 140.52 442.322 140.9L441.242 139.69C441.802 139.117 442.446 138.677 443.172 138.37C443.906 138.057 444.702 137.9 445.562 137.9C446.256 137.9 446.889 138.023 447.462 138.27C448.042 138.51 448.502 138.867 448.842 139.34C449.189 139.807 449.362 140.377 449.362 141.05C449.362 141.623 449.229 142.133 448.962 142.58C448.696 143.027 448.302 143.417 447.782 143.75L447.712 143.12C448.152 143.227 448.516 143.423 448.802 143.71C449.096 143.99 449.312 144.323 449.452 144.71C449.592 145.097 449.662 145.5 449.662 145.92C449.662 146.627 449.476 147.233 449.102 147.74C448.736 148.24 448.239 148.627 447.612 148.9C446.986 149.167 446.286 149.3 445.512 149.3ZM456.817 149.3C455.804 149.3 454.95 149.05 454.257 148.55C453.564 148.043 453.037 147.36 452.677 146.5C452.324 145.633 452.147 144.663 452.147 143.59C452.147 142.503 452.324 141.53 452.677 140.67C453.037 139.81 453.564 139.133 454.257 138.64C454.957 138.147 455.814 137.9 456.827 137.9C457.827 137.9 458.687 138.15 459.407 138.65C460.134 139.143 460.69 139.82 461.077 140.68C461.464 141.54 461.657 142.51 461.657 143.59C461.657 144.67 461.464 145.64 461.077 146.5C460.69 147.36 460.134 148.043 459.407 148.55C458.687 149.05 457.824 149.3 456.817 149.3ZM451.847 153.8V138.2H453.437V146.15H453.637V153.8H451.847ZM456.597 147.67C457.31 147.67 457.9 147.49 458.367 147.13C458.834 146.77 459.184 146.283 459.417 145.67C459.65 145.05 459.767 144.357 459.767 143.59C459.767 142.83 459.65 142.143 459.417 141.53C459.19 140.917 458.837 140.43 458.357 140.07C457.884 139.71 457.28 139.53 456.547 139.53C455.847 139.53 455.267 139.703 454.807 140.05C454.347 140.39 454.004 140.867 453.777 141.48C453.55 142.087 453.437 142.79 453.437 143.59C453.437 144.377 453.547 145.08 453.767 145.7C453.994 146.313 454.34 146.797 454.807 147.15C455.274 147.497 455.87 147.67 456.597 147.67ZM466.919 149.3C466.113 149.3 465.436 149.153 464.889 148.86C464.349 148.56 463.939 148.167 463.659 147.68C463.386 147.193 463.249 146.66 463.249 146.08C463.249 145.513 463.356 145.023 463.569 144.61C463.789 144.19 464.096 143.843 464.489 143.57C464.883 143.29 465.353 143.07 465.899 142.91C466.413 142.77 466.986 142.65 467.619 142.55C468.259 142.443 468.906 142.347 469.559 142.26C470.213 142.173 470.823 142.09 471.389 142.01L470.749 142.38C470.769 141.42 470.576 140.71 470.169 140.25C469.769 139.79 469.076 139.56 468.089 139.56C467.436 139.56 466.863 139.71 466.369 140.01C465.883 140.303 465.539 140.783 465.339 141.45L463.649 140.94C463.909 139.993 464.413 139.25 465.159 138.71C465.906 138.17 466.889 137.9 468.109 137.9C469.089 137.9 469.929 138.077 470.629 138.43C471.336 138.777 471.843 139.303 472.149 140.01C472.303 140.343 472.399 140.707 472.439 141.1C472.479 141.487 472.499 141.893 472.499 142.32V149H470.919V146.41L471.289 146.65C470.883 147.523 470.313 148.183 469.579 148.63C468.853 149.077 467.966 149.3 466.919 149.3ZM467.189 147.81C467.829 147.81 468.383 147.697 468.849 147.47C469.323 147.237 469.703 146.933 469.989 146.56C470.276 146.18 470.463 145.767 470.549 145.32C470.649 144.987 470.703 144.617 470.709 144.21C470.723 143.797 470.729 143.48 470.729 143.26L471.349 143.53C470.769 143.61 470.199 143.687 469.639 143.76C469.079 143.833 468.549 143.913 468.049 144C467.549 144.08 467.099 144.177 466.699 144.29C466.406 144.383 466.129 144.503 465.869 144.65C465.616 144.797 465.409 144.987 465.249 145.22C465.096 145.447 465.019 145.73 465.019 146.07C465.019 146.363 465.093 146.643 465.239 146.91C465.393 147.177 465.626 147.393 465.939 147.56C466.259 147.727 466.676 147.81 467.189 147.81ZM479.489 149.31C478.469 149.303 477.599 149.083 476.879 148.65C476.159 148.21 475.599 147.567 475.199 146.72C474.799 145.873 474.576 144.837 474.529 143.61C474.503 143.043 474.509 142.42 474.549 141.74C474.596 141.06 474.669 140.407 474.769 139.78C474.876 139.153 475.009 138.637 475.169 138.23C475.349 137.743 475.603 137.293 475.929 136.88C476.263 136.46 476.636 136.113 477.049 135.84C477.469 135.553 477.939 135.33 478.459 135.17C478.979 135.01 479.523 134.887 480.089 134.8C480.663 134.707 481.236 134.627 481.809 134.56C482.383 134.487 482.929 134.4 483.449 134.3L483.629 135.9C483.263 135.98 482.829 136.05 482.329 136.11C481.829 136.163 481.309 136.227 480.769 136.3C480.236 136.373 479.723 136.477 479.229 136.61C478.743 136.737 478.323 136.913 477.969 137.14C477.449 137.453 477.049 137.923 476.769 138.55C476.496 139.17 476.329 139.867 476.269 140.64C476.683 140 477.219 139.53 477.879 139.23C478.539 138.93 479.243 138.78 479.989 138.78C480.956 138.78 481.789 139.007 482.489 139.46C483.189 139.907 483.726 140.523 484.099 141.31C484.479 142.097 484.669 142.993 484.669 144C484.669 145.067 484.456 146 484.029 146.8C483.603 147.6 482.999 148.22 482.219 148.66C481.446 149.1 480.536 149.317 479.489 149.31ZM479.599 147.62C480.646 147.62 481.439 147.297 481.979 146.65C482.519 145.997 482.789 145.13 482.789 144.05C482.789 142.943 482.509 142.073 481.949 141.44C481.389 140.8 480.603 140.48 479.589 140.48C478.563 140.48 477.776 140.8 477.229 141.44C476.689 142.073 476.419 142.943 476.419 144.05C476.419 145.163 476.693 146.037 477.239 146.67C477.786 147.303 478.573 147.62 479.599 147.62ZM491.477 149.3C490.403 149.3 489.477 149.057 488.697 148.57C487.923 148.083 487.327 147.41 486.907 146.55C486.487 145.69 486.277 144.703 486.277 143.59C486.277 142.457 486.49 141.463 486.917 140.61C487.343 139.757 487.947 139.093 488.727 138.62C489.507 138.14 490.423 137.9 491.477 137.9C492.557 137.9 493.487 138.143 494.267 138.63C495.047 139.11 495.643 139.78 496.057 140.64C496.477 141.493 496.687 142.477 496.687 143.59C496.687 144.717 496.477 145.71 496.057 146.57C495.637 147.423 495.037 148.093 494.257 148.58C493.477 149.06 492.55 149.3 491.477 149.3ZM491.477 147.61C492.597 147.61 493.43 147.237 493.977 146.49C494.523 145.743 494.797 144.777 494.797 143.59C494.797 142.37 494.52 141.4 493.967 140.68C493.413 139.953 492.583 139.59 491.477 139.59C490.723 139.59 490.103 139.76 489.617 140.1C489.13 140.44 488.767 140.91 488.527 141.51C488.287 142.11 488.167 142.803 488.167 143.59C488.167 144.803 488.447 145.777 489.007 146.51C489.567 147.243 490.39 147.61 491.477 147.61ZM501.514 149V139.82H497.754V138.2H507.054V139.82H503.294V149H501.514ZM508.937 149L508.947 138.2H510.747V143.4L515.277 138.2H517.587L512.817 143.6L518.147 149H515.657L510.747 143.8V149H508.937ZM527.982 138.2V149H526.262V141.04L520.602 149H519.132V138.2H520.852V146.05L526.522 138.2H527.982ZM534.787 149V134.6H546.027V149H544.247V136.29H536.567V149H534.787ZM554.75 149.3C553.316 149.3 552.1 148.983 551.1 148.35C550.1 147.717 549.336 146.837 548.81 145.71C548.29 144.583 548.03 143.28 548.03 141.8C548.03 140.32 548.29 139.017 548.81 137.89C549.336 136.763 550.1 135.883 551.1 135.25C552.1 134.617 553.316 134.3 554.75 134.3C556.19 134.3 557.41 134.617 558.41 135.25C559.41 135.883 560.17 136.763 560.69 137.89C561.21 139.017 561.47 140.32 561.47 141.8C561.47 143.28 561.21 144.583 560.69 145.71C560.17 146.837 559.41 147.717 558.41 148.35C557.41 148.983 556.19 149.3 554.75 149.3ZM554.75 147.6C555.823 147.607 556.716 147.367 557.43 146.88C558.15 146.387 558.686 145.703 559.04 144.83C559.4 143.957 559.58 142.947 559.58 141.8C559.58 140.647 559.4 139.637 559.04 138.77C558.686 137.903 558.15 137.227 557.43 136.74C556.716 136.253 555.823 136.007 554.75 136C553.676 135.993 552.783 136.233 552.07 136.72C551.363 137.207 550.83 137.887 550.47 138.76C550.11 139.633 549.926 140.647 549.92 141.8C549.913 142.947 550.09 143.953 550.45 144.82C550.81 145.687 551.346 146.367 552.06 146.86C552.78 147.347 553.676 147.593 554.75 147.6Z" fill="#000206"/>
              </svg>