<svg width="904" height="222" viewBox="0 0 904 222" fill="none" xmlns="http://www.w3.org/2000/svg">
              <path d="M66.97 0.92933L474 0.929365C485.05 0.929366 494 9.7618 494 20.6666L494 201.263C494 212.168 485.05 221 474 221L66.95 221C59.43 221 52.54 216.835 49.13 210.214L2.60999 120.044C-0.289999 114.429 -0.289999 107.777 2.61 102.152L49.14 11.7256C52.55 5.10375 59.44 0.929329 66.97 0.92933Z" fill="#F2F2F2"/>
              <path d="M673.565 220.57L360.516 220.57C353.409 220.57 346.883 216.758 343.461 210.653L343.14 210.055L296.62 119.885C293.883 114.584 293.797 108.337 296.363 102.968L296.62 102.451L343.15 12.0244C346.474 5.57153 353.19 1.50007 360.535 1.49997L673.565 1.5C684.346 1.5 693.065 10.1148 693.065 20.7373L693.065 201.333C693.065 211.955 684.346 220.57 673.565 220.57Z" fill="white" stroke="#254E6C"/>
              <path d="M632.535 0.929343L883.565 0.929365C894.615 0.929366 903.565 9.7618 903.565 20.6666L903.565 201.263C903.565 212.168 894.615 221 883.565 221L632.515 221C624.995 221 618.105 216.835 614.695 210.214L568.175 120.044C565.275 114.429 565.275 107.777 568.175 102.152L614.705 11.7256C618.115 5.10377 625.005 0.929343 632.535 0.929343Z" fill="#254E6C"/>
              <path d="M77.4 89V74.6H79.18V81.36L85.48 74.6H87.72L81.18 81.59L88.23 89H85.93L79.18 81.96V89H77.4ZM93.4258 89.3C92.3524 89.3 91.4258 89.0567 90.6458 88.57C89.8724 88.0833 89.2758 87.41 88.8558 86.55C88.4358 85.69 88.2258 84.7033 88.2258 83.59C88.2258 82.4567 88.4391 81.4633 88.8658 80.61C89.2924 79.7567 89.8958 79.0933 90.6758 78.62C91.4558 78.14 92.3724 77.9 93.4258 77.9C94.5058 77.9 95.4358 78.1433 96.2158 78.63C96.9958 79.11 97.5924 79.78 98.0058 80.64C98.4258 81.4933 98.6358 82.4767 98.6358 83.59C98.6358 84.7167 98.4258 85.71 98.0058 86.57C97.5858 87.4233 96.9858 88.0933 96.2058 88.58C95.4258 89.06 94.4991 89.3 93.4258 89.3ZM93.4258 87.61C94.5458 87.61 95.3791 87.2367 95.9258 86.49C96.4724 85.7433 96.7458 84.7767 96.7458 83.59C96.7458 82.37 96.4691 81.4 95.9158 80.68C95.3624 79.9533 94.5324 79.59 93.4258 79.59C92.6724 79.59 92.0524 79.76 91.5658 80.1C91.0791 80.44 90.7158 80.91 90.4758 81.51C90.2358 82.11 90.1158 82.8033 90.1158 83.59C90.1158 84.8033 90.3958 85.7767 90.9558 86.51C91.5158 87.2433 92.3391 87.61 93.4258 87.61ZM100.828 89V78.2H102.358L106.458 86.58L110.558 78.2H112.088V89H110.368V81.91L106.928 89H105.988L102.548 81.91V89H100.828ZM114.87 89V78.2H123.72V89H121.94V79.89H116.65V89H114.87ZM125.521 89V87.47C125.921 87.5433 126.224 87.53 126.431 87.43C126.644 87.3233 126.801 87.14 126.901 86.88C127.008 86.6133 127.094 86.28 127.161 85.88C127.274 85.2467 127.371 84.54 127.451 83.76C127.538 82.98 127.614 82.1267 127.681 81.2C127.754 80.2667 127.821 79.2667 127.881 78.2H135.431V89H133.651V79.89H129.501C129.461 80.5033 129.411 81.1333 129.351 81.78C129.298 82.4267 129.241 83.0567 129.181 83.67C129.121 84.2767 129.054 84.8433 128.981 85.37C128.914 85.89 128.841 86.34 128.761 86.72C128.634 87.3733 128.458 87.8967 128.231 88.29C128.004 88.6767 127.678 88.9267 127.251 89.04C126.824 89.16 126.248 89.1467 125.521 89ZM142.92 89.3C141.86 89.3 140.933 89.0667 140.14 88.6C139.353 88.1267 138.74 87.47 138.3 86.63C137.86 85.7833 137.64 84.7967 137.64 83.67C137.64 82.49 137.857 81.47 138.29 80.61C138.723 79.7433 139.327 79.0767 140.1 78.61C140.88 78.1367 141.793 77.9 142.84 77.9C143.927 77.9 144.85 78.15 145.61 78.65C146.377 79.15 146.95 79.8633 147.33 80.79C147.717 81.7167 147.883 82.82 147.83 84.1H146.03V83.46C146.01 82.1333 145.74 81.1433 145.22 80.49C144.7 79.83 143.927 79.5 142.9 79.5C141.8 79.5 140.963 79.8533 140.39 80.56C139.817 81.2667 139.53 82.28 139.53 83.6C139.53 84.8733 139.817 85.86 140.39 86.56C140.963 87.26 141.78 87.61 142.84 87.61C143.553 87.61 144.173 87.4467 144.7 87.12C145.227 86.7933 145.64 86.3233 145.94 85.71L147.65 86.3C147.23 87.2533 146.597 87.9933 145.75 88.52C144.91 89.04 143.967 89.3 142.92 89.3ZM138.93 84.1V82.67H146.91V84.1H138.93ZM150.046 89L150.056 78.2H151.856V83.4L156.386 78.2H158.696L153.926 83.6L159.256 89H156.766L151.856 83.8V89H150.046ZM164.606 89.3C163.513 89.3 162.583 89.0567 161.816 88.57C161.056 88.0767 160.476 87.4 160.076 86.54C159.676 85.68 159.47 84.7 159.456 83.6C159.47 82.4733 159.68 81.4833 160.086 80.63C160.5 79.77 161.09 79.1 161.856 78.62C162.623 78.14 163.546 77.9 164.626 77.9C165.766 77.9 166.746 78.18 167.566 78.74C168.393 79.3 168.946 80.0667 169.226 81.04L167.466 81.57C167.24 80.9433 166.87 80.4567 166.356 80.11C165.85 79.7633 165.266 79.59 164.606 79.59C163.866 79.59 163.256 79.7633 162.776 80.11C162.296 80.45 161.94 80.9233 161.706 81.53C161.473 82.13 161.353 82.82 161.346 83.6C161.36 84.8 161.636 85.77 162.176 86.51C162.723 87.2433 163.533 87.61 164.606 87.61C165.313 87.61 165.9 87.45 166.366 87.13C166.833 86.8033 167.186 86.3333 167.426 85.72L169.226 86.19C168.853 87.1967 168.27 87.9667 167.476 88.5C166.683 89.0333 165.726 89.3 164.606 89.3ZM171.257 89V78.2H173.037V82.75H178.717V78.2H180.497V89H178.717V84.44H173.037V89H171.257ZM187.898 89.3C186.825 89.3 185.898 89.0567 185.118 88.57C184.345 88.0833 183.748 87.41 183.328 86.55C182.908 85.69 182.698 84.7033 182.698 83.59C182.698 82.4567 182.912 81.4633 183.338 80.61C183.765 79.7567 184.368 79.0933 185.148 78.62C185.928 78.14 186.845 77.9 187.898 77.9C188.978 77.9 189.908 78.1433 190.688 78.63C191.468 79.11 192.065 79.78 192.478 80.64C192.898 81.4933 193.108 82.4767 193.108 83.59C193.108 84.7167 192.898 85.71 192.478 86.57C192.058 87.4233 191.458 88.0933 190.678 88.58C189.898 89.06 188.972 89.3 187.898 89.3ZM187.898 87.61C189.018 87.61 189.852 87.2367 190.398 86.49C190.945 85.7433 191.218 84.7767 191.218 83.59C191.218 82.37 190.942 81.4 190.388 80.68C189.835 79.9533 189.005 79.59 187.898 79.59C187.145 79.59 186.525 79.76 186.038 80.1C185.552 80.44 185.188 80.91 184.948 81.51C184.708 82.11 184.588 82.8033 184.588 83.59C184.588 84.8033 184.868 85.7767 185.428 86.51C185.988 87.2433 186.812 87.61 187.898 87.61ZM199.99 89.3C198.93 89.3 198.003 89.0667 197.21 88.6C196.423 88.1267 195.81 87.47 195.37 86.63C194.93 85.7833 194.71 84.7967 194.71 83.67C194.71 82.49 194.927 81.47 195.36 80.61C195.793 79.7433 196.397 79.0767 197.17 78.61C197.95 78.1367 198.863 77.9 199.91 77.9C200.997 77.9 201.92 78.15 202.68 78.65C203.447 79.15 204.02 79.8633 204.4 80.79C204.787 81.7167 204.953 82.82 204.9 84.1H203.1V83.46C203.08 82.1333 202.81 81.1433 202.29 80.49C201.77 79.83 200.997 79.5 199.97 79.5C198.87 79.5 198.033 79.8533 197.46 80.56C196.887 81.2667 196.6 82.28 196.6 83.6C196.6 84.8733 196.887 85.86 197.46 86.56C198.033 87.26 198.85 87.61 199.91 87.61C200.623 87.61 201.243 87.4467 201.77 87.12C202.297 86.7933 202.71 86.3233 203.01 85.71L204.72 86.3C204.3 87.2533 203.667 87.9933 202.82 88.52C201.98 89.04 201.037 89.3 199.99 89.3ZM196 84.1V82.67H203.98V84.1H196ZM80.26 109V99.82H76.5V98.2H85.8V99.82H82.04V109H80.26ZM92.373 109.3C91.313 109.3 90.3863 109.067 89.593 108.6C88.8063 108.127 88.193 107.47 87.753 106.63C87.313 105.783 87.093 104.797 87.093 103.67C87.093 102.49 87.3096 101.47 87.743 100.61C88.1763 99.7433 88.7796 99.0767 89.553 98.61C90.333 98.1367 91.2463 97.9 92.293 97.9C93.3796 97.9 94.303 98.15 95.063 98.65C95.8296 99.15 96.403 99.8633 96.783 100.79C97.1696 101.717 97.3363 102.82 97.283 104.1H95.483V103.46C95.463 102.133 95.193 101.143 94.673 100.49C94.153 99.83 93.3796 99.5 92.353 99.5C91.253 99.5 90.4163 99.8533 89.843 100.56C89.2696 101.267 88.983 102.28 88.983 103.6C88.983 104.873 89.2696 105.86 89.843 106.56C90.4163 107.26 91.233 107.61 92.293 107.61C93.0063 107.61 93.6263 107.447 94.153 107.12C94.6796 106.793 95.093 106.323 95.393 105.71L97.103 106.3C96.683 107.253 96.0496 107.993 95.203 108.52C94.363 109.04 93.4196 109.3 92.373 109.3ZM88.383 104.1V102.67H96.363V104.1H88.383ZM104.059 109.3C102.966 109.3 102.036 109.057 101.269 108.57C100.509 108.077 99.9294 107.4 99.5294 106.54C99.1294 105.68 98.9227 104.7 98.9094 103.6C98.9227 102.473 99.1327 101.483 99.5394 100.63C99.9527 99.77 100.543 99.1 101.309 98.62C102.076 98.14 102.999 97.9 104.079 97.9C105.219 97.9 106.199 98.18 107.019 98.74C107.846 99.3 108.399 100.067 108.679 101.04L106.919 101.57C106.693 100.943 106.323 100.457 105.809 100.11C105.303 99.7633 104.719 99.59 104.059 99.59C103.319 99.59 102.709 99.7633 102.229 100.11C101.749 100.45 101.393 100.923 101.159 101.53C100.926 102.13 100.806 102.82 100.799 103.6C100.813 104.8 101.089 105.77 101.629 106.51C102.176 107.243 102.986 107.61 104.059 107.61C104.766 107.61 105.353 107.45 105.819 107.13C106.286 106.803 106.639 106.333 106.879 105.72L108.679 106.19C108.306 107.197 107.723 107.967 106.929 108.5C106.136 109.033 105.179 109.3 104.059 109.3ZM113.385 109V99.82H109.625V98.2H118.925V99.82H115.165V109H113.385ZM129.658 98.2V109H127.938V101.04L122.278 109H120.808V98.2H122.528V106.05L128.198 98.2H129.658ZM137.419 109.3C136.405 109.3 135.552 109.05 134.859 108.55C134.165 108.043 133.639 107.36 133.279 106.5C132.925 105.633 132.749 104.663 132.749 103.59C132.749 102.503 132.925 101.53 133.279 100.67C133.639 99.81 134.165 99.1333 134.859 98.64C135.559 98.1467 136.415 97.9 137.429 97.9C138.429 97.9 139.289 98.15 140.009 98.65C140.735 99.1433 141.292 99.82 141.679 100.68C142.065 101.54 142.259 102.51 142.259 103.59C142.259 104.67 142.065 105.64 141.679 106.5C141.292 107.36 140.735 108.043 140.009 108.55C139.289 109.05 138.425 109.3 137.419 109.3ZM132.449 113.8V98.2H134.039V106.15H134.239V113.8H132.449ZM137.199 107.67C137.912 107.67 138.502 107.49 138.969 107.13C139.435 106.77 139.785 106.283 140.019 105.67C140.252 105.05 140.369 104.357 140.369 103.59C140.369 102.83 140.252 102.143 140.019 101.53C139.792 100.917 139.439 100.43 138.959 100.07C138.485 99.71 137.882 99.53 137.149 99.53C136.449 99.53 135.869 99.7033 135.409 100.05C134.949 100.39 134.605 100.867 134.379 101.48C134.152 102.087 134.039 102.79 134.039 103.59C134.039 104.377 134.149 105.08 134.369 105.7C134.595 106.313 134.942 106.797 135.409 107.15C135.875 107.497 136.472 107.67 137.199 107.67ZM149.051 109.3C147.977 109.3 147.051 109.057 146.271 108.57C145.497 108.083 144.901 107.41 144.481 106.55C144.061 105.69 143.851 104.703 143.851 103.59C143.851 102.457 144.064 101.463 144.491 100.61C144.917 99.7567 145.521 99.0933 146.301 98.62C147.081 98.14 147.997 97.9 149.051 97.9C150.131 97.9 151.061 98.1433 151.841 98.63C152.621 99.11 153.217 99.78 153.631 100.64C154.051 101.493 154.261 102.477 154.261 103.59C154.261 104.717 154.051 105.71 153.631 106.57C153.211 107.423 152.611 108.093 151.831 108.58C151.051 109.06 150.124 109.3 149.051 109.3ZM149.051 107.61C150.171 107.61 151.004 107.237 151.551 106.49C152.097 105.743 152.371 104.777 152.371 103.59C152.371 102.37 152.094 101.4 151.541 100.68C150.987 99.9533 150.157 99.59 149.051 99.59C148.297 99.59 147.677 99.76 147.191 100.1C146.704 100.44 146.341 100.91 146.101 101.51C145.861 102.11 145.741 102.803 145.741 103.59C145.741 104.803 146.021 105.777 146.581 106.51C147.141 107.243 147.964 107.61 149.051 107.61ZM156.453 109V98.2H161.053C161.326 98.2 161.619 98.2167 161.933 98.25C162.253 98.2767 162.543 98.3267 162.803 98.4C163.383 98.5533 163.859 98.87 164.233 99.35C164.613 99.8233 164.803 100.423 164.803 101.15C164.803 101.557 164.739 101.91 164.613 102.21C164.493 102.51 164.319 102.77 164.093 102.99C163.993 103.09 163.883 103.18 163.763 103.26C163.643 103.34 163.523 103.403 163.403 103.45C163.636 103.49 163.873 103.58 164.113 103.72C164.493 103.927 164.789 104.217 165.003 104.59C165.223 104.963 165.333 105.44 165.333 106.02C165.333 106.753 165.156 107.36 164.803 107.84C164.449 108.313 163.963 108.64 163.343 108.82C163.083 108.893 162.796 108.943 162.483 108.97C162.169 108.99 161.866 109 161.573 109H156.453ZM158.253 107.55H161.473C161.613 107.55 161.779 107.537 161.973 107.51C162.173 107.483 162.349 107.45 162.503 107.41C162.849 107.31 163.099 107.123 163.253 106.85C163.413 106.577 163.493 106.28 163.493 105.96C163.493 105.533 163.373 105.187 163.133 104.92C162.899 104.653 162.589 104.487 162.203 104.42C162.063 104.38 161.909 104.357 161.743 104.35C161.583 104.343 161.439 104.34 161.312 104.34H158.253V107.55ZM158.253 102.87H160.933C161.119 102.87 161.316 102.86 161.523 102.84C161.729 102.813 161.909 102.77 162.063 102.71C162.369 102.597 162.593 102.41 162.733 102.15C162.879 101.883 162.953 101.593 162.953 101.28C162.953 100.933 162.873 100.63 162.713 100.37C162.559 100.103 162.323 99.92 162.003 99.82C161.789 99.74 161.549 99.6967 161.283 99.69C161.023 99.6767 160.856 99.67 160.783 99.67H158.253V102.87ZM170.411 109.3C169.605 109.3 168.928 109.153 168.381 108.86C167.841 108.56 167.431 108.167 167.151 107.68C166.878 107.193 166.741 106.66 166.741 106.08C166.741 105.513 166.848 105.023 167.061 104.61C167.281 104.19 167.588 103.843 167.981 103.57C168.375 103.29 168.845 103.07 169.391 102.91C169.905 102.77 170.478 102.65 171.111 102.55C171.751 102.443 172.398 102.347 173.051 102.26C173.705 102.173 174.315 102.09 174.881 102.01L174.241 102.38C174.261 101.42 174.068 100.71 173.661 100.25C173.261 99.79 172.568 99.56 171.581 99.56C170.928 99.56 170.355 99.71 169.861 100.01C169.375 100.303 169.031 100.783 168.831 101.45L167.141 100.94C167.401 99.9933 167.905 99.25 168.651 98.71C169.398 98.17 170.381 97.9 171.601 97.9C172.581 97.9 173.421 98.0767 174.121 98.43C174.828 98.7767 175.335 99.3033 175.641 100.01C175.795 100.343 175.891 100.707 175.931 101.1C175.971 101.487 175.991 101.893 175.991 102.32V109H174.411V106.41L174.781 106.65C174.375 107.523 173.805 108.183 173.071 108.63C172.345 109.077 171.458 109.3 170.411 109.3ZM170.681 107.81C171.321 107.81 171.875 107.697 172.341 107.47C172.815 107.237 173.195 106.933 173.481 106.56C173.768 106.18 173.955 105.767 174.041 105.32C174.141 104.987 174.195 104.617 174.201 104.21C174.215 103.797 174.221 103.48 174.221 103.26L174.841 103.53C174.261 103.61 173.691 103.687 173.131 103.76C172.571 103.833 172.041 103.913 171.541 104C171.041 104.08 170.591 104.177 170.191 104.29C169.898 104.383 169.621 104.503 169.361 104.65C169.108 104.797 168.901 104.987 168.741 105.22C168.588 105.447 168.511 105.73 168.511 106.07C168.511 106.363 168.585 106.643 168.731 106.91C168.885 107.177 169.118 107.393 169.431 107.56C169.751 107.727 170.168 107.81 170.681 107.81ZM178.581 109V98.2H180.361V102.75H186.041V98.2H187.821V109H186.041V104.44H180.361V109H178.581ZM199.463 98.2V109H197.743V101.04L192.083 109H190.613V98.2H192.333V106.05L198.003 98.2H199.463ZM206.943 109.3C205.883 109.3 204.957 109.067 204.163 108.6C203.377 108.127 202.763 107.47 202.323 106.63C201.883 105.783 201.663 104.797 201.663 103.67C201.663 102.49 201.88 101.47 202.313 100.61C202.747 99.7433 203.35 99.0767 204.123 98.61C204.903 98.1367 205.817 97.9 206.863 97.9C207.95 97.9 208.873 98.15 209.633 98.65C210.4 99.15 210.973 99.8633 211.353 100.79C211.74 101.717 211.907 102.82 211.853 104.1H210.053V103.46C210.033 102.133 209.763 101.143 209.243 100.49C208.723 99.83 207.95 99.5 206.923 99.5C205.823 99.5 204.987 99.8533 204.413 100.56C203.84 101.267 203.553 102.28 203.553 103.6C203.553 104.873 203.84 105.86 204.413 106.56C204.987 107.26 205.803 107.61 206.863 107.61C207.577 107.61 208.197 107.447 208.723 107.12C209.25 106.793 209.663 106.323 209.963 105.71L211.673 106.3C211.253 107.253 210.62 107.993 209.773 108.52C208.933 109.04 207.99 109.3 206.943 109.3ZM202.953 104.1V102.67H210.933V104.1H202.953ZM218.074 109V98.2H219.854V102.75H225.534V98.2H227.314V109H225.534V104.44H219.854V109H218.074ZM233.185 109.3C232.378 109.3 231.702 109.153 231.155 108.86C230.615 108.56 230.205 108.167 229.925 107.68C229.652 107.193 229.515 106.66 229.515 106.08C229.515 105.513 229.622 105.023 229.835 104.61C230.055 104.19 230.362 103.843 230.755 103.57C231.148 103.29 231.618 103.07 232.165 102.91C232.678 102.77 233.252 102.65 233.885 102.55C234.525 102.443 235.172 102.347 235.825 102.26C236.478 102.173 237.088 102.09 237.655 102.01L237.015 102.38C237.035 101.42 236.842 100.71 236.435 100.25C236.035 99.79 235.342 99.56 234.355 99.56C233.702 99.56 233.128 99.71 232.635 100.01C232.148 100.303 231.805 100.783 231.605 101.45L229.915 100.94C230.175 99.9933 230.678 99.25 231.425 98.71C232.172 98.17 233.155 97.9 234.375 97.9C235.355 97.9 236.195 98.0767 236.895 98.43C237.602 98.7767 238.108 99.3033 238.415 100.01C238.568 100.343 238.665 100.707 238.705 101.1C238.745 101.487 238.765 101.893 238.765 102.32V109H237.185V106.41L237.555 106.65C237.148 107.523 236.578 108.183 235.845 108.63C235.118 109.077 234.232 109.3 233.185 109.3ZM233.455 107.81C234.095 107.81 234.648 107.697 235.115 107.47C235.588 107.237 235.968 106.933 236.255 106.56C236.542 106.18 236.728 105.767 236.815 105.32C236.915 104.987 236.968 104.617 236.975 104.21C236.988 103.797 236.995 103.48 236.995 103.26L237.615 103.53C237.035 103.61 236.465 103.687 235.905 103.76C235.345 103.833 234.815 103.913 234.315 104C233.815 104.08 233.365 104.177 232.965 104.29C232.672 104.383 232.395 104.503 232.135 104.65C231.882 104.797 231.675 104.987 231.515 105.22C231.362 105.447 231.285 105.73 231.285 106.07C231.285 106.363 231.358 106.643 231.505 106.91C231.658 107.177 231.892 107.393 232.205 107.56C232.525 107.727 232.942 107.81 233.455 107.81ZM77.39 129V118.2H81.99C82.2633 118.2 82.5567 118.217 82.87 118.25C83.19 118.277 83.48 118.327 83.74 118.4C84.32 118.553 84.7967 118.87 85.17 119.35C85.55 119.823 85.74 120.423 85.74 121.15C85.74 121.557 85.6767 121.91 85.55 122.21C85.43 122.51 85.2567 122.77 85.03 122.99C84.93 123.09 84.82 123.18 84.7 123.26C84.58 123.34 84.46 123.403 84.34 123.45C84.5733 123.49 84.81 123.58 85.05 123.72C85.43 123.927 85.7267 124.217 85.94 124.59C86.16 124.963 86.27 125.44 86.27 126.02C86.27 126.753 86.0933 127.36 85.74 127.84C85.3867 128.313 84.9 128.64 84.28 128.82C84.02 128.893 83.7333 128.943 83.42 128.97C83.1067 128.99 82.8033 129 82.51 129H77.39ZM79.19 127.55H82.41C82.55 127.55 82.7167 127.537 82.91 127.51C83.11 127.483 83.2867 127.45 83.44 127.41C83.7867 127.31 84.0367 127.123 84.19 126.85C84.35 126.577 84.43 126.28 84.43 125.96C84.43 125.533 84.31 125.187 84.07 124.92C83.8367 124.653 83.5267 124.487 83.14 124.42C83 124.38 82.8467 124.357 82.68 124.35C82.52 124.343 82.3767 124.34 82.25 124.34H79.19V127.55ZM79.19 122.87H81.87C82.0567 122.87 82.2533 122.86 82.46 122.84C82.6667 122.813 82.8467 122.77 83 122.71C83.3067 122.597 83.53 122.41 83.67 122.15C83.8167 121.883 83.89 121.593 83.89 121.28C83.89 120.933 83.81 120.63 83.65 120.37C83.4967 120.103 83.26 119.92 82.94 119.82C82.7267 119.74 82.4867 119.697 82.22 119.69C81.96 119.677 81.7933 119.67 81.72 119.67H79.19V122.87ZM92.8289 129.3C91.7356 129.3 90.8056 129.057 90.0389 128.57C89.2789 128.077 88.6989 127.4 88.2989 126.54C87.8989 125.68 87.6922 124.7 87.6789 123.6C87.6922 122.473 87.9022 121.483 88.3089 120.63C88.7222 119.77 89.3122 119.1 90.0789 118.62C90.8456 118.14 91.7689 117.9 92.8489 117.9C93.9889 117.9 94.9689 118.18 95.7889 118.74C96.6156 119.3 97.1689 120.067 97.4489 121.04L95.6889 121.57C95.4622 120.943 95.0922 120.457 94.5789 120.11C94.0722 119.763 93.4889 119.59 92.8289 119.59C92.0889 119.59 91.4789 119.763 90.9989 120.11C90.5189 120.45 90.1622 120.923 89.9289 121.53C89.6956 122.13 89.5756 122.82 89.5689 123.6C89.5822 124.8 89.8589 125.77 90.3989 126.51C90.9456 127.243 91.7556 127.61 92.8289 127.61C93.5356 127.61 94.1222 127.45 94.5889 127.13C95.0556 126.803 95.4089 126.333 95.6489 125.72L97.4489 126.19C97.0756 127.197 96.4922 127.967 95.6989 128.5C94.9056 129.033 93.9489 129.3 92.8289 129.3ZM104.17 129.3C103.11 129.3 102.183 129.067 101.39 128.6C100.603 128.127 99.9898 127.47 99.5498 126.63C99.1098 125.783 98.8898 124.797 98.8898 123.67C98.8898 122.49 99.1065 121.47 99.5398 120.61C99.9732 119.743 100.577 119.077 101.35 118.61C102.13 118.137 103.043 117.9 104.09 117.9C105.177 117.9 106.1 118.15 106.86 118.65C107.627 119.15 108.2 119.863 108.58 120.79C108.967 121.717 109.133 122.82 109.08 124.1H107.28V123.46C107.26 122.133 106.99 121.143 106.47 120.49C105.95 119.83 105.177 119.5 104.15 119.5C103.05 119.5 102.213 119.853 101.64 120.56C101.067 121.267 100.78 122.28 100.78 123.6C100.78 124.873 101.067 125.86 101.64 126.56C102.213 127.26 103.03 127.61 104.09 127.61C104.803 127.61 105.423 127.447 105.95 127.12C106.477 126.793 106.89 126.323 107.19 125.71L108.9 126.3C108.48 127.253 107.847 127.993 107 128.52C106.16 129.04 105.217 129.3 104.17 129.3ZM100.18 124.1V122.67H108.16V124.1H100.18ZM109.716 129L113.846 123.54L109.806 118.2H111.926L114.886 122.16L117.816 118.2H119.936L115.896 123.54L120.036 129H117.906L114.886 124.92L111.846 129H109.716ZM129.532 129.3C128.419 129.3 127.466 129.033 126.672 128.5C125.879 127.967 125.289 127.197 124.902 126.19L126.702 125.72C126.949 126.333 127.306 126.803 127.772 127.13C128.246 127.45 128.829 127.61 129.522 127.61C130.489 127.61 131.239 127.313 131.772 126.72C132.306 126.12 132.622 125.323 132.722 124.33H128.302V122.86H132.722C132.629 121.893 132.322 121.107 131.802 120.5C131.282 119.893 130.536 119.59 129.562 119.59C128.889 119.59 128.296 119.76 127.782 120.1C127.276 120.44 126.902 120.93 126.662 121.57L124.902 121.04C125.189 120.067 125.746 119.3 126.572 118.74C127.399 118.18 128.389 117.9 129.542 117.9C130.609 117.9 131.526 118.14 132.292 118.62C133.059 119.1 133.646 119.77 134.052 120.63C134.466 121.49 134.672 122.483 134.672 123.61C134.672 124.73 134.469 125.717 134.062 126.57C133.656 127.423 133.069 128.093 132.302 128.58C131.536 129.06 130.612 129.3 129.532 129.3ZM139.498 129V119.82H135.738V118.2H145.038V119.82H141.278V129H139.498ZM149.65 129.3C148.843 129.3 148.166 129.153 147.62 128.86C147.08 128.56 146.67 128.167 146.39 127.68C146.116 127.193 145.98 126.66 145.98 126.08C145.98 125.513 146.086 125.023 146.3 124.61C146.52 124.19 146.826 123.843 147.22 123.57C147.613 123.29 148.083 123.07 148.63 122.91C149.143 122.77 149.716 122.65 150.35 122.55C150.99 122.443 151.636 122.347 152.29 122.26C152.943 122.173 153.553 122.09 154.12 122.01L153.48 122.38C153.5 121.42 153.306 120.71 152.9 120.25C152.5 119.79 151.806 119.56 150.82 119.56C150.166 119.56 149.593 119.71 149.1 120.01C148.613 120.303 148.27 120.783 148.07 121.45L146.38 120.94C146.64 119.993 147.143 119.25 147.89 118.71C148.636 118.17 149.62 117.9 150.84 117.9C151.82 117.9 152.66 118.077 153.36 118.43C154.066 118.777 154.573 119.303 154.88 120.01C155.033 120.343 155.13 120.707 155.17 121.1C155.21 121.487 155.23 121.893 155.23 122.32V129H153.65V126.41L154.02 126.65C153.613 127.523 153.043 128.183 152.31 128.63C151.583 129.077 150.696 129.3 149.65 129.3ZM149.92 127.81C150.56 127.81 151.113 127.697 151.58 127.47C152.053 127.237 152.433 126.933 152.72 126.56C153.006 126.18 153.193 125.767 153.28 125.32C153.38 124.987 153.433 124.617 153.44 124.21C153.453 123.797 153.46 123.48 153.46 123.26L154.08 123.53C153.5 123.61 152.93 123.687 152.37 123.76C151.81 123.833 151.28 123.913 150.78 124C150.28 124.08 149.83 124.177 149.43 124.29C149.136 124.383 148.86 124.503 148.6 124.65C148.346 124.797 148.14 124.987 147.98 125.22C147.826 125.447 147.75 125.73 147.75 126.07C147.75 126.363 147.823 126.643 147.97 126.91C148.123 127.177 148.356 127.393 148.67 127.56C148.99 127.727 149.406 127.81 149.92 127.81ZM157.82 129V118.2H166.67V129H164.89V119.89H159.6V129H157.82ZM172.54 129.3C171.734 129.3 171.057 129.153 170.51 128.86C169.97 128.56 169.56 128.167 169.28 127.68C169.007 127.193 168.87 126.66 168.87 126.08C168.87 125.513 168.977 125.023 169.19 124.61C169.41 124.19 169.717 123.843 170.11 123.57C170.504 123.29 170.974 123.07 171.52 122.91C172.034 122.77 172.607 122.65 173.24 122.55C173.88 122.443 174.527 122.347 175.18 122.26C175.834 122.173 176.444 122.09 177.01 122.01L176.37 122.38C176.39 121.42 176.197 120.71 175.79 120.25C175.39 119.79 174.697 119.56 173.71 119.56C173.057 119.56 172.484 119.71 171.99 120.01C171.504 120.303 171.16 120.783 170.96 121.45L169.27 120.94C169.53 119.993 170.034 119.25 170.78 118.71C171.527 118.17 172.51 117.9 173.73 117.9C174.71 117.9 175.55 118.077 176.25 118.43C176.957 118.777 177.464 119.303 177.77 120.01C177.924 120.343 178.02 120.707 178.06 121.1C178.1 121.487 178.12 121.893 178.12 122.32V129H176.54V126.41L176.91 126.65C176.504 127.523 175.934 128.183 175.2 128.63C174.474 129.077 173.587 129.3 172.54 129.3ZM172.81 127.81C173.45 127.81 174.004 127.697 174.47 127.47C174.944 127.237 175.324 126.933 175.61 126.56C175.897 126.18 176.084 125.767 176.17 125.32C176.27 124.987 176.324 124.617 176.33 124.21C176.344 123.797 176.35 123.48 176.35 123.26L176.97 123.53C176.39 123.61 175.82 123.687 175.26 123.76C174.7 123.833 174.17 123.913 173.67 124C173.17 124.08 172.72 124.177 172.32 124.29C172.027 124.383 171.75 124.503 171.49 124.65C171.237 124.797 171.03 124.987 170.87 125.22C170.717 125.447 170.64 125.73 170.64 126.07C170.64 126.363 170.714 126.643 170.86 126.91C171.014 127.177 171.247 127.393 171.56 127.56C171.88 127.727 172.297 127.81 172.81 127.81ZM179.52 129L183.65 123.54L179.61 118.2H181.73L184.69 122.16L187.62 118.2H189.74L185.7 123.54L189.84 129H187.71L184.69 124.92L181.65 129H179.52ZM82.36 149.3C81.3467 149.3 80.4933 149.05 79.8 148.55C79.1067 148.043 78.58 147.36 78.22 146.5C77.8667 145.633 77.69 144.663 77.69 143.59C77.69 142.503 77.8667 141.53 78.22 140.67C78.58 139.81 79.1067 139.133 79.8 138.64C80.5 138.147 81.3567 137.9 82.37 137.9C83.37 137.9 84.23 138.15 84.95 138.65C85.6767 139.143 86.2333 139.82 86.62 140.68C87.0067 141.54 87.2 142.51 87.2 143.59C87.2 144.67 87.0067 145.64 86.62 146.5C86.2333 147.36 85.6767 148.043 84.95 148.55C84.23 149.05 83.3667 149.3 82.36 149.3ZM77.39 153.8V138.2H78.98V146.15H79.18V153.8H77.39ZM82.14 147.67C82.8533 147.67 83.4433 147.49 83.91 147.13C84.3767 146.77 84.7267 146.283 84.96 145.67C85.1933 145.05 85.31 144.357 85.31 143.59C85.31 142.83 85.1933 142.143 84.96 141.53C84.7333 140.917 84.38 140.43 83.9 140.07C83.4267 139.71 82.8233 139.53 82.09 139.53C81.39 139.53 80.81 139.703 80.35 140.05C79.89 140.39 79.5467 140.867 79.32 141.48C79.0933 142.087 78.98 142.79 78.98 143.59C78.98 144.377 79.09 145.08 79.31 145.7C79.5367 146.313 79.8833 146.797 80.35 147.15C80.8167 147.497 81.4133 147.67 82.14 147.67ZM92.4622 149.3C91.6555 149.3 90.9789 149.153 90.4322 148.86C89.8922 148.56 89.4822 148.167 89.2022 147.68C88.9289 147.193 88.7922 146.66 88.7922 146.08C88.7922 145.513 88.8989 145.023 89.1122 144.61C89.3322 144.19 89.6389 143.843 90.0322 143.57C90.4255 143.29 90.8955 143.07 91.4422 142.91C91.9555 142.77 92.5289 142.65 93.1622 142.55C93.8022 142.443 94.4489 142.347 95.1022 142.26C95.7555 142.173 96.3655 142.09 96.9322 142.01L96.2922 142.38C96.3122 141.42 96.1189 140.71 95.7122 140.25C95.3122 139.79 94.6189 139.56 93.6322 139.56C92.9789 139.56 92.4055 139.71 91.9122 140.01C91.4255 140.303 91.0822 140.783 90.8822 141.45L89.1922 140.94C89.4522 139.993 89.9555 139.25 90.7022 138.71C91.4489 138.17 92.4322 137.9 93.6522 137.9C94.6322 137.9 95.4722 138.077 96.1722 138.43C96.8789 138.777 97.3855 139.303 97.6922 140.01C97.8455 140.343 97.9422 140.707 97.9822 141.1C98.0222 141.487 98.0422 141.893 98.0422 142.32V149H96.4622V146.41L96.8322 146.65C96.4255 147.523 95.8555 148.183 95.1222 148.63C94.3955 149.077 93.5089 149.3 92.4622 149.3ZM92.7322 147.81C93.3722 147.81 93.9255 147.697 94.3922 147.47C94.8655 147.237 95.2455 146.933 95.5322 146.56C95.8189 146.18 96.0055 145.767 96.0922 145.32C96.1922 144.987 96.2455 144.617 96.2522 144.21C96.2655 143.797 96.2722 143.48 96.2722 143.26L96.8922 143.53C96.3122 143.61 95.7422 143.687 95.1822 143.76C94.6222 143.833 94.0922 143.913 93.5922 144C93.0922 144.08 92.6422 144.177 92.2422 144.29C91.9489 144.383 91.6722 144.503 91.4122 144.65C91.1589 144.797 90.9522 144.987 90.7922 145.22C90.6389 145.447 90.5622 145.73 90.5622 146.07C90.5622 146.363 90.6355 146.643 90.7822 146.91C90.9355 147.177 91.1689 147.393 91.4822 147.56C91.8022 147.727 92.2189 147.81 92.7322 147.81ZM104.512 149.3C103.446 149.3 102.502 149.07 101.682 148.61C100.862 148.143 100.216 147.503 99.7422 146.69L101.162 145.77C101.556 146.363 102.026 146.82 102.572 147.14C103.119 147.453 103.742 147.61 104.442 147.61C105.176 147.61 105.759 147.443 106.192 147.11C106.626 146.77 106.842 146.313 106.842 145.74C106.842 145.313 106.736 144.987 106.522 144.76C106.309 144.533 106.002 144.377 105.602 144.29C105.202 144.203 104.726 144.16 104.172 144.16H103.052V142.69H104.162C104.862 142.69 105.432 142.577 105.872 142.35C106.312 142.123 106.532 141.737 106.532 141.19C106.532 140.63 106.326 140.223 105.912 139.97C105.506 139.71 105.019 139.58 104.452 139.58C103.852 139.58 103.279 139.707 102.732 139.96C102.186 140.207 101.716 140.52 101.322 140.9L100.242 139.69C100.802 139.117 101.446 138.677 102.172 138.37C102.906 138.057 103.702 137.9 104.562 137.9C105.256 137.9 105.889 138.023 106.462 138.27C107.042 138.51 107.502 138.867 107.842 139.34C108.189 139.807 108.362 140.377 108.362 141.05C108.362 141.623 108.229 142.133 107.962 142.58C107.696 143.027 107.302 143.417 106.782 143.75L106.712 143.12C107.152 143.227 107.516 143.423 107.802 143.71C108.096 143.99 108.312 144.323 108.452 144.71C108.592 145.097 108.662 145.5 108.662 145.92C108.662 146.627 108.476 147.233 108.102 147.74C107.736 148.24 107.239 148.627 106.612 148.9C105.986 149.167 105.286 149.3 104.512 149.3ZM115.817 149.3C114.804 149.3 113.95 149.05 113.257 148.55C112.564 148.043 112.037 147.36 111.677 146.5C111.324 145.633 111.147 144.663 111.147 143.59C111.147 142.503 111.324 141.53 111.677 140.67C112.037 139.81 112.564 139.133 113.257 138.64C113.957 138.147 114.814 137.9 115.827 137.9C116.827 137.9 117.687 138.15 118.407 138.65C119.134 139.143 119.69 139.82 120.077 140.68C120.464 141.54 120.657 142.51 120.657 143.59C120.657 144.67 120.464 145.64 120.077 146.5C119.69 147.36 119.134 148.043 118.407 148.55C117.687 149.05 116.824 149.3 115.817 149.3ZM110.847 153.8V138.2H112.437V146.15H112.637V153.8H110.847ZM115.597 147.67C116.31 147.67 116.9 147.49 117.367 147.13C117.834 146.77 118.184 146.283 118.417 145.67C118.65 145.05 118.767 144.357 118.767 143.59C118.767 142.83 118.65 142.143 118.417 141.53C118.19 140.917 117.837 140.43 117.357 140.07C116.884 139.71 116.28 139.53 115.547 139.53C114.847 139.53 114.267 139.703 113.807 140.05C113.347 140.39 113.004 140.867 112.777 141.48C112.55 142.087 112.437 142.79 112.437 143.59C112.437 144.377 112.547 145.08 112.767 145.7C112.994 146.313 113.34 146.797 113.807 147.15C114.274 147.497 114.87 147.67 115.597 147.67ZM125.919 149.3C125.113 149.3 124.436 149.153 123.889 148.86C123.349 148.56 122.939 148.167 122.659 147.68C122.386 147.193 122.249 146.66 122.249 146.08C122.249 145.513 122.356 145.023 122.569 144.61C122.789 144.19 123.096 143.843 123.489 143.57C123.883 143.29 124.353 143.07 124.899 142.91C125.413 142.77 125.986 142.65 126.619 142.55C127.259 142.443 127.906 142.347 128.559 142.26C129.213 142.173 129.823 142.09 130.389 142.01L129.749 142.38C129.769 141.42 129.576 140.71 129.169 140.25C128.769 139.79 128.076 139.56 127.089 139.56C126.436 139.56 125.863 139.71 125.369 140.01C124.883 140.303 124.539 140.783 124.339 141.45L122.649 140.94C122.909 139.993 123.413 139.25 124.159 138.71C124.906 138.17 125.889 137.9 127.109 137.9C128.089 137.9 128.929 138.077 129.629 138.43C130.336 138.777 130.843 139.303 131.149 140.01C131.303 140.343 131.399 140.707 131.439 141.1C131.479 141.487 131.499 141.893 131.499 142.32V149H129.919V146.41L130.289 146.65C129.883 147.523 129.313 148.183 128.579 148.63C127.853 149.077 126.966 149.3 125.919 149.3ZM126.189 147.81C126.829 147.81 127.383 147.697 127.849 147.47C128.323 147.237 128.703 146.933 128.989 146.56C129.276 146.18 129.463 145.767 129.549 145.32C129.649 144.987 129.703 144.617 129.709 144.21C129.723 143.797 129.729 143.48 129.729 143.26L130.349 143.53C129.769 143.61 129.199 143.687 128.639 143.76C128.079 143.833 127.549 143.913 127.049 144C126.549 144.08 126.099 144.177 125.699 144.29C125.406 144.383 125.129 144.503 124.869 144.65C124.616 144.797 124.409 144.987 124.249 145.22C124.096 145.447 124.019 145.73 124.019 146.07C124.019 146.363 124.093 146.643 124.239 146.91C124.393 147.177 124.626 147.393 124.939 147.56C125.259 147.727 125.676 147.81 126.189 147.81ZM138.489 149.31C137.469 149.303 136.599 149.083 135.879 148.65C135.159 148.21 134.599 147.567 134.199 146.72C133.799 145.873 133.576 144.837 133.529 143.61C133.503 143.043 133.509 142.42 133.549 141.74C133.596 141.06 133.669 140.407 133.769 139.78C133.876 139.153 134.009 138.637 134.169 138.23C134.349 137.743 134.603 137.293 134.929 136.88C135.263 136.46 135.636 136.113 136.049 135.84C136.469 135.553 136.939 135.33 137.459 135.17C137.979 135.01 138.523 134.887 139.089 134.8C139.663 134.707 140.236 134.627 140.809 134.56C141.383 134.487 141.929 134.4 142.449 134.3L142.629 135.9C142.263 135.98 141.829 136.05 141.329 136.11C140.829 136.163 140.309 136.227 139.769 136.3C139.236 136.373 138.723 136.477 138.229 136.61C137.743 136.737 137.323 136.913 136.969 137.14C136.449 137.453 136.049 137.923 135.769 138.55C135.496 139.17 135.329 139.867 135.269 140.64C135.683 140 136.219 139.53 136.879 139.23C137.539 138.93 138.243 138.78 138.989 138.78C139.956 138.78 140.789 139.007 141.489 139.46C142.189 139.907 142.726 140.523 143.099 141.31C143.479 142.097 143.669 142.993 143.669 144C143.669 145.067 143.456 146 143.029 146.8C142.603 147.6 141.999 148.22 141.219 148.66C140.446 149.1 139.536 149.317 138.489 149.31ZM138.599 147.62C139.646 147.62 140.439 147.297 140.979 146.65C141.519 145.997 141.789 145.13 141.789 144.05C141.789 142.943 141.509 142.073 140.949 141.44C140.389 140.8 139.603 140.48 138.589 140.48C137.563 140.48 136.776 140.8 136.229 141.44C135.689 142.073 135.419 142.943 135.419 144.05C135.419 145.163 135.693 146.037 136.239 146.67C136.786 147.303 137.573 147.62 138.599 147.62ZM150.477 149.3C149.403 149.3 148.477 149.057 147.697 148.57C146.923 148.083 146.327 147.41 145.907 146.55C145.487 145.69 145.277 144.703 145.277 143.59C145.277 142.457 145.49 141.463 145.917 140.61C146.343 139.757 146.947 139.093 147.727 138.62C148.507 138.14 149.423 137.9 150.477 137.9C151.557 137.9 152.487 138.143 153.267 138.63C154.047 139.11 154.643 139.78 155.057 140.64C155.477 141.493 155.687 142.477 155.687 143.59C155.687 144.717 155.477 145.71 155.057 146.57C154.637 147.423 154.037 148.093 153.257 148.58C152.477 149.06 151.55 149.3 150.477 149.3ZM150.477 147.61C151.597 147.61 152.43 147.237 152.977 146.49C153.523 145.743 153.797 144.777 153.797 143.59C153.797 142.37 153.52 141.4 152.967 140.68C152.413 139.953 151.583 139.59 150.477 139.59C149.723 139.59 149.103 139.76 148.617 140.1C148.13 140.44 147.767 140.91 147.527 141.51C147.287 142.11 147.167 142.803 147.167 143.59C147.167 144.803 147.447 145.777 148.007 146.51C148.567 147.243 149.39 147.61 150.477 147.61ZM160.514 149V139.82H156.754V138.2H166.054V139.82H162.294V149H160.514ZM167.937 149L167.947 138.2H169.747V143.4L174.277 138.2H176.587L171.817 143.6L177.147 149H174.657L169.747 143.8V149H167.937ZM186.982 138.2V149H185.262V141.04L179.602 149H178.132V138.2H179.852V146.05L185.522 138.2H186.982ZM193.787 149V134.6H205.027V149H203.247V136.29H195.567V149H193.787ZM213.75 149.3C212.316 149.3 211.1 148.983 210.1 148.35C209.1 147.717 208.336 146.837 207.81 145.71C207.29 144.583 207.03 143.28 207.03 141.8C207.03 140.32 207.29 139.017 207.81 137.89C208.336 136.763 209.1 135.883 210.1 135.25C211.1 134.617 212.316 134.3 213.75 134.3C215.19 134.3 216.41 134.617 217.41 135.25C218.41 135.883 219.17 136.763 219.69 137.89C220.21 139.017 220.47 140.32 220.47 141.8C220.47 143.28 220.21 144.583 219.69 145.71C219.17 146.837 218.41 147.717 217.41 148.35C216.41 148.983 215.19 149.3 213.75 149.3ZM213.75 147.6C214.823 147.607 215.716 147.367 216.43 146.88C217.15 146.387 217.686 145.703 218.04 144.83C218.4 143.957 218.58 142.947 218.58 141.8C218.58 140.647 218.4 139.637 218.04 138.77C217.686 137.903 217.15 137.227 216.43 136.74C215.716 136.253 214.823 136.007 213.75 136C212.676 135.993 211.783 136.233 211.07 136.72C210.363 137.207 209.83 137.887 209.47 138.76C209.11 139.633 208.926 140.647 208.92 141.8C208.913 142.947 209.09 143.953 209.45 144.82C209.81 145.687 210.346 146.367 211.06 146.86C211.78 147.347 212.676 147.593 213.75 147.6Z" fill="#000206"/>
              <path d="M372.32 89.3C370.887 89.3 369.67 88.9833 368.67 88.35C367.67 87.7167 366.907 86.8367 366.38 85.71C365.86 84.5833 365.6 83.28 365.6 81.8C365.6 80.32 365.86 79.0167 366.38 77.89C366.907 76.7633 367.67 75.8833 368.67 75.25C369.67 74.6167 370.887 74.3 372.32 74.3C373.76 74.3 374.98 74.6167 375.98 75.25C376.98 75.8833 377.74 76.7633 378.26 77.89C378.78 79.0167 379.04 80.32 379.04 81.8C379.04 83.28 378.78 84.5833 378.26 85.71C377.74 86.8367 376.98 87.7167 375.98 88.35C374.98 88.9833 373.76 89.3 372.32 89.3ZM372.32 87.6C373.393 87.6067 374.287 87.3667 375 86.88C375.72 86.3867 376.257 85.7033 376.61 84.83C376.97 83.9567 377.15 82.9467 377.15 81.8C377.15 80.6467 376.97 79.6367 376.61 78.77C376.257 77.9033 375.72 77.2267 375 76.74C374.287 76.2533 373.393 76.0067 372.32 76C371.247 75.9933 370.353 76.2333 369.64 76.72C368.933 77.2067 368.4 77.8867 368.04 78.76C367.68 79.6333 367.497 80.6467 367.49 81.8C367.483 82.9467 367.66 83.9533 368.02 84.82C368.38 85.6867 368.917 86.3667 369.63 86.86C370.35 87.3467 371.247 87.5933 372.32 87.6ZM385.438 89.31C384.418 89.3033 383.548 89.0833 382.828 88.65C382.108 88.21 381.548 87.5667 381.148 86.72C380.748 85.8733 380.525 84.8367 380.478 83.61C380.452 83.0433 380.458 82.42 380.498 81.74C380.545 81.06 380.618 80.4067 380.718 79.78C380.825 79.1533 380.958 78.6367 381.118 78.23C381.298 77.7433 381.552 77.2933 381.878 76.88C382.212 76.46 382.585 76.1133 382.998 75.84C383.418 75.5533 383.888 75.33 384.408 75.17C384.928 75.01 385.472 74.8867 386.038 74.8C386.612 74.7067 387.185 74.6267 387.758 74.56C388.332 74.4867 388.878 74.4 389.398 74.3L389.578 75.9C389.212 75.98 388.778 76.05 388.278 76.11C387.778 76.1633 387.258 76.2267 386.718 76.3C386.185 76.3733 385.672 76.4767 385.178 76.61C384.692 76.7367 384.272 76.9133 383.918 77.14C383.398 77.4533 382.998 77.9233 382.718 78.55C382.445 79.17 382.278 79.8667 382.218 80.64C382.632 80 383.168 79.53 383.828 79.23C384.488 78.93 385.192 78.78 385.938 78.78C386.905 78.78 387.738 79.0067 388.438 79.46C389.138 79.9067 389.675 80.5233 390.048 81.31C390.428 82.0967 390.618 82.9933 390.618 84C390.618 85.0667 390.405 86 389.978 86.8C389.552 87.6 388.948 88.22 388.168 88.66C387.395 89.1 386.485 89.3167 385.438 89.31ZM385.548 87.62C386.595 87.62 387.388 87.2967 387.928 86.65C388.468 85.9967 388.738 85.13 388.738 84.05C388.738 82.9433 388.458 82.0733 387.898 81.44C387.338 80.8 386.552 80.48 385.538 80.48C384.512 80.48 383.725 80.8 383.178 81.44C382.638 82.0733 382.368 82.9433 382.368 84.05C382.368 85.1633 382.642 86.0367 383.188 86.67C383.735 87.3033 384.522 87.62 385.548 87.62ZM393.935 93.8L396.025 88.12L396.055 89.8L391.335 78.2H393.205L396.905 87.53H396.265L399.735 78.2H401.545L395.665 93.8H393.935ZM409.697 89V85.11C409.337 85.29 408.9 85.4433 408.387 85.57C407.88 85.6967 407.337 85.76 406.757 85.76C405.657 85.76 404.77 85.5133 404.097 85.02C403.424 84.5267 402.984 83.8167 402.777 82.89C402.717 82.61 402.674 82.32 402.647 82.02C402.627 81.72 402.614 81.4467 402.607 81.2C402.6 80.9533 402.597 80.7733 402.597 80.66V78.2H404.397V80.66C404.397 80.8533 404.404 81.0933 404.417 81.38C404.43 81.66 404.464 81.9333 404.517 82.2C404.65 82.86 404.927 83.3567 405.347 83.69C405.774 84.0233 406.374 84.19 407.147 84.19C407.667 84.19 408.147 84.1233 408.587 83.99C409.027 83.8567 409.397 83.68 409.697 83.46V78.2H411.487V89H409.697ZM418.971 89.3C417.911 89.3 416.984 89.0667 416.191 88.6C415.404 88.1267 414.791 87.47 414.351 86.63C413.911 85.7833 413.691 84.7967 413.691 83.67C413.691 82.49 413.907 81.47 414.341 80.61C414.774 79.7433 415.377 79.0767 416.151 78.61C416.931 78.1367 417.844 77.9 418.891 77.9C419.977 77.9 420.901 78.15 421.661 78.65C422.427 79.15 423.001 79.8633 423.381 80.79C423.767 81.7167 423.934 82.82 423.881 84.1H422.081V83.46C422.061 82.1333 421.791 81.1433 421.271 80.49C420.751 79.83 419.977 79.5 418.951 79.5C417.851 79.5 417.014 79.8533 416.441 80.56C415.867 81.2667 415.581 82.28 415.581 83.6C415.581 84.8733 415.867 85.86 416.441 86.56C417.014 87.26 417.831 87.61 418.891 87.61C419.604 87.61 420.224 87.4467 420.751 87.12C421.277 86.7933 421.691 86.3233 421.991 85.71L423.701 86.3C423.281 87.2533 422.647 87.9933 421.801 88.52C420.961 89.04 420.017 89.3 418.971 89.3ZM414.981 84.1V82.67H422.961V84.1H414.981ZM426.097 89V78.2H427.877V82.75H433.557V78.2H435.337V89H433.557V84.44H427.877V89H426.097ZM446.978 78.2V89H445.258V81.04L439.598 89H438.128V78.2H439.848V86.05L445.518 78.2H446.978ZM454.459 89.3C453.399 89.3 452.472 89.0667 451.679 88.6C450.892 88.1267 450.279 87.47 449.839 86.63C449.399 85.7833 449.179 84.7967 449.179 83.67C449.179 82.49 449.396 81.47 449.829 80.61C450.262 79.7433 450.866 79.0767 451.639 78.61C452.419 78.1367 453.332 77.9 454.379 77.9C455.466 77.9 456.389 78.15 457.149 78.65C457.916 79.15 458.489 79.8633 458.869 80.79C459.256 81.7167 459.422 82.82 459.369 84.1H457.569V83.46C457.549 82.1333 457.279 81.1433 456.759 80.49C456.239 79.83 455.466 79.5 454.439 79.5C453.339 79.5 452.502 79.8533 451.929 80.56C451.356 81.2667 451.069 82.28 451.069 83.6C451.069 84.8733 451.356 85.86 451.929 86.56C452.502 87.26 453.319 87.61 454.379 87.61C455.092 87.61 455.712 87.4467 456.239 87.12C456.766 86.7933 457.179 86.3233 457.479 85.71L459.189 86.3C458.769 87.2533 458.136 87.9933 457.289 88.52C456.449 89.04 455.506 89.3 454.459 89.3ZM450.469 84.1V82.67H458.449V84.1H450.469ZM366.39 109V98.2H375.24V109H373.46V99.89H368.17V109H366.39ZM382.641 109.3C381.567 109.3 380.641 109.057 379.861 108.57C379.087 108.083 378.491 107.41 378.071 106.55C377.651 105.69 377.441 104.703 377.441 103.59C377.441 102.457 377.654 101.463 378.081 100.61C378.507 99.7567 379.111 99.0933 379.891 98.62C380.671 98.14 381.587 97.9 382.641 97.9C383.721 97.9 384.651 98.1433 385.431 98.63C386.211 99.11 386.807 99.78 387.221 100.64C387.641 101.493 387.851 102.477 387.851 103.59C387.851 104.717 387.641 105.71 387.221 106.57C386.801 107.423 386.201 108.093 385.421 108.58C384.641 109.06 383.714 109.3 382.641 109.3ZM382.641 107.61C383.761 107.61 384.594 107.237 385.141 106.49C385.687 105.743 385.961 104.777 385.961 103.59C385.961 102.37 385.684 101.4 385.131 100.68C384.577 99.9533 383.747 99.59 382.641 99.59C381.887 99.59 381.267 99.76 380.781 100.1C380.294 100.44 379.931 100.91 379.691 101.51C379.451 102.11 379.331 102.803 379.331 103.59C379.331 104.803 379.611 105.777 380.171 106.51C380.731 107.243 381.554 107.61 382.641 107.61ZM389.052 109V107.47C389.452 107.543 389.756 107.53 389.962 107.43C390.176 107.323 390.332 107.14 390.432 106.88C390.539 106.613 390.626 106.28 390.692 105.88C390.806 105.247 390.902 104.54 390.982 103.76C391.069 102.98 391.146 102.127 391.212 101.2C391.286 100.267 391.352 99.2667 391.412 98.2H398.962V109H397.182V99.89H393.032C392.992 100.503 392.942 101.133 392.882 101.78C392.829 102.427 392.772 103.057 392.712 103.67C392.652 104.277 392.586 104.843 392.512 105.37C392.446 105.89 392.372 106.34 392.292 106.72C392.166 107.373 391.989 107.897 391.762 108.29C391.536 108.677 391.209 108.927 390.782 109.04C390.356 109.16 389.779 109.147 389.052 109ZM401.771 109L401.761 98.2H403.551V102.11H405.881C406.194 102.11 406.514 102.117 406.841 102.13C407.168 102.143 407.451 102.173 407.691 102.22C408.251 102.327 408.741 102.513 409.161 102.78C409.581 103.047 409.908 103.41 410.141 103.87C410.374 104.323 410.491 104.887 410.491 105.56C410.491 106.493 410.248 107.233 409.761 107.78C409.281 108.32 408.651 108.68 407.871 108.86C407.604 108.92 407.298 108.96 406.951 108.98C406.611 108.993 406.288 109 405.981 109H401.771ZM403.551 107.53H406.011C406.211 107.53 406.434 107.523 406.681 107.51C406.928 107.497 407.148 107.463 407.341 107.41C407.681 107.31 407.984 107.113 408.251 106.82C408.524 106.527 408.661 106.107 408.661 105.56C408.661 105.007 408.528 104.58 408.261 104.28C408.001 103.98 407.658 103.783 407.231 103.69C407.038 103.643 406.834 103.613 406.621 103.6C406.408 103.587 406.204 103.58 406.011 103.58H403.551V107.53ZM416.559 109.3C415.492 109.3 414.549 109.07 413.729 108.61C412.909 108.143 412.262 107.503 411.789 106.69L413.209 105.77C413.602 106.363 414.072 106.82 414.619 107.14C415.166 107.453 415.789 107.61 416.489 107.61C417.222 107.61 417.806 107.443 418.239 107.11C418.672 106.77 418.889 106.313 418.889 105.74C418.889 105.313 418.782 104.987 418.569 104.76C418.356 104.533 418.049 104.377 417.649 104.29C417.249 104.203 416.772 104.16 416.219 104.16H415.099V102.69H416.209C416.909 102.69 417.479 102.577 417.919 102.35C418.359 102.123 418.579 101.737 418.579 101.19C418.579 100.63 418.372 100.223 417.959 99.97C417.552 99.71 417.066 99.58 416.499 99.58C415.899 99.58 415.326 99.7067 414.779 99.96C414.232 100.207 413.762 100.52 413.369 100.9L412.289 99.69C412.849 99.1167 413.492 98.6767 414.219 98.37C414.952 98.0567 415.749 97.9 416.609 97.9C417.302 97.9 417.936 98.0233 418.509 98.27C419.089 98.51 419.549 98.8667 419.889 99.34C420.236 99.8067 420.409 100.377 420.409 101.05C420.409 101.623 420.276 102.133 420.009 102.58C419.742 103.027 419.349 103.417 418.829 103.75L418.759 103.12C419.199 103.227 419.562 103.423 419.849 103.71C420.142 103.99 420.359 104.323 420.499 104.71C420.639 105.097 420.709 105.5 420.709 105.92C420.709 106.627 420.522 107.233 420.149 107.74C419.782 108.24 419.286 108.627 418.659 108.9C418.032 109.167 417.332 109.3 416.559 109.3ZM427.504 109.3C426.431 109.3 425.504 109.057 424.724 108.57C423.951 108.083 423.354 107.41 422.934 106.55C422.514 105.69 422.304 104.703 422.304 103.59C422.304 102.457 422.517 101.463 422.944 100.61C423.371 99.7567 423.974 99.0933 424.754 98.62C425.534 98.14 426.451 97.9 427.504 97.9C428.584 97.9 429.514 98.1433 430.294 98.63C431.074 99.11 431.671 99.78 432.084 100.64C432.504 101.493 432.714 102.477 432.714 103.59C432.714 104.717 432.504 105.71 432.084 106.57C431.664 107.423 431.064 108.093 430.284 108.58C429.504 109.06 428.577 109.3 427.504 109.3ZM427.504 107.61C428.624 107.61 429.457 107.237 430.004 106.49C430.551 105.743 430.824 104.777 430.824 103.59C430.824 102.37 430.547 101.4 429.994 100.68C429.441 99.9533 428.611 99.59 427.504 99.59C426.751 99.59 426.131 99.76 425.644 100.1C425.157 100.44 424.794 100.91 424.554 101.51C424.314 102.11 424.194 102.803 424.194 103.59C424.194 104.803 424.474 105.777 425.034 106.51C425.594 107.243 426.417 107.61 427.504 107.61ZM434.906 109V98.2H439.506C439.779 98.2 440.072 98.2167 440.386 98.25C440.706 98.2767 440.996 98.3267 441.256 98.4C441.836 98.5533 442.312 98.87 442.686 99.35C443.066 99.8233 443.256 100.423 443.256 101.15C443.256 101.557 443.192 101.91 443.066 102.21C442.946 102.51 442.772 102.77 442.546 102.99C442.446 103.09 442.336 103.18 442.216 103.26C442.096 103.34 441.976 103.403 441.856 103.45C442.089 103.49 442.326 103.58 442.566 103.72C442.946 103.927 443.242 104.217 443.456 104.59C443.676 104.963 443.786 105.44 443.786 106.02C443.786 106.753 443.609 107.36 443.256 107.84C442.902 108.313 442.416 108.64 441.796 108.82C441.536 108.893 441.249 108.943 440.936 108.97C440.622 108.99 440.319 109 440.026 109H434.906ZM436.706 107.55H439.926C440.066 107.55 440.232 107.537 440.426 107.51C440.626 107.483 440.802 107.45 440.956 107.41C441.302 107.31 441.552 107.123 441.706 106.85C441.866 106.577 441.946 106.28 441.946 105.96C441.946 105.533 441.826 105.187 441.586 104.92C441.352 104.653 441.042 104.487 440.656 104.42C440.516 104.38 440.362 104.357 440.196 104.35C440.036 104.343 439.892 104.34 439.766 104.34H436.706V107.55ZM436.706 102.87H439.386C439.572 102.87 439.769 102.86 439.976 102.84C440.182 102.813 440.362 102.77 440.516 102.71C440.822 102.597 441.046 102.41 441.186 102.15C441.332 101.883 441.406 101.593 441.406 101.28C441.406 100.933 441.326 100.63 441.166 100.37C441.012 100.103 440.776 99.92 440.456 99.82C440.242 99.74 440.002 99.6967 439.736 99.69C439.476 99.6767 439.309 99.67 439.236 99.67H436.706V102.87ZM448.865 109.3C448.058 109.3 447.381 109.153 446.835 108.86C446.295 108.56 445.885 108.167 445.605 107.68C445.331 107.193 445.195 106.66 445.195 106.08C445.195 105.513 445.301 105.023 445.515 104.61C445.735 104.19 446.041 103.843 446.435 103.57C446.828 103.29 447.298 103.07 447.845 102.91C448.358 102.77 448.931 102.65 449.565 102.55C450.205 102.443 450.851 102.347 451.505 102.26C452.158 102.173 452.768 102.09 453.335 102.01L452.695 102.38C452.715 101.42 452.521 100.71 452.115 100.25C451.715 99.79 451.021 99.56 450.035 99.56C449.381 99.56 448.808 99.71 448.315 100.01C447.828 100.303 447.485 100.783 447.285 101.45L445.595 100.94C445.855 99.9933 446.358 99.25 447.105 98.71C447.851 98.17 448.835 97.9 450.055 97.9C451.035 97.9 451.875 98.0767 452.575 98.43C453.281 98.7767 453.788 99.3033 454.095 100.01C454.248 100.343 454.345 100.707 454.385 101.1C454.425 101.487 454.445 101.893 454.445 102.32V109H452.865V106.41L453.235 106.65C452.828 107.523 452.258 108.183 451.525 108.63C450.798 109.077 449.911 109.3 448.865 109.3ZM449.135 107.81C449.775 107.81 450.328 107.697 450.795 107.47C451.268 107.237 451.648 106.933 451.935 106.56C452.221 106.18 452.408 105.767 452.495 105.32C452.595 104.987 452.648 104.617 452.655 104.21C452.668 103.797 452.675 103.48 452.675 103.26L453.295 103.53C452.715 103.61 452.145 103.687 451.585 103.76C451.025 103.833 450.495 103.913 449.995 104C449.495 104.08 449.045 104.177 448.645 104.29C448.351 104.383 448.075 104.503 447.815 104.65C447.561 104.797 447.355 104.987 447.195 105.22C447.041 105.447 446.965 105.73 446.965 106.07C446.965 106.363 447.038 106.643 447.185 106.91C447.338 107.177 447.571 107.393 447.885 107.56C448.205 107.727 448.621 107.81 449.135 107.81ZM459.905 109V99.82H456.145V98.2H465.445V99.82H461.685V109H459.905ZM472.018 109.3C470.958 109.3 470.031 109.067 469.238 108.6C468.451 108.127 467.838 107.47 467.398 106.63C466.958 105.783 466.738 104.797 466.738 103.67C466.738 102.49 466.954 101.47 467.388 100.61C467.821 99.7433 468.424 99.0767 469.198 98.61C469.978 98.1367 470.891 97.9 471.938 97.9C473.024 97.9 473.948 98.15 474.708 98.65C475.474 99.15 476.048 99.8633 476.428 100.79C476.814 101.717 476.981 102.82 476.928 104.1H475.128V103.46C475.108 102.133 474.838 101.143 474.318 100.49C473.798 99.83 473.024 99.5 471.998 99.5C470.898 99.5 470.061 99.8533 469.488 100.56C468.914 101.267 468.628 102.28 468.628 103.6C468.628 104.873 468.914 105.86 469.488 106.56C470.061 107.26 470.878 107.61 471.938 107.61C472.651 107.61 473.271 107.447 473.798 107.12C474.324 106.793 474.738 106.323 475.038 105.71L476.748 106.3C476.328 107.253 475.694 107.993 474.848 108.52C474.008 109.04 473.064 109.3 472.018 109.3ZM468.028 104.1V102.67H476.008V104.1H468.028ZM478.154 109V107.47C478.554 107.543 478.857 107.53 479.064 107.43C479.277 107.323 479.434 107.14 479.534 106.88C479.641 106.613 479.727 106.28 479.794 105.88C479.907 105.247 480.004 104.54 480.084 103.76C480.171 102.98 480.247 102.127 480.314 101.2C480.387 100.267 480.454 99.2667 480.514 98.2H488.064V109H486.284V99.89H482.134C482.094 100.503 482.044 101.133 481.984 101.78C481.931 102.427 481.874 103.057 481.814 103.67C481.754 104.277 481.687 104.843 481.614 105.37C481.547 105.89 481.474 106.34 481.394 106.72C481.267 107.373 481.091 107.897 480.864 108.29C480.637 108.677 480.311 108.927 479.884 109.04C479.457 109.16 478.881 109.147 478.154 109ZM495.553 109.3C494.493 109.3 493.566 109.067 492.773 108.6C491.986 108.127 491.373 107.47 490.933 106.63C490.493 105.783 490.273 104.797 490.273 103.67C490.273 102.49 490.489 101.47 490.923 100.61C491.356 99.7433 491.959 99.0767 492.733 98.61C493.513 98.1367 494.426 97.9 495.473 97.9C496.559 97.9 497.483 98.15 498.243 98.65C499.009 99.15 499.583 99.8633 499.963 100.79C500.349 101.717 500.516 102.82 500.463 104.1H498.663V103.46C498.643 102.133 498.373 101.143 497.853 100.49C497.333 99.83 496.559 99.5 495.533 99.5C494.433 99.5 493.596 99.8533 493.023 100.56C492.449 101.267 492.163 102.28 492.163 103.6C492.163 104.873 492.449 105.86 493.023 106.56C493.596 107.26 494.413 107.61 495.473 107.61C496.186 107.61 496.806 107.447 497.333 107.12C497.859 106.793 498.273 106.323 498.573 105.71L500.283 106.3C499.863 107.253 499.229 107.993 498.383 108.52C497.543 109.04 496.599 109.3 495.553 109.3ZM491.563 104.1V102.67H499.543V104.1H491.563ZM507.339 96.94C506.839 96.94 506.382 96.8167 505.969 96.57C505.556 96.3233 505.226 95.9967 504.979 95.59C504.732 95.1767 504.609 94.7167 504.609 94.21H506.049C506.049 94.5633 506.176 94.8667 506.429 95.12C506.682 95.3733 506.986 95.5 507.339 95.5C507.699 95.5 508.002 95.3733 508.249 95.12C508.502 94.8667 508.629 94.5633 508.629 94.21H510.069C510.069 94.7167 509.946 95.1767 509.699 95.59C509.459 95.9967 509.129 96.3233 508.709 96.57C508.296 96.8167 507.839 96.94 507.339 96.94ZM511.529 98.2V109H509.809V101.04L504.149 109H502.679V98.2H504.399V106.05L510.069 98.2H511.529ZM366.4 129V114.6H377.64V129H375.86V116.29H368.18V129H366.4ZM386.363 129.3C384.93 129.3 383.713 128.983 382.713 128.35C381.713 127.717 380.95 126.837 380.423 125.71C379.903 124.583 379.643 123.28 379.643 121.8C379.643 120.32 379.903 119.017 380.423 117.89C380.95 116.763 381.713 115.883 382.713 115.25C383.713 114.617 384.93 114.3 386.363 114.3C387.803 114.3 389.023 114.617 390.023 115.25C391.023 115.883 391.783 116.763 392.303 117.89C392.823 119.017 393.083 120.32 393.083 121.8C393.083 123.28 392.823 124.583 392.303 125.71C391.783 126.837 391.023 127.717 390.023 128.35C389.023 128.983 387.803 129.3 386.363 129.3ZM386.363 127.6C387.436 127.607 388.33 127.367 389.043 126.88C389.763 126.387 390.3 125.703 390.653 124.83C391.013 123.957 391.193 122.947 391.193 121.8C391.193 120.647 391.013 119.637 390.653 118.77C390.3 117.903 389.763 117.227 389.043 116.74C388.33 116.253 387.436 116.007 386.363 116C385.29 115.993 384.396 116.233 383.683 116.72C382.976 117.207 382.443 117.887 382.083 118.76C381.723 119.633 381.54 120.647 381.533 121.8C381.526 122.947 381.703 123.953 382.063 124.82C382.423 125.687 382.96 126.367 383.673 126.86C384.393 127.347 385.29 127.593 386.363 127.6ZM399.085 129V118.2H403.685C403.959 118.2 404.252 118.217 404.565 118.25C404.885 118.277 405.175 118.327 405.435 118.4C406.015 118.553 406.492 118.87 406.865 119.35C407.245 119.823 407.435 120.423 407.435 121.15C407.435 121.557 407.372 121.91 407.245 122.21C407.125 122.51 406.952 122.77 406.725 122.99C406.625 123.09 406.515 123.18 406.395 123.26C406.275 123.34 406.155 123.403 406.035 123.45C406.269 123.49 406.505 123.58 406.745 123.72C407.125 123.927 407.422 124.217 407.635 124.59C407.855 124.963 407.965 125.44 407.965 126.02C407.965 126.753 407.789 127.36 407.435 127.84C407.082 128.313 406.595 128.64 405.975 128.82C405.715 128.893 405.429 128.943 405.115 128.97C404.802 128.99 404.499 129 404.205 129H399.085ZM400.885 127.55H404.105C404.245 127.55 404.412 127.537 404.605 127.51C404.805 127.483 404.982 127.45 405.135 127.41C405.482 127.31 405.732 127.123 405.885 126.85C406.045 126.577 406.125 126.28 406.125 125.96C406.125 125.533 406.005 125.187 405.765 124.92C405.532 124.653 405.222 124.487 404.835 124.42C404.695 124.38 404.542 124.357 404.375 124.35C404.215 124.343 404.072 124.34 403.945 124.34H400.885V127.55ZM400.885 122.87H403.565C403.752 122.87 403.949 122.86 404.155 122.84C404.362 122.813 404.542 122.77 404.695 122.71C405.002 122.597 405.225 122.41 405.365 122.15C405.512 121.883 405.585 121.593 405.585 121.28C405.585 120.933 405.505 120.63 405.345 120.37C405.192 120.103 404.955 119.92 404.635 119.82C404.422 119.74 404.182 119.697 403.915 119.69C403.655 119.677 403.489 119.67 403.415 119.67H400.885V122.87ZM413.968 129L413.978 118.2H415.778V123.4L420.308 118.2H422.618L417.848 123.6L423.178 129H420.688L415.778 123.8V129H413.968ZM428.578 129.3C427.505 129.3 426.578 129.057 425.798 128.57C425.025 128.083 424.428 127.41 424.008 126.55C423.588 125.69 423.378 124.703 423.378 123.59C423.378 122.457 423.591 121.463 424.018 120.61C424.445 119.757 425.048 119.093 425.828 118.62C426.608 118.14 427.525 117.9 428.578 117.9C429.658 117.9 430.588 118.143 431.368 118.63C432.148 119.11 432.745 119.78 433.158 120.64C433.578 121.493 433.788 122.477 433.788 123.59C433.788 124.717 433.578 125.71 433.158 126.57C432.738 127.423 432.138 128.093 431.358 128.58C430.578 129.06 429.651 129.3 428.578 129.3ZM428.578 127.61C429.698 127.61 430.531 127.237 431.078 126.49C431.625 125.743 431.898 124.777 431.898 123.59C431.898 122.37 431.621 121.4 431.068 120.68C430.515 119.953 429.685 119.59 428.578 119.59C427.825 119.59 427.205 119.76 426.718 120.1C426.231 120.44 425.868 120.91 425.628 121.51C425.388 122.11 425.268 122.803 425.268 123.59C425.268 124.803 425.548 125.777 426.108 126.51C426.668 127.243 427.491 127.61 428.578 127.61ZM435.98 129V118.2H437.51L441.61 126.58L445.71 118.2H447.24V129H445.52V121.91L442.08 129H441.14L437.7 121.91V129H435.98ZM450.023 129V118.2H458.873V129H457.093V119.89H451.803V129H450.023ZM464.743 129.3C463.937 129.3 463.26 129.153 462.713 128.86C462.173 128.56 461.763 128.167 461.483 127.68C461.21 127.193 461.073 126.66 461.073 126.08C461.073 125.513 461.18 125.023 461.393 124.61C461.613 124.19 461.92 123.843 462.313 123.57C462.707 123.29 463.177 123.07 463.723 122.91C464.237 122.77 464.81 122.65 465.443 122.55C466.083 122.443 466.73 122.347 467.383 122.26C468.037 122.173 468.647 122.09 469.213 122.01L468.573 122.38C468.593 121.42 468.4 120.71 467.993 120.25C467.593 119.79 466.9 119.56 465.913 119.56C465.26 119.56 464.687 119.71 464.193 120.01C463.707 120.303 463.363 120.783 463.163 121.45L461.473 120.94C461.733 119.993 462.237 119.25 462.983 118.71C463.73 118.17 464.713 117.9 465.933 117.9C466.913 117.9 467.753 118.077 468.453 118.43C469.16 118.777 469.667 119.303 469.973 120.01C470.127 120.343 470.223 120.707 470.263 121.1C470.303 121.487 470.323 121.893 470.323 122.32V129H468.743V126.41L469.113 126.65C468.707 127.523 468.137 128.183 467.403 128.63C466.677 129.077 465.79 129.3 464.743 129.3ZM465.013 127.81C465.653 127.81 466.207 127.697 466.673 127.47C467.147 127.237 467.527 126.933 467.813 126.56C468.1 126.18 468.287 125.767 468.373 125.32C468.473 124.987 468.527 124.617 468.533 124.21C468.547 123.797 468.553 123.48 468.553 123.26L469.173 123.53C468.593 123.61 468.023 123.687 467.463 123.76C466.903 123.833 466.373 123.913 465.873 124C465.373 124.08 464.923 124.177 464.523 124.29C464.23 124.383 463.953 124.503 463.693 124.65C463.44 124.797 463.233 124.987 463.073 125.22C462.92 125.447 462.843 125.73 462.843 126.07C462.843 126.363 462.917 126.643 463.063 126.91C463.217 127.177 463.45 127.393 463.763 127.56C464.083 127.727 464.5 127.81 465.013 127.81ZM472.913 129V118.2H474.693V122.75H480.373V118.2H482.153V129H480.373V124.44H474.693V129H472.913ZM493.795 118.2V129H492.075V121.04L486.415 129H484.945V118.2H486.665V126.05L492.335 118.2H493.795ZM505.435 118.2V129H503.715V121.04L498.055 129H496.585V118.2H498.305V126.05L503.975 118.2H505.435ZM370.27 149.3C369.203 149.3 368.26 149.07 367.44 148.61C366.62 148.143 365.973 147.503 365.5 146.69L366.92 145.77C367.313 146.363 367.783 146.82 368.33 147.14C368.877 147.453 369.5 147.61 370.2 147.61C370.933 147.61 371.517 147.443 371.95 147.11C372.383 146.77 372.6 146.313 372.6 145.74C372.6 145.313 372.493 144.987 372.28 144.76C372.067 144.533 371.76 144.377 371.36 144.29C370.96 144.203 370.483 144.16 369.93 144.16H368.81V142.69H369.92C370.62 142.69 371.19 142.577 371.63 142.35C372.07 142.123 372.29 141.737 372.29 141.19C372.29 140.63 372.083 140.223 371.67 139.97C371.263 139.71 370.777 139.58 370.21 139.58C369.61 139.58 369.037 139.707 368.49 139.96C367.943 140.207 367.473 140.52 367.08 140.9L366 139.69C366.56 139.117 367.203 138.677 367.93 138.37C368.663 138.057 369.46 137.9 370.32 137.9C371.013 137.9 371.647 138.023 372.22 138.27C372.8 138.51 373.26 138.867 373.6 139.34C373.947 139.807 374.12 140.377 374.12 141.05C374.12 141.623 373.987 142.133 373.72 142.58C373.453 143.027 373.06 143.417 372.54 143.75L372.47 143.12C372.91 143.227 373.273 143.423 373.56 143.71C373.853 143.99 374.07 144.323 374.21 144.71C374.35 145.097 374.42 145.5 374.42 145.92C374.42 146.627 374.233 147.233 373.86 147.74C373.493 148.24 372.997 148.627 372.37 148.9C371.743 149.167 371.043 149.3 370.27 149.3ZM379.685 149.3C378.878 149.3 378.202 149.153 377.655 148.86C377.115 148.56 376.705 148.167 376.425 147.68C376.152 147.193 376.015 146.66 376.015 146.08C376.015 145.513 376.122 145.023 376.335 144.61C376.555 144.19 376.862 143.843 377.255 143.57C377.648 143.29 378.118 143.07 378.665 142.91C379.178 142.77 379.752 142.65 380.385 142.55C381.025 142.443 381.672 142.347 382.325 142.26C382.978 142.173 383.588 142.09 384.155 142.01L383.515 142.38C383.535 141.42 383.342 140.71 382.935 140.25C382.535 139.79 381.842 139.56 380.855 139.56C380.202 139.56 379.628 139.71 379.135 140.01C378.648 140.303 378.305 140.783 378.105 141.45L376.415 140.94C376.675 139.993 377.178 139.25 377.925 138.71C378.672 138.17 379.655 137.9 380.875 137.9C381.855 137.9 382.695 138.077 383.395 138.43C384.102 138.777 384.608 139.303 384.915 140.01C385.068 140.343 385.165 140.707 385.205 141.1C385.245 141.487 385.265 141.893 385.265 142.32V149H383.685V146.41L384.055 146.65C383.648 147.523 383.078 148.183 382.345 148.63C381.618 149.077 380.732 149.3 379.685 149.3ZM379.955 147.81C380.595 147.81 381.148 147.697 381.615 147.47C382.088 147.237 382.468 146.933 382.755 146.56C383.042 146.18 383.228 145.767 383.315 145.32C383.415 144.987 383.468 144.617 383.475 144.21C383.488 143.797 383.495 143.48 383.495 143.26L384.115 143.53C383.535 143.61 382.965 143.687 382.405 143.76C381.845 143.833 381.315 143.913 380.815 144C380.315 144.08 379.865 144.177 379.465 144.29C379.172 144.383 378.895 144.503 378.635 144.65C378.382 144.797 378.175 144.987 378.015 145.22C377.862 145.447 377.785 145.73 377.785 146.07C377.785 146.363 377.858 146.643 378.005 146.91C378.158 147.177 378.392 147.393 378.705 147.56C379.025 147.727 379.442 147.81 379.955 147.81ZM387.855 149L387.865 138.2H389.665V143.4L394.195 138.2H396.505L391.735 143.6L397.065 149H394.575L389.665 143.8V149H387.855ZM401.13 149.3C400.323 149.3 399.647 149.153 399.1 148.86C398.56 148.56 398.15 148.167 397.87 147.68C397.597 147.193 397.46 146.66 397.46 146.08C397.46 145.513 397.567 145.023 397.78 144.61C398 144.19 398.307 143.843 398.7 143.57C399.093 143.29 399.563 143.07 400.11 142.91C400.623 142.77 401.197 142.65 401.83 142.55C402.47 142.443 403.117 142.347 403.77 142.26C404.423 142.173 405.033 142.09 405.6 142.01L404.96 142.38C404.98 141.42 404.787 140.71 404.38 140.25C403.98 139.79 403.287 139.56 402.3 139.56C401.647 139.56 401.073 139.71 400.58 140.01C400.093 140.303 399.75 140.783 399.55 141.45L397.86 140.94C398.12 139.993 398.623 139.25 399.37 138.71C400.117 138.17 401.1 137.9 402.32 137.9C403.3 137.9 404.14 138.077 404.84 138.43C405.547 138.777 406.053 139.303 406.36 140.01C406.513 140.343 406.61 140.707 406.65 141.1C406.69 141.487 406.71 141.893 406.71 142.32V149H405.13V146.41L405.5 146.65C405.093 147.523 404.523 148.183 403.79 148.63C403.063 149.077 402.177 149.3 401.13 149.3ZM401.4 147.81C402.04 147.81 402.593 147.697 403.06 147.47C403.533 147.237 403.913 146.933 404.2 146.56C404.487 146.18 404.673 145.767 404.76 145.32C404.86 144.987 404.913 144.617 404.92 144.21C404.933 143.797 404.94 143.48 404.94 143.26L405.56 143.53C404.98 143.61 404.41 143.687 403.85 143.76C403.29 143.833 402.76 143.913 402.26 144C401.76 144.08 401.31 144.177 400.91 144.29C400.617 144.383 400.34 144.503 400.08 144.65C399.827 144.797 399.62 144.987 399.46 145.22C399.307 145.447 399.23 145.73 399.23 146.07C399.23 146.363 399.303 146.643 399.45 146.91C399.603 147.177 399.837 147.393 400.15 147.56C400.47 147.727 400.887 147.81 401.4 147.81ZM413.18 149.3C412.113 149.3 411.17 149.07 410.35 148.61C409.53 148.143 408.883 147.503 408.41 146.69L409.83 145.77C410.223 146.363 410.693 146.82 411.24 147.14C411.787 147.453 412.41 147.61 413.11 147.61C413.843 147.61 414.427 147.443 414.86 147.11C415.293 146.77 415.51 146.313 415.51 145.74C415.51 145.313 415.403 144.987 415.19 144.76C414.977 144.533 414.67 144.377 414.27 144.29C413.87 144.203 413.393 144.16 412.84 144.16H411.72V142.69H412.83C413.53 142.69 414.1 142.577 414.54 142.35C414.98 142.123 415.2 141.737 415.2 141.19C415.2 140.63 414.993 140.223 414.58 139.97C414.173 139.71 413.687 139.58 413.12 139.58C412.52 139.58 411.947 139.707 411.4 139.96C410.853 140.207 410.383 140.52 409.99 140.9L408.91 139.69C409.47 139.117 410.113 138.677 410.84 138.37C411.573 138.057 412.37 137.9 413.23 137.9C413.923 137.9 414.557 138.023 415.13 138.27C415.71 138.51 416.17 138.867 416.51 139.34C416.857 139.807 417.03 140.377 417.03 141.05C417.03 141.623 416.897 142.133 416.63 142.58C416.363 143.027 415.97 143.417 415.45 143.75L415.38 143.12C415.82 143.227 416.183 143.423 416.47 143.71C416.763 143.99 416.98 144.323 417.12 144.71C417.26 145.097 417.33 145.5 417.33 145.92C417.33 146.627 417.143 147.233 416.77 147.74C416.403 148.24 415.907 148.627 415.28 148.9C414.653 149.167 413.953 149.3 413.18 149.3ZM426.025 149V145.11C425.665 145.29 425.228 145.443 424.715 145.57C424.208 145.697 423.665 145.76 423.085 145.76C421.985 145.76 421.098 145.513 420.425 145.02C419.752 144.527 419.312 143.817 419.105 142.89C419.045 142.61 419.002 142.32 418.975 142.02C418.955 141.72 418.942 141.447 418.935 141.2C418.928 140.953 418.925 140.773 418.925 140.66V138.2H420.725V140.66C420.725 140.853 420.732 141.093 420.745 141.38C420.758 141.66 420.792 141.933 420.845 142.2C420.978 142.86 421.255 143.357 421.675 143.69C422.102 144.023 422.702 144.19 423.475 144.19C423.995 144.19 424.475 144.123 424.915 143.99C425.355 143.857 425.725 143.68 426.025 143.46V138.2H427.815V149H426.025ZM439.459 138.2V149H437.739V141.04L432.079 149H430.609V138.2H432.329V146.05L437.999 138.2H439.459ZM442.249 149L442.259 138.2H444.059V143.4L448.589 138.2H450.899L446.129 143.6L451.459 149H448.969L444.059 143.8V149H442.249ZM455.525 149.3C454.718 149.3 454.041 149.153 453.495 148.86C452.955 148.56 452.545 148.167 452.265 147.68C451.991 147.193 451.855 146.66 451.855 146.08C451.855 145.513 451.961 145.023 452.175 144.61C452.395 144.19 452.701 143.843 453.095 143.57C453.488 143.29 453.958 143.07 454.505 142.91C455.018 142.77 455.591 142.65 456.225 142.55C456.865 142.443 457.511 142.347 458.165 142.26C458.818 142.173 459.428 142.09 459.995 142.01L459.355 142.38C459.375 141.42 459.181 140.71 458.775 140.25C458.375 139.79 457.681 139.56 456.695 139.56C456.041 139.56 455.468 139.71 454.975 140.01C454.488 140.303 454.145 140.783 453.945 141.45L452.255 140.94C452.515 139.993 453.018 139.25 453.765 138.71C454.511 138.17 455.495 137.9 456.715 137.9C457.695 137.9 458.535 138.077 459.235 138.43C459.941 138.777 460.448 139.303 460.755 140.01C460.908 140.343 461.005 140.707 461.045 141.1C461.085 141.487 461.105 141.893 461.105 142.32V149H459.525V146.41L459.895 146.65C459.488 147.523 458.918 148.183 458.185 148.63C457.458 149.077 456.571 149.3 455.525 149.3ZM455.795 147.81C456.435 147.81 456.988 147.697 457.455 147.47C457.928 147.237 458.308 146.933 458.595 146.56C458.881 146.18 459.068 145.767 459.155 145.32C459.255 144.987 459.308 144.617 459.315 144.21C459.328 143.797 459.335 143.48 459.335 143.26L459.955 143.53C459.375 143.61 458.805 143.687 458.245 143.76C457.685 143.833 457.155 143.913 456.655 144C456.155 144.08 455.705 144.177 455.305 144.29C455.011 144.383 454.735 144.503 454.475 144.65C454.221 144.797 454.015 144.987 453.855 145.22C453.701 145.447 453.625 145.73 453.625 146.07C453.625 146.363 453.698 146.643 453.845 146.91C453.998 147.177 454.231 147.393 454.545 147.56C454.865 147.727 455.281 147.81 455.795 147.81Z" fill="#000206"/>
              <path d="M641.4 109V94.6H652.64V109H650.86V96.29H643.18V109H641.4ZM660.043 109.3C658.97 109.3 658.043 109.057 657.263 108.57C656.49 108.083 655.893 107.41 655.473 106.55C655.053 105.69 654.843 104.703 654.843 103.59C654.843 102.457 655.056 101.463 655.483 100.61C655.91 99.7567 656.513 99.0933 657.293 98.62C658.073 98.14 658.99 97.9 660.043 97.9C661.123 97.9 662.053 98.1433 662.833 98.63C663.613 99.11 664.21 99.78 664.623 100.64C665.043 101.493 665.253 102.477 665.253 103.59C665.253 104.717 665.043 105.71 664.623 106.57C664.203 107.423 663.603 108.093 662.823 108.58C662.043 109.06 661.116 109.3 660.043 109.3ZM660.043 107.61C661.163 107.61 661.996 107.237 662.543 106.49C663.09 105.743 663.363 104.777 663.363 103.59C663.363 102.37 663.086 101.4 662.533 100.68C661.98 99.9533 661.15 99.59 660.043 99.59C659.29 99.59 658.67 99.76 658.183 100.1C657.696 100.44 657.333 100.91 657.093 101.51C656.853 102.11 656.733 102.803 656.733 103.59C656.733 104.803 657.013 105.777 657.573 106.51C658.133 107.243 658.956 107.61 660.043 107.61ZM666.655 111.4V107.53C667.261 107.53 667.695 107.333 667.955 106.94C668.215 106.54 668.425 105.883 668.585 104.97C668.691 104.397 668.778 103.783 668.845 103.13C668.911 102.477 668.968 101.75 669.015 100.95C669.068 100.143 669.118 99.2267 669.165 98.2H676.605V107.53H677.655V111.4H675.955V109H668.355V111.4H666.655ZM669.395 107.53H674.825V99.67H670.775C670.755 100.143 670.728 100.64 670.695 101.16C670.661 101.673 670.621 102.187 670.575 102.7C670.535 103.213 670.485 103.7 670.425 104.16C670.371 104.613 670.308 105.02 670.235 105.38C670.148 105.88 670.048 106.303 669.935 106.65C669.821 106.997 669.641 107.29 669.395 107.53ZM678.862 111.4V107.53C679.468 107.53 679.902 107.333 680.162 106.94C680.422 106.54 680.632 105.883 680.792 104.97C680.898 104.397 680.985 103.783 681.052 103.13C681.118 102.477 681.175 101.75 681.222 100.95C681.275 100.143 681.325 99.2267 681.372 98.2H688.812V107.53H689.862V111.4H688.162V109H680.562V111.4H678.862ZM681.602 107.53H687.032V99.67H682.982C682.962 100.143 682.935 100.64 682.902 101.16C682.868 101.673 682.828 102.187 682.782 102.7C682.742 103.213 682.692 103.7 682.632 104.16C682.578 104.613 682.515 105.02 682.442 105.38C682.355 105.88 682.255 106.303 682.142 106.65C682.028 106.997 681.848 107.29 681.602 107.53ZM696.549 109.3C695.489 109.3 694.562 109.067 693.769 108.6C692.982 108.127 692.369 107.47 691.929 106.63C691.489 105.783 691.269 104.797 691.269 103.67C691.269 102.49 691.485 101.47 691.919 100.61C692.352 99.7433 692.955 99.0767 693.729 98.61C694.509 98.1367 695.422 97.9 696.469 97.9C697.555 97.9 698.479 98.15 699.239 98.65C700.005 99.15 700.579 99.8633 700.959 100.79C701.345 101.717 701.512 102.82 701.459 104.1H699.659V103.46C699.639 102.133 699.369 101.143 698.849 100.49C698.329 99.83 697.555 99.5 696.529 99.5C695.429 99.5 694.592 99.8533 694.019 100.56C693.445 101.267 693.159 102.28 693.159 103.6C693.159 104.873 693.445 105.86 694.019 106.56C694.592 107.26 695.409 107.61 696.469 107.61C697.182 107.61 697.802 107.447 698.329 107.12C698.855 106.793 699.269 106.323 699.569 105.71L701.279 106.3C700.859 107.253 700.225 107.993 699.379 108.52C698.539 109.04 697.595 109.3 696.549 109.3ZM692.559 104.1V102.67H700.539V104.1H692.559ZM708.645 109.3C707.632 109.3 706.778 109.05 706.085 108.55C705.392 108.043 704.865 107.36 704.505 106.5C704.152 105.633 703.975 104.663 703.975 103.59C703.975 102.503 704.152 101.53 704.505 100.67C704.865 99.81 705.392 99.1333 706.085 98.64C706.785 98.1467 707.642 97.9 708.655 97.9C709.655 97.9 710.515 98.15 711.235 98.65C711.962 99.1433 712.518 99.82 712.905 100.68C713.292 101.54 713.485 102.51 713.485 103.59C713.485 104.67 713.292 105.64 712.905 106.5C712.518 107.36 711.962 108.043 711.235 108.55C710.515 109.05 709.652 109.3 708.645 109.3ZM703.675 113.8V98.2H705.265V106.15H705.465V113.8H703.675ZM708.425 107.67C709.138 107.67 709.728 107.49 710.195 107.13C710.662 106.77 711.012 106.283 711.245 105.67C711.478 105.05 711.595 104.357 711.595 103.59C711.595 102.83 711.478 102.143 711.245 101.53C711.018 100.917 710.665 100.43 710.185 100.07C709.712 99.71 709.108 99.53 708.375 99.53C707.675 99.53 707.095 99.7033 706.635 100.05C706.175 100.39 705.832 100.867 705.605 101.48C705.378 102.087 705.265 102.79 705.265 103.59C705.265 104.377 705.375 105.08 705.595 105.7C705.822 106.313 706.168 106.797 706.635 107.15C707.102 107.497 707.698 107.67 708.425 107.67ZM714.087 109L718.447 103.6L714.297 98.2H716.277L720.287 103.5V98.2H721.907V103.5L725.917 98.2H727.897L723.747 103.6L728.107 109H726.037L721.907 103.7V109H720.287V103.7L716.157 109H714.087ZM729.691 109L729.701 98.2H731.501V103.4L736.031 98.2H738.341L733.571 103.6L738.901 109H736.411L731.501 103.8V109H729.691ZM742.966 109.3C742.159 109.3 741.483 109.153 740.936 108.86C740.396 108.56 739.986 108.167 739.706 107.68C739.433 107.193 739.296 106.66 739.296 106.08C739.296 105.513 739.403 105.023 739.616 104.61C739.836 104.19 740.143 103.843 740.536 103.57C740.929 103.29 741.399 103.07 741.946 102.91C742.459 102.77 743.033 102.65 743.666 102.55C744.306 102.443 744.953 102.347 745.606 102.26C746.259 102.173 746.869 102.09 747.436 102.01L746.796 102.38C746.816 101.42 746.623 100.71 746.216 100.25C745.816 99.79 745.123 99.56 744.136 99.56C743.483 99.56 742.909 99.71 742.416 100.01C741.929 100.303 741.586 100.783 741.386 101.45L739.696 100.94C739.956 99.9933 740.459 99.25 741.206 98.71C741.953 98.17 742.936 97.9 744.156 97.9C745.136 97.9 745.976 98.0767 746.676 98.43C747.383 98.7767 747.889 99.3033 748.196 100.01C748.349 100.343 748.446 100.707 748.486 101.1C748.526 101.487 748.546 101.893 748.546 102.32V109H746.966V106.41L747.336 106.65C746.929 107.523 746.359 108.183 745.626 108.63C744.899 109.077 744.013 109.3 742.966 109.3ZM743.236 107.81C743.876 107.81 744.429 107.697 744.896 107.47C745.369 107.237 745.749 106.933 746.036 106.56C746.323 106.18 746.509 105.767 746.596 105.32C746.696 104.987 746.749 104.617 746.756 104.21C746.769 103.797 746.776 103.48 746.776 103.26L747.396 103.53C746.816 103.61 746.246 103.687 745.686 103.76C745.126 103.833 744.596 103.913 744.096 104C743.596 104.08 743.146 104.177 742.746 104.29C742.453 104.383 742.176 104.503 741.916 104.65C741.663 104.797 741.456 104.987 741.296 105.22C741.143 105.447 741.066 105.73 741.066 106.07C741.066 106.363 741.139 106.643 741.286 106.91C741.439 107.177 741.673 107.393 741.986 107.56C742.306 107.727 742.723 107.81 743.236 107.81ZM763.99 98.2V109H762.27V101.04L756.61 109H755.14V98.2H756.86V106.05L762.53 98.2H763.99ZM775.755 109.3C774.741 109.3 773.888 109.05 773.195 108.55C772.501 108.043 771.975 107.36 771.615 106.5C771.261 105.633 771.085 104.663 771.085 103.59C771.085 102.503 771.261 101.53 771.615 100.67C771.975 99.81 772.501 99.1333 773.195 98.64C773.895 98.1467 774.751 97.9 775.765 97.9C776.765 97.9 777.625 98.15 778.345 98.65C779.071 99.1433 779.628 99.82 780.015 100.68C780.401 101.54 780.595 102.51 780.595 103.59C780.595 104.67 780.401 105.64 780.015 106.5C779.628 107.36 779.071 108.043 778.345 108.55C777.625 109.05 776.761 109.3 775.755 109.3ZM770.785 113.8V98.2H772.375V106.15H772.575V113.8H770.785ZM775.535 107.67C776.248 107.67 776.838 107.49 777.305 107.13C777.771 106.77 778.121 106.283 778.355 105.67C778.588 105.05 778.705 104.357 778.705 103.59C778.705 102.83 778.588 102.143 778.355 101.53C778.128 100.917 777.775 100.43 777.295 100.07C776.821 99.71 776.218 99.53 775.485 99.53C774.785 99.53 774.205 99.7033 773.745 100.05C773.285 100.39 772.941 100.867 772.715 101.48C772.488 102.087 772.375 102.79 772.375 103.59C772.375 104.377 772.485 105.08 772.705 105.7C772.931 106.313 773.278 106.797 773.745 107.15C774.211 107.497 774.808 107.67 775.535 107.67ZM785.857 109.3C785.05 109.3 784.373 109.153 783.827 108.86C783.287 108.56 782.877 108.167 782.597 107.68C782.323 107.193 782.187 106.66 782.187 106.08C782.187 105.513 782.293 105.023 782.507 104.61C782.727 104.19 783.033 103.843 783.427 103.57C783.82 103.29 784.29 103.07 784.837 102.91C785.35 102.77 785.923 102.65 786.557 102.55C787.197 102.443 787.843 102.347 788.497 102.26C789.15 102.173 789.76 102.09 790.327 102.01L789.687 102.38C789.707 101.42 789.513 100.71 789.107 100.25C788.707 99.79 788.013 99.56 787.027 99.56C786.373 99.56 785.8 99.71 785.307 100.01C784.82 100.303 784.477 100.783 784.277 101.45L782.587 100.94C782.847 99.9933 783.35 99.25 784.097 98.71C784.843 98.17 785.827 97.9 787.047 97.9C788.027 97.9 788.867 98.0767 789.567 98.43C790.273 98.7767 790.78 99.3033 791.087 100.01C791.24 100.343 791.337 100.707 791.377 101.1C791.417 101.487 791.437 101.893 791.437 102.32V109H789.857V106.41L790.227 106.65C789.82 107.523 789.25 108.183 788.517 108.63C787.79 109.077 786.903 109.3 785.857 109.3ZM786.127 107.81C786.767 107.81 787.32 107.697 787.787 107.47C788.26 107.237 788.64 106.933 788.927 106.56C789.213 106.18 789.4 105.767 789.487 105.32C789.587 104.987 789.64 104.617 789.647 104.21C789.66 103.797 789.667 103.48 789.667 103.26L790.287 103.53C789.707 103.61 789.137 103.687 788.577 103.76C788.017 103.833 787.487 103.913 786.987 104C786.487 104.08 786.037 104.177 785.637 104.29C785.343 104.383 785.067 104.503 784.807 104.65C784.553 104.797 784.347 104.987 784.187 105.22C784.033 105.447 783.957 105.73 783.957 106.07C783.957 106.363 784.03 106.643 784.177 106.91C784.33 107.177 784.563 107.393 784.877 107.56C785.197 107.727 785.613 107.81 786.127 107.81ZM797.907 109.3C796.84 109.3 795.897 109.07 795.077 108.61C794.257 108.143 793.61 107.503 793.137 106.69L794.557 105.77C794.95 106.363 795.42 106.82 795.967 107.14C796.513 107.453 797.137 107.61 797.837 107.61C798.57 107.61 799.153 107.443 799.587 107.11C800.02 106.77 800.237 106.313 800.237 105.74C800.237 105.313 800.13 104.987 799.917 104.76C799.703 104.533 799.397 104.377 798.997 104.29C798.597 104.203 798.12 104.16 797.567 104.16H796.447V102.69H797.557C798.257 102.69 798.827 102.577 799.267 102.35C799.707 102.123 799.927 101.737 799.927 101.19C799.927 100.63 799.72 100.223 799.307 99.97C798.9 99.71 798.413 99.58 797.847 99.58C797.247 99.58 796.673 99.7067 796.127 99.96C795.58 100.207 795.11 100.52 794.717 100.9L793.637 99.69C794.197 99.1167 794.84 98.6767 795.567 98.37C796.3 98.0567 797.097 97.9 797.957 97.9C798.65 97.9 799.283 98.0233 799.857 98.27C800.437 98.51 800.897 98.8667 801.237 99.34C801.583 99.8067 801.757 100.377 801.757 101.05C801.757 101.623 801.623 102.133 801.357 102.58C801.09 103.027 800.697 103.417 800.177 103.75L800.107 103.12C800.547 103.227 800.91 103.423 801.197 103.71C801.49 103.99 801.707 104.323 801.847 104.71C801.987 105.097 802.057 105.5 802.057 105.92C802.057 106.627 801.87 107.233 801.497 107.74C801.13 108.24 800.633 108.627 800.007 108.9C799.38 109.167 798.68 109.3 797.907 109.3ZM804.242 109V98.2H808.842C809.115 98.2 809.408 98.2167 809.722 98.25C810.042 98.2767 810.332 98.3267 810.592 98.4C811.172 98.5533 811.648 98.87 812.022 99.35C812.402 99.8233 812.592 100.423 812.592 101.15C812.592 101.557 812.528 101.91 812.402 102.21C812.282 102.51 812.108 102.77 811.882 102.99C811.782 103.09 811.672 103.18 811.552 103.26C811.432 103.34 811.312 103.403 811.192 103.45C811.425 103.49 811.662 103.58 811.902 103.72C812.282 103.927 812.578 104.217 812.792 104.59C813.012 104.963 813.122 105.44 813.122 106.02C813.122 106.753 812.945 107.36 812.592 107.84C812.238 108.313 811.752 108.64 811.132 108.82C810.872 108.893 810.585 108.943 810.272 108.97C809.958 108.99 809.655 109 809.362 109H804.242ZM806.042 107.55H809.262C809.402 107.55 809.568 107.537 809.762 107.51C809.962 107.483 810.138 107.45 810.292 107.41C810.638 107.31 810.888 107.123 811.042 106.85C811.202 106.577 811.282 106.28 811.282 105.96C811.282 105.533 811.162 105.187 810.922 104.92C810.688 104.653 810.378 104.487 809.992 104.42C809.852 104.38 809.698 104.357 809.532 104.35C809.372 104.343 809.228 104.34 809.102 104.34H806.042V107.55ZM806.042 102.87H808.722C808.908 102.87 809.105 102.86 809.312 102.84C809.518 102.813 809.698 102.77 809.852 102.71C810.158 102.597 810.382 102.41 810.522 102.15C810.668 101.883 810.742 101.593 810.742 101.28C810.742 100.933 810.662 100.63 810.502 100.37C810.348 100.103 810.112 99.92 809.792 99.82C809.578 99.74 809.338 99.6967 809.072 99.69C808.812 99.6767 808.645 99.67 808.572 99.67H806.042V102.87ZM823.97 98.2V109H822.25V101.04L816.59 109H815.12V98.2H816.84V106.05L822.51 98.2H823.97ZM829.631 109V99.82H825.871V98.2H835.171V99.82H831.411V109H829.631ZM845.904 98.2V109H844.184V101.04L838.524 109H837.054V98.2H838.774V106.05L844.444 98.2H845.904ZM853.385 109.3C852.325 109.3 851.398 109.067 850.605 108.6C849.818 108.127 849.205 107.47 848.765 106.63C848.325 105.783 848.105 104.797 848.105 103.67C848.105 102.49 848.321 101.47 848.755 100.61C849.188 99.7433 849.791 99.0767 850.565 98.61C851.345 98.1367 852.258 97.9 853.305 97.9C854.391 97.9 855.315 98.15 856.075 98.65C856.841 99.15 857.415 99.8633 857.795 100.79C858.181 101.717 858.348 102.82 858.295 104.1H856.495V103.46C856.475 102.133 856.205 101.143 855.685 100.49C855.165 99.83 854.391 99.5 853.365 99.5C852.265 99.5 851.428 99.8533 850.855 100.56C850.281 101.267 849.995 102.28 849.995 103.6C849.995 104.873 850.281 105.86 850.855 106.56C851.428 107.26 852.245 107.61 853.305 107.61C854.018 107.61 854.638 107.447 855.165 107.12C855.691 106.793 856.105 106.323 856.405 105.71L858.115 106.3C857.695 107.253 857.061 107.993 856.215 108.52C855.375 109.04 854.431 109.3 853.385 109.3ZM849.395 104.1V102.67H857.375V104.1H849.395ZM641.4 129V118.2H648.9V119.89H643.18V129H641.4ZM655.199 129.3C654.126 129.3 653.199 129.057 652.419 128.57C651.646 128.083 651.049 127.41 650.629 126.55C650.209 125.69 649.999 124.703 649.999 123.59C649.999 122.457 650.213 121.463 650.639 120.61C651.066 119.757 651.669 119.093 652.449 118.62C653.229 118.14 654.146 117.9 655.199 117.9C656.279 117.9 657.209 118.143 657.989 118.63C658.769 119.11 659.366 119.78 659.779 120.64C660.199 121.493 660.409 122.477 660.409 123.59C660.409 124.717 660.199 125.71 659.779 126.57C659.359 127.423 658.759 128.093 657.979 128.58C657.199 129.06 656.273 129.3 655.199 129.3ZM655.199 127.61C656.319 127.61 657.153 127.237 657.699 126.49C658.246 125.743 658.519 124.777 658.519 123.59C658.519 122.37 658.243 121.4 657.689 120.68C657.136 119.953 656.306 119.59 655.199 119.59C654.446 119.59 653.826 119.76 653.339 120.1C652.853 120.44 652.489 120.91 652.249 121.51C652.009 122.11 651.889 122.803 651.889 123.59C651.889 124.803 652.169 125.777 652.729 126.51C653.289 127.243 654.113 127.61 655.199 127.61ZM665.237 129V119.82H661.477V118.2H670.777V119.82H667.017V129H665.237ZM677.074 129.3C676.001 129.3 675.074 129.057 674.294 128.57C673.521 128.083 672.924 127.41 672.504 126.55C672.084 125.69 671.874 124.703 671.874 123.59C671.874 122.457 672.088 121.463 672.514 120.61C672.941 119.757 673.544 119.093 674.324 118.62C675.104 118.14 676.021 117.9 677.074 117.9C678.154 117.9 679.084 118.143 679.864 118.63C680.644 119.11 681.241 119.78 681.654 120.64C682.074 121.493 682.284 122.477 682.284 123.59C682.284 124.717 682.074 125.71 681.654 126.57C681.234 127.423 680.634 128.093 679.854 128.58C679.074 129.06 678.148 129.3 677.074 129.3ZM677.074 127.61C678.194 127.61 679.028 127.237 679.574 126.49C680.121 125.743 680.394 124.777 680.394 123.59C680.394 122.37 680.118 121.4 679.564 120.68C679.011 119.953 678.181 119.59 677.074 119.59C676.321 119.59 675.701 119.76 675.214 120.1C674.728 120.44 674.364 120.91 674.124 121.51C673.884 122.11 673.764 122.803 673.764 123.59C673.764 124.803 674.044 125.777 674.604 126.51C675.164 127.243 675.988 127.61 677.074 127.61ZM684.476 129V118.2H689.076C689.349 118.2 689.643 118.217 689.956 118.25C690.276 118.277 690.566 118.327 690.826 118.4C691.406 118.553 691.883 118.87 692.256 119.35C692.636 119.823 692.826 120.423 692.826 121.15C692.826 121.557 692.763 121.91 692.636 122.21C692.516 122.51 692.343 122.77 692.116 122.99C692.016 123.09 691.906 123.18 691.786 123.26C691.666 123.34 691.546 123.403 691.426 123.45C691.659 123.49 691.896 123.58 692.136 123.72C692.516 123.927 692.813 124.217 693.026 124.59C693.246 124.963 693.356 125.44 693.356 126.02C693.356 126.753 693.179 127.36 692.826 127.84C692.473 128.313 691.986 128.64 691.366 128.82C691.106 128.893 690.819 128.943 690.506 128.97C690.193 128.99 689.889 129 689.596 129H684.476ZM686.276 127.55H689.496C689.636 127.55 689.803 127.537 689.996 127.51C690.196 127.483 690.373 127.45 690.526 127.41C690.873 127.31 691.123 127.123 691.276 126.85C691.436 126.577 691.516 126.28 691.516 125.96C691.516 125.533 691.396 125.187 691.156 124.92C690.923 124.653 690.613 124.487 690.226 124.42C690.086 124.38 689.933 124.357 689.766 124.35C689.606 124.343 689.463 124.34 689.336 124.34H686.276V127.55ZM686.276 122.87H688.956C689.143 122.87 689.339 122.86 689.546 122.84C689.753 122.813 689.933 122.77 690.086 122.71C690.393 122.597 690.616 122.41 690.756 122.15C690.903 121.883 690.976 121.593 690.976 121.28C690.976 120.933 690.896 120.63 690.736 120.37C690.583 120.103 690.346 119.92 690.026 119.82C689.813 119.74 689.573 119.697 689.306 119.69C689.046 119.677 688.879 119.67 688.806 119.67H686.276V122.87ZM699.965 129.3C698.892 129.3 697.965 129.057 697.185 128.57C696.412 128.083 695.815 127.41 695.395 126.55C694.975 125.69 694.765 124.703 694.765 123.59C694.765 122.457 694.978 121.463 695.405 120.61C695.832 119.757 696.435 119.093 697.215 118.62C697.995 118.14 698.912 117.9 699.965 117.9C701.045 117.9 701.975 118.143 702.755 118.63C703.535 119.11 704.132 119.78 704.545 120.64C704.965 121.493 705.175 122.477 705.175 123.59C705.175 124.717 704.965 125.71 704.545 126.57C704.125 127.423 703.525 128.093 702.745 128.58C701.965 129.06 701.038 129.3 699.965 129.3ZM699.965 127.61C701.085 127.61 701.918 127.237 702.465 126.49C703.012 125.743 703.285 124.777 703.285 123.59C703.285 122.37 703.008 121.4 702.455 120.68C701.902 119.953 701.072 119.59 699.965 119.59C699.212 119.59 698.592 119.76 698.105 120.1C697.618 120.44 697.255 120.91 697.015 121.51C696.775 122.11 696.655 122.803 696.655 123.59C696.655 124.803 696.935 125.777 697.495 126.51C698.055 127.243 698.878 127.61 699.965 127.61ZM707.377 129V118.2H714.877V119.89H709.157V129H707.377ZM721.176 129.3C720.102 129.3 719.176 129.057 718.396 128.57C717.622 128.083 717.026 127.41 716.606 126.55C716.186 125.69 715.976 124.703 715.976 123.59C715.976 122.457 716.189 121.463 716.616 120.61C717.042 119.757 717.646 119.093 718.426 118.62C719.206 118.14 720.122 117.9 721.176 117.9C722.256 117.9 723.186 118.143 723.966 118.63C724.746 119.11 725.342 119.78 725.756 120.64C726.176 121.493 726.386 122.477 726.386 123.59C726.386 124.717 726.176 125.71 725.756 126.57C725.336 127.423 724.736 128.093 723.956 128.58C723.176 129.06 722.249 129.3 721.176 129.3ZM721.176 127.61C722.296 127.61 723.129 127.237 723.676 126.49C724.222 125.743 724.496 124.777 724.496 123.59C724.496 122.37 724.219 121.4 723.666 120.68C723.112 119.953 722.282 119.59 721.176 119.59C720.422 119.59 719.802 119.76 719.316 120.1C718.829 120.44 718.466 120.91 718.226 121.51C717.986 122.11 717.866 122.803 717.866 123.59C717.866 124.803 718.146 125.777 718.706 126.51C719.266 127.243 720.089 127.61 721.176 127.61ZM737.551 129.3C736.538 129.3 735.685 129.05 734.991 128.55C734.298 128.043 733.771 127.36 733.411 126.5C733.058 125.633 732.881 124.663 732.881 123.59C732.881 122.503 733.058 121.53 733.411 120.67C733.771 119.81 734.298 119.133 734.991 118.64C735.691 118.147 736.548 117.9 737.561 117.9C738.561 117.9 739.421 118.15 740.141 118.65C740.868 119.143 741.425 119.82 741.811 120.68C742.198 121.54 742.391 122.51 742.391 123.59C742.391 124.67 742.198 125.64 741.811 126.5C741.425 127.36 740.868 128.043 740.141 128.55C739.421 129.05 738.558 129.3 737.551 129.3ZM732.581 133.8V118.2H734.171V126.15H734.371V133.8H732.581ZM737.331 127.67C738.045 127.67 738.635 127.49 739.101 127.13C739.568 126.77 739.918 126.283 740.151 125.67C740.385 125.05 740.501 124.357 740.501 123.59C740.501 122.83 740.385 122.143 740.151 121.53C739.925 120.917 739.571 120.43 739.091 120.07C738.618 119.71 738.015 119.53 737.281 119.53C736.581 119.53 736.001 119.703 735.541 120.05C735.081 120.39 734.738 120.867 734.511 121.48C734.285 122.087 734.171 122.79 734.171 123.59C734.171 124.377 734.281 125.08 734.501 125.7C734.728 126.313 735.075 126.797 735.541 127.15C736.008 127.497 736.605 127.67 737.331 127.67ZM749.264 129.3C748.204 129.3 747.277 129.067 746.484 128.6C745.697 128.127 745.084 127.47 744.644 126.63C744.204 125.783 743.984 124.797 743.984 123.67C743.984 122.49 744.2 121.47 744.634 120.61C745.067 119.743 745.67 119.077 746.444 118.61C747.224 118.137 748.137 117.9 749.184 117.9C750.27 117.9 751.194 118.15 751.954 118.65C752.72 119.15 753.294 119.863 753.674 120.79C754.06 121.717 754.227 122.82 754.174 124.1H752.374V123.46C752.354 122.133 752.084 121.143 751.564 120.49C751.044 119.83 750.27 119.5 749.244 119.5C748.144 119.5 747.307 119.853 746.734 120.56C746.16 121.267 745.874 122.28 745.874 123.6C745.874 124.873 746.16 125.86 746.734 126.56C747.307 127.26 748.124 127.61 749.184 127.61C749.897 127.61 750.517 127.447 751.044 127.12C751.57 126.793 751.984 126.323 752.284 125.71L753.994 126.3C753.574 127.253 752.94 127.993 752.094 128.52C751.254 129.04 750.31 129.3 749.264 129.3ZM745.274 124.1V122.67H753.254V124.1H745.274ZM756.39 129V118.2H758.11V127.38H761.83V118.2H763.55V127.38H767.26V118.2H768.98V129H756.39ZM776.451 129.3C775.391 129.3 774.464 129.067 773.671 128.6C772.884 128.127 772.271 127.47 771.831 126.63C771.391 125.783 771.171 124.797 771.171 123.67C771.171 122.49 771.388 121.47 771.821 120.61C772.254 119.743 772.858 119.077 773.631 118.61C774.411 118.137 775.324 117.9 776.371 117.9C777.458 117.9 778.381 118.15 779.141 118.65C779.908 119.15 780.481 119.863 780.861 120.79C781.248 121.717 781.414 122.82 781.361 124.1H779.561V123.46C779.541 122.133 779.271 121.143 778.751 120.49C778.231 119.83 777.458 119.5 776.431 119.5C775.331 119.5 774.494 119.853 773.921 120.56C773.348 121.267 773.061 122.28 773.061 123.6C773.061 124.873 773.348 125.86 773.921 126.56C774.494 127.26 775.311 127.61 776.371 127.61C777.084 127.61 777.704 127.447 778.231 127.12C778.758 126.793 779.171 126.323 779.471 125.71L781.181 126.3C780.761 127.253 780.128 127.993 779.281 128.52C778.441 129.04 777.498 129.3 776.451 129.3ZM772.461 124.1V122.67H780.441V124.1H772.461ZM783.578 129V118.2H785.358V122.75H791.038V118.2H792.818V129H791.038V124.44H785.358V129H783.578ZM804.459 118.2V129H802.739V121.04L797.079 129H795.609V118.2H797.329V126.05L802.999 118.2H804.459ZM813.929 129V125.09H811.599C811.326 125.09 811.023 125.08 810.689 125.06C810.363 125.033 810.056 124.997 809.769 124.95C808.989 124.803 808.329 124.46 807.789 123.92C807.256 123.38 806.989 122.633 806.989 121.68C806.989 120.753 807.239 120.01 807.739 119.45C808.246 118.883 808.869 118.517 809.609 118.35C809.943 118.27 810.279 118.227 810.619 118.22C810.966 118.207 811.259 118.2 811.499 118.2H815.709L815.719 129H813.929ZM806.659 129L809.529 124.6H811.449L808.579 129H806.659ZM811.469 123.62H813.929V119.67H811.469C811.316 119.67 811.113 119.677 810.859 119.69C810.613 119.703 810.376 119.743 810.149 119.81C809.936 119.87 809.726 119.98 809.519 120.14C809.319 120.3 809.153 120.507 809.019 120.76C808.886 121.013 808.819 121.313 808.819 121.66C808.819 122.16 808.959 122.567 809.239 122.88C809.519 123.187 809.859 123.393 810.259 123.5C810.479 123.553 810.696 123.587 810.909 123.6C811.129 123.613 811.316 123.62 811.469 123.62Z" fill="white"/>
              </svg>