<svg width="320" height="108" viewBox="0 0 320 108" fill="none" xmlns="http://www.w3.org/2000/svg">
              <path d="M287.196 108H132.861C127.413 108 123 103.665 123 98.3139V9.6861C123 4.33453 127.413 0 132.861 0H287.206C290.913 0 294.31 2.04377 295.992 5.29345L318.928 49.5444C320.357 52.3001 320.357 55.5643 318.928 58.3248L295.987 102.702C294.305 105.951 290.908 108 287.196 108Z" fill="#254E6C"/>
              <path d="M132.088 108H9.89312C4.42717 108 0 103.665 0 98.3139V9.6861C0 4.33453 4.42717 0 9.89312 0H132.098C135.818 0 139.226 2.04377 140.913 5.29345L163.924 49.5444C165.359 52.3001 165.359 55.5643 163.924 58.3248L140.908 102.702C139.221 105.951 135.813 108 132.088 108Z" fill="#F2F2F2"/>
              <path d="M191.124 38.21C190.121 38.21 189.269 37.9883 188.569 37.545C187.869 37.1017 187.335 36.4857 186.966 35.697C186.602 34.9083 186.42 33.996 186.42 32.96C186.42 31.924 186.602 31.0117 186.966 30.223C187.335 29.4343 187.869 28.8183 188.569 28.375C189.269 27.9317 190.121 27.71 191.124 27.71C192.132 27.71 192.986 27.9317 193.686 28.375C194.386 28.8183 194.918 29.4343 195.282 30.223C195.646 31.0117 195.828 31.924 195.828 32.96C195.828 33.996 195.646 34.9083 195.282 35.697C194.918 36.4857 194.386 37.1017 193.686 37.545C192.986 37.9883 192.132 38.21 191.124 38.21ZM191.124 37.02C191.875 37.0247 192.501 36.8567 193 36.516C193.504 36.1707 193.88 35.6923 194.127 35.081C194.379 34.4697 194.505 33.7627 194.505 32.96C194.505 32.1527 194.379 31.4457 194.127 30.839C193.88 30.2323 193.504 29.7587 193 29.418C192.501 29.0773 191.875 28.9047 191.124 28.9C190.373 28.8953 189.747 29.0633 189.248 29.404C188.753 29.7447 188.38 30.2207 188.128 30.832C187.876 31.4433 187.748 32.1527 187.743 32.96C187.738 33.7627 187.862 34.4673 188.114 35.074C188.366 35.6807 188.742 36.1567 189.241 36.502C189.745 36.8427 190.373 37.0153 191.124 37.02ZM200.307 38.217C199.593 38.2123 198.984 38.0583 198.48 37.755C197.976 37.447 197.584 36.9967 197.304 36.404C197.024 35.8113 196.868 35.0857 196.835 34.227C196.816 33.8303 196.821 33.394 196.849 32.918C196.882 32.442 196.933 31.9847 197.003 31.546C197.078 31.1073 197.171 30.7457 197.283 30.461C197.409 30.1203 197.586 29.8053 197.815 29.516C198.048 29.222 198.31 28.9793 198.599 28.788C198.893 28.5873 199.222 28.431 199.586 28.319C199.95 28.207 200.33 28.1207 200.727 28.06C201.128 27.9947 201.53 27.9387 201.931 27.892C202.332 27.8407 202.715 27.78 203.079 27.71L203.205 28.83C202.948 28.886 202.645 28.935 202.295 28.977C201.945 29.0143 201.581 29.0587 201.203 29.11C200.83 29.1613 200.47 29.2337 200.125 29.327C199.784 29.4157 199.49 29.5393 199.243 29.698C198.879 29.9173 198.599 30.2463 198.403 30.685C198.212 31.119 198.095 31.6067 198.053 32.148C198.342 31.7 198.718 31.371 199.18 31.161C199.642 30.951 200.134 30.846 200.657 30.846C201.334 30.846 201.917 31.0047 202.407 31.322C202.897 31.6347 203.273 32.0663 203.534 32.617C203.8 33.1677 203.933 33.7953 203.933 34.5C203.933 35.2467 203.784 35.9 203.485 36.46C203.186 37.02 202.764 37.454 202.218 37.762C201.677 38.07 201.04 38.2217 200.307 38.217ZM200.384 37.034C201.117 37.034 201.672 36.8077 202.05 36.355C202.428 35.8977 202.617 35.291 202.617 34.535C202.617 33.7603 202.421 33.1513 202.029 32.708C201.637 32.26 201.086 32.036 200.377 32.036C199.658 32.036 199.108 32.26 198.725 32.708C198.347 33.1513 198.158 33.7603 198.158 34.535C198.158 35.3143 198.349 35.9257 198.732 36.369C199.115 36.8123 199.665 37.034 200.384 37.034ZM206.255 41.36L207.718 37.384L207.739 38.56L204.435 30.44H205.744L208.334 36.971H207.886L210.315 30.44H211.582L207.466 41.36H206.255ZM217.288 38V35.277C217.036 35.403 216.73 35.5103 216.371 35.599C216.016 35.6877 215.636 35.732 215.23 35.732C214.46 35.732 213.839 35.5593 213.368 35.214C212.896 34.8687 212.588 34.3717 212.444 33.723C212.402 33.527 212.371 33.324 212.353 33.114C212.339 32.904 212.329 32.7127 212.325 32.54C212.32 32.3673 212.318 32.2413 212.318 32.162V30.44H213.578V32.162C213.578 32.2973 213.582 32.4653 213.592 32.666C213.601 32.862 213.624 33.0533 213.662 33.24C213.755 33.702 213.949 34.0497 214.243 34.283C214.541 34.5163 214.961 34.633 215.503 34.633C215.867 34.633 216.203 34.5863 216.511 34.493C216.819 34.3997 217.078 34.276 217.288 34.122V30.44H218.541V38H217.288ZM223.779 38.21C223.037 38.21 222.389 38.0467 221.833 37.72C221.283 37.3887 220.853 36.929 220.545 36.341C220.237 35.7483 220.083 35.0577 220.083 34.269C220.083 33.443 220.235 32.729 220.538 32.127C220.842 31.5203 221.264 31.0537 221.805 30.727C222.351 30.3957 222.991 30.23 223.723 30.23C224.484 30.23 225.13 30.405 225.662 30.755C226.199 31.105 226.6 31.6043 226.866 32.253C227.137 32.9017 227.254 33.674 227.216 34.57H225.956V34.122C225.942 33.1933 225.753 32.5003 225.389 32.043C225.025 31.581 224.484 31.35 223.765 31.35C222.995 31.35 222.41 31.5973 222.008 32.092C221.607 32.5867 221.406 33.296 221.406 34.22C221.406 35.1113 221.607 35.802 222.008 36.292C222.41 36.782 222.981 37.027 223.723 37.027C224.223 37.027 224.657 36.9127 225.025 36.684C225.394 36.4553 225.683 36.1263 225.893 35.697L227.09 36.11C226.796 36.7773 226.353 37.2953 225.76 37.664C225.172 38.028 224.512 38.21 223.779 38.21ZM220.986 34.57V33.569H226.572V34.57H220.986ZM228.768 38V30.44H230.014V33.625H233.99V30.44H235.236V38H233.99V34.808H230.014V38H228.768ZM243.385 30.44V38H242.181V32.428L238.219 38H237.19V30.44H238.394V35.935L242.363 30.44H243.385ZM248.621 38.21C247.879 38.21 247.231 38.0467 246.675 37.72C246.125 37.3887 245.695 36.929 245.387 36.341C245.079 35.7483 244.925 35.0577 244.925 34.269C244.925 33.443 245.077 32.729 245.38 32.127C245.684 31.5203 246.106 31.0537 246.647 30.727C247.193 30.3957 247.833 30.23 248.565 30.23C249.326 30.23 249.972 30.405 250.504 30.755C251.041 31.105 251.442 31.6043 251.708 32.253C251.979 32.9017 252.096 33.674 252.058 34.57H250.798V34.122C250.784 33.1933 250.595 32.5003 250.231 32.043C249.867 31.581 249.326 31.35 248.607 31.35C247.837 31.35 247.252 31.5973 246.85 32.092C246.449 32.5867 246.248 33.296 246.248 34.22C246.248 35.1113 246.449 35.802 246.85 36.292C247.252 36.782 247.823 37.027 248.565 37.027C249.065 37.027 249.499 36.9127 249.867 36.684C250.236 36.4553 250.525 36.1263 250.735 35.697L251.932 36.11C251.638 36.7773 251.195 37.2953 250.602 37.664C250.014 38.028 249.354 38.21 248.621 38.21ZM245.828 34.57V33.569H251.414V34.57H245.828ZM186.973 52V44.44H193.168V52H191.922V45.623H188.219V52H186.973ZM198.348 52.21C197.597 52.21 196.948 52.0397 196.402 51.699C195.861 51.3583 195.443 50.887 195.149 50.285C194.855 49.683 194.708 48.9923 194.708 48.213C194.708 47.4197 194.858 46.7243 195.156 46.127C195.455 45.5297 195.877 45.0653 196.423 44.734C196.969 44.398 197.611 44.23 198.348 44.23C199.104 44.23 199.755 44.4003 200.301 44.741C200.847 45.077 201.265 45.546 201.554 46.148C201.848 46.7453 201.995 47.4337 201.995 48.213C201.995 49.0017 201.848 49.697 201.554 50.299C201.26 50.8963 200.84 51.3653 200.294 51.706C199.748 52.042 199.1 52.21 198.348 52.21ZM198.348 51.027C199.132 51.027 199.716 50.7657 200.098 50.243C200.481 49.7203 200.672 49.0437 200.672 48.213C200.672 47.359 200.479 46.68 200.091 46.176C199.704 45.6673 199.123 45.413 198.348 45.413C197.821 45.413 197.387 45.532 197.046 45.77C196.706 46.008 196.451 46.337 196.283 46.757C196.115 47.177 196.031 47.6623 196.031 48.213C196.031 49.0623 196.227 49.7437 196.619 50.257C197.011 50.7703 197.588 51.027 198.348 51.027ZM202.837 52V50.929C203.117 50.9803 203.329 50.971 203.474 50.901C203.623 50.8263 203.733 50.698 203.803 50.516C203.877 50.3293 203.938 50.096 203.985 49.816C204.064 49.3727 204.132 48.878 204.188 48.332C204.248 47.786 204.302 47.1887 204.349 46.54C204.4 45.8867 204.447 45.1867 204.489 44.44H209.774V52H208.528V45.623H205.623C205.595 46.0523 205.56 46.4933 205.518 46.946C205.48 47.3987 205.441 47.8397 205.399 48.269C205.357 48.6937 205.31 49.0903 205.259 49.459C205.212 49.823 205.161 50.138 205.105 50.404C205.016 50.8613 204.892 51.2277 204.734 51.503C204.575 51.7737 204.346 51.9487 204.048 52.028C203.749 52.112 203.345 52.1027 202.837 52ZM211.74 52L211.733 44.44H212.986V47.177H214.617C214.836 47.177 215.06 47.1817 215.289 47.191C215.517 47.2003 215.716 47.2213 215.884 47.254C216.276 47.3287 216.619 47.4593 216.913 47.646C217.207 47.8327 217.435 48.087 217.599 48.409C217.762 48.7263 217.844 49.1207 217.844 49.592C217.844 50.2453 217.673 50.7633 217.333 51.146C216.997 51.524 216.556 51.776 216.01 51.902C215.823 51.944 215.608 51.972 215.366 51.986C215.128 51.9953 214.901 52 214.687 52H211.74ZM212.986 50.971H214.708C214.848 50.971 215.004 50.9663 215.177 50.957C215.349 50.9477 215.503 50.9243 215.639 50.887C215.877 50.817 216.089 50.6793 216.276 50.474C216.467 50.2687 216.563 49.9747 216.563 49.592C216.563 49.2047 216.469 48.906 216.283 48.696C216.101 48.486 215.86 48.3483 215.562 48.283C215.426 48.2503 215.284 48.2293 215.135 48.22C214.985 48.2107 214.843 48.206 214.708 48.206H212.986V50.971ZM222.091 52.21C221.345 52.21 220.684 52.049 220.11 51.727C219.536 51.4003 219.084 50.9523 218.752 50.383L219.746 49.739C220.022 50.1543 220.351 50.474 220.733 50.698C221.116 50.9173 221.552 51.027 222.042 51.027C222.556 51.027 222.964 50.9103 223.267 50.677C223.571 50.439 223.722 50.1193 223.722 49.718C223.722 49.4193 223.648 49.1907 223.498 49.032C223.349 48.8733 223.134 48.7637 222.854 48.703C222.574 48.6423 222.241 48.612 221.853 48.612H221.069V47.583H221.846C222.336 47.583 222.735 47.5037 223.043 47.345C223.351 47.1863 223.505 46.9157 223.505 46.533C223.505 46.141 223.361 45.8563 223.071 45.679C222.787 45.497 222.446 45.406 222.049 45.406C221.629 45.406 221.228 45.4947 220.845 45.672C220.463 45.8447 220.134 46.064 219.858 46.33L219.102 45.483C219.494 45.0817 219.945 44.7737 220.453 44.559C220.967 44.3397 221.524 44.23 222.126 44.23C222.612 44.23 223.055 44.3163 223.456 44.489C223.862 44.657 224.184 44.9067 224.422 45.238C224.665 45.5647 224.786 45.9637 224.786 46.435C224.786 46.8363 224.693 47.1933 224.506 47.506C224.32 47.8187 224.044 48.0917 223.68 48.325L223.631 47.884C223.939 47.9587 224.194 48.0963 224.394 48.297C224.6 48.493 224.751 48.7263 224.849 48.997C224.947 49.2677 224.996 49.55 224.996 49.844C224.996 50.3387 224.866 50.7633 224.604 51.118C224.348 51.468 224 51.7387 223.561 51.93C223.123 52.1167 222.633 52.21 222.091 52.21ZM229.753 52.21C229.001 52.21 228.353 52.0397 227.807 51.699C227.265 51.3583 226.848 50.887 226.554 50.285C226.26 49.683 226.113 48.9923 226.113 48.213C226.113 47.4197 226.262 46.7243 226.561 46.127C226.859 45.5297 227.282 45.0653 227.828 44.734C228.374 44.398 229.015 44.23 229.753 44.23C230.509 44.23 231.16 44.4003 231.706 44.741C232.252 45.077 232.669 45.546 232.959 46.148C233.253 46.7453 233.4 47.4337 233.4 48.213C233.4 49.0017 233.253 49.697 232.959 50.299C232.665 50.8963 232.245 51.3653 231.699 51.706C231.153 52.042 230.504 52.21 229.753 52.21ZM229.753 51.027C230.537 51.027 231.12 50.7657 231.503 50.243C231.885 49.7203 232.077 49.0437 232.077 48.213C232.077 47.359 231.883 46.68 231.496 46.176C231.108 45.6673 230.527 45.413 229.753 45.413C229.225 45.413 228.791 45.532 228.451 45.77C228.11 46.008 227.856 46.337 227.688 46.757C227.52 47.177 227.436 47.6623 227.436 48.213C227.436 49.0623 227.632 49.7437 228.024 50.257C228.416 50.7703 228.992 51.027 229.753 51.027ZM234.934 52V44.44H238.154C238.345 44.44 238.551 44.4517 238.77 44.475C238.994 44.4937 239.197 44.5287 239.379 44.58C239.785 44.6873 240.119 44.909 240.38 45.245C240.646 45.5763 240.779 45.9963 240.779 46.505C240.779 46.7897 240.735 47.037 240.646 47.247C240.562 47.457 240.441 47.639 240.282 47.793C240.212 47.863 240.135 47.926 240.051 47.982C239.967 48.038 239.883 48.0823 239.799 48.115C239.962 48.143 240.128 48.206 240.296 48.304C240.562 48.4487 240.77 48.6517 240.919 48.913C241.073 49.1743 241.15 49.508 241.15 49.914C241.15 50.4273 241.026 50.852 240.779 51.188C240.532 51.5193 240.191 51.748 239.757 51.874C239.575 51.9253 239.374 51.9603 239.155 51.979C238.936 51.993 238.723 52 238.518 52H234.934ZM236.194 50.985H238.448C238.546 50.985 238.663 50.9757 238.798 50.957C238.938 50.9383 239.062 50.915 239.169 50.887C239.412 50.817 239.587 50.6863 239.694 50.495C239.806 50.3037 239.862 50.096 239.862 49.872C239.862 49.5733 239.778 49.3307 239.61 49.144C239.447 48.9573 239.23 48.8407 238.959 48.794C238.861 48.766 238.754 48.7497 238.637 48.745C238.525 48.7403 238.425 48.738 238.336 48.738H236.194V50.985ZM236.194 47.709H238.07C238.201 47.709 238.338 47.702 238.483 47.688C238.628 47.6693 238.754 47.639 238.861 47.597C239.076 47.5177 239.232 47.387 239.33 47.205C239.433 47.0183 239.484 46.8153 239.484 46.596C239.484 46.3533 239.428 46.141 239.316 45.959C239.209 45.7723 239.043 45.644 238.819 45.574C238.67 45.518 238.502 45.4877 238.315 45.483C238.133 45.4737 238.016 45.469 237.965 45.469H236.194V47.709ZM244.705 52.21C244.141 52.21 243.667 52.1073 243.284 51.902C242.906 51.692 242.619 51.4167 242.423 51.076C242.232 50.7353 242.136 50.362 242.136 49.956C242.136 49.5593 242.211 49.2163 242.36 48.927C242.514 48.633 242.729 48.3903 243.004 48.199C243.28 48.003 243.609 47.849 243.991 47.737C244.351 47.639 244.752 47.555 245.195 47.485C245.643 47.4103 246.096 47.3427 246.553 47.282C247.011 47.2213 247.438 47.163 247.834 47.107L247.386 47.366C247.4 46.694 247.265 46.197 246.98 45.875C246.7 45.553 246.215 45.392 245.524 45.392C245.067 45.392 244.666 45.497 244.32 45.707C243.98 45.9123 243.739 46.2483 243.599 46.715L242.416 46.358C242.598 45.6953 242.951 45.175 243.473 44.797C243.996 44.419 244.684 44.23 245.538 44.23C246.224 44.23 246.812 44.3537 247.302 44.601C247.797 44.8437 248.152 45.2123 248.366 45.707C248.474 45.9403 248.541 46.1947 248.569 46.47C248.597 46.7407 248.611 47.0253 248.611 47.324V52H247.505V50.187L247.764 50.355C247.48 50.9663 247.081 51.4283 246.567 51.741C246.059 52.0537 245.438 52.21 244.705 52.21ZM244.894 51.167C245.342 51.167 245.73 51.0877 246.056 50.929C246.388 50.7657 246.654 50.5533 246.854 50.292C247.055 50.026 247.186 49.7367 247.246 49.424C247.316 49.1907 247.354 48.9317 247.358 48.647C247.368 48.3577 247.372 48.136 247.372 47.982L247.806 48.171C247.4 48.227 247.001 48.2807 246.609 48.332C246.217 48.3833 245.846 48.4393 245.496 48.5C245.146 48.556 244.831 48.6237 244.551 48.703C244.346 48.7683 244.152 48.8523 243.97 48.955C243.793 49.0577 243.648 49.1907 243.536 49.354C243.429 49.5127 243.375 49.711 243.375 49.949C243.375 50.1543 243.427 50.3503 243.529 50.537C243.637 50.7237 243.8 50.8753 244.019 50.992C244.243 51.1087 244.535 51.167 244.894 51.167ZM252.433 52V45.574H249.801V44.44H256.311V45.574H253.679V52H252.433ZM260.912 52.21C260.17 52.21 259.522 52.0467 258.966 51.72C258.416 51.3887 257.986 50.929 257.678 50.341C257.37 49.7483 257.216 49.0577 257.216 48.269C257.216 47.443 257.368 46.729 257.671 46.127C257.975 45.5203 258.397 45.0537 258.938 44.727C259.484 44.3957 260.124 44.23 260.856 44.23C261.617 44.23 262.263 44.405 262.795 44.755C263.332 45.105 263.733 45.6043 263.999 46.253C264.27 46.9017 264.387 47.674 264.349 48.57H263.089V48.122C263.075 47.1933 262.886 46.5003 262.522 46.043C262.158 45.581 261.617 45.35 260.898 45.35C260.128 45.35 259.543 45.5973 259.141 46.092C258.74 46.5867 258.539 47.296 258.539 48.22C258.539 49.1113 258.74 49.802 259.141 50.292C259.543 50.782 260.114 51.027 260.856 51.027C261.356 51.027 261.79 50.9127 262.158 50.684C262.527 50.4553 262.816 50.1263 263.026 49.697L264.223 50.11C263.929 50.7773 263.486 51.2953 262.893 51.664C262.305 52.028 261.645 52.21 260.912 52.21ZM258.119 48.57V47.569H263.705V48.57H258.119ZM265.208 52V50.929C265.488 50.9803 265.7 50.971 265.845 50.901C265.994 50.8263 266.104 50.698 266.174 50.516C266.248 50.3293 266.309 50.096 266.356 49.816C266.435 49.3727 266.503 48.878 266.559 48.332C266.619 47.786 266.673 47.1887 266.72 46.54C266.771 45.8867 266.818 45.1867 266.86 44.44H272.145V52H270.899V45.623H267.994C267.966 46.0523 267.931 46.4933 267.889 46.946C267.851 47.3987 267.812 47.8397 267.77 48.269C267.728 48.6937 267.681 49.0903 267.63 49.459C267.583 49.823 267.532 50.138 267.476 50.404C267.387 50.8613 267.263 51.2277 267.105 51.503C266.946 51.7737 266.717 51.9487 266.419 52.028C266.12 52.112 265.716 52.1027 265.208 52ZM277.387 52.21C276.645 52.21 275.996 52.0467 275.441 51.72C274.89 51.3887 274.461 50.929 274.153 50.341C273.845 49.7483 273.691 49.0577 273.691 48.269C273.691 47.443 273.843 46.729 274.146 46.127C274.449 45.5203 274.872 45.0537 275.413 44.727C275.959 44.3957 276.598 44.23 277.331 44.23C278.092 44.23 278.738 44.405 279.27 44.755C279.807 45.105 280.208 45.6043 280.474 46.253C280.745 46.9017 280.861 47.674 280.824 48.57H279.564V48.122C279.55 47.1933 279.361 46.5003 278.997 46.043C278.633 45.581 278.092 45.35 277.373 45.35C276.603 45.35 276.017 45.5973 275.616 46.092C275.215 46.5867 275.014 47.296 275.014 48.22C275.014 49.1113 275.215 49.802 275.616 50.292C276.017 50.782 276.589 51.027 277.331 51.027C277.83 51.027 278.264 50.9127 278.633 50.684C279.002 50.4553 279.291 50.1263 279.501 49.697L280.698 50.11C280.404 50.7773 279.961 51.2953 279.368 51.664C278.78 52.028 278.12 52.21 277.387 52.21ZM274.594 48.57V47.569H280.18V48.57H274.594ZM285.637 43.558C285.287 43.558 284.968 43.4717 284.678 43.299C284.389 43.1263 284.158 42.8977 283.985 42.613C283.813 42.3237 283.726 42.0017 283.726 41.647H284.734C284.734 41.8943 284.823 42.1067 285 42.284C285.178 42.4613 285.39 42.55 285.637 42.55C285.889 42.55 286.102 42.4613 286.274 42.284C286.452 42.1067 286.54 41.8943 286.54 41.647H287.548C287.548 42.0017 287.462 42.3237 287.289 42.613C287.121 42.8977 286.89 43.1263 286.596 43.299C286.307 43.4717 285.987 43.558 285.637 43.558ZM288.57 44.44V52H287.366V46.428L283.404 52H282.375V44.44H283.579V49.935L287.548 44.44H288.57ZM186.98 66V55.92H194.848V66H193.602V57.103H188.226V66H186.98ZM200.954 66.21C199.951 66.21 199.099 65.9883 198.399 65.545C197.699 65.1017 197.165 64.4857 196.796 63.697C196.432 62.9083 196.25 61.996 196.25 60.96C196.25 59.924 196.432 59.0117 196.796 58.223C197.165 57.4343 197.699 56.8183 198.399 56.375C199.099 55.9317 199.951 55.71 200.954 55.71C201.962 55.71 202.816 55.9317 203.516 56.375C204.216 56.8183 204.748 57.4343 205.112 58.223C205.476 59.0117 205.658 59.924 205.658 60.96C205.658 61.996 205.476 62.9083 205.112 63.697C204.748 64.4857 204.216 65.1017 203.516 65.545C202.816 65.9883 201.962 66.21 200.954 66.21ZM200.954 65.02C201.705 65.0247 202.331 64.8567 202.83 64.516C203.334 64.1707 203.71 63.6923 203.957 63.081C204.209 62.4697 204.335 61.7627 204.335 60.96C204.335 60.1527 204.209 59.4457 203.957 58.839C203.71 58.2323 203.334 57.7587 202.83 57.418C202.331 57.0773 201.705 56.9047 200.954 56.9C200.203 56.8953 199.577 57.0633 199.078 57.404C198.583 57.7447 198.21 58.2207 197.958 58.832C197.706 59.4433 197.578 60.1527 197.573 60.96C197.568 61.7627 197.692 62.4673 197.944 63.074C198.196 63.6807 198.572 64.1567 199.071 64.502C199.575 64.8427 200.203 65.0153 200.954 65.02ZM209.86 66V58.44H213.08C213.271 58.44 213.476 58.4517 213.696 58.475C213.92 58.4937 214.123 58.5287 214.305 58.58C214.711 58.6873 215.044 58.909 215.306 59.245C215.572 59.5763 215.705 59.9963 215.705 60.505C215.705 60.7897 215.66 61.037 215.572 61.247C215.488 61.457 215.366 61.639 215.208 61.793C215.138 61.863 215.061 61.926 214.977 61.982C214.893 62.038 214.809 62.0823 214.725 62.115C214.888 62.143 215.054 62.206 215.222 62.304C215.488 62.4487 215.695 62.6517 215.845 62.913C215.999 63.1743 216.076 63.508 216.076 63.914C216.076 64.4273 215.952 64.852 215.705 65.188C215.457 65.5193 215.117 65.748 214.683 65.874C214.501 65.9253 214.3 65.9603 214.081 65.979C213.861 65.993 213.649 66 213.444 66H209.86ZM211.12 64.985H213.374C213.472 64.985 213.588 64.9757 213.724 64.957C213.864 64.9383 213.987 64.915 214.095 64.887C214.337 64.817 214.512 64.6863 214.62 64.495C214.732 64.3037 214.788 64.096 214.788 63.872C214.788 63.5733 214.704 63.3307 214.536 63.144C214.372 62.9573 214.155 62.8407 213.885 62.794C213.787 62.766 213.679 62.7497 213.563 62.745C213.451 62.7403 213.35 62.738 213.262 62.738H211.12V64.985ZM211.12 61.709H212.996C213.126 61.709 213.264 61.702 213.409 61.688C213.553 61.6693 213.679 61.639 213.787 61.597C214.001 61.5177 214.158 61.387 214.256 61.205C214.358 61.0183 214.41 60.8153 214.41 60.596C214.41 60.3533 214.354 60.141 214.242 59.959C214.134 59.7723 213.969 59.644 213.745 59.574C213.595 59.518 213.427 59.4877 213.241 59.483C213.059 59.4737 212.942 59.469 212.891 59.469H211.12V61.709ZM220.278 66L220.285 58.44H221.545V62.08L224.716 58.44H226.333L222.994 62.22L226.725 66H224.982L221.545 62.36V66H220.278ZM230.505 66.21C229.753 66.21 229.105 66.0397 228.559 65.699C228.017 65.3583 227.6 64.887 227.306 64.285C227.012 63.683 226.865 62.9923 226.865 62.213C226.865 61.4197 227.014 60.7243 227.313 60.127C227.611 59.5297 228.034 59.0653 228.58 58.734C229.126 58.398 229.767 58.23 230.505 58.23C231.261 58.23 231.912 58.4003 232.458 58.741C233.004 59.077 233.421 59.546 233.711 60.148C234.005 60.7453 234.152 61.4337 234.152 62.213C234.152 63.0017 234.005 63.697 233.711 64.299C233.417 64.8963 232.997 65.3653 232.451 65.706C231.905 66.042 231.256 66.21 230.505 66.21ZM230.505 65.027C231.289 65.027 231.872 64.7657 232.255 64.243C232.637 63.7203 232.829 63.0437 232.829 62.213C232.829 61.359 232.635 60.68 232.248 60.176C231.86 59.6673 231.279 59.413 230.505 59.413C229.977 59.413 229.543 59.532 229.203 59.77C228.862 60.008 228.608 60.337 228.44 60.757C228.272 61.177 228.188 61.6623 228.188 62.213C228.188 63.0623 228.384 63.7437 228.776 64.257C229.168 64.7703 229.744 65.027 230.505 65.027ZM235.686 66V58.44H236.757L239.627 64.306L242.497 58.44H243.568V66H242.364V61.037L239.956 66H239.298L236.89 61.037V66H235.686ZM245.516 66V58.44H251.711V66H250.465V59.623H246.762V66H245.516ZM255.82 66.21C255.256 66.21 254.782 66.1073 254.399 65.902C254.021 65.692 253.734 65.4167 253.538 65.076C253.347 64.7353 253.251 64.362 253.251 63.956C253.251 63.5593 253.326 63.2163 253.475 62.927C253.629 62.633 253.844 62.3903 254.119 62.199C254.395 62.003 254.724 61.849 255.106 61.737C255.466 61.639 255.867 61.555 256.31 61.485C256.758 61.4103 257.211 61.3427 257.668 61.282C258.126 61.2213 258.553 61.163 258.949 61.107L258.501 61.366C258.515 60.694 258.38 60.197 258.095 59.875C257.815 59.553 257.33 59.392 256.639 59.392C256.182 59.392 255.781 59.497 255.435 59.707C255.095 59.9123 254.854 60.2483 254.714 60.715L253.531 60.358C253.713 59.6953 254.066 59.175 254.588 58.797C255.111 58.419 255.799 58.23 256.653 58.23C257.339 58.23 257.927 58.3537 258.417 58.601C258.912 58.8437 259.267 59.2123 259.481 59.707C259.589 59.9403 259.656 60.1947 259.684 60.47C259.712 60.7407 259.726 61.0253 259.726 61.324V66H258.62V64.187L258.879 64.355C258.595 64.9663 258.196 65.4283 257.682 65.741C257.174 66.0537 256.553 66.21 255.82 66.21ZM256.009 65.167C256.457 65.167 256.845 65.0877 257.171 64.929C257.503 64.7657 257.769 64.5533 257.969 64.292C258.17 64.026 258.301 63.7367 258.361 63.424C258.431 63.1907 258.469 62.9317 258.473 62.647C258.483 62.3577 258.487 62.136 258.487 61.982L258.921 62.171C258.515 62.227 258.116 62.2807 257.724 62.332C257.332 62.3833 256.961 62.4393 256.611 62.5C256.261 62.556 255.946 62.6237 255.666 62.703C255.461 62.7683 255.267 62.8523 255.085 62.955C254.908 63.0577 254.763 63.1907 254.651 63.354C254.544 63.5127 254.49 63.711 254.49 63.949C254.49 64.1543 254.542 64.3503 254.644 64.537C254.752 64.7237 254.915 64.8753 255.134 64.992C255.358 65.1087 255.65 65.167 256.009 65.167ZM261.539 66V58.44H262.785V61.625H266.761V58.44H268.007V66H266.761V62.808H262.785V66H261.539ZM276.156 58.44V66H274.952V60.428L270.99 66H269.961V58.44H271.165V63.935L275.134 58.44H276.156ZM284.305 58.44V66H283.101V60.428L279.139 66H278.11V58.44H279.314V63.935L283.283 58.44H284.305ZM189.689 80.21C188.942 80.21 188.282 80.049 187.708 79.727C187.134 79.4003 186.681 78.9523 186.35 78.383L187.344 77.739C187.619 78.1543 187.948 78.474 188.331 78.698C188.714 78.9173 189.15 79.027 189.64 79.027C190.153 79.027 190.562 78.9103 190.865 78.677C191.168 78.439 191.32 78.1193 191.32 77.718C191.32 77.4193 191.245 77.1907 191.096 77.032C190.947 76.8733 190.732 76.7637 190.452 76.703C190.172 76.6423 189.838 76.612 189.451 76.612H188.667V75.583H189.444C189.934 75.583 190.333 75.5037 190.641 75.345C190.949 75.1863 191.103 74.9157 191.103 74.533C191.103 74.141 190.958 73.8563 190.669 73.679C190.384 73.497 190.044 73.406 189.647 73.406C189.227 73.406 188.826 73.4947 188.443 73.672C188.06 73.8447 187.731 74.064 187.456 74.33L186.7 73.483C187.092 73.0817 187.542 72.7737 188.051 72.559C188.564 72.3397 189.122 72.23 189.724 72.23C190.209 72.23 190.653 72.3163 191.054 72.489C191.46 72.657 191.782 72.9067 192.02 73.238C192.263 73.5647 192.384 73.9637 192.384 74.435C192.384 74.8363 192.291 75.1933 192.104 75.506C191.917 75.8187 191.642 76.0917 191.278 76.325L191.229 75.884C191.537 75.9587 191.791 76.0963 191.992 76.297C192.197 76.493 192.349 76.7263 192.447 76.997C192.545 77.2677 192.594 77.55 192.594 77.844C192.594 78.3387 192.463 78.7633 192.202 79.118C191.945 79.468 191.598 79.7387 191.159 79.93C190.72 80.1167 190.23 80.21 189.689 80.21ZM196.279 80.21C195.715 80.21 195.241 80.1073 194.858 79.902C194.48 79.692 194.193 79.4167 193.997 79.076C193.806 78.7353 193.71 78.362 193.71 77.956C193.71 77.5593 193.785 77.2163 193.934 76.927C194.088 76.633 194.303 76.3903 194.578 76.199C194.854 76.003 195.183 75.849 195.565 75.737C195.925 75.639 196.326 75.555 196.769 75.485C197.217 75.4103 197.67 75.3427 198.127 75.282C198.585 75.2213 199.012 75.163 199.408 75.107L198.96 75.366C198.974 74.694 198.839 74.197 198.554 73.875C198.274 73.553 197.789 73.392 197.098 73.392C196.641 73.392 196.24 73.497 195.894 73.707C195.554 73.9123 195.313 74.2483 195.173 74.715L193.99 74.358C194.172 73.6953 194.525 73.175 195.047 72.797C195.57 72.419 196.258 72.23 197.112 72.23C197.798 72.23 198.386 72.3537 198.876 72.601C199.371 72.8437 199.726 73.2123 199.94 73.707C200.048 73.9403 200.115 74.1947 200.143 74.47C200.171 74.7407 200.185 75.0253 200.185 75.324V80H199.079V78.187L199.338 78.355C199.054 78.9663 198.655 79.4283 198.141 79.741C197.633 80.0537 197.012 80.21 196.279 80.21ZM196.468 79.167C196.916 79.167 197.304 79.0877 197.63 78.929C197.962 78.7657 198.228 78.5533 198.428 78.292C198.629 78.026 198.76 77.7367 198.82 77.424C198.89 77.1907 198.928 76.9317 198.932 76.647C198.942 76.3577 198.946 76.136 198.946 75.982L199.38 76.171C198.974 76.227 198.575 76.2807 198.183 76.332C197.791 76.3833 197.42 76.4393 197.07 76.5C196.72 76.556 196.405 76.6237 196.125 76.703C195.92 76.7683 195.726 76.8523 195.544 76.955C195.367 77.0577 195.222 77.1907 195.11 77.354C195.003 77.5127 194.949 77.711 194.949 77.949C194.949 78.1543 195.001 78.3503 195.103 78.537C195.211 78.7237 195.374 78.8753 195.593 78.992C195.817 79.1087 196.109 79.167 196.468 79.167ZM201.998 80L202.005 72.44H203.265V76.08L206.436 72.44H208.053L204.714 76.22L208.445 80H206.702L203.265 76.36V80H201.998ZM211.291 80.21C210.726 80.21 210.253 80.1073 209.87 79.902C209.492 79.692 209.205 79.4167 209.009 79.076C208.818 78.7353 208.722 78.362 208.722 77.956C208.722 77.5593 208.797 77.2163 208.946 76.927C209.1 76.633 209.315 76.3903 209.59 76.199C209.865 76.003 210.194 75.849 210.577 75.737C210.936 75.639 211.338 75.555 211.781 75.485C212.229 75.4103 212.682 75.3427 213.139 75.282C213.596 75.2213 214.023 75.163 214.42 75.107L213.972 75.366C213.986 74.694 213.851 74.197 213.566 73.875C213.286 73.553 212.801 73.392 212.11 73.392C211.653 73.392 211.251 73.497 210.906 73.707C210.565 73.9123 210.325 74.2483 210.185 74.715L209.002 74.358C209.184 73.6953 209.536 73.175 210.059 72.797C210.582 72.419 211.27 72.23 212.124 72.23C212.81 72.23 213.398 72.3537 213.888 72.601C214.383 72.8437 214.737 73.2123 214.952 73.707C215.059 73.9403 215.127 74.1947 215.155 74.47C215.183 74.7407 215.197 75.0253 215.197 75.324V80H214.091V78.187L214.35 78.355C214.065 78.9663 213.666 79.4283 213.153 79.741C212.644 80.0537 212.024 80.21 211.291 80.21ZM211.48 79.167C211.928 79.167 212.315 79.0877 212.642 78.929C212.973 78.7657 213.239 78.5533 213.44 78.292C213.641 78.026 213.771 77.7367 213.832 77.424C213.902 77.1907 213.939 76.9317 213.944 76.647C213.953 76.3577 213.958 76.136 213.958 75.982L214.392 76.171C213.986 76.227 213.587 76.2807 213.195 76.332C212.803 76.3833 212.432 76.4393 212.082 76.5C211.732 76.556 211.417 76.6237 211.137 76.703C210.932 76.7683 210.738 76.8523 210.556 76.955C210.379 77.0577 210.234 77.1907 210.122 77.354C210.015 77.5127 209.961 77.711 209.961 77.949C209.961 78.1543 210.012 78.3503 210.115 78.537C210.222 78.7237 210.386 78.8753 210.605 78.992C210.829 79.1087 211.121 79.167 211.48 79.167ZM219.726 80.21C218.979 80.21 218.319 80.049 217.745 79.727C217.171 79.4003 216.718 78.9523 216.387 78.383L217.381 77.739C217.656 78.1543 217.985 78.474 218.368 78.698C218.751 78.9173 219.187 79.027 219.677 79.027C220.19 79.027 220.599 78.9103 220.902 78.677C221.205 78.439 221.357 78.1193 221.357 77.718C221.357 77.4193 221.282 77.1907 221.133 77.032C220.984 76.8733 220.769 76.7637 220.489 76.703C220.209 76.6423 219.875 76.612 219.488 76.612H218.704V75.583H219.481C219.971 75.583 220.37 75.5037 220.678 75.345C220.986 75.1863 221.14 74.9157 221.14 74.533C221.14 74.141 220.995 73.8563 220.706 73.679C220.421 73.497 220.081 73.406 219.684 73.406C219.264 73.406 218.863 73.4947 218.48 73.672C218.097 73.8447 217.768 74.064 217.493 74.33L216.737 73.483C217.129 73.0817 217.579 72.7737 218.088 72.559C218.601 72.3397 219.159 72.23 219.761 72.23C220.246 72.23 220.69 72.3163 221.091 72.489C221.497 72.657 221.819 72.9067 222.057 73.238C222.3 73.5647 222.421 73.9637 222.421 74.435C222.421 74.8363 222.328 75.1933 222.141 75.506C221.954 75.8187 221.679 76.0917 221.315 76.325L221.266 75.884C221.574 75.9587 221.828 76.0963 222.029 76.297C222.234 76.493 222.386 76.7263 222.484 76.997C222.582 77.2677 222.631 77.55 222.631 77.844C222.631 78.3387 222.5 78.7633 222.239 79.118C221.982 79.468 221.635 79.7387 221.196 79.93C220.757 80.1167 220.267 80.21 219.726 80.21ZM228.718 80V77.277C228.466 77.403 228.16 77.5103 227.801 77.599C227.446 77.6877 227.066 77.732 226.66 77.732C225.89 77.732 225.269 77.5593 224.798 77.214C224.326 76.8687 224.018 76.3717 223.874 75.723C223.832 75.527 223.801 75.324 223.783 75.114C223.769 74.904 223.759 74.7127 223.755 74.54C223.75 74.3673 223.748 74.2413 223.748 74.162V72.44H225.008V74.162C225.008 74.2973 225.012 74.4653 225.022 74.666C225.031 74.862 225.054 75.0533 225.092 75.24C225.185 75.702 225.379 76.0497 225.673 76.283C225.971 76.5163 226.391 76.633 226.933 76.633C227.297 76.633 227.633 76.5863 227.941 76.493C228.249 76.3997 228.508 76.276 228.718 76.122V72.44H229.971V80H228.718ZM238.121 72.44V80H236.917V74.428L232.955 80H231.926V72.44H233.13V77.935L237.099 72.44H238.121ZM240.075 80L240.082 72.44H241.342V76.08L244.513 72.44H246.13L242.791 76.22L246.522 80H244.779L241.342 76.36V80H240.075ZM249.367 80.21C248.803 80.21 248.329 80.1073 247.946 79.902C247.568 79.692 247.281 79.4167 247.085 79.076C246.894 78.7353 246.798 78.362 246.798 77.956C246.798 77.5593 246.873 77.2163 247.022 76.927C247.176 76.633 247.391 76.3903 247.666 76.199C247.942 76.003 248.271 75.849 248.653 75.737C249.013 75.639 249.414 75.555 249.857 75.485C250.305 75.4103 250.758 75.3427 251.215 75.282C251.673 75.2213 252.1 75.163 252.496 75.107L252.048 75.366C252.062 74.694 251.927 74.197 251.642 73.875C251.362 73.553 250.877 73.392 250.186 73.392C249.729 73.392 249.328 73.497 248.982 73.707C248.642 73.9123 248.401 74.2483 248.261 74.715L247.078 74.358C247.26 73.6953 247.613 73.175 248.135 72.797C248.658 72.419 249.346 72.23 250.2 72.23C250.886 72.23 251.474 72.3537 251.964 72.601C252.459 72.8437 252.814 73.2123 253.028 73.707C253.136 73.9403 253.203 74.1947 253.231 74.47C253.259 74.7407 253.273 75.0253 253.273 75.324V80H252.167V78.187L252.426 78.355C252.142 78.9663 251.743 79.4283 251.229 79.741C250.721 80.0537 250.1 80.21 249.367 80.21ZM249.556 79.167C250.004 79.167 250.392 79.0877 250.718 78.929C251.05 78.7657 251.316 78.5533 251.516 78.292C251.717 78.026 251.848 77.7367 251.908 77.424C251.978 77.1907 252.016 76.9317 252.02 76.647C252.03 76.3577 252.034 76.136 252.034 75.982L252.468 76.171C252.062 76.227 251.663 76.2807 251.271 76.332C250.879 76.3833 250.508 76.4393 250.158 76.5C249.808 76.556 249.493 76.6237 249.213 76.703C249.008 76.7683 248.814 76.8523 248.632 76.955C248.455 77.0577 248.31 77.1907 248.198 77.354C248.091 77.5127 248.037 77.711 248.037 77.949C248.037 78.1543 248.089 78.3503 248.191 78.537C248.299 78.7237 248.462 78.8753 248.681 78.992C248.905 79.1087 249.197 79.167 249.556 79.167Z" fill="white"/>
              <path d="M20.98 45V34.92H28.848V45H27.602V36.103H22.226V45H20.98ZM34.0301 45.21C33.2787 45.21 32.6301 45.0397 32.0841 44.699C31.5427 44.3583 31.1251 43.887 30.8311 43.285C30.5371 42.683 30.3901 41.9923 30.3901 41.213C30.3901 40.4197 30.5394 39.7243 30.8381 39.127C31.1367 38.5297 31.5591 38.0653 32.1051 37.734C32.6511 37.398 33.2927 37.23 34.0301 37.23C34.7861 37.23 35.4371 37.4003 35.9831 37.741C36.5291 38.077 36.9467 38.546 37.2361 39.148C37.5301 39.7453 37.6771 40.4337 37.6771 41.213C37.6771 42.0017 37.5301 42.697 37.2361 43.299C36.9421 43.8963 36.5221 44.3653 35.9761 44.706C35.4301 45.042 34.7814 45.21 34.0301 45.21ZM34.0301 44.027C34.8141 44.027 35.3974 43.7657 35.7801 43.243C36.1627 42.7203 36.3541 42.0437 36.3541 41.213C36.3541 40.359 36.1604 39.68 35.7731 39.176C35.3857 38.6673 34.8047 38.413 34.0301 38.413C33.5027 38.413 33.0687 38.532 32.7281 38.77C32.3874 39.008 32.1331 39.337 31.9651 39.757C31.7971 40.177 31.7131 40.6623 31.7131 41.213C31.7131 42.0623 31.9091 42.7437 32.3011 43.257C32.6931 43.7703 33.2694 44.027 34.0301 44.027ZM38.6583 46.68V43.971C39.0829 43.971 39.3863 43.8333 39.5683 43.558C39.7503 43.278 39.8973 42.8183 40.0093 42.179C40.0839 41.7777 40.1446 41.3483 40.1913 40.891C40.2379 40.4337 40.2776 39.925 40.3103 39.365C40.3476 38.8003 40.3826 38.1587 40.4153 37.44H45.6233V43.971H46.3583V46.68H45.1683V45H39.8483V46.68H38.6583ZM40.5763 43.971H44.3773V38.469H41.5423C41.5283 38.8003 41.5096 39.148 41.4863 39.512C41.4629 39.8713 41.4349 40.2307 41.4023 40.59C41.3743 40.9493 41.3393 41.29 41.2973 41.612C41.2599 41.9293 41.2156 42.214 41.1643 42.466C41.1036 42.816 41.0336 43.1123 40.9543 43.355C40.8749 43.5977 40.7489 43.803 40.5763 43.971ZM47.2032 46.68V43.971C47.6279 43.971 47.9312 43.8333 48.1132 43.558C48.2952 43.278 48.4422 42.8183 48.5542 42.179C48.6289 41.7777 48.6895 41.3483 48.7362 40.891C48.7829 40.4337 48.8225 39.925 48.8552 39.365C48.8925 38.8003 48.9275 38.1587 48.9602 37.44H54.1682V43.971H54.9032V46.68H53.7132V45H48.3932V46.68H47.2032ZM49.1212 43.971H52.9222V38.469H50.0872C50.0732 38.8003 50.0545 39.148 50.0312 39.512C50.0079 39.8713 49.9799 40.2307 49.9472 40.59C49.9192 40.9493 49.8842 41.29 49.8422 41.612C49.8049 41.9293 49.7605 42.214 49.7092 42.466C49.6485 42.816 49.5785 43.1123 49.4992 43.355C49.4199 43.5977 49.2939 43.803 49.1212 43.971ZM59.5841 45.21C58.8421 45.21 58.1935 45.0467 57.6381 44.72C57.0875 44.3887 56.6581 43.929 56.3501 43.341C56.0421 42.7483 55.8881 42.0577 55.8881 41.269C55.8881 40.443 56.0398 39.729 56.3431 39.127C56.6465 38.5203 57.0688 38.0537 57.6101 37.727C58.1561 37.3957 58.7955 37.23 59.5281 37.23C60.2888 37.23 60.9351 37.405 61.4671 37.755C62.0038 38.105 62.4051 38.6043 62.6711 39.253C62.9418 39.9017 63.0585 40.674 63.0211 41.57H61.7611V41.122C61.7471 40.1933 61.5581 39.5003 61.1941 39.043C60.8301 38.581 60.2888 38.35 59.5701 38.35C58.8001 38.35 58.2145 38.5973 57.8131 39.092C57.4118 39.5867 57.2111 40.296 57.2111 41.22C57.2111 42.1113 57.4118 42.802 57.8131 43.292C58.2145 43.782 58.7861 44.027 59.5281 44.027C60.0275 44.027 60.4615 43.9127 60.8301 43.684C61.1988 43.4553 61.4881 43.1263 61.6981 42.697L62.8951 43.11C62.6011 43.7773 62.1578 44.2953 61.5651 44.664C60.9771 45.028 60.3168 45.21 59.5841 45.21ZM56.7911 41.57V40.569H62.3771V41.57H56.7911ZM68.0516 45.21C67.3423 45.21 66.7449 45.035 66.2596 44.685C65.7743 44.3303 65.4056 43.852 65.1536 43.25C64.9063 42.6433 64.7826 41.9643 64.7826 41.213C64.7826 40.4523 64.9063 39.771 65.1536 39.169C65.4056 38.567 65.7743 38.0933 66.2596 37.748C66.7496 37.4027 67.3493 37.23 68.0586 37.23C68.7586 37.23 69.3606 37.405 69.8646 37.755C70.3733 38.1003 70.7629 38.574 71.0336 39.176C71.3043 39.778 71.4396 40.457 71.4396 41.213C71.4396 41.969 71.3043 42.648 71.0336 43.25C70.7629 43.852 70.3733 44.3303 69.8646 44.685C69.3606 45.035 68.7563 45.21 68.0516 45.21ZM64.5726 48.36V37.44H65.6856V43.005H65.8256V48.36H64.5726ZM67.8976 44.069C68.3969 44.069 68.8099 43.943 69.1366 43.691C69.4633 43.439 69.7083 43.0983 69.8716 42.669C70.0349 42.235 70.1166 41.7497 70.1166 41.213C70.1166 40.681 70.0349 40.2003 69.8716 39.771C69.7129 39.3417 69.4656 39.001 69.1296 38.749C68.7983 38.497 68.3759 38.371 67.8626 38.371C67.3726 38.371 66.9666 38.4923 66.6446 38.735C66.3226 38.973 66.0823 39.3067 65.9236 39.736C65.7649 40.1607 65.6856 40.653 65.6856 41.213C65.6856 41.7637 65.7626 42.256 65.9166 42.69C66.0753 43.1193 66.3179 43.4577 66.6446 43.705C66.9713 43.9477 67.3889 44.069 67.8976 44.069ZM71.8607 45L74.9127 41.22L72.0077 37.44H73.3937L76.2007 41.15V37.44H77.3347V41.15L80.1417 37.44H81.5277L78.6227 41.22L81.6747 45H80.2257L77.3347 41.29V45H76.2007V41.29L73.3097 45H71.8607ZM82.7835 45L82.7905 37.44H84.0505V41.08L87.2215 37.44H88.8385L85.4995 41.22L89.2305 45H87.4875L84.0505 41.36V45H82.7835ZM92.0763 45.21C91.5116 45.21 91.0379 45.1073 90.6553 44.902C90.2773 44.692 89.9903 44.4167 89.7943 44.076C89.6029 43.7353 89.5073 43.362 89.5073 42.956C89.5073 42.5593 89.5819 42.2163 89.7313 41.927C89.8853 41.633 90.0999 41.3903 90.3753 41.199C90.6506 41.003 90.9796 40.849 91.3623 40.737C91.7216 40.639 92.1229 40.555 92.5663 40.485C93.0143 40.4103 93.4669 40.3427 93.9243 40.282C94.3816 40.2213 94.8086 40.163 95.2053 40.107L94.7573 40.366C94.7713 39.694 94.6359 39.197 94.3513 38.875C94.0713 38.553 93.5859 38.392 92.8953 38.392C92.4379 38.392 92.0366 38.497 91.6913 38.707C91.3506 38.9123 91.1103 39.2483 90.9703 39.715L89.7873 39.358C89.9693 38.6953 90.3216 38.175 90.8443 37.797C91.3669 37.419 92.0553 37.23 92.9093 37.23C93.5953 37.23 94.1833 37.3537 94.6733 37.601C95.1679 37.8437 95.5226 38.2123 95.7373 38.707C95.8446 38.9403 95.9123 39.1947 95.9403 39.47C95.9683 39.7407 95.9823 40.0253 95.9823 40.324V45H94.8763V43.187L95.1353 43.355C94.8506 43.9663 94.4516 44.4283 93.9383 44.741C93.4296 45.0537 92.8089 45.21 92.0763 45.21ZM92.2653 44.167C92.7133 44.167 93.1006 44.0877 93.4273 43.929C93.7586 43.7657 94.0246 43.5533 94.2253 43.292C94.4259 43.026 94.5566 42.7367 94.6173 42.424C94.6873 42.1907 94.7246 41.9317 94.7293 41.647C94.7386 41.3577 94.7433 41.136 94.7433 40.982L95.1773 41.171C94.7713 41.227 94.3723 41.2807 93.9803 41.332C93.5883 41.3833 93.2173 41.4393 92.8673 41.5C92.5173 41.556 92.2023 41.6237 91.9223 41.703C91.7169 41.7683 91.5233 41.8523 91.3413 41.955C91.1639 42.0577 91.0193 42.1907 90.9073 42.354C90.7999 42.5127 90.7463 42.711 90.7463 42.949C90.7463 43.1543 90.7976 43.3503 90.9003 43.537C91.0076 43.7237 91.1709 43.8753 91.3903 43.992C91.6143 44.1087 91.9059 44.167 92.2653 44.167ZM106.793 37.44V45H105.589V39.428L101.627 45H100.598V37.44H101.802V42.935L105.771 37.44H106.793ZM24.452 59.21C23.7427 59.21 23.1453 59.035 22.66 58.685C22.1747 58.3303 21.806 57.852 21.554 57.25C21.3067 56.6433 21.183 55.9643 21.183 55.213C21.183 54.4523 21.3067 53.771 21.554 53.169C21.806 52.567 22.1747 52.0933 22.66 51.748C23.15 51.4027 23.7497 51.23 24.459 51.23C25.159 51.23 25.761 51.405 26.265 51.755C26.7737 52.1003 27.1633 52.574 27.434 53.176C27.7047 53.778 27.84 54.457 27.84 55.213C27.84 55.969 27.7047 56.648 27.434 57.25C27.1633 57.852 26.7737 58.3303 26.265 58.685C25.761 59.035 25.1567 59.21 24.452 59.21ZM20.973 62.36V51.44H22.086V57.005H22.226V62.36H20.973ZM24.298 58.069C24.7973 58.069 25.2103 57.943 25.537 57.691C25.8637 57.439 26.1087 57.0983 26.272 56.669C26.4353 56.235 26.517 55.7497 26.517 55.213C26.517 54.681 26.4353 54.2003 26.272 53.771C26.1133 53.3417 25.866 53.001 25.53 52.749C25.1987 52.497 24.7763 52.371 24.263 52.371C23.773 52.371 23.367 52.4923 23.045 52.735C22.723 52.973 22.4827 53.3067 22.324 53.736C22.1653 54.1607 22.086 54.653 22.086 55.213C22.086 55.7637 22.163 56.256 22.317 56.69C22.4757 57.1193 22.7183 57.4577 23.045 57.705C23.3717 57.9477 23.7893 58.069 24.298 58.069ZM31.5235 59.21C30.9589 59.21 30.4852 59.1073 30.1025 58.902C29.7245 58.692 29.4375 58.4167 29.2415 58.076C29.0502 57.7353 28.9545 57.362 28.9545 56.956C28.9545 56.5593 29.0292 56.2163 29.1785 55.927C29.3325 55.633 29.5472 55.3903 29.8225 55.199C30.0979 55.003 30.4269 54.849 30.8095 54.737C31.1689 54.639 31.5702 54.555 32.0135 54.485C32.4615 54.4103 32.9142 54.3427 33.3715 54.282C33.8289 54.2213 34.2559 54.163 34.6525 54.107L34.2045 54.366C34.2185 53.694 34.0832 53.197 33.7985 52.875C33.5185 52.553 33.0332 52.392 32.3425 52.392C31.8852 52.392 31.4839 52.497 31.1385 52.707C30.7979 52.9123 30.5575 53.2483 30.4175 53.715L29.2345 53.358C29.4165 52.6953 29.7689 52.175 30.2915 51.797C30.8142 51.419 31.5025 51.23 32.3565 51.23C33.0425 51.23 33.6305 51.3537 34.1205 51.601C34.6152 51.8437 34.9699 52.2123 35.1845 52.707C35.2919 52.9403 35.3595 53.1947 35.3875 53.47C35.4155 53.7407 35.4295 54.0253 35.4295 54.324V59H34.3235V57.187L34.5825 57.355C34.2979 57.9663 33.8989 58.4283 33.3855 58.741C32.8769 59.0537 32.2562 59.21 31.5235 59.21ZM31.7125 58.167C32.1605 58.167 32.5479 58.0877 32.8745 57.929C33.2059 57.7657 33.4719 57.5533 33.6725 57.292C33.8732 57.026 34.0039 56.7367 34.0645 56.424C34.1345 56.1907 34.1719 55.9317 34.1765 55.647C34.1859 55.3577 34.1905 55.136 34.1905 54.982L34.6245 55.171C34.2185 55.227 33.8195 55.2807 33.4275 55.332C33.0355 55.3833 32.6645 55.4393 32.3145 55.5C31.9645 55.556 31.6495 55.6237 31.3695 55.703C31.1642 55.7683 30.9705 55.8523 30.7885 55.955C30.6112 56.0577 30.4665 56.1907 30.3545 56.354C30.2472 56.5127 30.1935 56.711 30.1935 56.949C30.1935 57.1543 30.2449 57.3503 30.3475 57.537C30.4549 57.7237 30.6182 57.8753 30.8375 57.992C31.0615 58.1087 31.3532 58.167 31.7125 58.167ZM39.9585 59.21C39.2119 59.21 38.5515 59.049 37.9775 58.727C37.4035 58.4003 36.9509 57.9523 36.6195 57.383L37.6135 56.739C37.8889 57.1543 38.2179 57.474 38.6005 57.698C38.9832 57.9173 39.4195 58.027 39.9095 58.027C40.4229 58.027 40.8312 57.9103 41.1345 57.677C41.4379 57.439 41.5895 57.1193 41.5895 56.718C41.5895 56.4193 41.5149 56.1907 41.3655 56.032C41.2162 55.8733 41.0015 55.7637 40.7215 55.703C40.4415 55.6423 40.1079 55.612 39.7205 55.612H38.9365V54.583H39.7135C40.2035 54.583 40.6025 54.5037 40.9105 54.345C41.2185 54.1863 41.3725 53.9157 41.3725 53.533C41.3725 53.141 41.2279 52.8563 40.9385 52.679C40.6539 52.497 40.3132 52.406 39.9165 52.406C39.4965 52.406 39.0952 52.4947 38.7125 52.672C38.3299 52.8447 38.0009 53.064 37.7255 53.33L36.9695 52.483C37.3615 52.0817 37.8119 51.7737 38.3205 51.559C38.8339 51.3397 39.3915 51.23 39.9935 51.23C40.4789 51.23 40.9222 51.3163 41.3235 51.489C41.7295 51.657 42.0515 51.9067 42.2895 52.238C42.5322 52.5647 42.6535 52.9637 42.6535 53.435C42.6535 53.8363 42.5602 54.1933 42.3735 54.506C42.1869 54.8187 41.9115 55.0917 41.5475 55.325L41.4985 54.884C41.8065 54.9587 42.0609 55.0963 42.2615 55.297C42.4669 55.493 42.6185 55.7263 42.7165 55.997C42.8145 56.2677 42.8635 56.55 42.8635 56.844C42.8635 57.3387 42.7329 57.7633 42.4715 58.118C42.2149 58.468 41.8672 58.7387 41.4285 58.93C40.9899 59.1167 40.4999 59.21 39.9585 59.21ZM44.3929 59V51.44H47.6129C47.8043 51.44 48.0096 51.4517 48.2289 51.475C48.4529 51.4937 48.6559 51.5287 48.8379 51.58C49.2439 51.6873 49.5776 51.909 49.8389 52.245C50.1049 52.5763 50.2379 52.9963 50.2379 53.505C50.2379 53.7897 50.1936 54.037 50.1049 54.247C50.0209 54.457 49.8996 54.639 49.7409 54.793C49.6709 54.863 49.5939 54.926 49.5099 54.982C49.4259 55.038 49.3419 55.0823 49.2579 55.115C49.4213 55.143 49.5869 55.206 49.7549 55.304C50.0209 55.4487 50.2286 55.6517 50.3779 55.913C50.5319 56.1743 50.6089 56.508 50.6089 56.914C50.6089 57.4273 50.4853 57.852 50.2379 58.188C49.9906 58.5193 49.6499 58.748 49.2159 58.874C49.0339 58.9253 48.8333 58.9603 48.6139 58.979C48.3946 58.993 48.1823 59 47.9769 59H44.3929ZM45.6529 57.985H47.9069C48.0049 57.985 48.1216 57.9757 48.2569 57.957C48.3969 57.9383 48.5206 57.915 48.6279 57.887C48.8706 57.817 49.0456 57.6863 49.1529 57.495C49.2649 57.3037 49.3209 57.096 49.3209 56.872C49.3209 56.5733 49.2369 56.3307 49.0689 56.144C48.9056 55.9573 48.6886 55.8407 48.4179 55.794C48.3199 55.766 48.2126 55.7497 48.0959 55.745C47.9839 55.7403 47.8836 55.738 47.7949 55.738H45.6529V57.985ZM45.6529 54.709H47.5289C47.6596 54.709 47.7973 54.702 47.9419 54.688C48.0866 54.6693 48.2126 54.639 48.3199 54.597C48.5346 54.5177 48.6909 54.387 48.7889 54.205C48.8916 54.0183 48.9429 53.8153 48.9429 53.596C48.9429 53.3533 48.8869 53.141 48.7749 52.959C48.6676 52.7723 48.5019 52.644 48.2779 52.574C48.1286 52.518 47.9606 52.4877 47.7739 52.483C47.5919 52.4737 47.4753 52.469 47.4239 52.469H45.6529V54.709ZM58.2032 51.44V59H56.9992V53.428L53.0372 59H52.0082V51.44H53.2122V56.935L57.1812 51.44H58.2032ZM62.1656 59V52.574H59.5336V51.44H66.0436V52.574H63.4116V59H62.1656ZM73.5567 51.44V59H72.3527V53.428L68.3907 59H67.3617V51.44H68.5657V56.935L72.5347 51.44H73.5567ZM78.7931 59.21C78.0511 59.21 77.4024 59.0467 76.8471 58.72C76.2964 58.3887 75.8671 57.929 75.5591 57.341C75.2511 56.7483 75.0971 56.0577 75.0971 55.269C75.0971 54.443 75.2488 53.729 75.5521 53.127C75.8554 52.5203 76.2778 52.0537 76.8191 51.727C77.3651 51.3957 78.0044 51.23 78.7371 51.23C79.4978 51.23 80.1441 51.405 80.6761 51.755C81.2128 52.105 81.6141 52.6043 81.8801 53.253C82.1508 53.9017 82.2674 54.674 82.2301 55.57H80.9701V55.122C80.9561 54.1933 80.7671 53.5003 80.4031 53.043C80.0391 52.581 79.4978 52.35 78.7791 52.35C78.0091 52.35 77.4234 52.5973 77.0221 53.092C76.6208 53.5867 76.4201 54.296 76.4201 55.22C76.4201 56.1113 76.6208 56.802 77.0221 57.292C77.4234 57.782 77.9951 58.027 78.7371 58.027C79.2364 58.027 79.6704 57.9127 80.0391 57.684C80.4078 57.4553 80.6971 57.1263 80.9071 56.697L82.1041 57.11C81.8101 57.7773 81.3668 58.2953 80.7741 58.664C80.1861 59.028 79.5258 59.21 78.7931 59.21ZM76.0001 55.57V54.569H81.5861V55.57H76.0001ZM86.5913 59V51.44H91.8413V52.623H87.8373V59H86.5913ZM96.2508 59.21C95.4994 59.21 94.8508 59.0397 94.3048 58.699C93.7634 58.3583 93.3458 57.887 93.0518 57.285C92.7578 56.683 92.6108 55.9923 92.6108 55.213C92.6108 54.4197 92.7601 53.7243 93.0588 53.127C93.3574 52.5297 93.7798 52.0653 94.3258 51.734C94.8718 51.398 95.5134 51.23 96.2508 51.23C97.0068 51.23 97.6578 51.4003 98.2038 51.741C98.7498 52.077 99.1674 52.546 99.4568 53.148C99.7508 53.7453 99.8978 54.4337 99.8978 55.213C99.8978 56.0017 99.7508 56.697 99.4568 57.299C99.1628 57.8963 98.7428 58.3653 98.1968 58.706C97.6508 59.042 97.0021 59.21 96.2508 59.21ZM96.2508 58.027C97.0348 58.027 97.6181 57.7657 98.0008 57.243C98.3834 56.7203 98.5748 56.0437 98.5748 55.213C98.5748 54.359 98.3811 53.68 97.9938 53.176C97.6064 52.6673 97.0254 52.413 96.2508 52.413C95.7234 52.413 95.2894 52.532 94.9488 52.77C94.6081 53.008 94.3538 53.337 94.1858 53.757C94.0178 54.177 93.9338 54.6623 93.9338 55.213C93.9338 56.0623 94.1298 56.7437 94.5218 57.257C94.9138 57.7703 95.4901 58.027 96.2508 58.027ZM103.277 59V52.574H100.645V51.44H107.155V52.574H104.523V59H103.277ZM111.563 59.21C110.812 59.21 110.163 59.0397 109.617 58.699C109.076 58.3583 108.658 57.887 108.364 57.285C108.07 56.683 107.923 55.9923 107.923 55.213C107.923 54.4197 108.073 53.7243 108.371 53.127C108.67 52.5297 109.092 52.0653 109.638 51.734C110.184 51.398 110.826 51.23 111.563 51.23C112.319 51.23 112.97 51.4003 113.516 51.741C114.062 52.077 114.48 52.546 114.769 53.148C115.063 53.7453 115.21 54.4337 115.21 55.213C115.21 56.0017 115.063 56.697 114.769 57.299C114.475 57.8963 114.055 58.3653 113.509 58.706C112.963 59.042 112.315 59.21 111.563 59.21ZM111.563 58.027C112.347 58.027 112.931 57.7657 113.313 57.243C113.696 56.7203 113.887 56.0437 113.887 55.213C113.887 54.359 113.694 53.68 113.306 53.176C112.919 52.6673 112.338 52.413 111.563 52.413C111.036 52.413 110.602 52.532 110.261 52.77C109.921 53.008 109.666 53.337 109.498 53.757C109.33 54.177 109.246 54.6623 109.246 55.213C109.246 56.0623 109.442 56.7437 109.834 57.257C110.226 57.7703 110.803 58.027 111.563 58.027ZM116.744 59V51.44H119.964C120.156 51.44 120.361 51.4517 120.58 51.475C120.804 51.4937 121.007 51.5287 121.189 51.58C121.595 51.6873 121.929 51.909 122.19 52.245C122.456 52.5763 122.589 52.9963 122.589 53.505C122.589 53.7897 122.545 54.037 122.456 54.247C122.372 54.457 122.251 54.639 122.092 54.793C122.022 54.863 121.945 54.926 121.861 54.982C121.777 55.038 121.693 55.0823 121.609 55.115C121.773 55.143 121.938 55.206 122.106 55.304C122.372 55.4487 122.58 55.6517 122.729 55.913C122.883 56.1743 122.96 56.508 122.96 56.914C122.96 57.4273 122.837 57.852 122.589 58.188C122.342 58.5193 122.001 58.748 121.567 58.874C121.385 58.9253 121.185 58.9603 120.965 58.979C120.746 58.993 120.534 59 120.328 59H116.744ZM118.004 57.985H120.258C120.356 57.985 120.473 57.9757 120.608 57.957C120.748 57.9383 120.872 57.915 120.979 57.887C121.222 57.817 121.397 57.6863 121.504 57.495C121.616 57.3037 121.672 57.096 121.672 56.872C121.672 56.5733 121.588 56.3307 121.42 56.144C121.257 55.9573 121.04 55.8407 120.769 55.794C120.671 55.766 120.564 55.7497 120.447 55.745C120.335 55.7403 120.235 55.738 120.146 55.738H118.004V57.985ZM118.004 54.709H119.88C120.011 54.709 120.149 54.702 120.293 54.688C120.438 54.6693 120.564 54.639 120.671 54.597C120.886 54.5177 121.042 54.387 121.14 54.205C121.243 54.0183 121.294 53.8153 121.294 53.596C121.294 53.3533 121.238 53.141 121.126 52.959C121.019 52.7723 120.853 52.644 120.629 52.574C120.48 52.518 120.312 52.4877 120.125 52.483C119.943 52.4737 119.827 52.469 119.775 52.469H118.004V54.709ZM127.587 59.21C126.835 59.21 126.187 59.0397 125.641 58.699C125.099 58.3583 124.682 57.887 124.388 57.285C124.094 56.683 123.947 55.9923 123.947 55.213C123.947 54.4197 124.096 53.7243 124.395 53.127C124.693 52.5297 125.116 52.0653 125.662 51.734C126.208 51.398 126.849 51.23 127.587 51.23C128.343 51.23 128.994 51.4003 129.54 51.741C130.086 52.077 130.503 52.546 130.793 53.148C131.087 53.7453 131.234 54.4337 131.234 55.213C131.234 56.0017 131.087 56.697 130.793 57.299C130.499 57.8963 130.079 58.3653 129.533 58.706C128.987 59.042 128.338 59.21 127.587 59.21ZM127.587 58.027C128.371 58.027 128.954 57.7657 129.337 57.243C129.719 56.7203 129.911 56.0437 129.911 55.213C129.911 54.359 129.717 53.68 129.33 53.176C128.942 52.6673 128.361 52.413 127.587 52.413C127.059 52.413 126.625 52.532 126.285 52.77C125.944 53.008 125.69 53.337 125.522 53.757C125.354 54.177 125.27 54.6623 125.27 55.213C125.27 56.0623 125.466 56.7437 125.858 57.257C126.25 57.7703 126.826 58.027 127.587 58.027ZM132.775 59V51.44H138.025V52.623H134.021V59H132.775ZM142.434 59.21C141.683 59.21 141.034 59.0397 140.488 58.699C139.947 58.3583 139.529 57.887 139.235 57.285C138.941 56.683 138.794 55.9923 138.794 55.213C138.794 54.4197 138.944 53.7243 139.242 53.127C139.541 52.5297 139.963 52.0653 140.509 51.734C141.055 51.398 141.697 51.23 142.434 51.23C143.19 51.23 143.841 51.4003 144.387 51.741C144.933 52.077 145.351 52.546 145.64 53.148C145.934 53.7453 146.081 54.4337 146.081 55.213C146.081 56.0017 145.934 56.697 145.64 57.299C145.346 57.8963 144.926 58.3653 144.38 58.706C143.834 59.042 143.186 59.21 142.434 59.21ZM142.434 58.027C143.218 58.027 143.802 57.7657 144.184 57.243C144.567 56.7203 144.758 56.0437 144.758 55.213C144.758 54.359 144.565 53.68 144.177 53.176C143.79 52.6673 143.209 52.413 142.434 52.413C141.907 52.413 141.473 52.532 141.132 52.77C140.792 53.008 140.537 53.337 140.369 53.757C140.201 54.177 140.117 54.6623 140.117 55.213C140.117 56.0623 140.313 56.7437 140.705 57.257C141.097 57.7703 141.674 58.027 142.434 58.027ZM24.452 73.21C23.7427 73.21 23.1453 73.035 22.66 72.685C22.1747 72.3303 21.806 71.852 21.554 71.25C21.3067 70.6433 21.183 69.9643 21.183 69.213C21.183 68.4523 21.3067 67.771 21.554 67.169C21.806 66.567 22.1747 66.0933 22.66 65.748C23.15 65.4027 23.7497 65.23 24.459 65.23C25.159 65.23 25.761 65.405 26.265 65.755C26.7737 66.1003 27.1633 66.574 27.434 67.176C27.7047 67.778 27.84 68.457 27.84 69.213C27.84 69.969 27.7047 70.648 27.434 71.25C27.1633 71.852 26.7737 72.3303 26.265 72.685C25.761 73.035 25.1567 73.21 24.452 73.21ZM20.973 76.36V65.44H22.086V71.005H22.226V76.36H20.973ZM24.298 72.069C24.7973 72.069 25.2103 71.943 25.537 71.691C25.8637 71.439 26.1087 71.0983 26.272 70.669C26.4353 70.235 26.517 69.7497 26.517 69.213C26.517 68.681 26.4353 68.2003 26.272 67.771C26.1133 67.3417 25.866 67.001 25.53 66.749C25.1987 66.497 24.7763 66.371 24.263 66.371C23.773 66.371 23.367 66.4923 23.045 66.735C22.723 66.973 22.4827 67.3067 22.324 67.736C22.1653 68.1607 22.086 68.653 22.086 69.213C22.086 69.7637 22.163 70.256 22.317 70.69C22.4757 71.1193 22.7183 71.4577 23.045 71.705C23.3717 71.9477 23.7893 72.069 24.298 72.069ZM32.6505 73.21C31.9085 73.21 31.2599 73.0467 30.7045 72.72C30.1539 72.3887 29.7245 71.929 29.4165 71.341C29.1085 70.7483 28.9545 70.0577 28.9545 69.269C28.9545 68.443 29.1062 67.729 29.4095 67.127C29.7129 66.5203 30.1352 66.0537 30.6765 65.727C31.2225 65.3957 31.8619 65.23 32.5945 65.23C33.3552 65.23 34.0015 65.405 34.5335 65.755C35.0702 66.105 35.4715 66.6043 35.7375 67.253C36.0082 67.9017 36.1249 68.674 36.0875 69.57H34.8275V69.122C34.8135 68.1933 34.6245 67.5003 34.2605 67.043C33.8965 66.581 33.3552 66.35 32.6365 66.35C31.8665 66.35 31.2809 66.5973 30.8795 67.092C30.4782 67.5867 30.2775 68.296 30.2775 69.22C30.2775 70.1113 30.4782 70.802 30.8795 71.292C31.2809 71.782 31.8525 72.027 32.5945 72.027C33.0939 72.027 33.5279 71.9127 33.8965 71.684C34.2652 71.4553 34.5545 71.1263 34.7645 70.697L35.9615 71.11C35.6675 71.7773 35.2242 72.2953 34.6315 72.664C34.0435 73.028 33.3832 73.21 32.6505 73.21ZM29.8575 69.57V68.569H35.4435V69.57H29.8575ZM37.639 73V65.44H38.843V71.866H41.447V65.44H42.651V71.866H45.248V65.44H46.452V73H37.639ZM51.6818 73.21C50.9398 73.21 50.2911 73.0467 49.7358 72.72C49.1851 72.3887 48.7558 71.929 48.4478 71.341C48.1398 70.7483 47.9858 70.0577 47.9858 69.269C47.9858 68.443 48.1374 67.729 48.4408 67.127C48.7441 66.5203 49.1664 66.0537 49.7078 65.727C50.2538 65.3957 50.8931 65.23 51.6258 65.23C52.3864 65.23 53.0328 65.405 53.5648 65.755C54.1014 66.105 54.5028 66.6043 54.7688 67.253C55.0394 67.9017 55.1561 68.674 55.1188 69.57H53.8588V69.122C53.8448 68.1933 53.6558 67.5003 53.2918 67.043C52.9278 66.581 52.3864 66.35 51.6678 66.35C50.8978 66.35 50.3121 66.5973 49.9108 67.092C49.5094 67.5867 49.3088 68.296 49.3088 69.22C49.3088 70.1113 49.5094 70.802 49.9108 71.292C50.3121 71.782 50.8838 72.027 51.6258 72.027C52.1251 72.027 52.5591 71.9127 52.9278 71.684C53.2964 71.4553 53.5858 71.1263 53.7958 70.697L54.9928 71.11C54.6988 71.7773 54.2554 72.2953 53.6628 72.664C53.0748 73.028 52.4144 73.21 51.6818 73.21ZM48.8888 69.57V68.569H54.4748V69.57H48.8888ZM56.6703 73V65.44H57.9163V68.625H61.8923V65.44H63.1383V73H61.8923V69.808H57.9163V73H56.6703ZM71.2871 65.44V73H70.0831V67.428L66.1211 73H65.0921V65.44H66.2961V70.935L70.2651 65.44H71.2871ZM77.9166 73V70.263H76.2856C76.0942 70.263 75.8819 70.256 75.6486 70.242C75.4199 70.2233 75.2052 70.1977 75.0046 70.165C74.4586 70.0623 73.9966 69.822 73.6186 69.444C73.2452 69.066 73.0586 68.5433 73.0586 67.876C73.0586 67.2273 73.2336 66.707 73.5836 66.315C73.9382 65.9183 74.3746 65.6617 74.8926 65.545C75.1259 65.489 75.3616 65.4587 75.5996 65.454C75.8422 65.4447 76.0476 65.44 76.2156 65.44H79.1626L79.1696 73H77.9166ZM72.8276 73L74.8366 69.92H76.1806L74.1716 73H72.8276ZM76.1946 69.234H77.9166V66.469H76.1946C76.0872 66.469 75.9449 66.4737 75.7676 66.483C75.5949 66.4923 75.4292 66.5203 75.2706 66.567C75.1212 66.609 74.9742 66.686 74.8296 66.798C74.6896 66.91 74.5729 67.0547 74.4796 67.232C74.3862 67.4093 74.3396 67.6193 74.3396 67.862C74.3396 68.212 74.4376 68.4967 74.6336 68.716C74.8296 68.9307 75.0676 69.0753 75.3476 69.15C75.5016 69.1873 75.6532 69.2107 75.8026 69.22C75.9566 69.2293 76.0872 69.234 76.1946 69.234Z" fill="#000206"/>
              </svg>