<svg width="648" height="221" viewBox="0 0 648 221" fill="none" xmlns="http://www.w3.org/2000/svg">
              <path d="M581.03 220.071H268C256.95 220.071 248 211.238 248 200.333V19.7373C248 8.83243 256.95 0 268 0H581.05C588.57 0 595.46 4.16457 598.87 10.7864L645.39 100.956C648.29 106.571 648.29 113.223 645.39 118.848L598.86 209.274C595.45 215.896 588.56 220.071 581.03 220.071Z" fill="#254E6C"/>
              <path d="M267.03 220.071H20C8.95 220.071 0 211.238 0 200.333V19.7373C0 8.83243 8.95 0 20 0H267.05C274.57 0 281.46 4.16457 284.87 10.7864L331.39 100.956C334.29 106.571 334.29 113.223 331.39 118.848L284.86 209.274C281.45 215.896 274.56 220.071 267.03 220.071Z" fill="#F2F2F2"/>
              <path d="M397.32 88.3C395.887 88.3 394.67 87.9833 393.67 87.35C392.67 86.7167 391.907 85.8367 391.38 84.71C390.86 83.5833 390.6 82.28 390.6 80.8C390.6 79.32 390.86 78.0167 391.38 76.89C391.907 75.7633 392.67 74.8833 393.67 74.25C394.67 73.6167 395.887 73.3 397.32 73.3C398.76 73.3 399.98 73.6167 400.98 74.25C401.98 74.8833 402.74 75.7633 403.26 76.89C403.78 78.0167 404.04 79.32 404.04 80.8C404.04 82.28 403.78 83.5833 403.26 84.71C402.74 85.8367 401.98 86.7167 400.98 87.35C399.98 87.9833 398.76 88.3 397.32 88.3ZM397.32 86.6C398.393 86.6067 399.287 86.3667 400 85.88C400.72 85.3867 401.257 84.7033 401.61 83.83C401.97 82.9567 402.15 81.9467 402.15 80.8C402.15 79.6467 401.97 78.6367 401.61 77.77C401.257 76.9033 400.72 76.2267 400 75.74C399.287 75.2533 398.393 75.0067 397.32 75C396.247 74.9933 395.353 75.2333 394.64 75.72C393.933 76.2067 393.4 76.8867 393.04 77.76C392.68 78.6333 392.497 79.6467 392.49 80.8C392.483 81.9467 392.66 82.9533 393.02 83.82C393.38 84.6867 393.917 85.3667 394.63 85.86C395.35 86.3467 396.247 86.5933 397.32 86.6ZM410.438 88.31C409.418 88.3033 408.548 88.0833 407.828 87.65C407.108 87.21 406.548 86.5667 406.148 85.72C405.748 84.8733 405.525 83.8367 405.478 82.61C405.452 82.0433 405.458 81.42 405.498 80.74C405.545 80.06 405.618 79.4067 405.718 78.78C405.825 78.1533 405.958 77.6367 406.118 77.23C406.298 76.7433 406.552 76.2933 406.878 75.88C407.212 75.46 407.585 75.1133 407.998 74.84C408.418 74.5533 408.888 74.33 409.408 74.17C409.928 74.01 410.472 73.8867 411.038 73.8C411.612 73.7067 412.185 73.6267 412.758 73.56C413.332 73.4867 413.878 73.4 414.398 73.3L414.578 74.9C414.212 74.98 413.778 75.05 413.278 75.11C412.778 75.1633 412.258 75.2267 411.718 75.3C411.185 75.3733 410.672 75.4767 410.178 75.61C409.692 75.7367 409.272 75.9133 408.918 76.14C408.398 76.4533 407.998 76.9233 407.718 77.55C407.445 78.17 407.278 78.8667 407.218 79.64C407.632 79 408.168 78.53 408.828 78.23C409.488 77.93 410.192 77.78 410.938 77.78C411.905 77.78 412.738 78.0067 413.438 78.46C414.138 78.9067 414.675 79.5233 415.048 80.31C415.428 81.0967 415.618 81.9933 415.618 83C415.618 84.0667 415.405 85 414.978 85.8C414.552 86.6 413.948 87.22 413.168 87.66C412.395 88.1 411.485 88.3167 410.438 88.31ZM410.548 86.62C411.595 86.62 412.388 86.2967 412.928 85.65C413.468 84.9967 413.738 84.13 413.738 83.05C413.738 81.9433 413.458 81.0733 412.898 80.44C412.338 79.8 411.552 79.48 410.538 79.48C409.512 79.48 408.725 79.8 408.178 80.44C407.638 81.0733 407.368 81.9433 407.368 83.05C407.368 84.1633 407.642 85.0367 408.188 85.67C408.735 86.3033 409.522 86.62 410.548 86.62ZM418.935 92.8L421.025 87.12L421.055 88.8L416.335 77.2H418.205L421.905 86.53H421.265L424.735 77.2H426.545L420.665 92.8H418.935ZM434.697 88V84.11C434.337 84.29 433.9 84.4433 433.387 84.57C432.88 84.6967 432.337 84.76 431.757 84.76C430.657 84.76 429.77 84.5133 429.097 84.02C428.424 83.5267 427.984 82.8167 427.777 81.89C427.717 81.61 427.674 81.32 427.647 81.02C427.627 80.72 427.614 80.4467 427.607 80.2C427.6 79.9533 427.597 79.7733 427.597 79.66V77.2H429.397V79.66C429.397 79.8533 429.404 80.0933 429.417 80.38C429.43 80.66 429.464 80.9333 429.517 81.2C429.65 81.86 429.927 82.3567 430.347 82.69C430.774 83.0233 431.374 83.19 432.147 83.19C432.667 83.19 433.147 83.1233 433.587 82.99C434.027 82.8567 434.397 82.68 434.697 82.46V77.2H436.487V88H434.697ZM443.971 88.3C442.911 88.3 441.984 88.0667 441.191 87.6C440.404 87.1267 439.791 86.47 439.351 85.63C438.911 84.7833 438.691 83.7967 438.691 82.67C438.691 81.49 438.907 80.47 439.341 79.61C439.774 78.7433 440.377 78.0767 441.151 77.61C441.931 77.1367 442.844 76.9 443.891 76.9C444.977 76.9 445.901 77.15 446.661 77.65C447.427 78.15 448.001 78.8633 448.381 79.79C448.767 80.7167 448.934 81.82 448.881 83.1H447.081V82.46C447.061 81.1333 446.791 80.1433 446.271 79.49C445.751 78.83 444.977 78.5 443.951 78.5C442.851 78.5 442.014 78.8533 441.441 79.56C440.867 80.2667 440.581 81.28 440.581 82.6C440.581 83.8733 440.867 84.86 441.441 85.56C442.014 86.26 442.831 86.61 443.891 86.61C444.604 86.61 445.224 86.4467 445.751 86.12C446.277 85.7933 446.691 85.3233 446.991 84.71L448.701 85.3C448.281 86.2533 447.647 86.9933 446.801 87.52C445.961 88.04 445.017 88.3 443.971 88.3ZM439.981 83.1V81.67H447.961V83.1H439.981ZM451.097 88V77.2H452.877V81.75H458.557V77.2H460.337V88H458.557V83.44H452.877V88H451.097ZM471.978 77.2V88H470.258V80.04L464.598 88H463.128V77.2H464.848V85.05L470.518 77.2H471.978ZM479.459 88.3C478.399 88.3 477.472 88.0667 476.679 87.6C475.892 87.1267 475.279 86.47 474.839 85.63C474.399 84.7833 474.179 83.7967 474.179 82.67C474.179 81.49 474.396 80.47 474.829 79.61C475.262 78.7433 475.866 78.0767 476.639 77.61C477.419 77.1367 478.332 76.9 479.379 76.9C480.466 76.9 481.389 77.15 482.149 77.65C482.916 78.15 483.489 78.8633 483.869 79.79C484.256 80.7167 484.422 81.82 484.369 83.1H482.569V82.46C482.549 81.1333 482.279 80.1433 481.759 79.49C481.239 78.83 480.466 78.5 479.439 78.5C478.339 78.5 477.502 78.8533 476.929 79.56C476.356 80.2667 476.069 81.28 476.069 82.6C476.069 83.8733 476.356 84.86 476.929 85.56C477.502 86.26 478.319 86.61 479.379 86.61C480.092 86.61 480.712 86.4467 481.239 86.12C481.766 85.7933 482.179 85.3233 482.479 84.71L484.189 85.3C483.769 86.2533 483.136 86.9933 482.289 87.52C481.449 88.04 480.506 88.3 479.459 88.3ZM475.469 83.1V81.67H483.449V83.1H475.469ZM391.39 108V97.2H400.24V108H398.46V98.89H393.17V108H391.39ZM407.641 108.3C406.567 108.3 405.641 108.057 404.861 107.57C404.087 107.083 403.491 106.41 403.071 105.55C402.651 104.69 402.441 103.703 402.441 102.59C402.441 101.457 402.654 100.463 403.081 99.61C403.507 98.7567 404.111 98.0933 404.891 97.62C405.671 97.14 406.587 96.9 407.641 96.9C408.721 96.9 409.651 97.1433 410.431 97.63C411.211 98.11 411.807 98.78 412.221 99.64C412.641 100.493 412.851 101.477 412.851 102.59C412.851 103.717 412.641 104.71 412.221 105.57C411.801 106.423 411.201 107.093 410.421 107.58C409.641 108.06 408.714 108.3 407.641 108.3ZM407.641 106.61C408.761 106.61 409.594 106.237 410.141 105.49C410.687 104.743 410.961 103.777 410.961 102.59C410.961 101.37 410.684 100.4 410.131 99.68C409.577 98.9533 408.747 98.59 407.641 98.59C406.887 98.59 406.267 98.76 405.781 99.1C405.294 99.44 404.931 99.91 404.691 100.51C404.451 101.11 404.331 101.803 404.331 102.59C404.331 103.803 404.611 104.777 405.171 105.51C405.731 106.243 406.554 106.61 407.641 106.61ZM414.052 108V106.47C414.452 106.543 414.756 106.53 414.962 106.43C415.176 106.323 415.332 106.14 415.432 105.88C415.539 105.613 415.626 105.28 415.692 104.88C415.806 104.247 415.902 103.54 415.982 102.76C416.069 101.98 416.146 101.127 416.212 100.2C416.286 99.2667 416.352 98.2667 416.412 97.2H423.962V108H422.182V98.89H418.032C417.992 99.5033 417.942 100.133 417.882 100.78C417.829 101.427 417.772 102.057 417.712 102.67C417.652 103.277 417.586 103.843 417.512 104.37C417.446 104.89 417.372 105.34 417.292 105.72C417.166 106.373 416.989 106.897 416.762 107.29C416.536 107.677 416.209 107.927 415.782 108.04C415.356 108.16 414.779 108.147 414.052 108ZM426.771 108L426.761 97.2H428.551V101.11H430.881C431.194 101.11 431.514 101.117 431.841 101.13C432.168 101.143 432.451 101.173 432.691 101.22C433.251 101.327 433.741 101.513 434.161 101.78C434.581 102.047 434.908 102.41 435.141 102.87C435.374 103.323 435.491 103.887 435.491 104.56C435.491 105.493 435.248 106.233 434.761 106.78C434.281 107.32 433.651 107.68 432.871 107.86C432.604 107.92 432.298 107.96 431.951 107.98C431.611 107.993 431.288 108 430.981 108H426.771ZM428.551 106.53H431.011C431.211 106.53 431.434 106.523 431.681 106.51C431.928 106.497 432.148 106.463 432.341 106.41C432.681 106.31 432.984 106.113 433.251 105.82C433.524 105.527 433.661 105.107 433.661 104.56C433.661 104.007 433.528 103.58 433.261 103.28C433.001 102.98 432.658 102.783 432.231 102.69C432.038 102.643 431.834 102.613 431.621 102.6C431.408 102.587 431.204 102.58 431.011 102.58H428.551V106.53ZM441.559 108.3C440.492 108.3 439.549 108.07 438.729 107.61C437.909 107.143 437.262 106.503 436.789 105.69L438.209 104.77C438.602 105.363 439.072 105.82 439.619 106.14C440.166 106.453 440.789 106.61 441.489 106.61C442.222 106.61 442.806 106.443 443.239 106.11C443.672 105.77 443.889 105.313 443.889 104.74C443.889 104.313 443.782 103.987 443.569 103.76C443.356 103.533 443.049 103.377 442.649 103.29C442.249 103.203 441.772 103.16 441.219 103.16H440.099V101.69H441.209C441.909 101.69 442.479 101.577 442.919 101.35C443.359 101.123 443.579 100.737 443.579 100.19C443.579 99.63 443.372 99.2233 442.959 98.97C442.552 98.71 442.066 98.58 441.499 98.58C440.899 98.58 440.326 98.7067 439.779 98.96C439.232 99.2067 438.762 99.52 438.369 99.9L437.289 98.69C437.849 98.1167 438.492 97.6767 439.219 97.37C439.952 97.0567 440.749 96.9 441.609 96.9C442.302 96.9 442.936 97.0233 443.509 97.27C444.089 97.51 444.549 97.8667 444.889 98.34C445.236 98.8067 445.409 99.3767 445.409 100.05C445.409 100.623 445.276 101.133 445.009 101.58C444.742 102.027 444.349 102.417 443.829 102.75L443.759 102.12C444.199 102.227 444.562 102.423 444.849 102.71C445.142 102.99 445.359 103.323 445.499 103.71C445.639 104.097 445.709 104.5 445.709 104.92C445.709 105.627 445.522 106.233 445.149 106.74C444.782 107.24 444.286 107.627 443.659 107.9C443.032 108.167 442.332 108.3 441.559 108.3ZM452.504 108.3C451.431 108.3 450.504 108.057 449.724 107.57C448.951 107.083 448.354 106.41 447.934 105.55C447.514 104.69 447.304 103.703 447.304 102.59C447.304 101.457 447.517 100.463 447.944 99.61C448.371 98.7567 448.974 98.0933 449.754 97.62C450.534 97.14 451.451 96.9 452.504 96.9C453.584 96.9 454.514 97.1433 455.294 97.63C456.074 98.11 456.671 98.78 457.084 99.64C457.504 100.493 457.714 101.477 457.714 102.59C457.714 103.717 457.504 104.71 457.084 105.57C456.664 106.423 456.064 107.093 455.284 107.58C454.504 108.06 453.577 108.3 452.504 108.3ZM452.504 106.61C453.624 106.61 454.457 106.237 455.004 105.49C455.551 104.743 455.824 103.777 455.824 102.59C455.824 101.37 455.547 100.4 454.994 99.68C454.441 98.9533 453.611 98.59 452.504 98.59C451.751 98.59 451.131 98.76 450.644 99.1C450.157 99.44 449.794 99.91 449.554 100.51C449.314 101.11 449.194 101.803 449.194 102.59C449.194 103.803 449.474 104.777 450.034 105.51C450.594 106.243 451.417 106.61 452.504 106.61ZM459.906 108V97.2H464.506C464.779 97.2 465.072 97.2167 465.386 97.25C465.706 97.2767 465.996 97.3267 466.256 97.4C466.836 97.5533 467.312 97.87 467.686 98.35C468.066 98.8233 468.256 99.4233 468.256 100.15C468.256 100.557 468.192 100.91 468.066 101.21C467.946 101.51 467.772 101.77 467.546 101.99C467.446 102.09 467.336 102.18 467.216 102.26C467.096 102.34 466.976 102.403 466.856 102.45C467.089 102.49 467.326 102.58 467.566 102.72C467.946 102.927 468.242 103.217 468.456 103.59C468.676 103.963 468.786 104.44 468.786 105.02C468.786 105.753 468.609 106.36 468.256 106.84C467.902 107.313 467.416 107.64 466.796 107.82C466.536 107.893 466.249 107.943 465.936 107.97C465.622 107.99 465.319 108 465.026 108H459.906ZM461.706 106.55H464.926C465.066 106.55 465.232 106.537 465.426 106.51C465.626 106.483 465.802 106.45 465.956 106.41C466.302 106.31 466.552 106.123 466.706 105.85C466.866 105.577 466.946 105.28 466.946 104.96C466.946 104.533 466.826 104.187 466.586 103.92C466.352 103.653 466.042 103.487 465.656 103.42C465.516 103.38 465.362 103.357 465.196 103.35C465.036 103.343 464.892 103.34 464.766 103.34H461.706V106.55ZM461.706 101.87H464.386C464.572 101.87 464.769 101.86 464.976 101.84C465.182 101.813 465.362 101.77 465.516 101.71C465.822 101.597 466.046 101.41 466.186 101.15C466.332 100.883 466.406 100.593 466.406 100.28C466.406 99.9333 466.326 99.63 466.166 99.37C466.012 99.1033 465.776 98.92 465.456 98.82C465.242 98.74 465.002 98.6967 464.736 98.69C464.476 98.6767 464.309 98.67 464.236 98.67H461.706V101.87ZM473.865 108.3C473.058 108.3 472.381 108.153 471.835 107.86C471.295 107.56 470.885 107.167 470.605 106.68C470.331 106.193 470.195 105.66 470.195 105.08C470.195 104.513 470.301 104.023 470.515 103.61C470.735 103.19 471.041 102.843 471.435 102.57C471.828 102.29 472.298 102.07 472.845 101.91C473.358 101.77 473.931 101.65 474.565 101.55C475.205 101.443 475.851 101.347 476.505 101.26C477.158 101.173 477.768 101.09 478.335 101.01L477.695 101.38C477.715 100.42 477.521 99.71 477.115 99.25C476.715 98.79 476.021 98.56 475.035 98.56C474.381 98.56 473.808 98.71 473.315 99.01C472.828 99.3033 472.485 99.7833 472.285 100.45L470.595 99.94C470.855 98.9933 471.358 98.25 472.105 97.71C472.851 97.17 473.835 96.9 475.055 96.9C476.035 96.9 476.875 97.0767 477.575 97.43C478.281 97.7767 478.788 98.3033 479.095 99.01C479.248 99.3433 479.345 99.7067 479.385 100.1C479.425 100.487 479.445 100.893 479.445 101.32V108H477.865V105.41L478.235 105.65C477.828 106.523 477.258 107.183 476.525 107.63C475.798 108.077 474.911 108.3 473.865 108.3ZM474.135 106.81C474.775 106.81 475.328 106.697 475.795 106.47C476.268 106.237 476.648 105.933 476.935 105.56C477.221 105.18 477.408 104.767 477.495 104.32C477.595 103.987 477.648 103.617 477.655 103.21C477.668 102.797 477.675 102.48 477.675 102.26L478.295 102.53C477.715 102.61 477.145 102.687 476.585 102.76C476.025 102.833 475.495 102.913 474.995 103C474.495 103.08 474.045 103.177 473.645 103.29C473.351 103.383 473.075 103.503 472.815 103.65C472.561 103.797 472.355 103.987 472.195 104.22C472.041 104.447 471.965 104.73 471.965 105.07C471.965 105.363 472.038 105.643 472.185 105.91C472.338 106.177 472.571 106.393 472.885 106.56C473.205 106.727 473.621 106.81 474.135 106.81ZM484.905 108V98.82H481.145V97.2H490.445V98.82H486.685V108H484.905ZM497.018 108.3C495.958 108.3 495.031 108.067 494.238 107.6C493.451 107.127 492.838 106.47 492.398 105.63C491.958 104.783 491.738 103.797 491.738 102.67C491.738 101.49 491.954 100.47 492.388 99.61C492.821 98.7433 493.424 98.0767 494.198 97.61C494.978 97.1367 495.891 96.9 496.938 96.9C498.024 96.9 498.948 97.15 499.708 97.65C500.474 98.15 501.048 98.8633 501.428 99.79C501.814 100.717 501.981 101.82 501.928 103.1H500.128V102.46C500.108 101.133 499.838 100.143 499.318 99.49C498.798 98.83 498.024 98.5 496.998 98.5C495.898 98.5 495.061 98.8533 494.488 99.56C493.914 100.267 493.628 101.28 493.628 102.6C493.628 103.873 493.914 104.86 494.488 105.56C495.061 106.26 495.878 106.61 496.938 106.61C497.651 106.61 498.271 106.447 498.798 106.12C499.324 105.793 499.738 105.323 500.038 104.71L501.748 105.3C501.328 106.253 500.694 106.993 499.848 107.52C499.008 108.04 498.064 108.3 497.018 108.3ZM493.028 103.1V101.67H501.008V103.1H493.028ZM503.154 108V106.47C503.554 106.543 503.857 106.53 504.064 106.43C504.277 106.323 504.434 106.14 504.534 105.88C504.641 105.613 504.727 105.28 504.794 104.88C504.907 104.247 505.004 103.54 505.084 102.76C505.171 101.98 505.247 101.127 505.314 100.2C505.387 99.2667 505.454 98.2667 505.514 97.2H513.064V108H511.284V98.89H507.134C507.094 99.5033 507.044 100.133 506.984 100.78C506.931 101.427 506.874 102.057 506.814 102.67C506.754 103.277 506.687 103.843 506.614 104.37C506.547 104.89 506.474 105.34 506.394 105.72C506.267 106.373 506.091 106.897 505.864 107.29C505.637 107.677 505.311 107.927 504.884 108.04C504.457 108.16 503.881 108.147 503.154 108ZM520.553 108.3C519.493 108.3 518.566 108.067 517.773 107.6C516.986 107.127 516.373 106.47 515.933 105.63C515.493 104.783 515.273 103.797 515.273 102.67C515.273 101.49 515.489 100.47 515.923 99.61C516.356 98.7433 516.959 98.0767 517.733 97.61C518.513 97.1367 519.426 96.9 520.473 96.9C521.559 96.9 522.483 97.15 523.243 97.65C524.009 98.15 524.583 98.8633 524.963 99.79C525.349 100.717 525.516 101.82 525.463 103.1H523.663V102.46C523.643 101.133 523.373 100.143 522.853 99.49C522.333 98.83 521.559 98.5 520.533 98.5C519.433 98.5 518.596 98.8533 518.023 99.56C517.449 100.267 517.163 101.28 517.163 102.6C517.163 103.873 517.449 104.86 518.023 105.56C518.596 106.26 519.413 106.61 520.473 106.61C521.186 106.61 521.806 106.447 522.333 106.12C522.859 105.793 523.273 105.323 523.573 104.71L525.283 105.3C524.863 106.253 524.229 106.993 523.383 107.52C522.543 108.04 521.599 108.3 520.553 108.3ZM516.563 103.1V101.67H524.543V103.1H516.563ZM532.339 95.94C531.839 95.94 531.382 95.8167 530.969 95.57C530.556 95.3233 530.226 94.9967 529.979 94.59C529.732 94.1767 529.609 93.7167 529.609 93.21H531.049C531.049 93.5633 531.176 93.8667 531.429 94.12C531.682 94.3733 531.986 94.5 532.339 94.5C532.699 94.5 533.002 94.3733 533.249 94.12C533.502 93.8667 533.629 93.5633 533.629 93.21H535.069C535.069 93.7167 534.946 94.1767 534.699 94.59C534.459 94.9967 534.129 95.3233 533.709 95.57C533.296 95.8167 532.839 95.94 532.339 95.94ZM536.529 97.2V108H534.809V100.04L529.149 108H527.679V97.2H529.399V105.05L535.069 97.2H536.529ZM391.4 128V113.6H402.64V128H400.86V115.29H393.18V128H391.4ZM411.363 128.3C409.93 128.3 408.713 127.983 407.713 127.35C406.713 126.717 405.95 125.837 405.423 124.71C404.903 123.583 404.643 122.28 404.643 120.8C404.643 119.32 404.903 118.017 405.423 116.89C405.95 115.763 406.713 114.883 407.713 114.25C408.713 113.617 409.93 113.3 411.363 113.3C412.803 113.3 414.023 113.617 415.023 114.25C416.023 114.883 416.783 115.763 417.303 116.89C417.823 118.017 418.083 119.32 418.083 120.8C418.083 122.28 417.823 123.583 417.303 124.71C416.783 125.837 416.023 126.717 415.023 127.35C414.023 127.983 412.803 128.3 411.363 128.3ZM411.363 126.6C412.436 126.607 413.33 126.367 414.043 125.88C414.763 125.387 415.3 124.703 415.653 123.83C416.013 122.957 416.193 121.947 416.193 120.8C416.193 119.647 416.013 118.637 415.653 117.77C415.3 116.903 414.763 116.227 414.043 115.74C413.33 115.253 412.436 115.007 411.363 115C410.29 114.993 409.396 115.233 408.683 115.72C407.976 116.207 407.443 116.887 407.083 117.76C406.723 118.633 406.54 119.647 406.533 120.8C406.526 121.947 406.703 122.953 407.063 123.82C407.423 124.687 407.96 125.367 408.673 125.86C409.393 126.347 410.29 126.593 411.363 126.6ZM424.085 128V117.2H428.685C428.959 117.2 429.252 117.217 429.565 117.25C429.885 117.277 430.175 117.327 430.435 117.4C431.015 117.553 431.492 117.87 431.865 118.35C432.245 118.823 432.435 119.423 432.435 120.15C432.435 120.557 432.372 120.91 432.245 121.21C432.125 121.51 431.952 121.77 431.725 121.99C431.625 122.09 431.515 122.18 431.395 122.26C431.275 122.34 431.155 122.403 431.035 122.45C431.269 122.49 431.505 122.58 431.745 122.72C432.125 122.927 432.422 123.217 432.635 123.59C432.855 123.963 432.965 124.44 432.965 125.02C432.965 125.753 432.789 126.36 432.435 126.84C432.082 127.313 431.595 127.64 430.975 127.82C430.715 127.893 430.429 127.943 430.115 127.97C429.802 127.99 429.499 128 429.205 128H424.085ZM425.885 126.55H429.105C429.245 126.55 429.412 126.537 429.605 126.51C429.805 126.483 429.982 126.45 430.135 126.41C430.482 126.31 430.732 126.123 430.885 125.85C431.045 125.577 431.125 125.28 431.125 124.96C431.125 124.533 431.005 124.187 430.765 123.92C430.532 123.653 430.222 123.487 429.835 123.42C429.695 123.38 429.542 123.357 429.375 123.35C429.215 123.343 429.072 123.34 428.945 123.34H425.885V126.55ZM425.885 121.87H428.565C428.752 121.87 428.949 121.86 429.155 121.84C429.362 121.813 429.542 121.77 429.695 121.71C430.002 121.597 430.225 121.41 430.365 121.15C430.512 120.883 430.585 120.593 430.585 120.28C430.585 119.933 430.505 119.63 430.345 119.37C430.192 119.103 429.955 118.92 429.635 118.82C429.422 118.74 429.182 118.697 428.915 118.69C428.655 118.677 428.489 118.67 428.415 118.67H425.885V121.87ZM438.968 128L438.978 117.2H440.778V122.4L445.308 117.2H447.618L442.848 122.6L448.178 128H445.688L440.778 122.8V128H438.968ZM453.578 128.3C452.505 128.3 451.578 128.057 450.798 127.57C450.025 127.083 449.428 126.41 449.008 125.55C448.588 124.69 448.378 123.703 448.378 122.59C448.378 121.457 448.591 120.463 449.018 119.61C449.445 118.757 450.048 118.093 450.828 117.62C451.608 117.14 452.525 116.9 453.578 116.9C454.658 116.9 455.588 117.143 456.368 117.63C457.148 118.11 457.745 118.78 458.158 119.64C458.578 120.493 458.788 121.477 458.788 122.59C458.788 123.717 458.578 124.71 458.158 125.57C457.738 126.423 457.138 127.093 456.358 127.58C455.578 128.06 454.651 128.3 453.578 128.3ZM453.578 126.61C454.698 126.61 455.531 126.237 456.078 125.49C456.625 124.743 456.898 123.777 456.898 122.59C456.898 121.37 456.621 120.4 456.068 119.68C455.515 118.953 454.685 118.59 453.578 118.59C452.825 118.59 452.205 118.76 451.718 119.1C451.231 119.44 450.868 119.91 450.628 120.51C450.388 121.11 450.268 121.803 450.268 122.59C450.268 123.803 450.548 124.777 451.108 125.51C451.668 126.243 452.491 126.61 453.578 126.61ZM460.98 128V117.2H462.51L466.61 125.58L470.71 117.2H472.24V128H470.52V120.91L467.08 128H466.14L462.7 120.91V128H460.98ZM475.023 128V117.2H483.873V128H482.093V118.89H476.803V128H475.023ZM489.743 128.3C488.937 128.3 488.26 128.153 487.713 127.86C487.173 127.56 486.763 127.167 486.483 126.68C486.21 126.193 486.073 125.66 486.073 125.08C486.073 124.513 486.18 124.023 486.393 123.61C486.613 123.19 486.92 122.843 487.313 122.57C487.707 122.29 488.177 122.07 488.723 121.91C489.237 121.77 489.81 121.65 490.443 121.55C491.083 121.443 491.73 121.347 492.383 121.26C493.037 121.173 493.647 121.09 494.213 121.01L493.573 121.38C493.593 120.42 493.4 119.71 492.993 119.25C492.593 118.79 491.9 118.56 490.913 118.56C490.26 118.56 489.687 118.71 489.193 119.01C488.707 119.303 488.363 119.783 488.163 120.45L486.473 119.94C486.733 118.993 487.237 118.25 487.983 117.71C488.73 117.17 489.713 116.9 490.933 116.9C491.913 116.9 492.753 117.077 493.453 117.43C494.16 117.777 494.667 118.303 494.973 119.01C495.127 119.343 495.223 119.707 495.263 120.1C495.303 120.487 495.323 120.893 495.323 121.32V128H493.743V125.41L494.113 125.65C493.707 126.523 493.137 127.183 492.403 127.63C491.677 128.077 490.79 128.3 489.743 128.3ZM490.013 126.81C490.653 126.81 491.207 126.697 491.673 126.47C492.147 126.237 492.527 125.933 492.813 125.56C493.1 125.18 493.287 124.767 493.373 124.32C493.473 123.987 493.527 123.617 493.533 123.21C493.547 122.797 493.553 122.48 493.553 122.26L494.173 122.53C493.593 122.61 493.023 122.687 492.463 122.76C491.903 122.833 491.373 122.913 490.873 123C490.373 123.08 489.923 123.177 489.523 123.29C489.23 123.383 488.953 123.503 488.693 123.65C488.44 123.797 488.233 123.987 488.073 124.22C487.92 124.447 487.843 124.73 487.843 125.07C487.843 125.363 487.917 125.643 488.063 125.91C488.217 126.177 488.45 126.393 488.763 126.56C489.083 126.727 489.5 126.81 490.013 126.81ZM497.913 128V117.2H499.693V121.75H505.373V117.2H507.153V128H505.373V123.44H499.693V128H497.913ZM518.795 117.2V128H517.075V120.04L511.415 128H509.945V117.2H511.665V125.05L517.335 117.2H518.795ZM530.435 117.2V128H528.715V120.04L523.055 128H521.585V117.2H523.305V125.05L528.975 117.2H530.435ZM395.27 148.3C394.203 148.3 393.26 148.07 392.44 147.61C391.62 147.143 390.973 146.503 390.5 145.69L391.92 144.77C392.313 145.363 392.783 145.82 393.33 146.14C393.877 146.453 394.5 146.61 395.2 146.61C395.933 146.61 396.517 146.443 396.95 146.11C397.383 145.77 397.6 145.313 397.6 144.74C397.6 144.313 397.493 143.987 397.28 143.76C397.067 143.533 396.76 143.377 396.36 143.29C395.96 143.203 395.483 143.16 394.93 143.16H393.81V141.69H394.92C395.62 141.69 396.19 141.577 396.63 141.35C397.07 141.123 397.29 140.737 397.29 140.19C397.29 139.63 397.083 139.223 396.67 138.97C396.263 138.71 395.777 138.58 395.21 138.58C394.61 138.58 394.037 138.707 393.49 138.96C392.943 139.207 392.473 139.52 392.08 139.9L391 138.69C391.56 138.117 392.203 137.677 392.93 137.37C393.663 137.057 394.46 136.9 395.32 136.9C396.013 136.9 396.647 137.023 397.22 137.27C397.8 137.51 398.26 137.867 398.6 138.34C398.947 138.807 399.12 139.377 399.12 140.05C399.12 140.623 398.987 141.133 398.72 141.58C398.453 142.027 398.06 142.417 397.54 142.75L397.47 142.12C397.91 142.227 398.273 142.423 398.56 142.71C398.853 142.99 399.07 143.323 399.21 143.71C399.35 144.097 399.42 144.5 399.42 144.92C399.42 145.627 399.233 146.233 398.86 146.74C398.493 147.24 397.997 147.627 397.37 147.9C396.743 148.167 396.043 148.3 395.27 148.3ZM404.685 148.3C403.878 148.3 403.202 148.153 402.655 147.86C402.115 147.56 401.705 147.167 401.425 146.68C401.152 146.193 401.015 145.66 401.015 145.08C401.015 144.513 401.122 144.023 401.335 143.61C401.555 143.19 401.862 142.843 402.255 142.57C402.648 142.29 403.118 142.07 403.665 141.91C404.178 141.77 404.752 141.65 405.385 141.55C406.025 141.443 406.672 141.347 407.325 141.26C407.978 141.173 408.588 141.09 409.155 141.01L408.515 141.38C408.535 140.42 408.342 139.71 407.935 139.25C407.535 138.79 406.842 138.56 405.855 138.56C405.202 138.56 404.628 138.71 404.135 139.01C403.648 139.303 403.305 139.783 403.105 140.45L401.415 139.94C401.675 138.993 402.178 138.25 402.925 137.71C403.672 137.17 404.655 136.9 405.875 136.9C406.855 136.9 407.695 137.077 408.395 137.43C409.102 137.777 409.608 138.303 409.915 139.01C410.068 139.343 410.165 139.707 410.205 140.1C410.245 140.487 410.265 140.893 410.265 141.32V148H408.685V145.41L409.055 145.65C408.648 146.523 408.078 147.183 407.345 147.63C406.618 148.077 405.732 148.3 404.685 148.3ZM404.955 146.81C405.595 146.81 406.148 146.697 406.615 146.47C407.088 146.237 407.468 145.933 407.755 145.56C408.042 145.18 408.228 144.767 408.315 144.32C408.415 143.987 408.468 143.617 408.475 143.21C408.488 142.797 408.495 142.48 408.495 142.26L409.115 142.53C408.535 142.61 407.965 142.687 407.405 142.76C406.845 142.833 406.315 142.913 405.815 143C405.315 143.08 404.865 143.177 404.465 143.29C404.172 143.383 403.895 143.503 403.635 143.65C403.382 143.797 403.175 143.987 403.015 144.22C402.862 144.447 402.785 144.73 402.785 145.07C402.785 145.363 402.858 145.643 403.005 145.91C403.158 146.177 403.392 146.393 403.705 146.56C404.025 146.727 404.442 146.81 404.955 146.81ZM412.855 148L412.865 137.2H414.665V142.4L419.195 137.2H421.505L416.735 142.6L422.065 148H419.575L414.665 142.8V148H412.855ZM426.13 148.3C425.323 148.3 424.647 148.153 424.1 147.86C423.56 147.56 423.15 147.167 422.87 146.68C422.597 146.193 422.46 145.66 422.46 145.08C422.46 144.513 422.567 144.023 422.78 143.61C423 143.19 423.307 142.843 423.7 142.57C424.093 142.29 424.563 142.07 425.11 141.91C425.623 141.77 426.197 141.65 426.83 141.55C427.47 141.443 428.117 141.347 428.77 141.26C429.423 141.173 430.033 141.09 430.6 141.01L429.96 141.38C429.98 140.42 429.787 139.71 429.38 139.25C428.98 138.79 428.287 138.56 427.3 138.56C426.647 138.56 426.073 138.71 425.58 139.01C425.093 139.303 424.75 139.783 424.55 140.45L422.86 139.94C423.12 138.993 423.623 138.25 424.37 137.71C425.117 137.17 426.1 136.9 427.32 136.9C428.3 136.9 429.14 137.077 429.84 137.43C430.547 137.777 431.053 138.303 431.36 139.01C431.513 139.343 431.61 139.707 431.65 140.1C431.69 140.487 431.71 140.893 431.71 141.32V148H430.13V145.41L430.5 145.65C430.093 146.523 429.523 147.183 428.79 147.63C428.063 148.077 427.177 148.3 426.13 148.3ZM426.4 146.81C427.04 146.81 427.593 146.697 428.06 146.47C428.533 146.237 428.913 145.933 429.2 145.56C429.487 145.18 429.673 144.767 429.76 144.32C429.86 143.987 429.913 143.617 429.92 143.21C429.933 142.797 429.94 142.48 429.94 142.26L430.56 142.53C429.98 142.61 429.41 142.687 428.85 142.76C428.29 142.833 427.76 142.913 427.26 143C426.76 143.08 426.31 143.177 425.91 143.29C425.617 143.383 425.34 143.503 425.08 143.65C424.827 143.797 424.62 143.987 424.46 144.22C424.307 144.447 424.23 144.73 424.23 145.07C424.23 145.363 424.303 145.643 424.45 145.91C424.603 146.177 424.837 146.393 425.15 146.56C425.47 146.727 425.887 146.81 426.4 146.81ZM438.18 148.3C437.113 148.3 436.17 148.07 435.35 147.61C434.53 147.143 433.883 146.503 433.41 145.69L434.83 144.77C435.223 145.363 435.693 145.82 436.24 146.14C436.787 146.453 437.41 146.61 438.11 146.61C438.843 146.61 439.427 146.443 439.86 146.11C440.293 145.77 440.51 145.313 440.51 144.74C440.51 144.313 440.403 143.987 440.19 143.76C439.977 143.533 439.67 143.377 439.27 143.29C438.87 143.203 438.393 143.16 437.84 143.16H436.72V141.69H437.83C438.53 141.69 439.1 141.577 439.54 141.35C439.98 141.123 440.2 140.737 440.2 140.19C440.2 139.63 439.993 139.223 439.58 138.97C439.173 138.71 438.687 138.58 438.12 138.58C437.52 138.58 436.947 138.707 436.4 138.96C435.853 139.207 435.383 139.52 434.99 139.9L433.91 138.69C434.47 138.117 435.113 137.677 435.84 137.37C436.573 137.057 437.37 136.9 438.23 136.9C438.923 136.9 439.557 137.023 440.13 137.27C440.71 137.51 441.17 137.867 441.51 138.34C441.857 138.807 442.03 139.377 442.03 140.05C442.03 140.623 441.897 141.133 441.63 141.58C441.363 142.027 440.97 142.417 440.45 142.75L440.38 142.12C440.82 142.227 441.183 142.423 441.47 142.71C441.763 142.99 441.98 143.323 442.12 143.71C442.26 144.097 442.33 144.5 442.33 144.92C442.33 145.627 442.143 146.233 441.77 146.74C441.403 147.24 440.907 147.627 440.28 147.9C439.653 148.167 438.953 148.3 438.18 148.3ZM451.025 148V144.11C450.665 144.29 450.228 144.443 449.715 144.57C449.208 144.697 448.665 144.76 448.085 144.76C446.985 144.76 446.098 144.513 445.425 144.02C444.752 143.527 444.312 142.817 444.105 141.89C444.045 141.61 444.002 141.32 443.975 141.02C443.955 140.72 443.942 140.447 443.935 140.2C443.928 139.953 443.925 139.773 443.925 139.66V137.2H445.725V139.66C445.725 139.853 445.732 140.093 445.745 140.38C445.758 140.66 445.792 140.933 445.845 141.2C445.978 141.86 446.255 142.357 446.675 142.69C447.102 143.023 447.702 143.19 448.475 143.19C448.995 143.19 449.475 143.123 449.915 142.99C450.355 142.857 450.725 142.68 451.025 142.46V137.2H452.815V148H451.025ZM464.459 137.2V148H462.739V140.04L457.079 148H455.609V137.2H457.329V145.05L462.999 137.2H464.459ZM467.249 148L467.259 137.2H469.059V142.4L473.589 137.2H475.899L471.129 142.6L476.459 148H473.969L469.059 142.8V148H467.249ZM480.525 148.3C479.718 148.3 479.041 148.153 478.495 147.86C477.955 147.56 477.545 147.167 477.265 146.68C476.991 146.193 476.855 145.66 476.855 145.08C476.855 144.513 476.961 144.023 477.175 143.61C477.395 143.19 477.701 142.843 478.095 142.57C478.488 142.29 478.958 142.07 479.505 141.91C480.018 141.77 480.591 141.65 481.225 141.55C481.865 141.443 482.511 141.347 483.165 141.26C483.818 141.173 484.428 141.09 484.995 141.01L484.355 141.38C484.375 140.42 484.181 139.71 483.775 139.25C483.375 138.79 482.681 138.56 481.695 138.56C481.041 138.56 480.468 138.71 479.975 139.01C479.488 139.303 479.145 139.783 478.945 140.45L477.255 139.94C477.515 138.993 478.018 138.25 478.765 137.71C479.511 137.17 480.495 136.9 481.715 136.9C482.695 136.9 483.535 137.077 484.235 137.43C484.941 137.777 485.448 138.303 485.755 139.01C485.908 139.343 486.005 139.707 486.045 140.1C486.085 140.487 486.105 140.893 486.105 141.32V148H484.525V145.41L484.895 145.65C484.488 146.523 483.918 147.183 483.185 147.63C482.458 148.077 481.571 148.3 480.525 148.3ZM480.795 146.81C481.435 146.81 481.988 146.697 482.455 146.47C482.928 146.237 483.308 145.933 483.595 145.56C483.881 145.18 484.068 144.767 484.155 144.32C484.255 143.987 484.308 143.617 484.315 143.21C484.328 142.797 484.335 142.48 484.335 142.26L484.955 142.53C484.375 142.61 483.805 142.687 483.245 142.76C482.685 142.833 482.155 142.913 481.655 143C481.155 143.08 480.705 143.177 480.305 143.29C480.011 143.383 479.735 143.503 479.475 143.65C479.221 143.797 479.015 143.987 478.855 144.22C478.701 144.447 478.625 144.73 478.625 145.07C478.625 145.363 478.698 145.643 478.845 145.91C478.998 146.177 479.231 146.393 479.545 146.56C479.865 146.727 480.281 146.81 480.795 146.81Z" fill="white"/>
              <path d="M52.4 108V93.6H63.64V108H61.86V95.29H54.18V108H52.4ZM71.043 108.3C69.9696 108.3 69.043 108.057 68.263 107.57C67.4896 107.083 66.893 106.41 66.473 105.55C66.053 104.69 65.843 103.703 65.843 102.59C65.843 101.457 66.0563 100.463 66.483 99.61C66.9096 98.7567 67.513 98.0933 68.293 97.62C69.073 97.14 69.9896 96.9 71.043 96.9C72.123 96.9 73.053 97.1433 73.833 97.63C74.613 98.11 75.2096 98.78 75.623 99.64C76.043 100.493 76.253 101.477 76.253 102.59C76.253 103.717 76.043 104.71 75.623 105.57C75.203 106.423 74.603 107.093 73.823 107.58C73.043 108.06 72.1163 108.3 71.043 108.3ZM71.043 106.61C72.163 106.61 72.9963 106.237 73.543 105.49C74.0896 104.743 74.363 103.777 74.363 102.59C74.363 101.37 74.0863 100.4 73.533 99.68C72.9796 98.9533 72.1496 98.59 71.043 98.59C70.2896 98.59 69.6696 98.76 69.183 99.1C68.6963 99.44 68.333 99.91 68.093 100.51C67.853 101.11 67.733 101.803 67.733 102.59C67.733 103.803 68.013 104.777 68.573 105.51C69.133 106.243 69.9563 106.61 71.043 106.61ZM77.6547 110.4V106.53C78.2614 106.53 78.6947 106.333 78.9547 105.94C79.2147 105.54 79.4247 104.883 79.5847 103.97C79.6914 103.397 79.778 102.783 79.8447 102.13C79.9114 101.477 79.968 100.75 80.0147 99.95C80.068 99.1433 80.118 98.2267 80.1647 97.2H87.6047V106.53H88.6547V110.4H86.9547V108H79.3547V110.4H77.6547ZM80.3947 106.53H85.8247V98.67H81.7747C81.7547 99.1433 81.728 99.64 81.6947 100.16C81.6614 100.673 81.6214 101.187 81.5747 101.7C81.5347 102.213 81.4847 102.7 81.4247 103.16C81.3714 103.613 81.308 104.02 81.2347 104.38C81.148 104.88 81.048 105.303 80.9347 105.65C80.8214 105.997 80.6414 106.29 80.3947 106.53ZM89.8617 110.4V106.53C90.4684 106.53 90.9017 106.333 91.1617 105.94C91.4217 105.54 91.6317 104.883 91.7917 103.97C91.8984 103.397 91.9851 102.783 92.0517 102.13C92.1184 101.477 92.1751 100.75 92.2217 99.95C92.2751 99.1433 92.3251 98.2267 92.3717 97.2H99.8117V106.53H100.862V110.4H99.1617V108H91.5617V110.4H89.8617ZM92.6017 106.53H98.0317V98.67H93.9817C93.9617 99.1433 93.9351 99.64 93.9017 100.16C93.8684 100.673 93.8284 101.187 93.7817 101.7C93.7417 102.213 93.6917 102.7 93.6317 103.16C93.5784 103.613 93.5151 104.02 93.4417 104.38C93.3551 104.88 93.2551 105.303 93.1417 105.65C93.0284 105.997 92.8484 106.29 92.6017 106.53ZM107.549 108.3C106.489 108.3 105.562 108.067 104.769 107.6C103.982 107.127 103.369 106.47 102.929 105.63C102.489 104.783 102.269 103.797 102.269 102.67C102.269 101.49 102.485 100.47 102.919 99.61C103.352 98.7433 103.955 98.0767 104.729 97.61C105.509 97.1367 106.422 96.9 107.469 96.9C108.555 96.9 109.479 97.15 110.239 97.65C111.005 98.15 111.579 98.8633 111.959 99.79C112.345 100.717 112.512 101.82 112.459 103.1H110.659V102.46C110.639 101.133 110.369 100.143 109.849 99.49C109.329 98.83 108.555 98.5 107.529 98.5C106.429 98.5 105.592 98.8533 105.019 99.56C104.445 100.267 104.159 101.28 104.159 102.6C104.159 103.873 104.445 104.86 105.019 105.56C105.592 106.26 106.409 106.61 107.469 106.61C108.182 106.61 108.802 106.447 109.329 106.12C109.855 105.793 110.269 105.323 110.569 104.71L112.279 105.3C111.859 106.253 111.225 106.993 110.379 107.52C109.539 108.04 108.595 108.3 107.549 108.3ZM103.559 103.1V101.67H111.539V103.1H103.559ZM119.645 108.3C118.632 108.3 117.778 108.05 117.085 107.55C116.392 107.043 115.865 106.36 115.505 105.5C115.152 104.633 114.975 103.663 114.975 102.59C114.975 101.503 115.152 100.53 115.505 99.67C115.865 98.81 116.392 98.1333 117.085 97.64C117.785 97.1467 118.642 96.9 119.655 96.9C120.655 96.9 121.515 97.15 122.235 97.65C122.962 98.1433 123.518 98.82 123.905 99.68C124.292 100.54 124.485 101.51 124.485 102.59C124.485 103.67 124.292 104.64 123.905 105.5C123.518 106.36 122.962 107.043 122.235 107.55C121.515 108.05 120.652 108.3 119.645 108.3ZM114.675 112.8V97.2H116.265V105.15H116.465V112.8H114.675ZM119.425 106.67C120.138 106.67 120.728 106.49 121.195 106.13C121.662 105.77 122.012 105.283 122.245 104.67C122.478 104.05 122.595 103.357 122.595 102.59C122.595 101.83 122.478 101.143 122.245 100.53C122.018 99.9167 121.665 99.43 121.185 99.07C120.712 98.71 120.108 98.53 119.375 98.53C118.675 98.53 118.095 98.7033 117.635 99.05C117.175 99.39 116.832 99.8667 116.605 100.48C116.378 101.087 116.265 101.79 116.265 102.59C116.265 103.377 116.375 104.08 116.595 104.7C116.822 105.313 117.168 105.797 117.635 106.15C118.102 106.497 118.698 106.67 119.425 106.67ZM125.087 108L129.447 102.6L125.297 97.2H127.277L131.287 102.5V97.2H132.907V102.5L136.917 97.2H138.897L134.747 102.6L139.107 108H137.037L132.907 102.7V108H131.287V102.7L127.157 108H125.087ZM140.691 108L140.701 97.2H142.501V102.4L147.031 97.2H149.341L144.571 102.6L149.901 108H147.411L142.501 102.8V108H140.691ZM153.966 108.3C153.159 108.3 152.483 108.153 151.936 107.86C151.396 107.56 150.986 107.167 150.706 106.68C150.433 106.193 150.296 105.66 150.296 105.08C150.296 104.513 150.403 104.023 150.616 103.61C150.836 103.19 151.143 102.843 151.536 102.57C151.929 102.29 152.399 102.07 152.946 101.91C153.459 101.77 154.033 101.65 154.666 101.55C155.306 101.443 155.953 101.347 156.606 101.26C157.259 101.173 157.869 101.09 158.436 101.01L157.796 101.38C157.816 100.42 157.623 99.71 157.216 99.25C156.816 98.79 156.123 98.56 155.136 98.56C154.483 98.56 153.909 98.71 153.416 99.01C152.929 99.3033 152.586 99.7833 152.386 100.45L150.696 99.94C150.956 98.9933 151.459 98.25 152.206 97.71C152.953 97.17 153.936 96.9 155.156 96.9C156.136 96.9 156.976 97.0767 157.676 97.43C158.383 97.7767 158.889 98.3033 159.196 99.01C159.349 99.3433 159.446 99.7067 159.486 100.1C159.526 100.487 159.546 100.893 159.546 101.32V108H157.966V105.41L158.336 105.65C157.929 106.523 157.359 107.183 156.626 107.63C155.899 108.077 155.013 108.3 153.966 108.3ZM154.236 106.81C154.876 106.81 155.429 106.697 155.896 106.47C156.369 106.237 156.749 105.933 157.036 105.56C157.323 105.18 157.509 104.767 157.596 104.32C157.696 103.987 157.749 103.617 157.756 103.21C157.769 102.797 157.776 102.48 157.776 102.26L158.396 102.53C157.816 102.61 157.246 102.687 156.686 102.76C156.126 102.833 155.596 102.913 155.096 103C154.596 103.08 154.146 103.177 153.746 103.29C153.453 103.383 153.176 103.503 152.916 103.65C152.663 103.797 152.456 103.987 152.296 104.22C152.143 104.447 152.066 104.73 152.066 105.07C152.066 105.363 152.139 105.643 152.286 105.91C152.439 106.177 152.673 106.393 152.986 106.56C153.306 106.727 153.723 106.81 154.236 106.81ZM174.99 97.2V108H173.27V100.04L167.61 108H166.14V97.2H167.86V105.05L173.53 97.2H174.99ZM186.755 108.3C185.741 108.3 184.888 108.05 184.195 107.55C183.501 107.043 182.975 106.36 182.615 105.5C182.261 104.633 182.085 103.663 182.085 102.59C182.085 101.503 182.261 100.53 182.615 99.67C182.975 98.81 183.501 98.1333 184.195 97.64C184.895 97.1467 185.751 96.9 186.765 96.9C187.765 96.9 188.625 97.15 189.345 97.65C190.071 98.1433 190.628 98.82 191.015 99.68C191.401 100.54 191.595 101.51 191.595 102.59C191.595 103.67 191.401 104.64 191.015 105.5C190.628 106.36 190.071 107.043 189.345 107.55C188.625 108.05 187.761 108.3 186.755 108.3ZM181.785 112.8V97.2H183.375V105.15H183.575V112.8H181.785ZM186.535 106.67C187.248 106.67 187.838 106.49 188.305 106.13C188.771 105.77 189.121 105.283 189.355 104.67C189.588 104.05 189.705 103.357 189.705 102.59C189.705 101.83 189.588 101.143 189.355 100.53C189.128 99.9167 188.775 99.43 188.295 99.07C187.821 98.71 187.218 98.53 186.485 98.53C185.785 98.53 185.205 98.7033 184.745 99.05C184.285 99.39 183.941 99.8667 183.715 100.48C183.488 101.087 183.375 101.79 183.375 102.59C183.375 103.377 183.485 104.08 183.705 104.7C183.931 105.313 184.278 105.797 184.745 106.15C185.211 106.497 185.808 106.67 186.535 106.67ZM196.857 108.3C196.05 108.3 195.373 108.153 194.827 107.86C194.287 107.56 193.877 107.167 193.597 106.68C193.323 106.193 193.187 105.66 193.187 105.08C193.187 104.513 193.293 104.023 193.507 103.61C193.727 103.19 194.033 102.843 194.427 102.57C194.82 102.29 195.29 102.07 195.837 101.91C196.35 101.77 196.923 101.65 197.557 101.55C198.197 101.443 198.843 101.347 199.497 101.26C200.15 101.173 200.76 101.09 201.327 101.01L200.687 101.38C200.707 100.42 200.513 99.71 200.107 99.25C199.707 98.79 199.013 98.56 198.027 98.56C197.373 98.56 196.8 98.71 196.307 99.01C195.82 99.3033 195.477 99.7833 195.277 100.45L193.587 99.94C193.847 98.9933 194.35 98.25 195.097 97.71C195.843 97.17 196.827 96.9 198.047 96.9C199.027 96.9 199.867 97.0767 200.567 97.43C201.273 97.7767 201.78 98.3033 202.087 99.01C202.24 99.3433 202.337 99.7067 202.377 100.1C202.417 100.487 202.437 100.893 202.437 101.32V108H200.857V105.41L201.227 105.65C200.82 106.523 200.25 107.183 199.517 107.63C198.79 108.077 197.903 108.3 196.857 108.3ZM197.127 106.81C197.767 106.81 198.32 106.697 198.787 106.47C199.26 106.237 199.64 105.933 199.927 105.56C200.213 105.18 200.4 104.767 200.487 104.32C200.587 103.987 200.64 103.617 200.647 103.21C200.66 102.797 200.667 102.48 200.667 102.26L201.287 102.53C200.707 102.61 200.137 102.687 199.577 102.76C199.017 102.833 198.487 102.913 197.987 103C197.487 103.08 197.037 103.177 196.637 103.29C196.343 103.383 196.067 103.503 195.807 103.65C195.553 103.797 195.347 103.987 195.187 104.22C195.033 104.447 194.957 104.73 194.957 105.07C194.957 105.363 195.03 105.643 195.177 105.91C195.33 106.177 195.563 106.393 195.877 106.56C196.197 106.727 196.613 106.81 197.127 106.81ZM208.907 108.3C207.84 108.3 206.897 108.07 206.077 107.61C205.257 107.143 204.61 106.503 204.137 105.69L205.557 104.77C205.95 105.363 206.42 105.82 206.967 106.14C207.513 106.453 208.137 106.61 208.837 106.61C209.57 106.61 210.153 106.443 210.587 106.11C211.02 105.77 211.237 105.313 211.237 104.74C211.237 104.313 211.13 103.987 210.917 103.76C210.703 103.533 210.397 103.377 209.997 103.29C209.597 103.203 209.12 103.16 208.567 103.16H207.447V101.69H208.557C209.257 101.69 209.827 101.577 210.267 101.35C210.707 101.123 210.927 100.737 210.927 100.19C210.927 99.63 210.72 99.2233 210.307 98.97C209.9 98.71 209.413 98.58 208.847 98.58C208.247 98.58 207.673 98.7067 207.127 98.96C206.58 99.2067 206.11 99.52 205.717 99.9L204.637 98.69C205.197 98.1167 205.84 97.6767 206.567 97.37C207.3 97.0567 208.097 96.9 208.957 96.9C209.65 96.9 210.283 97.0233 210.857 97.27C211.437 97.51 211.897 97.8667 212.237 98.34C212.583 98.8067 212.757 99.3767 212.757 100.05C212.757 100.623 212.623 101.133 212.357 101.58C212.09 102.027 211.697 102.417 211.177 102.75L211.107 102.12C211.547 102.227 211.91 102.423 212.197 102.71C212.49 102.99 212.707 103.323 212.847 103.71C212.987 104.097 213.057 104.5 213.057 104.92C213.057 105.627 212.87 106.233 212.497 106.74C212.13 107.24 211.633 107.627 211.007 107.9C210.38 108.167 209.68 108.3 208.907 108.3ZM215.242 108V97.2H219.842C220.115 97.2 220.408 97.2167 220.722 97.25C221.042 97.2767 221.332 97.3267 221.592 97.4C222.172 97.5533 222.648 97.87 223.022 98.35C223.402 98.8233 223.592 99.4233 223.592 100.15C223.592 100.557 223.528 100.91 223.402 101.21C223.282 101.51 223.108 101.77 222.882 101.99C222.782 102.09 222.672 102.18 222.552 102.26C222.432 102.34 222.312 102.403 222.192 102.45C222.425 102.49 222.662 102.58 222.902 102.72C223.282 102.927 223.578 103.217 223.792 103.59C224.012 103.963 224.122 104.44 224.122 105.02C224.122 105.753 223.945 106.36 223.592 106.84C223.238 107.313 222.752 107.64 222.132 107.82C221.872 107.893 221.585 107.943 221.272 107.97C220.958 107.99 220.655 108 220.362 108H215.242ZM217.042 106.55H220.262C220.402 106.55 220.568 106.537 220.762 106.51C220.962 106.483 221.138 106.45 221.292 106.41C221.638 106.31 221.888 106.123 222.042 105.85C222.202 105.577 222.282 105.28 222.282 104.96C222.282 104.533 222.162 104.187 221.922 103.92C221.688 103.653 221.378 103.487 220.992 103.42C220.852 103.38 220.698 103.357 220.532 103.35C220.372 103.343 220.228 103.34 220.102 103.34H217.042V106.55ZM217.042 101.87H219.722C219.908 101.87 220.105 101.86 220.312 101.84C220.518 101.813 220.698 101.77 220.852 101.71C221.158 101.597 221.382 101.41 221.522 101.15C221.668 100.883 221.742 100.593 221.742 100.28C221.742 99.9333 221.662 99.63 221.502 99.37C221.348 99.1033 221.112 98.92 220.792 98.82C220.578 98.74 220.338 98.6967 220.072 98.69C219.812 98.6767 219.645 98.67 219.572 98.67H217.042V101.87ZM234.97 97.2V108H233.25V100.04L227.59 108H226.12V97.2H227.84V105.05L233.51 97.2H234.97ZM240.631 108V98.82H236.871V97.2H246.171V98.82H242.411V108H240.631ZM256.904 97.2V108H255.184V100.04L249.524 108H248.054V97.2H249.774V105.05L255.444 97.2H256.904ZM264.385 108.3C263.325 108.3 262.398 108.067 261.605 107.6C260.818 107.127 260.205 106.47 259.765 105.63C259.325 104.783 259.105 103.797 259.105 102.67C259.105 101.49 259.321 100.47 259.755 99.61C260.188 98.7433 260.791 98.0767 261.565 97.61C262.345 97.1367 263.258 96.9 264.305 96.9C265.391 96.9 266.315 97.15 267.075 97.65C267.841 98.15 268.415 98.8633 268.795 99.79C269.181 100.717 269.348 101.82 269.295 103.1H267.495V102.46C267.475 101.133 267.205 100.143 266.685 99.49C266.165 98.83 265.391 98.5 264.365 98.5C263.265 98.5 262.428 98.8533 261.855 99.56C261.281 100.267 260.995 101.28 260.995 102.6C260.995 103.873 261.281 104.86 261.855 105.56C262.428 106.26 263.245 106.61 264.305 106.61C265.018 106.61 265.638 106.447 266.165 106.12C266.691 105.793 267.105 105.323 267.405 104.71L269.115 105.3C268.695 106.253 268.061 106.993 267.215 107.52C266.375 108.04 265.431 108.3 264.385 108.3ZM260.395 103.1V101.67H268.375V103.1H260.395ZM52.4 128V117.2H59.9V118.89H54.18V128H52.4ZM66.1992 128.3C65.1259 128.3 64.1992 128.057 63.4192 127.57C62.6459 127.083 62.0492 126.41 61.6292 125.55C61.2092 124.69 60.9992 123.703 60.9992 122.59C60.9992 121.457 61.2126 120.463 61.6392 119.61C62.0659 118.757 62.6692 118.093 63.4492 117.62C64.2292 117.14 65.1459 116.9 66.1992 116.9C67.2792 116.9 68.2092 117.143 68.9892 117.63C69.7692 118.11 70.3659 118.78 70.7792 119.64C71.1992 120.493 71.4092 121.477 71.4092 122.59C71.4092 123.717 71.1992 124.71 70.7792 125.57C70.3592 126.423 69.7592 127.093 68.9792 127.58C68.1992 128.06 67.2726 128.3 66.1992 128.3ZM66.1992 126.61C67.3192 126.61 68.1526 126.237 68.6992 125.49C69.2459 124.743 69.5192 123.777 69.5192 122.59C69.5192 121.37 69.2426 120.4 68.6892 119.68C68.1359 118.953 67.3059 118.59 66.1992 118.59C65.4459 118.59 64.8259 118.76 64.3392 119.1C63.8526 119.44 63.4892 119.91 63.2492 120.51C63.0092 121.11 62.8892 121.803 62.8892 122.59C62.8892 123.803 63.1692 124.777 63.7292 125.51C64.2892 126.243 65.1126 126.61 66.1992 126.61ZM76.2366 128V118.82H72.4766V117.2H81.7766V118.82H78.0166V128H76.2366ZM88.0742 128.3C87.0009 128.3 86.0742 128.057 85.2942 127.57C84.5209 127.083 83.9242 126.41 83.5042 125.55C83.0842 124.69 82.8742 123.703 82.8742 122.59C82.8742 121.457 83.0876 120.463 83.5142 119.61C83.9409 118.757 84.5442 118.093 85.3242 117.62C86.1042 117.14 87.0209 116.9 88.0742 116.9C89.1542 116.9 90.0842 117.143 90.8642 117.63C91.6442 118.11 92.2409 118.78 92.6542 119.64C93.0742 120.493 93.2842 121.477 93.2842 122.59C93.2842 123.717 93.0742 124.71 92.6542 125.57C92.2342 126.423 91.6342 127.093 90.8542 127.58C90.0742 128.06 89.1476 128.3 88.0742 128.3ZM88.0742 126.61C89.1942 126.61 90.0276 126.237 90.5742 125.49C91.1209 124.743 91.3942 123.777 91.3942 122.59C91.3942 121.37 91.1176 120.4 90.5642 119.68C90.0109 118.953 89.1809 118.59 88.0742 118.59C87.3209 118.59 86.7009 118.76 86.2142 119.1C85.7276 119.44 85.3642 119.91 85.1242 120.51C84.8842 121.11 84.7642 121.803 84.7642 122.59C84.7642 123.803 85.0442 124.777 85.6042 125.51C86.1642 126.243 86.9876 126.61 88.0742 126.61ZM95.4759 128V117.2H100.076C100.349 117.2 100.643 117.217 100.956 117.25C101.276 117.277 101.566 117.327 101.826 117.4C102.406 117.553 102.883 117.87 103.256 118.35C103.636 118.823 103.826 119.423 103.826 120.15C103.826 120.557 103.763 120.91 103.636 121.21C103.516 121.51 103.343 121.77 103.116 121.99C103.016 122.09 102.906 122.18 102.786 122.26C102.666 122.34 102.546 122.403 102.426 122.45C102.659 122.49 102.896 122.58 103.136 122.72C103.516 122.927 103.813 123.217 104.026 123.59C104.246 123.963 104.356 124.44 104.356 125.02C104.356 125.753 104.179 126.36 103.826 126.84C103.473 127.313 102.986 127.64 102.366 127.82C102.106 127.893 101.819 127.943 101.506 127.97C101.193 127.99 100.889 128 100.596 128H95.4759ZM97.2759 126.55H100.496C100.636 126.55 100.803 126.537 100.996 126.51C101.196 126.483 101.373 126.45 101.526 126.41C101.873 126.31 102.123 126.123 102.276 125.85C102.436 125.577 102.516 125.28 102.516 124.96C102.516 124.533 102.396 124.187 102.156 123.92C101.923 123.653 101.613 123.487 101.226 123.42C101.086 123.38 100.933 123.357 100.766 123.35C100.606 123.343 100.463 123.34 100.336 123.34H97.2759V126.55ZM97.2759 121.87H99.9559C100.143 121.87 100.339 121.86 100.546 121.84C100.753 121.813 100.933 121.77 101.086 121.71C101.393 121.597 101.616 121.41 101.756 121.15C101.903 120.883 101.976 120.593 101.976 120.28C101.976 119.933 101.896 119.63 101.736 119.37C101.583 119.103 101.346 118.92 101.026 118.82C100.813 118.74 100.573 118.697 100.306 118.69C100.046 118.677 99.8793 118.67 99.8059 118.67H97.2759V121.87ZM110.965 128.3C109.892 128.3 108.965 128.057 108.185 127.57C107.412 127.083 106.815 126.41 106.395 125.55C105.975 124.69 105.765 123.703 105.765 122.59C105.765 121.457 105.978 120.463 106.405 119.61C106.832 118.757 107.435 118.093 108.215 117.62C108.995 117.14 109.912 116.9 110.965 116.9C112.045 116.9 112.975 117.143 113.755 117.63C114.535 118.11 115.132 118.78 115.545 119.64C115.965 120.493 116.175 121.477 116.175 122.59C116.175 123.717 115.965 124.71 115.545 125.57C115.125 126.423 114.525 127.093 113.745 127.58C112.965 128.06 112.038 128.3 110.965 128.3ZM110.965 126.61C112.085 126.61 112.918 126.237 113.465 125.49C114.012 124.743 114.285 123.777 114.285 122.59C114.285 121.37 114.008 120.4 113.455 119.68C112.902 118.953 112.072 118.59 110.965 118.59C110.212 118.59 109.592 118.76 109.105 119.1C108.618 119.44 108.255 119.91 108.015 120.51C107.775 121.11 107.655 121.803 107.655 122.59C107.655 123.803 107.935 124.777 108.495 125.51C109.055 126.243 109.878 126.61 110.965 126.61ZM118.377 128V117.2H125.877V118.89H120.157V128H118.377ZM132.176 128.3C131.102 128.3 130.176 128.057 129.396 127.57C128.622 127.083 128.026 126.41 127.606 125.55C127.186 124.69 126.976 123.703 126.976 122.59C126.976 121.457 127.189 120.463 127.616 119.61C128.042 118.757 128.646 118.093 129.426 117.62C130.206 117.14 131.122 116.9 132.176 116.9C133.256 116.9 134.186 117.143 134.966 117.63C135.746 118.11 136.342 118.78 136.756 119.64C137.176 120.493 137.386 121.477 137.386 122.59C137.386 123.717 137.176 124.71 136.756 125.57C136.336 126.423 135.736 127.093 134.956 127.58C134.176 128.06 133.249 128.3 132.176 128.3ZM132.176 126.61C133.296 126.61 134.129 126.237 134.676 125.49C135.222 124.743 135.496 123.777 135.496 122.59C135.496 121.37 135.219 120.4 134.666 119.68C134.112 118.953 133.282 118.59 132.176 118.59C131.422 118.59 130.802 118.76 130.316 119.1C129.829 119.44 129.466 119.91 129.226 120.51C128.986 121.11 128.866 121.803 128.866 122.59C128.866 123.803 129.146 124.777 129.706 125.51C130.266 126.243 131.089 126.61 132.176 126.61ZM148.551 128.3C147.538 128.3 146.685 128.05 145.991 127.55C145.298 127.043 144.771 126.36 144.411 125.5C144.058 124.633 143.881 123.663 143.881 122.59C143.881 121.503 144.058 120.53 144.411 119.67C144.771 118.81 145.298 118.133 145.991 117.64C146.691 117.147 147.548 116.9 148.561 116.9C149.561 116.9 150.421 117.15 151.141 117.65C151.868 118.143 152.425 118.82 152.811 119.68C153.198 120.54 153.391 121.51 153.391 122.59C153.391 123.67 153.198 124.64 152.811 125.5C152.425 126.36 151.868 127.043 151.141 127.55C150.421 128.05 149.558 128.3 148.551 128.3ZM143.581 132.8V117.2H145.171V125.15H145.371V132.8H143.581ZM148.331 126.67C149.045 126.67 149.635 126.49 150.101 126.13C150.568 125.77 150.918 125.283 151.151 124.67C151.385 124.05 151.501 123.357 151.501 122.59C151.501 121.83 151.385 121.143 151.151 120.53C150.925 119.917 150.571 119.43 150.091 119.07C149.618 118.71 149.015 118.53 148.281 118.53C147.581 118.53 147.001 118.703 146.541 119.05C146.081 119.39 145.738 119.867 145.511 120.48C145.285 121.087 145.171 121.79 145.171 122.59C145.171 123.377 145.281 124.08 145.501 124.7C145.728 125.313 146.075 125.797 146.541 126.15C147.008 126.497 147.605 126.67 148.331 126.67ZM160.264 128.3C159.204 128.3 158.277 128.067 157.484 127.6C156.697 127.127 156.084 126.47 155.644 125.63C155.204 124.783 154.984 123.797 154.984 122.67C154.984 121.49 155.2 120.47 155.634 119.61C156.067 118.743 156.67 118.077 157.444 117.61C158.224 117.137 159.137 116.9 160.184 116.9C161.27 116.9 162.194 117.15 162.954 117.65C163.72 118.15 164.294 118.863 164.674 119.79C165.06 120.717 165.227 121.82 165.174 123.1H163.374V122.46C163.354 121.133 163.084 120.143 162.564 119.49C162.044 118.83 161.27 118.5 160.244 118.5C159.144 118.5 158.307 118.853 157.734 119.56C157.16 120.267 156.874 121.28 156.874 122.6C156.874 123.873 157.16 124.86 157.734 125.56C158.307 126.26 159.124 126.61 160.184 126.61C160.897 126.61 161.517 126.447 162.044 126.12C162.57 125.793 162.984 125.323 163.284 124.71L164.994 125.3C164.574 126.253 163.94 126.993 163.094 127.52C162.254 128.04 161.31 128.3 160.264 128.3ZM156.274 123.1V121.67H164.254V123.1H156.274ZM167.39 128V117.2H169.11V126.38H172.83V117.2H174.55V126.38H178.26V117.2H179.98V128H167.39ZM187.451 128.3C186.391 128.3 185.464 128.067 184.671 127.6C183.884 127.127 183.271 126.47 182.831 125.63C182.391 124.783 182.171 123.797 182.171 122.67C182.171 121.49 182.388 120.47 182.821 119.61C183.254 118.743 183.858 118.077 184.631 117.61C185.411 117.137 186.324 116.9 187.371 116.9C188.458 116.9 189.381 117.15 190.141 117.65C190.908 118.15 191.481 118.863 191.861 119.79C192.248 120.717 192.414 121.82 192.361 123.1H190.561V122.46C190.541 121.133 190.271 120.143 189.751 119.49C189.231 118.83 188.458 118.5 187.431 118.5C186.331 118.5 185.494 118.853 184.921 119.56C184.348 120.267 184.061 121.28 184.061 122.6C184.061 123.873 184.348 124.86 184.921 125.56C185.494 126.26 186.311 126.61 187.371 126.61C188.084 126.61 188.704 126.447 189.231 126.12C189.758 125.793 190.171 125.323 190.471 124.71L192.181 125.3C191.761 126.253 191.128 126.993 190.281 127.52C189.441 128.04 188.498 128.3 187.451 128.3ZM183.461 123.1V121.67H191.441V123.1H183.461ZM194.578 128V117.2H196.358V121.75H202.038V117.2H203.818V128H202.038V123.44H196.358V128H194.578ZM215.459 117.2V128H213.739V120.04L208.079 128H206.609V117.2H208.329V125.05L213.999 117.2H215.459ZM224.929 128V124.09H222.599C222.326 124.09 222.023 124.08 221.689 124.06C221.363 124.033 221.056 123.997 220.769 123.95C219.989 123.803 219.329 123.46 218.789 122.92C218.256 122.38 217.989 121.633 217.989 120.68C217.989 119.753 218.239 119.01 218.739 118.45C219.246 117.883 219.869 117.517 220.609 117.35C220.943 117.27 221.279 117.227 221.619 117.22C221.966 117.207 222.259 117.2 222.499 117.2H226.709L226.719 128H224.929ZM217.659 128L220.529 123.6H222.449L219.579 128H217.659ZM222.469 122.62H224.929V118.67H222.469C222.316 118.67 222.113 118.677 221.859 118.69C221.613 118.703 221.376 118.743 221.149 118.81C220.936 118.87 220.726 118.98 220.519 119.14C220.319 119.3 220.153 119.507 220.019 119.76C219.886 120.013 219.819 120.313 219.819 120.66C219.819 121.16 219.959 121.567 220.239 121.88C220.519 122.187 220.859 122.393 221.259 122.5C221.479 122.553 221.696 122.587 221.909 122.6C222.129 122.613 222.316 122.62 222.469 122.62Z" fill="#000206"/>
              </svg>