<svg width="91" height="20" viewBox="0 0 91 20" fill="none" xmlns="http://www.w3.org/2000/svg">
<g opacity="0.5" clip-path="url(#clip0_3609_1060)">
<path d="M38.6542 12.7773V1.63753H34.5538V2.9541C34.5538 5.26423 34.4463 6.92834 34.3367 7.84013C34.2003 9.53082 33.9563 11.5711 32.4075 12.5115C31.7024 12.9122 30.9953 12.994 30.2344 13.0492L29.856 11.4382C30.1289 11.3851 30.8071 11.2767 31.2124 11.062C31.7831 10.7677 32.2173 9.96218 32.4365 8.56384C32.544 7.86671 32.7074 6.57876 32.7074 2.8478V0H40.5813V12.7773H38.6542Z" fill="#000206"/>
<path d="M63.9674 12.7773V6.7648H58.3721V12.7773H56.5298V0H58.3721V5.20699H63.9674V0H65.8139V12.7773H63.9674Z" fill="#000206"/>
<path d="M77.7903 12.7773V2.68425H77.7613L72.5486 12.7773H70.3506V0H72.195V10.1216H72.2508L77.4636 0H79.6636V12.7773H77.7903Z" fill="#000206"/>
<path d="M87.2395 1.55576V12.7773H85.3909V1.55576H81.8613V0H90.7691V1.55576H87.2395Z" fill="#000206"/>
<path d="M46.7886 0.0234375L42.6924 12.7782H44.4872L45.5272 9.49906H50.9095L51.9124 12.7782H53.9015L49.702 0.0234375H46.7886ZM45.9739 7.97192L48.1533 0.628569H48.1925L50.4298 7.97192H45.9739Z" fill="#000206"/>
<path d="M23.1192 11.4392C21.2003 11.4392 19.5007 12.3673 18.4523 13.7943C18.3365 13.2198 18.1938 12.6535 18.0202 12.1015C19.3249 10.8115 21.128 10.0142 23.1192 10.0122L24.5707 10.002V8.58727H23.1192C20.9687 8.58727 19.0044 9.36618 17.4908 10.648C17.3006 10.1921 17.0917 9.74643 16.8643 9.31098C18.5846 7.96579 20.7558 7.16031 23.1192 7.16031H24.5604L24.5749 5.73539H23.1192C20.4973 5.73539 18.0801 6.60015 16.1427 8.05778C15.8863 7.653 15.6154 7.25844 15.3259 6.87819C17.497 5.26518 20.1954 4.30842 23.1192 4.30638H24.5749V2.88146H23.1192C19.846 2.87941 16.8312 3.95884 14.4099 5.77423C14.0873 5.41647 13.7503 5.07301 13.4008 4.74387C16.0868 2.68315 19.4572 1.45245 23.1192 1.45245H24.5749V0.0275262H23.1192C19.023 0.0275262 15.2597 1.43609 12.2967 3.78711C9.33155 1.43609 5.57035 0.0254819 1.47211 0.0234375H0.018495V1.45245H1.47418C5.13613 1.45245 8.50653 2.68111 11.1925 4.74183C10.841 5.07097 10.504 5.41442 10.1835 5.77219C7.76215 3.95679 4.74739 2.87737 1.47418 2.87737H0.018495V4.30638H1.47418C4.39795 4.30638 7.09634 5.26109 9.26745 6.8741C8.97797 7.25435 8.7071 7.64891 8.4507 8.05369C6.51324 6.59606 4.09606 5.72925 1.47418 5.72925H0.018495L0.0329691 7.15622H1.47418C3.83759 7.15622 6.00871 7.9617 7.72906 9.30689C7.50161 9.74234 7.29277 10.188 7.10254 10.6439C5.58896 9.36004 3.62462 8.58318 1.47418 8.58318H0.018495L0.0205627 9.99993L1.47211 10.0101C3.46333 10.0101 5.26433 10.8095 6.57113 12.0995C6.39951 12.6515 6.25477 13.2178 6.14105 13.7922C5.09271 12.3673 3.39303 11.4392 1.47418 11.4371L0.00195312 11.4432V12.8661H1.47418C3.86447 12.8661 5.79987 14.7817 5.79987 17.145L5.804 19.9907L7.24935 20.0009V19.2364V17.145C7.24935 15.8938 7.40236 14.6795 7.6815 13.5142C8.31837 14.5773 8.68642 15.8182 8.68642 17.145L8.67195 19.9907H10.138L10.1318 18.1467L10.1359 17.145C10.1359 15.7732 10.3551 14.4525 10.7583 13.2137C11.2814 14.4198 11.573 15.7487 11.573 17.145V19.9907H11.5895H13.0225V17.145C13.0225 15.7487 13.3119 14.4198 13.8351 13.2137C14.2383 14.4525 14.4575 15.7732 14.4575 17.145L14.4616 18.1365L14.4554 19.9907H15.9214L15.9069 17.145C15.9069 15.8182 16.275 14.5773 16.9119 13.5142C17.191 14.6795 17.344 15.8938 17.344 17.145V19.2466V20.0009L18.7873 19.9907L18.7914 17.145C18.7914 14.7817 20.7289 12.8661 23.1171 12.8641H24.5893V11.4432L23.1171 11.4371L23.1192 11.4392ZM15.0385 9.00023C14.6766 9.35186 14.3396 9.72598 14.0274 10.1205C13.7772 9.68305 13.5042 9.26191 13.2085 8.85508C13.5249 8.48505 13.864 8.13342 14.2217 7.80019C14.5112 8.18658 14.7862 8.58727 15.0406 9.00023H15.0385ZM12.2946 5.67406C12.6461 5.99911 12.9832 6.33847 13.3037 6.69215C12.9501 7.0172 12.613 7.36066 12.2946 7.71842C11.9762 7.36066 11.6391 7.0172 11.2856 6.69215C11.6061 6.33643 11.9431 5.99707 12.2946 5.67406ZM10.3696 7.80019C10.7273 8.13342 11.0643 8.48505 11.3827 8.85508C11.0891 9.26191 10.8141 9.6851 10.5639 10.1205C10.2517 9.72598 9.91465 9.34982 9.5528 9.00023C9.80713 8.58727 10.0801 8.18658 10.3716 7.80019H10.3696ZM9.21783 13.3282C8.93662 12.7721 8.59751 12.2487 8.20464 11.7703C8.38867 11.2715 8.59751 10.785 8.82909 10.3107C9.19715 10.6991 9.53833 11.1141 9.84021 11.5577C9.59416 12.1302 9.38738 12.721 9.21576 13.3282H9.21783ZM12.2946 13.1789C12.0692 12.5799 11.7942 12.0075 11.4758 11.4616C11.7198 10.9751 11.9927 10.5049 12.2946 10.0572C12.5965 10.5069 12.8694 10.9751 13.1134 11.4616C12.795 12.0075 12.52 12.582 12.2946 13.181V13.1789ZM15.3714 13.3282C15.2018 12.721 14.9951 12.1281 14.7469 11.5577C15.0509 11.1141 15.39 10.6991 15.7581 10.3107C15.9896 10.785 16.1985 11.2715 16.3825 11.7703C15.9896 12.2508 15.6505 12.7721 15.3693 13.3282H15.3714Z" fill="#000206"/>
</g>
<defs>
<clipPath id="clip0_3609_1060">
<rect width="90.7692" height="20" fill="white"/>
</clipPath>
</defs>
</svg>
