<svg width="93" height="15" viewBox="0 0 93 15" fill="none" xmlns="http://www.w3.org/2000/svg">
<path opacity="0.5" fill-rule="evenodd" clip-rule="evenodd" d="M0 9.08325C0 12.0293 1.67187 15 5.41687 15C9.16186 15 10.8337 12.0293 10.8337 9.08325C10.8337 7.071 10.1467 4.75425 9 2.88225C7.8844 1.07475 6.54386 0 5.41687 0C4.28987 0 2.94554 1.07475 1.83982 2.88225C0.687748 4.75425 0 7.071 0 9.08325ZM38.4584 4.41975H34.667V0.80325H46.3124V4.419H42.5211V14.196H38.4584V4.41975ZM54.9773 4.41975H60.936V0.804H54.978C49.5034 0.804 46.5807 3.49575 46.5807 7.50075C46.5807 11.5058 49.5034 14.1975 54.978 14.1975H60.936V10.5817H54.9773C52.4444 10.5817 50.7778 9.68625 50.7778 7.5015C50.7778 5.31675 52.4436 4.42125 54.9773 4.42125V4.41975ZM24.2376 8.7975L26.4034 0.80325H33.5819V14.196H29.5192V3.29625L26.5661 14.1967H21.9084L18.9568 3.303V14.1967H14.8941V0.804H22.071L24.2368 8.79825L24.2376 8.7975ZM68.3454 4.68525H66.9129V5.9955H68.3454C68.7079 5.9955 68.9245 5.811 68.9245 5.47125V5.22825C68.9245 4.87875 68.7383 4.68525 68.3454 4.68525ZM68.7079 7.5H64.9986V0.80325H70.4543V2.4045H66.9122V3.2775H68.7079C70.2095 3.2775 70.9353 4.01475 70.9353 5.31525C70.9353 6.684 70.2095 7.49925 68.7079 7.49925V7.5ZM75.3498 4.76325H73.8383L74.5937 2.289L75.349 4.76325H75.3498ZM78.2543 7.5L76.1645 0.80325H73.3185L71.2286 7.5H73.0145L73.3968 6.219H75.7913L76.1842 7.5H78.2543ZM83.0913 7.5V4.90875H80.9035V7.5H78.9405V0.804H80.9035V3.2595H83.0913V0.804H85.0543V7.50075H83.0913V7.5ZM88.5378 3.25875H88.1944V0.80325H86.2314V7.5H88.1944V4.90875H88.4786L90.2941 7.5H92.561L90.1079 3.99675L92.3649 0.804H90.2941L88.5378 3.2595V3.25875Z" fill="#000206"/>
</svg>
