<svg width="104" height="25" viewBox="0 0 104 25" fill="none" xmlns="http://www.w3.org/2000/svg">
<g opacity="0.5" clip-path="url(#clip0_3609_1032)">
<path fill-rule="evenodd" clip-rule="evenodd" d="M61.8404 23.4389C62.1868 23.4389 62.4683 23.4353 62.6162 23.4353C62.6505 23.2922 62.7624 22.8702 62.9175 22.2086C63.0186 21.7741 63.1683 21.1178 63.2116 20.889C63.0673 20.8836 62.8742 20.8836 62.6884 20.8836C62.4953 20.8836 62.3131 20.889 62.2139 20.889C62.1183 21.2716 61.9974 21.7222 61.8819 22.0656C61.7809 22.3624 61.6943 22.5788 61.5806 22.788C61.4309 23.0812 61.3118 23.2529 61.0935 23.4353C61.301 23.4389 61.5572 23.4389 61.8386 23.4389H61.8404ZM60.4241 24.569C60.2942 24.569 60.1337 24.569 59.9803 24.5743L59.9604 24.5475C59.9911 24.442 60.0543 24.1827 60.0922 24.0254C60.1337 23.8519 60.1788 23.6177 60.2076 23.4746L60.2455 23.446C60.7092 23.3548 60.9636 22.9865 61.1729 22.5412C61.4273 21.9922 61.7033 20.9909 61.8043 20.5027L61.8422 20.4741C62.0551 20.4741 62.4268 20.4795 62.8129 20.4795C63.1936 20.4795 63.6338 20.4741 63.8359 20.4688L63.8539 20.5027C63.7781 20.8282 63.5761 21.6453 63.4606 22.1621C63.3199 22.7701 63.2044 23.3101 63.1755 23.4299C63.2639 23.4299 63.4407 23.4299 63.5815 23.4263L63.6013 23.4585C63.5634 23.5926 63.5147 23.784 63.4606 24.02C63.4029 24.2739 63.3541 24.5117 63.3487 24.5368L63.3108 24.5707C63.1557 24.5707 63.0222 24.5707 62.8562 24.5761L62.8363 24.5421C62.8526 24.4956 62.8941 24.3115 62.9338 24.1559C62.9626 24.0415 62.9951 23.9216 63.0059 23.8537C62.7876 23.8537 62.2103 23.8501 61.7989 23.8501C61.3876 23.8501 60.8607 23.8537 60.6244 23.8537C60.6063 23.9109 60.5721 24.0468 60.5432 24.1756C60.5179 24.2721 60.4764 24.467 60.462 24.5386L60.4223 24.5725L60.4241 24.569Z" fill="#000206"/>
<path fill-rule="evenodd" clip-rule="evenodd" d="M65.0358 23.5584C65.7629 23.5584 65.8838 22.3907 65.8838 22.2262C65.8838 21.7631 65.6005 21.6612 65.384 21.6612C64.7164 21.6612 64.5342 22.6429 64.5342 22.988C64.5342 23.2938 64.6786 23.5566 65.0376 23.5566L65.0358 23.5584ZM65.3605 21.3125C65.9613 21.3125 66.3961 21.6129 66.3961 22.2513C66.3961 22.7537 66.1616 23.9125 65.0232 23.9125C64.72 23.9125 64.02 23.8409 64.02 22.9558C64.02 22.178 64.444 21.3125 65.3605 21.3125Z" fill="#000206"/>
<path fill-rule="evenodd" clip-rule="evenodd" d="M67.6752 22.4311C68.009 22.4311 68.3716 22.3453 68.3716 21.9519C68.3716 21.6891 68.1245 21.6783 67.908 21.6783H67.6283C67.6049 21.7659 67.576 21.909 67.5453 22.0288C67.5147 22.1629 67.4786 22.297 67.4533 22.4258C67.5147 22.4311 67.6139 22.4311 67.6752 22.4311ZM67.502 23.5308C67.8593 23.5308 68.2201 23.4736 68.2201 23.0713C68.2201 22.7691 67.9747 22.7351 67.6428 22.7351C67.6049 22.7351 67.4533 22.7405 67.3775 22.7405C67.3577 22.8513 67.3198 22.9855 67.2945 23.0945C67.2603 23.2465 67.217 23.3967 67.1899 23.5237C67.2332 23.529 67.4353 23.5291 67.502 23.5291V23.5308ZM66.6234 23.833C66.7118 23.4897 66.8417 22.9318 66.9536 22.4597C67.0546 22.0288 67.1231 21.6712 67.1809 21.3922L67.2097 21.3672C67.2801 21.3726 67.4172 21.3726 67.5435 21.3726C67.6518 21.3726 67.926 21.3672 68.0198 21.3672C68.2183 21.3672 68.451 21.3779 68.5755 21.4333C68.7253 21.4995 68.8714 21.639 68.8714 21.8893C68.8714 22.1665 68.691 22.4723 68.3013 22.5438C68.6206 22.5974 68.7397 22.7995 68.7397 23.0534C68.7397 23.3395 68.6098 23.5648 68.3807 23.6953C68.1732 23.833 67.8358 23.8473 67.4533 23.8473C67.2567 23.8473 66.8074 23.8509 66.6414 23.8545L66.6216 23.8312L66.6234 23.833Z" fill="#000206"/>
<path fill-rule="evenodd" clip-rule="evenodd" d="M71.0167 22.3264C71.0366 22.2155 71.0402 22.1672 71.0402 22.1154C71.0312 21.6791 70.6685 21.6451 70.5422 21.6451C69.9883 21.6451 69.8007 22.1529 69.7466 22.33C69.7466 22.33 70.7064 22.3246 71.0167 22.3246V22.3264ZM71.0799 23.7193C70.9139 23.8141 70.6649 23.9107 70.2915 23.9107C69.4651 23.9107 69.1729 23.4225 69.1729 22.8718C69.1729 22.0349 69.6889 21.3125 70.5242 21.3125C71.0943 21.3125 71.5003 21.57 71.5003 22.2084C71.5003 22.4051 71.457 22.5714 71.4425 22.6429L71.4083 22.6679C71.1557 22.6679 70.6974 22.6625 70.2788 22.6625C70.0587 22.6625 69.8999 22.6625 69.6834 22.6715C69.678 22.7001 69.669 22.7877 69.669 22.8789C69.669 23.5048 70.2193 23.5191 70.3943 23.5191C70.7948 23.5191 71.0023 23.3653 71.1917 23.233L71.2296 23.2562C71.1773 23.4154 71.1412 23.5244 71.1033 23.6889L71.0799 23.7211V23.7193Z" fill="#000206"/>
<path fill-rule="evenodd" clip-rule="evenodd" d="M72.4781 23.5036C72.7199 23.5036 72.949 23.4446 73.1348 23.3445C73.5408 23.1192 73.7194 22.6757 73.7194 22.2484C73.7194 21.9032 73.5318 21.703 73.2124 21.703C72.9941 21.703 72.7776 21.8085 72.6134 21.9569C72.5701 22.1196 72.516 22.3789 72.4438 22.6936C72.3608 23.0494 72.2959 23.3892 72.2706 23.4893C72.359 23.5054 72.4005 23.5054 72.4781 23.5054V23.5036ZM72.0631 24.3995C72.0126 24.6337 71.9693 24.8304 71.9459 24.9628L71.9116 24.986C71.7654 24.986 71.5778 24.986 71.4082 24.9967L71.3848 24.9628C71.4714 24.657 71.7167 23.6056 71.8863 22.8563C72.0451 22.1572 72.1317 21.6851 72.1696 21.4365L72.2039 21.4026C72.3681 21.3829 72.5322 21.3489 72.7163 21.3203L72.7451 21.3543C72.7307 21.4169 72.7108 21.4973 72.691 21.5599C72.8804 21.4133 73.133 21.3203 73.4271 21.3203C74.046 21.3203 74.248 21.8103 74.248 22.2412C74.248 22.7472 74.0297 23.2408 73.6617 23.509C73.2918 23.7826 72.9201 23.863 72.3861 23.863C72.3247 23.863 72.267 23.8577 72.1804 23.8487C72.1515 23.9972 72.0992 24.2278 72.0613 24.3995H72.0631Z" fill="#000206"/>
<path fill-rule="evenodd" clip-rule="evenodd" d="M75.9709 22.5867C76.0106 22.424 76.146 21.8929 76.1748 21.7105C76.1207 21.7105 75.9782 21.7051 75.8699 21.7051C75.6101 21.7051 75.4748 21.7248 75.3485 21.8142C75.2421 21.8911 75.1699 22.0413 75.1699 22.1933C75.1699 22.4866 75.3846 22.5903 75.7021 22.5903C75.8176 22.5903 75.9132 22.5903 75.9709 22.5849V22.5867ZM74.2822 23.8223C74.4211 23.6489 74.8271 23.1285 75.058 22.8174C74.8072 22.7119 74.6665 22.5009 74.6665 22.1808C74.6665 21.816 74.9083 21.5299 75.2276 21.4333C75.4153 21.3779 75.6101 21.3672 75.8591 21.3672C76.3552 21.3672 76.6475 21.3726 76.7233 21.3726L76.7468 21.4012C76.6764 21.6443 76.5645 22.1254 76.4473 22.6135C76.3498 23.0248 76.2398 23.5362 76.182 23.8205L76.1424 23.8527C76.0215 23.8527 75.7761 23.8527 75.6841 23.8581L75.666 23.8295C75.713 23.6471 75.8681 23.0552 75.897 22.9193C75.8573 22.9193 75.7671 22.9247 75.6751 22.9247C75.6083 22.9247 75.5632 22.9247 75.5001 22.9193C75.3124 23.1875 74.975 23.6524 74.8542 23.833L74.8054 23.8527H74.6413C74.4879 23.8527 74.3526 23.8527 74.2894 23.8581L74.2822 23.8259V23.8223Z" fill="#000206"/>
<path fill-rule="evenodd" clip-rule="evenodd" d="M78.374 22.5867C78.4119 22.424 78.5472 21.8929 78.5742 21.7105C78.5219 21.7105 78.3758 21.7051 78.2711 21.7051C78.0095 21.7051 77.8742 21.7248 77.7497 21.8142C77.6433 21.8911 77.5711 22.0413 77.5711 22.1933C77.5711 22.4866 77.7822 22.5903 78.1033 22.5903C78.2188 22.5903 78.3144 22.5903 78.374 22.5849V22.5867ZM76.6816 23.8223C76.8206 23.6489 77.2265 23.1285 77.4592 22.8174C77.2085 22.7119 77.0677 22.5009 77.0677 22.1808C77.0677 21.816 77.3095 21.5299 77.627 21.4333C77.8165 21.3779 78.0077 21.3672 78.2603 21.3672C78.7583 21.3672 79.0469 21.3726 79.1227 21.3726L79.1498 21.4012C79.0758 21.6443 78.9658 22.1254 78.8503 22.6135C78.7529 23.0248 78.6428 23.5362 78.5851 23.8205L78.5454 23.8527C78.4245 23.8527 78.1773 23.8527 78.0853 23.8581L78.0655 23.8295C78.1142 23.6471 78.2693 23.0552 78.2982 22.9193C78.2585 22.9193 78.1665 22.9247 78.0763 22.9247C78.0077 22.9247 77.9644 22.9247 77.9013 22.9193C77.7136 23.1875 77.3745 23.6524 77.2536 23.833L77.2067 23.8527H77.0425C76.8873 23.8527 76.7538 23.8527 76.6907 23.8581L76.6816 23.8259V23.8223Z" fill="#000206"/>
<path fill-rule="evenodd" clip-rule="evenodd" d="M82.2963 23.2263C82.4894 22.9438 82.5904 22.5504 82.5904 22.2679C82.5904 21.9084 82.4172 21.7189 82.0834 21.7189C81.8723 21.7189 81.7027 21.828 81.5674 21.9907C81.3708 22.2357 81.2553 22.6183 81.2553 22.9688C81.2553 23.3193 81.4087 23.5571 81.7514 23.5571C81.9842 23.5571 82.161 23.423 82.2981 23.2263H82.2963ZM80.7357 22.9348C80.7357 22.1838 81.1777 21.3881 82.0365 21.3881C82.4046 21.3881 82.6499 21.5419 82.751 21.7511C82.769 21.6545 82.7834 21.5133 82.7834 21.3631C82.7834 20.9607 82.6102 20.4922 82.0888 20.4922C81.8868 20.4922 81.6883 20.5584 81.5801 20.6406L81.5476 20.6102C81.5764 20.5441 81.6197 20.3563 81.6378 20.2705L81.6775 20.2329C81.7929 20.1847 82.0113 20.1328 82.2332 20.1328C83.0252 20.1328 83.285 20.6961 83.285 21.3827C83.285 22.427 82.8881 23.904 81.7641 23.904C81.1452 23.904 80.7339 23.6411 80.7339 22.933L80.7357 22.9348Z" fill="#000206"/>
<path fill-rule="evenodd" clip-rule="evenodd" d="M84.1674 23.5036C84.4091 23.5036 84.6419 23.4446 84.8259 23.3445C85.2318 23.1192 85.4105 22.6757 85.4105 22.2484C85.4105 21.9032 85.2228 21.703 84.9035 21.703C84.687 21.703 84.4705 21.8085 84.3063 21.9569C84.263 22.1196 84.2089 22.3789 84.1385 22.6936C84.0555 23.0494 83.9888 23.3892 83.9653 23.4893C84.0519 23.5054 84.097 23.5054 84.171 23.5054L84.1674 23.5036ZM83.7542 24.3995C83.7055 24.6337 83.6622 24.8304 83.6387 24.9628L83.6045 24.986C83.4601 24.986 83.2725 24.986 83.1029 24.9967L83.0776 24.9628C83.166 24.657 83.4096 23.6056 83.5792 22.8563C83.738 22.1572 83.8264 21.6851 83.8643 21.4365L83.8967 21.4026C84.0609 21.3829 84.2251 21.3489 84.4091 21.3203L84.438 21.3543C84.4236 21.4169 84.4055 21.4973 84.3857 21.5599C84.5733 21.4133 84.8259 21.3203 85.12 21.3203C85.7352 21.3203 85.9409 21.8103 85.9409 22.2412C85.9409 22.7472 85.7226 23.2408 85.3563 23.509C84.9829 23.7826 84.6112 23.863 84.0808 23.863C84.0176 23.863 83.9599 23.8577 83.8733 23.8487C83.8444 23.9972 83.7903 24.2278 83.7524 24.3995H83.7542Z" fill="#000206"/>
<path fill-rule="evenodd" clip-rule="evenodd" d="M86.2677 21.3683C86.4265 21.3683 86.6286 21.363 86.7693 21.3594L86.8072 21.388C86.8234 21.5453 86.8613 21.9316 86.91 22.3411C86.9479 22.6719 86.9822 22.9919 87.0147 23.2566C87.1608 22.9919 87.3196 22.6754 87.4874 22.3697C87.6515 22.0728 87.8698 21.6222 87.9907 21.3934L88.0376 21.3683C88.1441 21.3683 88.3768 21.3683 88.5013 21.363L88.5212 21.4023C88.4057 21.5847 88.0196 22.2731 87.5902 23.0098C87.3827 23.3675 87.1752 23.7465 86.9822 24.0684C86.8703 24.2544 86.7801 24.4082 86.6683 24.553C86.5582 24.696 86.4662 24.8051 86.2912 24.8892C86.1775 24.95 86.0314 24.9643 85.9015 24.9643C85.8095 24.9643 85.7174 24.95 85.6687 24.9178L85.6543 24.8874C85.6741 24.8087 85.712 24.671 85.7319 24.5709L85.7716 24.5476C85.795 24.5709 85.8437 24.5941 85.9159 24.5941C86.0657 24.5941 86.1378 24.5351 86.2497 24.4171C86.3507 24.308 86.4734 24.1256 86.6268 23.8449C86.5979 23.6142 86.5113 23.0885 86.4193 22.536C86.3363 22.0478 86.2731 21.6365 86.2316 21.4166L86.2695 21.3683H86.2677Z" fill="#000206"/>
<path fill-rule="evenodd" clip-rule="evenodd" d="M89.9751 23.3456C89.9426 23.4314 89.9029 23.6192 89.8741 23.7319L89.8398 23.7694C89.672 23.866 89.423 23.9089 89.1722 23.9089C88.6707 23.9089 88.3604 23.6746 88.3604 23.2437C88.3604 22.9129 88.5642 22.659 88.9611 22.4962C89.0622 22.4533 89.1921 22.4068 89.2895 22.3639C89.6251 22.2388 89.7243 22.0957 89.7243 21.9312C89.7243 21.7452 89.5746 21.6451 89.3039 21.6451C89.0712 21.6451 88.8836 21.713 88.6887 21.865L88.6544 21.8418C88.6779 21.7452 88.7266 21.5825 88.7465 21.4734L88.7753 21.4448C88.9684 21.3536 89.1903 21.3125 89.4212 21.3125C89.8957 21.3125 90.2187 21.4949 90.2187 21.924C90.2187 22.287 89.9733 22.532 89.6143 22.6751C89.4735 22.7323 89.3436 22.7806 89.2137 22.8378C88.9395 22.9576 88.8619 23.0863 88.8619 23.2544C88.8619 23.4654 89.0405 23.5852 89.2967 23.5852C89.5529 23.5852 89.7406 23.494 89.9282 23.3277L89.9733 23.3474L89.9751 23.3456Z" fill="#000206"/>
<path fill-rule="evenodd" clip-rule="evenodd" d="M93.4176 23.2263C93.6106 22.9438 93.7116 22.5504 93.7116 22.2679C93.7116 21.9084 93.5384 21.7189 93.2065 21.7189C92.9918 21.7189 92.824 21.828 92.6887 21.9907C92.4902 22.2357 92.3747 22.6183 92.3747 22.9688C92.3747 23.3193 92.5281 23.5571 92.8727 23.5571C93.1036 23.5571 93.2823 23.423 93.4176 23.2263ZM91.8569 22.9348C91.8569 22.1838 92.2954 21.3881 93.156 21.3881C93.524 21.3881 93.7694 21.5419 93.8722 21.7511C93.8903 21.6545 93.9047 21.5133 93.9047 21.3631C93.9047 20.9607 93.7315 20.4922 93.2101 20.4922C93.008 20.4922 92.8077 20.5584 92.7031 20.6406L92.6706 20.6102C92.6995 20.5441 92.7428 20.3563 92.7626 20.2705L92.8023 20.2329C92.9178 20.1847 93.1361 20.1328 93.358 20.1328C94.1501 20.1328 94.4099 20.6961 94.4099 21.3827C94.4099 22.427 94.0147 23.904 92.8889 23.904C92.2701 23.904 91.8605 23.6411 91.8605 22.933L91.8569 22.9348Z" fill="#000206"/>
<path fill-rule="evenodd" clip-rule="evenodd" d="M95.2903 23.5036C95.532 23.5036 95.763 23.4446 95.9452 23.3445C96.3511 23.1192 96.5298 22.6757 96.5298 22.2484C96.5298 21.9032 96.3439 21.703 96.0228 21.703C95.8045 21.703 95.588 21.8085 95.4256 21.9569C95.3805 22.1196 95.3282 22.3789 95.256 22.6936C95.1748 23.0494 95.1062 23.3892 95.081 23.4893C95.1676 23.5054 95.2109 23.5054 95.2903 23.5054V23.5036ZM94.8753 24.3995C94.8266 24.6337 94.7815 24.8304 94.758 24.9628L94.7238 24.986C94.5794 24.986 94.39 24.986 94.2222 24.9967L94.1987 24.9628C94.2853 24.657 94.5307 23.6056 94.7003 22.8563C94.8627 22.1572 94.9457 21.6851 94.9854 21.4365L95.0196 21.4026C95.1838 21.3829 95.348 21.3489 95.532 21.3203L95.5609 21.3543C95.5465 21.4169 95.5284 21.4973 95.5068 21.5599C95.6944 21.4133 95.947 21.3203 96.2411 21.3203C96.8599 21.3203 97.062 21.8103 97.062 22.2412C97.062 22.7472 96.8437 23.2408 96.4792 23.509C96.1058 23.7826 95.7341 23.863 95.2019 23.863C95.1387 23.863 95.081 23.8577 94.9944 23.8487C94.9673 23.9972 94.9132 24.2278 94.8753 24.3995Z" fill="#000206"/>
<path fill-rule="evenodd" clip-rule="evenodd" d="M97.3904 21.3683C97.5492 21.3683 97.7513 21.363 97.8902 21.3594L97.9281 21.388C97.9425 21.5453 97.9804 21.9316 98.0291 22.3411C98.0688 22.6719 98.1013 22.9919 98.1356 23.2566C98.2781 22.9919 98.4405 22.6754 98.6083 22.3697C98.7724 22.0728 98.9908 21.6222 99.1116 21.3934L99.1603 21.3683C99.265 21.3683 99.4995 21.3683 99.6258 21.363L99.6439 21.4023C99.5284 21.5847 99.1405 22.2731 98.7129 23.0098C98.5072 23.3675 98.2979 23.7465 98.1031 24.0684C97.993 24.2544 97.901 24.4082 97.791 24.553C97.6791 24.696 97.5889 24.8051 97.4139 24.8892C97.2966 24.95 97.1523 24.9643 97.0242 24.9643C96.9322 24.9643 96.8384 24.95 96.7932 24.9178L96.7788 24.8874C96.7969 24.8087 96.8366 24.671 96.8564 24.5709L96.8943 24.5476C96.9177 24.5709 96.9664 24.5941 97.0386 24.5941C97.1902 24.5941 97.2623 24.5351 97.3724 24.4171C97.4752 24.308 97.5961 24.1256 97.7513 23.8449C97.7224 23.6142 97.634 23.0885 97.542 22.536C97.4608 22.0478 97.3976 21.6365 97.3543 21.4166L97.3959 21.3683H97.3904Z" fill="#000206"/>
<path fill-rule="evenodd" clip-rule="evenodd" d="M101.098 23.3456C101.062 23.4314 101.024 23.6192 100.995 23.7319L100.961 23.7694C100.791 23.866 100.546 23.9089 100.293 23.9089C99.7919 23.9089 99.4834 23.6746 99.4834 23.2437C99.4834 22.9129 99.6855 22.659 100.082 22.4962C100.183 22.4533 100.313 22.4068 100.411 22.3639C100.743 22.2388 100.844 22.0957 100.844 21.9312C100.844 21.7452 100.696 21.6451 100.423 21.6451C100.192 21.6451 100.003 21.713 99.81 21.865L99.7757 21.8418C99.7991 21.7452 99.8478 21.5825 99.8677 21.4734L99.8966 21.4448C100.09 21.3536 100.312 21.3125 100.544 21.3125C101.017 21.3125 101.34 21.4949 101.34 21.924C101.34 22.287 101.095 22.532 100.734 22.6751C100.595 22.7323 100.467 22.7806 100.335 22.8378C100.059 22.9576 99.9832 23.0863 99.9832 23.2544C99.9832 23.4654 100.162 23.5852 100.418 23.5852C100.674 23.5852 100.862 23.494 101.051 23.3277L101.096 23.3474L101.098 23.3456Z" fill="#000206"/>
<path fill-rule="evenodd" clip-rule="evenodd" d="M101.666 21.3683C101.825 21.3683 102.029 21.363 102.168 21.3594L102.207 21.388C102.222 21.5453 102.26 21.9316 102.308 22.3411C102.346 22.6719 102.381 22.9919 102.413 23.2566C102.559 22.9919 102.718 22.6754 102.889 22.3697C103.052 22.0728 103.268 21.6222 103.391 21.3934L103.44 21.3683C103.546 21.3683 103.777 21.3683 103.903 21.363L103.923 21.4023C103.806 21.5847 103.42 22.2731 102.99 23.0098C102.783 23.3675 102.575 23.7465 102.382 24.0684C102.271 24.2544 102.179 24.4082 102.068 24.553C101.957 24.696 101.865 24.8051 101.69 24.8892C101.574 24.95 101.43 24.9643 101.298 24.9643C101.208 24.9643 101.114 24.95 101.067 24.9178L101.053 24.8874C101.071 24.8087 101.11 24.671 101.13 24.5709L101.168 24.5476C101.193 24.5709 101.242 24.5941 101.313 24.5941C101.462 24.5941 101.536 24.5351 101.646 24.4171C101.747 24.308 101.868 24.1256 102.023 23.8449C101.995 23.6142 101.906 23.0885 101.816 22.536C101.735 22.0478 101.67 21.6365 101.628 21.4166L101.668 21.3683H101.666Z" fill="#000206"/>
<path fill-rule="evenodd" clip-rule="evenodd" d="M0 10.1817C0 4.56155 4.59167 0.00536442 10.2605 0V3.67821C6.64304 3.68536 3.71123 6.59288 3.71123 10.1817C3.71123 13.7705 6.64846 16.6834 10.2713 16.6834C13.8941 16.6834 16.8313 13.8009 16.8313 10.1566L20.5444 10.1602C20.5444 15.8054 15.9455 20.3633 10.2731 20.3633C4.60069 20.3633 0 15.8036 0 10.1817Z" fill="#000206"/>
<path fill-rule="evenodd" clip-rule="evenodd" d="M5.74072 10.1809C5.74072 7.68645 7.78127 5.66406 10.2981 5.66406C12.815 5.66406 14.8537 7.68645 14.8537 10.1809C14.8537 12.6754 12.8132 14.696 10.2981 14.696C7.78127 14.696 5.74072 12.6736 5.74072 10.1809Z" fill="#000206"/>
<path fill-rule="evenodd" clip-rule="evenodd" d="M13.4575 4.46244C13.4575 3.03372 14.6266 1.875 16.0682 1.875C17.5097 1.875 18.6789 3.03372 18.6789 4.46244C18.6789 5.89116 17.5097 7.05167 16.0682 7.05167C14.6266 7.05167 13.4575 5.89295 13.4575 4.46244Z" fill="#000206"/>
<path fill-rule="evenodd" clip-rule="evenodd" d="M93.6667 6.66493L93.3492 8.20989C92.6041 11.568 92.328 12.6534 91.6839 15.9937L91.5414 16.1135L89.4846 16.1725L89.3836 16.033L90.2099 12.5926L90.4535 11.4643C89.5694 11.4464 88.6871 11.4285 87.8049 11.4285C87.1157 11.4285 86.5889 11.4393 86.0512 11.4518C85.7481 12.8036 85.4937 13.9945 85.1076 15.9919L84.9669 16.1117L82.9101 16.1707L82.8091 16.0312L83.6372 12.5908L83.9602 11.0906C84.5032 8.73023 84.6061 8.21167 84.929 6.03193L85.0715 5.89067C86.0169 5.77086 86.2407 5.73152 87.2077 5.53125L87.3087 5.67072L87.0904 6.66314L86.7747 8.2081L86.4481 9.6708C87.1915 9.68689 87.933 9.69941 88.6763 9.69941C89.4629 9.69941 89.9807 9.68331 90.8558 9.66722C91.1372 8.3887 91.2509 7.69132 91.4981 6.03372L91.6388 5.89245C92.5878 5.77265 92.8097 5.73331 93.7768 5.53304L93.8778 5.67251L93.6631 6.66493H93.6667Z" fill="#000206"/>
<path fill-rule="evenodd" clip-rule="evenodd" d="M70.997 11.7783C70.5496 13.5056 69.3119 16.499 65.5032 16.499C62.8041 16.499 61.3247 15.1132 61.3247 12.3791C61.3247 12.025 61.3536 11.6334 61.4113 11.2204C61.4239 11.1202 61.4384 11.0183 61.4528 10.9146C62.1871 6.38703 64.1663 2.09192 68.5144 2.05079C69.0954 2.04364 70.2681 1.98284 71.0674 1.79688L70.7769 3.60647C69.974 3.81032 68.6966 3.91582 67.9551 3.92297C67.0314 3.93192 66.3927 4.2806 65.9507 4.70082C65.7306 4.91003 65.561 5.13533 65.4292 5.34455C65.2993 5.55018 65.2037 5.73973 65.1334 5.88099C65.7143 5.70218 66.3494 5.58952 67.0638 5.58952C69.7196 5.58952 71.3019 7.05759 71.3019 9.6486C71.3019 10.3513 71.181 11.0755 70.9988 11.7801L70.997 11.7783ZM68.8879 11.1542C69.0286 10.5713 69.1297 9.98835 69.1297 9.42687C69.1297 7.39733 67.8108 7.0558 67.062 7.0558C63.8794 7.0558 63.4735 11.9589 63.4735 12.701C63.4735 14.3085 64.446 15.013 65.5429 15.013C67.7116 15.013 68.5216 12.8029 68.8879 11.1542Z" fill="#000206"/>
<path fill-rule="evenodd" clip-rule="evenodd" d="M97.1471 9.92471C97.6288 9.50808 97.9084 9.2488 98.5742 8.61043C99.2778 7.93094 100.994 6.1714 101.317 5.83166L101.538 5.71364H103.862L103.924 5.89245C103.722 6.07306 103.619 6.15174 102.812 6.83302C102.489 7.09409 102.289 7.29257 101.908 7.63232L99.2814 10.032L102.412 15.9311L102.291 16.0902L100.05 16.151L99.8894 16.0312C99.3644 14.7902 99.2219 14.5113 98.4984 13.0522L97.0857 10.2108C96.6419 12.1778 96.3658 13.417 95.8679 15.9919L95.7272 16.1117L93.6704 16.1707L93.5693 16.0312L94.3957 12.5908L94.7186 11.0906C95.2617 8.73023 95.3645 8.21167 95.6875 6.03193L95.8282 5.89067C96.7772 5.77086 96.9991 5.73152 97.9698 5.53125L98.0708 5.67072L97.8525 6.66314L97.5386 8.2081L97.1543 9.92471H97.1471Z" fill="#000206"/>
<path fill-rule="evenodd" clip-rule="evenodd" d="M83.1681 5.74913L83.0671 5.58819L80.2688 5.57031C78.4032 5.57031 75.7889 5.69012 73.9018 7.8788C73.052 8.88195 72.2798 10.6039 72.2798 12.1864C72.2798 14.6934 73.9631 16.1382 76.0307 16.1382C77.7537 16.1382 78.6468 15.3961 78.9896 15.1154L78.8489 15.9183L78.9499 16.0595L80.8551 16.0184L80.9977 15.8789C81.4036 13.49 81.5461 12.7282 82.2552 9.6437L83.1681 5.75091V5.74913ZM79.2963 13.5705C79.0726 13.7493 78.8507 13.9513 78.6251 14.0908C78.0983 14.4109 77.4109 14.5521 76.8624 14.5521C75.0167 14.5521 74.4899 13.009 74.4899 12.047C74.4899 11.9468 74.5314 9.36117 76.6586 7.91814C77.8547 7.11705 79.1718 7.07593 79.8412 7.07593C80.1461 7.07593 80.4492 7.09381 80.7541 7.09381L79.2945 13.5687L79.2963 13.5705Z" fill="#000206"/>
<path fill-rule="evenodd" clip-rule="evenodd" d="M30.462 14.5848C32.0046 14.5848 32.7263 12.9916 33.1954 10.937C33.5255 9.49043 33.8828 7.37327 32.0208 7.37327C30.4332 7.37327 29.7313 8.88246 29.2622 10.937C28.8274 12.845 28.7264 14.5848 30.462 14.5848ZM29.7422 16.8075C27.5428 16.8075 24.3801 16.1155 25.5276 11.0854C25.957 9.19896 27.2722 5.19531 32.6866 5.19531C38.101 5.19531 37.1682 9.47076 36.8453 10.9799C35.8746 15.2357 33.2531 16.8075 29.7422 16.8075Z" fill="#000206"/>
<path fill-rule="evenodd" clip-rule="evenodd" d="M42.6168 16.5591C41.6011 16.5591 39.9304 16.5591 39.2267 16.5805L39.1077 16.4554C39.3025 15.7848 39.7788 13.9824 40.2786 11.7812C40.6845 9.99839 41.0436 8.42661 41.1843 7.71314C40.3345 7.7346 39.0229 7.7346 38.3842 7.75606L38.2705 7.60943C38.4365 7.06405 38.6728 6.11991 38.8226 5.55486L39.0156 5.45115C39.5822 5.47081 41.7346 5.49227 43.4684 5.49227C45.5631 5.49227 47.6018 5.45115 48.0312 5.42969L48.1755 5.53519C48.0186 6.03766 47.7425 7.06584 47.6018 7.58976L47.4033 7.71493C46.5626 7.69526 45.9275 7.69526 44.7223 7.69526C44.6177 8.1566 44.2893 9.49771 43.7462 11.8885C43.3349 13.6909 42.9993 15.3467 42.8026 16.3946L42.6168 16.5627V16.5591Z" fill="#000206"/>
<path fill-rule="evenodd" clip-rule="evenodd" d="M54.3674 7.96348C53.6926 7.96348 52.924 7.98494 52.5866 7.98494C52.482 8.44628 52.067 10.1647 51.6845 11.842C51.2353 13.8125 50.8366 15.6579 50.6814 16.4321L50.4829 16.5591C49.4455 16.5591 48.114 16.5591 47.0514 16.5805L46.9341 16.4554C47.1506 15.5953 47.7081 13.2474 48.2385 10.9211C48.7726 8.57324 49.2362 6.26833 49.3842 5.61744L49.5646 5.47081C50.7066 5.47081 51.8613 5.51373 54.6939 5.51373C56.9149 5.51373 59.0655 5.45115 60.2129 5.42969L60.3122 5.55486C60.1624 6.11991 59.5237 8.82537 58.9121 11.5076C58.4214 13.6677 57.9685 15.8259 57.8513 16.4339L57.6943 16.5609C56.785 16.5609 55.1143 16.5609 54.2429 16.5823L54.1491 16.4339C54.3367 15.7008 54.7444 14.0038 55.2225 11.9063C55.5852 10.3131 55.9532 8.61616 56.0958 7.98673C55.7566 7.98673 55.0006 7.96527 54.3656 7.96527L54.3674 7.96348Z" fill="#000206"/>
</g>
<defs>
<clipPath id="clip0_3609_1032">
<rect width="103.922" height="25" fill="white"/>
</clipPath>
</defs>
</svg>
