<svg width="93" height="20" viewBox="0 0 93 20" fill="none" xmlns="http://www.w3.org/2000/svg">
<g opacity="0.5" clip-path="url(#clip0_3609_1068)">
<path d="M79.4623 4.28606H80.3568V2.41087H81.2245V4.28606H82.119V0.101806H81.2245V1.74817H80.3568V0.101806H79.4623V4.28606ZM69.81 0.725878H70.7015V4.28606H71.596V0.725878H72.4667V0.101806H69.807V0.725878H69.81ZM56.7966 3.04683V3.05872C56.8025 3.43613 56.7253 3.76005 56.2706 3.76005H55.9288V2.45545H56.2409C56.5737 2.45545 56.8085 2.52974 56.7966 3.04683ZM56.4489 1.83138H55.9288V0.725878H57.2572V0.101806H55.0343V4.28606H56.5083H56.541C56.6034 4.28606 56.6658 4.28011 56.7253 4.27417C56.7817 4.26823 56.8382 4.25931 56.8917 4.25039C57.4949 4.1345 57.703 3.67387 57.6941 3.09141V3.07655C57.7059 2.24742 57.2334 1.83138 56.4489 1.83138ZM52.4845 1.10032C52.4578 0.589176 53.382 0.5446 53.3523 1.10032V3.2816C53.3642 3.81949 52.4608 3.79571 52.4845 3.2816V1.10032ZM51.59 3.2073C51.6079 3.9027 52.116 4.38115 52.8501 4.38412C53.5247 4.3871 54.226 3.97996 54.2498 3.19542V1.16867C54.2319 0.381152 53.6584 0.0304838 52.9184 0.0304838C52.1814 0.0304838 51.599 0.387096 51.593 1.19245V3.21028L51.59 3.2073ZM66.7104 3.2073C66.7282 3.9027 67.2364 4.38115 67.9704 4.38412C68.6242 4.3871 69.3018 4.00374 69.3642 3.26674L68.5975 3.14787C68.5113 3.3975 68.3538 3.66793 68.0596 3.67982C67.8308 3.68873 67.59 3.55203 67.6049 3.28457V1.13004C67.593 0.862579 67.8308 0.728849 68.0596 0.734793C68.3538 0.743708 68.5113 1.01414 68.5975 1.26377L69.3642 1.1449C69.3018 0.407898 68.6242 0.0245403 67.9704 0.0275121C67.2364 0.0304838 66.7282 0.508939 66.7104 1.20433V3.20433V3.2073ZM63.6614 4.28606H65.9377V3.66198H64.5588V2.45545H65.7208V1.83138H64.5588V0.725878H65.8872V0.101806H63.6643V4.28606H63.6614ZM76.4162 4.28606H78.6896V3.66198H77.3107V2.45545H78.4727V1.83138H77.3107V0.725878H78.6391V0.101806H76.4162V4.28606ZM62.7223 5.2816V3.66198H62.4935V0.101806H61.599V3.66198H60.8441V0.101806H59.9496V3.66198H59.1948V0.101806H58.3003V4.28606H62.0982V5.2816H62.7223ZM87.2483 1.08843C87.2215 0.577289 88.1458 0.532713 88.1161 1.08843V3.26971C88.1279 3.8076 87.2245 3.78383 87.2483 3.26971V1.08843ZM86.3538 3.19542C86.3716 3.89081 86.8798 4.36927 87.6138 4.37224C88.2884 4.37521 88.9897 3.96808 89.0135 3.18353V1.15381C88.9957 0.366294 88.4221 0.015625 87.6822 0.015625C86.9452 0.015625 86.3627 0.372237 86.3568 1.17759V3.19542H86.3538ZM74.6807 3.04683V3.05872C74.6866 3.43613 74.6094 3.76005 74.1547 3.76005H73.8129V2.33955H74.1012C74.5767 2.33955 74.6896 2.62781 74.6807 3.04683ZM74.6629 1.13301C74.6658 1.18353 74.6658 1.23405 74.6658 1.28457C74.6599 1.6293 74.5232 1.84623 74.1398 1.84623H73.81V0.627809H74.119C74.5054 0.627809 74.6391 0.782341 74.6599 1.13004L74.6629 1.13301ZM74.8382 2.07803C75.275 1.91161 75.4474 1.54014 75.4563 1.10329C75.4563 1.02305 75.4563 0.942817 75.4444 0.865551C75.3701 0.25931 74.8798 0.104778 74.2914 0.104778H72.9155V4.28903H74.3895H74.4221C74.4845 4.28903 74.547 4.28308 74.6064 4.27714C74.6629 4.2712 74.7193 4.26228 74.7728 4.25337C75.3761 4.13747 75.5841 3.67684 75.5752 3.09438V3.07952C75.5841 2.5654 75.3345 2.26823 74.8382 2.07803ZM89.8516 4.28903H92.1279V3.66496H90.749V2.45842H91.911V1.83435H90.749V0.728849H92.0774V0.101806H89.8545V4.28606L89.8516 4.28903ZM82.9095 4.28903H83.804V2.41384H84.6718V4.28903H85.5663V0.101806H84.6718V1.74817H83.804V0.101806H82.9095V4.28606V4.28903ZM66.223 9.50745V9.51934C66.229 9.89675 66.1517 10.2207 65.697 10.2207H65.3553V8.80017H65.6435C66.119 8.80017 66.2319 9.08843 66.223 9.50745ZM66.2052 7.59363C66.2082 7.64415 66.2082 7.69467 66.2082 7.74519C66.2022 8.08992 66.0655 8.30686 65.6822 8.30686H65.3523V7.0914H65.6614C66.0477 7.0914 66.1814 7.24594 66.2022 7.59363H66.2052ZM66.3805 8.53866C66.8174 8.37224 66.9897 8.00077 66.9987 7.56392C66.9987 7.48368 66.9987 7.40344 66.9868 7.32617C66.9125 6.71993 66.4221 6.5654 65.8337 6.5654H64.4578V10.7497H65.9318H65.9645C66.0269 10.7497 66.0893 10.7437 66.1487 10.7378C66.2052 10.7318 66.2617 10.7229 66.3152 10.714C66.9184 10.5981 67.1264 10.1375 67.1175 9.555V9.54014C67.1264 9.02603 66.8768 8.72885 66.3805 8.53866ZM61.2958 10.7497H63.5722V10.1256H62.1933V8.91904H63.3553V8.29497H62.1933V7.18947H63.5217V6.5654H61.2988V10.7497H61.2958ZM58.9392 7.18947H59.4444V10.7497H60.3389V6.5654H58.0418V9.75708C58.0418 10.0037 57.8932 10.1642 57.6584 10.1553V10.8566C58.3597 10.8715 58.9333 10.5892 58.9392 9.79869V7.1865V7.18947ZM71.4712 11.7452V10.1256C72.2498 10.1256 72.1576 9.4599 72.1576 9.25782V6.5654H74.5678V10.1256H74.9363V11.7452H74.3122V10.7497H72.0952V11.7452H71.4712ZM72.8322 10.1256H73.6733V7.18947H73.0522V8.88635C73.0522 9.70062 73.0076 9.93836 72.8322 10.1256ZM55.7357 14.0097C55.7089 13.4985 56.6331 13.454 56.6034 14.0097V16.191C56.6153 16.7288 55.7119 16.7051 55.7357 16.191V14.0097ZM54.8412 16.1167C54.859 16.8121 55.3672 17.2905 56.1012 17.2935C56.7758 17.2965 57.4771 16.8893 57.5009 16.1048V14.078C57.4831 13.2905 56.9095 12.9398 56.1695 12.9398C55.4325 12.9398 54.8501 13.2935 54.8441 14.1018V16.1196L54.8412 16.1167ZM86.1814 10.7497H88.4548V10.1256H87.0759V8.91904H88.2379V8.29497H87.0759V7.18947H88.4043V6.5654H86.1814V10.7497ZM75.5158 10.7497H77.7892V10.1256H76.4103V8.91904H77.5722V8.29497H76.4103V7.18947H77.7386V6.5654H75.5158V10.7497ZM54.5172 10.7497H56.7906V10.1256H55.4117V8.91904H56.5737V8.29497H55.4117V7.18947H56.7401V6.5654H54.5172V10.7497ZM51.2869 7.18947H52.1785V10.7497H53.073V7.18947H53.9437V6.5654H51.284V7.18947H51.2869ZM61.3523 16.1315C61.3701 16.8269 61.8783 17.3054 62.6123 17.3083C63.2661 17.3113 63.9437 16.928 64.0061 16.191L63.2394 16.0721C63.1532 16.3217 62.9957 16.5921 62.7015 16.604C62.4727 16.6129 62.2319 16.4762 62.2468 16.2088V14.0543C62.2349 13.7868 62.4727 13.6531 62.7015 13.659C62.9957 13.6679 63.1532 13.9384 63.2394 14.188L64.0061 14.0691C63.9437 13.3321 63.2661 12.9488 62.6123 12.9517C61.8783 12.9547 61.3701 13.4332 61.3523 14.1286V16.1286V16.1315ZM58.0982 16.1315C58.116 16.8269 58.6242 17.3054 59.3582 17.3083C60.012 17.3113 60.6896 16.928 60.752 16.191L59.9853 16.0721C59.8991 16.3217 59.7416 16.5921 59.4474 16.604C59.2186 16.6129 58.9779 16.4762 58.9927 16.2088V14.0543C58.9808 13.7868 59.2186 13.6531 59.4474 13.659C59.7416 13.6679 59.8991 13.9384 59.9853 14.188L60.752 14.0691C60.6896 13.3321 60.012 12.9488 59.3582 12.9517C58.6242 12.9547 58.116 13.4332 58.0982 14.1286V16.1286V16.1315ZM78.6807 10.7497H79.5752V8.87447H80.4429V10.7497H81.3374V6.5654H80.4429V8.21176H79.5752V6.5654H78.6807V10.7497ZM71.1591 17.2073H70.336V14.4822L69.0254 17.2103H68.2022V13.026H69.0254V15.6234L70.336 13.026H71.1591V17.2103V17.2073ZM70.9779 10.7497H70.1547V8.02454L68.8441 10.7526H68.021V6.56837H68.8441V9.1657L70.1547 6.56837H70.9779V10.7526V10.7497ZM85.2037 10.7497H84.3805V8.02454L83.07 10.7526H82.2468V6.56837H83.07V9.1657L84.3805 6.56837H85.2037V10.7526V10.7497ZM67.5722 17.2073H66.749V14.4822L65.4385 17.2103H64.6153V13.026H65.4385V15.6234L66.749 13.026H67.5722V17.2103V17.2073ZM51.59 17.2073H52.4845V15.4599H53.2275C54.0774 15.4599 54.3152 14.922 54.2944 14.1583C54.2676 13.133 53.5663 13.0112 52.6747 13.0231H52.6123H51.59V17.2073ZM52.862 13.5847C53.2394 13.6025 53.4028 13.7244 53.4028 14.2296C53.4028 14.61 53.3434 14.9012 52.8768 14.9012H52.4875V13.5847C52.6123 13.5847 52.7371 13.5817 52.8649 13.5877L52.862 13.5847ZM38.3003 3.31726V8.70508H40.8976C42.3865 8.70508 43.593 7.49854 43.593 6.00968C43.593 4.52082 42.3865 3.31429 40.8976 3.31429H38.3003V3.31726ZM38.3003 12.0008V17.3113H34.8114V0.0215685H40.8976C44.2052 0.0215685 46.8857 2.7021 46.8857 6.00968C46.8857 9.31726 44.2022 11.9978 40.8976 11.9978H38.3003V12.0008ZM28.3003 3.51042V17.3113H24.8114V3.51042H20.8174V0.0215685H32.2914V3.51042H28.2973H28.3003Z" fill="#000206"/>
<path fill-rule="evenodd" clip-rule="evenodd" d="M11.3819 0C16.1813 0 20.0743 3.89302 20.0743 8.69242C20.0743 13.4918 16.1813 17.3848 11.3819 17.3848C6.58247 17.3848 2.68945 13.4918 2.68945 8.69242C2.68945 3.89302 6.58247 0 11.3819 0ZM11.3819 3.73848C14.1159 3.73848 16.3358 5.95542 16.3358 8.69242C16.3358 11.4294 14.1189 13.6464 11.3819 13.6464C8.64488 13.6464 6.42794 11.4294 6.42794 8.69242C6.42794 5.95542 8.64488 3.73848 11.3819 3.73848Z" fill="#000206"/>
<path opacity="0.5" fill-rule="evenodd" clip-rule="evenodd" d="M8.69242 2.61719C13.4918 2.61719 17.3848 6.5102 17.3848 11.3096C17.3848 16.109 13.4918 20.002 8.69242 20.002C3.89302 20.002 0 16.106 0 11.3066C0 6.50723 3.89302 2.61719 8.69242 2.61719ZM8.69242 6.35567C11.4264 6.35567 13.6464 8.57261 13.6464 11.3096C13.6464 14.0466 11.4294 16.2635 8.69242 16.2635C5.95542 16.2635 3.73848 14.0466 3.73848 11.3096C3.73848 8.57261 5.95542 6.35567 8.69242 6.35567Z" fill="#000206"/>
<path fill-rule="evenodd" clip-rule="evenodd" d="M15.9524 16.0852C14.624 16.9084 13.0609 17.3839 11.3818 17.3839C9.15895 17.3839 7.12923 16.5459 5.58986 15.1729C6.43978 15.8534 7.51556 16.2635 8.68941 16.2635C10.7221 16.2635 12.4665 15.0392 13.2303 13.2888C15.049 12.5548 16.3328 10.7747 16.3328 8.69445C16.3328 7.57113 15.9584 6.53695 15.3313 5.70783C16.6092 7.22046 17.3789 9.17588 17.3789 11.3126C17.3789 13.0778 16.8529 14.7182 15.9494 16.0882L15.9524 16.0852ZM4.73993 14.2962C3.46207 12.7836 2.69238 10.8282 2.69238 8.69148C2.69238 6.92625 3.21839 5.28584 4.1218 3.91585C5.45018 3.09267 7.01333 2.61719 8.69238 2.61719C10.9153 2.61719 12.945 3.45225 14.4844 4.82818C13.6344 4.14765 12.5587 3.73754 11.3848 3.73754C9.35212 3.73754 7.60769 4.96191 6.84394 6.71228C5.02522 7.44631 3.74142 9.2264 3.74142 11.3066C3.74142 12.427 4.11586 13.4641 4.7429 14.2933L4.73993 14.2962Z" fill="#000206"/>
<path d="M88.2405 8.49926H86.184V6.55572H88.4069V7.17979H87.0785V8.28529H88.2405V8.49926ZM85.2033 8.49926H84.3802V8.01486L84.1484 8.49926H83.3995L84.3802 6.55572H85.2033V8.49926ZM83.0696 8.49926H82.2464V6.55572H83.0696V8.49926ZM81.34 8.49926H78.6833V6.55572H79.5778V8.20208H80.4455V6.55572H81.34V8.49926ZM77.5748 8.49926H75.5184V6.55572H77.7412V7.17979H76.4129V8.28529H77.5748V8.49926ZM74.5704 8.49926H73.6759V7.17979H73.0548V8.49926H72.1603V6.55572H74.5704V8.49926ZM70.9805 8.49926H70.1573V8.01486L69.9255 8.49926H69.1796L70.1603 6.55572H70.9834V8.49926H70.9805ZM68.8467 8.49926H68.0236V6.55572H68.8467V8.49926ZM66.4545 8.49926H64.4604V6.55572H65.8363C66.4247 6.55572 66.9151 6.71025 66.9894 7.31649C66.9983 7.39376 67.0042 7.474 67.0013 7.55423C66.9924 7.96731 66.8408 8.32095 66.4574 8.49926H66.4545ZM63.3519 8.49926H61.2955V6.55572H63.5184V7.17979H62.19V8.28529H63.3519V8.49926ZM60.3415 8.49926H59.447V7.17979H58.9418V8.49926H58.0473V6.55572H60.3445V8.49926H60.3415ZM56.5763 8.49926H54.5198V6.55572H56.7427V7.17979H55.4143V8.28529H56.5763V8.49926ZM53.0756 8.49926H52.1811V7.17979H51.2895V6.55572H53.9493V7.17979H53.0785V8.49926H53.0756ZM46.3415 8.49926H41.9166C42.8973 8.09807 43.5897 7.13224 43.5897 6.00594C43.5897 4.51709 42.3831 3.31055 40.8943 3.31055H38.297V8.49926H34.8081V0.0178306H40.8943C44.2019 0.0178306 46.8824 2.69837 46.8824 6.00594C46.8824 6.8945 46.6892 7.74146 46.3386 8.49926H46.3415ZM28.297 8.49926H24.8081V3.50669H20.814V0.0178306H32.288V3.50669H28.294V8.49926H28.297ZM65.664 7.08172H65.3549V8.29718H65.6848C66.0681 8.29718 66.2048 8.08024 66.2108 7.73551C66.2108 7.68499 66.2108 7.6315 66.2078 7.58395C66.187 7.23626 66.0533 7.08172 65.6669 7.08172H65.664ZM11.3817 0C16.1157 0 19.9671 3.789 20.0711 8.49926H12.7695C11.875 7.20357 10.3831 6.35364 8.68923 6.35364C8.03544 6.35364 7.41137 6.48143 6.84079 6.71025C6.60008 7.26003 6.45744 7.8633 6.43366 8.49926H0.463379C1.11717 6.57949 2.42475 4.96285 4.12163 3.91382C5.67586 1.55721 8.34748 0 11.3817 0Z" fill="url(#paint0_linear_3609_1068)"/>
</g>
<defs>
<linearGradient id="paint0_linear_3609_1068" x1="44.4415" y1="17.1696" x2="44.4415" y2="3.35037" gradientUnits="userSpaceOnUse">
<stop stop-color="white"/>
<stop offset="1" stop-color="white" stop-opacity="0"/>
</linearGradient>
<clipPath id="clip0_3609_1068">
<rect width="92.1248" height="20" fill="white"/>
</clipPath>
</defs>
</svg>
