<svg width="14" height="14" viewBox="0 0 14 14" fill="none" xmlns="http://www.w3.org/2000/svg">
<path d="M0.898444 7.91796L10.9341 7.91796L6.54966 12.4201C6.19926 12.7799 6.19926 13.3703 6.54965 13.7301C6.90005 14.0899 7.46607 14.0899 7.81646 13.7301L13.7372 7.65041C14.0876 7.29061 14.0876 6.70939 13.7372 6.34959L7.81646 0.269852C7.46607 -0.0899502 6.90005 -0.0899502 6.54966 0.269852C6.19926 0.629654 6.19926 1.21087 6.54966 1.57068L10.9341 6.07282L0.898444 6.07282C0.404299 6.07282 -2.96952e-07 6.48797 -3.41312e-07 6.99539C-3.85671e-07 7.5028 0.404299 7.91796 0.898444 7.91796Z" fill="white"/>
</svg>
