<svg width="122" height="60" viewBox="0 0 122 60" fill="none" xmlns="http://www.w3.org/2000/svg">
    <path d="M41.8279 20.9404L41.6037 21.5084L31.3707 47.1789H22.7871L22.8832 47.4222H36.351L44.3421 27.3662L42.0521 21.5084L41.8279 20.9404Z" fill="#A1EAF7"/>
    <path d="M72.4852 0L72.4043 0.240309H83.1492L64.8472 47.1806H56.3516L56.4487 47.4209H69.8799L88.3761 0H72.4852Z" fill="#A1EAF7"/>
    <path d="M58.6556 24.6637L59.0233 25.7284L59.2471 25.1256L61.4209 18.9842L53.9723 0H40.4338L40.3379 0.244356H49.0012L58.6556 24.6637Z" fill="#A1EAF7"/>
    <path d="M25.5584 24.6867L26.0068 25.8056L26.2326 25.2251L28.6199 19.2104L21.3968 0.192383H4.04102L4.1378 0.434262H16.3804L25.5584 24.6867Z" fill="#A1EAF7"/>
    <path d="M83.4485 0H72.764H68.1781L61.6612 18.143L59.4728 24.2446L59.2475 24.8434L59.0222 24.2607L49.3032 0H40.5818H35.9958L28.787 18.321L26.4055 24.3579L26.1802 24.9405L25.955 24.3417L16.7991 0H4.58597H0L18.1508 47.4209H22.7367H31.3616L41.6438 21.8169L41.8691 21.2504L42.0944 21.8169L44.3954 27.6595L52.2318 47.4209H56.8016H65.2495L83.4485 0Z" fill="white"/>
    <path d="M94.9109 0H88.2919L69.9004 47.4209H94.927C109.872 47.4209 121.016 38.8179 121.016 23.6784C121.016 8.53897 109.904 0 94.9109 0ZM94.9109 34.8608H88.0503V12.448H94.9753C102.706 12.448 106.426 17.1901 106.426 23.6464C106.587 29.7022 101.788 34.7487 95.7 34.9089C95.4423 34.9089 95.1685 34.9089 94.9109 34.9089V34.8608Z" fill="#A1EAF7"/>
    <path d="M23.6635 53.8047L21.5905 58.8954H21.1919L19.1029 53.8047V58.8954H18.1621V52.4961H19.5335L21.3832 57.0762L23.2489 52.4961H24.6043V58.8795H23.6635L23.6316 53.8047H23.6635Z" fill="white"/>
    <path d="M26.9799 52.4961V57.4592L30.4402 52.4961H31.4129V58.8795H30.4721V53.8047L26.9799 58.8795H26.0391V52.4961H26.9799Z" fill="white"/>
    <path d="M32.8652 52.4977H35.5442C35.7993 52.4977 36.0545 52.5456 36.2937 52.6414C36.5328 52.7371 36.7401 52.8807 36.9315 53.0563C37.1069 53.2318 37.2504 53.4552 37.3461 53.6946C37.4418 53.934 37.4896 54.1893 37.4896 54.4447C37.4896 54.7 37.4418 54.9553 37.3461 55.1947C37.2504 55.4341 37.1069 55.6575 36.9315 55.8331C36.7401 56.0086 36.5328 56.1522 36.2937 56.248C36.0545 56.3437 35.7993 56.3916 35.5442 56.3916H33.8061V58.8652H32.8652V52.4658V52.4977ZM35.4166 53.3435H33.8061V55.5777H35.4166C36.0385 55.5777 36.5328 55.083 36.5328 54.4606C36.5328 53.8382 36.0385 53.3435 35.4166 53.3435Z" fill="white"/>
    <path d="M41.0275 58.019C41.3943 57.6201 41.8567 56.5987 42.0959 54.1571L42.2554 52.4814H46.226V58.019H46.9754V59.9979H46.1303V58.8329H41.3783V59.9979H40.5332V58.019H41.0275ZM42.0162 58.019H45.2692V53.3272H43.0846L43.0049 54.205C42.7497 56.6306 42.383 57.6041 42.0321 58.019H42.0162Z" fill="white"/>
    <path d="M51.9535 57.5247H48.8599L48.3337 58.8492H47.2812L49.7529 52.4658H50.9967L53.4684 58.8492H52.4159L51.9375 57.5247H51.9535ZM49.131 56.6789H51.6983L50.4545 53.2637L49.131 56.6789Z" fill="white"/>
    <path d="M58.7608 56.0083H55.2367V58.8489H54.248V52.4814H55.1889V55.1784H58.713V52.5453H59.6538V58.8648H58.713L58.7608 55.9923V56.0083Z" fill="white"/>
    <path d="M65.6348 56.0083H62.1107V58.8489H61.1699V52.4814H62.1107V55.1784H65.6348V52.5453H66.6394V58.8648H65.6986L65.6348 55.9923V56.0083Z" fill="white"/>
    <path d="M68.9509 54.9537H70.689C70.9601 54.9537 71.2153 54.9856 71.4704 55.0814C71.7096 55.1771 71.9488 55.3207 72.1401 55.4963C72.3315 55.6878 72.491 55.9112 72.5866 56.1506C72.7939 56.6453 72.7939 57.2038 72.5866 57.6986C72.475 57.9379 72.3315 58.1614 72.1401 58.3369C71.7574 58.7039 71.2312 58.9114 70.689 58.8795H67.9941V52.4961H68.935V54.9537H68.9509ZM68.9509 58.0337H70.5615C70.8644 58.0337 71.1515 57.922 71.3588 57.7145C71.7893 57.2836 71.8053 56.5974 71.3907 56.1506C71.3907 56.1506 71.3747 56.1346 71.3588 56.1187C71.1515 55.9112 70.8644 55.7995 70.5615 55.7995H68.9669V58.0337H68.9509ZM73.352 52.4961H74.2929V58.8795H73.352V52.4961Z" fill="white"/>
    <path d="M78.1674 56.2796L76.2539 58.8808H75.0898L77.5615 55.6093L75.2971 52.4814H76.4612L78.2153 54.955L79.9694 52.4814H81.1175L78.8372 55.5774L81.3088 58.8648H80.1767L78.1515 56.2796H78.1674Z" fill="white"/>
    <path d="M85.4392 52.4974V57.4605L88.9154 52.4974H89.9201V58.8808H88.9473V53.806L85.4232 58.8489H84.4824V52.4814H85.4551L85.4392 52.4974Z" fill="white"/>
    <path d="M92.8699 53.3272H90.8926V52.4814H95.8518V53.3272H93.8905V58.8648H92.9337L92.854 53.3272H92.8699Z" fill="white"/>
</svg>
