<svg width="22" height="18" viewBox="0 0 22 18" fill="none" xmlns="http://www.w3.org/2000/svg">
<path d="M19.7353 0.353125C16.965 1.518 5.08486 6.51058 1.80285 7.87116C-0.398143 8.74246 0.890557 9.55919 0.890557 9.55919C0.890557 9.55919 2.76891 10.2141 4.38025 10.7034C5.99159 11.1945 6.8501 10.6488 6.8501 10.6488L14.4191 5.47179C17.1041 3.62004 16.4588 5.14434 15.8154 5.79923C14.4191 7.21627 12.1106 9.45004 10.1785 11.2472C9.31996 12.0094 9.74829 12.6643 10.1247 12.9898C11.5209 14.1886 15.3333 16.6406 15.5465 16.8044C16.6813 17.6192 18.912 18.7916 19.2513 16.3132L20.5938 7.75825C21.024 4.87147 21.4523 2.20111 21.5061 1.43896C21.6674 -0.414675 19.7353 0.349361 19.7353 0.349361V0.353125Z" fill="#A1EAF7"/>
</svg>
