<svg width="40" height="40" viewBox="0 0 40 40" fill="none" xmlns="http://www.w3.org/2000/svg">
<rect x="0.5" y="0.5" width="39" height="39" rx="19.5" stroke="#A1EAF7"/>
<path d="M28.7196 11.3531C25.9494 12.518 14.0692 17.5106 10.7872 18.8712C8.58623 19.7425 9.87493 20.5592 9.87493 20.5592C9.87493 20.5592 11.7533 21.2141 13.3646 21.7034C14.976 22.1945 15.8345 21.6488 15.8345 21.6488L23.4035 16.4718C26.0885 14.62 25.4432 16.1443 24.7998 16.7992C23.4035 18.2163 21.095 20.45 19.1628 22.2472C18.3043 23.0094 18.7327 23.6643 19.1091 23.9898C20.5053 25.1886 24.3176 27.6406 24.5309 27.8044C25.6657 28.6192 27.8963 29.7916 28.2357 27.3132L29.5781 18.7582C30.0083 15.8715 30.4367 13.2011 30.4904 12.439C30.6518 10.5853 28.7196 11.3494 28.7196 11.3494V11.3531Z" fill="#A1EAF7"/>
</svg>
